%TF.GenerationSoftware,KiCad,Pcbnew,6.0.3-a3aad9c10e~116~ubuntu20.04.1*%
%TF.CreationDate,2022-03-20T15:04:53+01:00*%
%TF.ProjectId,10xPro_Micro_GPIB,31307850-726f-45f4-9d69-63726f5f4750,rev?*%
%TF.SameCoordinates,Original*%
%TF.FileFunction,Soldermask,Top*%
%TF.FilePolarity,Negative*%
%FSLAX46Y46*%
G04 Gerber Fmt 4.6, Leading zero omitted, Abs format (unit mm)*
G04 Created by KiCad (PCBNEW 6.0.3-a3aad9c10e~116~ubuntu20.04.1) date 2022-03-20 15:04:53*
%MOMM*%
%LPD*%
G01*
G04 APERTURE LIST*
G04 Aperture macros list*
%AMRoundRect*
0 Rectangle with rounded corners*
0 $1 Rounding radius*
0 $2 $3 $4 $5 $6 $7 $8 $9 X,Y pos of 4 corners*
0 Add a 4 corners polygon primitive as box body*
4,1,4,$2,$3,$4,$5,$6,$7,$8,$9,$2,$3,0*
0 Add four circle primitives for the rounded corners*
1,1,$1+$1,$2,$3*
1,1,$1+$1,$4,$5*
1,1,$1+$1,$6,$7*
1,1,$1+$1,$8,$9*
0 Add four rect primitives between the rounded corners*
20,1,$1+$1,$2,$3,$4,$5,0*
20,1,$1+$1,$4,$5,$6,$7,0*
20,1,$1+$1,$6,$7,$8,$9,0*
20,1,$1+$1,$8,$9,$2,$3,0*%
G04 Aperture macros list end*
%ADD10RoundRect,0.400000X0.650000X-0.400000X0.650000X0.400000X-0.650000X0.400000X-0.650000X-0.400000X0*%
%ADD11O,2.100000X1.600000*%
%ADD12R,0.850000X0.850000*%
%ADD13C,0.500000*%
G04 APERTURE END LIST*
D10*
%TO.C,J1*%
X106489076Y-95009000D03*
D11*
X106489076Y-92850000D03*
X106489076Y-90691000D03*
X106489076Y-88532000D03*
X106489076Y-86373000D03*
X106489076Y-84214000D03*
X106489076Y-82055000D03*
X106489076Y-79896000D03*
X106489076Y-77737000D03*
X106489076Y-75578000D03*
X106489076Y-73419000D03*
X106489076Y-71260000D03*
X101809076Y-94984500D03*
X101809076Y-92825500D03*
X101809076Y-90666500D03*
X101809076Y-88507500D03*
X101809076Y-86348500D03*
X101809076Y-84189500D03*
X101809076Y-82030500D03*
X101809076Y-79871500D03*
X101809076Y-77712500D03*
X101809076Y-75553500D03*
X101809076Y-73394500D03*
X101809076Y-71235500D03*
%TD*%
D12*
%TO.C,J2*%
X148240000Y-111180000D03*
%TD*%
%TO.C,J2*%
X127852693Y-69420000D03*
%TD*%
D13*
%TO.C,mouse-bite-2mm-slot*%
X144950000Y-104750000D03*
X144200000Y-104750000D03*
X146450000Y-104750000D03*
X144950000Y-103250000D03*
X146450000Y-103250000D03*
X145700000Y-104750000D03*
X143450000Y-103250000D03*
X145700000Y-103250000D03*
X144200000Y-103250000D03*
X143450000Y-104750000D03*
%TD*%
D12*
%TO.C,J3*%
X140569268Y-111150732D03*
%TD*%
%TO.C,J3*%
X120181961Y-69390732D03*
%TD*%
D13*
%TO.C,mouse-bite-2mm-slot*%
X104900000Y-103250000D03*
X103400000Y-103250000D03*
X104150000Y-104750000D03*
X105650000Y-103250000D03*
X102650000Y-104750000D03*
X104900000Y-104750000D03*
X104150000Y-103250000D03*
X102650000Y-103250000D03*
X105650000Y-104750000D03*
X103400000Y-104750000D03*
%TD*%
D12*
%TO.C,J2*%
X107440000Y-111180000D03*
%TD*%
%TO.C,J2*%
X148252693Y-69420000D03*
%TD*%
%TO.C,J3*%
X140581961Y-69390732D03*
%TD*%
D13*
%TO.C,mouse-bite-2mm-slot*%
X82250000Y-104750000D03*
X82250000Y-103250000D03*
X83750000Y-103250000D03*
X83750000Y-104750000D03*
X84500000Y-104750000D03*
X83000000Y-103250000D03*
X85250000Y-103250000D03*
X83000000Y-104750000D03*
X84500000Y-103250000D03*
X85250000Y-104750000D03*
%TD*%
D12*
%TO.C,J3*%
X58981961Y-69390732D03*
%TD*%
%TO.C,J2*%
X87040000Y-111180000D03*
%TD*%
D10*
%TO.C,J1*%
X65676383Y-136769000D03*
D11*
X65676383Y-134610000D03*
X65676383Y-132451000D03*
X65676383Y-130292000D03*
X65676383Y-128133000D03*
X65676383Y-125974000D03*
X65676383Y-123815000D03*
X65676383Y-121656000D03*
X65676383Y-119497000D03*
X65676383Y-117338000D03*
X65676383Y-115179000D03*
X65676383Y-113020000D03*
X60996383Y-136744500D03*
X60996383Y-134585500D03*
X60996383Y-132426500D03*
X60996383Y-130267500D03*
X60996383Y-128108500D03*
X60996383Y-125949500D03*
X60996383Y-123790500D03*
X60996383Y-121631500D03*
X60996383Y-119472500D03*
X60996383Y-117313500D03*
X60996383Y-115154500D03*
X60996383Y-112995500D03*
%TD*%
D13*
%TO.C,mouse-bite-2mm-slot*%
X62700000Y-145020000D03*
X61950000Y-145020000D03*
X64200000Y-145020000D03*
X64950000Y-145020000D03*
X63450000Y-145020000D03*
%TD*%
%TO.C,mouse-bite-2mm-slot*%
X62660000Y-62980000D03*
X61910000Y-62980000D03*
X63410000Y-62980000D03*
X64910000Y-62980000D03*
X64160000Y-62980000D03*
%TD*%
D10*
%TO.C,J1*%
X147289076Y-95009000D03*
D11*
X147289076Y-92850000D03*
X147289076Y-90691000D03*
X147289076Y-88532000D03*
X147289076Y-86373000D03*
X147289076Y-84214000D03*
X147289076Y-82055000D03*
X147289076Y-79896000D03*
X147289076Y-77737000D03*
X147289076Y-75578000D03*
X147289076Y-73419000D03*
X147289076Y-71260000D03*
X142609076Y-94984500D03*
X142609076Y-92825500D03*
X142609076Y-90666500D03*
X142609076Y-88507500D03*
X142609076Y-86348500D03*
X142609076Y-84189500D03*
X142609076Y-82030500D03*
X142609076Y-79871500D03*
X142609076Y-77712500D03*
X142609076Y-75553500D03*
X142609076Y-73394500D03*
X142609076Y-71235500D03*
%TD*%
D10*
%TO.C,J1*%
X86089076Y-95009000D03*
D11*
X86089076Y-92850000D03*
X86089076Y-90691000D03*
X86089076Y-88532000D03*
X86089076Y-86373000D03*
X86089076Y-84214000D03*
X86089076Y-82055000D03*
X86089076Y-79896000D03*
X86089076Y-77737000D03*
X86089076Y-75578000D03*
X86089076Y-73419000D03*
X86089076Y-71260000D03*
X81409076Y-94984500D03*
X81409076Y-92825500D03*
X81409076Y-90666500D03*
X81409076Y-88507500D03*
X81409076Y-86348500D03*
X81409076Y-84189500D03*
X81409076Y-82030500D03*
X81409076Y-79871500D03*
X81409076Y-77712500D03*
X81409076Y-75553500D03*
X81409076Y-73394500D03*
X81409076Y-71235500D03*
%TD*%
D13*
%TO.C,mouse-bite-2mm-slot*%
X85310000Y-62980000D03*
X84560000Y-62980000D03*
X83810000Y-62980000D03*
X82310000Y-62980000D03*
X83060000Y-62980000D03*
%TD*%
D12*
%TO.C,J3*%
X120169268Y-111150732D03*
%TD*%
D10*
%TO.C,J1*%
X106476383Y-136769000D03*
D11*
X106476383Y-134610000D03*
X106476383Y-132451000D03*
X106476383Y-130292000D03*
X106476383Y-128133000D03*
X106476383Y-125974000D03*
X106476383Y-123815000D03*
X106476383Y-121656000D03*
X106476383Y-119497000D03*
X106476383Y-117338000D03*
X106476383Y-115179000D03*
X106476383Y-113020000D03*
X101796383Y-136744500D03*
X101796383Y-134585500D03*
X101796383Y-132426500D03*
X101796383Y-130267500D03*
X101796383Y-128108500D03*
X101796383Y-125949500D03*
X101796383Y-123790500D03*
X101796383Y-121631500D03*
X101796383Y-119472500D03*
X101796383Y-117313500D03*
X101796383Y-115154500D03*
X101796383Y-112995500D03*
%TD*%
D12*
%TO.C,J2*%
X107452693Y-69420000D03*
%TD*%
D13*
%TO.C,mouse-bite-2mm-slot*%
X123900000Y-145020000D03*
X125400000Y-145020000D03*
X124650000Y-145020000D03*
X126150000Y-145020000D03*
X123150000Y-145020000D03*
%TD*%
%TO.C,mouse-bite-2mm-slot*%
X145010000Y-62980000D03*
X144260000Y-62980000D03*
X143510000Y-62980000D03*
X146510000Y-62980000D03*
X145760000Y-62980000D03*
%TD*%
D12*
%TO.C,J2*%
X127840000Y-111180000D03*
%TD*%
D13*
%TO.C,mouse-bite-2mm-slot*%
X143550000Y-145020000D03*
X145800000Y-145020000D03*
X145050000Y-145020000D03*
X144300000Y-145020000D03*
X146550000Y-145020000D03*
%TD*%
D12*
%TO.C,J2*%
X87052693Y-69420000D03*
%TD*%
%TO.C,J3*%
X99781961Y-69390732D03*
%TD*%
D10*
%TO.C,J1*%
X65689076Y-95009000D03*
D11*
X65689076Y-92850000D03*
X65689076Y-90691000D03*
X65689076Y-88532000D03*
X65689076Y-86373000D03*
X65689076Y-84214000D03*
X65689076Y-82055000D03*
X65689076Y-79896000D03*
X65689076Y-77737000D03*
X65689076Y-75578000D03*
X65689076Y-73419000D03*
X65689076Y-71260000D03*
X61009076Y-94984500D03*
X61009076Y-92825500D03*
X61009076Y-90666500D03*
X61009076Y-88507500D03*
X61009076Y-86348500D03*
X61009076Y-84189500D03*
X61009076Y-82030500D03*
X61009076Y-79871500D03*
X61009076Y-77712500D03*
X61009076Y-75553500D03*
X61009076Y-73394500D03*
X61009076Y-71235500D03*
%TD*%
D12*
%TO.C,J3*%
X99769268Y-111150732D03*
%TD*%
%TO.C,J2*%
X66652693Y-69420000D03*
%TD*%
%TO.C,J2*%
X66640000Y-111180000D03*
%TD*%
D10*
%TO.C,J1*%
X126876383Y-136769000D03*
D11*
X126876383Y-134610000D03*
X126876383Y-132451000D03*
X126876383Y-130292000D03*
X126876383Y-128133000D03*
X126876383Y-125974000D03*
X126876383Y-123815000D03*
X126876383Y-121656000D03*
X126876383Y-119497000D03*
X126876383Y-117338000D03*
X126876383Y-115179000D03*
X126876383Y-113020000D03*
X122196383Y-136744500D03*
X122196383Y-134585500D03*
X122196383Y-132426500D03*
X122196383Y-130267500D03*
X122196383Y-128108500D03*
X122196383Y-125949500D03*
X122196383Y-123790500D03*
X122196383Y-121631500D03*
X122196383Y-119472500D03*
X122196383Y-117313500D03*
X122196383Y-115154500D03*
X122196383Y-112995500D03*
%TD*%
D10*
%TO.C,J1*%
X86076383Y-136769000D03*
D11*
X86076383Y-134610000D03*
X86076383Y-132451000D03*
X86076383Y-130292000D03*
X86076383Y-128133000D03*
X86076383Y-125974000D03*
X86076383Y-123815000D03*
X86076383Y-121656000D03*
X86076383Y-119497000D03*
X86076383Y-117338000D03*
X86076383Y-115179000D03*
X86076383Y-113020000D03*
X81396383Y-136744500D03*
X81396383Y-134585500D03*
X81396383Y-132426500D03*
X81396383Y-130267500D03*
X81396383Y-128108500D03*
X81396383Y-125949500D03*
X81396383Y-123790500D03*
X81396383Y-121631500D03*
X81396383Y-119472500D03*
X81396383Y-117313500D03*
X81396383Y-115154500D03*
X81396383Y-112995500D03*
%TD*%
D13*
%TO.C,mouse-bite-2mm-slot*%
X102710000Y-62980000D03*
X105710000Y-62980000D03*
X103460000Y-62980000D03*
X104960000Y-62980000D03*
X104210000Y-62980000D03*
%TD*%
D12*
%TO.C,J3*%
X58969268Y-111150732D03*
%TD*%
%TO.C,J3*%
X79381961Y-69390732D03*
%TD*%
D13*
%TO.C,mouse-bite-2mm-slot*%
X64850000Y-104750000D03*
X61850000Y-104750000D03*
X64100000Y-104750000D03*
X63350000Y-103250000D03*
X63350000Y-104750000D03*
X62600000Y-103250000D03*
X62600000Y-104750000D03*
X61850000Y-103250000D03*
X64850000Y-103250000D03*
X64100000Y-103250000D03*
%TD*%
D12*
%TO.C,J3*%
X79369268Y-111150732D03*
%TD*%
D13*
%TO.C,mouse-bite-2mm-slot*%
X104250000Y-145020000D03*
X103500000Y-145020000D03*
X105000000Y-145020000D03*
X102750000Y-145020000D03*
X105750000Y-145020000D03*
%TD*%
%TO.C,mouse-bite-2mm-slot*%
X126050000Y-104750000D03*
X125300000Y-103250000D03*
X125300000Y-104750000D03*
X124550000Y-104750000D03*
X126050000Y-103250000D03*
X124550000Y-103250000D03*
X123800000Y-103250000D03*
X123050000Y-104750000D03*
X123800000Y-104750000D03*
X123050000Y-103250000D03*
%TD*%
D10*
%TO.C,J1*%
X126889076Y-95009000D03*
D11*
X126889076Y-92850000D03*
X126889076Y-90691000D03*
X126889076Y-88532000D03*
X126889076Y-86373000D03*
X126889076Y-84214000D03*
X126889076Y-82055000D03*
X126889076Y-79896000D03*
X126889076Y-77737000D03*
X126889076Y-75578000D03*
X126889076Y-73419000D03*
X126889076Y-71260000D03*
X122209076Y-94984500D03*
X122209076Y-92825500D03*
X122209076Y-90666500D03*
X122209076Y-88507500D03*
X122209076Y-86348500D03*
X122209076Y-84189500D03*
X122209076Y-82030500D03*
X122209076Y-79871500D03*
X122209076Y-77712500D03*
X122209076Y-75553500D03*
X122209076Y-73394500D03*
X122209076Y-71235500D03*
%TD*%
D10*
%TO.C,J1*%
X147276383Y-136769000D03*
D11*
X147276383Y-134610000D03*
X147276383Y-132451000D03*
X147276383Y-130292000D03*
X147276383Y-128133000D03*
X147276383Y-125974000D03*
X147276383Y-123815000D03*
X147276383Y-121656000D03*
X147276383Y-119497000D03*
X147276383Y-117338000D03*
X147276383Y-115179000D03*
X147276383Y-113020000D03*
X142596383Y-136744500D03*
X142596383Y-134585500D03*
X142596383Y-132426500D03*
X142596383Y-130267500D03*
X142596383Y-128108500D03*
X142596383Y-125949500D03*
X142596383Y-123790500D03*
X142596383Y-121631500D03*
X142596383Y-119472500D03*
X142596383Y-117313500D03*
X142596383Y-115154500D03*
X142596383Y-112995500D03*
%TD*%
D13*
%TO.C,mouse-bite-2mm-slot*%
X123860000Y-62980000D03*
X123110000Y-62980000D03*
X126110000Y-62980000D03*
X125360000Y-62980000D03*
X124610000Y-62980000D03*
%TD*%
%TO.C,mouse-bite-2mm-slot*%
X84600000Y-145020000D03*
X85350000Y-145020000D03*
X83100000Y-145020000D03*
X83850000Y-145020000D03*
X82350000Y-145020000D03*
%TD*%
M02*
