%TF.GenerationSoftware,KiCad,Pcbnew,6.0.3-a3aad9c10e~116~ubuntu20.04.1*%
%TF.CreationDate,2022-03-20T15:04:53+01:00*%
%TF.ProjectId,10xPro_Micro_GPIB,31307850-726f-45f4-9d69-63726f5f4750,rev?*%
%TF.SameCoordinates,Original*%
%TF.FileFunction,Soldermask,Bot*%
%TF.FilePolarity,Negative*%
%FSLAX46Y46*%
G04 Gerber Fmt 4.6, Leading zero omitted, Abs format (unit mm)*
G04 Created by KiCad (PCBNEW 6.0.3-a3aad9c10e~116~ubuntu20.04.1) date 2022-03-20 15:04:53*
%MOMM*%
%LPD*%
G01*
G04 APERTURE LIST*
G04 Aperture macros list*
%AMRoundRect*
0 Rectangle with rounded corners*
0 $1 Rounding radius*
0 $2 $3 $4 $5 $6 $7 $8 $9 X,Y pos of 4 corners*
0 Add a 4 corners polygon primitive as box body*
4,1,4,$2,$3,$4,$5,$6,$7,$8,$9,$2,$3,0*
0 Add four circle primitives for the rounded corners*
1,1,$1+$1,$2,$3*
1,1,$1+$1,$4,$5*
1,1,$1+$1,$6,$7*
1,1,$1+$1,$8,$9*
0 Add four rect primitives between the rounded corners*
20,1,$1+$1,$2,$3,$4,$5,0*
20,1,$1+$1,$4,$5,$6,$7,0*
20,1,$1+$1,$6,$7,$8,$9,0*
20,1,$1+$1,$8,$9,$2,$3,0*%
G04 Aperture macros list end*
%ADD10RoundRect,0.425000X0.775000X-0.425000X0.775000X0.425000X-0.775000X0.425000X-0.775000X-0.425000X0*%
%ADD11O,2.400000X1.700000*%
%ADD12R,0.850000X0.850000*%
%ADD13C,0.500000*%
G04 APERTURE END LIST*
D10*
%TO.C,U1*%
X91409076Y-92500000D03*
D11*
X91409076Y-89960000D03*
X91409076Y-87420000D03*
X91409076Y-84880000D03*
X91409076Y-82340000D03*
X91409076Y-79800000D03*
X91409076Y-77260000D03*
X91409076Y-74720000D03*
X91409076Y-72180000D03*
X91409076Y-69640000D03*
X91409076Y-67100000D03*
X91409076Y-64560000D03*
X76169076Y-64560000D03*
X76169076Y-67100000D03*
X76169076Y-69640000D03*
X76169076Y-72180000D03*
X76169076Y-74720000D03*
X76169076Y-77260000D03*
X76169076Y-79800000D03*
X76169076Y-82340000D03*
X76169076Y-84880000D03*
X76169076Y-87420000D03*
X76169076Y-89960000D03*
X76169076Y-92500000D03*
%TD*%
D12*
%TO.C,J2*%
X148240000Y-111180000D03*
%TD*%
%TO.C,J2*%
X127852693Y-69420000D03*
%TD*%
D13*
%TO.C,mouse-bite-2mm-slot*%
X144950000Y-104750000D03*
X144200000Y-104750000D03*
X146450000Y-104750000D03*
X144950000Y-103250000D03*
X146450000Y-103250000D03*
X145700000Y-104750000D03*
X143450000Y-103250000D03*
X145700000Y-103250000D03*
X144200000Y-103250000D03*
X143450000Y-104750000D03*
%TD*%
D12*
%TO.C,J3*%
X140569268Y-111150732D03*
%TD*%
%TO.C,J3*%
X120181961Y-69390732D03*
%TD*%
D10*
%TO.C,U1*%
X132209076Y-92500000D03*
D11*
X132209076Y-89960000D03*
X132209076Y-87420000D03*
X132209076Y-84880000D03*
X132209076Y-82340000D03*
X132209076Y-79800000D03*
X132209076Y-77260000D03*
X132209076Y-74720000D03*
X132209076Y-72180000D03*
X132209076Y-69640000D03*
X132209076Y-67100000D03*
X132209076Y-64560000D03*
X116969076Y-64560000D03*
X116969076Y-67100000D03*
X116969076Y-69640000D03*
X116969076Y-72180000D03*
X116969076Y-74720000D03*
X116969076Y-77260000D03*
X116969076Y-79800000D03*
X116969076Y-82340000D03*
X116969076Y-84880000D03*
X116969076Y-87420000D03*
X116969076Y-89960000D03*
X116969076Y-92500000D03*
%TD*%
D13*
%TO.C,mouse-bite-2mm-slot*%
X104900000Y-103250000D03*
X103400000Y-103250000D03*
X104150000Y-104750000D03*
X105650000Y-103250000D03*
X102650000Y-104750000D03*
X104900000Y-104750000D03*
X104150000Y-103250000D03*
X102650000Y-103250000D03*
X105650000Y-104750000D03*
X103400000Y-104750000D03*
%TD*%
D12*
%TO.C,J2*%
X107440000Y-111180000D03*
%TD*%
%TO.C,J2*%
X148252693Y-69420000D03*
%TD*%
%TO.C,J3*%
X140581961Y-69390732D03*
%TD*%
D13*
%TO.C,mouse-bite-2mm-slot*%
X82250000Y-104750000D03*
X82250000Y-103250000D03*
X83750000Y-103250000D03*
X83750000Y-104750000D03*
X84500000Y-104750000D03*
X83000000Y-103250000D03*
X85250000Y-103250000D03*
X83000000Y-104750000D03*
X84500000Y-103250000D03*
X85250000Y-104750000D03*
%TD*%
D12*
%TO.C,J3*%
X58981961Y-69390732D03*
%TD*%
%TO.C,J2*%
X87040000Y-111180000D03*
%TD*%
D13*
%TO.C,mouse-bite-2mm-slot*%
X62700000Y-145020000D03*
X61950000Y-145020000D03*
X64200000Y-145020000D03*
X64950000Y-145020000D03*
X63450000Y-145020000D03*
%TD*%
D10*
%TO.C,U1*%
X111796383Y-134260000D03*
D11*
X111796383Y-131720000D03*
X111796383Y-129180000D03*
X111796383Y-126640000D03*
X111796383Y-124100000D03*
X111796383Y-121560000D03*
X111796383Y-119020000D03*
X111796383Y-116480000D03*
X111796383Y-113940000D03*
X111796383Y-111400000D03*
X111796383Y-108860000D03*
X111796383Y-106320000D03*
X96556383Y-106320000D03*
X96556383Y-108860000D03*
X96556383Y-111400000D03*
X96556383Y-113940000D03*
X96556383Y-116480000D03*
X96556383Y-119020000D03*
X96556383Y-121560000D03*
X96556383Y-124100000D03*
X96556383Y-126640000D03*
X96556383Y-129180000D03*
X96556383Y-131720000D03*
X96556383Y-134260000D03*
%TD*%
D13*
%TO.C,mouse-bite-2mm-slot*%
X62660000Y-62980000D03*
X61910000Y-62980000D03*
X63410000Y-62980000D03*
X64910000Y-62980000D03*
X64160000Y-62980000D03*
%TD*%
D10*
%TO.C,U1*%
X152609076Y-92500000D03*
D11*
X152609076Y-89960000D03*
X152609076Y-87420000D03*
X152609076Y-84880000D03*
X152609076Y-82340000D03*
X152609076Y-79800000D03*
X152609076Y-77260000D03*
X152609076Y-74720000D03*
X152609076Y-72180000D03*
X152609076Y-69640000D03*
X152609076Y-67100000D03*
X152609076Y-64560000D03*
X137369076Y-64560000D03*
X137369076Y-67100000D03*
X137369076Y-69640000D03*
X137369076Y-72180000D03*
X137369076Y-74720000D03*
X137369076Y-77260000D03*
X137369076Y-79800000D03*
X137369076Y-82340000D03*
X137369076Y-84880000D03*
X137369076Y-87420000D03*
X137369076Y-89960000D03*
X137369076Y-92500000D03*
%TD*%
D13*
%TO.C,mouse-bite-2mm-slot*%
X85310000Y-62980000D03*
X84560000Y-62980000D03*
X83810000Y-62980000D03*
X82310000Y-62980000D03*
X83060000Y-62980000D03*
%TD*%
D12*
%TO.C,J3*%
X120169268Y-111150732D03*
%TD*%
D10*
%TO.C,U1*%
X111809076Y-92500000D03*
D11*
X111809076Y-89960000D03*
X111809076Y-87420000D03*
X111809076Y-84880000D03*
X111809076Y-82340000D03*
X111809076Y-79800000D03*
X111809076Y-77260000D03*
X111809076Y-74720000D03*
X111809076Y-72180000D03*
X111809076Y-69640000D03*
X111809076Y-67100000D03*
X111809076Y-64560000D03*
X96569076Y-64560000D03*
X96569076Y-67100000D03*
X96569076Y-69640000D03*
X96569076Y-72180000D03*
X96569076Y-74720000D03*
X96569076Y-77260000D03*
X96569076Y-79800000D03*
X96569076Y-82340000D03*
X96569076Y-84880000D03*
X96569076Y-87420000D03*
X96569076Y-89960000D03*
X96569076Y-92500000D03*
%TD*%
D10*
%TO.C,U1*%
X71009076Y-92500000D03*
D11*
X71009076Y-89960000D03*
X71009076Y-87420000D03*
X71009076Y-84880000D03*
X71009076Y-82340000D03*
X71009076Y-79800000D03*
X71009076Y-77260000D03*
X71009076Y-74720000D03*
X71009076Y-72180000D03*
X71009076Y-69640000D03*
X71009076Y-67100000D03*
X71009076Y-64560000D03*
X55769076Y-64560000D03*
X55769076Y-67100000D03*
X55769076Y-69640000D03*
X55769076Y-72180000D03*
X55769076Y-74720000D03*
X55769076Y-77260000D03*
X55769076Y-79800000D03*
X55769076Y-82340000D03*
X55769076Y-84880000D03*
X55769076Y-87420000D03*
X55769076Y-89960000D03*
X55769076Y-92500000D03*
%TD*%
D12*
%TO.C,J2*%
X107452693Y-69420000D03*
%TD*%
D10*
%TO.C,U1*%
X152596383Y-134260000D03*
D11*
X152596383Y-131720000D03*
X152596383Y-129180000D03*
X152596383Y-126640000D03*
X152596383Y-124100000D03*
X152596383Y-121560000D03*
X152596383Y-119020000D03*
X152596383Y-116480000D03*
X152596383Y-113940000D03*
X152596383Y-111400000D03*
X152596383Y-108860000D03*
X152596383Y-106320000D03*
X137356383Y-106320000D03*
X137356383Y-108860000D03*
X137356383Y-111400000D03*
X137356383Y-113940000D03*
X137356383Y-116480000D03*
X137356383Y-119020000D03*
X137356383Y-121560000D03*
X137356383Y-124100000D03*
X137356383Y-126640000D03*
X137356383Y-129180000D03*
X137356383Y-131720000D03*
X137356383Y-134260000D03*
%TD*%
D13*
%TO.C,mouse-bite-2mm-slot*%
X123900000Y-145020000D03*
X125400000Y-145020000D03*
X124650000Y-145020000D03*
X126150000Y-145020000D03*
X123150000Y-145020000D03*
%TD*%
%TO.C,mouse-bite-2mm-slot*%
X145010000Y-62980000D03*
X144260000Y-62980000D03*
X143510000Y-62980000D03*
X146510000Y-62980000D03*
X145760000Y-62980000D03*
%TD*%
D12*
%TO.C,J2*%
X127840000Y-111180000D03*
%TD*%
D13*
%TO.C,mouse-bite-2mm-slot*%
X143550000Y-145020000D03*
X145800000Y-145020000D03*
X145050000Y-145020000D03*
X144300000Y-145020000D03*
X146550000Y-145020000D03*
%TD*%
D12*
%TO.C,J2*%
X87052693Y-69420000D03*
%TD*%
%TO.C,J3*%
X99781961Y-69390732D03*
%TD*%
%TO.C,J3*%
X99769268Y-111150732D03*
%TD*%
D10*
%TO.C,U1*%
X70996383Y-134260000D03*
D11*
X70996383Y-131720000D03*
X70996383Y-129180000D03*
X70996383Y-126640000D03*
X70996383Y-124100000D03*
X70996383Y-121560000D03*
X70996383Y-119020000D03*
X70996383Y-116480000D03*
X70996383Y-113940000D03*
X70996383Y-111400000D03*
X70996383Y-108860000D03*
X70996383Y-106320000D03*
X55756383Y-106320000D03*
X55756383Y-108860000D03*
X55756383Y-111400000D03*
X55756383Y-113940000D03*
X55756383Y-116480000D03*
X55756383Y-119020000D03*
X55756383Y-121560000D03*
X55756383Y-124100000D03*
X55756383Y-126640000D03*
X55756383Y-129180000D03*
X55756383Y-131720000D03*
X55756383Y-134260000D03*
%TD*%
D12*
%TO.C,J2*%
X66652693Y-69420000D03*
%TD*%
D10*
%TO.C,U1*%
X91396383Y-134260000D03*
D11*
X91396383Y-131720000D03*
X91396383Y-129180000D03*
X91396383Y-126640000D03*
X91396383Y-124100000D03*
X91396383Y-121560000D03*
X91396383Y-119020000D03*
X91396383Y-116480000D03*
X91396383Y-113940000D03*
X91396383Y-111400000D03*
X91396383Y-108860000D03*
X91396383Y-106320000D03*
X76156383Y-106320000D03*
X76156383Y-108860000D03*
X76156383Y-111400000D03*
X76156383Y-113940000D03*
X76156383Y-116480000D03*
X76156383Y-119020000D03*
X76156383Y-121560000D03*
X76156383Y-124100000D03*
X76156383Y-126640000D03*
X76156383Y-129180000D03*
X76156383Y-131720000D03*
X76156383Y-134260000D03*
%TD*%
D12*
%TO.C,J2*%
X66640000Y-111180000D03*
%TD*%
D10*
%TO.C,U1*%
X132196383Y-134260000D03*
D11*
X132196383Y-131720000D03*
X132196383Y-129180000D03*
X132196383Y-126640000D03*
X132196383Y-124100000D03*
X132196383Y-121560000D03*
X132196383Y-119020000D03*
X132196383Y-116480000D03*
X132196383Y-113940000D03*
X132196383Y-111400000D03*
X132196383Y-108860000D03*
X132196383Y-106320000D03*
X116956383Y-106320000D03*
X116956383Y-108860000D03*
X116956383Y-111400000D03*
X116956383Y-113940000D03*
X116956383Y-116480000D03*
X116956383Y-119020000D03*
X116956383Y-121560000D03*
X116956383Y-124100000D03*
X116956383Y-126640000D03*
X116956383Y-129180000D03*
X116956383Y-131720000D03*
X116956383Y-134260000D03*
%TD*%
D13*
%TO.C,mouse-bite-2mm-slot*%
X102710000Y-62980000D03*
X105710000Y-62980000D03*
X103460000Y-62980000D03*
X104960000Y-62980000D03*
X104210000Y-62980000D03*
%TD*%
D12*
%TO.C,J3*%
X58969268Y-111150732D03*
%TD*%
%TO.C,J3*%
X79381961Y-69390732D03*
%TD*%
D13*
%TO.C,mouse-bite-2mm-slot*%
X64850000Y-104750000D03*
X61850000Y-104750000D03*
X64100000Y-104750000D03*
X63350000Y-103250000D03*
X63350000Y-104750000D03*
X62600000Y-103250000D03*
X62600000Y-104750000D03*
X61850000Y-103250000D03*
X64850000Y-103250000D03*
X64100000Y-103250000D03*
%TD*%
D12*
%TO.C,J3*%
X79369268Y-111150732D03*
%TD*%
D13*
%TO.C,mouse-bite-2mm-slot*%
X104250000Y-145020000D03*
X103500000Y-145020000D03*
X105000000Y-145020000D03*
X102750000Y-145020000D03*
X105750000Y-145020000D03*
%TD*%
%TO.C,mouse-bite-2mm-slot*%
X126050000Y-104750000D03*
X125300000Y-103250000D03*
X125300000Y-104750000D03*
X124550000Y-104750000D03*
X126050000Y-103250000D03*
X124550000Y-103250000D03*
X123800000Y-103250000D03*
X123050000Y-104750000D03*
X123800000Y-104750000D03*
X123050000Y-103250000D03*
%TD*%
%TO.C,mouse-bite-2mm-slot*%
X123860000Y-62980000D03*
X123110000Y-62980000D03*
X126110000Y-62980000D03*
X125360000Y-62980000D03*
X124610000Y-62980000D03*
%TD*%
%TO.C,mouse-bite-2mm-slot*%
X84600000Y-145020000D03*
X85350000Y-145020000D03*
X83100000Y-145020000D03*
X83850000Y-145020000D03*
X82350000Y-145020000D03*
%TD*%
M02*
