%TF.GenerationSoftware,KiCad,Pcbnew,6.0.3-a3aad9c10e~116~ubuntu20.04.1*%
%TF.CreationDate,2022-03-20T15:04:53+01:00*%
%TF.ProjectId,10xPro_Micro_GPIB,31307850-726f-45f4-9d69-63726f5f4750,rev?*%
%TF.SameCoordinates,Original*%
%TF.FileFunction,Legend,Bot*%
%TF.FilePolarity,Positive*%
%FSLAX46Y46*%
G04 Gerber Fmt 4.6, Leading zero omitted, Abs format (unit mm)*
G04 Created by KiCad (PCBNEW 6.0.3-a3aad9c10e~116~ubuntu20.04.1) date 2022-03-20 15:04:53*
%MOMM*%
%LPD*%
G01*
G04 APERTURE LIST*
%ADD10C,0.150000*%
%ADD11C,0.300000*%
G04 APERTURE END LIST*
D10*
X60450136Y-143250225D02*
G75*
G03*
X66322383Y-143232700I2925864J3446525D01*
G01*
X132195983Y-138838500D02*
X127547783Y-143220000D01*
X91389268Y-138860732D02*
X91396228Y-136163532D01*
X116961961Y-97126132D02*
X116968921Y-94428932D01*
X111801961Y-97100732D02*
X111808921Y-94403532D01*
X86760495Y-64647278D02*
G75*
G03*
X80888216Y-64629760I-2946395J-3429022D01*
G01*
X152589268Y-138860732D02*
X152596228Y-136163532D01*
X55749268Y-138886132D02*
X55756228Y-136188932D01*
X132189268Y-138860732D02*
X132196228Y-136163532D01*
X56690936Y-68371140D02*
X60480376Y-64634600D01*
X116949268Y-138886132D02*
X116956228Y-136188932D01*
X55761961Y-97126132D02*
X55768921Y-94428932D01*
X80862835Y-101490218D02*
G75*
G03*
X86735076Y-101472700I2925865J3446518D01*
G01*
X101250136Y-143250225D02*
G75*
G03*
X107122383Y-143232700I2925864J3446525D01*
G01*
X116968676Y-97103900D02*
X121654976Y-101485400D01*
X142062835Y-101490218D02*
G75*
G03*
X147935076Y-101472700I2925865J3446518D01*
G01*
X131248243Y-110081140D02*
X127560483Y-106420000D01*
X76155983Y-138863900D02*
X80842283Y-143245400D01*
X127547796Y-106407285D02*
G75*
G03*
X121675523Y-106389760I-2946396J-3429015D01*
G01*
X55755983Y-138863900D02*
X60442283Y-143245400D01*
X91401961Y-97100732D02*
X91408921Y-94403532D01*
X70989268Y-138860732D02*
X70996228Y-136163532D01*
X138290936Y-68371140D02*
X142080376Y-64634600D01*
X96568676Y-97103900D02*
X101254976Y-101485400D01*
X117878243Y-110131140D02*
X121667683Y-106394600D01*
X151660936Y-68321140D02*
X147973176Y-64660000D01*
X86747796Y-106407285D02*
G75*
G03*
X80875523Y-106389760I-2946396J-3429015D01*
G01*
X77078243Y-110131140D02*
X80867683Y-106394600D01*
X111795983Y-138838500D02*
X107147783Y-143220000D01*
X152601961Y-97100732D02*
X152608921Y-94403532D01*
X96561961Y-97126132D02*
X96568921Y-94428932D01*
X121662835Y-101490218D02*
G75*
G03*
X127535076Y-101472700I2925865J3446518D01*
G01*
X138278243Y-110131140D02*
X142067683Y-106394600D01*
X131260936Y-68321140D02*
X127573176Y-64660000D01*
X90460936Y-68321140D02*
X86773176Y-64660000D01*
X96555983Y-138863900D02*
X101242283Y-143245400D01*
X121650136Y-143250225D02*
G75*
G03*
X127522383Y-143232700I2925864J3446525D01*
G01*
X127560495Y-64647278D02*
G75*
G03*
X121688216Y-64629760I-2946395J-3429022D01*
G01*
X76161961Y-97126132D02*
X76168921Y-94428932D01*
X107160495Y-64647278D02*
G75*
G03*
X101288216Y-64629760I-2946395J-3429022D01*
G01*
X76168676Y-97103900D02*
X80854976Y-101485400D01*
X142050136Y-143250225D02*
G75*
G03*
X147922383Y-143232700I2925864J3446525D01*
G01*
X91408676Y-97078500D02*
X86760476Y-101460000D01*
X137355983Y-138863900D02*
X142042283Y-143245400D01*
X132201961Y-97100732D02*
X132208921Y-94403532D01*
X97478243Y-110131140D02*
X101267683Y-106394600D01*
X55768676Y-97103900D02*
X60454976Y-101485400D01*
X66360495Y-64647278D02*
G75*
G03*
X60488216Y-64629760I-2946395J-3429022D01*
G01*
X76149268Y-138886132D02*
X76156228Y-136188932D01*
X147947796Y-106407285D02*
G75*
G03*
X142075523Y-106389760I-2946396J-3429015D01*
G01*
X107147796Y-106407285D02*
G75*
G03*
X101275523Y-106389760I-2946396J-3429015D01*
G01*
X137349268Y-138886132D02*
X137356228Y-136188932D01*
X91395983Y-138838500D02*
X86747783Y-143220000D01*
X101262835Y-101490218D02*
G75*
G03*
X107135076Y-101472700I2925865J3446518D01*
G01*
X110860936Y-68321140D02*
X107173176Y-64660000D01*
X56678243Y-110131140D02*
X60467683Y-106394600D01*
X90448243Y-110081140D02*
X86760483Y-106420000D01*
X137368676Y-97103900D02*
X142054976Y-101485400D01*
X137361961Y-97126132D02*
X137368921Y-94428932D01*
X80850136Y-143250225D02*
G75*
G03*
X86722383Y-143232700I2925864J3446525D01*
G01*
X117890936Y-68371140D02*
X121680376Y-64634600D01*
X70995983Y-138838500D02*
X66347783Y-143220000D01*
X70048243Y-110081140D02*
X66360483Y-106420000D01*
X151648243Y-110081140D02*
X147960483Y-106420000D01*
X111789268Y-138860732D02*
X111796228Y-136163532D01*
X71001961Y-97100732D02*
X71008921Y-94403532D01*
X111808676Y-97078500D02*
X107160476Y-101460000D01*
X132208676Y-97078500D02*
X127560476Y-101460000D01*
X152608676Y-97078500D02*
X147960476Y-101460000D01*
X116955983Y-138863900D02*
X121642283Y-143245400D01*
X152595983Y-138838500D02*
X147947783Y-143220000D01*
X110848243Y-110081140D02*
X107160483Y-106420000D01*
X96549268Y-138886132D02*
X96556228Y-136188932D01*
X97490936Y-68371140D02*
X101280376Y-64634600D01*
X71008676Y-97078500D02*
X66360476Y-101460000D01*
X66347796Y-106407285D02*
G75*
G03*
X60475523Y-106389760I-2946396J-3429015D01*
G01*
X60462835Y-101490218D02*
G75*
G03*
X66335076Y-101472700I2925865J3446518D01*
G01*
X70060936Y-68321140D02*
X66373176Y-64660000D01*
X77090936Y-68371140D02*
X80880376Y-64634600D01*
X147960495Y-64647278D02*
G75*
G03*
X142088216Y-64629760I-2946395J-3429022D01*
G01*
D11*
%TO.C,J1*%
X104959076Y-94668571D02*
X105044790Y-94840000D01*
X105044790Y-95097142D01*
X104959076Y-95354285D01*
X104787647Y-95525714D01*
X104616218Y-95611428D01*
X104273361Y-95697142D01*
X104016218Y-95697142D01*
X103673361Y-95611428D01*
X103501933Y-95525714D01*
X103330504Y-95354285D01*
X103244790Y-95097142D01*
X103244790Y-94925714D01*
X103330504Y-94668571D01*
X103416218Y-94582857D01*
X104016218Y-94582857D01*
X104016218Y-94925714D01*
X103244790Y-93811428D02*
X105044790Y-93811428D01*
X105044790Y-93125714D01*
X104959076Y-92954285D01*
X104873361Y-92868571D01*
X104701933Y-92782857D01*
X104444790Y-92782857D01*
X104273361Y-92868571D01*
X104187647Y-92954285D01*
X104101933Y-93125714D01*
X104101933Y-93811428D01*
X103930504Y-92011428D02*
X103930504Y-90640000D01*
X103244790Y-89782857D02*
X105044790Y-89782857D01*
X104187647Y-88325714D02*
X104101933Y-88068571D01*
X104016218Y-87982857D01*
X103844790Y-87897142D01*
X103587647Y-87897142D01*
X103416218Y-87982857D01*
X103330504Y-88068571D01*
X103244790Y-88240000D01*
X103244790Y-88925714D01*
X105044790Y-88925714D01*
X105044790Y-88325714D01*
X104959076Y-88154285D01*
X104873361Y-88068571D01*
X104701933Y-87982857D01*
X104530504Y-87982857D01*
X104359076Y-88068571D01*
X104273361Y-88154285D01*
X104187647Y-88325714D01*
X104187647Y-88925714D01*
X103416218Y-84725714D02*
X103330504Y-84811428D01*
X103244790Y-85068571D01*
X103244790Y-85240000D01*
X103330504Y-85497142D01*
X103501933Y-85668571D01*
X103673361Y-85754285D01*
X104016218Y-85840000D01*
X104273361Y-85840000D01*
X104616218Y-85754285D01*
X104787647Y-85668571D01*
X104959076Y-85497142D01*
X105044790Y-85240000D01*
X105044790Y-85068571D01*
X104959076Y-84811428D01*
X104873361Y-84725714D01*
X105044790Y-83611428D02*
X105044790Y-83268571D01*
X104959076Y-83097142D01*
X104787647Y-82925714D01*
X104444790Y-82840000D01*
X103844790Y-82840000D01*
X103501933Y-82925714D01*
X103330504Y-83097142D01*
X103244790Y-83268571D01*
X103244790Y-83611428D01*
X103330504Y-83782857D01*
X103501933Y-83954285D01*
X103844790Y-84040000D01*
X104444790Y-84040000D01*
X104787647Y-83954285D01*
X104959076Y-83782857D01*
X105044790Y-83611428D01*
X103244790Y-82068571D02*
X105044790Y-82068571D01*
X103244790Y-81040000D01*
X105044790Y-81040000D01*
X103244790Y-80182857D02*
X105044790Y-80182857D01*
X103244790Y-79154285D01*
X105044790Y-79154285D01*
X104187647Y-78297142D02*
X104187647Y-77697142D01*
X103244790Y-77440000D02*
X103244790Y-78297142D01*
X105044790Y-78297142D01*
X105044790Y-77440000D01*
X103416218Y-75640000D02*
X103330504Y-75725714D01*
X103244790Y-75982857D01*
X103244790Y-76154285D01*
X103330504Y-76411428D01*
X103501933Y-76582857D01*
X103673361Y-76668571D01*
X104016218Y-76754285D01*
X104273361Y-76754285D01*
X104616218Y-76668571D01*
X104787647Y-76582857D01*
X104959076Y-76411428D01*
X105044790Y-76154285D01*
X105044790Y-75982857D01*
X104959076Y-75725714D01*
X104873361Y-75640000D01*
X105044790Y-75125714D02*
X105044790Y-74097142D01*
X103244790Y-74611428D02*
X105044790Y-74611428D01*
X105044790Y-73154285D02*
X105044790Y-72811428D01*
X104959076Y-72640000D01*
X104787647Y-72468571D01*
X104444790Y-72382857D01*
X103844790Y-72382857D01*
X103501933Y-72468571D01*
X103330504Y-72640000D01*
X103244790Y-72811428D01*
X103244790Y-73154285D01*
X103330504Y-73325714D01*
X103501933Y-73497142D01*
X103844790Y-73582857D01*
X104444790Y-73582857D01*
X104787647Y-73497142D01*
X104959076Y-73325714D01*
X105044790Y-73154285D01*
X103244790Y-70582857D02*
X104101933Y-71182857D01*
X103244790Y-71611428D02*
X105044790Y-71611428D01*
X105044790Y-70925714D01*
X104959076Y-70754285D01*
X104873361Y-70668571D01*
X104701933Y-70582857D01*
X104444790Y-70582857D01*
X104273361Y-70668571D01*
X104187647Y-70754285D01*
X104101933Y-70925714D01*
X104101933Y-71611428D01*
X64146383Y-136428571D02*
X64232097Y-136600000D01*
X64232097Y-136857142D01*
X64146383Y-137114285D01*
X63974954Y-137285714D01*
X63803525Y-137371428D01*
X63460668Y-137457142D01*
X63203525Y-137457142D01*
X62860668Y-137371428D01*
X62689240Y-137285714D01*
X62517811Y-137114285D01*
X62432097Y-136857142D01*
X62432097Y-136685714D01*
X62517811Y-136428571D01*
X62603525Y-136342857D01*
X63203525Y-136342857D01*
X63203525Y-136685714D01*
X62432097Y-135571428D02*
X64232097Y-135571428D01*
X64232097Y-134885714D01*
X64146383Y-134714285D01*
X64060668Y-134628571D01*
X63889240Y-134542857D01*
X63632097Y-134542857D01*
X63460668Y-134628571D01*
X63374954Y-134714285D01*
X63289240Y-134885714D01*
X63289240Y-135571428D01*
X63117811Y-133771428D02*
X63117811Y-132400000D01*
X62432097Y-131542857D02*
X64232097Y-131542857D01*
X63374954Y-130085714D02*
X63289240Y-129828571D01*
X63203525Y-129742857D01*
X63032097Y-129657142D01*
X62774954Y-129657142D01*
X62603525Y-129742857D01*
X62517811Y-129828571D01*
X62432097Y-130000000D01*
X62432097Y-130685714D01*
X64232097Y-130685714D01*
X64232097Y-130085714D01*
X64146383Y-129914285D01*
X64060668Y-129828571D01*
X63889240Y-129742857D01*
X63717811Y-129742857D01*
X63546383Y-129828571D01*
X63460668Y-129914285D01*
X63374954Y-130085714D01*
X63374954Y-130685714D01*
X62603525Y-126485714D02*
X62517811Y-126571428D01*
X62432097Y-126828571D01*
X62432097Y-127000000D01*
X62517811Y-127257142D01*
X62689240Y-127428571D01*
X62860668Y-127514285D01*
X63203525Y-127600000D01*
X63460668Y-127600000D01*
X63803525Y-127514285D01*
X63974954Y-127428571D01*
X64146383Y-127257142D01*
X64232097Y-127000000D01*
X64232097Y-126828571D01*
X64146383Y-126571428D01*
X64060668Y-126485714D01*
X64232097Y-125371428D02*
X64232097Y-125028571D01*
X64146383Y-124857142D01*
X63974954Y-124685714D01*
X63632097Y-124600000D01*
X63032097Y-124600000D01*
X62689240Y-124685714D01*
X62517811Y-124857142D01*
X62432097Y-125028571D01*
X62432097Y-125371428D01*
X62517811Y-125542857D01*
X62689240Y-125714285D01*
X63032097Y-125800000D01*
X63632097Y-125800000D01*
X63974954Y-125714285D01*
X64146383Y-125542857D01*
X64232097Y-125371428D01*
X62432097Y-123828571D02*
X64232097Y-123828571D01*
X62432097Y-122800000D01*
X64232097Y-122800000D01*
X62432097Y-121942857D02*
X64232097Y-121942857D01*
X62432097Y-120914285D01*
X64232097Y-120914285D01*
X63374954Y-120057142D02*
X63374954Y-119457142D01*
X62432097Y-119200000D02*
X62432097Y-120057142D01*
X64232097Y-120057142D01*
X64232097Y-119200000D01*
X62603525Y-117400000D02*
X62517811Y-117485714D01*
X62432097Y-117742857D01*
X62432097Y-117914285D01*
X62517811Y-118171428D01*
X62689240Y-118342857D01*
X62860668Y-118428571D01*
X63203525Y-118514285D01*
X63460668Y-118514285D01*
X63803525Y-118428571D01*
X63974954Y-118342857D01*
X64146383Y-118171428D01*
X64232097Y-117914285D01*
X64232097Y-117742857D01*
X64146383Y-117485714D01*
X64060668Y-117400000D01*
X64232097Y-116885714D02*
X64232097Y-115857142D01*
X62432097Y-116371428D02*
X64232097Y-116371428D01*
X64232097Y-114914285D02*
X64232097Y-114571428D01*
X64146383Y-114400000D01*
X63974954Y-114228571D01*
X63632097Y-114142857D01*
X63032097Y-114142857D01*
X62689240Y-114228571D01*
X62517811Y-114400000D01*
X62432097Y-114571428D01*
X62432097Y-114914285D01*
X62517811Y-115085714D01*
X62689240Y-115257142D01*
X63032097Y-115342857D01*
X63632097Y-115342857D01*
X63974954Y-115257142D01*
X64146383Y-115085714D01*
X64232097Y-114914285D01*
X62432097Y-112342857D02*
X63289240Y-112942857D01*
X62432097Y-113371428D02*
X64232097Y-113371428D01*
X64232097Y-112685714D01*
X64146383Y-112514285D01*
X64060668Y-112428571D01*
X63889240Y-112342857D01*
X63632097Y-112342857D01*
X63460668Y-112428571D01*
X63374954Y-112514285D01*
X63289240Y-112685714D01*
X63289240Y-113371428D01*
X145759076Y-94668571D02*
X145844790Y-94840000D01*
X145844790Y-95097142D01*
X145759076Y-95354285D01*
X145587647Y-95525714D01*
X145416218Y-95611428D01*
X145073361Y-95697142D01*
X144816218Y-95697142D01*
X144473361Y-95611428D01*
X144301933Y-95525714D01*
X144130504Y-95354285D01*
X144044790Y-95097142D01*
X144044790Y-94925714D01*
X144130504Y-94668571D01*
X144216218Y-94582857D01*
X144816218Y-94582857D01*
X144816218Y-94925714D01*
X144044790Y-93811428D02*
X145844790Y-93811428D01*
X145844790Y-93125714D01*
X145759076Y-92954285D01*
X145673361Y-92868571D01*
X145501933Y-92782857D01*
X145244790Y-92782857D01*
X145073361Y-92868571D01*
X144987647Y-92954285D01*
X144901933Y-93125714D01*
X144901933Y-93811428D01*
X144730504Y-92011428D02*
X144730504Y-90640000D01*
X144044790Y-89782857D02*
X145844790Y-89782857D01*
X144987647Y-88325714D02*
X144901933Y-88068571D01*
X144816218Y-87982857D01*
X144644790Y-87897142D01*
X144387647Y-87897142D01*
X144216218Y-87982857D01*
X144130504Y-88068571D01*
X144044790Y-88240000D01*
X144044790Y-88925714D01*
X145844790Y-88925714D01*
X145844790Y-88325714D01*
X145759076Y-88154285D01*
X145673361Y-88068571D01*
X145501933Y-87982857D01*
X145330504Y-87982857D01*
X145159076Y-88068571D01*
X145073361Y-88154285D01*
X144987647Y-88325714D01*
X144987647Y-88925714D01*
X144216218Y-84725714D02*
X144130504Y-84811428D01*
X144044790Y-85068571D01*
X144044790Y-85240000D01*
X144130504Y-85497142D01*
X144301933Y-85668571D01*
X144473361Y-85754285D01*
X144816218Y-85840000D01*
X145073361Y-85840000D01*
X145416218Y-85754285D01*
X145587647Y-85668571D01*
X145759076Y-85497142D01*
X145844790Y-85240000D01*
X145844790Y-85068571D01*
X145759076Y-84811428D01*
X145673361Y-84725714D01*
X145844790Y-83611428D02*
X145844790Y-83268571D01*
X145759076Y-83097142D01*
X145587647Y-82925714D01*
X145244790Y-82840000D01*
X144644790Y-82840000D01*
X144301933Y-82925714D01*
X144130504Y-83097142D01*
X144044790Y-83268571D01*
X144044790Y-83611428D01*
X144130504Y-83782857D01*
X144301933Y-83954285D01*
X144644790Y-84040000D01*
X145244790Y-84040000D01*
X145587647Y-83954285D01*
X145759076Y-83782857D01*
X145844790Y-83611428D01*
X144044790Y-82068571D02*
X145844790Y-82068571D01*
X144044790Y-81040000D01*
X145844790Y-81040000D01*
X144044790Y-80182857D02*
X145844790Y-80182857D01*
X144044790Y-79154285D01*
X145844790Y-79154285D01*
X144987647Y-78297142D02*
X144987647Y-77697142D01*
X144044790Y-77440000D02*
X144044790Y-78297142D01*
X145844790Y-78297142D01*
X145844790Y-77440000D01*
X144216218Y-75640000D02*
X144130504Y-75725714D01*
X144044790Y-75982857D01*
X144044790Y-76154285D01*
X144130504Y-76411428D01*
X144301933Y-76582857D01*
X144473361Y-76668571D01*
X144816218Y-76754285D01*
X145073361Y-76754285D01*
X145416218Y-76668571D01*
X145587647Y-76582857D01*
X145759076Y-76411428D01*
X145844790Y-76154285D01*
X145844790Y-75982857D01*
X145759076Y-75725714D01*
X145673361Y-75640000D01*
X145844790Y-75125714D02*
X145844790Y-74097142D01*
X144044790Y-74611428D02*
X145844790Y-74611428D01*
X145844790Y-73154285D02*
X145844790Y-72811428D01*
X145759076Y-72640000D01*
X145587647Y-72468571D01*
X145244790Y-72382857D01*
X144644790Y-72382857D01*
X144301933Y-72468571D01*
X144130504Y-72640000D01*
X144044790Y-72811428D01*
X144044790Y-73154285D01*
X144130504Y-73325714D01*
X144301933Y-73497142D01*
X144644790Y-73582857D01*
X145244790Y-73582857D01*
X145587647Y-73497142D01*
X145759076Y-73325714D01*
X145844790Y-73154285D01*
X144044790Y-70582857D02*
X144901933Y-71182857D01*
X144044790Y-71611428D02*
X145844790Y-71611428D01*
X145844790Y-70925714D01*
X145759076Y-70754285D01*
X145673361Y-70668571D01*
X145501933Y-70582857D01*
X145244790Y-70582857D01*
X145073361Y-70668571D01*
X144987647Y-70754285D01*
X144901933Y-70925714D01*
X144901933Y-71611428D01*
X84559076Y-94668571D02*
X84644790Y-94840000D01*
X84644790Y-95097142D01*
X84559076Y-95354285D01*
X84387647Y-95525714D01*
X84216218Y-95611428D01*
X83873361Y-95697142D01*
X83616218Y-95697142D01*
X83273361Y-95611428D01*
X83101933Y-95525714D01*
X82930504Y-95354285D01*
X82844790Y-95097142D01*
X82844790Y-94925714D01*
X82930504Y-94668571D01*
X83016218Y-94582857D01*
X83616218Y-94582857D01*
X83616218Y-94925714D01*
X82844790Y-93811428D02*
X84644790Y-93811428D01*
X84644790Y-93125714D01*
X84559076Y-92954285D01*
X84473361Y-92868571D01*
X84301933Y-92782857D01*
X84044790Y-92782857D01*
X83873361Y-92868571D01*
X83787647Y-92954285D01*
X83701933Y-93125714D01*
X83701933Y-93811428D01*
X83530504Y-92011428D02*
X83530504Y-90640000D01*
X82844790Y-89782857D02*
X84644790Y-89782857D01*
X83787647Y-88325714D02*
X83701933Y-88068571D01*
X83616218Y-87982857D01*
X83444790Y-87897142D01*
X83187647Y-87897142D01*
X83016218Y-87982857D01*
X82930504Y-88068571D01*
X82844790Y-88240000D01*
X82844790Y-88925714D01*
X84644790Y-88925714D01*
X84644790Y-88325714D01*
X84559076Y-88154285D01*
X84473361Y-88068571D01*
X84301933Y-87982857D01*
X84130504Y-87982857D01*
X83959076Y-88068571D01*
X83873361Y-88154285D01*
X83787647Y-88325714D01*
X83787647Y-88925714D01*
X83016218Y-84725714D02*
X82930504Y-84811428D01*
X82844790Y-85068571D01*
X82844790Y-85240000D01*
X82930504Y-85497142D01*
X83101933Y-85668571D01*
X83273361Y-85754285D01*
X83616218Y-85840000D01*
X83873361Y-85840000D01*
X84216218Y-85754285D01*
X84387647Y-85668571D01*
X84559076Y-85497142D01*
X84644790Y-85240000D01*
X84644790Y-85068571D01*
X84559076Y-84811428D01*
X84473361Y-84725714D01*
X84644790Y-83611428D02*
X84644790Y-83268571D01*
X84559076Y-83097142D01*
X84387647Y-82925714D01*
X84044790Y-82840000D01*
X83444790Y-82840000D01*
X83101933Y-82925714D01*
X82930504Y-83097142D01*
X82844790Y-83268571D01*
X82844790Y-83611428D01*
X82930504Y-83782857D01*
X83101933Y-83954285D01*
X83444790Y-84040000D01*
X84044790Y-84040000D01*
X84387647Y-83954285D01*
X84559076Y-83782857D01*
X84644790Y-83611428D01*
X82844790Y-82068571D02*
X84644790Y-82068571D01*
X82844790Y-81040000D01*
X84644790Y-81040000D01*
X82844790Y-80182857D02*
X84644790Y-80182857D01*
X82844790Y-79154285D01*
X84644790Y-79154285D01*
X83787647Y-78297142D02*
X83787647Y-77697142D01*
X82844790Y-77440000D02*
X82844790Y-78297142D01*
X84644790Y-78297142D01*
X84644790Y-77440000D01*
X83016218Y-75640000D02*
X82930504Y-75725714D01*
X82844790Y-75982857D01*
X82844790Y-76154285D01*
X82930504Y-76411428D01*
X83101933Y-76582857D01*
X83273361Y-76668571D01*
X83616218Y-76754285D01*
X83873361Y-76754285D01*
X84216218Y-76668571D01*
X84387647Y-76582857D01*
X84559076Y-76411428D01*
X84644790Y-76154285D01*
X84644790Y-75982857D01*
X84559076Y-75725714D01*
X84473361Y-75640000D01*
X84644790Y-75125714D02*
X84644790Y-74097142D01*
X82844790Y-74611428D02*
X84644790Y-74611428D01*
X84644790Y-73154285D02*
X84644790Y-72811428D01*
X84559076Y-72640000D01*
X84387647Y-72468571D01*
X84044790Y-72382857D01*
X83444790Y-72382857D01*
X83101933Y-72468571D01*
X82930504Y-72640000D01*
X82844790Y-72811428D01*
X82844790Y-73154285D01*
X82930504Y-73325714D01*
X83101933Y-73497142D01*
X83444790Y-73582857D01*
X84044790Y-73582857D01*
X84387647Y-73497142D01*
X84559076Y-73325714D01*
X84644790Y-73154285D01*
X82844790Y-70582857D02*
X83701933Y-71182857D01*
X82844790Y-71611428D02*
X84644790Y-71611428D01*
X84644790Y-70925714D01*
X84559076Y-70754285D01*
X84473361Y-70668571D01*
X84301933Y-70582857D01*
X84044790Y-70582857D01*
X83873361Y-70668571D01*
X83787647Y-70754285D01*
X83701933Y-70925714D01*
X83701933Y-71611428D01*
X104946383Y-136428571D02*
X105032097Y-136600000D01*
X105032097Y-136857142D01*
X104946383Y-137114285D01*
X104774954Y-137285714D01*
X104603525Y-137371428D01*
X104260668Y-137457142D01*
X104003525Y-137457142D01*
X103660668Y-137371428D01*
X103489240Y-137285714D01*
X103317811Y-137114285D01*
X103232097Y-136857142D01*
X103232097Y-136685714D01*
X103317811Y-136428571D01*
X103403525Y-136342857D01*
X104003525Y-136342857D01*
X104003525Y-136685714D01*
X103232097Y-135571428D02*
X105032097Y-135571428D01*
X105032097Y-134885714D01*
X104946383Y-134714285D01*
X104860668Y-134628571D01*
X104689240Y-134542857D01*
X104432097Y-134542857D01*
X104260668Y-134628571D01*
X104174954Y-134714285D01*
X104089240Y-134885714D01*
X104089240Y-135571428D01*
X103917811Y-133771428D02*
X103917811Y-132400000D01*
X103232097Y-131542857D02*
X105032097Y-131542857D01*
X104174954Y-130085714D02*
X104089240Y-129828571D01*
X104003525Y-129742857D01*
X103832097Y-129657142D01*
X103574954Y-129657142D01*
X103403525Y-129742857D01*
X103317811Y-129828571D01*
X103232097Y-130000000D01*
X103232097Y-130685714D01*
X105032097Y-130685714D01*
X105032097Y-130085714D01*
X104946383Y-129914285D01*
X104860668Y-129828571D01*
X104689240Y-129742857D01*
X104517811Y-129742857D01*
X104346383Y-129828571D01*
X104260668Y-129914285D01*
X104174954Y-130085714D01*
X104174954Y-130685714D01*
X103403525Y-126485714D02*
X103317811Y-126571428D01*
X103232097Y-126828571D01*
X103232097Y-127000000D01*
X103317811Y-127257142D01*
X103489240Y-127428571D01*
X103660668Y-127514285D01*
X104003525Y-127600000D01*
X104260668Y-127600000D01*
X104603525Y-127514285D01*
X104774954Y-127428571D01*
X104946383Y-127257142D01*
X105032097Y-127000000D01*
X105032097Y-126828571D01*
X104946383Y-126571428D01*
X104860668Y-126485714D01*
X105032097Y-125371428D02*
X105032097Y-125028571D01*
X104946383Y-124857142D01*
X104774954Y-124685714D01*
X104432097Y-124600000D01*
X103832097Y-124600000D01*
X103489240Y-124685714D01*
X103317811Y-124857142D01*
X103232097Y-125028571D01*
X103232097Y-125371428D01*
X103317811Y-125542857D01*
X103489240Y-125714285D01*
X103832097Y-125800000D01*
X104432097Y-125800000D01*
X104774954Y-125714285D01*
X104946383Y-125542857D01*
X105032097Y-125371428D01*
X103232097Y-123828571D02*
X105032097Y-123828571D01*
X103232097Y-122800000D01*
X105032097Y-122800000D01*
X103232097Y-121942857D02*
X105032097Y-121942857D01*
X103232097Y-120914285D01*
X105032097Y-120914285D01*
X104174954Y-120057142D02*
X104174954Y-119457142D01*
X103232097Y-119200000D02*
X103232097Y-120057142D01*
X105032097Y-120057142D01*
X105032097Y-119200000D01*
X103403525Y-117400000D02*
X103317811Y-117485714D01*
X103232097Y-117742857D01*
X103232097Y-117914285D01*
X103317811Y-118171428D01*
X103489240Y-118342857D01*
X103660668Y-118428571D01*
X104003525Y-118514285D01*
X104260668Y-118514285D01*
X104603525Y-118428571D01*
X104774954Y-118342857D01*
X104946383Y-118171428D01*
X105032097Y-117914285D01*
X105032097Y-117742857D01*
X104946383Y-117485714D01*
X104860668Y-117400000D01*
X105032097Y-116885714D02*
X105032097Y-115857142D01*
X103232097Y-116371428D02*
X105032097Y-116371428D01*
X105032097Y-114914285D02*
X105032097Y-114571428D01*
X104946383Y-114400000D01*
X104774954Y-114228571D01*
X104432097Y-114142857D01*
X103832097Y-114142857D01*
X103489240Y-114228571D01*
X103317811Y-114400000D01*
X103232097Y-114571428D01*
X103232097Y-114914285D01*
X103317811Y-115085714D01*
X103489240Y-115257142D01*
X103832097Y-115342857D01*
X104432097Y-115342857D01*
X104774954Y-115257142D01*
X104946383Y-115085714D01*
X105032097Y-114914285D01*
X103232097Y-112342857D02*
X104089240Y-112942857D01*
X103232097Y-113371428D02*
X105032097Y-113371428D01*
X105032097Y-112685714D01*
X104946383Y-112514285D01*
X104860668Y-112428571D01*
X104689240Y-112342857D01*
X104432097Y-112342857D01*
X104260668Y-112428571D01*
X104174954Y-112514285D01*
X104089240Y-112685714D01*
X104089240Y-113371428D01*
X64159076Y-94668571D02*
X64244790Y-94840000D01*
X64244790Y-95097142D01*
X64159076Y-95354285D01*
X63987647Y-95525714D01*
X63816218Y-95611428D01*
X63473361Y-95697142D01*
X63216218Y-95697142D01*
X62873361Y-95611428D01*
X62701933Y-95525714D01*
X62530504Y-95354285D01*
X62444790Y-95097142D01*
X62444790Y-94925714D01*
X62530504Y-94668571D01*
X62616218Y-94582857D01*
X63216218Y-94582857D01*
X63216218Y-94925714D01*
X62444790Y-93811428D02*
X64244790Y-93811428D01*
X64244790Y-93125714D01*
X64159076Y-92954285D01*
X64073361Y-92868571D01*
X63901933Y-92782857D01*
X63644790Y-92782857D01*
X63473361Y-92868571D01*
X63387647Y-92954285D01*
X63301933Y-93125714D01*
X63301933Y-93811428D01*
X63130504Y-92011428D02*
X63130504Y-90640000D01*
X62444790Y-89782857D02*
X64244790Y-89782857D01*
X63387647Y-88325714D02*
X63301933Y-88068571D01*
X63216218Y-87982857D01*
X63044790Y-87897142D01*
X62787647Y-87897142D01*
X62616218Y-87982857D01*
X62530504Y-88068571D01*
X62444790Y-88240000D01*
X62444790Y-88925714D01*
X64244790Y-88925714D01*
X64244790Y-88325714D01*
X64159076Y-88154285D01*
X64073361Y-88068571D01*
X63901933Y-87982857D01*
X63730504Y-87982857D01*
X63559076Y-88068571D01*
X63473361Y-88154285D01*
X63387647Y-88325714D01*
X63387647Y-88925714D01*
X62616218Y-84725714D02*
X62530504Y-84811428D01*
X62444790Y-85068571D01*
X62444790Y-85240000D01*
X62530504Y-85497142D01*
X62701933Y-85668571D01*
X62873361Y-85754285D01*
X63216218Y-85840000D01*
X63473361Y-85840000D01*
X63816218Y-85754285D01*
X63987647Y-85668571D01*
X64159076Y-85497142D01*
X64244790Y-85240000D01*
X64244790Y-85068571D01*
X64159076Y-84811428D01*
X64073361Y-84725714D01*
X64244790Y-83611428D02*
X64244790Y-83268571D01*
X64159076Y-83097142D01*
X63987647Y-82925714D01*
X63644790Y-82840000D01*
X63044790Y-82840000D01*
X62701933Y-82925714D01*
X62530504Y-83097142D01*
X62444790Y-83268571D01*
X62444790Y-83611428D01*
X62530504Y-83782857D01*
X62701933Y-83954285D01*
X63044790Y-84040000D01*
X63644790Y-84040000D01*
X63987647Y-83954285D01*
X64159076Y-83782857D01*
X64244790Y-83611428D01*
X62444790Y-82068571D02*
X64244790Y-82068571D01*
X62444790Y-81040000D01*
X64244790Y-81040000D01*
X62444790Y-80182857D02*
X64244790Y-80182857D01*
X62444790Y-79154285D01*
X64244790Y-79154285D01*
X63387647Y-78297142D02*
X63387647Y-77697142D01*
X62444790Y-77440000D02*
X62444790Y-78297142D01*
X64244790Y-78297142D01*
X64244790Y-77440000D01*
X62616218Y-75640000D02*
X62530504Y-75725714D01*
X62444790Y-75982857D01*
X62444790Y-76154285D01*
X62530504Y-76411428D01*
X62701933Y-76582857D01*
X62873361Y-76668571D01*
X63216218Y-76754285D01*
X63473361Y-76754285D01*
X63816218Y-76668571D01*
X63987647Y-76582857D01*
X64159076Y-76411428D01*
X64244790Y-76154285D01*
X64244790Y-75982857D01*
X64159076Y-75725714D01*
X64073361Y-75640000D01*
X64244790Y-75125714D02*
X64244790Y-74097142D01*
X62444790Y-74611428D02*
X64244790Y-74611428D01*
X64244790Y-73154285D02*
X64244790Y-72811428D01*
X64159076Y-72640000D01*
X63987647Y-72468571D01*
X63644790Y-72382857D01*
X63044790Y-72382857D01*
X62701933Y-72468571D01*
X62530504Y-72640000D01*
X62444790Y-72811428D01*
X62444790Y-73154285D01*
X62530504Y-73325714D01*
X62701933Y-73497142D01*
X63044790Y-73582857D01*
X63644790Y-73582857D01*
X63987647Y-73497142D01*
X64159076Y-73325714D01*
X64244790Y-73154285D01*
X62444790Y-70582857D02*
X63301933Y-71182857D01*
X62444790Y-71611428D02*
X64244790Y-71611428D01*
X64244790Y-70925714D01*
X64159076Y-70754285D01*
X64073361Y-70668571D01*
X63901933Y-70582857D01*
X63644790Y-70582857D01*
X63473361Y-70668571D01*
X63387647Y-70754285D01*
X63301933Y-70925714D01*
X63301933Y-71611428D01*
X125346383Y-136428571D02*
X125432097Y-136600000D01*
X125432097Y-136857142D01*
X125346383Y-137114285D01*
X125174954Y-137285714D01*
X125003525Y-137371428D01*
X124660668Y-137457142D01*
X124403525Y-137457142D01*
X124060668Y-137371428D01*
X123889240Y-137285714D01*
X123717811Y-137114285D01*
X123632097Y-136857142D01*
X123632097Y-136685714D01*
X123717811Y-136428571D01*
X123803525Y-136342857D01*
X124403525Y-136342857D01*
X124403525Y-136685714D01*
X123632097Y-135571428D02*
X125432097Y-135571428D01*
X125432097Y-134885714D01*
X125346383Y-134714285D01*
X125260668Y-134628571D01*
X125089240Y-134542857D01*
X124832097Y-134542857D01*
X124660668Y-134628571D01*
X124574954Y-134714285D01*
X124489240Y-134885714D01*
X124489240Y-135571428D01*
X124317811Y-133771428D02*
X124317811Y-132400000D01*
X123632097Y-131542857D02*
X125432097Y-131542857D01*
X124574954Y-130085714D02*
X124489240Y-129828571D01*
X124403525Y-129742857D01*
X124232097Y-129657142D01*
X123974954Y-129657142D01*
X123803525Y-129742857D01*
X123717811Y-129828571D01*
X123632097Y-130000000D01*
X123632097Y-130685714D01*
X125432097Y-130685714D01*
X125432097Y-130085714D01*
X125346383Y-129914285D01*
X125260668Y-129828571D01*
X125089240Y-129742857D01*
X124917811Y-129742857D01*
X124746383Y-129828571D01*
X124660668Y-129914285D01*
X124574954Y-130085714D01*
X124574954Y-130685714D01*
X123803525Y-126485714D02*
X123717811Y-126571428D01*
X123632097Y-126828571D01*
X123632097Y-127000000D01*
X123717811Y-127257142D01*
X123889240Y-127428571D01*
X124060668Y-127514285D01*
X124403525Y-127600000D01*
X124660668Y-127600000D01*
X125003525Y-127514285D01*
X125174954Y-127428571D01*
X125346383Y-127257142D01*
X125432097Y-127000000D01*
X125432097Y-126828571D01*
X125346383Y-126571428D01*
X125260668Y-126485714D01*
X125432097Y-125371428D02*
X125432097Y-125028571D01*
X125346383Y-124857142D01*
X125174954Y-124685714D01*
X124832097Y-124600000D01*
X124232097Y-124600000D01*
X123889240Y-124685714D01*
X123717811Y-124857142D01*
X123632097Y-125028571D01*
X123632097Y-125371428D01*
X123717811Y-125542857D01*
X123889240Y-125714285D01*
X124232097Y-125800000D01*
X124832097Y-125800000D01*
X125174954Y-125714285D01*
X125346383Y-125542857D01*
X125432097Y-125371428D01*
X123632097Y-123828571D02*
X125432097Y-123828571D01*
X123632097Y-122800000D01*
X125432097Y-122800000D01*
X123632097Y-121942857D02*
X125432097Y-121942857D01*
X123632097Y-120914285D01*
X125432097Y-120914285D01*
X124574954Y-120057142D02*
X124574954Y-119457142D01*
X123632097Y-119200000D02*
X123632097Y-120057142D01*
X125432097Y-120057142D01*
X125432097Y-119200000D01*
X123803525Y-117400000D02*
X123717811Y-117485714D01*
X123632097Y-117742857D01*
X123632097Y-117914285D01*
X123717811Y-118171428D01*
X123889240Y-118342857D01*
X124060668Y-118428571D01*
X124403525Y-118514285D01*
X124660668Y-118514285D01*
X125003525Y-118428571D01*
X125174954Y-118342857D01*
X125346383Y-118171428D01*
X125432097Y-117914285D01*
X125432097Y-117742857D01*
X125346383Y-117485714D01*
X125260668Y-117400000D01*
X125432097Y-116885714D02*
X125432097Y-115857142D01*
X123632097Y-116371428D02*
X125432097Y-116371428D01*
X125432097Y-114914285D02*
X125432097Y-114571428D01*
X125346383Y-114400000D01*
X125174954Y-114228571D01*
X124832097Y-114142857D01*
X124232097Y-114142857D01*
X123889240Y-114228571D01*
X123717811Y-114400000D01*
X123632097Y-114571428D01*
X123632097Y-114914285D01*
X123717811Y-115085714D01*
X123889240Y-115257142D01*
X124232097Y-115342857D01*
X124832097Y-115342857D01*
X125174954Y-115257142D01*
X125346383Y-115085714D01*
X125432097Y-114914285D01*
X123632097Y-112342857D02*
X124489240Y-112942857D01*
X123632097Y-113371428D02*
X125432097Y-113371428D01*
X125432097Y-112685714D01*
X125346383Y-112514285D01*
X125260668Y-112428571D01*
X125089240Y-112342857D01*
X124832097Y-112342857D01*
X124660668Y-112428571D01*
X124574954Y-112514285D01*
X124489240Y-112685714D01*
X124489240Y-113371428D01*
X84546383Y-136428571D02*
X84632097Y-136600000D01*
X84632097Y-136857142D01*
X84546383Y-137114285D01*
X84374954Y-137285714D01*
X84203525Y-137371428D01*
X83860668Y-137457142D01*
X83603525Y-137457142D01*
X83260668Y-137371428D01*
X83089240Y-137285714D01*
X82917811Y-137114285D01*
X82832097Y-136857142D01*
X82832097Y-136685714D01*
X82917811Y-136428571D01*
X83003525Y-136342857D01*
X83603525Y-136342857D01*
X83603525Y-136685714D01*
X82832097Y-135571428D02*
X84632097Y-135571428D01*
X84632097Y-134885714D01*
X84546383Y-134714285D01*
X84460668Y-134628571D01*
X84289240Y-134542857D01*
X84032097Y-134542857D01*
X83860668Y-134628571D01*
X83774954Y-134714285D01*
X83689240Y-134885714D01*
X83689240Y-135571428D01*
X83517811Y-133771428D02*
X83517811Y-132400000D01*
X82832097Y-131542857D02*
X84632097Y-131542857D01*
X83774954Y-130085714D02*
X83689240Y-129828571D01*
X83603525Y-129742857D01*
X83432097Y-129657142D01*
X83174954Y-129657142D01*
X83003525Y-129742857D01*
X82917811Y-129828571D01*
X82832097Y-130000000D01*
X82832097Y-130685714D01*
X84632097Y-130685714D01*
X84632097Y-130085714D01*
X84546383Y-129914285D01*
X84460668Y-129828571D01*
X84289240Y-129742857D01*
X84117811Y-129742857D01*
X83946383Y-129828571D01*
X83860668Y-129914285D01*
X83774954Y-130085714D01*
X83774954Y-130685714D01*
X83003525Y-126485714D02*
X82917811Y-126571428D01*
X82832097Y-126828571D01*
X82832097Y-127000000D01*
X82917811Y-127257142D01*
X83089240Y-127428571D01*
X83260668Y-127514285D01*
X83603525Y-127600000D01*
X83860668Y-127600000D01*
X84203525Y-127514285D01*
X84374954Y-127428571D01*
X84546383Y-127257142D01*
X84632097Y-127000000D01*
X84632097Y-126828571D01*
X84546383Y-126571428D01*
X84460668Y-126485714D01*
X84632097Y-125371428D02*
X84632097Y-125028571D01*
X84546383Y-124857142D01*
X84374954Y-124685714D01*
X84032097Y-124600000D01*
X83432097Y-124600000D01*
X83089240Y-124685714D01*
X82917811Y-124857142D01*
X82832097Y-125028571D01*
X82832097Y-125371428D01*
X82917811Y-125542857D01*
X83089240Y-125714285D01*
X83432097Y-125800000D01*
X84032097Y-125800000D01*
X84374954Y-125714285D01*
X84546383Y-125542857D01*
X84632097Y-125371428D01*
X82832097Y-123828571D02*
X84632097Y-123828571D01*
X82832097Y-122800000D01*
X84632097Y-122800000D01*
X82832097Y-121942857D02*
X84632097Y-121942857D01*
X82832097Y-120914285D01*
X84632097Y-120914285D01*
X83774954Y-120057142D02*
X83774954Y-119457142D01*
X82832097Y-119200000D02*
X82832097Y-120057142D01*
X84632097Y-120057142D01*
X84632097Y-119200000D01*
X83003525Y-117400000D02*
X82917811Y-117485714D01*
X82832097Y-117742857D01*
X82832097Y-117914285D01*
X82917811Y-118171428D01*
X83089240Y-118342857D01*
X83260668Y-118428571D01*
X83603525Y-118514285D01*
X83860668Y-118514285D01*
X84203525Y-118428571D01*
X84374954Y-118342857D01*
X84546383Y-118171428D01*
X84632097Y-117914285D01*
X84632097Y-117742857D01*
X84546383Y-117485714D01*
X84460668Y-117400000D01*
X84632097Y-116885714D02*
X84632097Y-115857142D01*
X82832097Y-116371428D02*
X84632097Y-116371428D01*
X84632097Y-114914285D02*
X84632097Y-114571428D01*
X84546383Y-114400000D01*
X84374954Y-114228571D01*
X84032097Y-114142857D01*
X83432097Y-114142857D01*
X83089240Y-114228571D01*
X82917811Y-114400000D01*
X82832097Y-114571428D01*
X82832097Y-114914285D01*
X82917811Y-115085714D01*
X83089240Y-115257142D01*
X83432097Y-115342857D01*
X84032097Y-115342857D01*
X84374954Y-115257142D01*
X84546383Y-115085714D01*
X84632097Y-114914285D01*
X82832097Y-112342857D02*
X83689240Y-112942857D01*
X82832097Y-113371428D02*
X84632097Y-113371428D01*
X84632097Y-112685714D01*
X84546383Y-112514285D01*
X84460668Y-112428571D01*
X84289240Y-112342857D01*
X84032097Y-112342857D01*
X83860668Y-112428571D01*
X83774954Y-112514285D01*
X83689240Y-112685714D01*
X83689240Y-113371428D01*
X125359076Y-94668571D02*
X125444790Y-94840000D01*
X125444790Y-95097142D01*
X125359076Y-95354285D01*
X125187647Y-95525714D01*
X125016218Y-95611428D01*
X124673361Y-95697142D01*
X124416218Y-95697142D01*
X124073361Y-95611428D01*
X123901933Y-95525714D01*
X123730504Y-95354285D01*
X123644790Y-95097142D01*
X123644790Y-94925714D01*
X123730504Y-94668571D01*
X123816218Y-94582857D01*
X124416218Y-94582857D01*
X124416218Y-94925714D01*
X123644790Y-93811428D02*
X125444790Y-93811428D01*
X125444790Y-93125714D01*
X125359076Y-92954285D01*
X125273361Y-92868571D01*
X125101933Y-92782857D01*
X124844790Y-92782857D01*
X124673361Y-92868571D01*
X124587647Y-92954285D01*
X124501933Y-93125714D01*
X124501933Y-93811428D01*
X124330504Y-92011428D02*
X124330504Y-90640000D01*
X123644790Y-89782857D02*
X125444790Y-89782857D01*
X124587647Y-88325714D02*
X124501933Y-88068571D01*
X124416218Y-87982857D01*
X124244790Y-87897142D01*
X123987647Y-87897142D01*
X123816218Y-87982857D01*
X123730504Y-88068571D01*
X123644790Y-88240000D01*
X123644790Y-88925714D01*
X125444790Y-88925714D01*
X125444790Y-88325714D01*
X125359076Y-88154285D01*
X125273361Y-88068571D01*
X125101933Y-87982857D01*
X124930504Y-87982857D01*
X124759076Y-88068571D01*
X124673361Y-88154285D01*
X124587647Y-88325714D01*
X124587647Y-88925714D01*
X123816218Y-84725714D02*
X123730504Y-84811428D01*
X123644790Y-85068571D01*
X123644790Y-85240000D01*
X123730504Y-85497142D01*
X123901933Y-85668571D01*
X124073361Y-85754285D01*
X124416218Y-85840000D01*
X124673361Y-85840000D01*
X125016218Y-85754285D01*
X125187647Y-85668571D01*
X125359076Y-85497142D01*
X125444790Y-85240000D01*
X125444790Y-85068571D01*
X125359076Y-84811428D01*
X125273361Y-84725714D01*
X125444790Y-83611428D02*
X125444790Y-83268571D01*
X125359076Y-83097142D01*
X125187647Y-82925714D01*
X124844790Y-82840000D01*
X124244790Y-82840000D01*
X123901933Y-82925714D01*
X123730504Y-83097142D01*
X123644790Y-83268571D01*
X123644790Y-83611428D01*
X123730504Y-83782857D01*
X123901933Y-83954285D01*
X124244790Y-84040000D01*
X124844790Y-84040000D01*
X125187647Y-83954285D01*
X125359076Y-83782857D01*
X125444790Y-83611428D01*
X123644790Y-82068571D02*
X125444790Y-82068571D01*
X123644790Y-81040000D01*
X125444790Y-81040000D01*
X123644790Y-80182857D02*
X125444790Y-80182857D01*
X123644790Y-79154285D01*
X125444790Y-79154285D01*
X124587647Y-78297142D02*
X124587647Y-77697142D01*
X123644790Y-77440000D02*
X123644790Y-78297142D01*
X125444790Y-78297142D01*
X125444790Y-77440000D01*
X123816218Y-75640000D02*
X123730504Y-75725714D01*
X123644790Y-75982857D01*
X123644790Y-76154285D01*
X123730504Y-76411428D01*
X123901933Y-76582857D01*
X124073361Y-76668571D01*
X124416218Y-76754285D01*
X124673361Y-76754285D01*
X125016218Y-76668571D01*
X125187647Y-76582857D01*
X125359076Y-76411428D01*
X125444790Y-76154285D01*
X125444790Y-75982857D01*
X125359076Y-75725714D01*
X125273361Y-75640000D01*
X125444790Y-75125714D02*
X125444790Y-74097142D01*
X123644790Y-74611428D02*
X125444790Y-74611428D01*
X125444790Y-73154285D02*
X125444790Y-72811428D01*
X125359076Y-72640000D01*
X125187647Y-72468571D01*
X124844790Y-72382857D01*
X124244790Y-72382857D01*
X123901933Y-72468571D01*
X123730504Y-72640000D01*
X123644790Y-72811428D01*
X123644790Y-73154285D01*
X123730504Y-73325714D01*
X123901933Y-73497142D01*
X124244790Y-73582857D01*
X124844790Y-73582857D01*
X125187647Y-73497142D01*
X125359076Y-73325714D01*
X125444790Y-73154285D01*
X123644790Y-70582857D02*
X124501933Y-71182857D01*
X123644790Y-71611428D02*
X125444790Y-71611428D01*
X125444790Y-70925714D01*
X125359076Y-70754285D01*
X125273361Y-70668571D01*
X125101933Y-70582857D01*
X124844790Y-70582857D01*
X124673361Y-70668571D01*
X124587647Y-70754285D01*
X124501933Y-70925714D01*
X124501933Y-71611428D01*
X145746383Y-136428571D02*
X145832097Y-136600000D01*
X145832097Y-136857142D01*
X145746383Y-137114285D01*
X145574954Y-137285714D01*
X145403525Y-137371428D01*
X145060668Y-137457142D01*
X144803525Y-137457142D01*
X144460668Y-137371428D01*
X144289240Y-137285714D01*
X144117811Y-137114285D01*
X144032097Y-136857142D01*
X144032097Y-136685714D01*
X144117811Y-136428571D01*
X144203525Y-136342857D01*
X144803525Y-136342857D01*
X144803525Y-136685714D01*
X144032097Y-135571428D02*
X145832097Y-135571428D01*
X145832097Y-134885714D01*
X145746383Y-134714285D01*
X145660668Y-134628571D01*
X145489240Y-134542857D01*
X145232097Y-134542857D01*
X145060668Y-134628571D01*
X144974954Y-134714285D01*
X144889240Y-134885714D01*
X144889240Y-135571428D01*
X144717811Y-133771428D02*
X144717811Y-132400000D01*
X144032097Y-131542857D02*
X145832097Y-131542857D01*
X144974954Y-130085714D02*
X144889240Y-129828571D01*
X144803525Y-129742857D01*
X144632097Y-129657142D01*
X144374954Y-129657142D01*
X144203525Y-129742857D01*
X144117811Y-129828571D01*
X144032097Y-130000000D01*
X144032097Y-130685714D01*
X145832097Y-130685714D01*
X145832097Y-130085714D01*
X145746383Y-129914285D01*
X145660668Y-129828571D01*
X145489240Y-129742857D01*
X145317811Y-129742857D01*
X145146383Y-129828571D01*
X145060668Y-129914285D01*
X144974954Y-130085714D01*
X144974954Y-130685714D01*
X144203525Y-126485714D02*
X144117811Y-126571428D01*
X144032097Y-126828571D01*
X144032097Y-127000000D01*
X144117811Y-127257142D01*
X144289240Y-127428571D01*
X144460668Y-127514285D01*
X144803525Y-127600000D01*
X145060668Y-127600000D01*
X145403525Y-127514285D01*
X145574954Y-127428571D01*
X145746383Y-127257142D01*
X145832097Y-127000000D01*
X145832097Y-126828571D01*
X145746383Y-126571428D01*
X145660668Y-126485714D01*
X145832097Y-125371428D02*
X145832097Y-125028571D01*
X145746383Y-124857142D01*
X145574954Y-124685714D01*
X145232097Y-124600000D01*
X144632097Y-124600000D01*
X144289240Y-124685714D01*
X144117811Y-124857142D01*
X144032097Y-125028571D01*
X144032097Y-125371428D01*
X144117811Y-125542857D01*
X144289240Y-125714285D01*
X144632097Y-125800000D01*
X145232097Y-125800000D01*
X145574954Y-125714285D01*
X145746383Y-125542857D01*
X145832097Y-125371428D01*
X144032097Y-123828571D02*
X145832097Y-123828571D01*
X144032097Y-122800000D01*
X145832097Y-122800000D01*
X144032097Y-121942857D02*
X145832097Y-121942857D01*
X144032097Y-120914285D01*
X145832097Y-120914285D01*
X144974954Y-120057142D02*
X144974954Y-119457142D01*
X144032097Y-119200000D02*
X144032097Y-120057142D01*
X145832097Y-120057142D01*
X145832097Y-119200000D01*
X144203525Y-117400000D02*
X144117811Y-117485714D01*
X144032097Y-117742857D01*
X144032097Y-117914285D01*
X144117811Y-118171428D01*
X144289240Y-118342857D01*
X144460668Y-118428571D01*
X144803525Y-118514285D01*
X145060668Y-118514285D01*
X145403525Y-118428571D01*
X145574954Y-118342857D01*
X145746383Y-118171428D01*
X145832097Y-117914285D01*
X145832097Y-117742857D01*
X145746383Y-117485714D01*
X145660668Y-117400000D01*
X145832097Y-116885714D02*
X145832097Y-115857142D01*
X144032097Y-116371428D02*
X145832097Y-116371428D01*
X145832097Y-114914285D02*
X145832097Y-114571428D01*
X145746383Y-114400000D01*
X145574954Y-114228571D01*
X145232097Y-114142857D01*
X144632097Y-114142857D01*
X144289240Y-114228571D01*
X144117811Y-114400000D01*
X144032097Y-114571428D01*
X144032097Y-114914285D01*
X144117811Y-115085714D01*
X144289240Y-115257142D01*
X144632097Y-115342857D01*
X145232097Y-115342857D01*
X145574954Y-115257142D01*
X145746383Y-115085714D01*
X145832097Y-114914285D01*
X144032097Y-112342857D02*
X144889240Y-112942857D01*
X144032097Y-113371428D02*
X145832097Y-113371428D01*
X145832097Y-112685714D01*
X145746383Y-112514285D01*
X145660668Y-112428571D01*
X145489240Y-112342857D01*
X145232097Y-112342857D01*
X145060668Y-112428571D01*
X144974954Y-112514285D01*
X144889240Y-112685714D01*
X144889240Y-113371428D01*
X101278658Y-96231067D02*
X106799495Y-97688933D01*
X108059495Y-96658933D02*
X108052216Y-69629731D01*
X101258678Y-70066887D02*
X106792216Y-68599731D01*
X100039495Y-71998933D02*
X100071301Y-94348034D01*
X100071301Y-94348034D02*
G75*
G03*
X101278658Y-96231067I1955825J-74552D01*
G01*
X108052217Y-69629731D02*
G75*
G03*
X106792216Y-68599731I-1131691J-98719D01*
G01*
X101258681Y-70066893D02*
G75*
G03*
X100039495Y-71978933I759255J-1828847D01*
G01*
X106799495Y-97688934D02*
G75*
G03*
X108059495Y-96658933I128307J1128722D01*
G01*
X60445985Y-111826887D02*
X65979523Y-110359731D01*
X60465965Y-137991067D02*
X65986802Y-139448933D01*
X59226802Y-113758933D02*
X59258608Y-136108034D01*
X67246802Y-138418933D02*
X67239523Y-111389731D01*
X60445988Y-111826893D02*
G75*
G03*
X59226802Y-113738933I759255J-1828847D01*
G01*
X67239524Y-111389731D02*
G75*
G03*
X65979523Y-110359731I-1131691J-98719D01*
G01*
X59258608Y-136108034D02*
G75*
G03*
X60465965Y-137991067I1955825J-74552D01*
G01*
X65986802Y-139448934D02*
G75*
G03*
X67246802Y-138418933I128307J1128722D01*
G01*
X142078658Y-96231067D02*
X147599495Y-97688933D01*
X142058678Y-70066887D02*
X147592216Y-68599731D01*
X140839495Y-71998933D02*
X140871301Y-94348034D01*
X148859495Y-96658933D02*
X148852216Y-69629731D01*
X142058681Y-70066893D02*
G75*
G03*
X140839495Y-71978933I759255J-1828847D01*
G01*
X147599495Y-97688934D02*
G75*
G03*
X148859495Y-96658933I128307J1128722D01*
G01*
X140871301Y-94348034D02*
G75*
G03*
X142078658Y-96231067I1955825J-74552D01*
G01*
X148852217Y-69629731D02*
G75*
G03*
X147592216Y-68599731I-1131691J-98719D01*
G01*
X87659495Y-96658933D02*
X87652216Y-69629731D01*
X79639495Y-71998933D02*
X79671301Y-94348034D01*
X80878658Y-96231067D02*
X86399495Y-97688933D01*
X80858678Y-70066887D02*
X86392216Y-68599731D01*
X86399495Y-97688934D02*
G75*
G03*
X87659495Y-96658933I128307J1128722D01*
G01*
X79671301Y-94348034D02*
G75*
G03*
X80878658Y-96231067I1955825J-74552D01*
G01*
X87652217Y-69629731D02*
G75*
G03*
X86392216Y-68599731I-1131691J-98719D01*
G01*
X80858681Y-70066893D02*
G75*
G03*
X79639495Y-71978933I759255J-1828847D01*
G01*
X100026802Y-113758933D02*
X100058608Y-136108034D01*
X101265965Y-137991067D02*
X106786802Y-139448933D01*
X101245985Y-111826887D02*
X106779523Y-110359731D01*
X108046802Y-138418933D02*
X108039523Y-111389731D01*
X106786802Y-139448934D02*
G75*
G03*
X108046802Y-138418933I128307J1128722D01*
G01*
X100058608Y-136108034D02*
G75*
G03*
X101265965Y-137991067I1955825J-74552D01*
G01*
X101245988Y-111826893D02*
G75*
G03*
X100026802Y-113738933I759255J-1828847D01*
G01*
X108039524Y-111389731D02*
G75*
G03*
X106779523Y-110359731I-1131691J-98719D01*
G01*
X59239495Y-71998933D02*
X59271301Y-94348034D01*
X60458678Y-70066887D02*
X65992216Y-68599731D01*
X60478658Y-96231067D02*
X65999495Y-97688933D01*
X67259495Y-96658933D02*
X67252216Y-69629731D01*
X59271301Y-94348034D02*
G75*
G03*
X60478658Y-96231067I1955825J-74552D01*
G01*
X60458681Y-70066893D02*
G75*
G03*
X59239495Y-71978933I759255J-1828847D01*
G01*
X67252217Y-69629731D02*
G75*
G03*
X65992216Y-68599731I-1131691J-98719D01*
G01*
X65999495Y-97688934D02*
G75*
G03*
X67259495Y-96658933I128307J1128722D01*
G01*
X121645985Y-111826887D02*
X127179523Y-110359731D01*
X120426802Y-113758933D02*
X120458608Y-136108034D01*
X121665965Y-137991067D02*
X127186802Y-139448933D01*
X128446802Y-138418933D02*
X128439523Y-111389731D01*
X128439524Y-111389731D02*
G75*
G03*
X127179523Y-110359731I-1131691J-98719D01*
G01*
X121645988Y-111826893D02*
G75*
G03*
X120426802Y-113738933I759255J-1828847D01*
G01*
X127186802Y-139448934D02*
G75*
G03*
X128446802Y-138418933I128307J1128722D01*
G01*
X120458608Y-136108034D02*
G75*
G03*
X121665965Y-137991067I1955825J-74552D01*
G01*
X79626802Y-113758933D02*
X79658608Y-136108034D01*
X87646802Y-138418933D02*
X87639523Y-111389731D01*
X80845985Y-111826887D02*
X86379523Y-110359731D01*
X80865965Y-137991067D02*
X86386802Y-139448933D01*
X80845988Y-111826893D02*
G75*
G03*
X79626802Y-113738933I759255J-1828847D01*
G01*
X87639524Y-111389731D02*
G75*
G03*
X86379523Y-110359731I-1131691J-98719D01*
G01*
X86386802Y-139448934D02*
G75*
G03*
X87646802Y-138418933I128307J1128722D01*
G01*
X79658608Y-136108034D02*
G75*
G03*
X80865965Y-137991067I1955825J-74552D01*
G01*
X128459495Y-96658933D02*
X128452216Y-69629731D01*
X121678658Y-96231067D02*
X127199495Y-97688933D01*
X120439495Y-71998933D02*
X120471301Y-94348034D01*
X121658678Y-70066887D02*
X127192216Y-68599731D01*
X120471301Y-94348034D02*
G75*
G03*
X121678658Y-96231067I1955825J-74552D01*
G01*
X128452217Y-69629731D02*
G75*
G03*
X127192216Y-68599731I-1131691J-98719D01*
G01*
X127199495Y-97688934D02*
G75*
G03*
X128459495Y-96658933I128307J1128722D01*
G01*
X121658681Y-70066893D02*
G75*
G03*
X120439495Y-71978933I759255J-1828847D01*
G01*
X142045985Y-111826887D02*
X147579523Y-110359731D01*
X142065965Y-137991067D02*
X147586802Y-139448933D01*
X148846802Y-138418933D02*
X148839523Y-111389731D01*
X140826802Y-113758933D02*
X140858608Y-136108034D01*
X140858608Y-136108034D02*
G75*
G03*
X142065965Y-137991067I1955825J-74552D01*
G01*
X142045988Y-111826893D02*
G75*
G03*
X140826802Y-113738933I759255J-1828847D01*
G01*
X147586802Y-139448934D02*
G75*
G03*
X148846802Y-138418933I128307J1128722D01*
G01*
X148839524Y-111389731D02*
G75*
G03*
X147579523Y-110359731I-1131691J-98719D01*
G01*
%TD*%
M02*
