M48
; DRILL file {KiCad 6.0.3-a3aad9c10e~116~ubuntu20.04.1} date Sun 20 Mar 2022 03:04:53 PM CET
; FORMAT={-:-/ absolute / inch / decimal}
; #@! TF.CreationDate,2022-03-20T15:04:53+01:00
; #@! TF.GenerationSoftware,Kicad,Pcbnew,6.0.3-a3aad9c10e~116~ubuntu20.04.1
; #@! TF.FileFunction,Plated,1,2,PTH
FMAT,2
INCH
; #@! TA.AperFunction,Plated,PTH,ViaDrill
T1C0.0118
; #@! TA.AperFunction,Plated,PTH,ViaDrill
T2C0.0157
; #@! TA.AperFunction,Plated,PTH,ComponentDrill
T3C0.0197
; #@! TA.AperFunction,Plated,PTH,ComponentDrill
T4C0.0354
; #@! TA.AperFunction,Plated,PTH,ComponentDrill
T5C0.0394
; #@! TA.AperFunction,Plated,PTH,ComponentDrill
T6C0.0433
%
G90
G05
T1
X2.3707Y-4.3453
X2.3712Y-2.7012
X2.3982Y-4.3202
X2.3987Y-2.6761
X2.4114Y-5.487
X2.4119Y-3.8429
X2.4278Y-4.3803
X2.4283Y-2.7362
X2.4877Y-4.3256
X2.4882Y-2.6815
X2.5432Y-4.2953
X2.5437Y-2.6512
X2.5492Y-4.3555
X2.5497Y-2.7114
X2.6558Y-5.2827
X2.6563Y-3.6386
X3.1739Y-4.3453
X3.1744Y-2.7012
X3.2013Y-4.3202
X3.2018Y-2.6761
X3.2145Y-5.487
X3.215Y-3.8429
X3.231Y-4.3803
X3.2315Y-2.7362
X3.2909Y-4.3256
X3.2914Y-2.6815
X3.3463Y-4.2953
X3.3468Y-2.6512
X3.3523Y-4.3555
X3.3528Y-2.7114
X3.4589Y-5.2827
X3.4594Y-3.6386
X3.977Y-4.3453
X3.9775Y-2.7012
X4.0045Y-4.3202
X4.005Y-2.6761
X4.0177Y-5.487
X4.0182Y-3.8429
X4.0341Y-4.3803
X4.0346Y-2.7362
X4.094Y-4.3256
X4.0945Y-2.6815
X4.1495Y-4.2953
X4.15Y-2.6512
X4.1555Y-4.3555
X4.156Y-2.7114
X4.2621Y-5.2827
X4.2626Y-3.6386
X4.7802Y-4.3453
X4.7807Y-2.7012
X4.8076Y-4.3202
X4.8081Y-2.6761
X4.8208Y-5.487
X4.8213Y-3.8429
X4.8373Y-4.3803
X4.8378Y-2.7362
X4.8972Y-4.3256
X4.8977Y-2.6815
X4.9526Y-4.2953
X4.9531Y-2.6512
X4.9586Y-4.3555
X4.9591Y-2.7114
X5.0652Y-5.2827
X5.0657Y-3.6386
X5.5833Y-4.3453
X5.5838Y-2.7012
X5.6108Y-4.3202
X5.6113Y-2.6761
X5.624Y-5.487
X5.6245Y-3.8429
X5.6404Y-4.3803
X5.6409Y-2.7362
X5.7003Y-4.3256
X5.7008Y-2.6815
X5.7558Y-4.2953
X5.7563Y-2.6512
X5.7618Y-4.3555
X5.7623Y-2.7114
X5.8684Y-5.2827
X5.8689Y-3.6386
T2
X2.1952Y-5.3611
X2.1957Y-3.717
X2.1976Y-5.6276
X2.1981Y-3.9835
X2.7823Y-5.6276
X2.7828Y-3.9835
X2.7964Y-5.3607
X2.7969Y-3.7166
X2.9984Y-5.3611
X2.9989Y-3.717
X3.0008Y-5.6276
X3.0013Y-3.9835
X3.5854Y-5.6276
X3.5859Y-3.9835
X3.5996Y-5.3607
X3.6001Y-3.7166
X3.8015Y-5.3611
X3.802Y-3.717
X3.8039Y-5.6276
X3.8044Y-3.9835
X4.3886Y-5.6276
X4.3891Y-3.9835
X4.4027Y-5.3607
X4.4032Y-3.7166
X4.6047Y-5.3611
X4.6052Y-3.717
X4.6071Y-5.6276
X4.6076Y-3.9835
X5.1917Y-5.6276
X5.1922Y-3.9835
X5.2059Y-5.3607
X5.2064Y-3.7166
X5.4078Y-5.3611
X5.4083Y-3.717
X5.4102Y-5.6276
X5.4107Y-3.9835
X5.9949Y-5.6276
X5.9954Y-3.9835
X6.009Y-5.3607
X6.0095Y-3.7166
T3
X2.3216Y-4.376
X2.3221Y-2.7319
X2.6236Y-4.3772
X2.6241Y-2.7331
X3.1248Y-4.376
X3.1253Y-2.7319
X3.4268Y-4.3772
X3.4273Y-2.7331
X3.9279Y-4.376
X3.9284Y-2.7319
X4.2299Y-4.3772
X4.2304Y-2.7331
X4.7311Y-4.376
X4.7316Y-2.7319
X5.0331Y-4.3772
X5.0336Y-2.7331
X5.5342Y-4.376
X5.5347Y-2.7319
X5.8362Y-4.3772
X5.8367Y-2.7331
T4
X2.4014Y-4.4486
X2.4014Y-4.5336
X2.4014Y-4.6186
X2.4014Y-4.7036
X2.4014Y-4.7886
X2.4014Y-4.8736
X2.4014Y-4.9586
X2.4014Y-5.0436
X2.4014Y-5.1286
X2.4014Y-5.2136
X2.4014Y-5.2986
X2.4014Y-5.3836
X2.4019Y-2.8045
X2.4019Y-2.8895
X2.4019Y-2.9745
X2.4019Y-3.0595
X2.4019Y-3.1445
X2.4019Y-3.2295
X2.4019Y-3.3145
X2.4019Y-3.3995
X2.4019Y-3.4845
X2.4019Y-3.5695
X2.4019Y-3.6545
X2.4019Y-3.7395
X2.5857Y-4.4496
X2.5857Y-4.5346
X2.5857Y-4.6196
X2.5857Y-4.7046
X2.5857Y-4.7896
X2.5857Y-4.8746
X2.5857Y-4.9596
X2.5857Y-5.0446
X2.5857Y-5.1296
X2.5857Y-5.2146
X2.5857Y-5.2996
X2.5857Y-5.3846
X2.5862Y-2.8055
X2.5862Y-2.8905
X2.5862Y-2.9755
X2.5862Y-3.0605
X2.5862Y-3.1455
X2.5862Y-3.2305
X2.5862Y-3.3155
X2.5862Y-3.4005
X2.5862Y-3.4855
X2.5862Y-3.5705
X2.5862Y-3.6555
X2.5862Y-3.7405
X3.2046Y-4.4486
X3.2046Y-4.5336
X3.2046Y-4.6186
X3.2046Y-4.7036
X3.2046Y-4.7886
X3.2046Y-4.8736
X3.2046Y-4.9586
X3.2046Y-5.0436
X3.2046Y-5.1286
X3.2046Y-5.2136
X3.2046Y-5.2986
X3.2046Y-5.3836
X3.2051Y-2.8045
X3.2051Y-2.8895
X3.2051Y-2.9745
X3.2051Y-3.0595
X3.2051Y-3.1445
X3.2051Y-3.2295
X3.2051Y-3.3145
X3.2051Y-3.3995
X3.2051Y-3.4845
X3.2051Y-3.5695
X3.2051Y-3.6545
X3.2051Y-3.7395
X3.3888Y-4.4496
X3.3888Y-4.5346
X3.3888Y-4.6196
X3.3888Y-4.7046
X3.3888Y-4.7896
X3.3888Y-4.8746
X3.3888Y-4.9596
X3.3888Y-5.0446
X3.3888Y-5.1296
X3.3888Y-5.2146
X3.3888Y-5.2996
X3.3888Y-5.3846
X3.3893Y-2.8055
X3.3893Y-2.8905
X3.3893Y-2.9755
X3.3893Y-3.0605
X3.3893Y-3.1455
X3.3893Y-3.2305
X3.3893Y-3.3155
X3.3893Y-3.4005
X3.3893Y-3.4855
X3.3893Y-3.5705
X3.3893Y-3.6555
X3.3893Y-3.7405
X4.0077Y-4.4486
X4.0077Y-4.5336
X4.0077Y-4.6186
X4.0077Y-4.7036
X4.0077Y-4.7886
X4.0077Y-4.8736
X4.0077Y-4.9586
X4.0077Y-5.0436
X4.0077Y-5.1286
X4.0077Y-5.2136
X4.0077Y-5.2986
X4.0077Y-5.3836
X4.0082Y-2.8045
X4.0082Y-2.8895
X4.0082Y-2.9745
X4.0082Y-3.0595
X4.0082Y-3.1445
X4.0082Y-3.2295
X4.0082Y-3.3145
X4.0082Y-3.3995
X4.0082Y-3.4845
X4.0082Y-3.5695
X4.0082Y-3.6545
X4.0082Y-3.7395
X4.192Y-4.4496
X4.192Y-4.5346
X4.192Y-4.6196
X4.192Y-4.7046
X4.192Y-4.7896
X4.192Y-4.8746
X4.192Y-4.9596
X4.192Y-5.0446
X4.192Y-5.1296
X4.192Y-5.2146
X4.192Y-5.2996
X4.192Y-5.3846
X4.1925Y-2.8055
X4.1925Y-2.8905
X4.1925Y-2.9755
X4.1925Y-3.0605
X4.1925Y-3.1455
X4.1925Y-3.2305
X4.1925Y-3.3155
X4.1925Y-3.4005
X4.1925Y-3.4855
X4.1925Y-3.5705
X4.1925Y-3.6555
X4.1925Y-3.7405
X4.8109Y-4.4486
X4.8109Y-4.5336
X4.8109Y-4.6186
X4.8109Y-4.7036
X4.8109Y-4.7886
X4.8109Y-4.8736
X4.8109Y-4.9586
X4.8109Y-5.0436
X4.8109Y-5.1286
X4.8109Y-5.2136
X4.8109Y-5.2986
X4.8109Y-5.3836
X4.8114Y-2.8045
X4.8114Y-2.8895
X4.8114Y-2.9745
X4.8114Y-3.0595
X4.8114Y-3.1445
X4.8114Y-3.2295
X4.8114Y-3.3145
X4.8114Y-3.3995
X4.8114Y-3.4845
X4.8114Y-3.5695
X4.8114Y-3.6545
X4.8114Y-3.7395
X4.9951Y-4.4496
X4.9951Y-4.5346
X4.9951Y-4.6196
X4.9951Y-4.7046
X4.9951Y-4.7896
X4.9951Y-4.8746
X4.9951Y-4.9596
X4.9951Y-5.0446
X4.9951Y-5.1296
X4.9951Y-5.2146
X4.9951Y-5.2996
X4.9951Y-5.3846
X4.9956Y-2.8055
X4.9956Y-2.8905
X4.9956Y-2.9755
X4.9956Y-3.0605
X4.9956Y-3.1455
X4.9956Y-3.2305
X4.9956Y-3.3155
X4.9956Y-3.4005
X4.9956Y-3.4855
X4.9956Y-3.5705
X4.9956Y-3.6555
X4.9956Y-3.7405
X5.614Y-4.4486
X5.614Y-4.5336
X5.614Y-4.6186
X5.614Y-4.7036
X5.614Y-4.7886
X5.614Y-4.8736
X5.614Y-4.9586
X5.614Y-5.0436
X5.614Y-5.1286
X5.614Y-5.2136
X5.614Y-5.2986
X5.614Y-5.3836
X5.6145Y-2.8045
X5.6145Y-2.8895
X5.6145Y-2.9745
X5.6145Y-3.0595
X5.6145Y-3.1445
X5.6145Y-3.2295
X5.6145Y-3.3145
X5.6145Y-3.3995
X5.6145Y-3.4845
X5.6145Y-3.5695
X5.6145Y-3.6545
X5.6145Y-3.7395
X5.7983Y-4.4496
X5.7983Y-4.5346
X5.7983Y-4.6196
X5.7983Y-4.7046
X5.7983Y-4.7896
X5.7983Y-4.8746
X5.7983Y-4.9596
X5.7983Y-5.0446
X5.7983Y-5.1296
X5.7983Y-5.2146
X5.7983Y-5.2996
X5.7983Y-5.3846
X5.7988Y-2.8055
X5.7988Y-2.8905
X5.7988Y-2.9755
X5.7988Y-3.0605
X5.7988Y-3.1455
X5.7988Y-3.2305
X5.7988Y-3.3155
X5.7988Y-3.4005
X5.7988Y-3.4855
X5.7988Y-3.5705
X5.7988Y-3.6555
X5.7988Y-3.7405
T5
X2.1951Y-4.1858
X2.1951Y-4.2858
X2.1951Y-4.3858
X2.1951Y-4.4858
X2.1951Y-4.5858
X2.1951Y-4.6858
X2.1951Y-4.7858
X2.1951Y-4.8858
X2.1951Y-4.9858
X2.1951Y-5.0858
X2.1951Y-5.1858
X2.1951Y-5.2858
X2.1956Y-2.5417
X2.1956Y-2.6417
X2.1956Y-2.7417
X2.1956Y-2.8417
X2.1956Y-2.9417
X2.1956Y-3.0417
X2.1956Y-3.1417
X2.1956Y-3.2417
X2.1956Y-3.3417
X2.1956Y-3.4417
X2.1956Y-3.5417
X2.1956Y-3.6417
X2.7951Y-4.1858
X2.7951Y-4.2858
X2.7951Y-4.3858
X2.7951Y-4.4858
X2.7951Y-4.5858
X2.7951Y-4.6858
X2.7951Y-4.7858
X2.7951Y-4.8858
X2.7951Y-4.9858
X2.7951Y-5.0858
X2.7951Y-5.1858
X2.7956Y-2.5417
X2.7956Y-2.6417
X2.7956Y-2.7417
X2.7956Y-2.8417
X2.7956Y-2.9417
X2.7956Y-3.0417
X2.7956Y-3.1417
X2.7956Y-3.2417
X2.7956Y-3.3417
X2.7956Y-3.4417
X2.7956Y-3.5417
X2.9983Y-4.1858
X2.9983Y-4.2858
X2.9983Y-4.3858
X2.9983Y-4.4858
X2.9983Y-4.5858
X2.9983Y-4.6858
X2.9983Y-4.7858
X2.9983Y-4.8858
X2.9983Y-4.9858
X2.9983Y-5.0858
X2.9983Y-5.1858
X2.9983Y-5.2858
X2.9988Y-2.5417
X2.9988Y-2.6417
X2.9988Y-2.7417
X2.9988Y-2.8417
X2.9988Y-2.9417
X2.9988Y-3.0417
X2.9988Y-3.1417
X2.9988Y-3.2417
X2.9988Y-3.3417
X2.9988Y-3.4417
X2.9988Y-3.5417
X2.9988Y-3.6417
X3.5983Y-4.1858
X3.5983Y-4.2858
X3.5983Y-4.3858
X3.5983Y-4.4858
X3.5983Y-4.5858
X3.5983Y-4.6858
X3.5983Y-4.7858
X3.5983Y-4.8858
X3.5983Y-4.9858
X3.5983Y-5.0858
X3.5983Y-5.1858
X3.5988Y-2.5417
X3.5988Y-2.6417
X3.5988Y-2.7417
X3.5988Y-2.8417
X3.5988Y-2.9417
X3.5988Y-3.0417
X3.5988Y-3.1417
X3.5988Y-3.2417
X3.5988Y-3.3417
X3.5988Y-3.4417
X3.5988Y-3.5417
X3.8014Y-4.1858
X3.8014Y-4.2858
X3.8014Y-4.3858
X3.8014Y-4.4858
X3.8014Y-4.5858
X3.8014Y-4.6858
X3.8014Y-4.7858
X3.8014Y-4.8858
X3.8014Y-4.9858
X3.8014Y-5.0858
X3.8014Y-5.1858
X3.8014Y-5.2858
X3.8019Y-2.5417
X3.8019Y-2.6417
X3.8019Y-2.7417
X3.8019Y-2.8417
X3.8019Y-2.9417
X3.8019Y-3.0417
X3.8019Y-3.1417
X3.8019Y-3.2417
X3.8019Y-3.3417
X3.8019Y-3.4417
X3.8019Y-3.5417
X3.8019Y-3.6417
X4.4014Y-4.1858
X4.4014Y-4.2858
X4.4014Y-4.3858
X4.4014Y-4.4858
X4.4014Y-4.5858
X4.4014Y-4.6858
X4.4014Y-4.7858
X4.4014Y-4.8858
X4.4014Y-4.9858
X4.4014Y-5.0858
X4.4014Y-5.1858
X4.4019Y-2.5417
X4.4019Y-2.6417
X4.4019Y-2.7417
X4.4019Y-2.8417
X4.4019Y-2.9417
X4.4019Y-3.0417
X4.4019Y-3.1417
X4.4019Y-3.2417
X4.4019Y-3.3417
X4.4019Y-3.4417
X4.4019Y-3.5417
X4.6046Y-4.1858
X4.6046Y-4.2858
X4.6046Y-4.3858
X4.6046Y-4.4858
X4.6046Y-4.5858
X4.6046Y-4.6858
X4.6046Y-4.7858
X4.6046Y-4.8858
X4.6046Y-4.9858
X4.6046Y-5.0858
X4.6046Y-5.1858
X4.6046Y-5.2858
X4.6051Y-2.5417
X4.6051Y-2.6417
X4.6051Y-2.7417
X4.6051Y-2.8417
X4.6051Y-2.9417
X4.6051Y-3.0417
X4.6051Y-3.1417
X4.6051Y-3.2417
X4.6051Y-3.3417
X4.6051Y-3.4417
X4.6051Y-3.5417
X4.6051Y-3.6417
X5.2046Y-4.1858
X5.2046Y-4.2858
X5.2046Y-4.3858
X5.2046Y-4.4858
X5.2046Y-4.5858
X5.2046Y-4.6858
X5.2046Y-4.7858
X5.2046Y-4.8858
X5.2046Y-4.9858
X5.2046Y-5.0858
X5.2046Y-5.1858
X5.2051Y-2.5417
X5.2051Y-2.6417
X5.2051Y-2.7417
X5.2051Y-2.8417
X5.2051Y-2.9417
X5.2051Y-3.0417
X5.2051Y-3.1417
X5.2051Y-3.2417
X5.2051Y-3.3417
X5.2051Y-3.4417
X5.2051Y-3.5417
X5.4077Y-4.1858
X5.4077Y-4.2858
X5.4077Y-4.3858
X5.4077Y-4.4858
X5.4077Y-4.5858
X5.4077Y-4.6858
X5.4077Y-4.7858
X5.4077Y-4.8858
X5.4077Y-4.9858
X5.4077Y-5.0858
X5.4077Y-5.1858
X5.4077Y-5.2858
X5.4082Y-2.5417
X5.4082Y-2.6417
X5.4082Y-2.7417
X5.4082Y-2.8417
X5.4082Y-2.9417
X5.4082Y-3.0417
X5.4082Y-3.1417
X5.4082Y-3.2417
X5.4082Y-3.3417
X5.4082Y-3.4417
X5.4082Y-3.5417
X5.4082Y-3.6417
X6.0077Y-4.1858
X6.0077Y-4.2858
X6.0077Y-4.3858
X6.0077Y-4.4858
X6.0077Y-4.5858
X6.0077Y-4.6858
X6.0077Y-4.7858
X6.0077Y-4.8858
X6.0077Y-4.9858
X6.0077Y-5.0858
X6.0077Y-5.1858
X6.0082Y-2.5417
X6.0082Y-2.6417
X6.0082Y-2.7417
X6.0082Y-2.8417
X6.0082Y-2.9417
X6.0082Y-3.0417
X6.0082Y-3.1417
X6.0082Y-3.2417
X6.0082Y-3.3417
X6.0082Y-3.4417
X6.0082Y-3.5417
T6
X2.7951Y-5.2858
X2.7956Y-3.6417
X3.5983Y-5.2858
X3.5988Y-3.6417
X4.4014Y-5.2858
X4.4019Y-3.6417
X5.2046Y-5.2858
X5.2051Y-3.6417
X6.0077Y-5.2858
X6.0082Y-3.6417
T0
M30
