M48
; DRILL file {KiCad 6.0.3-a3aad9c10e~116~ubuntu20.04.1} date Sun 20 Mar 2022 03:04:53 PM CET
; FORMAT={-:-/ absolute / inch / decimal}
; #@! TF.CreationDate,2022-03-20T15:04:53+01:00
; #@! TF.GenerationSoftware,Kicad,Pcbnew,6.0.3-a3aad9c10e~116~ubuntu20.04.1
; #@! TF.FileFunction,NonPlated,1,2,NPTH
FMAT,2
INCH
; #@! TA.AperFunction,NonPlated,NPTH,ComponentDrill
T1C0.0197
%
G90
G05
T1
X2.435Y-4.065
X2.435Y-4.124
X2.4374Y-2.4795
X2.439Y-5.7094
X2.4646Y-4.065
X2.4646Y-4.124
X2.4669Y-2.4795
X2.4685Y-5.7094
X2.4941Y-4.065
X2.4941Y-4.124
X2.4965Y-2.4795
X2.498Y-5.7094
X2.5236Y-4.065
X2.5236Y-4.124
X2.526Y-2.4795
X2.5276Y-5.7094
X2.5531Y-4.065
X2.5531Y-4.124
X2.5555Y-2.4795
X2.5571Y-5.7094
X3.2382Y-4.065
X3.2382Y-4.124
X3.2406Y-2.4795
X3.2421Y-5.7094
X3.2677Y-4.065
X3.2677Y-4.124
X3.2701Y-2.4795
X3.2717Y-5.7094
X3.2972Y-4.065
X3.2972Y-4.124
X3.2996Y-2.4795
X3.3012Y-5.7094
X3.3268Y-4.065
X3.3268Y-4.124
X3.3291Y-2.4795
X3.3307Y-5.7094
X3.3563Y-4.065
X3.3563Y-4.124
X3.3587Y-2.4795
X3.3602Y-5.7094
X4.0413Y-4.065
X4.0413Y-4.124
X4.0437Y-2.4795
X4.0453Y-5.7094
X4.0709Y-4.065
X4.0709Y-4.124
X4.0732Y-2.4795
X4.0748Y-5.7094
X4.1004Y-4.065
X4.1004Y-4.124
X4.1028Y-2.4795
X4.1043Y-5.7094
X4.1299Y-4.065
X4.1299Y-4.124
X4.1323Y-2.4795
X4.1339Y-5.7094
X4.1594Y-4.065
X4.1594Y-4.124
X4.1618Y-2.4795
X4.1634Y-5.7094
X4.8445Y-4.065
X4.8445Y-4.124
X4.8469Y-2.4795
X4.8484Y-5.7094
X4.874Y-4.065
X4.874Y-4.124
X4.8764Y-2.4795
X4.878Y-5.7094
X4.9035Y-4.065
X4.9035Y-4.124
X4.9059Y-2.4795
X4.9075Y-5.7094
X4.9331Y-4.065
X4.9331Y-4.124
X4.9354Y-2.4795
X4.937Y-5.7094
X4.9626Y-4.065
X4.9626Y-4.124
X4.965Y-2.4795
X4.9665Y-5.7094
X5.6476Y-4.065
X5.6476Y-4.124
X5.65Y-2.4795
X5.6516Y-5.7094
X5.6772Y-4.065
X5.6772Y-4.124
X5.6795Y-2.4795
X5.6811Y-5.7094
X5.7067Y-4.065
X5.7067Y-4.124
X5.7091Y-2.4795
X5.7106Y-5.7094
X5.7362Y-4.065
X5.7362Y-4.124
X5.7386Y-2.4795
X5.7402Y-5.7094
X5.7657Y-4.065
X5.7657Y-4.124
X5.7681Y-2.4795
X5.7697Y-5.7094
T0
M30
