%TF.GenerationSoftware,KiCad,Pcbnew,6.0.3-a3aad9c10e~116~ubuntu20.04.1*%
%TF.CreationDate,2022-03-20T15:04:53+01:00*%
%TF.ProjectId,10xPro_Micro_GPIB,31307850-726f-45f4-9d69-63726f5f4750,rev?*%
%TF.SameCoordinates,Original*%
%TF.FileFunction,Legend,Top*%
%TF.FilePolarity,Positive*%
%FSLAX46Y46*%
G04 Gerber Fmt 4.6, Leading zero omitted, Abs format (unit mm)*
G04 Created by KiCad (PCBNEW 6.0.3-a3aad9c10e~116~ubuntu20.04.1) date 2022-03-20 15:04:53*
%MOMM*%
%LPD*%
G01*
G04 APERTURE LIST*
%ADD10C,0.150000*%
%ADD11C,0.120000*%
%ADD12C,0.200000*%
%ADD13C,0.250000*%
%ADD14C,0.400000*%
%ADD15C,0.300000*%
%ADD16C,0.100000*%
G04 APERTURE END LIST*
D10*
X98129883Y-105100000D02*
X98129883Y-135510000D01*
X69526383Y-105090000D02*
X69529268Y-135510732D01*
D11*
X105689268Y-110590732D02*
X105629268Y-110590732D01*
D12*
X107979268Y-112050732D02*
X108469268Y-112740732D01*
D10*
X110326383Y-105090000D02*
X110329268Y-135510732D01*
D12*
X148779268Y-112050732D02*
X149269268Y-112740732D01*
D11*
X64901961Y-68830732D02*
X64841961Y-68830732D01*
D12*
X148791961Y-70290732D02*
X149281961Y-70980732D01*
X99661961Y-71230732D02*
X99776961Y-70320732D01*
D10*
X57329883Y-105100000D02*
X57329883Y-135510000D01*
X130726383Y-105090000D02*
X130729268Y-135510732D01*
D12*
X140461961Y-71230732D02*
X140576961Y-70320732D01*
X107991961Y-70290732D02*
X108481961Y-70980732D01*
X99649268Y-112990732D02*
X99764268Y-112080732D01*
X58861961Y-71230732D02*
X58976961Y-70320732D01*
D11*
X64889268Y-110590732D02*
X64829268Y-110590732D01*
D10*
X151126383Y-105090000D02*
X151129268Y-135510732D01*
X57342576Y-63340000D02*
X57342576Y-93750000D01*
D11*
X126089268Y-110590732D02*
X126029268Y-110590732D01*
X146489268Y-110590732D02*
X146429268Y-110590732D01*
D12*
X58849268Y-112990732D02*
X58964268Y-112080732D01*
D10*
X77742576Y-63340000D02*
X77742576Y-93750000D01*
D12*
X120049268Y-112990732D02*
X120164268Y-112080732D01*
D10*
X151139076Y-63330000D02*
X151141961Y-93750732D01*
D11*
X85289268Y-110590732D02*
X85229268Y-110590732D01*
D10*
X138942576Y-63340000D02*
X138942576Y-93750000D01*
D12*
X120061961Y-71230732D02*
X120176961Y-70320732D01*
D11*
X105701961Y-68830732D02*
X105641961Y-68830732D01*
D10*
X118529883Y-105100000D02*
X118529883Y-135510000D01*
X118542576Y-63340000D02*
X118542576Y-93750000D01*
X89939076Y-63330000D02*
X89941961Y-93750732D01*
X69539076Y-63330000D02*
X69541961Y-93750732D01*
D11*
X126101961Y-68830732D02*
X126041961Y-68830732D01*
D10*
X110339076Y-63330000D02*
X110341961Y-93750732D01*
D12*
X79261961Y-71230732D02*
X79376961Y-70320732D01*
X79249268Y-112990732D02*
X79364268Y-112080732D01*
D10*
X77729883Y-105100000D02*
X77729883Y-135510000D01*
X89926383Y-105090000D02*
X89929268Y-135510732D01*
X98142576Y-63340000D02*
X98142576Y-93750000D01*
D12*
X67191961Y-70290732D02*
X67681961Y-70980732D01*
X128391961Y-70290732D02*
X128881961Y-70980732D01*
X140449268Y-112990732D02*
X140564268Y-112080732D01*
D11*
X146501961Y-68830732D02*
X146441961Y-68830732D01*
D12*
X87579268Y-112050732D02*
X88069268Y-112740732D01*
X128379268Y-112050732D02*
X128869268Y-112740732D01*
X67179268Y-112050732D02*
X67669268Y-112740732D01*
D10*
X138929883Y-105100000D02*
X138929883Y-135510000D01*
D11*
X85301961Y-68830732D02*
X85241961Y-68830732D01*
D10*
X130739076Y-63330000D02*
X130741961Y-93750732D01*
D12*
X87591961Y-70290732D02*
X88081961Y-70980732D01*
D13*
X99453389Y-97141803D02*
X99453389Y-98641803D01*
X99453389Y-97213232D02*
X99596246Y-97141803D01*
X99881961Y-97141803D01*
X100024818Y-97213232D01*
X100096246Y-97284660D01*
X100167675Y-97427517D01*
X100167675Y-97856089D01*
X100096246Y-97998946D01*
X100024818Y-98070374D01*
X99881961Y-98141803D01*
X99596246Y-98141803D01*
X99453389Y-98070374D01*
X100810532Y-98141803D02*
X100810532Y-97141803D01*
X100810532Y-97427517D02*
X100881961Y-97284660D01*
X100953389Y-97213232D01*
X101096246Y-97141803D01*
X101239103Y-97141803D01*
X101953389Y-98141803D02*
X101810532Y-98070374D01*
X101739103Y-97998946D01*
X101667675Y-97856089D01*
X101667675Y-97427517D01*
X101739103Y-97284660D01*
X101810532Y-97213232D01*
X101953389Y-97141803D01*
X102167675Y-97141803D01*
X102310532Y-97213232D01*
X102381961Y-97284660D01*
X102453389Y-97427517D01*
X102453389Y-97856089D01*
X102381961Y-97998946D01*
X102310532Y-98070374D01*
X102167675Y-98141803D01*
X101953389Y-98141803D01*
X104239103Y-98141803D02*
X104239103Y-97141803D01*
X104239103Y-97284660D02*
X104310532Y-97213232D01*
X104453389Y-97141803D01*
X104667675Y-97141803D01*
X104810532Y-97213232D01*
X104881961Y-97356089D01*
X104881961Y-98141803D01*
X104881961Y-97356089D02*
X104953389Y-97213232D01*
X105096246Y-97141803D01*
X105310532Y-97141803D01*
X105453389Y-97213232D01*
X105524818Y-97356089D01*
X105524818Y-98141803D01*
X106239103Y-98141803D02*
X106239103Y-97141803D01*
X106239103Y-96641803D02*
X106167675Y-96713232D01*
X106239103Y-96784660D01*
X106310532Y-96713232D01*
X106239103Y-96641803D01*
X106239103Y-96784660D01*
X107596246Y-98070374D02*
X107453389Y-98141803D01*
X107167675Y-98141803D01*
X107024818Y-98070374D01*
X106953389Y-97998946D01*
X106881961Y-97856089D01*
X106881961Y-97427517D01*
X106953389Y-97284660D01*
X107024818Y-97213232D01*
X107167675Y-97141803D01*
X107453389Y-97141803D01*
X107596246Y-97213232D01*
X108239103Y-98141803D02*
X108239103Y-97141803D01*
X108239103Y-97427517D02*
X108310532Y-97284660D01*
X108381961Y-97213232D01*
X108524818Y-97141803D01*
X108667675Y-97141803D01*
X109381961Y-98141803D02*
X109239103Y-98070374D01*
X109167675Y-97998946D01*
X109096246Y-97856089D01*
X109096246Y-97427517D01*
X109167675Y-97284660D01*
X109239103Y-97213232D01*
X109381961Y-97141803D01*
X109596246Y-97141803D01*
X109739103Y-97213232D01*
X109810532Y-97284660D01*
X109881961Y-97427517D01*
X109881961Y-97856089D01*
X109810532Y-97998946D01*
X109739103Y-98070374D01*
X109596246Y-98141803D01*
X109381961Y-98141803D01*
X101917675Y-99056803D02*
X102846246Y-99056803D01*
X102346246Y-99628232D01*
X102560532Y-99628232D01*
X102703389Y-99699660D01*
X102774818Y-99771089D01*
X102846246Y-99913946D01*
X102846246Y-100271089D01*
X102774818Y-100413946D01*
X102703389Y-100485374D01*
X102560532Y-100556803D01*
X102131961Y-100556803D01*
X101989103Y-100485374D01*
X101917675Y-100413946D01*
X103417675Y-99199660D02*
X103489103Y-99128232D01*
X103631961Y-99056803D01*
X103989103Y-99056803D01*
X104131961Y-99128232D01*
X104203389Y-99199660D01*
X104274818Y-99342517D01*
X104274818Y-99485374D01*
X104203389Y-99699660D01*
X103346246Y-100556803D01*
X104274818Y-100556803D01*
X104917675Y-99056803D02*
X104917675Y-100271089D01*
X104989103Y-100413946D01*
X105060532Y-100485374D01*
X105203389Y-100556803D01*
X105489103Y-100556803D01*
X105631961Y-100485374D01*
X105703389Y-100413946D01*
X105774818Y-100271089D01*
X105774818Y-99056803D01*
X107131961Y-99556803D02*
X107131961Y-100556803D01*
X106774818Y-98985374D02*
X106417675Y-100056803D01*
X107346246Y-100056803D01*
D10*
X68489029Y-117685017D02*
X68536648Y-117556446D01*
X68536648Y-117342160D01*
X68489029Y-117256446D01*
X68441410Y-117213589D01*
X68346172Y-117170732D01*
X68250934Y-117170732D01*
X68155696Y-117213589D01*
X68108077Y-117256446D01*
X68060458Y-117342160D01*
X68012839Y-117513589D01*
X67965220Y-117599303D01*
X67917601Y-117642160D01*
X67822363Y-117685017D01*
X67727125Y-117685017D01*
X67631887Y-117642160D01*
X67584268Y-117599303D01*
X67536648Y-117513589D01*
X67536648Y-117299303D01*
X67584268Y-117170732D01*
X68536648Y-116785017D02*
X67536648Y-116785017D01*
X68012839Y-116785017D02*
X68012839Y-116270732D01*
X68536648Y-116270732D02*
X67536648Y-116270732D01*
X68012839Y-115842160D02*
X68012839Y-115542160D01*
X68536648Y-115413589D02*
X68536648Y-115842160D01*
X67536648Y-115842160D01*
X67536648Y-115413589D01*
X68536648Y-115027874D02*
X67536648Y-115027874D01*
X68536648Y-114170732D02*
X68536648Y-114599303D01*
X67536648Y-114599303D01*
X68536648Y-113870732D02*
X67536648Y-113870732D01*
X67536648Y-113656446D01*
X67584268Y-113527874D01*
X67679506Y-113442160D01*
X67774744Y-113399303D01*
X67965220Y-113356446D01*
X68108077Y-113356446D01*
X68298553Y-113399303D01*
X68393791Y-113442160D01*
X68489029Y-113527874D01*
X68536648Y-113656446D01*
X68536648Y-113870732D01*
D12*
X137703967Y-150806993D02*
X137703967Y-151878422D01*
X137632539Y-152092707D01*
X137489681Y-152235564D01*
X137275396Y-152306993D01*
X137132539Y-152306993D01*
X139132539Y-152306993D02*
X138418253Y-152306993D01*
X138418253Y-150806993D01*
X140489681Y-152164136D02*
X140418253Y-152235564D01*
X140203967Y-152306993D01*
X140061110Y-152306993D01*
X139846824Y-152235564D01*
X139703967Y-152092707D01*
X139632539Y-151949850D01*
X139561110Y-151664136D01*
X139561110Y-151449850D01*
X139632539Y-151164136D01*
X139703967Y-151021279D01*
X139846824Y-150878422D01*
X140061110Y-150806993D01*
X140203967Y-150806993D01*
X140418253Y-150878422D01*
X140489681Y-150949850D01*
X141561110Y-150806993D02*
X141561110Y-151878422D01*
X141489681Y-152092707D01*
X141346824Y-152235564D01*
X141132539Y-152306993D01*
X140989681Y-152306993D01*
X142989681Y-152306993D02*
X142275396Y-152306993D01*
X142275396Y-150806993D01*
X144346824Y-152164136D02*
X144275396Y-152235564D01*
X144061110Y-152306993D01*
X143918253Y-152306993D01*
X143703967Y-152235564D01*
X143561110Y-152092707D01*
X143489681Y-151949850D01*
X143418253Y-151664136D01*
X143418253Y-151449850D01*
X143489681Y-151164136D01*
X143561110Y-151021279D01*
X143703967Y-150878422D01*
X143918253Y-150806993D01*
X144061110Y-150806993D01*
X144275396Y-150878422D01*
X144346824Y-150949850D01*
X145418253Y-150806993D02*
X145418253Y-151878422D01*
X145346824Y-152092707D01*
X145203967Y-152235564D01*
X144989681Y-152306993D01*
X144846824Y-152306993D01*
X146846824Y-152306993D02*
X146132539Y-152306993D01*
X146132539Y-150806993D01*
X148203967Y-152164136D02*
X148132539Y-152235564D01*
X147918253Y-152306993D01*
X147775396Y-152306993D01*
X147561110Y-152235564D01*
X147418253Y-152092707D01*
X147346824Y-151949850D01*
X147275396Y-151664136D01*
X147275396Y-151449850D01*
X147346824Y-151164136D01*
X147418253Y-151021279D01*
X147561110Y-150878422D01*
X147775396Y-150806993D01*
X147918253Y-150806993D01*
X148132539Y-150878422D01*
X148203967Y-150949850D01*
X149275396Y-150806993D02*
X149275396Y-151878422D01*
X149203967Y-152092707D01*
X149061110Y-152235564D01*
X148846824Y-152306993D01*
X148703967Y-152306993D01*
X150703967Y-152306993D02*
X149989681Y-152306993D01*
X149989681Y-150806993D01*
X152061110Y-152164136D02*
X151989681Y-152235564D01*
X151775396Y-152306993D01*
X151632539Y-152306993D01*
X151418253Y-152235564D01*
X151275396Y-152092707D01*
X151203967Y-151949850D01*
X151132539Y-151664136D01*
X151132539Y-151449850D01*
X151203967Y-151164136D01*
X151275396Y-151021279D01*
X151418253Y-150878422D01*
X151632539Y-150806993D01*
X151775396Y-150806993D01*
X151989681Y-150878422D01*
X152061110Y-150949850D01*
D14*
X119610936Y-66664473D02*
X120753793Y-66664473D01*
X119382364Y-67407330D02*
X120182364Y-64807330D01*
X120982364Y-67407330D01*
X123153793Y-67407330D02*
X122353793Y-66169235D01*
X121782364Y-67407330D02*
X121782364Y-64807330D01*
X122696650Y-64807330D01*
X122925221Y-64931140D01*
X123039507Y-65054949D01*
X123153793Y-65302568D01*
X123153793Y-65673997D01*
X123039507Y-65921616D01*
X122925221Y-66045425D01*
X122696650Y-66169235D01*
X121782364Y-66169235D01*
X125210936Y-65673997D02*
X125210936Y-67407330D01*
X124639507Y-64683520D02*
X124068078Y-66540663D01*
X125553793Y-66540663D01*
X126810936Y-65921616D02*
X126582364Y-65797806D01*
X126468078Y-65673997D01*
X126353793Y-65426378D01*
X126353793Y-65302568D01*
X126468078Y-65054949D01*
X126582364Y-64931140D01*
X126810936Y-64807330D01*
X127268078Y-64807330D01*
X127496650Y-64931140D01*
X127610936Y-65054949D01*
X127725221Y-65302568D01*
X127725221Y-65426378D01*
X127610936Y-65673997D01*
X127496650Y-65797806D01*
X127268078Y-65921616D01*
X126810936Y-65921616D01*
X126582364Y-66045425D01*
X126468078Y-66169235D01*
X126353793Y-66416854D01*
X126353793Y-66912092D01*
X126468078Y-67159711D01*
X126582364Y-67283520D01*
X126810936Y-67407330D01*
X127268078Y-67407330D01*
X127496650Y-67283520D01*
X127610936Y-67159711D01*
X127725221Y-66912092D01*
X127725221Y-66416854D01*
X127610936Y-66169235D01*
X127496650Y-66045425D01*
X127268078Y-65921616D01*
X129096650Y-65921616D02*
X128868078Y-65797806D01*
X128753793Y-65673997D01*
X128639507Y-65426378D01*
X128639507Y-65302568D01*
X128753793Y-65054949D01*
X128868078Y-64931140D01*
X129096650Y-64807330D01*
X129553793Y-64807330D01*
X129782364Y-64931140D01*
X129896650Y-65054949D01*
X130010936Y-65302568D01*
X130010936Y-65426378D01*
X129896650Y-65673997D01*
X129782364Y-65797806D01*
X129553793Y-65921616D01*
X129096650Y-65921616D01*
X128868078Y-66045425D01*
X128753793Y-66169235D01*
X128639507Y-66416854D01*
X128639507Y-66912092D01*
X128753793Y-67159711D01*
X128868078Y-67283520D01*
X129096650Y-67407330D01*
X129553793Y-67407330D01*
X129782364Y-67283520D01*
X129896650Y-67159711D01*
X130010936Y-66912092D01*
X130010936Y-66416854D01*
X129896650Y-66169235D01*
X129782364Y-66045425D01*
X129553793Y-65921616D01*
D13*
X119840696Y-138901803D02*
X119840696Y-140401803D01*
X119840696Y-138973232D02*
X119983553Y-138901803D01*
X120269268Y-138901803D01*
X120412125Y-138973232D01*
X120483553Y-139044660D01*
X120554982Y-139187517D01*
X120554982Y-139616089D01*
X120483553Y-139758946D01*
X120412125Y-139830374D01*
X120269268Y-139901803D01*
X119983553Y-139901803D01*
X119840696Y-139830374D01*
X121197839Y-139901803D02*
X121197839Y-138901803D01*
X121197839Y-139187517D02*
X121269268Y-139044660D01*
X121340696Y-138973232D01*
X121483553Y-138901803D01*
X121626410Y-138901803D01*
X122340696Y-139901803D02*
X122197839Y-139830374D01*
X122126410Y-139758946D01*
X122054982Y-139616089D01*
X122054982Y-139187517D01*
X122126410Y-139044660D01*
X122197839Y-138973232D01*
X122340696Y-138901803D01*
X122554982Y-138901803D01*
X122697839Y-138973232D01*
X122769268Y-139044660D01*
X122840696Y-139187517D01*
X122840696Y-139616089D01*
X122769268Y-139758946D01*
X122697839Y-139830374D01*
X122554982Y-139901803D01*
X122340696Y-139901803D01*
X124626410Y-139901803D02*
X124626410Y-138901803D01*
X124626410Y-139044660D02*
X124697839Y-138973232D01*
X124840696Y-138901803D01*
X125054982Y-138901803D01*
X125197839Y-138973232D01*
X125269268Y-139116089D01*
X125269268Y-139901803D01*
X125269268Y-139116089D02*
X125340696Y-138973232D01*
X125483553Y-138901803D01*
X125697839Y-138901803D01*
X125840696Y-138973232D01*
X125912125Y-139116089D01*
X125912125Y-139901803D01*
X126626410Y-139901803D02*
X126626410Y-138901803D01*
X126626410Y-138401803D02*
X126554982Y-138473232D01*
X126626410Y-138544660D01*
X126697839Y-138473232D01*
X126626410Y-138401803D01*
X126626410Y-138544660D01*
X127983553Y-139830374D02*
X127840696Y-139901803D01*
X127554982Y-139901803D01*
X127412125Y-139830374D01*
X127340696Y-139758946D01*
X127269268Y-139616089D01*
X127269268Y-139187517D01*
X127340696Y-139044660D01*
X127412125Y-138973232D01*
X127554982Y-138901803D01*
X127840696Y-138901803D01*
X127983553Y-138973232D01*
X128626410Y-139901803D02*
X128626410Y-138901803D01*
X128626410Y-139187517D02*
X128697839Y-139044660D01*
X128769268Y-138973232D01*
X128912125Y-138901803D01*
X129054982Y-138901803D01*
X129769268Y-139901803D02*
X129626410Y-139830374D01*
X129554982Y-139758946D01*
X129483553Y-139616089D01*
X129483553Y-139187517D01*
X129554982Y-139044660D01*
X129626410Y-138973232D01*
X129769268Y-138901803D01*
X129983553Y-138901803D01*
X130126410Y-138973232D01*
X130197839Y-139044660D01*
X130269268Y-139187517D01*
X130269268Y-139616089D01*
X130197839Y-139758946D01*
X130126410Y-139830374D01*
X129983553Y-139901803D01*
X129769268Y-139901803D01*
X122304982Y-140816803D02*
X123233553Y-140816803D01*
X122733553Y-141388232D01*
X122947839Y-141388232D01*
X123090696Y-141459660D01*
X123162125Y-141531089D01*
X123233553Y-141673946D01*
X123233553Y-142031089D01*
X123162125Y-142173946D01*
X123090696Y-142245374D01*
X122947839Y-142316803D01*
X122519268Y-142316803D01*
X122376410Y-142245374D01*
X122304982Y-142173946D01*
X123804982Y-140959660D02*
X123876410Y-140888232D01*
X124019268Y-140816803D01*
X124376410Y-140816803D01*
X124519268Y-140888232D01*
X124590696Y-140959660D01*
X124662125Y-141102517D01*
X124662125Y-141245374D01*
X124590696Y-141459660D01*
X123733553Y-142316803D01*
X124662125Y-142316803D01*
X125304982Y-140816803D02*
X125304982Y-142031089D01*
X125376410Y-142173946D01*
X125447839Y-142245374D01*
X125590696Y-142316803D01*
X125876410Y-142316803D01*
X126019268Y-142245374D01*
X126090696Y-142173946D01*
X126162125Y-142031089D01*
X126162125Y-140816803D01*
X127519268Y-141316803D02*
X127519268Y-142316803D01*
X127162125Y-140745374D02*
X126804982Y-141816803D01*
X127733553Y-141816803D01*
D10*
X99209268Y-115492636D02*
X99161648Y-115587874D01*
X99161648Y-115730732D01*
X99209268Y-115873589D01*
X99304506Y-115968827D01*
X99399744Y-116016446D01*
X99590220Y-116064065D01*
X99733077Y-116064065D01*
X99923553Y-116016446D01*
X100018791Y-115968827D01*
X100114029Y-115873589D01*
X100161648Y-115730732D01*
X100161648Y-115635493D01*
X100114029Y-115492636D01*
X100066410Y-115445017D01*
X99733077Y-115445017D01*
X99733077Y-115635493D01*
X100161648Y-115016446D02*
X99161648Y-115016446D01*
X100161648Y-114445017D01*
X99161648Y-114445017D01*
X100161648Y-113968827D02*
X99161648Y-113968827D01*
X99161648Y-113730732D01*
X99209268Y-113587874D01*
X99304506Y-113492636D01*
X99399744Y-113445017D01*
X99590220Y-113397398D01*
X99733077Y-113397398D01*
X99923553Y-113445017D01*
X100018791Y-113492636D01*
X100114029Y-113587874D01*
X100161648Y-113730732D01*
X100161648Y-113968827D01*
X99221961Y-73732636D02*
X99174341Y-73827874D01*
X99174341Y-73970732D01*
X99221961Y-74113589D01*
X99317199Y-74208827D01*
X99412437Y-74256446D01*
X99602913Y-74304065D01*
X99745770Y-74304065D01*
X99936246Y-74256446D01*
X100031484Y-74208827D01*
X100126722Y-74113589D01*
X100174341Y-73970732D01*
X100174341Y-73875493D01*
X100126722Y-73732636D01*
X100079103Y-73685017D01*
X99745770Y-73685017D01*
X99745770Y-73875493D01*
X100174341Y-73256446D02*
X99174341Y-73256446D01*
X100174341Y-72685017D01*
X99174341Y-72685017D01*
X100174341Y-72208827D02*
X99174341Y-72208827D01*
X99174341Y-71970732D01*
X99221961Y-71827874D01*
X99317199Y-71732636D01*
X99412437Y-71685017D01*
X99602913Y-71637398D01*
X99745770Y-71637398D01*
X99936246Y-71685017D01*
X100031484Y-71732636D01*
X100126722Y-71827874D01*
X100174341Y-71970732D01*
X100174341Y-72208827D01*
X109301722Y-75925017D02*
X109349341Y-75796446D01*
X109349341Y-75582160D01*
X109301722Y-75496446D01*
X109254103Y-75453589D01*
X109158865Y-75410732D01*
X109063627Y-75410732D01*
X108968389Y-75453589D01*
X108920770Y-75496446D01*
X108873151Y-75582160D01*
X108825532Y-75753589D01*
X108777913Y-75839303D01*
X108730294Y-75882160D01*
X108635056Y-75925017D01*
X108539818Y-75925017D01*
X108444580Y-75882160D01*
X108396961Y-75839303D01*
X108349341Y-75753589D01*
X108349341Y-75539303D01*
X108396961Y-75410732D01*
X109349341Y-75025017D02*
X108349341Y-75025017D01*
X108825532Y-75025017D02*
X108825532Y-74510732D01*
X109349341Y-74510732D02*
X108349341Y-74510732D01*
X108825532Y-74082160D02*
X108825532Y-73782160D01*
X109349341Y-73653589D02*
X109349341Y-74082160D01*
X108349341Y-74082160D01*
X108349341Y-73653589D01*
X109349341Y-73267874D02*
X108349341Y-73267874D01*
X109349341Y-72410732D02*
X109349341Y-72839303D01*
X108349341Y-72839303D01*
X109349341Y-72110732D02*
X108349341Y-72110732D01*
X108349341Y-71896446D01*
X108396961Y-71767874D01*
X108492199Y-71682160D01*
X108587437Y-71639303D01*
X108777913Y-71596446D01*
X108920770Y-71596446D01*
X109111246Y-71639303D01*
X109206484Y-71682160D01*
X109301722Y-71767874D01*
X109349341Y-71896446D01*
X109349341Y-72110732D01*
X129701722Y-75925017D02*
X129749341Y-75796446D01*
X129749341Y-75582160D01*
X129701722Y-75496446D01*
X129654103Y-75453589D01*
X129558865Y-75410732D01*
X129463627Y-75410732D01*
X129368389Y-75453589D01*
X129320770Y-75496446D01*
X129273151Y-75582160D01*
X129225532Y-75753589D01*
X129177913Y-75839303D01*
X129130294Y-75882160D01*
X129035056Y-75925017D01*
X128939818Y-75925017D01*
X128844580Y-75882160D01*
X128796961Y-75839303D01*
X128749341Y-75753589D01*
X128749341Y-75539303D01*
X128796961Y-75410732D01*
X129749341Y-75025017D02*
X128749341Y-75025017D01*
X129225532Y-75025017D02*
X129225532Y-74510732D01*
X129749341Y-74510732D02*
X128749341Y-74510732D01*
X129225532Y-74082160D02*
X129225532Y-73782160D01*
X129749341Y-73653589D02*
X129749341Y-74082160D01*
X128749341Y-74082160D01*
X128749341Y-73653589D01*
X129749341Y-73267874D02*
X128749341Y-73267874D01*
X129749341Y-72410732D02*
X129749341Y-72839303D01*
X128749341Y-72839303D01*
X129749341Y-72110732D02*
X128749341Y-72110732D01*
X128749341Y-71896446D01*
X128796961Y-71767874D01*
X128892199Y-71682160D01*
X128987437Y-71639303D01*
X129177913Y-71596446D01*
X129320770Y-71596446D01*
X129511246Y-71639303D01*
X129606484Y-71682160D01*
X129701722Y-71767874D01*
X129749341Y-71896446D01*
X129749341Y-72110732D01*
D13*
X119853389Y-97141803D02*
X119853389Y-98641803D01*
X119853389Y-97213232D02*
X119996246Y-97141803D01*
X120281961Y-97141803D01*
X120424818Y-97213232D01*
X120496246Y-97284660D01*
X120567675Y-97427517D01*
X120567675Y-97856089D01*
X120496246Y-97998946D01*
X120424818Y-98070374D01*
X120281961Y-98141803D01*
X119996246Y-98141803D01*
X119853389Y-98070374D01*
X121210532Y-98141803D02*
X121210532Y-97141803D01*
X121210532Y-97427517D02*
X121281961Y-97284660D01*
X121353389Y-97213232D01*
X121496246Y-97141803D01*
X121639103Y-97141803D01*
X122353389Y-98141803D02*
X122210532Y-98070374D01*
X122139103Y-97998946D01*
X122067675Y-97856089D01*
X122067675Y-97427517D01*
X122139103Y-97284660D01*
X122210532Y-97213232D01*
X122353389Y-97141803D01*
X122567675Y-97141803D01*
X122710532Y-97213232D01*
X122781961Y-97284660D01*
X122853389Y-97427517D01*
X122853389Y-97856089D01*
X122781961Y-97998946D01*
X122710532Y-98070374D01*
X122567675Y-98141803D01*
X122353389Y-98141803D01*
X124639103Y-98141803D02*
X124639103Y-97141803D01*
X124639103Y-97284660D02*
X124710532Y-97213232D01*
X124853389Y-97141803D01*
X125067675Y-97141803D01*
X125210532Y-97213232D01*
X125281961Y-97356089D01*
X125281961Y-98141803D01*
X125281961Y-97356089D02*
X125353389Y-97213232D01*
X125496246Y-97141803D01*
X125710532Y-97141803D01*
X125853389Y-97213232D01*
X125924818Y-97356089D01*
X125924818Y-98141803D01*
X126639103Y-98141803D02*
X126639103Y-97141803D01*
X126639103Y-96641803D02*
X126567675Y-96713232D01*
X126639103Y-96784660D01*
X126710532Y-96713232D01*
X126639103Y-96641803D01*
X126639103Y-96784660D01*
X127996246Y-98070374D02*
X127853389Y-98141803D01*
X127567675Y-98141803D01*
X127424818Y-98070374D01*
X127353389Y-97998946D01*
X127281961Y-97856089D01*
X127281961Y-97427517D01*
X127353389Y-97284660D01*
X127424818Y-97213232D01*
X127567675Y-97141803D01*
X127853389Y-97141803D01*
X127996246Y-97213232D01*
X128639103Y-98141803D02*
X128639103Y-97141803D01*
X128639103Y-97427517D02*
X128710532Y-97284660D01*
X128781961Y-97213232D01*
X128924818Y-97141803D01*
X129067675Y-97141803D01*
X129781961Y-98141803D02*
X129639103Y-98070374D01*
X129567675Y-97998946D01*
X129496246Y-97856089D01*
X129496246Y-97427517D01*
X129567675Y-97284660D01*
X129639103Y-97213232D01*
X129781961Y-97141803D01*
X129996246Y-97141803D01*
X130139103Y-97213232D01*
X130210532Y-97284660D01*
X130281961Y-97427517D01*
X130281961Y-97856089D01*
X130210532Y-97998946D01*
X130139103Y-98070374D01*
X129996246Y-98141803D01*
X129781961Y-98141803D01*
X122317675Y-99056803D02*
X123246246Y-99056803D01*
X122746246Y-99628232D01*
X122960532Y-99628232D01*
X123103389Y-99699660D01*
X123174818Y-99771089D01*
X123246246Y-99913946D01*
X123246246Y-100271089D01*
X123174818Y-100413946D01*
X123103389Y-100485374D01*
X122960532Y-100556803D01*
X122531961Y-100556803D01*
X122389103Y-100485374D01*
X122317675Y-100413946D01*
X123817675Y-99199660D02*
X123889103Y-99128232D01*
X124031961Y-99056803D01*
X124389103Y-99056803D01*
X124531961Y-99128232D01*
X124603389Y-99199660D01*
X124674818Y-99342517D01*
X124674818Y-99485374D01*
X124603389Y-99699660D01*
X123746246Y-100556803D01*
X124674818Y-100556803D01*
X125317675Y-99056803D02*
X125317675Y-100271089D01*
X125389103Y-100413946D01*
X125460532Y-100485374D01*
X125603389Y-100556803D01*
X125889103Y-100556803D01*
X126031961Y-100485374D01*
X126103389Y-100413946D01*
X126174818Y-100271089D01*
X126174818Y-99056803D01*
X127531961Y-99556803D02*
X127531961Y-100556803D01*
X127174818Y-98985374D02*
X126817675Y-100056803D01*
X127746246Y-100056803D01*
D10*
X150101722Y-75925017D02*
X150149341Y-75796446D01*
X150149341Y-75582160D01*
X150101722Y-75496446D01*
X150054103Y-75453589D01*
X149958865Y-75410732D01*
X149863627Y-75410732D01*
X149768389Y-75453589D01*
X149720770Y-75496446D01*
X149673151Y-75582160D01*
X149625532Y-75753589D01*
X149577913Y-75839303D01*
X149530294Y-75882160D01*
X149435056Y-75925017D01*
X149339818Y-75925017D01*
X149244580Y-75882160D01*
X149196961Y-75839303D01*
X149149341Y-75753589D01*
X149149341Y-75539303D01*
X149196961Y-75410732D01*
X150149341Y-75025017D02*
X149149341Y-75025017D01*
X149625532Y-75025017D02*
X149625532Y-74510732D01*
X150149341Y-74510732D02*
X149149341Y-74510732D01*
X149625532Y-74082160D02*
X149625532Y-73782160D01*
X150149341Y-73653589D02*
X150149341Y-74082160D01*
X149149341Y-74082160D01*
X149149341Y-73653589D01*
X150149341Y-73267874D02*
X149149341Y-73267874D01*
X150149341Y-72410732D02*
X150149341Y-72839303D01*
X149149341Y-72839303D01*
X150149341Y-72110732D02*
X149149341Y-72110732D01*
X149149341Y-71896446D01*
X149196961Y-71767874D01*
X149292199Y-71682160D01*
X149387437Y-71639303D01*
X149577913Y-71596446D01*
X149720770Y-71596446D01*
X149911246Y-71639303D01*
X150006484Y-71682160D01*
X150101722Y-71767874D01*
X150149341Y-71896446D01*
X150149341Y-72110732D01*
X109289029Y-117685017D02*
X109336648Y-117556446D01*
X109336648Y-117342160D01*
X109289029Y-117256446D01*
X109241410Y-117213589D01*
X109146172Y-117170732D01*
X109050934Y-117170732D01*
X108955696Y-117213589D01*
X108908077Y-117256446D01*
X108860458Y-117342160D01*
X108812839Y-117513589D01*
X108765220Y-117599303D01*
X108717601Y-117642160D01*
X108622363Y-117685017D01*
X108527125Y-117685017D01*
X108431887Y-117642160D01*
X108384268Y-117599303D01*
X108336648Y-117513589D01*
X108336648Y-117299303D01*
X108384268Y-117170732D01*
X109336648Y-116785017D02*
X108336648Y-116785017D01*
X108812839Y-116785017D02*
X108812839Y-116270732D01*
X109336648Y-116270732D02*
X108336648Y-116270732D01*
X108812839Y-115842160D02*
X108812839Y-115542160D01*
X109336648Y-115413589D02*
X109336648Y-115842160D01*
X108336648Y-115842160D01*
X108336648Y-115413589D01*
X109336648Y-115027874D02*
X108336648Y-115027874D01*
X109336648Y-114170732D02*
X109336648Y-114599303D01*
X108336648Y-114599303D01*
X109336648Y-113870732D02*
X108336648Y-113870732D01*
X108336648Y-113656446D01*
X108384268Y-113527874D01*
X108479506Y-113442160D01*
X108574744Y-113399303D01*
X108765220Y-113356446D01*
X108908077Y-113356446D01*
X109098553Y-113399303D01*
X109193791Y-113442160D01*
X109289029Y-113527874D01*
X109336648Y-113656446D01*
X109336648Y-113870732D01*
D13*
X140240696Y-138901803D02*
X140240696Y-140401803D01*
X140240696Y-138973232D02*
X140383553Y-138901803D01*
X140669268Y-138901803D01*
X140812125Y-138973232D01*
X140883553Y-139044660D01*
X140954982Y-139187517D01*
X140954982Y-139616089D01*
X140883553Y-139758946D01*
X140812125Y-139830374D01*
X140669268Y-139901803D01*
X140383553Y-139901803D01*
X140240696Y-139830374D01*
X141597839Y-139901803D02*
X141597839Y-138901803D01*
X141597839Y-139187517D02*
X141669268Y-139044660D01*
X141740696Y-138973232D01*
X141883553Y-138901803D01*
X142026410Y-138901803D01*
X142740696Y-139901803D02*
X142597839Y-139830374D01*
X142526410Y-139758946D01*
X142454982Y-139616089D01*
X142454982Y-139187517D01*
X142526410Y-139044660D01*
X142597839Y-138973232D01*
X142740696Y-138901803D01*
X142954982Y-138901803D01*
X143097839Y-138973232D01*
X143169268Y-139044660D01*
X143240696Y-139187517D01*
X143240696Y-139616089D01*
X143169268Y-139758946D01*
X143097839Y-139830374D01*
X142954982Y-139901803D01*
X142740696Y-139901803D01*
X145026410Y-139901803D02*
X145026410Y-138901803D01*
X145026410Y-139044660D02*
X145097839Y-138973232D01*
X145240696Y-138901803D01*
X145454982Y-138901803D01*
X145597839Y-138973232D01*
X145669268Y-139116089D01*
X145669268Y-139901803D01*
X145669268Y-139116089D02*
X145740696Y-138973232D01*
X145883553Y-138901803D01*
X146097839Y-138901803D01*
X146240696Y-138973232D01*
X146312125Y-139116089D01*
X146312125Y-139901803D01*
X147026410Y-139901803D02*
X147026410Y-138901803D01*
X147026410Y-138401803D02*
X146954982Y-138473232D01*
X147026410Y-138544660D01*
X147097839Y-138473232D01*
X147026410Y-138401803D01*
X147026410Y-138544660D01*
X148383553Y-139830374D02*
X148240696Y-139901803D01*
X147954982Y-139901803D01*
X147812125Y-139830374D01*
X147740696Y-139758946D01*
X147669268Y-139616089D01*
X147669268Y-139187517D01*
X147740696Y-139044660D01*
X147812125Y-138973232D01*
X147954982Y-138901803D01*
X148240696Y-138901803D01*
X148383553Y-138973232D01*
X149026410Y-139901803D02*
X149026410Y-138901803D01*
X149026410Y-139187517D02*
X149097839Y-139044660D01*
X149169268Y-138973232D01*
X149312125Y-138901803D01*
X149454982Y-138901803D01*
X150169268Y-139901803D02*
X150026410Y-139830374D01*
X149954982Y-139758946D01*
X149883553Y-139616089D01*
X149883553Y-139187517D01*
X149954982Y-139044660D01*
X150026410Y-138973232D01*
X150169268Y-138901803D01*
X150383553Y-138901803D01*
X150526410Y-138973232D01*
X150597839Y-139044660D01*
X150669268Y-139187517D01*
X150669268Y-139616089D01*
X150597839Y-139758946D01*
X150526410Y-139830374D01*
X150383553Y-139901803D01*
X150169268Y-139901803D01*
X142704982Y-140816803D02*
X143633553Y-140816803D01*
X143133553Y-141388232D01*
X143347839Y-141388232D01*
X143490696Y-141459660D01*
X143562125Y-141531089D01*
X143633553Y-141673946D01*
X143633553Y-142031089D01*
X143562125Y-142173946D01*
X143490696Y-142245374D01*
X143347839Y-142316803D01*
X142919268Y-142316803D01*
X142776410Y-142245374D01*
X142704982Y-142173946D01*
X144204982Y-140959660D02*
X144276410Y-140888232D01*
X144419268Y-140816803D01*
X144776410Y-140816803D01*
X144919268Y-140888232D01*
X144990696Y-140959660D01*
X145062125Y-141102517D01*
X145062125Y-141245374D01*
X144990696Y-141459660D01*
X144133553Y-142316803D01*
X145062125Y-142316803D01*
X145704982Y-140816803D02*
X145704982Y-142031089D01*
X145776410Y-142173946D01*
X145847839Y-142245374D01*
X145990696Y-142316803D01*
X146276410Y-142316803D01*
X146419268Y-142245374D01*
X146490696Y-142173946D01*
X146562125Y-142031089D01*
X146562125Y-140816803D01*
X147919268Y-141316803D02*
X147919268Y-142316803D01*
X147562125Y-140745374D02*
X147204982Y-141816803D01*
X148133553Y-141816803D01*
D14*
X139998243Y-108424473D02*
X141141100Y-108424473D01*
X139769671Y-109167330D02*
X140569671Y-106567330D01*
X141369671Y-109167330D01*
X143541100Y-109167330D02*
X142741100Y-107929235D01*
X142169671Y-109167330D02*
X142169671Y-106567330D01*
X143083957Y-106567330D01*
X143312528Y-106691140D01*
X143426814Y-106814949D01*
X143541100Y-107062568D01*
X143541100Y-107433997D01*
X143426814Y-107681616D01*
X143312528Y-107805425D01*
X143083957Y-107929235D01*
X142169671Y-107929235D01*
X145598243Y-107433997D02*
X145598243Y-109167330D01*
X145026814Y-106443520D02*
X144455385Y-108300663D01*
X145941100Y-108300663D01*
X147198243Y-107681616D02*
X146969671Y-107557806D01*
X146855385Y-107433997D01*
X146741100Y-107186378D01*
X146741100Y-107062568D01*
X146855385Y-106814949D01*
X146969671Y-106691140D01*
X147198243Y-106567330D01*
X147655385Y-106567330D01*
X147883957Y-106691140D01*
X147998243Y-106814949D01*
X148112528Y-107062568D01*
X148112528Y-107186378D01*
X147998243Y-107433997D01*
X147883957Y-107557806D01*
X147655385Y-107681616D01*
X147198243Y-107681616D01*
X146969671Y-107805425D01*
X146855385Y-107929235D01*
X146741100Y-108176854D01*
X146741100Y-108672092D01*
X146855385Y-108919711D01*
X146969671Y-109043520D01*
X147198243Y-109167330D01*
X147655385Y-109167330D01*
X147883957Y-109043520D01*
X147998243Y-108919711D01*
X148112528Y-108672092D01*
X148112528Y-108176854D01*
X147998243Y-107929235D01*
X147883957Y-107805425D01*
X147655385Y-107681616D01*
X149483957Y-107681616D02*
X149255385Y-107557806D01*
X149141100Y-107433997D01*
X149026814Y-107186378D01*
X149026814Y-107062568D01*
X149141100Y-106814949D01*
X149255385Y-106691140D01*
X149483957Y-106567330D01*
X149941100Y-106567330D01*
X150169671Y-106691140D01*
X150283957Y-106814949D01*
X150398243Y-107062568D01*
X150398243Y-107186378D01*
X150283957Y-107433997D01*
X150169671Y-107557806D01*
X149941100Y-107681616D01*
X149483957Y-107681616D01*
X149255385Y-107805425D01*
X149141100Y-107929235D01*
X149026814Y-108176854D01*
X149026814Y-108672092D01*
X149141100Y-108919711D01*
X149255385Y-109043520D01*
X149483957Y-109167330D01*
X149941100Y-109167330D01*
X150169671Y-109043520D01*
X150283957Y-108919711D01*
X150398243Y-108672092D01*
X150398243Y-108176854D01*
X150283957Y-107929235D01*
X150169671Y-107805425D01*
X149941100Y-107681616D01*
X58410936Y-66664473D02*
X59553793Y-66664473D01*
X58182364Y-67407330D02*
X58982364Y-64807330D01*
X59782364Y-67407330D01*
X61953793Y-67407330D02*
X61153793Y-66169235D01*
X60582364Y-67407330D02*
X60582364Y-64807330D01*
X61496650Y-64807330D01*
X61725221Y-64931140D01*
X61839507Y-65054949D01*
X61953793Y-65302568D01*
X61953793Y-65673997D01*
X61839507Y-65921616D01*
X61725221Y-66045425D01*
X61496650Y-66169235D01*
X60582364Y-66169235D01*
X64010936Y-65673997D02*
X64010936Y-67407330D01*
X63439507Y-64683520D02*
X62868078Y-66540663D01*
X64353793Y-66540663D01*
X65610936Y-65921616D02*
X65382364Y-65797806D01*
X65268078Y-65673997D01*
X65153793Y-65426378D01*
X65153793Y-65302568D01*
X65268078Y-65054949D01*
X65382364Y-64931140D01*
X65610936Y-64807330D01*
X66068078Y-64807330D01*
X66296650Y-64931140D01*
X66410936Y-65054949D01*
X66525221Y-65302568D01*
X66525221Y-65426378D01*
X66410936Y-65673997D01*
X66296650Y-65797806D01*
X66068078Y-65921616D01*
X65610936Y-65921616D01*
X65382364Y-66045425D01*
X65268078Y-66169235D01*
X65153793Y-66416854D01*
X65153793Y-66912092D01*
X65268078Y-67159711D01*
X65382364Y-67283520D01*
X65610936Y-67407330D01*
X66068078Y-67407330D01*
X66296650Y-67283520D01*
X66410936Y-67159711D01*
X66525221Y-66912092D01*
X66525221Y-66416854D01*
X66410936Y-66169235D01*
X66296650Y-66045425D01*
X66068078Y-65921616D01*
X67896650Y-65921616D02*
X67668078Y-65797806D01*
X67553793Y-65673997D01*
X67439507Y-65426378D01*
X67439507Y-65302568D01*
X67553793Y-65054949D01*
X67668078Y-64931140D01*
X67896650Y-64807330D01*
X68353793Y-64807330D01*
X68582364Y-64931140D01*
X68696650Y-65054949D01*
X68810936Y-65302568D01*
X68810936Y-65426378D01*
X68696650Y-65673997D01*
X68582364Y-65797806D01*
X68353793Y-65921616D01*
X67896650Y-65921616D01*
X67668078Y-66045425D01*
X67553793Y-66169235D01*
X67439507Y-66416854D01*
X67439507Y-66912092D01*
X67553793Y-67159711D01*
X67668078Y-67283520D01*
X67896650Y-67407330D01*
X68353793Y-67407330D01*
X68582364Y-67283520D01*
X68696650Y-67159711D01*
X68810936Y-66912092D01*
X68810936Y-66416854D01*
X68696650Y-66169235D01*
X68582364Y-66045425D01*
X68353793Y-65921616D01*
X99210936Y-66664473D02*
X100353793Y-66664473D01*
X98982364Y-67407330D02*
X99782364Y-64807330D01*
X100582364Y-67407330D01*
X102753793Y-67407330D02*
X101953793Y-66169235D01*
X101382364Y-67407330D02*
X101382364Y-64807330D01*
X102296650Y-64807330D01*
X102525221Y-64931140D01*
X102639507Y-65054949D01*
X102753793Y-65302568D01*
X102753793Y-65673997D01*
X102639507Y-65921616D01*
X102525221Y-66045425D01*
X102296650Y-66169235D01*
X101382364Y-66169235D01*
X104810936Y-65673997D02*
X104810936Y-67407330D01*
X104239507Y-64683520D02*
X103668078Y-66540663D01*
X105153793Y-66540663D01*
X106410936Y-65921616D02*
X106182364Y-65797806D01*
X106068078Y-65673997D01*
X105953793Y-65426378D01*
X105953793Y-65302568D01*
X106068078Y-65054949D01*
X106182364Y-64931140D01*
X106410936Y-64807330D01*
X106868078Y-64807330D01*
X107096650Y-64931140D01*
X107210936Y-65054949D01*
X107325221Y-65302568D01*
X107325221Y-65426378D01*
X107210936Y-65673997D01*
X107096650Y-65797806D01*
X106868078Y-65921616D01*
X106410936Y-65921616D01*
X106182364Y-66045425D01*
X106068078Y-66169235D01*
X105953793Y-66416854D01*
X105953793Y-66912092D01*
X106068078Y-67159711D01*
X106182364Y-67283520D01*
X106410936Y-67407330D01*
X106868078Y-67407330D01*
X107096650Y-67283520D01*
X107210936Y-67159711D01*
X107325221Y-66912092D01*
X107325221Y-66416854D01*
X107210936Y-66169235D01*
X107096650Y-66045425D01*
X106868078Y-65921616D01*
X108696650Y-65921616D02*
X108468078Y-65797806D01*
X108353793Y-65673997D01*
X108239507Y-65426378D01*
X108239507Y-65302568D01*
X108353793Y-65054949D01*
X108468078Y-64931140D01*
X108696650Y-64807330D01*
X109153793Y-64807330D01*
X109382364Y-64931140D01*
X109496650Y-65054949D01*
X109610936Y-65302568D01*
X109610936Y-65426378D01*
X109496650Y-65673997D01*
X109382364Y-65797806D01*
X109153793Y-65921616D01*
X108696650Y-65921616D01*
X108468078Y-66045425D01*
X108353793Y-66169235D01*
X108239507Y-66416854D01*
X108239507Y-66912092D01*
X108353793Y-67159711D01*
X108468078Y-67283520D01*
X108696650Y-67407330D01*
X109153793Y-67407330D01*
X109382364Y-67283520D01*
X109496650Y-67159711D01*
X109610936Y-66912092D01*
X109610936Y-66416854D01*
X109496650Y-66169235D01*
X109382364Y-66045425D01*
X109153793Y-65921616D01*
X99198243Y-108424473D02*
X100341100Y-108424473D01*
X98969671Y-109167330D02*
X99769671Y-106567330D01*
X100569671Y-109167330D01*
X102741100Y-109167330D02*
X101941100Y-107929235D01*
X101369671Y-109167330D02*
X101369671Y-106567330D01*
X102283957Y-106567330D01*
X102512528Y-106691140D01*
X102626814Y-106814949D01*
X102741100Y-107062568D01*
X102741100Y-107433997D01*
X102626814Y-107681616D01*
X102512528Y-107805425D01*
X102283957Y-107929235D01*
X101369671Y-107929235D01*
X104798243Y-107433997D02*
X104798243Y-109167330D01*
X104226814Y-106443520D02*
X103655385Y-108300663D01*
X105141100Y-108300663D01*
X106398243Y-107681616D02*
X106169671Y-107557806D01*
X106055385Y-107433997D01*
X105941100Y-107186378D01*
X105941100Y-107062568D01*
X106055385Y-106814949D01*
X106169671Y-106691140D01*
X106398243Y-106567330D01*
X106855385Y-106567330D01*
X107083957Y-106691140D01*
X107198243Y-106814949D01*
X107312528Y-107062568D01*
X107312528Y-107186378D01*
X107198243Y-107433997D01*
X107083957Y-107557806D01*
X106855385Y-107681616D01*
X106398243Y-107681616D01*
X106169671Y-107805425D01*
X106055385Y-107929235D01*
X105941100Y-108176854D01*
X105941100Y-108672092D01*
X106055385Y-108919711D01*
X106169671Y-109043520D01*
X106398243Y-109167330D01*
X106855385Y-109167330D01*
X107083957Y-109043520D01*
X107198243Y-108919711D01*
X107312528Y-108672092D01*
X107312528Y-108176854D01*
X107198243Y-107929235D01*
X107083957Y-107805425D01*
X106855385Y-107681616D01*
X108683957Y-107681616D02*
X108455385Y-107557806D01*
X108341100Y-107433997D01*
X108226814Y-107186378D01*
X108226814Y-107062568D01*
X108341100Y-106814949D01*
X108455385Y-106691140D01*
X108683957Y-106567330D01*
X109141100Y-106567330D01*
X109369671Y-106691140D01*
X109483957Y-106814949D01*
X109598243Y-107062568D01*
X109598243Y-107186378D01*
X109483957Y-107433997D01*
X109369671Y-107557806D01*
X109141100Y-107681616D01*
X108683957Y-107681616D01*
X108455385Y-107805425D01*
X108341100Y-107929235D01*
X108226814Y-108176854D01*
X108226814Y-108672092D01*
X108341100Y-108919711D01*
X108455385Y-109043520D01*
X108683957Y-109167330D01*
X109141100Y-109167330D01*
X109369671Y-109043520D01*
X109483957Y-108919711D01*
X109598243Y-108672092D01*
X109598243Y-108176854D01*
X109483957Y-107929235D01*
X109369671Y-107805425D01*
X109141100Y-107681616D01*
D10*
X129689029Y-117685017D02*
X129736648Y-117556446D01*
X129736648Y-117342160D01*
X129689029Y-117256446D01*
X129641410Y-117213589D01*
X129546172Y-117170732D01*
X129450934Y-117170732D01*
X129355696Y-117213589D01*
X129308077Y-117256446D01*
X129260458Y-117342160D01*
X129212839Y-117513589D01*
X129165220Y-117599303D01*
X129117601Y-117642160D01*
X129022363Y-117685017D01*
X128927125Y-117685017D01*
X128831887Y-117642160D01*
X128784268Y-117599303D01*
X128736648Y-117513589D01*
X128736648Y-117299303D01*
X128784268Y-117170732D01*
X129736648Y-116785017D02*
X128736648Y-116785017D01*
X129212839Y-116785017D02*
X129212839Y-116270732D01*
X129736648Y-116270732D02*
X128736648Y-116270732D01*
X129212839Y-115842160D02*
X129212839Y-115542160D01*
X129736648Y-115413589D02*
X129736648Y-115842160D01*
X128736648Y-115842160D01*
X128736648Y-115413589D01*
X129736648Y-115027874D02*
X128736648Y-115027874D01*
X129736648Y-114170732D02*
X129736648Y-114599303D01*
X128736648Y-114599303D01*
X129736648Y-113870732D02*
X128736648Y-113870732D01*
X128736648Y-113656446D01*
X128784268Y-113527874D01*
X128879506Y-113442160D01*
X128974744Y-113399303D01*
X129165220Y-113356446D01*
X129308077Y-113356446D01*
X129498553Y-113399303D01*
X129593791Y-113442160D01*
X129689029Y-113527874D01*
X129736648Y-113656446D01*
X129736648Y-113870732D01*
D14*
X78798243Y-108424473D02*
X79941100Y-108424473D01*
X78569671Y-109167330D02*
X79369671Y-106567330D01*
X80169671Y-109167330D01*
X82341100Y-109167330D02*
X81541100Y-107929235D01*
X80969671Y-109167330D02*
X80969671Y-106567330D01*
X81883957Y-106567330D01*
X82112528Y-106691140D01*
X82226814Y-106814949D01*
X82341100Y-107062568D01*
X82341100Y-107433997D01*
X82226814Y-107681616D01*
X82112528Y-107805425D01*
X81883957Y-107929235D01*
X80969671Y-107929235D01*
X84398243Y-107433997D02*
X84398243Y-109167330D01*
X83826814Y-106443520D02*
X83255385Y-108300663D01*
X84741100Y-108300663D01*
X85998243Y-107681616D02*
X85769671Y-107557806D01*
X85655385Y-107433997D01*
X85541100Y-107186378D01*
X85541100Y-107062568D01*
X85655385Y-106814949D01*
X85769671Y-106691140D01*
X85998243Y-106567330D01*
X86455385Y-106567330D01*
X86683957Y-106691140D01*
X86798243Y-106814949D01*
X86912528Y-107062568D01*
X86912528Y-107186378D01*
X86798243Y-107433997D01*
X86683957Y-107557806D01*
X86455385Y-107681616D01*
X85998243Y-107681616D01*
X85769671Y-107805425D01*
X85655385Y-107929235D01*
X85541100Y-108176854D01*
X85541100Y-108672092D01*
X85655385Y-108919711D01*
X85769671Y-109043520D01*
X85998243Y-109167330D01*
X86455385Y-109167330D01*
X86683957Y-109043520D01*
X86798243Y-108919711D01*
X86912528Y-108672092D01*
X86912528Y-108176854D01*
X86798243Y-107929235D01*
X86683957Y-107805425D01*
X86455385Y-107681616D01*
X88283957Y-107681616D02*
X88055385Y-107557806D01*
X87941100Y-107433997D01*
X87826814Y-107186378D01*
X87826814Y-107062568D01*
X87941100Y-106814949D01*
X88055385Y-106691140D01*
X88283957Y-106567330D01*
X88741100Y-106567330D01*
X88969671Y-106691140D01*
X89083957Y-106814949D01*
X89198243Y-107062568D01*
X89198243Y-107186378D01*
X89083957Y-107433997D01*
X88969671Y-107557806D01*
X88741100Y-107681616D01*
X88283957Y-107681616D01*
X88055385Y-107805425D01*
X87941100Y-107929235D01*
X87826814Y-108176854D01*
X87826814Y-108672092D01*
X87941100Y-108919711D01*
X88055385Y-109043520D01*
X88283957Y-109167330D01*
X88741100Y-109167330D01*
X88969671Y-109043520D01*
X89083957Y-108919711D01*
X89198243Y-108672092D01*
X89198243Y-108176854D01*
X89083957Y-107929235D01*
X88969671Y-107805425D01*
X88741100Y-107681616D01*
D10*
X88889029Y-117685017D02*
X88936648Y-117556446D01*
X88936648Y-117342160D01*
X88889029Y-117256446D01*
X88841410Y-117213589D01*
X88746172Y-117170732D01*
X88650934Y-117170732D01*
X88555696Y-117213589D01*
X88508077Y-117256446D01*
X88460458Y-117342160D01*
X88412839Y-117513589D01*
X88365220Y-117599303D01*
X88317601Y-117642160D01*
X88222363Y-117685017D01*
X88127125Y-117685017D01*
X88031887Y-117642160D01*
X87984268Y-117599303D01*
X87936648Y-117513589D01*
X87936648Y-117299303D01*
X87984268Y-117170732D01*
X88936648Y-116785017D02*
X87936648Y-116785017D01*
X88412839Y-116785017D02*
X88412839Y-116270732D01*
X88936648Y-116270732D02*
X87936648Y-116270732D01*
X88412839Y-115842160D02*
X88412839Y-115542160D01*
X88936648Y-115413589D02*
X88936648Y-115842160D01*
X87936648Y-115842160D01*
X87936648Y-115413589D01*
X88936648Y-115027874D02*
X87936648Y-115027874D01*
X88936648Y-114170732D02*
X88936648Y-114599303D01*
X87936648Y-114599303D01*
X88936648Y-113870732D02*
X87936648Y-113870732D01*
X87936648Y-113656446D01*
X87984268Y-113527874D01*
X88079506Y-113442160D01*
X88174744Y-113399303D01*
X88365220Y-113356446D01*
X88508077Y-113356446D01*
X88698553Y-113399303D01*
X88793791Y-113442160D01*
X88889029Y-113527874D01*
X88936648Y-113656446D01*
X88936648Y-113870732D01*
X58421961Y-73732636D02*
X58374341Y-73827874D01*
X58374341Y-73970732D01*
X58421961Y-74113589D01*
X58517199Y-74208827D01*
X58612437Y-74256446D01*
X58802913Y-74304065D01*
X58945770Y-74304065D01*
X59136246Y-74256446D01*
X59231484Y-74208827D01*
X59326722Y-74113589D01*
X59374341Y-73970732D01*
X59374341Y-73875493D01*
X59326722Y-73732636D01*
X59279103Y-73685017D01*
X58945770Y-73685017D01*
X58945770Y-73875493D01*
X59374341Y-73256446D02*
X58374341Y-73256446D01*
X59374341Y-72685017D01*
X58374341Y-72685017D01*
X59374341Y-72208827D02*
X58374341Y-72208827D01*
X58374341Y-71970732D01*
X58421961Y-71827874D01*
X58517199Y-71732636D01*
X58612437Y-71685017D01*
X58802913Y-71637398D01*
X58945770Y-71637398D01*
X59136246Y-71685017D01*
X59231484Y-71732636D01*
X59326722Y-71827874D01*
X59374341Y-71970732D01*
X59374341Y-72208827D01*
X88901722Y-75925017D02*
X88949341Y-75796446D01*
X88949341Y-75582160D01*
X88901722Y-75496446D01*
X88854103Y-75453589D01*
X88758865Y-75410732D01*
X88663627Y-75410732D01*
X88568389Y-75453589D01*
X88520770Y-75496446D01*
X88473151Y-75582160D01*
X88425532Y-75753589D01*
X88377913Y-75839303D01*
X88330294Y-75882160D01*
X88235056Y-75925017D01*
X88139818Y-75925017D01*
X88044580Y-75882160D01*
X87996961Y-75839303D01*
X87949341Y-75753589D01*
X87949341Y-75539303D01*
X87996961Y-75410732D01*
X88949341Y-75025017D02*
X87949341Y-75025017D01*
X88425532Y-75025017D02*
X88425532Y-74510732D01*
X88949341Y-74510732D02*
X87949341Y-74510732D01*
X88425532Y-74082160D02*
X88425532Y-73782160D01*
X88949341Y-73653589D02*
X88949341Y-74082160D01*
X87949341Y-74082160D01*
X87949341Y-73653589D01*
X88949341Y-73267874D02*
X87949341Y-73267874D01*
X88949341Y-72410732D02*
X88949341Y-72839303D01*
X87949341Y-72839303D01*
X88949341Y-72110732D02*
X87949341Y-72110732D01*
X87949341Y-71896446D01*
X87996961Y-71767874D01*
X88092199Y-71682160D01*
X88187437Y-71639303D01*
X88377913Y-71596446D01*
X88520770Y-71596446D01*
X88711246Y-71639303D01*
X88806484Y-71682160D01*
X88901722Y-71767874D01*
X88949341Y-71896446D01*
X88949341Y-72110732D01*
D14*
X119598243Y-108424473D02*
X120741100Y-108424473D01*
X119369671Y-109167330D02*
X120169671Y-106567330D01*
X120969671Y-109167330D01*
X123141100Y-109167330D02*
X122341100Y-107929235D01*
X121769671Y-109167330D02*
X121769671Y-106567330D01*
X122683957Y-106567330D01*
X122912528Y-106691140D01*
X123026814Y-106814949D01*
X123141100Y-107062568D01*
X123141100Y-107433997D01*
X123026814Y-107681616D01*
X122912528Y-107805425D01*
X122683957Y-107929235D01*
X121769671Y-107929235D01*
X125198243Y-107433997D02*
X125198243Y-109167330D01*
X124626814Y-106443520D02*
X124055385Y-108300663D01*
X125541100Y-108300663D01*
X126798243Y-107681616D02*
X126569671Y-107557806D01*
X126455385Y-107433997D01*
X126341100Y-107186378D01*
X126341100Y-107062568D01*
X126455385Y-106814949D01*
X126569671Y-106691140D01*
X126798243Y-106567330D01*
X127255385Y-106567330D01*
X127483957Y-106691140D01*
X127598243Y-106814949D01*
X127712528Y-107062568D01*
X127712528Y-107186378D01*
X127598243Y-107433997D01*
X127483957Y-107557806D01*
X127255385Y-107681616D01*
X126798243Y-107681616D01*
X126569671Y-107805425D01*
X126455385Y-107929235D01*
X126341100Y-108176854D01*
X126341100Y-108672092D01*
X126455385Y-108919711D01*
X126569671Y-109043520D01*
X126798243Y-109167330D01*
X127255385Y-109167330D01*
X127483957Y-109043520D01*
X127598243Y-108919711D01*
X127712528Y-108672092D01*
X127712528Y-108176854D01*
X127598243Y-107929235D01*
X127483957Y-107805425D01*
X127255385Y-107681616D01*
X129083957Y-107681616D02*
X128855385Y-107557806D01*
X128741100Y-107433997D01*
X128626814Y-107186378D01*
X128626814Y-107062568D01*
X128741100Y-106814949D01*
X128855385Y-106691140D01*
X129083957Y-106567330D01*
X129541100Y-106567330D01*
X129769671Y-106691140D01*
X129883957Y-106814949D01*
X129998243Y-107062568D01*
X129998243Y-107186378D01*
X129883957Y-107433997D01*
X129769671Y-107557806D01*
X129541100Y-107681616D01*
X129083957Y-107681616D01*
X128855385Y-107805425D01*
X128741100Y-107929235D01*
X128626814Y-108176854D01*
X128626814Y-108672092D01*
X128741100Y-108919711D01*
X128855385Y-109043520D01*
X129083957Y-109167330D01*
X129541100Y-109167330D01*
X129769671Y-109043520D01*
X129883957Y-108919711D01*
X129998243Y-108672092D01*
X129998243Y-108176854D01*
X129883957Y-107929235D01*
X129769671Y-107805425D01*
X129541100Y-107681616D01*
X78810936Y-66664473D02*
X79953793Y-66664473D01*
X78582364Y-67407330D02*
X79382364Y-64807330D01*
X80182364Y-67407330D01*
X82353793Y-67407330D02*
X81553793Y-66169235D01*
X80982364Y-67407330D02*
X80982364Y-64807330D01*
X81896650Y-64807330D01*
X82125221Y-64931140D01*
X82239507Y-65054949D01*
X82353793Y-65302568D01*
X82353793Y-65673997D01*
X82239507Y-65921616D01*
X82125221Y-66045425D01*
X81896650Y-66169235D01*
X80982364Y-66169235D01*
X84410936Y-65673997D02*
X84410936Y-67407330D01*
X83839507Y-64683520D02*
X83268078Y-66540663D01*
X84753793Y-66540663D01*
X86010936Y-65921616D02*
X85782364Y-65797806D01*
X85668078Y-65673997D01*
X85553793Y-65426378D01*
X85553793Y-65302568D01*
X85668078Y-65054949D01*
X85782364Y-64931140D01*
X86010936Y-64807330D01*
X86468078Y-64807330D01*
X86696650Y-64931140D01*
X86810936Y-65054949D01*
X86925221Y-65302568D01*
X86925221Y-65426378D01*
X86810936Y-65673997D01*
X86696650Y-65797806D01*
X86468078Y-65921616D01*
X86010936Y-65921616D01*
X85782364Y-66045425D01*
X85668078Y-66169235D01*
X85553793Y-66416854D01*
X85553793Y-66912092D01*
X85668078Y-67159711D01*
X85782364Y-67283520D01*
X86010936Y-67407330D01*
X86468078Y-67407330D01*
X86696650Y-67283520D01*
X86810936Y-67159711D01*
X86925221Y-66912092D01*
X86925221Y-66416854D01*
X86810936Y-66169235D01*
X86696650Y-66045425D01*
X86468078Y-65921616D01*
X88296650Y-65921616D02*
X88068078Y-65797806D01*
X87953793Y-65673997D01*
X87839507Y-65426378D01*
X87839507Y-65302568D01*
X87953793Y-65054949D01*
X88068078Y-64931140D01*
X88296650Y-64807330D01*
X88753793Y-64807330D01*
X88982364Y-64931140D01*
X89096650Y-65054949D01*
X89210936Y-65302568D01*
X89210936Y-65426378D01*
X89096650Y-65673997D01*
X88982364Y-65797806D01*
X88753793Y-65921616D01*
X88296650Y-65921616D01*
X88068078Y-66045425D01*
X87953793Y-66169235D01*
X87839507Y-66416854D01*
X87839507Y-66912092D01*
X87953793Y-67159711D01*
X88068078Y-67283520D01*
X88296650Y-67407330D01*
X88753793Y-67407330D01*
X88982364Y-67283520D01*
X89096650Y-67159711D01*
X89210936Y-66912092D01*
X89210936Y-66416854D01*
X89096650Y-66169235D01*
X88982364Y-66045425D01*
X88753793Y-65921616D01*
D13*
X79040696Y-138901803D02*
X79040696Y-140401803D01*
X79040696Y-138973232D02*
X79183553Y-138901803D01*
X79469268Y-138901803D01*
X79612125Y-138973232D01*
X79683553Y-139044660D01*
X79754982Y-139187517D01*
X79754982Y-139616089D01*
X79683553Y-139758946D01*
X79612125Y-139830374D01*
X79469268Y-139901803D01*
X79183553Y-139901803D01*
X79040696Y-139830374D01*
X80397839Y-139901803D02*
X80397839Y-138901803D01*
X80397839Y-139187517D02*
X80469268Y-139044660D01*
X80540696Y-138973232D01*
X80683553Y-138901803D01*
X80826410Y-138901803D01*
X81540696Y-139901803D02*
X81397839Y-139830374D01*
X81326410Y-139758946D01*
X81254982Y-139616089D01*
X81254982Y-139187517D01*
X81326410Y-139044660D01*
X81397839Y-138973232D01*
X81540696Y-138901803D01*
X81754982Y-138901803D01*
X81897839Y-138973232D01*
X81969268Y-139044660D01*
X82040696Y-139187517D01*
X82040696Y-139616089D01*
X81969268Y-139758946D01*
X81897839Y-139830374D01*
X81754982Y-139901803D01*
X81540696Y-139901803D01*
X83826410Y-139901803D02*
X83826410Y-138901803D01*
X83826410Y-139044660D02*
X83897839Y-138973232D01*
X84040696Y-138901803D01*
X84254982Y-138901803D01*
X84397839Y-138973232D01*
X84469268Y-139116089D01*
X84469268Y-139901803D01*
X84469268Y-139116089D02*
X84540696Y-138973232D01*
X84683553Y-138901803D01*
X84897839Y-138901803D01*
X85040696Y-138973232D01*
X85112125Y-139116089D01*
X85112125Y-139901803D01*
X85826410Y-139901803D02*
X85826410Y-138901803D01*
X85826410Y-138401803D02*
X85754982Y-138473232D01*
X85826410Y-138544660D01*
X85897839Y-138473232D01*
X85826410Y-138401803D01*
X85826410Y-138544660D01*
X87183553Y-139830374D02*
X87040696Y-139901803D01*
X86754982Y-139901803D01*
X86612125Y-139830374D01*
X86540696Y-139758946D01*
X86469268Y-139616089D01*
X86469268Y-139187517D01*
X86540696Y-139044660D01*
X86612125Y-138973232D01*
X86754982Y-138901803D01*
X87040696Y-138901803D01*
X87183553Y-138973232D01*
X87826410Y-139901803D02*
X87826410Y-138901803D01*
X87826410Y-139187517D02*
X87897839Y-139044660D01*
X87969268Y-138973232D01*
X88112125Y-138901803D01*
X88254982Y-138901803D01*
X88969268Y-139901803D02*
X88826410Y-139830374D01*
X88754982Y-139758946D01*
X88683553Y-139616089D01*
X88683553Y-139187517D01*
X88754982Y-139044660D01*
X88826410Y-138973232D01*
X88969268Y-138901803D01*
X89183553Y-138901803D01*
X89326410Y-138973232D01*
X89397839Y-139044660D01*
X89469268Y-139187517D01*
X89469268Y-139616089D01*
X89397839Y-139758946D01*
X89326410Y-139830374D01*
X89183553Y-139901803D01*
X88969268Y-139901803D01*
X81504982Y-140816803D02*
X82433553Y-140816803D01*
X81933553Y-141388232D01*
X82147839Y-141388232D01*
X82290696Y-141459660D01*
X82362125Y-141531089D01*
X82433553Y-141673946D01*
X82433553Y-142031089D01*
X82362125Y-142173946D01*
X82290696Y-142245374D01*
X82147839Y-142316803D01*
X81719268Y-142316803D01*
X81576410Y-142245374D01*
X81504982Y-142173946D01*
X83004982Y-140959660D02*
X83076410Y-140888232D01*
X83219268Y-140816803D01*
X83576410Y-140816803D01*
X83719268Y-140888232D01*
X83790696Y-140959660D01*
X83862125Y-141102517D01*
X83862125Y-141245374D01*
X83790696Y-141459660D01*
X82933553Y-142316803D01*
X83862125Y-142316803D01*
X84504982Y-140816803D02*
X84504982Y-142031089D01*
X84576410Y-142173946D01*
X84647839Y-142245374D01*
X84790696Y-142316803D01*
X85076410Y-142316803D01*
X85219268Y-142245374D01*
X85290696Y-142173946D01*
X85362125Y-142031089D01*
X85362125Y-140816803D01*
X86719268Y-141316803D02*
X86719268Y-142316803D01*
X86362125Y-140745374D02*
X86004982Y-141816803D01*
X86933553Y-141816803D01*
D10*
X58409268Y-115492636D02*
X58361648Y-115587874D01*
X58361648Y-115730732D01*
X58409268Y-115873589D01*
X58504506Y-115968827D01*
X58599744Y-116016446D01*
X58790220Y-116064065D01*
X58933077Y-116064065D01*
X59123553Y-116016446D01*
X59218791Y-115968827D01*
X59314029Y-115873589D01*
X59361648Y-115730732D01*
X59361648Y-115635493D01*
X59314029Y-115492636D01*
X59266410Y-115445017D01*
X58933077Y-115445017D01*
X58933077Y-115635493D01*
X59361648Y-115016446D02*
X58361648Y-115016446D01*
X59361648Y-114445017D01*
X58361648Y-114445017D01*
X59361648Y-113968827D02*
X58361648Y-113968827D01*
X58361648Y-113730732D01*
X58409268Y-113587874D01*
X58504506Y-113492636D01*
X58599744Y-113445017D01*
X58790220Y-113397398D01*
X58933077Y-113397398D01*
X59123553Y-113445017D01*
X59218791Y-113492636D01*
X59314029Y-113587874D01*
X59361648Y-113730732D01*
X59361648Y-113968827D01*
D13*
X99440696Y-138901803D02*
X99440696Y-140401803D01*
X99440696Y-138973232D02*
X99583553Y-138901803D01*
X99869268Y-138901803D01*
X100012125Y-138973232D01*
X100083553Y-139044660D01*
X100154982Y-139187517D01*
X100154982Y-139616089D01*
X100083553Y-139758946D01*
X100012125Y-139830374D01*
X99869268Y-139901803D01*
X99583553Y-139901803D01*
X99440696Y-139830374D01*
X100797839Y-139901803D02*
X100797839Y-138901803D01*
X100797839Y-139187517D02*
X100869268Y-139044660D01*
X100940696Y-138973232D01*
X101083553Y-138901803D01*
X101226410Y-138901803D01*
X101940696Y-139901803D02*
X101797839Y-139830374D01*
X101726410Y-139758946D01*
X101654982Y-139616089D01*
X101654982Y-139187517D01*
X101726410Y-139044660D01*
X101797839Y-138973232D01*
X101940696Y-138901803D01*
X102154982Y-138901803D01*
X102297839Y-138973232D01*
X102369268Y-139044660D01*
X102440696Y-139187517D01*
X102440696Y-139616089D01*
X102369268Y-139758946D01*
X102297839Y-139830374D01*
X102154982Y-139901803D01*
X101940696Y-139901803D01*
X104226410Y-139901803D02*
X104226410Y-138901803D01*
X104226410Y-139044660D02*
X104297839Y-138973232D01*
X104440696Y-138901803D01*
X104654982Y-138901803D01*
X104797839Y-138973232D01*
X104869268Y-139116089D01*
X104869268Y-139901803D01*
X104869268Y-139116089D02*
X104940696Y-138973232D01*
X105083553Y-138901803D01*
X105297839Y-138901803D01*
X105440696Y-138973232D01*
X105512125Y-139116089D01*
X105512125Y-139901803D01*
X106226410Y-139901803D02*
X106226410Y-138901803D01*
X106226410Y-138401803D02*
X106154982Y-138473232D01*
X106226410Y-138544660D01*
X106297839Y-138473232D01*
X106226410Y-138401803D01*
X106226410Y-138544660D01*
X107583553Y-139830374D02*
X107440696Y-139901803D01*
X107154982Y-139901803D01*
X107012125Y-139830374D01*
X106940696Y-139758946D01*
X106869268Y-139616089D01*
X106869268Y-139187517D01*
X106940696Y-139044660D01*
X107012125Y-138973232D01*
X107154982Y-138901803D01*
X107440696Y-138901803D01*
X107583553Y-138973232D01*
X108226410Y-139901803D02*
X108226410Y-138901803D01*
X108226410Y-139187517D02*
X108297839Y-139044660D01*
X108369268Y-138973232D01*
X108512125Y-138901803D01*
X108654982Y-138901803D01*
X109369268Y-139901803D02*
X109226410Y-139830374D01*
X109154982Y-139758946D01*
X109083553Y-139616089D01*
X109083553Y-139187517D01*
X109154982Y-139044660D01*
X109226410Y-138973232D01*
X109369268Y-138901803D01*
X109583553Y-138901803D01*
X109726410Y-138973232D01*
X109797839Y-139044660D01*
X109869268Y-139187517D01*
X109869268Y-139616089D01*
X109797839Y-139758946D01*
X109726410Y-139830374D01*
X109583553Y-139901803D01*
X109369268Y-139901803D01*
X101904982Y-140816803D02*
X102833553Y-140816803D01*
X102333553Y-141388232D01*
X102547839Y-141388232D01*
X102690696Y-141459660D01*
X102762125Y-141531089D01*
X102833553Y-141673946D01*
X102833553Y-142031089D01*
X102762125Y-142173946D01*
X102690696Y-142245374D01*
X102547839Y-142316803D01*
X102119268Y-142316803D01*
X101976410Y-142245374D01*
X101904982Y-142173946D01*
X103404982Y-140959660D02*
X103476410Y-140888232D01*
X103619268Y-140816803D01*
X103976410Y-140816803D01*
X104119268Y-140888232D01*
X104190696Y-140959660D01*
X104262125Y-141102517D01*
X104262125Y-141245374D01*
X104190696Y-141459660D01*
X103333553Y-142316803D01*
X104262125Y-142316803D01*
X104904982Y-140816803D02*
X104904982Y-142031089D01*
X104976410Y-142173946D01*
X105047839Y-142245374D01*
X105190696Y-142316803D01*
X105476410Y-142316803D01*
X105619268Y-142245374D01*
X105690696Y-142173946D01*
X105762125Y-142031089D01*
X105762125Y-140816803D01*
X107119268Y-141316803D02*
X107119268Y-142316803D01*
X106762125Y-140745374D02*
X106404982Y-141816803D01*
X107333553Y-141816803D01*
D10*
X78821961Y-73732636D02*
X78774341Y-73827874D01*
X78774341Y-73970732D01*
X78821961Y-74113589D01*
X78917199Y-74208827D01*
X79012437Y-74256446D01*
X79202913Y-74304065D01*
X79345770Y-74304065D01*
X79536246Y-74256446D01*
X79631484Y-74208827D01*
X79726722Y-74113589D01*
X79774341Y-73970732D01*
X79774341Y-73875493D01*
X79726722Y-73732636D01*
X79679103Y-73685017D01*
X79345770Y-73685017D01*
X79345770Y-73875493D01*
X79774341Y-73256446D02*
X78774341Y-73256446D01*
X79774341Y-72685017D01*
X78774341Y-72685017D01*
X79774341Y-72208827D02*
X78774341Y-72208827D01*
X78774341Y-71970732D01*
X78821961Y-71827874D01*
X78917199Y-71732636D01*
X79012437Y-71685017D01*
X79202913Y-71637398D01*
X79345770Y-71637398D01*
X79536246Y-71685017D01*
X79631484Y-71732636D01*
X79726722Y-71827874D01*
X79774341Y-71970732D01*
X79774341Y-72208827D01*
X68501722Y-75925017D02*
X68549341Y-75796446D01*
X68549341Y-75582160D01*
X68501722Y-75496446D01*
X68454103Y-75453589D01*
X68358865Y-75410732D01*
X68263627Y-75410732D01*
X68168389Y-75453589D01*
X68120770Y-75496446D01*
X68073151Y-75582160D01*
X68025532Y-75753589D01*
X67977913Y-75839303D01*
X67930294Y-75882160D01*
X67835056Y-75925017D01*
X67739818Y-75925017D01*
X67644580Y-75882160D01*
X67596961Y-75839303D01*
X67549341Y-75753589D01*
X67549341Y-75539303D01*
X67596961Y-75410732D01*
X68549341Y-75025017D02*
X67549341Y-75025017D01*
X68025532Y-75025017D02*
X68025532Y-74510732D01*
X68549341Y-74510732D02*
X67549341Y-74510732D01*
X68025532Y-74082160D02*
X68025532Y-73782160D01*
X68549341Y-73653589D02*
X68549341Y-74082160D01*
X67549341Y-74082160D01*
X67549341Y-73653589D01*
X68549341Y-73267874D02*
X67549341Y-73267874D01*
X68549341Y-72410732D02*
X68549341Y-72839303D01*
X67549341Y-72839303D01*
X68549341Y-72110732D02*
X67549341Y-72110732D01*
X67549341Y-71896446D01*
X67596961Y-71767874D01*
X67692199Y-71682160D01*
X67787437Y-71639303D01*
X67977913Y-71596446D01*
X68120770Y-71596446D01*
X68311246Y-71639303D01*
X68406484Y-71682160D01*
X68501722Y-71767874D01*
X68549341Y-71896446D01*
X68549341Y-72110732D01*
X119621961Y-73732636D02*
X119574341Y-73827874D01*
X119574341Y-73970732D01*
X119621961Y-74113589D01*
X119717199Y-74208827D01*
X119812437Y-74256446D01*
X120002913Y-74304065D01*
X120145770Y-74304065D01*
X120336246Y-74256446D01*
X120431484Y-74208827D01*
X120526722Y-74113589D01*
X120574341Y-73970732D01*
X120574341Y-73875493D01*
X120526722Y-73732636D01*
X120479103Y-73685017D01*
X120145770Y-73685017D01*
X120145770Y-73875493D01*
X120574341Y-73256446D02*
X119574341Y-73256446D01*
X120574341Y-72685017D01*
X119574341Y-72685017D01*
X120574341Y-72208827D02*
X119574341Y-72208827D01*
X119574341Y-71970732D01*
X119621961Y-71827874D01*
X119717199Y-71732636D01*
X119812437Y-71685017D01*
X120002913Y-71637398D01*
X120145770Y-71637398D01*
X120336246Y-71685017D01*
X120431484Y-71732636D01*
X120526722Y-71827874D01*
X120574341Y-71970732D01*
X120574341Y-72208827D01*
D13*
X58640696Y-138901803D02*
X58640696Y-140401803D01*
X58640696Y-138973232D02*
X58783553Y-138901803D01*
X59069268Y-138901803D01*
X59212125Y-138973232D01*
X59283553Y-139044660D01*
X59354982Y-139187517D01*
X59354982Y-139616089D01*
X59283553Y-139758946D01*
X59212125Y-139830374D01*
X59069268Y-139901803D01*
X58783553Y-139901803D01*
X58640696Y-139830374D01*
X59997839Y-139901803D02*
X59997839Y-138901803D01*
X59997839Y-139187517D02*
X60069268Y-139044660D01*
X60140696Y-138973232D01*
X60283553Y-138901803D01*
X60426410Y-138901803D01*
X61140696Y-139901803D02*
X60997839Y-139830374D01*
X60926410Y-139758946D01*
X60854982Y-139616089D01*
X60854982Y-139187517D01*
X60926410Y-139044660D01*
X60997839Y-138973232D01*
X61140696Y-138901803D01*
X61354982Y-138901803D01*
X61497839Y-138973232D01*
X61569268Y-139044660D01*
X61640696Y-139187517D01*
X61640696Y-139616089D01*
X61569268Y-139758946D01*
X61497839Y-139830374D01*
X61354982Y-139901803D01*
X61140696Y-139901803D01*
X63426410Y-139901803D02*
X63426410Y-138901803D01*
X63426410Y-139044660D02*
X63497839Y-138973232D01*
X63640696Y-138901803D01*
X63854982Y-138901803D01*
X63997839Y-138973232D01*
X64069268Y-139116089D01*
X64069268Y-139901803D01*
X64069268Y-139116089D02*
X64140696Y-138973232D01*
X64283553Y-138901803D01*
X64497839Y-138901803D01*
X64640696Y-138973232D01*
X64712125Y-139116089D01*
X64712125Y-139901803D01*
X65426410Y-139901803D02*
X65426410Y-138901803D01*
X65426410Y-138401803D02*
X65354982Y-138473232D01*
X65426410Y-138544660D01*
X65497839Y-138473232D01*
X65426410Y-138401803D01*
X65426410Y-138544660D01*
X66783553Y-139830374D02*
X66640696Y-139901803D01*
X66354982Y-139901803D01*
X66212125Y-139830374D01*
X66140696Y-139758946D01*
X66069268Y-139616089D01*
X66069268Y-139187517D01*
X66140696Y-139044660D01*
X66212125Y-138973232D01*
X66354982Y-138901803D01*
X66640696Y-138901803D01*
X66783553Y-138973232D01*
X67426410Y-139901803D02*
X67426410Y-138901803D01*
X67426410Y-139187517D02*
X67497839Y-139044660D01*
X67569268Y-138973232D01*
X67712125Y-138901803D01*
X67854982Y-138901803D01*
X68569268Y-139901803D02*
X68426410Y-139830374D01*
X68354982Y-139758946D01*
X68283553Y-139616089D01*
X68283553Y-139187517D01*
X68354982Y-139044660D01*
X68426410Y-138973232D01*
X68569268Y-138901803D01*
X68783553Y-138901803D01*
X68926410Y-138973232D01*
X68997839Y-139044660D01*
X69069268Y-139187517D01*
X69069268Y-139616089D01*
X68997839Y-139758946D01*
X68926410Y-139830374D01*
X68783553Y-139901803D01*
X68569268Y-139901803D01*
X61104982Y-140816803D02*
X62033553Y-140816803D01*
X61533553Y-141388232D01*
X61747839Y-141388232D01*
X61890696Y-141459660D01*
X61962125Y-141531089D01*
X62033553Y-141673946D01*
X62033553Y-142031089D01*
X61962125Y-142173946D01*
X61890696Y-142245374D01*
X61747839Y-142316803D01*
X61319268Y-142316803D01*
X61176410Y-142245374D01*
X61104982Y-142173946D01*
X62604982Y-140959660D02*
X62676410Y-140888232D01*
X62819268Y-140816803D01*
X63176410Y-140816803D01*
X63319268Y-140888232D01*
X63390696Y-140959660D01*
X63462125Y-141102517D01*
X63462125Y-141245374D01*
X63390696Y-141459660D01*
X62533553Y-142316803D01*
X63462125Y-142316803D01*
X64104982Y-140816803D02*
X64104982Y-142031089D01*
X64176410Y-142173946D01*
X64247839Y-142245374D01*
X64390696Y-142316803D01*
X64676410Y-142316803D01*
X64819268Y-142245374D01*
X64890696Y-142173946D01*
X64962125Y-142031089D01*
X64962125Y-140816803D01*
X66319268Y-141316803D02*
X66319268Y-142316803D01*
X65962125Y-140745374D02*
X65604982Y-141816803D01*
X66533553Y-141816803D01*
D14*
X140010936Y-66664473D02*
X141153793Y-66664473D01*
X139782364Y-67407330D02*
X140582364Y-64807330D01*
X141382364Y-67407330D01*
X143553793Y-67407330D02*
X142753793Y-66169235D01*
X142182364Y-67407330D02*
X142182364Y-64807330D01*
X143096650Y-64807330D01*
X143325221Y-64931140D01*
X143439507Y-65054949D01*
X143553793Y-65302568D01*
X143553793Y-65673997D01*
X143439507Y-65921616D01*
X143325221Y-66045425D01*
X143096650Y-66169235D01*
X142182364Y-66169235D01*
X145610936Y-65673997D02*
X145610936Y-67407330D01*
X145039507Y-64683520D02*
X144468078Y-66540663D01*
X145953793Y-66540663D01*
X147210936Y-65921616D02*
X146982364Y-65797806D01*
X146868078Y-65673997D01*
X146753793Y-65426378D01*
X146753793Y-65302568D01*
X146868078Y-65054949D01*
X146982364Y-64931140D01*
X147210936Y-64807330D01*
X147668078Y-64807330D01*
X147896650Y-64931140D01*
X148010936Y-65054949D01*
X148125221Y-65302568D01*
X148125221Y-65426378D01*
X148010936Y-65673997D01*
X147896650Y-65797806D01*
X147668078Y-65921616D01*
X147210936Y-65921616D01*
X146982364Y-66045425D01*
X146868078Y-66169235D01*
X146753793Y-66416854D01*
X146753793Y-66912092D01*
X146868078Y-67159711D01*
X146982364Y-67283520D01*
X147210936Y-67407330D01*
X147668078Y-67407330D01*
X147896650Y-67283520D01*
X148010936Y-67159711D01*
X148125221Y-66912092D01*
X148125221Y-66416854D01*
X148010936Y-66169235D01*
X147896650Y-66045425D01*
X147668078Y-65921616D01*
X149496650Y-65921616D02*
X149268078Y-65797806D01*
X149153793Y-65673997D01*
X149039507Y-65426378D01*
X149039507Y-65302568D01*
X149153793Y-65054949D01*
X149268078Y-64931140D01*
X149496650Y-64807330D01*
X149953793Y-64807330D01*
X150182364Y-64931140D01*
X150296650Y-65054949D01*
X150410936Y-65302568D01*
X150410936Y-65426378D01*
X150296650Y-65673997D01*
X150182364Y-65797806D01*
X149953793Y-65921616D01*
X149496650Y-65921616D01*
X149268078Y-66045425D01*
X149153793Y-66169235D01*
X149039507Y-66416854D01*
X149039507Y-66912092D01*
X149153793Y-67159711D01*
X149268078Y-67283520D01*
X149496650Y-67407330D01*
X149953793Y-67407330D01*
X150182364Y-67283520D01*
X150296650Y-67159711D01*
X150410936Y-66912092D01*
X150410936Y-66416854D01*
X150296650Y-66169235D01*
X150182364Y-66045425D01*
X149953793Y-65921616D01*
D10*
X140021961Y-73732636D02*
X139974341Y-73827874D01*
X139974341Y-73970732D01*
X140021961Y-74113589D01*
X140117199Y-74208827D01*
X140212437Y-74256446D01*
X140402913Y-74304065D01*
X140545770Y-74304065D01*
X140736246Y-74256446D01*
X140831484Y-74208827D01*
X140926722Y-74113589D01*
X140974341Y-73970732D01*
X140974341Y-73875493D01*
X140926722Y-73732636D01*
X140879103Y-73685017D01*
X140545770Y-73685017D01*
X140545770Y-73875493D01*
X140974341Y-73256446D02*
X139974341Y-73256446D01*
X140974341Y-72685017D01*
X139974341Y-72685017D01*
X140974341Y-72208827D02*
X139974341Y-72208827D01*
X139974341Y-71970732D01*
X140021961Y-71827874D01*
X140117199Y-71732636D01*
X140212437Y-71685017D01*
X140402913Y-71637398D01*
X140545770Y-71637398D01*
X140736246Y-71685017D01*
X140831484Y-71732636D01*
X140926722Y-71827874D01*
X140974341Y-71970732D01*
X140974341Y-72208827D01*
X150089029Y-117685017D02*
X150136648Y-117556446D01*
X150136648Y-117342160D01*
X150089029Y-117256446D01*
X150041410Y-117213589D01*
X149946172Y-117170732D01*
X149850934Y-117170732D01*
X149755696Y-117213589D01*
X149708077Y-117256446D01*
X149660458Y-117342160D01*
X149612839Y-117513589D01*
X149565220Y-117599303D01*
X149517601Y-117642160D01*
X149422363Y-117685017D01*
X149327125Y-117685017D01*
X149231887Y-117642160D01*
X149184268Y-117599303D01*
X149136648Y-117513589D01*
X149136648Y-117299303D01*
X149184268Y-117170732D01*
X150136648Y-116785017D02*
X149136648Y-116785017D01*
X149612839Y-116785017D02*
X149612839Y-116270732D01*
X150136648Y-116270732D02*
X149136648Y-116270732D01*
X149612839Y-115842160D02*
X149612839Y-115542160D01*
X150136648Y-115413589D02*
X150136648Y-115842160D01*
X149136648Y-115842160D01*
X149136648Y-115413589D01*
X150136648Y-115027874D02*
X149136648Y-115027874D01*
X150136648Y-114170732D02*
X150136648Y-114599303D01*
X149136648Y-114599303D01*
X150136648Y-113870732D02*
X149136648Y-113870732D01*
X149136648Y-113656446D01*
X149184268Y-113527874D01*
X149279506Y-113442160D01*
X149374744Y-113399303D01*
X149565220Y-113356446D01*
X149708077Y-113356446D01*
X149898553Y-113399303D01*
X149993791Y-113442160D01*
X150089029Y-113527874D01*
X150136648Y-113656446D01*
X150136648Y-113870732D01*
X78809268Y-115492636D02*
X78761648Y-115587874D01*
X78761648Y-115730732D01*
X78809268Y-115873589D01*
X78904506Y-115968827D01*
X78999744Y-116016446D01*
X79190220Y-116064065D01*
X79333077Y-116064065D01*
X79523553Y-116016446D01*
X79618791Y-115968827D01*
X79714029Y-115873589D01*
X79761648Y-115730732D01*
X79761648Y-115635493D01*
X79714029Y-115492636D01*
X79666410Y-115445017D01*
X79333077Y-115445017D01*
X79333077Y-115635493D01*
X79761648Y-115016446D02*
X78761648Y-115016446D01*
X79761648Y-114445017D01*
X78761648Y-114445017D01*
X79761648Y-113968827D02*
X78761648Y-113968827D01*
X78761648Y-113730732D01*
X78809268Y-113587874D01*
X78904506Y-113492636D01*
X78999744Y-113445017D01*
X79190220Y-113397398D01*
X79333077Y-113397398D01*
X79523553Y-113445017D01*
X79618791Y-113492636D01*
X79714029Y-113587874D01*
X79761648Y-113730732D01*
X79761648Y-113968827D01*
X119609268Y-115492636D02*
X119561648Y-115587874D01*
X119561648Y-115730732D01*
X119609268Y-115873589D01*
X119704506Y-115968827D01*
X119799744Y-116016446D01*
X119990220Y-116064065D01*
X120133077Y-116064065D01*
X120323553Y-116016446D01*
X120418791Y-115968827D01*
X120514029Y-115873589D01*
X120561648Y-115730732D01*
X120561648Y-115635493D01*
X120514029Y-115492636D01*
X120466410Y-115445017D01*
X120133077Y-115445017D01*
X120133077Y-115635493D01*
X120561648Y-115016446D02*
X119561648Y-115016446D01*
X120561648Y-114445017D01*
X119561648Y-114445017D01*
X120561648Y-113968827D02*
X119561648Y-113968827D01*
X119561648Y-113730732D01*
X119609268Y-113587874D01*
X119704506Y-113492636D01*
X119799744Y-113445017D01*
X119990220Y-113397398D01*
X120133077Y-113397398D01*
X120323553Y-113445017D01*
X120418791Y-113492636D01*
X120514029Y-113587874D01*
X120561648Y-113730732D01*
X120561648Y-113968827D01*
D13*
X58653389Y-97141803D02*
X58653389Y-98641803D01*
X58653389Y-97213232D02*
X58796246Y-97141803D01*
X59081961Y-97141803D01*
X59224818Y-97213232D01*
X59296246Y-97284660D01*
X59367675Y-97427517D01*
X59367675Y-97856089D01*
X59296246Y-97998946D01*
X59224818Y-98070374D01*
X59081961Y-98141803D01*
X58796246Y-98141803D01*
X58653389Y-98070374D01*
X60010532Y-98141803D02*
X60010532Y-97141803D01*
X60010532Y-97427517D02*
X60081961Y-97284660D01*
X60153389Y-97213232D01*
X60296246Y-97141803D01*
X60439103Y-97141803D01*
X61153389Y-98141803D02*
X61010532Y-98070374D01*
X60939103Y-97998946D01*
X60867675Y-97856089D01*
X60867675Y-97427517D01*
X60939103Y-97284660D01*
X61010532Y-97213232D01*
X61153389Y-97141803D01*
X61367675Y-97141803D01*
X61510532Y-97213232D01*
X61581961Y-97284660D01*
X61653389Y-97427517D01*
X61653389Y-97856089D01*
X61581961Y-97998946D01*
X61510532Y-98070374D01*
X61367675Y-98141803D01*
X61153389Y-98141803D01*
X63439103Y-98141803D02*
X63439103Y-97141803D01*
X63439103Y-97284660D02*
X63510532Y-97213232D01*
X63653389Y-97141803D01*
X63867675Y-97141803D01*
X64010532Y-97213232D01*
X64081961Y-97356089D01*
X64081961Y-98141803D01*
X64081961Y-97356089D02*
X64153389Y-97213232D01*
X64296246Y-97141803D01*
X64510532Y-97141803D01*
X64653389Y-97213232D01*
X64724818Y-97356089D01*
X64724818Y-98141803D01*
X65439103Y-98141803D02*
X65439103Y-97141803D01*
X65439103Y-96641803D02*
X65367675Y-96713232D01*
X65439103Y-96784660D01*
X65510532Y-96713232D01*
X65439103Y-96641803D01*
X65439103Y-96784660D01*
X66796246Y-98070374D02*
X66653389Y-98141803D01*
X66367675Y-98141803D01*
X66224818Y-98070374D01*
X66153389Y-97998946D01*
X66081961Y-97856089D01*
X66081961Y-97427517D01*
X66153389Y-97284660D01*
X66224818Y-97213232D01*
X66367675Y-97141803D01*
X66653389Y-97141803D01*
X66796246Y-97213232D01*
X67439103Y-98141803D02*
X67439103Y-97141803D01*
X67439103Y-97427517D02*
X67510532Y-97284660D01*
X67581961Y-97213232D01*
X67724818Y-97141803D01*
X67867675Y-97141803D01*
X68581961Y-98141803D02*
X68439103Y-98070374D01*
X68367675Y-97998946D01*
X68296246Y-97856089D01*
X68296246Y-97427517D01*
X68367675Y-97284660D01*
X68439103Y-97213232D01*
X68581961Y-97141803D01*
X68796246Y-97141803D01*
X68939103Y-97213232D01*
X69010532Y-97284660D01*
X69081961Y-97427517D01*
X69081961Y-97856089D01*
X69010532Y-97998946D01*
X68939103Y-98070374D01*
X68796246Y-98141803D01*
X68581961Y-98141803D01*
X61117675Y-99056803D02*
X62046246Y-99056803D01*
X61546246Y-99628232D01*
X61760532Y-99628232D01*
X61903389Y-99699660D01*
X61974818Y-99771089D01*
X62046246Y-99913946D01*
X62046246Y-100271089D01*
X61974818Y-100413946D01*
X61903389Y-100485374D01*
X61760532Y-100556803D01*
X61331961Y-100556803D01*
X61189103Y-100485374D01*
X61117675Y-100413946D01*
X62617675Y-99199660D02*
X62689103Y-99128232D01*
X62831961Y-99056803D01*
X63189103Y-99056803D01*
X63331961Y-99128232D01*
X63403389Y-99199660D01*
X63474818Y-99342517D01*
X63474818Y-99485374D01*
X63403389Y-99699660D01*
X62546246Y-100556803D01*
X63474818Y-100556803D01*
X64117675Y-99056803D02*
X64117675Y-100271089D01*
X64189103Y-100413946D01*
X64260532Y-100485374D01*
X64403389Y-100556803D01*
X64689103Y-100556803D01*
X64831961Y-100485374D01*
X64903389Y-100413946D01*
X64974818Y-100271089D01*
X64974818Y-99056803D01*
X66331961Y-99556803D02*
X66331961Y-100556803D01*
X65974818Y-98985374D02*
X65617675Y-100056803D01*
X66546246Y-100056803D01*
X140253389Y-97141803D02*
X140253389Y-98641803D01*
X140253389Y-97213232D02*
X140396246Y-97141803D01*
X140681961Y-97141803D01*
X140824818Y-97213232D01*
X140896246Y-97284660D01*
X140967675Y-97427517D01*
X140967675Y-97856089D01*
X140896246Y-97998946D01*
X140824818Y-98070374D01*
X140681961Y-98141803D01*
X140396246Y-98141803D01*
X140253389Y-98070374D01*
X141610532Y-98141803D02*
X141610532Y-97141803D01*
X141610532Y-97427517D02*
X141681961Y-97284660D01*
X141753389Y-97213232D01*
X141896246Y-97141803D01*
X142039103Y-97141803D01*
X142753389Y-98141803D02*
X142610532Y-98070374D01*
X142539103Y-97998946D01*
X142467675Y-97856089D01*
X142467675Y-97427517D01*
X142539103Y-97284660D01*
X142610532Y-97213232D01*
X142753389Y-97141803D01*
X142967675Y-97141803D01*
X143110532Y-97213232D01*
X143181961Y-97284660D01*
X143253389Y-97427517D01*
X143253389Y-97856089D01*
X143181961Y-97998946D01*
X143110532Y-98070374D01*
X142967675Y-98141803D01*
X142753389Y-98141803D01*
X145039103Y-98141803D02*
X145039103Y-97141803D01*
X145039103Y-97284660D02*
X145110532Y-97213232D01*
X145253389Y-97141803D01*
X145467675Y-97141803D01*
X145610532Y-97213232D01*
X145681961Y-97356089D01*
X145681961Y-98141803D01*
X145681961Y-97356089D02*
X145753389Y-97213232D01*
X145896246Y-97141803D01*
X146110532Y-97141803D01*
X146253389Y-97213232D01*
X146324818Y-97356089D01*
X146324818Y-98141803D01*
X147039103Y-98141803D02*
X147039103Y-97141803D01*
X147039103Y-96641803D02*
X146967675Y-96713232D01*
X147039103Y-96784660D01*
X147110532Y-96713232D01*
X147039103Y-96641803D01*
X147039103Y-96784660D01*
X148396246Y-98070374D02*
X148253389Y-98141803D01*
X147967675Y-98141803D01*
X147824818Y-98070374D01*
X147753389Y-97998946D01*
X147681961Y-97856089D01*
X147681961Y-97427517D01*
X147753389Y-97284660D01*
X147824818Y-97213232D01*
X147967675Y-97141803D01*
X148253389Y-97141803D01*
X148396246Y-97213232D01*
X149039103Y-98141803D02*
X149039103Y-97141803D01*
X149039103Y-97427517D02*
X149110532Y-97284660D01*
X149181961Y-97213232D01*
X149324818Y-97141803D01*
X149467675Y-97141803D01*
X150181961Y-98141803D02*
X150039103Y-98070374D01*
X149967675Y-97998946D01*
X149896246Y-97856089D01*
X149896246Y-97427517D01*
X149967675Y-97284660D01*
X150039103Y-97213232D01*
X150181961Y-97141803D01*
X150396246Y-97141803D01*
X150539103Y-97213232D01*
X150610532Y-97284660D01*
X150681961Y-97427517D01*
X150681961Y-97856089D01*
X150610532Y-97998946D01*
X150539103Y-98070374D01*
X150396246Y-98141803D01*
X150181961Y-98141803D01*
X142717675Y-99056803D02*
X143646246Y-99056803D01*
X143146246Y-99628232D01*
X143360532Y-99628232D01*
X143503389Y-99699660D01*
X143574818Y-99771089D01*
X143646246Y-99913946D01*
X143646246Y-100271089D01*
X143574818Y-100413946D01*
X143503389Y-100485374D01*
X143360532Y-100556803D01*
X142931961Y-100556803D01*
X142789103Y-100485374D01*
X142717675Y-100413946D01*
X144217675Y-99199660D02*
X144289103Y-99128232D01*
X144431961Y-99056803D01*
X144789103Y-99056803D01*
X144931961Y-99128232D01*
X145003389Y-99199660D01*
X145074818Y-99342517D01*
X145074818Y-99485374D01*
X145003389Y-99699660D01*
X144146246Y-100556803D01*
X145074818Y-100556803D01*
X145717675Y-99056803D02*
X145717675Y-100271089D01*
X145789103Y-100413946D01*
X145860532Y-100485374D01*
X146003389Y-100556803D01*
X146289103Y-100556803D01*
X146431961Y-100485374D01*
X146503389Y-100413946D01*
X146574818Y-100271089D01*
X146574818Y-99056803D01*
X147931961Y-99556803D02*
X147931961Y-100556803D01*
X147574818Y-98985374D02*
X147217675Y-100056803D01*
X148146246Y-100056803D01*
D14*
X58398243Y-108424473D02*
X59541100Y-108424473D01*
X58169671Y-109167330D02*
X58969671Y-106567330D01*
X59769671Y-109167330D01*
X61941100Y-109167330D02*
X61141100Y-107929235D01*
X60569671Y-109167330D02*
X60569671Y-106567330D01*
X61483957Y-106567330D01*
X61712528Y-106691140D01*
X61826814Y-106814949D01*
X61941100Y-107062568D01*
X61941100Y-107433997D01*
X61826814Y-107681616D01*
X61712528Y-107805425D01*
X61483957Y-107929235D01*
X60569671Y-107929235D01*
X63998243Y-107433997D02*
X63998243Y-109167330D01*
X63426814Y-106443520D02*
X62855385Y-108300663D01*
X64341100Y-108300663D01*
X65598243Y-107681616D02*
X65369671Y-107557806D01*
X65255385Y-107433997D01*
X65141100Y-107186378D01*
X65141100Y-107062568D01*
X65255385Y-106814949D01*
X65369671Y-106691140D01*
X65598243Y-106567330D01*
X66055385Y-106567330D01*
X66283957Y-106691140D01*
X66398243Y-106814949D01*
X66512528Y-107062568D01*
X66512528Y-107186378D01*
X66398243Y-107433997D01*
X66283957Y-107557806D01*
X66055385Y-107681616D01*
X65598243Y-107681616D01*
X65369671Y-107805425D01*
X65255385Y-107929235D01*
X65141100Y-108176854D01*
X65141100Y-108672092D01*
X65255385Y-108919711D01*
X65369671Y-109043520D01*
X65598243Y-109167330D01*
X66055385Y-109167330D01*
X66283957Y-109043520D01*
X66398243Y-108919711D01*
X66512528Y-108672092D01*
X66512528Y-108176854D01*
X66398243Y-107929235D01*
X66283957Y-107805425D01*
X66055385Y-107681616D01*
X67883957Y-107681616D02*
X67655385Y-107557806D01*
X67541100Y-107433997D01*
X67426814Y-107186378D01*
X67426814Y-107062568D01*
X67541100Y-106814949D01*
X67655385Y-106691140D01*
X67883957Y-106567330D01*
X68341100Y-106567330D01*
X68569671Y-106691140D01*
X68683957Y-106814949D01*
X68798243Y-107062568D01*
X68798243Y-107186378D01*
X68683957Y-107433997D01*
X68569671Y-107557806D01*
X68341100Y-107681616D01*
X67883957Y-107681616D01*
X67655385Y-107805425D01*
X67541100Y-107929235D01*
X67426814Y-108176854D01*
X67426814Y-108672092D01*
X67541100Y-108919711D01*
X67655385Y-109043520D01*
X67883957Y-109167330D01*
X68341100Y-109167330D01*
X68569671Y-109043520D01*
X68683957Y-108919711D01*
X68798243Y-108672092D01*
X68798243Y-108176854D01*
X68683957Y-107929235D01*
X68569671Y-107805425D01*
X68341100Y-107681616D01*
D13*
X79053389Y-97141803D02*
X79053389Y-98641803D01*
X79053389Y-97213232D02*
X79196246Y-97141803D01*
X79481961Y-97141803D01*
X79624818Y-97213232D01*
X79696246Y-97284660D01*
X79767675Y-97427517D01*
X79767675Y-97856089D01*
X79696246Y-97998946D01*
X79624818Y-98070374D01*
X79481961Y-98141803D01*
X79196246Y-98141803D01*
X79053389Y-98070374D01*
X80410532Y-98141803D02*
X80410532Y-97141803D01*
X80410532Y-97427517D02*
X80481961Y-97284660D01*
X80553389Y-97213232D01*
X80696246Y-97141803D01*
X80839103Y-97141803D01*
X81553389Y-98141803D02*
X81410532Y-98070374D01*
X81339103Y-97998946D01*
X81267675Y-97856089D01*
X81267675Y-97427517D01*
X81339103Y-97284660D01*
X81410532Y-97213232D01*
X81553389Y-97141803D01*
X81767675Y-97141803D01*
X81910532Y-97213232D01*
X81981961Y-97284660D01*
X82053389Y-97427517D01*
X82053389Y-97856089D01*
X81981961Y-97998946D01*
X81910532Y-98070374D01*
X81767675Y-98141803D01*
X81553389Y-98141803D01*
X83839103Y-98141803D02*
X83839103Y-97141803D01*
X83839103Y-97284660D02*
X83910532Y-97213232D01*
X84053389Y-97141803D01*
X84267675Y-97141803D01*
X84410532Y-97213232D01*
X84481961Y-97356089D01*
X84481961Y-98141803D01*
X84481961Y-97356089D02*
X84553389Y-97213232D01*
X84696246Y-97141803D01*
X84910532Y-97141803D01*
X85053389Y-97213232D01*
X85124818Y-97356089D01*
X85124818Y-98141803D01*
X85839103Y-98141803D02*
X85839103Y-97141803D01*
X85839103Y-96641803D02*
X85767675Y-96713232D01*
X85839103Y-96784660D01*
X85910532Y-96713232D01*
X85839103Y-96641803D01*
X85839103Y-96784660D01*
X87196246Y-98070374D02*
X87053389Y-98141803D01*
X86767675Y-98141803D01*
X86624818Y-98070374D01*
X86553389Y-97998946D01*
X86481961Y-97856089D01*
X86481961Y-97427517D01*
X86553389Y-97284660D01*
X86624818Y-97213232D01*
X86767675Y-97141803D01*
X87053389Y-97141803D01*
X87196246Y-97213232D01*
X87839103Y-98141803D02*
X87839103Y-97141803D01*
X87839103Y-97427517D02*
X87910532Y-97284660D01*
X87981961Y-97213232D01*
X88124818Y-97141803D01*
X88267675Y-97141803D01*
X88981961Y-98141803D02*
X88839103Y-98070374D01*
X88767675Y-97998946D01*
X88696246Y-97856089D01*
X88696246Y-97427517D01*
X88767675Y-97284660D01*
X88839103Y-97213232D01*
X88981961Y-97141803D01*
X89196246Y-97141803D01*
X89339103Y-97213232D01*
X89410532Y-97284660D01*
X89481961Y-97427517D01*
X89481961Y-97856089D01*
X89410532Y-97998946D01*
X89339103Y-98070374D01*
X89196246Y-98141803D01*
X88981961Y-98141803D01*
X81517675Y-99056803D02*
X82446246Y-99056803D01*
X81946246Y-99628232D01*
X82160532Y-99628232D01*
X82303389Y-99699660D01*
X82374818Y-99771089D01*
X82446246Y-99913946D01*
X82446246Y-100271089D01*
X82374818Y-100413946D01*
X82303389Y-100485374D01*
X82160532Y-100556803D01*
X81731961Y-100556803D01*
X81589103Y-100485374D01*
X81517675Y-100413946D01*
X83017675Y-99199660D02*
X83089103Y-99128232D01*
X83231961Y-99056803D01*
X83589103Y-99056803D01*
X83731961Y-99128232D01*
X83803389Y-99199660D01*
X83874818Y-99342517D01*
X83874818Y-99485374D01*
X83803389Y-99699660D01*
X82946246Y-100556803D01*
X83874818Y-100556803D01*
X84517675Y-99056803D02*
X84517675Y-100271089D01*
X84589103Y-100413946D01*
X84660532Y-100485374D01*
X84803389Y-100556803D01*
X85089103Y-100556803D01*
X85231961Y-100485374D01*
X85303389Y-100413946D01*
X85374818Y-100271089D01*
X85374818Y-99056803D01*
X86731961Y-99556803D02*
X86731961Y-100556803D01*
X86374818Y-98985374D02*
X86017675Y-100056803D01*
X86946246Y-100056803D01*
D10*
X140009268Y-115492636D02*
X139961648Y-115587874D01*
X139961648Y-115730732D01*
X140009268Y-115873589D01*
X140104506Y-115968827D01*
X140199744Y-116016446D01*
X140390220Y-116064065D01*
X140533077Y-116064065D01*
X140723553Y-116016446D01*
X140818791Y-115968827D01*
X140914029Y-115873589D01*
X140961648Y-115730732D01*
X140961648Y-115635493D01*
X140914029Y-115492636D01*
X140866410Y-115445017D01*
X140533077Y-115445017D01*
X140533077Y-115635493D01*
X140961648Y-115016446D02*
X139961648Y-115016446D01*
X140961648Y-114445017D01*
X139961648Y-114445017D01*
X140961648Y-113968827D02*
X139961648Y-113968827D01*
X139961648Y-113730732D01*
X140009268Y-113587874D01*
X140104506Y-113492636D01*
X140199744Y-113445017D01*
X140390220Y-113397398D01*
X140533077Y-113397398D01*
X140723553Y-113445017D01*
X140818791Y-113492636D01*
X140914029Y-113587874D01*
X140961648Y-113730732D01*
X140961648Y-113968827D01*
D15*
%TO.C,U1*%
X87599076Y-96310000D02*
X79979076Y-96310000D01*
X79979076Y-91770000D02*
X87609076Y-91770000D01*
D10*
X79979076Y-93770000D02*
X74739076Y-93770000D01*
X92889076Y-93770000D02*
X87599076Y-93770000D01*
D15*
X79979076Y-96310000D02*
X79979076Y-91770000D01*
X87599076Y-91780000D02*
X87599076Y-96310000D01*
D11*
X90039076Y-93780000D02*
X92789076Y-93780000D01*
X92789076Y-93780000D02*
X92789076Y-91230000D01*
X92789076Y-91230000D02*
X90039076Y-91230000D01*
X90039076Y-91230000D02*
X90039076Y-93780000D01*
G36*
X90039076Y-93780000D02*
G01*
X92789076Y-93780000D01*
X92789076Y-91230000D01*
X90039076Y-91230000D01*
X90039076Y-93780000D01*
G37*
%TO.C,J2*%
X147555000Y-111875000D02*
X147555000Y-111180000D01*
X148925000Y-111875000D02*
X148800000Y-111875000D01*
X148925000Y-111875000D02*
X148925000Y-110485000D01*
X148925000Y-111875000D02*
X148925000Y-111788276D01*
X148240000Y-111875000D02*
X147555000Y-111875000D01*
X148925000Y-110571724D02*
X148925000Y-110485000D01*
X148925000Y-110485000D02*
X148800000Y-110485000D01*
X128537693Y-70115000D02*
X128537693Y-68725000D01*
X128537693Y-68811724D02*
X128537693Y-68725000D01*
X127167693Y-70115000D02*
X127167693Y-69420000D01*
X128537693Y-68725000D02*
X128412693Y-68725000D01*
X128537693Y-70115000D02*
X128537693Y-70028276D01*
X128537693Y-70115000D02*
X128412693Y-70115000D01*
X127852693Y-70115000D02*
X127167693Y-70115000D01*
D16*
%TO.C,mouse-bite-2mm-slot*%
X147700000Y-103000000D02*
G75*
G03*
X147700000Y-105000000I0J-1000000D01*
G01*
X142200000Y-105000000D02*
G75*
G03*
X142200000Y-103000000I0J1000000D01*
G01*
D11*
%TO.C,J3*%
X139884268Y-110455732D02*
X139884268Y-110542456D01*
X139884268Y-110455732D02*
X139884268Y-111845732D01*
X141254268Y-110455732D02*
X141254268Y-111150732D01*
X140569268Y-110455732D02*
X141254268Y-110455732D01*
X139884268Y-110455732D02*
X140009268Y-110455732D01*
X139884268Y-111759008D02*
X139884268Y-111845732D01*
X139884268Y-111845732D02*
X140009268Y-111845732D01*
X119496961Y-68695732D02*
X119496961Y-70085732D01*
X119496961Y-68695732D02*
X119496961Y-68782456D01*
X119496961Y-68695732D02*
X119621961Y-68695732D01*
X119496961Y-70085732D02*
X119621961Y-70085732D01*
X120181961Y-68695732D02*
X120866961Y-68695732D01*
X119496961Y-69999008D02*
X119496961Y-70085732D01*
X120866961Y-68695732D02*
X120866961Y-69390732D01*
D10*
%TO.C,U1*%
X133689076Y-93770000D02*
X128399076Y-93770000D01*
D15*
X128399076Y-91780000D02*
X128399076Y-96310000D01*
X120779076Y-96310000D02*
X120779076Y-91770000D01*
D10*
X120779076Y-93770000D02*
X115539076Y-93770000D01*
D15*
X120779076Y-91770000D02*
X128409076Y-91770000D01*
X128399076Y-96310000D02*
X120779076Y-96310000D01*
D11*
X130839076Y-93780000D02*
X133589076Y-93780000D01*
X133589076Y-93780000D02*
X133589076Y-91230000D01*
X133589076Y-91230000D02*
X130839076Y-91230000D01*
X130839076Y-91230000D02*
X130839076Y-93780000D01*
G36*
X130839076Y-93780000D02*
G01*
X133589076Y-93780000D01*
X133589076Y-91230000D01*
X130839076Y-91230000D01*
X130839076Y-93780000D01*
G37*
D16*
%TO.C,mouse-bite-2mm-slot*%
X106900000Y-103000000D02*
G75*
G03*
X106900000Y-105000000I0J-1000000D01*
G01*
X101400000Y-105000000D02*
G75*
G03*
X101400000Y-103000000I0J1000000D01*
G01*
D11*
%TO.C,J2*%
X108125000Y-110485000D02*
X108000000Y-110485000D01*
X108125000Y-111875000D02*
X108000000Y-111875000D01*
X108125000Y-111875000D02*
X108125000Y-111788276D01*
X108125000Y-111875000D02*
X108125000Y-110485000D01*
X108125000Y-110571724D02*
X108125000Y-110485000D01*
X107440000Y-111875000D02*
X106755000Y-111875000D01*
X106755000Y-111875000D02*
X106755000Y-111180000D01*
X148937693Y-70115000D02*
X148937693Y-70028276D01*
X147567693Y-70115000D02*
X147567693Y-69420000D01*
X148252693Y-70115000D02*
X147567693Y-70115000D01*
X148937693Y-68725000D02*
X148812693Y-68725000D01*
X148937693Y-70115000D02*
X148812693Y-70115000D01*
X148937693Y-70115000D02*
X148937693Y-68725000D01*
X148937693Y-68811724D02*
X148937693Y-68725000D01*
%TO.C,J3*%
X139896961Y-68695732D02*
X140021961Y-68695732D01*
X139896961Y-69999008D02*
X139896961Y-70085732D01*
X139896961Y-70085732D02*
X140021961Y-70085732D01*
X140581961Y-68695732D02*
X141266961Y-68695732D01*
X141266961Y-68695732D02*
X141266961Y-69390732D01*
X139896961Y-68695732D02*
X139896961Y-68782456D01*
X139896961Y-68695732D02*
X139896961Y-70085732D01*
D16*
%TO.C,mouse-bite-2mm-slot*%
X81000000Y-105000000D02*
G75*
G03*
X81000000Y-103000000I0J1000000D01*
G01*
X86500000Y-103000000D02*
G75*
G03*
X86500000Y-105000000I0J-1000000D01*
G01*
D11*
%TO.C,J3*%
X59666961Y-68695732D02*
X59666961Y-69390732D01*
X58981961Y-68695732D02*
X59666961Y-68695732D01*
X58296961Y-68695732D02*
X58296961Y-68782456D01*
X58296961Y-70085732D02*
X58421961Y-70085732D01*
X58296961Y-68695732D02*
X58296961Y-70085732D01*
X58296961Y-69999008D02*
X58296961Y-70085732D01*
X58296961Y-68695732D02*
X58421961Y-68695732D01*
%TO.C,J2*%
X87725000Y-110485000D02*
X87600000Y-110485000D01*
X87725000Y-111875000D02*
X87725000Y-110485000D01*
X87725000Y-111875000D02*
X87600000Y-111875000D01*
X87725000Y-111875000D02*
X87725000Y-111788276D01*
X87725000Y-110571724D02*
X87725000Y-110485000D01*
X87040000Y-111875000D02*
X86355000Y-111875000D01*
X86355000Y-111875000D02*
X86355000Y-111180000D01*
D16*
%TO.C,mouse-bite-2mm-slot*%
X66200000Y-144770000D02*
G75*
G03*
X66200000Y-146770000I0J-1000000D01*
G01*
X60700000Y-146770000D02*
G75*
G03*
X60700000Y-144770000I0J1000000D01*
G01*
D15*
%TO.C,U1*%
X107986383Y-138070000D02*
X100366383Y-138070000D01*
D10*
X100366383Y-135530000D02*
X95126383Y-135530000D01*
D15*
X100366383Y-133530000D02*
X107996383Y-133530000D01*
D10*
X113276383Y-135530000D02*
X107986383Y-135530000D01*
D15*
X100366383Y-138070000D02*
X100366383Y-133530000D01*
X107986383Y-133540000D02*
X107986383Y-138070000D01*
D11*
X110426383Y-135540000D02*
X113176383Y-135540000D01*
X113176383Y-135540000D02*
X113176383Y-132990000D01*
X113176383Y-132990000D02*
X110426383Y-132990000D01*
X110426383Y-132990000D02*
X110426383Y-135540000D01*
G36*
X110426383Y-135540000D02*
G01*
X113176383Y-135540000D01*
X113176383Y-132990000D01*
X110426383Y-132990000D01*
X110426383Y-135540000D01*
G37*
D16*
%TO.C,mouse-bite-2mm-slot*%
X66160000Y-61230000D02*
G75*
G03*
X66160000Y-63230000I0J-1000000D01*
G01*
X60660000Y-63230000D02*
G75*
G03*
X60660000Y-61230000I0J1000000D01*
G01*
D10*
%TO.C,U1*%
X141179076Y-93770000D02*
X135939076Y-93770000D01*
D15*
X148799076Y-91780000D02*
X148799076Y-96310000D01*
D10*
X154089076Y-93770000D02*
X148799076Y-93770000D01*
D15*
X148799076Y-96310000D02*
X141179076Y-96310000D01*
X141179076Y-96310000D02*
X141179076Y-91770000D01*
X141179076Y-91770000D02*
X148809076Y-91770000D01*
D11*
X151239076Y-93780000D02*
X153989076Y-93780000D01*
X153989076Y-93780000D02*
X153989076Y-91230000D01*
X153989076Y-91230000D02*
X151239076Y-91230000D01*
X151239076Y-91230000D02*
X151239076Y-93780000D01*
G36*
X151239076Y-93780000D02*
G01*
X153989076Y-93780000D01*
X153989076Y-91230000D01*
X151239076Y-91230000D01*
X151239076Y-93780000D01*
G37*
D16*
%TO.C,mouse-bite-2mm-slot*%
X81060000Y-63230000D02*
G75*
G03*
X81060000Y-61230000I0J1000000D01*
G01*
X86560000Y-61230000D02*
G75*
G03*
X86560000Y-63230000I0J-1000000D01*
G01*
D11*
%TO.C,J3*%
X119484268Y-110455732D02*
X119609268Y-110455732D01*
X119484268Y-111845732D02*
X119609268Y-111845732D01*
X120854268Y-110455732D02*
X120854268Y-111150732D01*
X119484268Y-110455732D02*
X119484268Y-110542456D01*
X119484268Y-110455732D02*
X119484268Y-111845732D01*
X119484268Y-111759008D02*
X119484268Y-111845732D01*
X120169268Y-110455732D02*
X120854268Y-110455732D01*
D15*
%TO.C,U1*%
X100379076Y-91770000D02*
X108009076Y-91770000D01*
D10*
X113289076Y-93770000D02*
X107999076Y-93770000D01*
D15*
X100379076Y-96310000D02*
X100379076Y-91770000D01*
D10*
X100379076Y-93770000D02*
X95139076Y-93770000D01*
D15*
X107999076Y-91780000D02*
X107999076Y-96310000D01*
X107999076Y-96310000D02*
X100379076Y-96310000D01*
D11*
X110439076Y-93780000D02*
X113189076Y-93780000D01*
X113189076Y-93780000D02*
X113189076Y-91230000D01*
X113189076Y-91230000D02*
X110439076Y-91230000D01*
X110439076Y-91230000D02*
X110439076Y-93780000D01*
G36*
X110439076Y-93780000D02*
G01*
X113189076Y-93780000D01*
X113189076Y-91230000D01*
X110439076Y-91230000D01*
X110439076Y-93780000D01*
G37*
D15*
X67199076Y-91780000D02*
X67199076Y-96310000D01*
X59579076Y-91770000D02*
X67209076Y-91770000D01*
D10*
X59579076Y-93770000D02*
X54339076Y-93770000D01*
D15*
X67199076Y-96310000D02*
X59579076Y-96310000D01*
X59579076Y-96310000D02*
X59579076Y-91770000D01*
D10*
X72489076Y-93770000D02*
X67199076Y-93770000D01*
D11*
X69639076Y-93780000D02*
X72389076Y-93780000D01*
X72389076Y-93780000D02*
X72389076Y-91230000D01*
X72389076Y-91230000D02*
X69639076Y-91230000D01*
X69639076Y-91230000D02*
X69639076Y-93780000D01*
G36*
X69639076Y-93780000D02*
G01*
X72389076Y-93780000D01*
X72389076Y-91230000D01*
X69639076Y-91230000D01*
X69639076Y-93780000D01*
G37*
%TO.C,J2*%
X108137693Y-70115000D02*
X108012693Y-70115000D01*
X107452693Y-70115000D02*
X106767693Y-70115000D01*
X108137693Y-70115000D02*
X108137693Y-70028276D01*
X108137693Y-68725000D02*
X108012693Y-68725000D01*
X108137693Y-68811724D02*
X108137693Y-68725000D01*
X108137693Y-70115000D02*
X108137693Y-68725000D01*
X106767693Y-70115000D02*
X106767693Y-69420000D01*
D15*
%TO.C,U1*%
X148786383Y-133540000D02*
X148786383Y-138070000D01*
D10*
X154076383Y-135530000D02*
X148786383Y-135530000D01*
D15*
X141166383Y-138070000D02*
X141166383Y-133530000D01*
X141166383Y-133530000D02*
X148796383Y-133530000D01*
D10*
X141166383Y-135530000D02*
X135926383Y-135530000D01*
D15*
X148786383Y-138070000D02*
X141166383Y-138070000D01*
D11*
X151226383Y-135540000D02*
X153976383Y-135540000D01*
X153976383Y-135540000D02*
X153976383Y-132990000D01*
X153976383Y-132990000D02*
X151226383Y-132990000D01*
X151226383Y-132990000D02*
X151226383Y-135540000D01*
G36*
X151226383Y-135540000D02*
G01*
X153976383Y-135540000D01*
X153976383Y-132990000D01*
X151226383Y-132990000D01*
X151226383Y-135540000D01*
G37*
D16*
%TO.C,mouse-bite-2mm-slot*%
X121900000Y-146770000D02*
G75*
G03*
X121900000Y-144770000I0J1000000D01*
G01*
X127400000Y-144770000D02*
G75*
G03*
X127400000Y-146770000I0J-1000000D01*
G01*
X142260000Y-63230000D02*
G75*
G03*
X142260000Y-61230000I0J1000000D01*
G01*
X147760000Y-61230000D02*
G75*
G03*
X147760000Y-63230000I0J-1000000D01*
G01*
D11*
%TO.C,J2*%
X128525000Y-110571724D02*
X128525000Y-110485000D01*
X127840000Y-111875000D02*
X127155000Y-111875000D01*
X127155000Y-111875000D02*
X127155000Y-111180000D01*
X128525000Y-111875000D02*
X128400000Y-111875000D01*
X128525000Y-111875000D02*
X128525000Y-110485000D01*
X128525000Y-111875000D02*
X128525000Y-111788276D01*
X128525000Y-110485000D02*
X128400000Y-110485000D01*
D16*
%TO.C,mouse-bite-2mm-slot*%
X142300000Y-146770000D02*
G75*
G03*
X142300000Y-144770000I0J1000000D01*
G01*
X147800000Y-144770000D02*
G75*
G03*
X147800000Y-146770000I0J-1000000D01*
G01*
D11*
%TO.C,J2*%
X87737693Y-68725000D02*
X87612693Y-68725000D01*
X86367693Y-70115000D02*
X86367693Y-69420000D01*
X87737693Y-70115000D02*
X87737693Y-70028276D01*
X87737693Y-70115000D02*
X87737693Y-68725000D01*
X87737693Y-70115000D02*
X87612693Y-70115000D01*
X87052693Y-70115000D02*
X86367693Y-70115000D01*
X87737693Y-68811724D02*
X87737693Y-68725000D01*
%TO.C,J3*%
X99096961Y-70085732D02*
X99221961Y-70085732D01*
X99096961Y-68695732D02*
X99096961Y-68782456D01*
X99781961Y-68695732D02*
X100466961Y-68695732D01*
X99096961Y-68695732D02*
X99221961Y-68695732D01*
X100466961Y-68695732D02*
X100466961Y-69390732D01*
X99096961Y-69999008D02*
X99096961Y-70085732D01*
X99096961Y-68695732D02*
X99096961Y-70085732D01*
X99084268Y-111759008D02*
X99084268Y-111845732D01*
X99084268Y-111845732D02*
X99209268Y-111845732D01*
X99084268Y-110455732D02*
X99084268Y-110542456D01*
X99084268Y-110455732D02*
X99209268Y-110455732D01*
X100454268Y-110455732D02*
X100454268Y-111150732D01*
X99084268Y-110455732D02*
X99084268Y-111845732D01*
X99769268Y-110455732D02*
X100454268Y-110455732D01*
D15*
%TO.C,U1*%
X67186383Y-138070000D02*
X59566383Y-138070000D01*
D10*
X72476383Y-135530000D02*
X67186383Y-135530000D01*
X59566383Y-135530000D02*
X54326383Y-135530000D01*
D15*
X59566383Y-133530000D02*
X67196383Y-133530000D01*
X59566383Y-138070000D02*
X59566383Y-133530000D01*
X67186383Y-133540000D02*
X67186383Y-138070000D01*
D11*
X69626383Y-135540000D02*
X72376383Y-135540000D01*
X72376383Y-135540000D02*
X72376383Y-132990000D01*
X72376383Y-132990000D02*
X69626383Y-132990000D01*
X69626383Y-132990000D02*
X69626383Y-135540000D01*
G36*
X69626383Y-135540000D02*
G01*
X72376383Y-135540000D01*
X72376383Y-132990000D01*
X69626383Y-132990000D01*
X69626383Y-135540000D01*
G37*
%TO.C,J2*%
X67337693Y-70115000D02*
X67337693Y-70028276D01*
X67337693Y-70115000D02*
X67337693Y-68725000D01*
X65967693Y-70115000D02*
X65967693Y-69420000D01*
X67337693Y-70115000D02*
X67212693Y-70115000D01*
X67337693Y-68725000D02*
X67212693Y-68725000D01*
X66652693Y-70115000D02*
X65967693Y-70115000D01*
X67337693Y-68811724D02*
X67337693Y-68725000D01*
D15*
%TO.C,U1*%
X79966383Y-133530000D02*
X87596383Y-133530000D01*
X87586383Y-138070000D02*
X79966383Y-138070000D01*
X87586383Y-133540000D02*
X87586383Y-138070000D01*
D10*
X92876383Y-135530000D02*
X87586383Y-135530000D01*
D15*
X79966383Y-138070000D02*
X79966383Y-133530000D01*
D10*
X79966383Y-135530000D02*
X74726383Y-135530000D01*
D11*
X90026383Y-135540000D02*
X92776383Y-135540000D01*
X92776383Y-135540000D02*
X92776383Y-132990000D01*
X92776383Y-132990000D02*
X90026383Y-132990000D01*
X90026383Y-132990000D02*
X90026383Y-135540000D01*
G36*
X90026383Y-135540000D02*
G01*
X92776383Y-135540000D01*
X92776383Y-132990000D01*
X90026383Y-132990000D01*
X90026383Y-135540000D01*
G37*
%TO.C,J2*%
X65955000Y-111875000D02*
X65955000Y-111180000D01*
X67325000Y-110571724D02*
X67325000Y-110485000D01*
X67325000Y-111875000D02*
X67325000Y-110485000D01*
X66640000Y-111875000D02*
X65955000Y-111875000D01*
X67325000Y-111875000D02*
X67200000Y-111875000D01*
X67325000Y-110485000D02*
X67200000Y-110485000D01*
X67325000Y-111875000D02*
X67325000Y-111788276D01*
D15*
%TO.C,U1*%
X120766383Y-138070000D02*
X120766383Y-133530000D01*
X128386383Y-138070000D02*
X120766383Y-138070000D01*
D10*
X120766383Y-135530000D02*
X115526383Y-135530000D01*
D15*
X120766383Y-133530000D02*
X128396383Y-133530000D01*
X128386383Y-133540000D02*
X128386383Y-138070000D01*
D10*
X133676383Y-135530000D02*
X128386383Y-135530000D01*
D11*
X130826383Y-135540000D02*
X133576383Y-135540000D01*
X133576383Y-135540000D02*
X133576383Y-132990000D01*
X133576383Y-132990000D02*
X130826383Y-132990000D01*
X130826383Y-132990000D02*
X130826383Y-135540000D01*
G36*
X130826383Y-135540000D02*
G01*
X133576383Y-135540000D01*
X133576383Y-132990000D01*
X130826383Y-132990000D01*
X130826383Y-135540000D01*
G37*
D16*
%TO.C,mouse-bite-2mm-slot*%
X106960000Y-61230000D02*
G75*
G03*
X106960000Y-63230000I0J-1000000D01*
G01*
X101460000Y-63230000D02*
G75*
G03*
X101460000Y-61230000I0J1000000D01*
G01*
D11*
%TO.C,J3*%
X58969268Y-110455732D02*
X59654268Y-110455732D01*
X58284268Y-111759008D02*
X58284268Y-111845732D01*
X58284268Y-110455732D02*
X58284268Y-111845732D01*
X58284268Y-110455732D02*
X58409268Y-110455732D01*
X58284268Y-111845732D02*
X58409268Y-111845732D01*
X58284268Y-110455732D02*
X58284268Y-110542456D01*
X59654268Y-110455732D02*
X59654268Y-111150732D01*
X78696961Y-68695732D02*
X78821961Y-68695732D01*
X78696961Y-68695732D02*
X78696961Y-68782456D01*
X80066961Y-68695732D02*
X80066961Y-69390732D01*
X78696961Y-68695732D02*
X78696961Y-70085732D01*
X79381961Y-68695732D02*
X80066961Y-68695732D01*
X78696961Y-69999008D02*
X78696961Y-70085732D01*
X78696961Y-70085732D02*
X78821961Y-70085732D01*
D16*
%TO.C,mouse-bite-2mm-slot*%
X60600000Y-105000000D02*
G75*
G03*
X60600000Y-103000000I0J1000000D01*
G01*
X66100000Y-103000000D02*
G75*
G03*
X66100000Y-105000000I0J-1000000D01*
G01*
D11*
%TO.C,J3*%
X78684268Y-111759008D02*
X78684268Y-111845732D01*
X79369268Y-110455732D02*
X80054268Y-110455732D01*
X78684268Y-110455732D02*
X78684268Y-111845732D01*
X78684268Y-110455732D02*
X78684268Y-110542456D01*
X80054268Y-110455732D02*
X80054268Y-111150732D01*
X78684268Y-110455732D02*
X78809268Y-110455732D01*
X78684268Y-111845732D02*
X78809268Y-111845732D01*
D16*
%TO.C,mouse-bite-2mm-slot*%
X101500000Y-146770000D02*
G75*
G03*
X101500000Y-144770000I0J1000000D01*
G01*
X107000000Y-144770000D02*
G75*
G03*
X107000000Y-146770000I0J-1000000D01*
G01*
X127300000Y-103000000D02*
G75*
G03*
X127300000Y-105000000I0J-1000000D01*
G01*
X121800000Y-105000000D02*
G75*
G03*
X121800000Y-103000000I0J1000000D01*
G01*
X121860000Y-63230000D02*
G75*
G03*
X121860000Y-61230000I0J1000000D01*
G01*
X127360000Y-61230000D02*
G75*
G03*
X127360000Y-63230000I0J-1000000D01*
G01*
X81100000Y-146770000D02*
G75*
G03*
X81100000Y-144770000I0J1000000D01*
G01*
X86600000Y-144770000D02*
G75*
G03*
X86600000Y-146770000I0J-1000000D01*
G01*
%TD*%
M02*
