G04 #@! TF.GenerationSoftware,KiCad,Pcbnew,6.0.1-79c1e3a40b~116~ubuntu20.04.1*
G04 #@! TF.CreationDate,2022-01-18T16:33:52+01:00*
G04 #@! TF.ProjectId,Nano_GPIB,4e616e6f-5f47-4504-9942-2e6b69636164,rev?*
G04 #@! TF.SameCoordinates,Original*
G04 #@! TF.FileFunction,Copper,L2,Bot*
G04 #@! TF.FilePolarity,Positive*
%FSLAX46Y46*%
G04 Gerber Fmt 4.6, Leading zero omitted, Abs format (unit mm)*
G04 Created by KiCad (PCBNEW 6.0.1-79c1e3a40b~116~ubuntu20.04.1) date 2022-01-18 16:33:52*
%MOMM*%
%LPD*%
G01*
G04 APERTURE LIST*
G04 Aperture macros list*
%AMRoundRect*
0 Rectangle with rounded corners*
0 $1 Rounding radius*
0 $2 $3 $4 $5 $6 $7 $8 $9 X,Y pos of 4 corners*
0 Add a 4 corners polygon primitive as box body*
4,1,4,$2,$3,$4,$5,$6,$7,$8,$9,$2,$3,0*
0 Add four circle primitives for the rounded corners*
1,1,$1+$1,$2,$3*
1,1,$1+$1,$4,$5*
1,1,$1+$1,$6,$7*
1,1,$1+$1,$8,$9*
0 Add four rect primitives between the rounded corners*
20,1,$1+$1,$2,$3,$4,$5,0*
20,1,$1+$1,$4,$5,$6,$7,0*
20,1,$1+$1,$6,$7,$8,$9,0*
20,1,$1+$1,$8,$9,$2,$3,0*%
G04 Aperture macros list end*
G04 #@! TA.AperFunction,ComponentPad*
%ADD10R,0.850000X0.850000*%
G04 #@! TD*
G04 #@! TA.AperFunction,ComponentPad*
%ADD11RoundRect,0.400000X-0.700000X-0.400000X0.700000X-0.400000X0.700000X0.400000X-0.700000X0.400000X0*%
G04 #@! TD*
G04 #@! TA.AperFunction,ComponentPad*
%ADD12O,2.200000X1.800000*%
G04 #@! TD*
G04 #@! TA.AperFunction,ComponentPad*
%ADD13C,6.400000*%
G04 #@! TD*
G04 #@! TA.AperFunction,ComponentPad*
%ADD14C,0.800000*%
G04 #@! TD*
G04 #@! TA.AperFunction,ComponentPad*
%ADD15RoundRect,0.400000X0.600000X-0.400000X0.600000X0.400000X-0.600000X0.400000X-0.600000X-0.400000X0*%
G04 #@! TD*
G04 #@! TA.AperFunction,ComponentPad*
%ADD16O,2.000000X1.600000*%
G04 #@! TD*
G04 #@! TA.AperFunction,ViaPad*
%ADD17C,0.800000*%
G04 #@! TD*
G04 #@! TA.AperFunction,Conductor*
%ADD18C,0.300000*%
G04 #@! TD*
G04 APERTURE END LIST*
D10*
X101773739Y-87248447D03*
D11*
X96433300Y-84899000D03*
D12*
X96433300Y-87439000D03*
X96433300Y-89979000D03*
X96433300Y-92519000D03*
X96433300Y-95059000D03*
X96433300Y-97599000D03*
X96433300Y-100139000D03*
X96433300Y-102679000D03*
X96433300Y-105219000D03*
X96433300Y-107759000D03*
X96433300Y-110299000D03*
X96433300Y-112839000D03*
X96433300Y-115379000D03*
X96433300Y-117919000D03*
X96433300Y-120459000D03*
X111673300Y-120459000D03*
X111673300Y-117919000D03*
X111673300Y-115379000D03*
X111673300Y-112839000D03*
X111673300Y-110299000D03*
X111673300Y-107759000D03*
X111673300Y-105219000D03*
X111673300Y-102679000D03*
X111673300Y-100139000D03*
X111673300Y-97599000D03*
X111673300Y-95059000D03*
X111673300Y-92519000D03*
X111673300Y-89979000D03*
X111673300Y-87439000D03*
X111673300Y-84899000D03*
D13*
X104175300Y-78961000D03*
D14*
X104175300Y-81361000D03*
X102478244Y-77263944D03*
X106575300Y-78961000D03*
X105872356Y-80658056D03*
X104175300Y-76561000D03*
X105872356Y-77263944D03*
X101775300Y-78961000D03*
X102478244Y-80658056D03*
X101825300Y-125741000D03*
X102528244Y-127438056D03*
X102528244Y-124043944D03*
X106625300Y-125741000D03*
X105922356Y-124043944D03*
X104225300Y-123341000D03*
X105922356Y-127438056D03*
X104225300Y-128141000D03*
D13*
X104225300Y-125741000D03*
D15*
X106430000Y-114099000D03*
D16*
X106430000Y-111940000D03*
X106430000Y-109781000D03*
X106430000Y-107622000D03*
X106430000Y-105463000D03*
X106430000Y-103304000D03*
X106430000Y-101145000D03*
X106430000Y-98986000D03*
X106430000Y-96827000D03*
X106430000Y-94668000D03*
X106430000Y-92509000D03*
X106430000Y-90350000D03*
X101750000Y-114074500D03*
X101750000Y-111915500D03*
X101750000Y-109756500D03*
X101750000Y-107597500D03*
X101750000Y-105438500D03*
X101750000Y-103279500D03*
X101750000Y-101120500D03*
X101750000Y-98961500D03*
X101750000Y-96802500D03*
X101750000Y-94643500D03*
X101750000Y-92484500D03*
X101750000Y-90325500D03*
D10*
X106583739Y-87188447D03*
D17*
X108270000Y-114550000D03*
X97345300Y-80271000D03*
X96505300Y-122331000D03*
X111805300Y-83171000D03*
X111775300Y-122471000D03*
X110825300Y-80411000D03*
X96515300Y-83111000D03*
X97385300Y-124561000D03*
X110865300Y-124531000D03*
X106466300Y-119697000D03*
X106466300Y-116776000D03*
X107863300Y-119951000D03*
X107863300Y-115760000D03*
D18*
X101780000Y-103428300D02*
X101767300Y-103441000D01*
X101780000Y-92531700D02*
X101780000Y-103428300D01*
X99862300Y-89471000D02*
X99862300Y-93916000D01*
X107417300Y-88328000D02*
X101005300Y-88328000D01*
X107990600Y-94690700D02*
X108755300Y-93926000D01*
X101005300Y-88328000D02*
X99862300Y-89471000D01*
X99862300Y-93916000D02*
X98592300Y-95186000D01*
X106580600Y-94690700D02*
X107990600Y-94690700D01*
X108755300Y-93926000D02*
X108755300Y-89666000D01*
X108755300Y-89666000D02*
X107417300Y-88328000D01*
X98592300Y-95186000D02*
X96433300Y-95186000D01*
X100929300Y-105600000D02*
X101767300Y-105600000D01*
X98973300Y-97599000D02*
X100055300Y-98681000D01*
X100055300Y-104726000D02*
X100929300Y-105600000D01*
X100055300Y-98681000D02*
X100055300Y-104726000D01*
X96433300Y-97599000D02*
X98973300Y-97599000D01*
X100228300Y-107759000D02*
X101640300Y-107759000D01*
X98935300Y-106466000D02*
X100228300Y-107759000D01*
X98935300Y-103826000D02*
X98935300Y-106466000D01*
X96433300Y-102679000D02*
X97788300Y-102679000D01*
X97788300Y-102679000D02*
X98935300Y-103826000D01*
X104073739Y-93641561D02*
X105196300Y-92519000D01*
X98448300Y-107759000D02*
X96433300Y-107759000D01*
X100030000Y-109340700D02*
X98448300Y-107759000D01*
X106466300Y-116776000D02*
X104688300Y-116776000D01*
X100030000Y-117200700D02*
X100030000Y-109340700D01*
X104073739Y-116161439D02*
X104073739Y-93641561D01*
X105196300Y-92519000D02*
X106466300Y-92519000D01*
X104688300Y-116776000D02*
X104073739Y-116161439D01*
X106466300Y-119697000D02*
X102526300Y-119697000D01*
X102526300Y-119697000D02*
X100030000Y-117200700D01*
X104885300Y-115322000D02*
X104885300Y-97402000D01*
X99145300Y-111336000D02*
X98108300Y-110299000D01*
X107228300Y-120586000D02*
X101640300Y-120586000D01*
X105450300Y-96837000D02*
X106466300Y-96837000D01*
X107863300Y-115760000D02*
X105323300Y-115760000D01*
X104885300Y-97402000D02*
X105450300Y-96837000D01*
X98108300Y-110299000D02*
X96433300Y-110299000D01*
X107863300Y-119951000D02*
X107228300Y-120586000D01*
X99145300Y-118091000D02*
X99145300Y-111336000D01*
X105323300Y-115760000D02*
X104885300Y-115322000D01*
X101640300Y-120586000D02*
X99145300Y-118091000D01*
X106583739Y-82709469D02*
X104175300Y-80301030D01*
X106583739Y-87188447D02*
X106583739Y-82709469D01*
X101780000Y-117042700D02*
X103545300Y-118808000D01*
X110530300Y-102679000D02*
X111673300Y-102679000D01*
X108244300Y-118808000D02*
X109973739Y-117078561D01*
X103545300Y-118808000D02*
X108244300Y-118808000D01*
X109973739Y-117078561D02*
X109973739Y-103235561D01*
X101780000Y-114223300D02*
X101780000Y-117042700D01*
X109973739Y-103235561D02*
X110530300Y-102679000D01*
X102643600Y-112064300D02*
X103293739Y-112714439D01*
X103293739Y-112714439D02*
X103293739Y-117032439D01*
X104180300Y-117919000D02*
X107693186Y-117919000D01*
X109255300Y-102557000D02*
X111673300Y-100139000D01*
X103293739Y-117032439D02*
X104180300Y-117919000D01*
X107693186Y-117919000D02*
X109255300Y-116356886D01*
X101780000Y-112064300D02*
X102643600Y-112064300D01*
X109255300Y-116356886D02*
X109255300Y-102557000D01*
G04 #@! TA.AperFunction,Conductor*
G36*
X97946790Y-110917254D02*
G01*
X97957819Y-110927044D01*
X98558481Y-111527706D01*
X98591966Y-111589029D01*
X98594800Y-111615387D01*
X98594800Y-118076043D01*
X98594691Y-118081235D01*
X98592090Y-118143294D01*
X98594021Y-118151525D01*
X98594021Y-118151529D01*
X98602047Y-118185747D01*
X98604176Y-118197232D01*
X98610094Y-118240432D01*
X98613451Y-118248189D01*
X98616134Y-118254389D01*
X98623058Y-118275325D01*
X98626532Y-118290136D01*
X98630605Y-118297544D01*
X98647538Y-118328346D01*
X98652676Y-118338835D01*
X98666637Y-118371097D01*
X98666640Y-118371102D01*
X98669995Y-118378855D01*
X98675312Y-118385421D01*
X98675313Y-118385423D01*
X98679567Y-118390676D01*
X98691857Y-118408965D01*
X98699193Y-118422308D01*
X98706197Y-118430422D01*
X98730809Y-118455034D01*
X98739494Y-118464679D01*
X98764914Y-118496070D01*
X98780384Y-118507064D01*
X98796234Y-118520459D01*
X101240442Y-120964666D01*
X101244037Y-120968414D01*
X101286099Y-121014156D01*
X101293283Y-121018610D01*
X101323162Y-121037136D01*
X101332790Y-121043753D01*
X101360784Y-121065002D01*
X101360787Y-121065004D01*
X101367517Y-121070112D01*
X101375375Y-121073223D01*
X101375380Y-121073226D01*
X101381655Y-121075710D01*
X101401356Y-121085618D01*
X101414286Y-121093635D01*
X101438587Y-121100695D01*
X101456158Y-121105800D01*
X101467209Y-121109584D01*
X101499892Y-121122524D01*
X101499895Y-121122525D01*
X101507753Y-121125636D01*
X101522882Y-121127226D01*
X101544517Y-121131471D01*
X101559125Y-121135715D01*
X101566624Y-121136266D01*
X101567540Y-121136333D01*
X101567542Y-121136333D01*
X101569815Y-121136500D01*
X101604622Y-121136500D01*
X101617583Y-121137179D01*
X101649348Y-121140518D01*
X101649351Y-121140518D01*
X101657754Y-121141401D01*
X101666084Y-121139992D01*
X101666087Y-121139992D01*
X101676467Y-121138236D01*
X101697146Y-121136500D01*
X107213343Y-121136500D01*
X107218536Y-121136609D01*
X107272146Y-121138856D01*
X107272147Y-121138856D01*
X107280594Y-121139210D01*
X107288825Y-121137279D01*
X107288829Y-121137279D01*
X107323047Y-121129253D01*
X107334532Y-121127124D01*
X107352388Y-121124678D01*
X107369360Y-121122353D01*
X107369361Y-121122353D01*
X107377732Y-121121206D01*
X107391690Y-121115166D01*
X107412625Y-121108242D01*
X107419203Y-121106699D01*
X107427436Y-121104768D01*
X107465648Y-121083761D01*
X107476135Y-121078624D01*
X107508397Y-121064663D01*
X107508402Y-121064660D01*
X107516155Y-121061305D01*
X107522721Y-121055988D01*
X107522723Y-121055987D01*
X107527976Y-121051733D01*
X107546265Y-121039443D01*
X107559608Y-121032107D01*
X107567722Y-121025103D01*
X107592334Y-121000491D01*
X107601979Y-120991806D01*
X107633370Y-120966386D01*
X107644364Y-120950916D01*
X107657759Y-120935066D01*
X107803696Y-120789129D01*
X107865019Y-120755644D01*
X107880133Y-120753321D01*
X108025281Y-120740112D01*
X108196082Y-120684615D01*
X108350344Y-120592657D01*
X108480399Y-120468807D01*
X108579783Y-120319222D01*
X108643557Y-120151336D01*
X108668551Y-119973493D01*
X108668865Y-119951000D01*
X108648846Y-119772528D01*
X108589785Y-119602927D01*
X108495099Y-119451398D01*
X108476267Y-119384114D01*
X108496801Y-119317330D01*
X108532171Y-119283324D01*
X108532155Y-119283305D01*
X108532380Y-119283123D01*
X108532381Y-119283122D01*
X108543976Y-119273733D01*
X108562265Y-119261443D01*
X108575608Y-119254107D01*
X108583722Y-119247103D01*
X108608334Y-119222491D01*
X108617979Y-119213806D01*
X108649370Y-119188386D01*
X108660364Y-119172916D01*
X108673759Y-119157066D01*
X109310366Y-118520459D01*
X109959203Y-117871621D01*
X110020526Y-117838136D01*
X110090218Y-117843120D01*
X110146151Y-117884992D01*
X110170412Y-117948494D01*
X110187665Y-118145692D01*
X110246561Y-118365496D01*
X110248848Y-118370400D01*
X110248850Y-118370406D01*
X110318822Y-118520459D01*
X110342732Y-118571734D01*
X110345839Y-118576171D01*
X110345840Y-118576173D01*
X110470147Y-118753704D01*
X110470151Y-118753708D01*
X110473253Y-118758139D01*
X110634161Y-118919047D01*
X110638592Y-118922149D01*
X110638596Y-118922153D01*
X110744265Y-118996142D01*
X110820566Y-119049568D01*
X110855449Y-119065834D01*
X110878575Y-119076618D01*
X110931014Y-119122790D01*
X110950166Y-119189984D01*
X110929950Y-119256865D01*
X110878576Y-119301382D01*
X110820566Y-119328432D01*
X110816129Y-119331539D01*
X110816127Y-119331540D01*
X110638596Y-119455847D01*
X110638592Y-119455851D01*
X110634161Y-119458953D01*
X110473253Y-119619861D01*
X110470151Y-119624292D01*
X110470147Y-119624296D01*
X110370939Y-119765982D01*
X110342732Y-119806266D01*
X110340442Y-119811177D01*
X110248850Y-120007594D01*
X110248848Y-120007600D01*
X110246561Y-120012504D01*
X110187665Y-120232308D01*
X110187194Y-120237693D01*
X110187193Y-120237698D01*
X110168304Y-120453605D01*
X110167832Y-120459000D01*
X110187665Y-120685692D01*
X110246561Y-120905496D01*
X110248848Y-120910400D01*
X110248850Y-120910406D01*
X110319216Y-121061305D01*
X110342732Y-121111734D01*
X110345839Y-121116171D01*
X110345840Y-121116173D01*
X110470147Y-121293704D01*
X110470151Y-121293708D01*
X110473253Y-121298139D01*
X110634161Y-121459047D01*
X110638592Y-121462149D01*
X110638596Y-121462153D01*
X110816127Y-121586460D01*
X110820566Y-121589568D01*
X110825477Y-121591858D01*
X111021894Y-121683450D01*
X111021900Y-121683452D01*
X111026804Y-121685739D01*
X111246608Y-121744635D01*
X111251993Y-121745106D01*
X111251998Y-121745107D01*
X111413815Y-121759264D01*
X111413822Y-121759264D01*
X111416516Y-121759500D01*
X111930084Y-121759500D01*
X111932778Y-121759264D01*
X111932785Y-121759264D01*
X112094602Y-121745107D01*
X112094607Y-121745106D01*
X112099992Y-121744635D01*
X112319796Y-121685739D01*
X112366009Y-121664190D01*
X112395212Y-121650572D01*
X112464290Y-121640080D01*
X112528074Y-121668600D01*
X112566313Y-121727076D01*
X112571617Y-121762871D01*
X112572188Y-122617123D01*
X112573063Y-123927629D01*
X112553424Y-123994680D01*
X112536639Y-124015497D01*
X110286082Y-126260500D01*
X107505240Y-129034477D01*
X107487082Y-129049437D01*
X107475972Y-129056942D01*
X107468069Y-129067072D01*
X107451078Y-129084879D01*
X107170327Y-129325921D01*
X107162202Y-129332327D01*
X106836305Y-129567942D01*
X106827677Y-129573647D01*
X106702784Y-129648940D01*
X106483279Y-129781269D01*
X106474203Y-129786237D01*
X106113677Y-129964433D01*
X106104219Y-129968626D01*
X105730110Y-130116139D01*
X105720345Y-130119526D01*
X105335220Y-130235343D01*
X105325196Y-130237906D01*
X104931781Y-130321208D01*
X104921579Y-130322927D01*
X104610396Y-130362091D01*
X104522582Y-130373143D01*
X104512278Y-130374006D01*
X104110473Y-130390783D01*
X104100127Y-130390783D01*
X103698322Y-130374006D01*
X103688018Y-130373143D01*
X103600204Y-130362091D01*
X103289021Y-130322927D01*
X103278819Y-130321208D01*
X102885404Y-130237906D01*
X102875380Y-130235343D01*
X102490255Y-130119526D01*
X102480490Y-130116139D01*
X102106381Y-129968626D01*
X102096923Y-129964433D01*
X101736397Y-129786237D01*
X101727321Y-129781269D01*
X101507816Y-129648940D01*
X101382923Y-129573647D01*
X101374295Y-129567942D01*
X101048398Y-129332327D01*
X101040273Y-129325921D01*
X100759522Y-129084879D01*
X100742531Y-129067072D01*
X100734628Y-129056942D01*
X100726545Y-129051482D01*
X100726543Y-129051480D01*
X100725065Y-129050482D01*
X100723998Y-129049761D01*
X100705648Y-129034610D01*
X97418212Y-125741000D01*
X100619859Y-125741000D01*
X100639610Y-126117871D01*
X100698647Y-126490613D01*
X100796322Y-126855143D01*
X100797480Y-126858159D01*
X100797482Y-126858166D01*
X100930402Y-127204434D01*
X100930406Y-127204442D01*
X100931566Y-127207465D01*
X101102897Y-127543720D01*
X101104663Y-127546440D01*
X101104668Y-127546448D01*
X101306665Y-127857497D01*
X101308437Y-127860225D01*
X101310478Y-127862745D01*
X101310482Y-127862751D01*
X101543895Y-128150992D01*
X101545935Y-128153511D01*
X101812789Y-128420365D01*
X101815306Y-128422403D01*
X101815308Y-128422405D01*
X102103549Y-128655818D01*
X102103555Y-128655822D01*
X102106075Y-128657863D01*
X102108798Y-128659631D01*
X102108803Y-128659635D01*
X102377143Y-128833897D01*
X102422579Y-128863403D01*
X102758835Y-129034734D01*
X102761858Y-129035894D01*
X102761866Y-129035898D01*
X103108134Y-129168818D01*
X103108141Y-129168820D01*
X103111157Y-129169978D01*
X103475687Y-129267653D01*
X103848429Y-129326690D01*
X103851661Y-129326859D01*
X103851667Y-129326860D01*
X104222056Y-129346271D01*
X104225300Y-129346441D01*
X104228544Y-129346271D01*
X104598933Y-129326860D01*
X104598939Y-129326859D01*
X104602171Y-129326690D01*
X104974913Y-129267653D01*
X105339443Y-129169978D01*
X105342459Y-129168820D01*
X105342466Y-129168818D01*
X105688734Y-129035898D01*
X105688742Y-129035894D01*
X105691765Y-129034734D01*
X106028021Y-128863403D01*
X106073457Y-128833897D01*
X106341797Y-128659635D01*
X106341802Y-128659631D01*
X106344525Y-128657863D01*
X106347045Y-128655822D01*
X106347051Y-128655818D01*
X106635292Y-128422405D01*
X106635294Y-128422403D01*
X106637811Y-128420365D01*
X106904665Y-128153511D01*
X106906705Y-128150992D01*
X107140118Y-127862751D01*
X107140122Y-127862745D01*
X107142163Y-127860225D01*
X107143935Y-127857497D01*
X107345932Y-127546448D01*
X107345937Y-127546440D01*
X107347703Y-127543720D01*
X107519034Y-127207465D01*
X107520194Y-127204442D01*
X107520198Y-127204434D01*
X107653118Y-126858166D01*
X107653120Y-126858159D01*
X107654278Y-126855143D01*
X107751953Y-126490613D01*
X107810990Y-126117871D01*
X107830741Y-125741000D01*
X107810990Y-125364129D01*
X107751953Y-124991387D01*
X107654278Y-124626857D01*
X107653118Y-124623834D01*
X107520198Y-124277566D01*
X107520194Y-124277558D01*
X107519034Y-124274535D01*
X107347703Y-123938280D01*
X107345937Y-123935560D01*
X107345932Y-123935552D01*
X107143935Y-123624503D01*
X107143931Y-123624498D01*
X107142163Y-123621775D01*
X107140122Y-123619255D01*
X107140118Y-123619249D01*
X106906705Y-123331008D01*
X106906703Y-123331006D01*
X106904665Y-123328489D01*
X106637811Y-123061635D01*
X106635292Y-123059595D01*
X106347051Y-122826182D01*
X106347045Y-122826178D01*
X106344525Y-122824137D01*
X106341802Y-122822369D01*
X106341797Y-122822365D01*
X106030748Y-122620368D01*
X106028021Y-122618597D01*
X105691765Y-122447266D01*
X105688742Y-122446106D01*
X105688734Y-122446102D01*
X105342466Y-122313182D01*
X105342459Y-122313180D01*
X105339443Y-122312022D01*
X104974913Y-122214347D01*
X104602171Y-122155310D01*
X104598939Y-122155141D01*
X104598933Y-122155140D01*
X104228544Y-122135729D01*
X104225300Y-122135559D01*
X104222056Y-122135729D01*
X103851667Y-122155140D01*
X103851661Y-122155141D01*
X103848429Y-122155310D01*
X103475687Y-122214347D01*
X103111157Y-122312022D01*
X103108141Y-122313180D01*
X103108134Y-122313182D01*
X102761866Y-122446102D01*
X102761858Y-122446106D01*
X102758835Y-122447266D01*
X102422580Y-122618597D01*
X102419860Y-122620363D01*
X102419852Y-122620368D01*
X102108803Y-122822365D01*
X102108798Y-122822369D01*
X102106075Y-122824137D01*
X102103555Y-122826178D01*
X102103549Y-122826182D01*
X101815308Y-123059595D01*
X101812789Y-123061635D01*
X101545935Y-123328489D01*
X101543897Y-123331006D01*
X101543895Y-123331008D01*
X101310482Y-123619249D01*
X101310478Y-123619255D01*
X101308437Y-123621775D01*
X101306669Y-123624498D01*
X101306665Y-123624503D01*
X101104668Y-123935552D01*
X101104663Y-123935560D01*
X101102897Y-123938280D01*
X100931566Y-124274535D01*
X100930406Y-124277558D01*
X100930402Y-124277566D01*
X100797482Y-124623834D01*
X100796322Y-124626857D01*
X100698647Y-124991387D01*
X100639610Y-125364129D01*
X100619859Y-125741000D01*
X97418212Y-125741000D01*
X95541956Y-123861221D01*
X95508529Y-123799868D01*
X95505720Y-123773437D01*
X95506794Y-123059595D01*
X95508764Y-121750540D01*
X95528550Y-121683532D01*
X95581422Y-121637856D01*
X95650596Y-121628017D01*
X95685169Y-121638346D01*
X95737825Y-121662899D01*
X95786804Y-121685739D01*
X96006608Y-121744635D01*
X96011993Y-121745106D01*
X96011998Y-121745107D01*
X96173815Y-121759264D01*
X96173822Y-121759264D01*
X96176516Y-121759500D01*
X96690084Y-121759500D01*
X96692778Y-121759264D01*
X96692785Y-121759264D01*
X96854602Y-121745107D01*
X96854607Y-121745106D01*
X96859992Y-121744635D01*
X97079796Y-121685739D01*
X97084700Y-121683452D01*
X97084706Y-121683450D01*
X97281123Y-121591858D01*
X97286034Y-121589568D01*
X97290473Y-121586460D01*
X97468004Y-121462153D01*
X97468008Y-121462149D01*
X97472439Y-121459047D01*
X97633347Y-121298139D01*
X97636449Y-121293708D01*
X97636453Y-121293704D01*
X97760760Y-121116173D01*
X97760761Y-121116171D01*
X97763868Y-121111734D01*
X97787384Y-121061305D01*
X97857750Y-120910406D01*
X97857752Y-120910400D01*
X97860039Y-120905496D01*
X97918935Y-120685692D01*
X97938768Y-120459000D01*
X97938296Y-120453605D01*
X97919407Y-120237698D01*
X97919406Y-120237693D01*
X97918935Y-120232308D01*
X97860039Y-120012504D01*
X97857752Y-120007600D01*
X97857750Y-120007594D01*
X97766158Y-119811177D01*
X97763868Y-119806266D01*
X97735661Y-119765982D01*
X97636453Y-119624296D01*
X97636449Y-119624292D01*
X97633347Y-119619861D01*
X97472439Y-119458953D01*
X97468008Y-119455851D01*
X97468004Y-119455847D01*
X97290473Y-119331540D01*
X97290471Y-119331539D01*
X97286034Y-119328432D01*
X97228024Y-119301382D01*
X97175586Y-119255210D01*
X97156434Y-119188016D01*
X97176650Y-119121135D01*
X97228025Y-119076618D01*
X97251152Y-119065834D01*
X97286034Y-119049568D01*
X97362335Y-118996142D01*
X97468004Y-118922153D01*
X97468008Y-118922149D01*
X97472439Y-118919047D01*
X97633347Y-118758139D01*
X97636449Y-118753708D01*
X97636453Y-118753704D01*
X97760760Y-118576173D01*
X97760761Y-118576171D01*
X97763868Y-118571734D01*
X97787778Y-118520459D01*
X97857750Y-118370406D01*
X97857752Y-118370400D01*
X97860039Y-118365496D01*
X97918935Y-118145692D01*
X97919406Y-118140307D01*
X97919407Y-118140302D01*
X97938296Y-117924395D01*
X97938768Y-117919000D01*
X97918935Y-117692308D01*
X97860039Y-117472504D01*
X97857752Y-117467600D01*
X97857750Y-117467594D01*
X97766158Y-117271177D01*
X97763868Y-117266266D01*
X97746762Y-117241836D01*
X97636453Y-117084296D01*
X97636449Y-117084292D01*
X97633347Y-117079861D01*
X97472439Y-116918953D01*
X97468008Y-116915851D01*
X97468004Y-116915847D01*
X97290473Y-116791540D01*
X97290471Y-116791539D01*
X97286034Y-116788432D01*
X97228024Y-116761382D01*
X97175586Y-116715210D01*
X97156434Y-116648016D01*
X97176650Y-116581135D01*
X97228025Y-116536618D01*
X97281123Y-116511858D01*
X97286034Y-116509568D01*
X97290473Y-116506460D01*
X97468004Y-116382153D01*
X97468008Y-116382149D01*
X97472439Y-116379047D01*
X97633347Y-116218139D01*
X97636449Y-116213708D01*
X97636453Y-116213704D01*
X97760760Y-116036173D01*
X97760761Y-116036171D01*
X97763868Y-116031734D01*
X97853526Y-115839464D01*
X97857750Y-115830406D01*
X97857752Y-115830400D01*
X97860039Y-115825496D01*
X97918935Y-115605692D01*
X97938768Y-115379000D01*
X97933908Y-115323451D01*
X97919407Y-115157698D01*
X97919406Y-115157693D01*
X97918935Y-115152308D01*
X97860039Y-114932504D01*
X97857752Y-114927600D01*
X97857750Y-114927594D01*
X97766158Y-114731177D01*
X97763868Y-114726266D01*
X97760760Y-114721827D01*
X97636453Y-114544296D01*
X97636449Y-114544292D01*
X97633347Y-114539861D01*
X97472439Y-114378953D01*
X97468008Y-114375851D01*
X97468004Y-114375847D01*
X97290473Y-114251540D01*
X97290471Y-114251539D01*
X97286034Y-114248432D01*
X97228024Y-114221382D01*
X97175586Y-114175210D01*
X97156434Y-114108016D01*
X97176650Y-114041135D01*
X97228025Y-113996618D01*
X97281123Y-113971858D01*
X97286034Y-113969568D01*
X97387238Y-113898705D01*
X97468004Y-113842153D01*
X97468008Y-113842149D01*
X97472439Y-113839047D01*
X97633347Y-113678139D01*
X97636449Y-113673708D01*
X97636453Y-113673704D01*
X97760760Y-113496173D01*
X97760761Y-113496171D01*
X97763868Y-113491734D01*
X97794903Y-113425180D01*
X97857750Y-113290406D01*
X97857752Y-113290400D01*
X97860039Y-113285496D01*
X97918935Y-113065692D01*
X97920070Y-113052725D01*
X97938296Y-112844395D01*
X97938768Y-112839000D01*
X97918935Y-112612308D01*
X97860039Y-112392504D01*
X97857752Y-112387600D01*
X97857750Y-112387594D01*
X97766158Y-112191177D01*
X97763868Y-112186266D01*
X97749268Y-112165415D01*
X97636453Y-112004296D01*
X97636449Y-112004292D01*
X97633347Y-111999861D01*
X97472439Y-111838953D01*
X97468008Y-111835851D01*
X97468004Y-111835847D01*
X97290473Y-111711540D01*
X97290471Y-111711539D01*
X97286034Y-111708432D01*
X97228024Y-111681382D01*
X97175586Y-111635210D01*
X97156434Y-111568016D01*
X97176650Y-111501135D01*
X97228025Y-111456618D01*
X97281123Y-111431858D01*
X97286034Y-111429568D01*
X97387238Y-111358705D01*
X97468004Y-111302153D01*
X97468008Y-111302149D01*
X97472439Y-111299047D01*
X97633347Y-111138139D01*
X97636449Y-111133708D01*
X97636453Y-111133704D01*
X97760763Y-110956169D01*
X97760765Y-110956166D01*
X97763868Y-110951734D01*
X97763930Y-110951601D01*
X97813318Y-110904509D01*
X97881925Y-110891286D01*
X97946790Y-110917254D01*
G37*
G04 #@! TD.AperFunction*
G04 #@! TA.AperFunction,Conductor*
G36*
X104555204Y-74289935D02*
G01*
X104565508Y-74290798D01*
X104653322Y-74301850D01*
X104964505Y-74341014D01*
X104974707Y-74342733D01*
X105368122Y-74426035D01*
X105378146Y-74428598D01*
X105763271Y-74544415D01*
X105773036Y-74547802D01*
X106075360Y-74667010D01*
X106147145Y-74695315D01*
X106156603Y-74699508D01*
X106517129Y-74877704D01*
X106526205Y-74882672D01*
X106870601Y-75090292D01*
X106879231Y-75095999D01*
X107205128Y-75331614D01*
X107213247Y-75338015D01*
X107440566Y-75533182D01*
X107494004Y-75579062D01*
X107510993Y-75596867D01*
X107518898Y-75606999D01*
X107526985Y-75612462D01*
X107530132Y-75614588D01*
X107548239Y-75629497D01*
X112507681Y-80570937D01*
X112541277Y-80632200D01*
X112544159Y-80658695D01*
X112546113Y-83583070D01*
X112526473Y-83650123D01*
X112473700Y-83695913D01*
X112404548Y-83705903D01*
X112369709Y-83695535D01*
X112324711Y-83674552D01*
X112324702Y-83674549D01*
X112319796Y-83672261D01*
X112099992Y-83613365D01*
X112094607Y-83612894D01*
X112094602Y-83612893D01*
X111932785Y-83598736D01*
X111932778Y-83598736D01*
X111930084Y-83598500D01*
X111416516Y-83598500D01*
X111413822Y-83598736D01*
X111413815Y-83598736D01*
X111251998Y-83612893D01*
X111251993Y-83612894D01*
X111246608Y-83613365D01*
X111026804Y-83672261D01*
X111021900Y-83674548D01*
X111021894Y-83674550D01*
X110841539Y-83758652D01*
X110820566Y-83768432D01*
X110816129Y-83771539D01*
X110816127Y-83771540D01*
X110638596Y-83895847D01*
X110638592Y-83895851D01*
X110634161Y-83898953D01*
X110473253Y-84059861D01*
X110470151Y-84064292D01*
X110470147Y-84064296D01*
X110461966Y-84075980D01*
X110342732Y-84246266D01*
X110340442Y-84251177D01*
X110248850Y-84447594D01*
X110248848Y-84447600D01*
X110246561Y-84452504D01*
X110187665Y-84672308D01*
X110167832Y-84899000D01*
X110187665Y-85125692D01*
X110246561Y-85345496D01*
X110248848Y-85350400D01*
X110248850Y-85350406D01*
X110270440Y-85396705D01*
X110342732Y-85551734D01*
X110345839Y-85556171D01*
X110345840Y-85556173D01*
X110470147Y-85733704D01*
X110470151Y-85733708D01*
X110473253Y-85738139D01*
X110634161Y-85899047D01*
X110638592Y-85902149D01*
X110638596Y-85902153D01*
X110789952Y-86008132D01*
X110833577Y-86062709D01*
X110840771Y-86132207D01*
X110809248Y-86194562D01*
X110788079Y-86212568D01*
X110597237Y-86341051D01*
X110589087Y-86347603D01*
X110424772Y-86504352D01*
X110417836Y-86512192D01*
X110282280Y-86694385D01*
X110276769Y-86703273D01*
X110173852Y-86905696D01*
X110169910Y-86915405D01*
X110102573Y-87132266D01*
X110100325Y-87142491D01*
X110096504Y-87171325D01*
X110098666Y-87185268D01*
X110111640Y-87189000D01*
X111799300Y-87189000D01*
X111866339Y-87208685D01*
X111912094Y-87261489D01*
X111923300Y-87313000D01*
X111923300Y-87565000D01*
X111903615Y-87632039D01*
X111850811Y-87677794D01*
X111799300Y-87689000D01*
X110113068Y-87689000D01*
X110099751Y-87692910D01*
X110098249Y-87703352D01*
X110126420Y-87837613D01*
X110129430Y-87847647D01*
X110212841Y-88058857D01*
X110217492Y-88068228D01*
X110335299Y-88262366D01*
X110341466Y-88270823D01*
X110490297Y-88442337D01*
X110497802Y-88449634D01*
X110673405Y-88593620D01*
X110682026Y-88599545D01*
X110784202Y-88657707D01*
X110832725Y-88707979D01*
X110846367Y-88776504D01*
X110820796Y-88841526D01*
X110793982Y-88867046D01*
X110638596Y-88975847D01*
X110638592Y-88975851D01*
X110634161Y-88978953D01*
X110473253Y-89139861D01*
X110470151Y-89144292D01*
X110470147Y-89144296D01*
X110359747Y-89301966D01*
X110342732Y-89326266D01*
X110340442Y-89331177D01*
X110248850Y-89527594D01*
X110248848Y-89527600D01*
X110246561Y-89532504D01*
X110187665Y-89752308D01*
X110187194Y-89757693D01*
X110187193Y-89757698D01*
X110178444Y-89857705D01*
X110167832Y-89979000D01*
X110168304Y-89984395D01*
X110176275Y-90075500D01*
X110187665Y-90205692D01*
X110246561Y-90425496D01*
X110248848Y-90430400D01*
X110248850Y-90430406D01*
X110316509Y-90575500D01*
X110342732Y-90631734D01*
X110345839Y-90636171D01*
X110345840Y-90636173D01*
X110470147Y-90813704D01*
X110470151Y-90813708D01*
X110473253Y-90818139D01*
X110634161Y-90979047D01*
X110638592Y-90982149D01*
X110638596Y-90982153D01*
X110793982Y-91090954D01*
X110820566Y-91109568D01*
X110825477Y-91111858D01*
X110878575Y-91136618D01*
X110931014Y-91182790D01*
X110950166Y-91249984D01*
X110929950Y-91316865D01*
X110878576Y-91361382D01*
X110820566Y-91388432D01*
X110816129Y-91391539D01*
X110816127Y-91391540D01*
X110638596Y-91515847D01*
X110638592Y-91515851D01*
X110634161Y-91518953D01*
X110473253Y-91679861D01*
X110470151Y-91684292D01*
X110470147Y-91684296D01*
X110385468Y-91805232D01*
X110342732Y-91866266D01*
X110340442Y-91871177D01*
X110248850Y-92067594D01*
X110248848Y-92067600D01*
X110246561Y-92072504D01*
X110187665Y-92292308D01*
X110187194Y-92297693D01*
X110187193Y-92297698D01*
X110177473Y-92408801D01*
X110167832Y-92519000D01*
X110168304Y-92524395D01*
X110186979Y-92737847D01*
X110187665Y-92745692D01*
X110246561Y-92965496D01*
X110248848Y-92970400D01*
X110248850Y-92970406D01*
X110324241Y-93132080D01*
X110342732Y-93171734D01*
X110345839Y-93176171D01*
X110345840Y-93176173D01*
X110470147Y-93353704D01*
X110470151Y-93353708D01*
X110473253Y-93358139D01*
X110634161Y-93519047D01*
X110638592Y-93522149D01*
X110638596Y-93522153D01*
X110802064Y-93636613D01*
X110820566Y-93649568D01*
X110825477Y-93651858D01*
X110878575Y-93676618D01*
X110931014Y-93722790D01*
X110950166Y-93789984D01*
X110929950Y-93856865D01*
X110878576Y-93901382D01*
X110820566Y-93928432D01*
X110816129Y-93931539D01*
X110816127Y-93931540D01*
X110638596Y-94055847D01*
X110638592Y-94055851D01*
X110634161Y-94058953D01*
X110473253Y-94219861D01*
X110470151Y-94224292D01*
X110470147Y-94224296D01*
X110353850Y-94390388D01*
X110342732Y-94406266D01*
X110340442Y-94411177D01*
X110248850Y-94607594D01*
X110248848Y-94607600D01*
X110246561Y-94612504D01*
X110187665Y-94832308D01*
X110187194Y-94837693D01*
X110187193Y-94837698D01*
X110180751Y-94911330D01*
X110167832Y-95059000D01*
X110168304Y-95064395D01*
X110184791Y-95252839D01*
X110187665Y-95285692D01*
X110246561Y-95505496D01*
X110248848Y-95510400D01*
X110248850Y-95510406D01*
X110317153Y-95656881D01*
X110342732Y-95711734D01*
X110345839Y-95716171D01*
X110345840Y-95716173D01*
X110470147Y-95893704D01*
X110470151Y-95893708D01*
X110473253Y-95898139D01*
X110634161Y-96059047D01*
X110638592Y-96062149D01*
X110638596Y-96062153D01*
X110757754Y-96145587D01*
X110820566Y-96189568D01*
X110825477Y-96191858D01*
X110878575Y-96216618D01*
X110931014Y-96262790D01*
X110950166Y-96329984D01*
X110929950Y-96396865D01*
X110878576Y-96441382D01*
X110820566Y-96468432D01*
X110816129Y-96471539D01*
X110816127Y-96471540D01*
X110638596Y-96595847D01*
X110638592Y-96595851D01*
X110634161Y-96598953D01*
X110473253Y-96759861D01*
X110470151Y-96764292D01*
X110470147Y-96764296D01*
X110345840Y-96941827D01*
X110342732Y-96946266D01*
X110340442Y-96951177D01*
X110248850Y-97147594D01*
X110248848Y-97147600D01*
X110246561Y-97152504D01*
X110187665Y-97372308D01*
X110187194Y-97377693D01*
X110187193Y-97377698D01*
X110180861Y-97450080D01*
X110167832Y-97599000D01*
X110168304Y-97604395D01*
X110186807Y-97815881D01*
X110187665Y-97825692D01*
X110246561Y-98045496D01*
X110248848Y-98050400D01*
X110248850Y-98050406D01*
X110309204Y-98179834D01*
X110342732Y-98251734D01*
X110345839Y-98256171D01*
X110345840Y-98256173D01*
X110470147Y-98433704D01*
X110470151Y-98433708D01*
X110473253Y-98438139D01*
X110634161Y-98599047D01*
X110638592Y-98602149D01*
X110638596Y-98602153D01*
X110777158Y-98699174D01*
X110820566Y-98729568D01*
X110825477Y-98731858D01*
X110878575Y-98756618D01*
X110931014Y-98802790D01*
X110950166Y-98869984D01*
X110929950Y-98936865D01*
X110878576Y-98981382D01*
X110820566Y-99008432D01*
X110816129Y-99011539D01*
X110816127Y-99011540D01*
X110638596Y-99135847D01*
X110638592Y-99135851D01*
X110634161Y-99138953D01*
X110473253Y-99299861D01*
X110470151Y-99304292D01*
X110470147Y-99304296D01*
X110394218Y-99412735D01*
X110342732Y-99486266D01*
X110340442Y-99491177D01*
X110248850Y-99687594D01*
X110248848Y-99687600D01*
X110246561Y-99692504D01*
X110187665Y-99912308D01*
X110187194Y-99917693D01*
X110187193Y-99917698D01*
X110180243Y-99997137D01*
X110167832Y-100139000D01*
X110168304Y-100144395D01*
X110179707Y-100274729D01*
X110187665Y-100365692D01*
X110246561Y-100585496D01*
X110274017Y-100644376D01*
X110284509Y-100713451D01*
X110255990Y-100777235D01*
X110249316Y-100784460D01*
X108876634Y-102157142D01*
X108872886Y-102160737D01*
X108833365Y-102197078D01*
X108833363Y-102197080D01*
X108827144Y-102202799D01*
X108822690Y-102209983D01*
X108804164Y-102239862D01*
X108797547Y-102249490D01*
X108776298Y-102277484D01*
X108776296Y-102277487D01*
X108771188Y-102284217D01*
X108768077Y-102292075D01*
X108768074Y-102292080D01*
X108765590Y-102298355D01*
X108755682Y-102318056D01*
X108747665Y-102330986D01*
X108745307Y-102339103D01*
X108735500Y-102372858D01*
X108731716Y-102383909D01*
X108718776Y-102416592D01*
X108715664Y-102424453D01*
X108714781Y-102432857D01*
X108714074Y-102439581D01*
X108709829Y-102461216D01*
X108705585Y-102475825D01*
X108704800Y-102486515D01*
X108704800Y-102521322D01*
X108704121Y-102534282D01*
X108699899Y-102574454D01*
X108701308Y-102582784D01*
X108701308Y-102582787D01*
X108703064Y-102593167D01*
X108704800Y-102613846D01*
X108704800Y-115170434D01*
X108685115Y-115237473D01*
X108632311Y-115283228D01*
X108563153Y-115293172D01*
X108499597Y-115264147D01*
X108492814Y-115257809D01*
X108372958Y-115137114D01*
X108372952Y-115137109D01*
X108368070Y-115132193D01*
X108216436Y-115035963D01*
X108192984Y-115027612D01*
X108053779Y-114978043D01*
X108053775Y-114978042D01*
X108047251Y-114975719D01*
X107880883Y-114955881D01*
X107816646Y-114928397D01*
X107777465Y-114870547D01*
X107775780Y-114800698D01*
X107783927Y-114778781D01*
X107789827Y-114766577D01*
X107798000Y-114731177D01*
X107829045Y-114596705D01*
X107829045Y-114596704D01*
X107830226Y-114591589D01*
X107830500Y-114586837D01*
X107830499Y-113611164D01*
X107830226Y-113606411D01*
X107789827Y-113431423D01*
X107711664Y-113269734D01*
X107599620Y-113129380D01*
X107459266Y-113017336D01*
X107460048Y-113016356D01*
X107418554Y-112969347D01*
X107407976Y-112900282D01*
X107439813Y-112832635D01*
X107586501Y-112673949D01*
X107704236Y-112487350D01*
X107785994Y-112282421D01*
X107829038Y-112066024D01*
X107829847Y-112004296D01*
X107831852Y-111851095D01*
X107831852Y-111851090D01*
X107831926Y-111845406D01*
X107830817Y-111838953D01*
X107795525Y-111633560D01*
X107795524Y-111633557D01*
X107794562Y-111627957D01*
X107718196Y-111420957D01*
X107605386Y-111231341D01*
X107459910Y-111065457D01*
X107455451Y-111061942D01*
X107455447Y-111061938D01*
X107322466Y-110957105D01*
X107282006Y-110900143D01*
X107278764Y-110830349D01*
X107313771Y-110769881D01*
X107325042Y-110760371D01*
X107393016Y-110709612D01*
X107436733Y-110676967D01*
X107586501Y-110514949D01*
X107704236Y-110328350D01*
X107785994Y-110123421D01*
X107790868Y-110098921D01*
X107826390Y-109920334D01*
X107829038Y-109907024D01*
X107829431Y-109877065D01*
X107831852Y-109692095D01*
X107831852Y-109692090D01*
X107831926Y-109686406D01*
X107824266Y-109641827D01*
X107795525Y-109474560D01*
X107795524Y-109474557D01*
X107794562Y-109468957D01*
X107718196Y-109261957D01*
X107605386Y-109072341D01*
X107459910Y-108906457D01*
X107455451Y-108902942D01*
X107455447Y-108902938D01*
X107322466Y-108798105D01*
X107282006Y-108741143D01*
X107278764Y-108671349D01*
X107313771Y-108610881D01*
X107325042Y-108601371D01*
X107427724Y-108524694D01*
X107436733Y-108517967D01*
X107586501Y-108355949D01*
X107615808Y-108309500D01*
X107701202Y-108174159D01*
X107701203Y-108174157D01*
X107704236Y-108169350D01*
X107785994Y-107964421D01*
X107790868Y-107939921D01*
X107807516Y-107856223D01*
X107829038Y-107748024D01*
X107829434Y-107717832D01*
X107831852Y-107533095D01*
X107831852Y-107533090D01*
X107831926Y-107527406D01*
X107794562Y-107309957D01*
X107718196Y-107102957D01*
X107605386Y-106913341D01*
X107459910Y-106747457D01*
X107455451Y-106743942D01*
X107455447Y-106743938D01*
X107322466Y-106639105D01*
X107282006Y-106582143D01*
X107278764Y-106512349D01*
X107313771Y-106451881D01*
X107325042Y-106442371D01*
X107357851Y-106417871D01*
X107436733Y-106358967D01*
X107586501Y-106196949D01*
X107671668Y-106061968D01*
X107701202Y-106015159D01*
X107701203Y-106015157D01*
X107704236Y-106010350D01*
X107785994Y-105805421D01*
X107790868Y-105780921D01*
X107827927Y-105594608D01*
X107829038Y-105589024D01*
X107829434Y-105558832D01*
X107831852Y-105374095D01*
X107831852Y-105374090D01*
X107831926Y-105368406D01*
X107794562Y-105150957D01*
X107718196Y-104943957D01*
X107605386Y-104754341D01*
X107459910Y-104588457D01*
X107455451Y-104584942D01*
X107455447Y-104584938D01*
X107322466Y-104480105D01*
X107282006Y-104423143D01*
X107278764Y-104353349D01*
X107313771Y-104292881D01*
X107325042Y-104283371D01*
X107406180Y-104222782D01*
X107436733Y-104199967D01*
X107586501Y-104037949D01*
X107642624Y-103949000D01*
X107701202Y-103856159D01*
X107701203Y-103856157D01*
X107704236Y-103851350D01*
X107785994Y-103646421D01*
X107829038Y-103430024D01*
X107829158Y-103420930D01*
X107831852Y-103215095D01*
X107831852Y-103215090D01*
X107831926Y-103209406D01*
X107801013Y-103029500D01*
X107795525Y-102997560D01*
X107795524Y-102997557D01*
X107794562Y-102991957D01*
X107718196Y-102784957D01*
X107605386Y-102595341D01*
X107459910Y-102429457D01*
X107455451Y-102425942D01*
X107455447Y-102425938D01*
X107322466Y-102321105D01*
X107282006Y-102264143D01*
X107278764Y-102194349D01*
X107313771Y-102133881D01*
X107325042Y-102124371D01*
X107436733Y-102040967D01*
X107586501Y-101878949D01*
X107589536Y-101874139D01*
X107701202Y-101697159D01*
X107701203Y-101697157D01*
X107704236Y-101692350D01*
X107785994Y-101487421D01*
X107829038Y-101271024D01*
X107831926Y-101050406D01*
X107830963Y-101044801D01*
X107795525Y-100838560D01*
X107795524Y-100838557D01*
X107794562Y-100832957D01*
X107718196Y-100625957D01*
X107605386Y-100436341D01*
X107459910Y-100270457D01*
X107455451Y-100266942D01*
X107455447Y-100266938D01*
X107322466Y-100162105D01*
X107282006Y-100105143D01*
X107278764Y-100035349D01*
X107313771Y-99974881D01*
X107325042Y-99965371D01*
X107436733Y-99881967D01*
X107586501Y-99719949D01*
X107600516Y-99697737D01*
X107701202Y-99538159D01*
X107701203Y-99538157D01*
X107704236Y-99533350D01*
X107785994Y-99328421D01*
X107829038Y-99112024D01*
X107830354Y-99011540D01*
X107831852Y-98897095D01*
X107831852Y-98897090D01*
X107831926Y-98891406D01*
X107801013Y-98711500D01*
X107795525Y-98679560D01*
X107795524Y-98679557D01*
X107794562Y-98673957D01*
X107718196Y-98466957D01*
X107605386Y-98277341D01*
X107459910Y-98111457D01*
X107455451Y-98107942D01*
X107455447Y-98107938D01*
X107322466Y-98003105D01*
X107282006Y-97946143D01*
X107278764Y-97876349D01*
X107313771Y-97815881D01*
X107325042Y-97806371D01*
X107436733Y-97722967D01*
X107586501Y-97560949D01*
X107589536Y-97556139D01*
X107701202Y-97379159D01*
X107701203Y-97379157D01*
X107704236Y-97374350D01*
X107785994Y-97169421D01*
X107829038Y-96953024D01*
X107829127Y-96946266D01*
X107831852Y-96738095D01*
X107831852Y-96738090D01*
X107831926Y-96732406D01*
X107826591Y-96701356D01*
X107795525Y-96520560D01*
X107795524Y-96520557D01*
X107794562Y-96514957D01*
X107718196Y-96307957D01*
X107605386Y-96118341D01*
X107459910Y-95952457D01*
X107455451Y-95948942D01*
X107455447Y-95948938D01*
X107322466Y-95844105D01*
X107282006Y-95787143D01*
X107278764Y-95717349D01*
X107313771Y-95656881D01*
X107325042Y-95647371D01*
X107335663Y-95639440D01*
X107436733Y-95563967D01*
X107586501Y-95401949D01*
X107605544Y-95371768D01*
X107651437Y-95299032D01*
X107703858Y-95252839D01*
X107756307Y-95241200D01*
X107975643Y-95241200D01*
X107980836Y-95241309D01*
X108034446Y-95243556D01*
X108034447Y-95243556D01*
X108042894Y-95243910D01*
X108051125Y-95241979D01*
X108051129Y-95241979D01*
X108085347Y-95233953D01*
X108096832Y-95231824D01*
X108114688Y-95229378D01*
X108131660Y-95227053D01*
X108131661Y-95227053D01*
X108140032Y-95225906D01*
X108153990Y-95219866D01*
X108174925Y-95212942D01*
X108181503Y-95211399D01*
X108189736Y-95209468D01*
X108227948Y-95188461D01*
X108238435Y-95183324D01*
X108270697Y-95169363D01*
X108270702Y-95169360D01*
X108278455Y-95166005D01*
X108285021Y-95160688D01*
X108285023Y-95160687D01*
X108290276Y-95156433D01*
X108308565Y-95144143D01*
X108321908Y-95136807D01*
X108330022Y-95129803D01*
X108354634Y-95105191D01*
X108364279Y-95096506D01*
X108366466Y-95094735D01*
X108395670Y-95071086D01*
X108406664Y-95055616D01*
X108420059Y-95039766D01*
X109133967Y-94325857D01*
X109137715Y-94322262D01*
X109177235Y-94285922D01*
X109177237Y-94285920D01*
X109183456Y-94280201D01*
X109206436Y-94243138D01*
X109213053Y-94233510D01*
X109234302Y-94205516D01*
X109234304Y-94205513D01*
X109239412Y-94198783D01*
X109242523Y-94190925D01*
X109242526Y-94190920D01*
X109245010Y-94184645D01*
X109254918Y-94164944D01*
X109258480Y-94159199D01*
X109262935Y-94152014D01*
X109275100Y-94110142D01*
X109278884Y-94099091D01*
X109291824Y-94066408D01*
X109291825Y-94066405D01*
X109294936Y-94058547D01*
X109296526Y-94043418D01*
X109300771Y-94021784D01*
X109303201Y-94013419D01*
X109305015Y-94007175D01*
X109305800Y-93996485D01*
X109305800Y-93961678D01*
X109306479Y-93948717D01*
X109309818Y-93916952D01*
X109309818Y-93916949D01*
X109310701Y-93908546D01*
X109307536Y-93889833D01*
X109305800Y-93869154D01*
X109305800Y-89680957D01*
X109305909Y-89675764D01*
X109308156Y-89622154D01*
X109308156Y-89622153D01*
X109308510Y-89613706D01*
X109306579Y-89605475D01*
X109306579Y-89605471D01*
X109298553Y-89571253D01*
X109296423Y-89559764D01*
X109291653Y-89524940D01*
X109291653Y-89524939D01*
X109290506Y-89516568D01*
X109284466Y-89502610D01*
X109277542Y-89481675D01*
X109275999Y-89475097D01*
X109274068Y-89466864D01*
X109253061Y-89428652D01*
X109247924Y-89418165D01*
X109233963Y-89385903D01*
X109233960Y-89385898D01*
X109230605Y-89378145D01*
X109221033Y-89366324D01*
X109208740Y-89348031D01*
X109201407Y-89334692D01*
X109197072Y-89329669D01*
X109195888Y-89328298D01*
X109195884Y-89328294D01*
X109194403Y-89326578D01*
X109169791Y-89301966D01*
X109161106Y-89292321D01*
X109141005Y-89267499D01*
X109135686Y-89260930D01*
X109120216Y-89249936D01*
X109104366Y-89236541D01*
X107817158Y-87949334D01*
X107813563Y-87945586D01*
X107777222Y-87906065D01*
X107777220Y-87906063D01*
X107771501Y-87899844D01*
X107734438Y-87876864D01*
X107724810Y-87870247D01*
X107696816Y-87848998D01*
X107696813Y-87848996D01*
X107690083Y-87843888D01*
X107682225Y-87840777D01*
X107682220Y-87840774D01*
X107675945Y-87838290D01*
X107656244Y-87828382D01*
X107650499Y-87824820D01*
X107643314Y-87820365D01*
X107604994Y-87809232D01*
X107601442Y-87808200D01*
X107590391Y-87804416D01*
X107557708Y-87791476D01*
X107557705Y-87791475D01*
X107549847Y-87788364D01*
X107534718Y-87786774D01*
X107513084Y-87782529D01*
X107498473Y-87778284D01*
X107499246Y-87775622D01*
X107447657Y-87749814D01*
X107411990Y-87689734D01*
X107408527Y-87649460D01*
X107409239Y-87644966D01*
X107409238Y-86731929D01*
X107394385Y-86638143D01*
X107336789Y-86525105D01*
X107247081Y-86435397D01*
X107238383Y-86430965D01*
X107201943Y-86412397D01*
X107151148Y-86364422D01*
X107134239Y-86301913D01*
X107134239Y-82724426D01*
X107134348Y-82719233D01*
X107136595Y-82665623D01*
X107136595Y-82665622D01*
X107136949Y-82657175D01*
X107135018Y-82648944D01*
X107135018Y-82648940D01*
X107126992Y-82614722D01*
X107124862Y-82603233D01*
X107120092Y-82568409D01*
X107120092Y-82568408D01*
X107118945Y-82560037D01*
X107112905Y-82546079D01*
X107105981Y-82525144D01*
X107104438Y-82518566D01*
X107102507Y-82510333D01*
X107081500Y-82472121D01*
X107076363Y-82461634D01*
X107062402Y-82429372D01*
X107062399Y-82429367D01*
X107059044Y-82421614D01*
X107049472Y-82409793D01*
X107037179Y-82391500D01*
X107036803Y-82390816D01*
X107029846Y-82378161D01*
X107022842Y-82370047D01*
X106998230Y-82345435D01*
X106989545Y-82335790D01*
X106969444Y-82310968D01*
X106964125Y-82304399D01*
X106948655Y-82293405D01*
X106932805Y-82280010D01*
X106522381Y-81869586D01*
X106488896Y-81808263D01*
X106493880Y-81738571D01*
X106532026Y-81685539D01*
X106585292Y-81642405D01*
X106585294Y-81642403D01*
X106587811Y-81640365D01*
X106854665Y-81373511D01*
X106856705Y-81370992D01*
X107090118Y-81082751D01*
X107090122Y-81082745D01*
X107092163Y-81080225D01*
X107093935Y-81077497D01*
X107295932Y-80766448D01*
X107295937Y-80766440D01*
X107297703Y-80763720D01*
X107469034Y-80427465D01*
X107470194Y-80424442D01*
X107470198Y-80424434D01*
X107603118Y-80078166D01*
X107603120Y-80078159D01*
X107604278Y-80075143D01*
X107701953Y-79710613D01*
X107760990Y-79337871D01*
X107780741Y-78961000D01*
X107760990Y-78584129D01*
X107701953Y-78211387D01*
X107604278Y-77846857D01*
X107603118Y-77843834D01*
X107470198Y-77497566D01*
X107470194Y-77497558D01*
X107469034Y-77494535D01*
X107297703Y-77158280D01*
X107295937Y-77155560D01*
X107295932Y-77155552D01*
X107093935Y-76844503D01*
X107093931Y-76844498D01*
X107092163Y-76841775D01*
X107090122Y-76839255D01*
X107090118Y-76839249D01*
X106856705Y-76551008D01*
X106856703Y-76551006D01*
X106854665Y-76548489D01*
X106587811Y-76281635D01*
X106585292Y-76279595D01*
X106297051Y-76046182D01*
X106297045Y-76046178D01*
X106294525Y-76044137D01*
X106291802Y-76042369D01*
X106291797Y-76042365D01*
X105980748Y-75840368D01*
X105978021Y-75838597D01*
X105641765Y-75667266D01*
X105638742Y-75666106D01*
X105638734Y-75666102D01*
X105292466Y-75533182D01*
X105292459Y-75533180D01*
X105289443Y-75532022D01*
X104924913Y-75434347D01*
X104552171Y-75375310D01*
X104548939Y-75375141D01*
X104548933Y-75375140D01*
X104178544Y-75355729D01*
X104175300Y-75355559D01*
X104172056Y-75355729D01*
X103801667Y-75375140D01*
X103801661Y-75375141D01*
X103798429Y-75375310D01*
X103425687Y-75434347D01*
X103061157Y-75532022D01*
X103058141Y-75533180D01*
X103058134Y-75533182D01*
X102711866Y-75666102D01*
X102711858Y-75666106D01*
X102708835Y-75667266D01*
X102372580Y-75838597D01*
X102369860Y-75840363D01*
X102369852Y-75840368D01*
X102058803Y-76042365D01*
X102058798Y-76042369D01*
X102056075Y-76044137D01*
X102053555Y-76046178D01*
X102053549Y-76046182D01*
X101765308Y-76279595D01*
X101762789Y-76281635D01*
X101495935Y-76548489D01*
X101493897Y-76551006D01*
X101493895Y-76551008D01*
X101260482Y-76839249D01*
X101260478Y-76839255D01*
X101258437Y-76841775D01*
X101256669Y-76844498D01*
X101256665Y-76844503D01*
X101054668Y-77155552D01*
X101054663Y-77155560D01*
X101052897Y-77158280D01*
X100881566Y-77494535D01*
X100880406Y-77497558D01*
X100880402Y-77497566D01*
X100747482Y-77843834D01*
X100746322Y-77846857D01*
X100648647Y-78211387D01*
X100589610Y-78584129D01*
X100569859Y-78961000D01*
X100589610Y-79337871D01*
X100648647Y-79710613D01*
X100746322Y-80075143D01*
X100747480Y-80078159D01*
X100747482Y-80078166D01*
X100880402Y-80424434D01*
X100880406Y-80424442D01*
X100881566Y-80427465D01*
X101052897Y-80763720D01*
X101054663Y-80766440D01*
X101054668Y-80766448D01*
X101256665Y-81077497D01*
X101258437Y-81080225D01*
X101260478Y-81082745D01*
X101260482Y-81082751D01*
X101493895Y-81370992D01*
X101495935Y-81373511D01*
X101762789Y-81640365D01*
X101765306Y-81642403D01*
X101765308Y-81642405D01*
X102053549Y-81875818D01*
X102053555Y-81875822D01*
X102056075Y-81877863D01*
X102058798Y-81879631D01*
X102058803Y-81879635D01*
X102327143Y-82053897D01*
X102372579Y-82083403D01*
X102708835Y-82254734D01*
X102711858Y-82255894D01*
X102711866Y-82255898D01*
X103058134Y-82388818D01*
X103058141Y-82388820D01*
X103061157Y-82389978D01*
X103425687Y-82487653D01*
X103798429Y-82546690D01*
X103801661Y-82546859D01*
X103801667Y-82546860D01*
X104172056Y-82566271D01*
X104175300Y-82566441D01*
X104178544Y-82566271D01*
X104548933Y-82546860D01*
X104548939Y-82546859D01*
X104552171Y-82546690D01*
X104924913Y-82487653D01*
X105289443Y-82389978D01*
X105356102Y-82364390D01*
X105425740Y-82358742D01*
X105488219Y-82392473D01*
X105996920Y-82901174D01*
X106030405Y-82962497D01*
X106033239Y-82988855D01*
X106033239Y-86301913D01*
X106013554Y-86368952D01*
X105965535Y-86412397D01*
X105929095Y-86430965D01*
X105920397Y-86435397D01*
X105830689Y-86525105D01*
X105773093Y-86638143D01*
X105758239Y-86731928D01*
X105758240Y-87644965D01*
X105758258Y-87645077D01*
X105744160Y-87712157D01*
X105695104Y-87761910D01*
X105634911Y-87777500D01*
X102822739Y-87777500D01*
X102755700Y-87757815D01*
X102709945Y-87705011D01*
X102698739Y-87653500D01*
X102698739Y-87516277D01*
X102694335Y-87501278D01*
X102692965Y-87500091D01*
X102685407Y-87498447D01*
X100866569Y-87498447D01*
X100851570Y-87502851D01*
X100850383Y-87504221D01*
X100848739Y-87511779D01*
X100848739Y-87712493D01*
X100829054Y-87779532D01*
X100784474Y-87821156D01*
X100767953Y-87830238D01*
X100757465Y-87835376D01*
X100725203Y-87849337D01*
X100725198Y-87849340D01*
X100717445Y-87852695D01*
X100710879Y-87858012D01*
X100710877Y-87858013D01*
X100705624Y-87862267D01*
X100687335Y-87874557D01*
X100673992Y-87881893D01*
X100665878Y-87888897D01*
X100641266Y-87913509D01*
X100631621Y-87922194D01*
X100600230Y-87947614D01*
X100595334Y-87954504D01*
X100589236Y-87963084D01*
X100575841Y-87978934D01*
X99483634Y-89071142D01*
X99479886Y-89074737D01*
X99440365Y-89111078D01*
X99440363Y-89111080D01*
X99434144Y-89116799D01*
X99429690Y-89123983D01*
X99411164Y-89153862D01*
X99404547Y-89163490D01*
X99383298Y-89191484D01*
X99383296Y-89191487D01*
X99378188Y-89198217D01*
X99375077Y-89206075D01*
X99375074Y-89206080D01*
X99372590Y-89212355D01*
X99362682Y-89232056D01*
X99359901Y-89236541D01*
X99354665Y-89244986D01*
X99352307Y-89253103D01*
X99342500Y-89286858D01*
X99338716Y-89297909D01*
X99325776Y-89330592D01*
X99322664Y-89338453D01*
X99321074Y-89353581D01*
X99316829Y-89375216D01*
X99312585Y-89389825D01*
X99311800Y-89400515D01*
X99311800Y-89435322D01*
X99311121Y-89448283D01*
X99308303Y-89475097D01*
X99306899Y-89488454D01*
X99308308Y-89496784D01*
X99308308Y-89496787D01*
X99310064Y-89507167D01*
X99311800Y-89527846D01*
X99311800Y-93636613D01*
X99292115Y-93703652D01*
X99275481Y-93724294D01*
X98400595Y-94599181D01*
X98339272Y-94632666D01*
X98312914Y-94635500D01*
X97949759Y-94635500D01*
X97882720Y-94615815D01*
X97837377Y-94563905D01*
X97766158Y-94411177D01*
X97763868Y-94406266D01*
X97752750Y-94390388D01*
X97636453Y-94224296D01*
X97636449Y-94224292D01*
X97633347Y-94219861D01*
X97472439Y-94058953D01*
X97468008Y-94055851D01*
X97468004Y-94055847D01*
X97316648Y-93949868D01*
X97273023Y-93895291D01*
X97265829Y-93825793D01*
X97297352Y-93763438D01*
X97318521Y-93745432D01*
X97509363Y-93616949D01*
X97517513Y-93610397D01*
X97681828Y-93453648D01*
X97688764Y-93445808D01*
X97824320Y-93263615D01*
X97829831Y-93254727D01*
X97932748Y-93052304D01*
X97936690Y-93042595D01*
X98004027Y-92825734D01*
X98006275Y-92815509D01*
X98010096Y-92786675D01*
X98007934Y-92772732D01*
X97994960Y-92769000D01*
X96307300Y-92769000D01*
X96240261Y-92749315D01*
X96194506Y-92696511D01*
X96183300Y-92645000D01*
X96183300Y-92393000D01*
X96202985Y-92325961D01*
X96255789Y-92280206D01*
X96307300Y-92269000D01*
X97993532Y-92269000D01*
X98006849Y-92265090D01*
X98008351Y-92254648D01*
X97980180Y-92120387D01*
X97977170Y-92110353D01*
X97893759Y-91899143D01*
X97889108Y-91889772D01*
X97771301Y-91695634D01*
X97765134Y-91687177D01*
X97616303Y-91515663D01*
X97608798Y-91508366D01*
X97433195Y-91364380D01*
X97424574Y-91358455D01*
X97322398Y-91300293D01*
X97273875Y-91250021D01*
X97260233Y-91181496D01*
X97285804Y-91116474D01*
X97312618Y-91090954D01*
X97468004Y-90982153D01*
X97468008Y-90982149D01*
X97472439Y-90979047D01*
X97633347Y-90818139D01*
X97636449Y-90813708D01*
X97636453Y-90813704D01*
X97760760Y-90636173D01*
X97760761Y-90636171D01*
X97763868Y-90631734D01*
X97790091Y-90575500D01*
X97857750Y-90430406D01*
X97857752Y-90430400D01*
X97860039Y-90425496D01*
X97918935Y-90205692D01*
X97930326Y-90075500D01*
X97938296Y-89984395D01*
X97938768Y-89979000D01*
X97928156Y-89857705D01*
X97919407Y-89757698D01*
X97919406Y-89757693D01*
X97918935Y-89752308D01*
X97860039Y-89532504D01*
X97857752Y-89527600D01*
X97857750Y-89527594D01*
X97766158Y-89331177D01*
X97763868Y-89326266D01*
X97746853Y-89301966D01*
X97636453Y-89144296D01*
X97636449Y-89144292D01*
X97633347Y-89139861D01*
X97472439Y-88978953D01*
X97468008Y-88975851D01*
X97468004Y-88975847D01*
X97290473Y-88851540D01*
X97290471Y-88851539D01*
X97286034Y-88848432D01*
X97228024Y-88821382D01*
X97175586Y-88775210D01*
X97156434Y-88708016D01*
X97176650Y-88641135D01*
X97228025Y-88596618D01*
X97234455Y-88593620D01*
X97286034Y-88569568D01*
X97290473Y-88566460D01*
X97468004Y-88442153D01*
X97468008Y-88442149D01*
X97472439Y-88439047D01*
X97633347Y-88278139D01*
X97636449Y-88273708D01*
X97636453Y-88273704D01*
X97760760Y-88096173D01*
X97760761Y-88096171D01*
X97763868Y-88091734D01*
X97816468Y-87978934D01*
X97857750Y-87890406D01*
X97857752Y-87890400D01*
X97860039Y-87885496D01*
X97918935Y-87665692D01*
X97920749Y-87644966D01*
X97938296Y-87444395D01*
X97938768Y-87439000D01*
X97938296Y-87433605D01*
X97919407Y-87217698D01*
X97919406Y-87217693D01*
X97918935Y-87212308D01*
X97860039Y-86992504D01*
X97857752Y-86987600D01*
X97857750Y-86987594D01*
X97854497Y-86980617D01*
X100848739Y-86980617D01*
X100853143Y-86995616D01*
X100854513Y-86996803D01*
X100862071Y-86998447D01*
X101505909Y-86998447D01*
X101520908Y-86994043D01*
X101522095Y-86992673D01*
X101523739Y-86985115D01*
X101523739Y-86980617D01*
X102023739Y-86980617D01*
X102028143Y-86995616D01*
X102029513Y-86996803D01*
X102037071Y-86998447D01*
X102680909Y-86998447D01*
X102695908Y-86994043D01*
X102697095Y-86992673D01*
X102698739Y-86985115D01*
X102698739Y-86779475D01*
X102698376Y-86772778D01*
X102692936Y-86722703D01*
X102689368Y-86707694D01*
X102644922Y-86589136D01*
X102636527Y-86573801D01*
X102561223Y-86473323D01*
X102548863Y-86460963D01*
X102448385Y-86385659D01*
X102433050Y-86377264D01*
X102314492Y-86332818D01*
X102299483Y-86329250D01*
X102249408Y-86323810D01*
X102242711Y-86323447D01*
X102041569Y-86323447D01*
X102026570Y-86327851D01*
X102025383Y-86329221D01*
X102023739Y-86336779D01*
X102023739Y-86980617D01*
X101523739Y-86980617D01*
X101523739Y-86341277D01*
X101519335Y-86326278D01*
X101517965Y-86325091D01*
X101510407Y-86323447D01*
X101304767Y-86323447D01*
X101298070Y-86323810D01*
X101247995Y-86329250D01*
X101232986Y-86332818D01*
X101114428Y-86377264D01*
X101099093Y-86385659D01*
X100998615Y-86460963D01*
X100986255Y-86473323D01*
X100910951Y-86573801D01*
X100902556Y-86589136D01*
X100858110Y-86707694D01*
X100854542Y-86722703D01*
X100849102Y-86772778D01*
X100848739Y-86779475D01*
X100848739Y-86980617D01*
X97854497Y-86980617D01*
X97766158Y-86791177D01*
X97763868Y-86786266D01*
X97725821Y-86731929D01*
X97636453Y-86604296D01*
X97636449Y-86604292D01*
X97633347Y-86599861D01*
X97472439Y-86438953D01*
X97468008Y-86435851D01*
X97468004Y-86435847D01*
X97311521Y-86326278D01*
X97286034Y-86308432D01*
X97281795Y-86306455D01*
X97233735Y-86256056D01*
X97220510Y-86187450D01*
X97246476Y-86122584D01*
X97303388Y-86082053D01*
X97316055Y-86078410D01*
X97394120Y-86060387D01*
X97400877Y-86058827D01*
X97562566Y-85980664D01*
X97702920Y-85868620D01*
X97814964Y-85728266D01*
X97893127Y-85566577D01*
X97933526Y-85391589D01*
X97933800Y-85386837D01*
X97933799Y-84411164D01*
X97933526Y-84406411D01*
X97893127Y-84231423D01*
X97814964Y-84069734D01*
X97702920Y-83929380D01*
X97562566Y-83817336D01*
X97400877Y-83739173D01*
X97394120Y-83737613D01*
X97231005Y-83699955D01*
X97231004Y-83699955D01*
X97225889Y-83698774D01*
X97221137Y-83698500D01*
X97161024Y-83698500D01*
X95690215Y-83698501D01*
X95623176Y-83678816D01*
X95577421Y-83626013D01*
X95566215Y-83574314D01*
X95570324Y-80844076D01*
X95590110Y-80777067D01*
X95606767Y-80756458D01*
X100330376Y-76046182D01*
X100748264Y-75629473D01*
X100766403Y-75614532D01*
X100777554Y-75606999D01*
X100785459Y-75596867D01*
X100802448Y-75579062D01*
X100855886Y-75533182D01*
X101083205Y-75338015D01*
X101091324Y-75331614D01*
X101417221Y-75095999D01*
X101425851Y-75090292D01*
X101770247Y-74882672D01*
X101779323Y-74877704D01*
X102139849Y-74699508D01*
X102149307Y-74695315D01*
X102221092Y-74667010D01*
X102523416Y-74547802D01*
X102533181Y-74544415D01*
X102918306Y-74428598D01*
X102928330Y-74426035D01*
X103321745Y-74342733D01*
X103331947Y-74341014D01*
X103643130Y-74301850D01*
X103730944Y-74290798D01*
X103741248Y-74289935D01*
X104143053Y-74273158D01*
X104153399Y-74273158D01*
X104555204Y-74289935D01*
G37*
G04 #@! TD.AperFunction*
G04 #@! TA.AperFunction,Conductor*
G36*
X107204952Y-88898185D02*
G01*
X107225594Y-88914819D01*
X107514816Y-89204041D01*
X107548301Y-89265364D01*
X107543317Y-89335056D01*
X107501445Y-89390989D01*
X107435981Y-89415406D01*
X107367708Y-89400554D01*
X107350367Y-89389101D01*
X107319271Y-89364587D01*
X107286640Y-89338863D01*
X107278712Y-89334692D01*
X107096415Y-89238780D01*
X107096414Y-89238780D01*
X107091380Y-89236131D01*
X107078257Y-89232056D01*
X106886100Y-89172390D01*
X106880667Y-89170703D01*
X106875022Y-89170035D01*
X106875018Y-89170034D01*
X106777743Y-89158521D01*
X106701524Y-89149500D01*
X106174030Y-89149500D01*
X106010289Y-89164546D01*
X105797936Y-89224435D01*
X105792838Y-89226949D01*
X105723931Y-89260930D01*
X105600053Y-89322020D01*
X105423267Y-89454033D01*
X105273499Y-89616051D01*
X105270465Y-89620860D01*
X105270464Y-89620861D01*
X105184127Y-89757698D01*
X105155764Y-89802650D01*
X105074006Y-90007579D01*
X105030962Y-90223976D01*
X105030888Y-90229663D01*
X105030887Y-90229668D01*
X105028148Y-90438905D01*
X105028074Y-90444594D01*
X105029037Y-90450198D01*
X105029037Y-90450199D01*
X105051560Y-90581274D01*
X105065438Y-90662043D01*
X105141804Y-90869043D01*
X105254614Y-91058659D01*
X105400090Y-91224543D01*
X105404549Y-91228058D01*
X105404553Y-91228062D01*
X105537534Y-91332895D01*
X105577994Y-91389857D01*
X105581236Y-91459651D01*
X105546229Y-91520119D01*
X105534958Y-91529629D01*
X105423267Y-91613033D01*
X105273499Y-91775051D01*
X105181844Y-91920316D01*
X105129425Y-91966508D01*
X105105294Y-91974870D01*
X105101546Y-91975749D01*
X105090068Y-91977876D01*
X105072212Y-91980322D01*
X105055240Y-91982647D01*
X105055239Y-91982647D01*
X105046868Y-91983794D01*
X105039110Y-91987151D01*
X105039111Y-91987151D01*
X105032911Y-91989834D01*
X105011975Y-91996758D01*
X105005397Y-91998301D01*
X104997164Y-92000232D01*
X104958954Y-92021238D01*
X104948465Y-92026376D01*
X104916203Y-92040337D01*
X104916198Y-92040340D01*
X104908445Y-92043695D01*
X104901879Y-92049012D01*
X104901877Y-92049013D01*
X104896624Y-92053267D01*
X104878335Y-92065557D01*
X104864992Y-92072893D01*
X104856878Y-92079897D01*
X104832266Y-92104509D01*
X104822621Y-92113194D01*
X104791230Y-92138614D01*
X104786334Y-92145504D01*
X104780236Y-92154084D01*
X104766841Y-92169934D01*
X103695071Y-93241704D01*
X103691324Y-93245298D01*
X103645583Y-93287360D01*
X103641129Y-93294544D01*
X103641128Y-93294545D01*
X103622603Y-93324423D01*
X103615986Y-93334051D01*
X103594737Y-93362045D01*
X103594735Y-93362048D01*
X103589627Y-93368778D01*
X103586516Y-93376636D01*
X103586513Y-93376641D01*
X103584029Y-93382916D01*
X103574121Y-93402617D01*
X103566104Y-93415547D01*
X103563746Y-93423664D01*
X103553939Y-93457419D01*
X103550155Y-93468470D01*
X103537215Y-93501153D01*
X103534103Y-93509014D01*
X103532934Y-93520137D01*
X103532513Y-93524142D01*
X103528268Y-93545777D01*
X103524024Y-93560386D01*
X103523239Y-93571076D01*
X103523239Y-93605883D01*
X103522560Y-93618844D01*
X103519331Y-93649568D01*
X103518338Y-93659015D01*
X103519747Y-93667345D01*
X103519747Y-93667348D01*
X103521503Y-93677728D01*
X103523239Y-93698407D01*
X103523239Y-111866053D01*
X103503554Y-111933092D01*
X103450750Y-111978847D01*
X103381592Y-111988791D01*
X103318036Y-111959766D01*
X103311558Y-111953734D01*
X103174222Y-111816398D01*
X103139694Y-111749716D01*
X103115525Y-111609060D01*
X103115524Y-111609058D01*
X103114562Y-111603457D01*
X103038196Y-111396457D01*
X102939962Y-111231341D01*
X102928296Y-111211732D01*
X102928295Y-111211731D01*
X102925386Y-111206841D01*
X102779910Y-111040957D01*
X102775451Y-111037442D01*
X102775447Y-111037438D01*
X102642466Y-110932605D01*
X102602006Y-110875643D01*
X102598764Y-110805849D01*
X102633771Y-110745381D01*
X102645042Y-110735871D01*
X102719365Y-110680371D01*
X102756733Y-110652467D01*
X102906501Y-110490449D01*
X102918223Y-110471871D01*
X103021202Y-110308659D01*
X103021203Y-110308657D01*
X103024236Y-110303850D01*
X103105994Y-110098921D01*
X103149038Y-109882524D01*
X103149250Y-109866390D01*
X103151852Y-109667595D01*
X103151852Y-109667590D01*
X103151926Y-109661906D01*
X103117971Y-109464296D01*
X103115525Y-109450060D01*
X103115524Y-109450057D01*
X103114562Y-109444457D01*
X103038196Y-109237457D01*
X102939962Y-109072341D01*
X102928296Y-109052732D01*
X102928295Y-109052731D01*
X102925386Y-109047841D01*
X102779910Y-108881957D01*
X102775451Y-108878442D01*
X102775447Y-108878438D01*
X102642466Y-108773605D01*
X102602006Y-108716643D01*
X102598764Y-108646849D01*
X102633771Y-108586381D01*
X102645042Y-108576871D01*
X102719365Y-108521371D01*
X102756733Y-108493467D01*
X102906501Y-108331449D01*
X102915654Y-108316943D01*
X103021202Y-108149659D01*
X103021203Y-108149657D01*
X103024236Y-108144850D01*
X103105994Y-107939921D01*
X103149038Y-107723524D01*
X103151542Y-107532308D01*
X103151852Y-107508595D01*
X103151852Y-107508590D01*
X103151926Y-107502906D01*
X103150963Y-107497301D01*
X103115525Y-107291060D01*
X103115524Y-107291057D01*
X103114562Y-107285457D01*
X103038196Y-107078457D01*
X102939962Y-106913341D01*
X102928296Y-106893732D01*
X102928295Y-106893731D01*
X102925386Y-106888841D01*
X102779910Y-106722957D01*
X102775451Y-106719442D01*
X102775447Y-106719438D01*
X102642466Y-106614605D01*
X102602006Y-106557643D01*
X102598764Y-106487849D01*
X102633771Y-106427381D01*
X102645042Y-106417871D01*
X102719365Y-106362371D01*
X102756733Y-106334467D01*
X102906501Y-106172449D01*
X102925544Y-106142268D01*
X103021202Y-105990659D01*
X103021203Y-105990657D01*
X103024236Y-105985850D01*
X103105994Y-105780921D01*
X103149038Y-105564524D01*
X103150526Y-105450917D01*
X103151852Y-105349595D01*
X103151852Y-105349590D01*
X103151926Y-105343906D01*
X103129537Y-105213605D01*
X103115525Y-105132060D01*
X103115524Y-105132057D01*
X103114562Y-105126457D01*
X103038196Y-104919457D01*
X102939962Y-104754341D01*
X102928296Y-104734732D01*
X102928295Y-104734731D01*
X102925386Y-104729841D01*
X102779910Y-104563957D01*
X102775451Y-104560442D01*
X102775447Y-104560438D01*
X102723777Y-104519705D01*
X102683317Y-104462743D01*
X102680075Y-104392948D01*
X102715082Y-104332481D01*
X102729421Y-104320751D01*
X102784381Y-104282267D01*
X102792647Y-104275331D01*
X102945831Y-104122147D01*
X102952767Y-104113881D01*
X103077032Y-103936413D01*
X103082420Y-103927080D01*
X103173977Y-103730735D01*
X103177669Y-103720592D01*
X103224258Y-103546721D01*
X103223927Y-103532847D01*
X103216111Y-103529500D01*
X101624000Y-103529500D01*
X101556961Y-103509815D01*
X101511206Y-103457011D01*
X101500000Y-103405500D01*
X101500000Y-103011670D01*
X102000000Y-103011670D01*
X102004404Y-103026669D01*
X102005774Y-103027856D01*
X102013332Y-103029500D01*
X103211042Y-103029500D01*
X103224359Y-103025590D01*
X103225569Y-103017174D01*
X103177669Y-102838408D01*
X103173977Y-102828265D01*
X103082420Y-102631920D01*
X103077032Y-102622587D01*
X102952767Y-102445119D01*
X102945831Y-102436853D01*
X102796659Y-102287681D01*
X102763174Y-102226358D01*
X102768158Y-102156666D01*
X102796659Y-102112319D01*
X102945831Y-101963147D01*
X102952767Y-101954881D01*
X103077032Y-101777413D01*
X103082420Y-101768080D01*
X103173977Y-101571735D01*
X103177669Y-101561592D01*
X103224258Y-101387721D01*
X103223927Y-101373847D01*
X103216111Y-101370500D01*
X102017830Y-101370500D01*
X102002831Y-101374904D01*
X102001644Y-101376274D01*
X102000000Y-101383832D01*
X102000000Y-103011670D01*
X101500000Y-103011670D01*
X101500000Y-100852670D01*
X102000000Y-100852670D01*
X102004404Y-100867669D01*
X102005774Y-100868856D01*
X102013332Y-100870500D01*
X103211042Y-100870500D01*
X103224359Y-100866590D01*
X103225569Y-100858174D01*
X103177669Y-100679408D01*
X103173977Y-100669265D01*
X103082420Y-100472920D01*
X103077032Y-100463587D01*
X102952767Y-100286119D01*
X102945831Y-100277853D01*
X102796659Y-100128681D01*
X102763174Y-100067358D01*
X102768158Y-99997666D01*
X102796659Y-99953319D01*
X102945831Y-99804147D01*
X102952767Y-99795881D01*
X103077032Y-99618413D01*
X103082420Y-99609080D01*
X103173977Y-99412735D01*
X103177669Y-99402592D01*
X103224258Y-99228721D01*
X103223927Y-99214847D01*
X103216111Y-99211500D01*
X102017830Y-99211500D01*
X102002831Y-99215904D01*
X102001644Y-99217274D01*
X102000000Y-99224832D01*
X102000000Y-100852670D01*
X101500000Y-100852670D01*
X101500000Y-98693670D01*
X102000000Y-98693670D01*
X102004404Y-98708669D01*
X102005774Y-98709856D01*
X102013332Y-98711500D01*
X103211042Y-98711500D01*
X103224359Y-98707590D01*
X103225569Y-98699174D01*
X103177669Y-98520408D01*
X103173977Y-98510265D01*
X103082420Y-98313920D01*
X103077032Y-98304587D01*
X102952767Y-98127119D01*
X102945831Y-98118853D01*
X102796659Y-97969681D01*
X102763174Y-97908358D01*
X102768158Y-97838666D01*
X102796659Y-97794319D01*
X102945831Y-97645147D01*
X102952767Y-97636881D01*
X103077032Y-97459413D01*
X103082420Y-97450080D01*
X103173977Y-97253735D01*
X103177669Y-97243592D01*
X103224258Y-97069721D01*
X103223927Y-97055847D01*
X103216111Y-97052500D01*
X102017830Y-97052500D01*
X102002831Y-97056904D01*
X102001644Y-97058274D01*
X102000000Y-97065832D01*
X102000000Y-98693670D01*
X101500000Y-98693670D01*
X101500000Y-97070330D01*
X101495596Y-97055331D01*
X101494226Y-97054144D01*
X101486668Y-97052500D01*
X100288958Y-97052500D01*
X100275641Y-97056410D01*
X100274431Y-97064826D01*
X100322331Y-97243592D01*
X100326023Y-97253735D01*
X100417580Y-97450080D01*
X100422968Y-97459413D01*
X100547233Y-97636881D01*
X100554169Y-97645147D01*
X100703341Y-97794319D01*
X100736826Y-97855642D01*
X100731842Y-97925334D01*
X100703341Y-97969681D01*
X100554167Y-98118855D01*
X100547236Y-98127114D01*
X100521915Y-98163277D01*
X100467338Y-98206902D01*
X100397839Y-98214094D01*
X100332659Y-98179834D01*
X99373157Y-97220332D01*
X99369563Y-97216585D01*
X99368347Y-97215263D01*
X99327501Y-97170844D01*
X99306362Y-97157737D01*
X99290438Y-97147864D01*
X99280810Y-97141247D01*
X99252816Y-97119998D01*
X99252813Y-97119996D01*
X99246083Y-97114888D01*
X99238225Y-97111777D01*
X99238220Y-97111774D01*
X99231945Y-97109290D01*
X99212244Y-97099382D01*
X99206499Y-97095820D01*
X99199314Y-97091365D01*
X99173346Y-97083821D01*
X99157442Y-97079200D01*
X99146391Y-97075416D01*
X99113708Y-97062476D01*
X99113705Y-97062475D01*
X99105847Y-97059364D01*
X99090718Y-97057774D01*
X99069084Y-97053529D01*
X99060719Y-97051099D01*
X99054475Y-97049285D01*
X99046976Y-97048734D01*
X99046060Y-97048667D01*
X99046058Y-97048667D01*
X99043785Y-97048500D01*
X99008978Y-97048500D01*
X98996017Y-97047821D01*
X98964252Y-97044482D01*
X98964249Y-97044482D01*
X98955846Y-97043599D01*
X98947516Y-97045008D01*
X98947513Y-97045008D01*
X98937133Y-97046764D01*
X98916454Y-97048500D01*
X97890537Y-97048500D01*
X97823498Y-97028815D01*
X97778155Y-96976904D01*
X97766160Y-96951181D01*
X97766158Y-96951177D01*
X97763868Y-96946266D01*
X97760760Y-96941827D01*
X97636453Y-96764296D01*
X97636449Y-96764292D01*
X97633347Y-96759861D01*
X97472439Y-96598953D01*
X97468008Y-96595851D01*
X97468004Y-96595847D01*
X97290473Y-96471540D01*
X97290471Y-96471539D01*
X97286034Y-96468432D01*
X97228024Y-96441382D01*
X97175586Y-96395210D01*
X97156434Y-96328016D01*
X97176650Y-96261135D01*
X97228025Y-96216618D01*
X97281123Y-96191858D01*
X97286034Y-96189568D01*
X97348846Y-96145587D01*
X97468004Y-96062153D01*
X97468008Y-96062149D01*
X97472439Y-96059047D01*
X97633347Y-95898139D01*
X97709503Y-95789376D01*
X97764078Y-95745752D01*
X97811077Y-95736500D01*
X98577343Y-95736500D01*
X98582536Y-95736609D01*
X98636146Y-95738856D01*
X98636147Y-95738856D01*
X98644594Y-95739210D01*
X98652825Y-95737279D01*
X98652829Y-95737279D01*
X98687047Y-95729253D01*
X98698532Y-95727124D01*
X98716388Y-95724678D01*
X98733360Y-95722353D01*
X98733361Y-95722353D01*
X98741732Y-95721206D01*
X98755690Y-95715166D01*
X98776625Y-95708242D01*
X98783203Y-95706699D01*
X98791436Y-95704768D01*
X98829648Y-95683761D01*
X98840135Y-95678624D01*
X98872397Y-95664663D01*
X98872402Y-95664660D01*
X98880155Y-95661305D01*
X98886721Y-95655988D01*
X98886723Y-95655987D01*
X98891976Y-95651733D01*
X98910265Y-95639443D01*
X98923608Y-95632107D01*
X98931722Y-95625103D01*
X98956334Y-95600491D01*
X98965979Y-95591806D01*
X98997370Y-95566386D01*
X99008364Y-95550916D01*
X99021759Y-95535066D01*
X99576782Y-94980043D01*
X99650999Y-94905826D01*
X100274431Y-94905826D01*
X100322331Y-95084592D01*
X100326023Y-95094735D01*
X100417580Y-95291080D01*
X100422968Y-95300413D01*
X100547233Y-95477881D01*
X100554169Y-95486147D01*
X100703341Y-95635319D01*
X100736826Y-95696642D01*
X100731842Y-95766334D01*
X100703341Y-95810681D01*
X100554169Y-95959853D01*
X100547233Y-95968119D01*
X100422968Y-96145587D01*
X100417580Y-96154920D01*
X100326023Y-96351265D01*
X100322331Y-96361408D01*
X100275742Y-96535279D01*
X100276073Y-96549153D01*
X100283889Y-96552500D01*
X101482170Y-96552500D01*
X101497169Y-96548096D01*
X101498356Y-96546726D01*
X101500000Y-96539168D01*
X101500000Y-96534670D01*
X102000000Y-96534670D01*
X102004404Y-96549669D01*
X102005774Y-96550856D01*
X102013332Y-96552500D01*
X103211042Y-96552500D01*
X103224359Y-96548590D01*
X103225569Y-96540174D01*
X103177669Y-96361408D01*
X103173977Y-96351265D01*
X103082420Y-96154920D01*
X103077032Y-96145587D01*
X102952767Y-95968119D01*
X102945831Y-95959853D01*
X102796659Y-95810681D01*
X102763174Y-95749358D01*
X102768158Y-95679666D01*
X102796659Y-95635319D01*
X102945831Y-95486147D01*
X102952767Y-95477881D01*
X103077032Y-95300413D01*
X103082420Y-95291080D01*
X103173977Y-95094735D01*
X103177669Y-95084592D01*
X103224258Y-94910721D01*
X103223927Y-94896847D01*
X103216111Y-94893500D01*
X102017830Y-94893500D01*
X102002831Y-94897904D01*
X102001644Y-94899274D01*
X102000000Y-94906832D01*
X102000000Y-96534670D01*
X101500000Y-96534670D01*
X101500000Y-94911330D01*
X101495596Y-94896331D01*
X101494226Y-94895144D01*
X101486668Y-94893500D01*
X100288958Y-94893500D01*
X100275641Y-94897410D01*
X100274431Y-94905826D01*
X99650999Y-94905826D01*
X100140128Y-94416696D01*
X100201451Y-94383211D01*
X100276620Y-94390388D01*
X100283887Y-94393500D01*
X101482170Y-94393500D01*
X101497169Y-94389096D01*
X101498356Y-94387726D01*
X101500000Y-94380168D01*
X101500000Y-94375670D01*
X102000000Y-94375670D01*
X102004404Y-94390669D01*
X102005774Y-94391856D01*
X102013332Y-94393500D01*
X103211042Y-94393500D01*
X103224359Y-94389590D01*
X103225569Y-94381174D01*
X103177669Y-94202408D01*
X103173977Y-94192265D01*
X103082420Y-93995920D01*
X103077032Y-93986587D01*
X102952767Y-93809119D01*
X102945831Y-93800853D01*
X102796659Y-93651681D01*
X102763174Y-93590358D01*
X102768158Y-93520666D01*
X102796659Y-93476319D01*
X102945831Y-93327147D01*
X102952767Y-93318881D01*
X103077032Y-93141413D01*
X103082420Y-93132080D01*
X103173977Y-92935735D01*
X103177669Y-92925592D01*
X103224258Y-92751721D01*
X103223927Y-92737847D01*
X103216111Y-92734500D01*
X102017830Y-92734500D01*
X102002831Y-92738904D01*
X102001644Y-92740274D01*
X102000000Y-92747832D01*
X102000000Y-94375670D01*
X101500000Y-94375670D01*
X101500000Y-92216670D01*
X102000000Y-92216670D01*
X102004404Y-92231669D01*
X102005774Y-92232856D01*
X102013332Y-92234500D01*
X103211042Y-92234500D01*
X103224359Y-92230590D01*
X103225569Y-92222174D01*
X103177669Y-92043408D01*
X103173977Y-92033265D01*
X103082420Y-91836920D01*
X103077032Y-91827587D01*
X102952767Y-91650119D01*
X102945831Y-91641853D01*
X102796659Y-91492681D01*
X102763174Y-91431358D01*
X102768158Y-91361666D01*
X102796659Y-91317319D01*
X102945831Y-91168147D01*
X102952767Y-91159881D01*
X103077032Y-90982413D01*
X103082420Y-90973080D01*
X103173977Y-90776735D01*
X103177669Y-90766592D01*
X103224258Y-90592721D01*
X103223927Y-90578847D01*
X103216111Y-90575500D01*
X102017830Y-90575500D01*
X102002831Y-90579904D01*
X102001644Y-90581274D01*
X102000000Y-90588832D01*
X102000000Y-92216670D01*
X101500000Y-92216670D01*
X101500000Y-90199500D01*
X101519685Y-90132461D01*
X101572489Y-90086706D01*
X101624000Y-90075500D01*
X103211042Y-90075500D01*
X103224359Y-90071590D01*
X103225569Y-90063174D01*
X103177669Y-89884408D01*
X103173977Y-89874265D01*
X103082420Y-89677920D01*
X103077032Y-89668587D01*
X102952767Y-89491119D01*
X102945831Y-89482853D01*
X102792647Y-89329669D01*
X102784381Y-89322733D01*
X102606913Y-89198468D01*
X102597580Y-89193080D01*
X102429884Y-89114882D01*
X102377445Y-89068710D01*
X102358293Y-89001516D01*
X102378509Y-88934635D01*
X102431674Y-88889301D01*
X102482289Y-88878500D01*
X107137913Y-88878500D01*
X107204952Y-88898185D01*
G37*
G04 #@! TD.AperFunction*
M02*
