G04 #@! TF.GenerationSoftware,KiCad,Pcbnew,6.0.1-79c1e3a40b~116~ubuntu20.04.1*
G04 #@! TF.CreationDate,2022-01-18T16:33:52+01:00*
G04 #@! TF.ProjectId,Nano_GPIB,4e616e6f-5f47-4504-9942-2e6b69636164,rev?*
G04 #@! TF.SameCoordinates,Original*
G04 #@! TF.FileFunction,Soldermask,Bot*
G04 #@! TF.FilePolarity,Negative*
%FSLAX46Y46*%
G04 Gerber Fmt 4.6, Leading zero omitted, Abs format (unit mm)*
G04 Created by KiCad (PCBNEW 6.0.1-79c1e3a40b~116~ubuntu20.04.1) date 2022-01-18 16:33:52*
%MOMM*%
%LPD*%
G01*
G04 APERTURE LIST*
G04 Aperture macros list*
%AMRoundRect*
0 Rectangle with rounded corners*
0 $1 Rounding radius*
0 $2 $3 $4 $5 $6 $7 $8 $9 X,Y pos of 4 corners*
0 Add a 4 corners polygon primitive as box body*
4,1,4,$2,$3,$4,$5,$6,$7,$8,$9,$2,$3,0*
0 Add four circle primitives for the rounded corners*
1,1,$1+$1,$2,$3*
1,1,$1+$1,$4,$5*
1,1,$1+$1,$6,$7*
1,1,$1+$1,$8,$9*
0 Add four rect primitives between the rounded corners*
20,1,$1+$1,$2,$3,$4,$5,0*
20,1,$1+$1,$4,$5,$6,$7,0*
20,1,$1+$1,$6,$7,$8,$9,0*
20,1,$1+$1,$8,$9,$2,$3,0*%
G04 Aperture macros list end*
%ADD10RoundRect,0.051000X0.425000X0.425000X-0.425000X0.425000X-0.425000X-0.425000X0.425000X-0.425000X0*%
%ADD11RoundRect,0.451000X-0.700000X-0.400000X0.700000X-0.400000X0.700000X0.400000X-0.700000X0.400000X0*%
%ADD12O,2.302000X1.902000*%
%ADD13C,6.502000*%
%ADD14C,0.902000*%
G04 APERTURE END LIST*
D10*
X101773739Y-87248447D03*
D11*
X96433300Y-84899000D03*
D12*
X96433300Y-87439000D03*
X96433300Y-89979000D03*
X96433300Y-92519000D03*
X96433300Y-95059000D03*
X96433300Y-97599000D03*
X96433300Y-100139000D03*
X96433300Y-102679000D03*
X96433300Y-105219000D03*
X96433300Y-107759000D03*
X96433300Y-110299000D03*
X96433300Y-112839000D03*
X96433300Y-115379000D03*
X96433300Y-117919000D03*
X96433300Y-120459000D03*
X111673300Y-120459000D03*
X111673300Y-117919000D03*
X111673300Y-115379000D03*
X111673300Y-112839000D03*
X111673300Y-110299000D03*
X111673300Y-107759000D03*
X111673300Y-105219000D03*
X111673300Y-102679000D03*
X111673300Y-100139000D03*
X111673300Y-97599000D03*
X111673300Y-95059000D03*
X111673300Y-92519000D03*
X111673300Y-89979000D03*
X111673300Y-87439000D03*
X111673300Y-84899000D03*
D13*
X104175300Y-78961000D03*
D14*
X104175300Y-81361000D03*
X102478244Y-77263944D03*
X106575300Y-78961000D03*
X105872356Y-80658056D03*
X104175300Y-76561000D03*
X105872356Y-77263944D03*
X101775300Y-78961000D03*
X102478244Y-80658056D03*
X101825300Y-125741000D03*
X102528244Y-127438056D03*
X102528244Y-124043944D03*
X106625300Y-125741000D03*
X105922356Y-124043944D03*
X104225300Y-123341000D03*
X105922356Y-127438056D03*
X104225300Y-128141000D03*
D13*
X104225300Y-125741000D03*
D10*
X106583739Y-87188447D03*
M02*
