G04 #@! TF.GenerationSoftware,KiCad,Pcbnew,6.0.1-79c1e3a40b~116~ubuntu20.04.1*
G04 #@! TF.CreationDate,2022-01-18T16:33:52+01:00*
G04 #@! TF.ProjectId,Nano_GPIB,4e616e6f-5f47-4504-9942-2e6b69636164,rev?*
G04 #@! TF.SameCoordinates,Original*
G04 #@! TF.FileFunction,Legend,Top*
G04 #@! TF.FilePolarity,Positive*
%FSLAX46Y46*%
G04 Gerber Fmt 4.6, Leading zero omitted, Abs format (unit mm)*
G04 Created by KiCad (PCBNEW 6.0.1-79c1e3a40b~116~ubuntu20.04.1) date 2022-01-18 16:33:52*
%MOMM*%
%LPD*%
G01*
G04 APERTURE LIST*
G04 Aperture macros list*
%AMRoundRect*
0 Rectangle with rounded corners*
0 $1 Rounding radius*
0 $2 $3 $4 $5 $6 $7 $8 $9 X,Y pos of 4 corners*
0 Add a 4 corners polygon primitive as box body*
4,1,4,$2,$3,$4,$5,$6,$7,$8,$9,$2,$3,0*
0 Add four circle primitives for the rounded corners*
1,1,$1+$1,$2,$3*
1,1,$1+$1,$4,$5*
1,1,$1+$1,$6,$7*
1,1,$1+$1,$8,$9*
0 Add four rect primitives between the rounded corners*
20,1,$1+$1,$2,$3,$4,$5,0*
20,1,$1+$1,$4,$5,$6,$7,0*
20,1,$1+$1,$6,$7,$8,$9,0*
20,1,$1+$1,$8,$9,$2,$3,0*%
G04 Aperture macros list end*
%ADD10C,0.200000*%
%ADD11C,0.150000*%
%ADD12C,0.300000*%
%ADD13C,0.400000*%
%ADD14C,0.120000*%
%ADD15RoundRect,0.051000X0.425000X0.425000X-0.425000X0.425000X-0.425000X-0.425000X0.425000X-0.425000X0*%
%ADD16C,6.502000*%
%ADD17C,0.902000*%
%ADD18RoundRect,0.451000X0.600000X-0.400000X0.600000X0.400000X-0.600000X0.400000X-0.600000X-0.400000X0*%
%ADD19O,2.102000X1.702000*%
G04 APERTURE END LIST*
D10*
X100693739Y-88088447D02*
X99273739Y-89508447D01*
D11*
X99273739Y-89508447D02*
X100693739Y-88088447D01*
D10*
X107433739Y-88208447D02*
X108693739Y-89418447D01*
D12*
X100612442Y-116117428D02*
X100612442Y-117450761D01*
X100612442Y-116307904D02*
X100707680Y-116212666D01*
X100898157Y-116117428D01*
X101183871Y-116117428D01*
X101374347Y-116212666D01*
X101469585Y-116403142D01*
X101469585Y-117450761D01*
X103279109Y-117450761D02*
X103279109Y-116403142D01*
X103183871Y-116212666D01*
X102993395Y-116117428D01*
X102612442Y-116117428D01*
X102421966Y-116212666D01*
X103279109Y-117355523D02*
X103088633Y-117450761D01*
X102612442Y-117450761D01*
X102421966Y-117355523D01*
X102326728Y-117165047D01*
X102326728Y-116974571D01*
X102421966Y-116784095D01*
X102612442Y-116688857D01*
X103088633Y-116688857D01*
X103279109Y-116593619D01*
X104231490Y-116117428D02*
X104231490Y-117450761D01*
X104231490Y-116307904D02*
X104326728Y-116212666D01*
X104517204Y-116117428D01*
X104802919Y-116117428D01*
X104993395Y-116212666D01*
X105088633Y-116403142D01*
X105088633Y-117450761D01*
X106326728Y-117450761D02*
X106136252Y-117355523D01*
X106041014Y-117260285D01*
X105945776Y-117069809D01*
X105945776Y-116498380D01*
X106041014Y-116307904D01*
X106136252Y-116212666D01*
X106326728Y-116117428D01*
X106612442Y-116117428D01*
X106802919Y-116212666D01*
X106898157Y-116307904D01*
X106993395Y-116498380D01*
X106993395Y-117069809D01*
X106898157Y-117260285D01*
X106802919Y-117355523D01*
X106612442Y-117450761D01*
X106326728Y-117450761D01*
D13*
X98903739Y-85431780D02*
X100046596Y-85431780D01*
X98675167Y-86174637D02*
X99475167Y-83574637D01*
X100275167Y-86174637D01*
X102446596Y-86174637D02*
X101646596Y-84936542D01*
X101075167Y-86174637D02*
X101075167Y-83574637D01*
X101989453Y-83574637D01*
X102218024Y-83698447D01*
X102332310Y-83822256D01*
X102446596Y-84069875D01*
X102446596Y-84441304D01*
X102332310Y-84688923D01*
X102218024Y-84812732D01*
X101989453Y-84936542D01*
X101075167Y-84936542D01*
X104503739Y-84441304D02*
X104503739Y-86174637D01*
X103932310Y-83450827D02*
X103360881Y-85307970D01*
X104846596Y-85307970D01*
X106103739Y-84688923D02*
X105875167Y-84565113D01*
X105760881Y-84441304D01*
X105646596Y-84193685D01*
X105646596Y-84069875D01*
X105760881Y-83822256D01*
X105875167Y-83698447D01*
X106103739Y-83574637D01*
X106560881Y-83574637D01*
X106789453Y-83698447D01*
X106903739Y-83822256D01*
X107018024Y-84069875D01*
X107018024Y-84193685D01*
X106903739Y-84441304D01*
X106789453Y-84565113D01*
X106560881Y-84688923D01*
X106103739Y-84688923D01*
X105875167Y-84812732D01*
X105760881Y-84936542D01*
X105646596Y-85184161D01*
X105646596Y-85679399D01*
X105760881Y-85927018D01*
X105875167Y-86050827D01*
X106103739Y-86174637D01*
X106560881Y-86174637D01*
X106789453Y-86050827D01*
X106903739Y-85927018D01*
X107018024Y-85679399D01*
X107018024Y-85184161D01*
X106903739Y-84936542D01*
X106789453Y-84812732D01*
X106560881Y-84688923D01*
X108389453Y-84688923D02*
X108160881Y-84565113D01*
X108046596Y-84441304D01*
X107932310Y-84193685D01*
X107932310Y-84069875D01*
X108046596Y-83822256D01*
X108160881Y-83698447D01*
X108389453Y-83574637D01*
X108846596Y-83574637D01*
X109075167Y-83698447D01*
X109189453Y-83822256D01*
X109303739Y-84069875D01*
X109303739Y-84193685D01*
X109189453Y-84441304D01*
X109075167Y-84565113D01*
X108846596Y-84688923D01*
X108389453Y-84688923D01*
X108160881Y-84812732D01*
X108046596Y-84936542D01*
X107932310Y-85184161D01*
X107932310Y-85679399D01*
X108046596Y-85927018D01*
X108160881Y-86050827D01*
X108389453Y-86174637D01*
X108846596Y-86174637D01*
X109075167Y-86050827D01*
X109189453Y-85927018D01*
X109303739Y-85679399D01*
X109303739Y-85184161D01*
X109189453Y-84936542D01*
X109075167Y-84812732D01*
X108846596Y-84688923D01*
D12*
X109680881Y-97135589D02*
X109752310Y-96921304D01*
X109752310Y-96564161D01*
X109680881Y-96421304D01*
X109609453Y-96349875D01*
X109466596Y-96278447D01*
X109323739Y-96278447D01*
X109180881Y-96349875D01*
X109109453Y-96421304D01*
X109038024Y-96564161D01*
X108966596Y-96849875D01*
X108895167Y-96992732D01*
X108823739Y-97064161D01*
X108680881Y-97135589D01*
X108538024Y-97135589D01*
X108395167Y-97064161D01*
X108323739Y-96992732D01*
X108252310Y-96849875D01*
X108252310Y-96492732D01*
X108323739Y-96278447D01*
X109752310Y-95635589D02*
X108252310Y-95635589D01*
X108966596Y-95635589D02*
X108966596Y-94778447D01*
X109752310Y-94778447D02*
X108252310Y-94778447D01*
X109752310Y-94064161D02*
X108252310Y-94064161D01*
X108966596Y-93349875D02*
X108966596Y-92849875D01*
X109752310Y-92635589D02*
X109752310Y-93349875D01*
X108252310Y-93349875D01*
X108252310Y-92635589D01*
X109752310Y-91278447D02*
X109752310Y-91992732D01*
X108252310Y-91992732D01*
X109752310Y-90778447D02*
X108252310Y-90778447D01*
X108252310Y-90421304D01*
X108323739Y-90207018D01*
X108466596Y-90064161D01*
X108609453Y-89992732D01*
X108895167Y-89921304D01*
X109109453Y-89921304D01*
X109395167Y-89992732D01*
X109538024Y-90064161D01*
X109680881Y-90207018D01*
X109752310Y-90421304D01*
X109752310Y-90778447D01*
X98663739Y-93301304D02*
X98592310Y-93444161D01*
X98592310Y-93658447D01*
X98663739Y-93872732D01*
X98806596Y-94015589D01*
X98949453Y-94087018D01*
X99235167Y-94158447D01*
X99449453Y-94158447D01*
X99735167Y-94087018D01*
X99878024Y-94015589D01*
X100020881Y-93872732D01*
X100092310Y-93658447D01*
X100092310Y-93515589D01*
X100020881Y-93301304D01*
X99949453Y-93229875D01*
X99449453Y-93229875D01*
X99449453Y-93515589D01*
X100092310Y-92587018D02*
X98592310Y-92587018D01*
X100092310Y-91729875D01*
X98592310Y-91729875D01*
X100092310Y-91015589D02*
X98592310Y-91015589D01*
X98592310Y-90658447D01*
X98663739Y-90444161D01*
X98806596Y-90301304D01*
X98949453Y-90229875D01*
X99235167Y-90158447D01*
X99449453Y-90158447D01*
X99735167Y-90229875D01*
X99878024Y-90301304D01*
X100020881Y-90444161D01*
X100092310Y-90658447D01*
X100092310Y-91015589D01*
D11*
X103339014Y-79985666D02*
X103815204Y-79985666D01*
X103243776Y-80271380D02*
X103577109Y-79271380D01*
X103910442Y-80271380D01*
X104767585Y-80271380D02*
X104196157Y-80271380D01*
X104481871Y-80271380D02*
X104481871Y-79271380D01*
X104386633Y-79414238D01*
X104291395Y-79509476D01*
X104196157Y-79557095D01*
D14*
X102468739Y-87248447D02*
X102468739Y-87933447D01*
X102468739Y-87933447D02*
X101773739Y-87933447D01*
X110403300Y-83629000D02*
X110403300Y-121729000D01*
X110403300Y-83629000D02*
X113073300Y-83629000D01*
X97703300Y-121729000D02*
X95033300Y-121729000D01*
X97703300Y-83629000D02*
X95033300Y-83629000D01*
X110403300Y-121729000D02*
X113073300Y-121729000D01*
X97703300Y-86169000D02*
X97703300Y-121729000D01*
X97703300Y-86169000D02*
X97703300Y-83629000D01*
X97703300Y-86169000D02*
X95033300Y-86169000D01*
X100243300Y-118489000D02*
X107853300Y-118489000D01*
X107853300Y-118489000D02*
X107853300Y-124299000D01*
X107853300Y-124299000D02*
X100243300Y-124299000D01*
X100243300Y-124299000D02*
X100243300Y-118489000D01*
G36*
X100243300Y-118489000D02*
G01*
X107853300Y-118489000D01*
X107853300Y-124299000D01*
X100243300Y-124299000D01*
X100243300Y-118489000D01*
G37*
X95053300Y-83739000D02*
X97593300Y-83739000D01*
X97593300Y-83739000D02*
X97593300Y-86059000D01*
X97593300Y-86059000D02*
X95053300Y-86059000D01*
X95053300Y-86059000D02*
X95053300Y-83739000D01*
G36*
X95053300Y-83739000D02*
G01*
X97593300Y-83739000D01*
X97593300Y-86059000D01*
X95053300Y-86059000D01*
X95053300Y-83739000D01*
G37*
X107278739Y-87873447D02*
X106583739Y-87873447D01*
X107278739Y-87188447D02*
X107278739Y-87873447D01*
%LPC*%
D15*
X101773739Y-87248447D03*
D16*
X104175300Y-78961000D03*
D17*
X104175300Y-81361000D03*
X102478244Y-77263944D03*
X106575300Y-78961000D03*
X105872356Y-80658056D03*
X104175300Y-76561000D03*
X105872356Y-77263944D03*
X101775300Y-78961000D03*
X102478244Y-80658056D03*
X101825300Y-125741000D03*
X102528244Y-127438056D03*
X102528244Y-124043944D03*
X106625300Y-125741000D03*
X105922356Y-124043944D03*
X104225300Y-123341000D03*
X105922356Y-127438056D03*
X104225300Y-128141000D03*
D16*
X104225300Y-125741000D03*
D18*
X106430000Y-114099000D03*
D19*
X106430000Y-111940000D03*
X106430000Y-109781000D03*
X106430000Y-107622000D03*
X106430000Y-105463000D03*
X106430000Y-103304000D03*
X106430000Y-101145000D03*
X106430000Y-98986000D03*
X106430000Y-96827000D03*
X106430000Y-94668000D03*
X106430000Y-92509000D03*
X106430000Y-90350000D03*
X101750000Y-114074500D03*
X101750000Y-111915500D03*
X101750000Y-109756500D03*
X101750000Y-107597500D03*
X101750000Y-105438500D03*
X101750000Y-103279500D03*
X101750000Y-101120500D03*
X101750000Y-98961500D03*
X101750000Y-96802500D03*
X101750000Y-94643500D03*
X101750000Y-92484500D03*
X101750000Y-90325500D03*
D15*
X106583739Y-87188447D03*
M02*
