M48
; DRILL file {KiCad 6.0.1-79c1e3a40b~116~ubuntu20.04.1} date Tue 18 Jan 2022 04:33:52 PM CET
; FORMAT={-:-/ absolute / metric / decimal}
; #@! TF.CreationDate,2022-01-18T16:33:52+01:00
; #@! TF.GenerationSoftware,Kicad,Pcbnew,6.0.1-79c1e3a40b~116~ubuntu20.04.1
; #@! TF.FileFunction,Plated,1,2,PTH
FMAT,2
METRIC
; #@! TA.AperFunction,Plated,PTH,ViaDrill
T1C0.400
; #@! TA.AperFunction,Plated,PTH,ComponentDrill
T2C0.500
; #@! TA.AperFunction,Plated,PTH,ComponentDrill
T3C0.900
; #@! TA.AperFunction,Plated,PTH,ComponentDrill
T4C1.000
; #@! TA.AperFunction,Plated,PTH,ComponentDrill
T5C3.200
%
G90
G05
T1
X96.505Y-122.331
X96.515Y-83.111
X97.345Y-80.271
X97.385Y-124.561
X106.466Y-116.776
X106.466Y-119.697
X107.863Y-115.76
X107.863Y-119.951
X108.27Y-114.55
X110.825Y-80.411
X110.865Y-124.531
X111.775Y-122.471
X111.805Y-83.171
T2
X101.774Y-87.248
X101.775Y-78.961
X101.825Y-125.741
X102.478Y-77.264
X102.478Y-80.658
X102.528Y-124.044
X102.528Y-127.438
X104.175Y-76.561
X104.175Y-81.361
X104.225Y-123.341
X104.225Y-128.141
X105.872Y-77.264
X105.872Y-80.658
X105.922Y-124.044
X105.922Y-127.438
X106.575Y-78.961
X106.584Y-87.188
X106.625Y-125.741
T3
X101.75Y-90.325
X101.75Y-92.484
X101.75Y-94.643
X101.75Y-96.802
X101.75Y-98.962
X101.75Y-101.12
X101.75Y-103.279
X101.75Y-105.438
X101.75Y-107.597
X101.75Y-109.756
X101.75Y-111.915
X101.75Y-114.075
X106.43Y-90.35
X106.43Y-92.509
X106.43Y-94.668
X106.43Y-96.827
X106.43Y-98.986
X106.43Y-101.145
X106.43Y-103.304
X106.43Y-105.463
X106.43Y-107.622
X106.43Y-109.781
X106.43Y-111.94
X106.43Y-114.099
T4
X96.433Y-84.899
X96.433Y-87.439
X96.433Y-89.979
X96.433Y-92.519
X96.433Y-95.059
X96.433Y-97.599
X96.433Y-100.139
X96.433Y-102.679
X96.433Y-105.219
X96.433Y-107.759
X96.433Y-110.299
X96.433Y-112.839
X96.433Y-115.379
X96.433Y-117.919
X96.433Y-120.459
X111.673Y-84.899
X111.673Y-87.439
X111.673Y-89.979
X111.673Y-92.519
X111.673Y-95.059
X111.673Y-97.599
X111.673Y-100.139
X111.673Y-102.679
X111.673Y-105.219
X111.673Y-107.759
X111.673Y-110.299
X111.673Y-112.839
X111.673Y-115.379
X111.673Y-117.919
X111.673Y-120.459
T5
X104.175Y-78.961
X104.225Y-125.741
T0
M30
