G04 #@! TF.GenerationSoftware,KiCad,Pcbnew,6.0.1-79c1e3a40b~116~ubuntu20.04.1*
G04 #@! TF.CreationDate,2022-01-18T16:47:47+01:00*
G04 #@! TF.ProjectId,Pro_Micro_GPIB,50726f5f-4d69-4637-926f-5f475049422e,rev?*
G04 #@! TF.SameCoordinates,Original*
G04 #@! TF.FileFunction,Legend,Top*
G04 #@! TF.FilePolarity,Positive*
%FSLAX46Y46*%
G04 Gerber Fmt 4.6, Leading zero omitted, Abs format (unit mm)*
G04 Created by KiCad (PCBNEW 6.0.1-79c1e3a40b~116~ubuntu20.04.1) date 2022-01-18 16:47:47*
%MOMM*%
%LPD*%
G01*
G04 APERTURE LIST*
G04 Aperture macros list*
%AMRoundRect*
0 Rectangle with rounded corners*
0 $1 Rounding radius*
0 $2 $3 $4 $5 $6 $7 $8 $9 X,Y pos of 4 corners*
0 Add a 4 corners polygon primitive as box body*
4,1,4,$2,$3,$4,$5,$6,$7,$8,$9,$2,$3,0*
0 Add four circle primitives for the rounded corners*
1,1,$1+$1,$2,$3*
1,1,$1+$1,$4,$5*
1,1,$1+$1,$6,$7*
1,1,$1+$1,$8,$9*
0 Add four rect primitives between the rounded corners*
20,1,$1+$1,$2,$3,$4,$5,0*
20,1,$1+$1,$4,$5,$6,$7,0*
20,1,$1+$1,$6,$7,$8,$9,0*
20,1,$1+$1,$8,$9,$2,$3,0*%
G04 Aperture macros list end*
%ADD10C,0.120000*%
%ADD11C,0.150000*%
%ADD12C,0.300000*%
%ADD13C,0.400000*%
%ADD14C,6.400000*%
%ADD15C,0.800000*%
%ADD16R,0.850000X0.850000*%
%ADD17RoundRect,0.400000X0.650000X-0.400000X0.650000X0.400000X-0.650000X0.400000X-0.650000X-0.400000X0*%
%ADD18O,2.100000X1.600000*%
G04 APERTURE END LIST*
D10*
X120928185Y-76869300D02*
X102668185Y-76869300D01*
X113348185Y-82370032D02*
X113288185Y-82370032D01*
D11*
X117985300Y-76869300D02*
X117988185Y-107290032D01*
X105788800Y-76879300D02*
X105788800Y-107289300D01*
X105208095Y-74620000D02*
X105112857Y-74572380D01*
X104970000Y-74572380D01*
X104827142Y-74620000D01*
X104731904Y-74715238D01*
X104684285Y-74810476D01*
X104636666Y-75000952D01*
X104636666Y-75143809D01*
X104684285Y-75334285D01*
X104731904Y-75429523D01*
X104827142Y-75524761D01*
X104970000Y-75572380D01*
X105065238Y-75572380D01*
X105208095Y-75524761D01*
X105255714Y-75477142D01*
X105255714Y-75143809D01*
X105065238Y-75143809D01*
X105684285Y-75572380D02*
X105684285Y-74572380D01*
X106255714Y-75572380D01*
X106255714Y-74572380D01*
X106731904Y-75572380D02*
X106731904Y-74572380D01*
X106970000Y-74572380D01*
X107112857Y-74620000D01*
X107208095Y-74715238D01*
X107255714Y-74810476D01*
X107303333Y-75000952D01*
X107303333Y-75143809D01*
X107255714Y-75334285D01*
X107208095Y-75429523D01*
X107112857Y-75524761D01*
X106970000Y-75572380D01*
X106731904Y-75572380D01*
D12*
X115974826Y-117768603D02*
X116331969Y-118768603D01*
X116689112Y-117768603D01*
X117117683Y-117268603D02*
X118046255Y-117268603D01*
X117546255Y-117840032D01*
X117760540Y-117840032D01*
X117903397Y-117911460D01*
X117974826Y-117982889D01*
X118046255Y-118125746D01*
X118046255Y-118482889D01*
X117974826Y-118625746D01*
X117903397Y-118697174D01*
X117760540Y-118768603D01*
X117331969Y-118768603D01*
X117189112Y-118697174D01*
X117117683Y-118625746D01*
D11*
X115765714Y-75379761D02*
X115894285Y-75427380D01*
X116108571Y-75427380D01*
X116194285Y-75379761D01*
X116237142Y-75332142D01*
X116280000Y-75236904D01*
X116280000Y-75141666D01*
X116237142Y-75046428D01*
X116194285Y-74998809D01*
X116108571Y-74951190D01*
X115937142Y-74903571D01*
X115851428Y-74855952D01*
X115808571Y-74808333D01*
X115765714Y-74713095D01*
X115765714Y-74617857D01*
X115808571Y-74522619D01*
X115851428Y-74475000D01*
X115937142Y-74427380D01*
X116151428Y-74427380D01*
X116280000Y-74475000D01*
X116665714Y-75427380D02*
X116665714Y-74427380D01*
X116665714Y-74903571D02*
X117180000Y-74903571D01*
X117180000Y-75427380D02*
X117180000Y-74427380D01*
X117608571Y-74903571D02*
X117908571Y-74903571D01*
X118037142Y-75427380D02*
X117608571Y-75427380D01*
X117608571Y-74427380D01*
X118037142Y-74427380D01*
X118422857Y-75427380D02*
X118422857Y-74427380D01*
X119280000Y-75427380D02*
X118851428Y-75427380D01*
X118851428Y-74427380D01*
X119580000Y-75427380D02*
X119580000Y-74427380D01*
X119794285Y-74427380D01*
X119922857Y-74475000D01*
X120008571Y-74570238D01*
X120051428Y-74665476D01*
X120094285Y-74855952D01*
X120094285Y-74998809D01*
X120051428Y-75189285D01*
X120008571Y-75284523D01*
X119922857Y-75379761D01*
X119794285Y-75427380D01*
X119580000Y-75427380D01*
D12*
X109898185Y-77599532D02*
X109898185Y-79699532D01*
X109898185Y-77699532D02*
X110098185Y-77599532D01*
X110498185Y-77599532D01*
X110698185Y-77699532D01*
X110798185Y-77799532D01*
X110898185Y-77999532D01*
X110898185Y-78599532D01*
X110798185Y-78799532D01*
X110698185Y-78899532D01*
X110498185Y-78999532D01*
X110098185Y-78999532D01*
X109898185Y-78899532D01*
X111798185Y-78999532D02*
X111798185Y-77599532D01*
X111798185Y-77999532D02*
X111898185Y-77799532D01*
X111998185Y-77699532D01*
X112198185Y-77599532D01*
X112398185Y-77599532D01*
X113398185Y-78999532D02*
X113198185Y-78899532D01*
X113098185Y-78799532D01*
X112998185Y-78599532D01*
X112998185Y-77999532D01*
X113098185Y-77799532D01*
X113198185Y-77699532D01*
X113398185Y-77599532D01*
X113698185Y-77599532D01*
X113898185Y-77699532D01*
X113998185Y-77799532D01*
X114098185Y-77999532D01*
X114098185Y-78599532D01*
X113998185Y-78799532D01*
X113898185Y-78899532D01*
X113698185Y-78999532D01*
X113398185Y-78999532D01*
X108048185Y-82380532D02*
X108048185Y-80980532D01*
X108048185Y-81180532D02*
X108148185Y-81080532D01*
X108348185Y-80980532D01*
X108648185Y-80980532D01*
X108848185Y-81080532D01*
X108948185Y-81280532D01*
X108948185Y-82380532D01*
X108948185Y-81280532D02*
X109048185Y-81080532D01*
X109248185Y-80980532D01*
X109548185Y-80980532D01*
X109748185Y-81080532D01*
X109848185Y-81280532D01*
X109848185Y-82380532D01*
X110848185Y-82380532D02*
X110848185Y-80980532D01*
X110848185Y-80280532D02*
X110748185Y-80380532D01*
X110848185Y-80480532D01*
X110948185Y-80380532D01*
X110848185Y-80280532D01*
X110848185Y-80480532D01*
X112748185Y-82280532D02*
X112548185Y-82380532D01*
X112148185Y-82380532D01*
X111948185Y-82280532D01*
X111848185Y-82180532D01*
X111748185Y-81980532D01*
X111748185Y-81380532D01*
X111848185Y-81180532D01*
X111948185Y-81080532D01*
X112148185Y-80980532D01*
X112548185Y-80980532D01*
X112748185Y-81080532D01*
X113648185Y-82380532D02*
X113648185Y-80980532D01*
X113648185Y-81380532D02*
X113748185Y-81180532D01*
X113848185Y-81080532D01*
X114048185Y-80980532D01*
X114248185Y-80980532D01*
X115248185Y-82380532D02*
X115048185Y-82280532D01*
X114948185Y-82180532D01*
X114848185Y-81980532D01*
X114848185Y-81380532D01*
X114948185Y-81180532D01*
X115048185Y-81080532D01*
X115248185Y-80980532D01*
X115548185Y-80980532D01*
X115748185Y-81080532D01*
X115848185Y-81180532D01*
X115948185Y-81380532D01*
X115948185Y-81980532D01*
X115848185Y-82180532D01*
X115748185Y-82280532D01*
X115548185Y-82380532D01*
X115248185Y-82380532D01*
D13*
X105296255Y-114620032D02*
X106724826Y-114620032D01*
X105010540Y-115477174D02*
X106010540Y-112477174D01*
X107010540Y-115477174D01*
X109724826Y-115477174D02*
X108724826Y-114048603D01*
X108010540Y-115477174D02*
X108010540Y-112477174D01*
X109153397Y-112477174D01*
X109439112Y-112620032D01*
X109581969Y-112762889D01*
X109724826Y-113048603D01*
X109724826Y-113477174D01*
X109581969Y-113762889D01*
X109439112Y-113905746D01*
X109153397Y-114048603D01*
X108010540Y-114048603D01*
X112296255Y-113477174D02*
X112296255Y-115477174D01*
X111581969Y-112334317D02*
X110867683Y-114477174D01*
X112724826Y-114477174D01*
X114296255Y-113762889D02*
X114010540Y-113620032D01*
X113867683Y-113477174D01*
X113724826Y-113191460D01*
X113724826Y-113048603D01*
X113867683Y-112762889D01*
X114010540Y-112620032D01*
X114296255Y-112477174D01*
X114867683Y-112477174D01*
X115153397Y-112620032D01*
X115296255Y-112762889D01*
X115439112Y-113048603D01*
X115439112Y-113191460D01*
X115296255Y-113477174D01*
X115153397Y-113620032D01*
X114867683Y-113762889D01*
X114296255Y-113762889D01*
X114010540Y-113905746D01*
X113867683Y-114048603D01*
X113724826Y-114334317D01*
X113724826Y-114905746D01*
X113867683Y-115191460D01*
X114010540Y-115334317D01*
X114296255Y-115477174D01*
X114867683Y-115477174D01*
X115153397Y-115334317D01*
X115296255Y-115191460D01*
X115439112Y-114905746D01*
X115439112Y-114334317D01*
X115296255Y-114048603D01*
X115153397Y-113905746D01*
X114867683Y-113762889D01*
X117153397Y-113762889D02*
X116867683Y-113620032D01*
X116724826Y-113477174D01*
X116581969Y-113191460D01*
X116581969Y-113048603D01*
X116724826Y-112762889D01*
X116867683Y-112620032D01*
X117153397Y-112477174D01*
X117724826Y-112477174D01*
X118010540Y-112620032D01*
X118153397Y-112762889D01*
X118296255Y-113048603D01*
X118296255Y-113191460D01*
X118153397Y-113477174D01*
X118010540Y-113620032D01*
X117724826Y-113762889D01*
X117153397Y-113762889D01*
X116867683Y-113905746D01*
X116724826Y-114048603D01*
X116581969Y-114334317D01*
X116581969Y-114905746D01*
X116724826Y-115191460D01*
X116867683Y-115334317D01*
X117153397Y-115477174D01*
X117724826Y-115477174D01*
X118010540Y-115334317D01*
X118153397Y-115191460D01*
X118296255Y-114905746D01*
X118296255Y-114334317D01*
X118153397Y-114048603D01*
X118010540Y-113905746D01*
X117724826Y-113762889D01*
D10*
X107625000Y-76810000D02*
X107625000Y-76125000D01*
X107625000Y-76125000D02*
X108320000Y-76125000D01*
X108928276Y-77495000D02*
X109015000Y-77495000D01*
X107625000Y-77495000D02*
X109015000Y-77495000D01*
X107625000Y-77495000D02*
X107625000Y-77370000D01*
X109015000Y-77495000D02*
X109015000Y-77370000D01*
X107625000Y-77495000D02*
X107711724Y-77495000D01*
D11*
X108025300Y-107309300D02*
X102785300Y-107309300D01*
D12*
X108025300Y-105309300D02*
X115655300Y-105309300D01*
D11*
X120935300Y-107309300D02*
X115645300Y-107309300D01*
D12*
X115645300Y-109849300D02*
X108025300Y-109849300D01*
X108025300Y-109849300D02*
X108025300Y-105309300D01*
X115645300Y-105319300D02*
X115645300Y-109849300D01*
D10*
X118085300Y-107319300D02*
X120835300Y-107319300D01*
X120835300Y-107319300D02*
X120835300Y-104769300D01*
X120835300Y-104769300D02*
X118085300Y-104769300D01*
X118085300Y-104769300D02*
X118085300Y-107319300D01*
G36*
X118085300Y-107319300D02*
G01*
X120835300Y-107319300D01*
X120835300Y-104769300D01*
X118085300Y-104769300D01*
X118085300Y-107319300D01*
G37*
X116168276Y-77405000D02*
X116255000Y-77405000D01*
X114865000Y-76720000D02*
X114865000Y-76035000D01*
X114865000Y-77405000D02*
X114951724Y-77405000D01*
X114865000Y-77405000D02*
X116255000Y-77405000D01*
X114865000Y-76035000D02*
X115560000Y-76035000D01*
X116255000Y-77405000D02*
X116255000Y-77280000D01*
X114865000Y-77405000D02*
X114865000Y-77280000D01*
%LPC*%
D14*
X111950000Y-73230000D03*
D15*
X109550000Y-73230000D03*
X110252944Y-71532944D03*
X113647056Y-74927056D03*
X111950000Y-75630000D03*
X111950000Y-70830000D03*
X114350000Y-73230000D03*
X110252944Y-74927056D03*
X113647056Y-71532944D03*
D16*
X108320000Y-76810000D03*
D14*
X111910000Y-119990000D03*
D15*
X111910000Y-122390000D03*
X113607056Y-121687056D03*
X110212944Y-121687056D03*
X109510000Y-119990000D03*
X113607056Y-118292944D03*
X114310000Y-119990000D03*
X111910000Y-117590000D03*
X110212944Y-118292944D03*
D17*
X114135300Y-108548300D03*
D18*
X114135300Y-106389300D03*
X114135300Y-104230300D03*
X114135300Y-102071300D03*
X114135300Y-99912300D03*
X114135300Y-97753300D03*
X114135300Y-95594300D03*
X114135300Y-93435300D03*
X114135300Y-91276300D03*
X114135300Y-89117300D03*
X114135300Y-86958300D03*
X114135300Y-84799300D03*
X109455300Y-108523800D03*
X109455300Y-106364800D03*
X109455300Y-104205800D03*
X109455300Y-102046800D03*
X109455300Y-99887800D03*
X109455300Y-97728800D03*
X109455300Y-95569800D03*
X109455300Y-93410800D03*
X109455300Y-91251800D03*
X109455300Y-89092800D03*
X109455300Y-86933800D03*
X109455300Y-84774800D03*
D16*
X115560000Y-76720000D03*
M02*
