G04 #@! TF.GenerationSoftware,KiCad,Pcbnew,6.0.1-79c1e3a40b~116~ubuntu20.04.1*
G04 #@! TF.CreationDate,2022-01-18T16:47:47+01:00*
G04 #@! TF.ProjectId,Pro_Micro_GPIB,50726f5f-4d69-4637-926f-5f475049422e,rev?*
G04 #@! TF.SameCoordinates,Original*
G04 #@! TF.FileFunction,Legend,Bot*
G04 #@! TF.FilePolarity,Positive*
%FSLAX46Y46*%
G04 Gerber Fmt 4.6, Leading zero omitted, Abs format (unit mm)*
G04 Created by KiCad (PCBNEW 6.0.1-79c1e3a40b~116~ubuntu20.04.1) date 2022-01-18 16:47:47*
%MOMM*%
%LPD*%
G01*
G04 APERTURE LIST*
G04 Aperture macros list*
%AMRoundRect*
0 Rectangle with rounded corners*
0 $1 Rounding radius*
0 $2 $3 $4 $5 $6 $7 $8 $9 X,Y pos of 4 corners*
0 Add a 4 corners polygon primitive as box body*
4,1,4,$2,$3,$4,$5,$6,$7,$8,$9,$2,$3,0*
0 Add four circle primitives for the rounded corners*
1,1,$1+$1,$2,$3*
1,1,$1+$1,$4,$5*
1,1,$1+$1,$6,$7*
1,1,$1+$1,$8,$9*
0 Add four rect primitives between the rounded corners*
20,1,$1+$1,$2,$3,$4,$5,0*
20,1,$1+$1,$4,$5,$6,$7,0*
20,1,$1+$1,$6,$7,$8,$9,0*
20,1,$1+$1,$8,$9,$2,$3,0*%
G04 Aperture macros list end*
%ADD10C,0.150000*%
%ADD11C,0.300000*%
%ADD12C,6.400000*%
%ADD13C,0.800000*%
%ADD14R,0.850000X0.850000*%
%ADD15RoundRect,0.425000X0.775000X-0.425000X0.775000X0.425000X-0.775000X0.425000X-0.775000X-0.425000X0*%
%ADD16O,2.400000X1.700000*%
G04 APERTURE END LIST*
D10*
X104201255Y-76440032D02*
X104201255Y-74530032D01*
X104206255Y-118730032D02*
X108887555Y-123476742D01*
X104201255Y-74530032D02*
X108887555Y-69806542D01*
X119456255Y-118750032D02*
X114767655Y-123464042D01*
X119476255Y-76469677D02*
X119476255Y-74500032D01*
X108895402Y-123481574D02*
G75*
G03*
X114767655Y-123464042I2925863J3446534D01*
G01*
X104206255Y-118730032D02*
X104201255Y-108010032D01*
X114767662Y-69819234D02*
G75*
G03*
X108895395Y-69801702I-2946397J-3429008D01*
G01*
X119456255Y-118750032D02*
X119446255Y-108067522D01*
X119456255Y-74500032D02*
X114780355Y-69831942D01*
D11*
X112588185Y-108288603D02*
X112673899Y-108460032D01*
X112673899Y-108717174D01*
X112588185Y-108974317D01*
X112416756Y-109145746D01*
X112245327Y-109231460D01*
X111902470Y-109317174D01*
X111645327Y-109317174D01*
X111302470Y-109231460D01*
X111131042Y-109145746D01*
X110959613Y-108974317D01*
X110873899Y-108717174D01*
X110873899Y-108545746D01*
X110959613Y-108288603D01*
X111045327Y-108202889D01*
X111645327Y-108202889D01*
X111645327Y-108545746D01*
X110873899Y-107431460D02*
X112673899Y-107431460D01*
X112673899Y-106745746D01*
X112588185Y-106574317D01*
X112502470Y-106488603D01*
X112331042Y-106402889D01*
X112073899Y-106402889D01*
X111902470Y-106488603D01*
X111816756Y-106574317D01*
X111731042Y-106745746D01*
X111731042Y-107431460D01*
X111559613Y-105631460D02*
X111559613Y-104260032D01*
X110873899Y-103402889D02*
X112673899Y-103402889D01*
X111816756Y-101945746D02*
X111731042Y-101688603D01*
X111645327Y-101602889D01*
X111473899Y-101517174D01*
X111216756Y-101517174D01*
X111045327Y-101602889D01*
X110959613Y-101688603D01*
X110873899Y-101860032D01*
X110873899Y-102545746D01*
X112673899Y-102545746D01*
X112673899Y-101945746D01*
X112588185Y-101774317D01*
X112502470Y-101688603D01*
X112331042Y-101602889D01*
X112159613Y-101602889D01*
X111988185Y-101688603D01*
X111902470Y-101774317D01*
X111816756Y-101945746D01*
X111816756Y-102545746D01*
X111045327Y-98345746D02*
X110959613Y-98431460D01*
X110873899Y-98688603D01*
X110873899Y-98860032D01*
X110959613Y-99117174D01*
X111131042Y-99288603D01*
X111302470Y-99374317D01*
X111645327Y-99460032D01*
X111902470Y-99460032D01*
X112245327Y-99374317D01*
X112416756Y-99288603D01*
X112588185Y-99117174D01*
X112673899Y-98860032D01*
X112673899Y-98688603D01*
X112588185Y-98431460D01*
X112502470Y-98345746D01*
X112673899Y-97231460D02*
X112673899Y-96888603D01*
X112588185Y-96717174D01*
X112416756Y-96545746D01*
X112073899Y-96460032D01*
X111473899Y-96460032D01*
X111131042Y-96545746D01*
X110959613Y-96717174D01*
X110873899Y-96888603D01*
X110873899Y-97231460D01*
X110959613Y-97402889D01*
X111131042Y-97574317D01*
X111473899Y-97660032D01*
X112073899Y-97660032D01*
X112416756Y-97574317D01*
X112588185Y-97402889D01*
X112673899Y-97231460D01*
X110873899Y-95688603D02*
X112673899Y-95688603D01*
X110873899Y-94660032D01*
X112673899Y-94660032D01*
X110873899Y-93802889D02*
X112673899Y-93802889D01*
X110873899Y-92774317D01*
X112673899Y-92774317D01*
X111816756Y-91917174D02*
X111816756Y-91317174D01*
X110873899Y-91060032D02*
X110873899Y-91917174D01*
X112673899Y-91917174D01*
X112673899Y-91060032D01*
X111045327Y-89260032D02*
X110959613Y-89345746D01*
X110873899Y-89602889D01*
X110873899Y-89774317D01*
X110959613Y-90031460D01*
X111131042Y-90202889D01*
X111302470Y-90288603D01*
X111645327Y-90374317D01*
X111902470Y-90374317D01*
X112245327Y-90288603D01*
X112416756Y-90202889D01*
X112588185Y-90031460D01*
X112673899Y-89774317D01*
X112673899Y-89602889D01*
X112588185Y-89345746D01*
X112502470Y-89260032D01*
X112673899Y-88745746D02*
X112673899Y-87717174D01*
X110873899Y-88231460D02*
X112673899Y-88231460D01*
X112673899Y-86774317D02*
X112673899Y-86431460D01*
X112588185Y-86260032D01*
X112416756Y-86088603D01*
X112073899Y-86002889D01*
X111473899Y-86002889D01*
X111131042Y-86088603D01*
X110959613Y-86260032D01*
X110873899Y-86431460D01*
X110873899Y-86774317D01*
X110959613Y-86945746D01*
X111131042Y-87117174D01*
X111473899Y-87202889D01*
X112073899Y-87202889D01*
X112416756Y-87117174D01*
X112588185Y-86945746D01*
X112673899Y-86774317D01*
X110873899Y-84202889D02*
X111731042Y-84802889D01*
X110873899Y-85231460D02*
X112673899Y-85231460D01*
X112673899Y-84545746D01*
X112588185Y-84374317D01*
X112502470Y-84288603D01*
X112331042Y-84202889D01*
X112073899Y-84202889D01*
X111902470Y-84288603D01*
X111816756Y-84374317D01*
X111731042Y-84545746D01*
X111731042Y-85231460D01*
X107685719Y-85538233D02*
X107717525Y-107887334D01*
X108924882Y-109770367D02*
X114445719Y-111228233D01*
X115705719Y-110198233D02*
X115698440Y-83169031D01*
X108904902Y-83606187D02*
X114438440Y-82139031D01*
X107717525Y-107887334D02*
G75*
G03*
X108924882Y-109770367I1955825J-74552D01*
G01*
X108904902Y-83606187D02*
G75*
G03*
X107685719Y-85518233I759261J-1828848D01*
G01*
X115698439Y-83169031D02*
G75*
G03*
X114438440Y-82139031I-1131692J-98721D01*
G01*
X114445719Y-111228234D02*
G75*
G03*
X115705719Y-110198233I128307J1128722D01*
G01*
%LPC*%
D12*
X111950000Y-73230000D03*
D13*
X109550000Y-73230000D03*
X110252944Y-71532944D03*
X113647056Y-74927056D03*
X111950000Y-75630000D03*
X111950000Y-70830000D03*
X114350000Y-73230000D03*
X110252944Y-74927056D03*
X113647056Y-71532944D03*
D14*
X108320000Y-76810000D03*
D12*
X111910000Y-119990000D03*
D13*
X111910000Y-122390000D03*
X113607056Y-121687056D03*
X110212944Y-121687056D03*
X109510000Y-119990000D03*
X113607056Y-118292944D03*
X114310000Y-119990000D03*
X111910000Y-117590000D03*
X110212944Y-118292944D03*
D15*
X119455300Y-106039300D03*
D16*
X119455300Y-103499300D03*
X119455300Y-100959300D03*
X119455300Y-98419300D03*
X119455300Y-95879300D03*
X119455300Y-93339300D03*
X119455300Y-90799300D03*
X119455300Y-88259300D03*
X119455300Y-85719300D03*
X119455300Y-83179300D03*
X119455300Y-80639300D03*
X119455300Y-78099300D03*
X104215300Y-78099300D03*
X104215300Y-80639300D03*
X104215300Y-83179300D03*
X104215300Y-85719300D03*
X104215300Y-88259300D03*
X104215300Y-90799300D03*
X104215300Y-93339300D03*
X104215300Y-95879300D03*
X104215300Y-98419300D03*
X104215300Y-100959300D03*
X104215300Y-103499300D03*
X104215300Y-106039300D03*
D14*
X115560000Y-76720000D03*
M02*
