M48
; DRILL file {KiCad 6.0.1-79c1e3a40b~116~ubuntu20.04.1} date Tue 18 Jan 2022 04:47:47 PM CET
; FORMAT={-:-/ absolute / metric / decimal}
; #@! TF.CreationDate,2022-01-18T16:47:47+01:00
; #@! TF.GenerationSoftware,Kicad,Pcbnew,6.0.1-79c1e3a40b~116~ubuntu20.04.1
; #@! TF.FileFunction,Plated,1,2,PTH
FMAT,2
METRIC
; #@! TA.AperFunction,Plated,PTH,ViaDrill
T1C0.300
; #@! TA.AperFunction,Plated,PTH,ViaDrill
T2C0.400
; #@! TA.AperFunction,Plated,PTH,ComponentDrill
T3C0.500
; #@! TA.AperFunction,Plated,PTH,ComponentDrill
T4C0.900
; #@! TA.AperFunction,Plated,PTH,ComponentDrill
T5C1.000
; #@! TA.AperFunction,Plated,PTH,ComponentDrill
T6C1.100
; #@! TA.AperFunction,Plated,PTH,ComponentDrill
T7C3.200
%
G90
G05
T1
X108.675Y-82.15
X109.372Y-81.512
X109.708Y-111.15
X110.125Y-83.038
X111.648Y-81.65
X113.056Y-80.879
X113.208Y-82.41
X115.915Y-105.959
T2
X104.218Y-107.95
X104.808Y-118.57
X118.938Y-118.42
X119.488Y-107.94
T3
X108.32Y-76.81
X109.51Y-119.99
X109.55Y-73.23
X110.213Y-118.293
X110.213Y-121.687
X110.253Y-71.533
X110.253Y-74.927
X111.91Y-117.59
X111.91Y-122.39
X111.95Y-70.83
X111.95Y-75.63
X113.607Y-118.293
X113.607Y-121.687
X113.647Y-71.533
X113.647Y-74.927
X114.31Y-119.99
X114.35Y-73.23
X115.56Y-76.72
T4
X109.455Y-84.775
X109.455Y-86.934
X109.455Y-89.093
X109.455Y-91.252
X109.455Y-93.411
X109.455Y-95.57
X109.455Y-97.729
X109.455Y-99.888
X109.455Y-102.047
X109.455Y-104.206
X109.455Y-106.365
X109.455Y-108.524
X114.135Y-84.799
X114.135Y-86.958
X114.135Y-89.117
X114.135Y-91.276
X114.135Y-93.435
X114.135Y-95.594
X114.135Y-97.753
X114.135Y-99.912
X114.135Y-102.071
X114.135Y-104.23
X114.135Y-106.389
X114.135Y-108.548
T5
X104.215Y-78.099
X104.215Y-80.639
X104.215Y-83.179
X104.215Y-85.719
X104.215Y-88.259
X104.215Y-90.799
X104.215Y-93.339
X104.215Y-95.879
X104.215Y-98.419
X104.215Y-100.959
X104.215Y-103.499
X104.215Y-106.039
X119.455Y-78.099
X119.455Y-80.639
X119.455Y-83.179
X119.455Y-85.719
X119.455Y-88.259
X119.455Y-90.799
X119.455Y-93.339
X119.455Y-95.879
X119.455Y-98.419
X119.455Y-100.959
X119.455Y-103.499
T6
X119.455Y-106.039
T7
X111.91Y-119.99
X111.95Y-73.23
T0
M30
