G04 #@! TF.GenerationSoftware,KiCad,Pcbnew,6.0.1-79c1e3a40b~116~ubuntu20.04.1*
G04 #@! TF.CreationDate,2022-01-18T16:47:47+01:00*
G04 #@! TF.ProjectId,Pro_Micro_GPIB,50726f5f-4d69-4637-926f-5f475049422e,rev?*
G04 #@! TF.SameCoordinates,Original*
G04 #@! TF.FileFunction,Copper,L2,Bot*
G04 #@! TF.FilePolarity,Positive*
%FSLAX46Y46*%
G04 Gerber Fmt 4.6, Leading zero omitted, Abs format (unit mm)*
G04 Created by KiCad (PCBNEW 6.0.1-79c1e3a40b~116~ubuntu20.04.1) date 2022-01-18 16:47:47*
%MOMM*%
%LPD*%
G01*
G04 APERTURE LIST*
G04 Aperture macros list*
%AMRoundRect*
0 Rectangle with rounded corners*
0 $1 Rounding radius*
0 $2 $3 $4 $5 $6 $7 $8 $9 X,Y pos of 4 corners*
0 Add a 4 corners polygon primitive as box body*
4,1,4,$2,$3,$4,$5,$6,$7,$8,$9,$2,$3,0*
0 Add four circle primitives for the rounded corners*
1,1,$1+$1,$2,$3*
1,1,$1+$1,$4,$5*
1,1,$1+$1,$6,$7*
1,1,$1+$1,$8,$9*
0 Add four rect primitives between the rounded corners*
20,1,$1+$1,$2,$3,$4,$5,0*
20,1,$1+$1,$4,$5,$6,$7,0*
20,1,$1+$1,$6,$7,$8,$9,0*
20,1,$1+$1,$8,$9,$2,$3,0*%
G04 Aperture macros list end*
G04 #@! TA.AperFunction,ComponentPad*
%ADD10C,6.400000*%
G04 #@! TD*
G04 #@! TA.AperFunction,ComponentPad*
%ADD11C,0.800000*%
G04 #@! TD*
G04 #@! TA.AperFunction,ComponentPad*
%ADD12R,0.850000X0.850000*%
G04 #@! TD*
G04 #@! TA.AperFunction,ComponentPad*
%ADD13RoundRect,0.400000X0.650000X-0.400000X0.650000X0.400000X-0.650000X0.400000X-0.650000X-0.400000X0*%
G04 #@! TD*
G04 #@! TA.AperFunction,ComponentPad*
%ADD14O,2.100000X1.600000*%
G04 #@! TD*
G04 #@! TA.AperFunction,ComponentPad*
%ADD15RoundRect,0.425000X0.775000X-0.425000X0.775000X0.425000X-0.775000X0.425000X-0.775000X-0.425000X0*%
G04 #@! TD*
G04 #@! TA.AperFunction,ComponentPad*
%ADD16O,2.400000X1.700000*%
G04 #@! TD*
G04 #@! TA.AperFunction,ViaPad*
%ADD17C,0.600000*%
G04 #@! TD*
G04 #@! TA.AperFunction,ViaPad*
%ADD18C,0.800000*%
G04 #@! TD*
G04 #@! TA.AperFunction,Conductor*
%ADD19C,0.300000*%
G04 #@! TD*
G04 #@! TA.AperFunction,Conductor*
%ADD20C,0.400000*%
G04 #@! TD*
G04 #@! TA.AperFunction,Conductor*
%ADD21C,0.500000*%
G04 #@! TD*
G04 APERTURE END LIST*
D10*
X111950000Y-73230000D03*
D11*
X109550000Y-73230000D03*
X110252944Y-71532944D03*
X113647056Y-74927056D03*
X111950000Y-75630000D03*
X111950000Y-70830000D03*
X114350000Y-73230000D03*
X110252944Y-74927056D03*
X113647056Y-71532944D03*
D12*
X108320000Y-76810000D03*
D10*
X111910000Y-119990000D03*
D11*
X111910000Y-122390000D03*
X113607056Y-121687056D03*
X110212944Y-121687056D03*
X109510000Y-119990000D03*
X113607056Y-118292944D03*
X114310000Y-119990000D03*
X111910000Y-117590000D03*
X110212944Y-118292944D03*
D13*
X114135300Y-108548300D03*
D14*
X114135300Y-106389300D03*
X114135300Y-104230300D03*
X114135300Y-102071300D03*
X114135300Y-99912300D03*
X114135300Y-97753300D03*
X114135300Y-95594300D03*
X114135300Y-93435300D03*
X114135300Y-91276300D03*
X114135300Y-89117300D03*
X114135300Y-86958300D03*
X114135300Y-84799300D03*
X109455300Y-108523800D03*
X109455300Y-106364800D03*
X109455300Y-104205800D03*
X109455300Y-102046800D03*
X109455300Y-99887800D03*
X109455300Y-97728800D03*
X109455300Y-95569800D03*
X109455300Y-93410800D03*
X109455300Y-91251800D03*
X109455300Y-89092800D03*
X109455300Y-86933800D03*
X109455300Y-84774800D03*
D15*
X119455300Y-106039300D03*
D16*
X119455300Y-103499300D03*
X119455300Y-100959300D03*
X119455300Y-98419300D03*
X119455300Y-95879300D03*
X119455300Y-93339300D03*
X119455300Y-90799300D03*
X119455300Y-88259300D03*
X119455300Y-85719300D03*
X119455300Y-83179300D03*
X119455300Y-80639300D03*
X119455300Y-78099300D03*
X104215300Y-78099300D03*
X104215300Y-80639300D03*
X104215300Y-83179300D03*
X104215300Y-85719300D03*
X104215300Y-88259300D03*
X104215300Y-90799300D03*
X104215300Y-93339300D03*
X104215300Y-95879300D03*
X104215300Y-98419300D03*
X104215300Y-100959300D03*
X104215300Y-103499300D03*
X104215300Y-106039300D03*
D12*
X115560000Y-76720000D03*
D17*
X113208185Y-82410032D03*
X113055550Y-80879050D03*
X109708185Y-111150032D03*
X115915300Y-105958800D03*
X109372300Y-81512300D03*
X111647685Y-81650032D03*
X108674800Y-82149800D03*
X110125300Y-83037800D03*
D18*
X104218185Y-107950032D03*
X119488185Y-107940032D03*
X118938185Y-118420032D03*
X104808185Y-118570032D03*
D19*
X111319417Y-110088800D02*
X108483300Y-110088800D01*
X112468185Y-107090032D02*
X112468185Y-108940032D01*
X108483300Y-110088800D02*
X107298185Y-108903685D01*
X114242690Y-106389300D02*
X113168917Y-106389300D01*
X113168917Y-106389300D02*
X112468185Y-107090032D01*
X112468185Y-108940032D02*
X111319417Y-110088800D01*
X107298185Y-108903685D02*
X107298185Y-87480032D01*
X107298185Y-87480032D02*
X105522953Y-85704800D01*
X105522953Y-85704800D02*
X104228800Y-85704800D01*
X113208185Y-82410032D02*
X112018185Y-83600032D01*
X112018185Y-102730032D02*
X113471453Y-104183300D01*
X113471453Y-104183300D02*
X114134800Y-104183300D01*
X112018185Y-83600032D02*
X112018185Y-102730032D01*
X113055550Y-80879050D02*
X113944300Y-81767800D01*
X112588185Y-100922185D02*
X113690300Y-102024300D01*
X113944300Y-82783800D02*
X112588185Y-84139915D01*
X113055300Y-80878800D02*
X113055550Y-80879050D01*
X112588185Y-84139915D02*
X112588185Y-100922185D01*
X113690300Y-102024300D02*
X114261800Y-102024300D01*
X113944300Y-81767800D02*
X113944300Y-82783800D01*
X114260600Y-99930210D02*
X116231710Y-99930210D01*
X106668185Y-109430032D02*
X106668185Y-89520032D01*
X116688185Y-110075415D02*
X114964067Y-111799533D01*
X109037686Y-111799533D02*
X106668185Y-109430032D01*
X106668185Y-89520032D02*
X105456453Y-88308300D01*
X105456453Y-88308300D02*
X104165300Y-88308300D01*
X114964067Y-111799533D02*
X109037686Y-111799533D01*
X116688185Y-100386685D02*
X116688185Y-110075415D01*
X116231710Y-99930210D02*
X116688185Y-100386685D01*
X106058185Y-109900032D02*
X108588185Y-112430032D01*
X115785800Y-97769800D02*
X114388800Y-97769800D01*
X115508185Y-112430032D02*
X117436800Y-110501417D01*
X106058185Y-91407685D02*
X106058185Y-109900032D01*
X108588185Y-112430032D02*
X115508185Y-112430032D01*
X104228800Y-90784800D02*
X105435300Y-90784800D01*
X117436800Y-99420800D02*
X115785800Y-97769800D01*
X105435300Y-90784800D02*
X106058185Y-91407685D01*
X117436800Y-110501417D02*
X117436800Y-99420800D01*
X114438185Y-111150032D02*
X109708185Y-111150032D01*
X115912800Y-105961300D02*
X115912800Y-109675417D01*
X115912800Y-109675417D02*
X114438185Y-111150032D01*
X117182800Y-87924647D02*
X117182800Y-94406800D01*
X118695300Y-95919300D02*
X119445300Y-95919300D01*
X116132763Y-86874610D02*
X117182800Y-87924647D01*
X117182800Y-94406800D02*
X118695300Y-95919300D01*
X114260600Y-86874610D02*
X116132763Y-86874610D01*
D20*
X114135300Y-84799300D02*
X114135300Y-84342917D01*
D19*
X109372300Y-81513800D02*
X109372300Y-81512300D01*
X118227453Y-80679300D02*
X119445300Y-80679300D01*
X111518674Y-102936936D02*
X111518674Y-81779043D01*
X111608185Y-107990032D02*
X111608185Y-103026448D01*
X109372300Y-79608800D02*
X110241068Y-78740032D01*
X111032007Y-108566210D02*
X111608185Y-107990032D01*
X109372300Y-81512300D02*
X109372300Y-79608800D01*
X110241068Y-78740032D02*
X116288185Y-78740032D01*
X111518674Y-81779043D02*
X111647685Y-81650032D01*
X111608185Y-103026448D02*
X111518674Y-102936936D01*
X116288185Y-78740032D02*
X118227453Y-80679300D01*
X109460000Y-108566210D02*
X111032007Y-108566210D01*
X109753300Y-78084800D02*
X119341800Y-78084800D01*
X108673800Y-82148800D02*
X108546800Y-82021800D01*
X108546800Y-79291300D02*
X109753300Y-78084800D01*
X108546800Y-82021800D02*
X108546800Y-79291300D01*
X104228800Y-78084800D02*
X105252953Y-78084800D01*
X105252953Y-78084800D02*
X106288185Y-79120032D01*
X107898185Y-86030032D02*
X107898185Y-102645685D01*
X107898185Y-102645685D02*
X109499300Y-104246800D01*
X106288185Y-84420032D02*
X107898185Y-86030032D01*
X106288185Y-79120032D02*
X106288185Y-84420032D01*
X117128185Y-80740032D02*
X117128185Y-84570685D01*
X110724068Y-79400032D02*
X115788185Y-79400032D01*
X110125300Y-79998800D02*
X110724068Y-79400032D01*
X117128185Y-84570685D02*
X118262300Y-85704800D01*
X110125300Y-83037800D02*
X110125300Y-79998800D01*
X115788185Y-79400032D02*
X117128185Y-80740032D01*
X119077453Y-88299300D02*
X119445300Y-88299300D01*
X110998185Y-98594915D02*
X110998185Y-81080032D01*
X116308185Y-85530032D02*
X119077453Y-88299300D01*
X109455300Y-99887800D02*
X109705300Y-99887800D01*
X116308185Y-81090032D02*
X116308185Y-85530032D01*
X110998185Y-81080032D02*
X111988185Y-80090032D01*
X109705300Y-99887800D02*
X110998185Y-98594915D01*
X115308185Y-80090032D02*
X116308185Y-81090032D01*
X111988185Y-80090032D02*
X115308185Y-80090032D01*
D21*
X109448185Y-84740032D02*
X109460000Y-84751847D01*
X109460000Y-95561410D02*
X109460000Y-97667000D01*
X109460000Y-84751847D02*
X109460000Y-91190000D01*
X109460000Y-93351610D02*
X109460000Y-95508000D01*
X109460000Y-91192610D02*
X109460000Y-93349000D01*
G04 #@! TA.AperFunction,Conductor*
G36*
X105445225Y-107036241D02*
G01*
X105493656Y-107086601D01*
X105507685Y-107143893D01*
X105507685Y-109885075D01*
X105507576Y-109890267D01*
X105504975Y-109952326D01*
X105506906Y-109960557D01*
X105506906Y-109960561D01*
X105514932Y-109994779D01*
X105517061Y-110006264D01*
X105522979Y-110049464D01*
X105526336Y-110057221D01*
X105529019Y-110063421D01*
X105535943Y-110084357D01*
X105539417Y-110099168D01*
X105543490Y-110106576D01*
X105560423Y-110137378D01*
X105565561Y-110147867D01*
X105579522Y-110180129D01*
X105579525Y-110180134D01*
X105582880Y-110187887D01*
X105588197Y-110194453D01*
X105588198Y-110194455D01*
X105592452Y-110199708D01*
X105604742Y-110217997D01*
X105612078Y-110231340D01*
X105619082Y-110239454D01*
X105643694Y-110264066D01*
X105652379Y-110273711D01*
X105677799Y-110305102D01*
X105693269Y-110316096D01*
X105709119Y-110329491D01*
X108188327Y-112808698D01*
X108191922Y-112812446D01*
X108233984Y-112858188D01*
X108267985Y-112879269D01*
X108271046Y-112881167D01*
X108280672Y-112887783D01*
X108315401Y-112914144D01*
X108323258Y-112917255D01*
X108323260Y-112917256D01*
X108329549Y-112919746D01*
X108349235Y-112929647D01*
X108353355Y-112932201D01*
X108362171Y-112937667D01*
X108400490Y-112948800D01*
X108404049Y-112949834D01*
X108415101Y-112953618D01*
X108447775Y-112966555D01*
X108447782Y-112966557D01*
X108455638Y-112969667D01*
X108464041Y-112970550D01*
X108464045Y-112970551D01*
X108470758Y-112971256D01*
X108492399Y-112975502D01*
X108500770Y-112977934D01*
X108507010Y-112979747D01*
X108513485Y-112980222D01*
X108513488Y-112980223D01*
X108515425Y-112980365D01*
X108515427Y-112980365D01*
X108517700Y-112980532D01*
X108552508Y-112980532D01*
X108565470Y-112981211D01*
X108605639Y-112985433D01*
X108613969Y-112984024D01*
X108613972Y-112984024D01*
X108624352Y-112982268D01*
X108645031Y-112980532D01*
X115493228Y-112980532D01*
X115498421Y-112980641D01*
X115552031Y-112982888D01*
X115552032Y-112982888D01*
X115560479Y-112983242D01*
X115568710Y-112981311D01*
X115568714Y-112981311D01*
X115602932Y-112973285D01*
X115614417Y-112971156D01*
X115632273Y-112968710D01*
X115649245Y-112966385D01*
X115649246Y-112966385D01*
X115657617Y-112965238D01*
X115671575Y-112959198D01*
X115692510Y-112952274D01*
X115699088Y-112950731D01*
X115707321Y-112948800D01*
X115745533Y-112927793D01*
X115756020Y-112922656D01*
X115788282Y-112908695D01*
X115788287Y-112908692D01*
X115796040Y-112905337D01*
X115802606Y-112900020D01*
X115802608Y-112900019D01*
X115807861Y-112895765D01*
X115826150Y-112883475D01*
X115839493Y-112876139D01*
X115847607Y-112869135D01*
X115872219Y-112844523D01*
X115881864Y-112835838D01*
X115913255Y-112810418D01*
X115924249Y-112794948D01*
X115937644Y-112779098D01*
X117815479Y-110901263D01*
X117819227Y-110897668D01*
X117858735Y-110861339D01*
X117858737Y-110861337D01*
X117864956Y-110855618D01*
X117887938Y-110818552D01*
X117894550Y-110808932D01*
X117909180Y-110789658D01*
X117920912Y-110774201D01*
X117926512Y-110760057D01*
X117936418Y-110740361D01*
X117939980Y-110734616D01*
X117944435Y-110727431D01*
X117956602Y-110685552D01*
X117960381Y-110674513D01*
X117976435Y-110633965D01*
X117978025Y-110618840D01*
X117982268Y-110597211D01*
X117984701Y-110588836D01*
X117986515Y-110582592D01*
X117987300Y-110571902D01*
X117987300Y-110537094D01*
X117987979Y-110524132D01*
X117988071Y-110523255D01*
X117992201Y-110483963D01*
X117989036Y-110465250D01*
X117987300Y-110444571D01*
X117987300Y-107225169D01*
X118006985Y-107158130D01*
X118059789Y-107112375D01*
X118128947Y-107102431D01*
X118188999Y-107128531D01*
X118232922Y-107163846D01*
X118393575Y-107243595D01*
X118400092Y-107245220D01*
X118400095Y-107245221D01*
X118562307Y-107285664D01*
X118562309Y-107285664D01*
X118567606Y-107286985D01*
X118573049Y-107287356D01*
X118573055Y-107287357D01*
X118596000Y-107288921D01*
X118608896Y-107289800D01*
X120301704Y-107289800D01*
X120314600Y-107288921D01*
X120337545Y-107287357D01*
X120337551Y-107287356D01*
X120342994Y-107286985D01*
X120348291Y-107285664D01*
X120348293Y-107285664D01*
X120404857Y-107271561D01*
X120444188Y-107261755D01*
X120513997Y-107264637D01*
X120571167Y-107304803D01*
X120597546Y-107369502D01*
X120598185Y-107382072D01*
X120598185Y-118957133D01*
X120578500Y-119024172D01*
X120563048Y-119043616D01*
X115433613Y-124314023D01*
X115414473Y-124330079D01*
X115405971Y-124335859D01*
X115398112Y-124345994D01*
X115381160Y-124363862D01*
X115073771Y-124629262D01*
X115065623Y-124635721D01*
X114711120Y-124893298D01*
X114702460Y-124899051D01*
X114327635Y-125126019D01*
X114318524Y-125131027D01*
X113925989Y-125325803D01*
X113916489Y-125330030D01*
X113509025Y-125491234D01*
X113499208Y-125494649D01*
X113080842Y-125620799D01*
X113079671Y-125621152D01*
X113069602Y-125623733D01*
X112640934Y-125714645D01*
X112630688Y-125716373D01*
X112534267Y-125728500D01*
X112195913Y-125771055D01*
X112185551Y-125771919D01*
X111853960Y-125785602D01*
X111747714Y-125789986D01*
X111737324Y-125789978D01*
X111299532Y-125771302D01*
X111289178Y-125770424D01*
X110854468Y-125715136D01*
X110844240Y-125713397D01*
X110415681Y-125621883D01*
X110405630Y-125619291D01*
X109986272Y-125492205D01*
X109976459Y-125488776D01*
X109569198Y-125326996D01*
X109559705Y-125322756D01*
X109167464Y-125127444D01*
X109158359Y-125122424D01*
X108783833Y-124894924D01*
X108775181Y-124889158D01*
X108421040Y-124631088D01*
X108412917Y-124624631D01*
X108105882Y-124358789D01*
X108088957Y-124340898D01*
X108081115Y-124330756D01*
X108073051Y-124325257D01*
X108070739Y-124323079D01*
X108054550Y-124309349D01*
X104989912Y-121101014D01*
X103928659Y-119990000D01*
X108304559Y-119990000D01*
X108324310Y-120366871D01*
X108383347Y-120739613D01*
X108481022Y-121104143D01*
X108482180Y-121107159D01*
X108482182Y-121107166D01*
X108615102Y-121453434D01*
X108615106Y-121453442D01*
X108616266Y-121456465D01*
X108787597Y-121792720D01*
X108789363Y-121795440D01*
X108789368Y-121795448D01*
X108991365Y-122106497D01*
X108993137Y-122109225D01*
X108995178Y-122111745D01*
X108995182Y-122111751D01*
X109228595Y-122399992D01*
X109230635Y-122402511D01*
X109497489Y-122669365D01*
X109500006Y-122671403D01*
X109500008Y-122671405D01*
X109788249Y-122904818D01*
X109788255Y-122904822D01*
X109790775Y-122906863D01*
X109793498Y-122908631D01*
X109793503Y-122908635D01*
X110061843Y-123082897D01*
X110107279Y-123112403D01*
X110443535Y-123283734D01*
X110446558Y-123284894D01*
X110446566Y-123284898D01*
X110792834Y-123417818D01*
X110792841Y-123417820D01*
X110795857Y-123418978D01*
X111160387Y-123516653D01*
X111533129Y-123575690D01*
X111536361Y-123575859D01*
X111536367Y-123575860D01*
X111906756Y-123595271D01*
X111910000Y-123595441D01*
X111913244Y-123595271D01*
X112283633Y-123575860D01*
X112283639Y-123575859D01*
X112286871Y-123575690D01*
X112659613Y-123516653D01*
X113024143Y-123418978D01*
X113027159Y-123417820D01*
X113027166Y-123417818D01*
X113373434Y-123284898D01*
X113373442Y-123284894D01*
X113376465Y-123283734D01*
X113712721Y-123112403D01*
X113758157Y-123082897D01*
X114026497Y-122908635D01*
X114026502Y-122908631D01*
X114029225Y-122906863D01*
X114031745Y-122904822D01*
X114031751Y-122904818D01*
X114319992Y-122671405D01*
X114319994Y-122671403D01*
X114322511Y-122669365D01*
X114589365Y-122402511D01*
X114591405Y-122399992D01*
X114824818Y-122111751D01*
X114824822Y-122111745D01*
X114826863Y-122109225D01*
X114828635Y-122106497D01*
X115030632Y-121795448D01*
X115030637Y-121795440D01*
X115032403Y-121792720D01*
X115203734Y-121456465D01*
X115204894Y-121453442D01*
X115204898Y-121453434D01*
X115337818Y-121107166D01*
X115337820Y-121107159D01*
X115338978Y-121104143D01*
X115436653Y-120739613D01*
X115495690Y-120366871D01*
X115515441Y-119990000D01*
X115495690Y-119613129D01*
X115436653Y-119240387D01*
X115338978Y-118875857D01*
X115337818Y-118872834D01*
X115204898Y-118526566D01*
X115204894Y-118526558D01*
X115203734Y-118523535D01*
X115032403Y-118187280D01*
X115030637Y-118184560D01*
X115030632Y-118184552D01*
X114828635Y-117873503D01*
X114828631Y-117873498D01*
X114826863Y-117870775D01*
X114824822Y-117868255D01*
X114824818Y-117868249D01*
X114591405Y-117580008D01*
X114591403Y-117580006D01*
X114589365Y-117577489D01*
X114322511Y-117310635D01*
X114319992Y-117308595D01*
X114031751Y-117075182D01*
X114031745Y-117075178D01*
X114029225Y-117073137D01*
X114026502Y-117071369D01*
X114026497Y-117071365D01*
X113715448Y-116869368D01*
X113712721Y-116867597D01*
X113376465Y-116696266D01*
X113373442Y-116695106D01*
X113373434Y-116695102D01*
X113027166Y-116562182D01*
X113027159Y-116562180D01*
X113024143Y-116561022D01*
X112659613Y-116463347D01*
X112286871Y-116404310D01*
X112283639Y-116404141D01*
X112283633Y-116404140D01*
X111913244Y-116384729D01*
X111910000Y-116384559D01*
X111906756Y-116384729D01*
X111536367Y-116404140D01*
X111536361Y-116404141D01*
X111533129Y-116404310D01*
X111160387Y-116463347D01*
X110795857Y-116561022D01*
X110792841Y-116562180D01*
X110792834Y-116562182D01*
X110446566Y-116695102D01*
X110446558Y-116695106D01*
X110443535Y-116696266D01*
X110107280Y-116867597D01*
X110104560Y-116869363D01*
X110104552Y-116869368D01*
X109793503Y-117071365D01*
X109793498Y-117071369D01*
X109790775Y-117073137D01*
X109788255Y-117075178D01*
X109788249Y-117075182D01*
X109500008Y-117308595D01*
X109497489Y-117310635D01*
X109230635Y-117577489D01*
X109228597Y-117580006D01*
X109228595Y-117580008D01*
X108995182Y-117868249D01*
X108995178Y-117868255D01*
X108993137Y-117870775D01*
X108991369Y-117873498D01*
X108991365Y-117873503D01*
X108789368Y-118184552D01*
X108789363Y-118184560D01*
X108787597Y-118187280D01*
X108616266Y-118523535D01*
X108615106Y-118526558D01*
X108615102Y-118526566D01*
X108482182Y-118872834D01*
X108481022Y-118875857D01*
X108383347Y-119240387D01*
X108324310Y-119613129D01*
X108304559Y-119990000D01*
X103928659Y-119990000D01*
X103026589Y-119045633D01*
X102994517Y-118983559D01*
X102992255Y-118959983D01*
X102992255Y-107192076D01*
X103011940Y-107125037D01*
X103064744Y-107079282D01*
X103133902Y-107069338D01*
X103182148Y-107087032D01*
X103206695Y-107102431D01*
X103290615Y-107155075D01*
X103290620Y-107155078D01*
X103295290Y-107158007D01*
X103300407Y-107160064D01*
X103300411Y-107160066D01*
X103407978Y-107203307D01*
X103502405Y-107241266D01*
X103507807Y-107242385D01*
X103507808Y-107242385D01*
X103513651Y-107243595D01*
X103720990Y-107286533D01*
X103777649Y-107289800D01*
X104621930Y-107289800D01*
X104624673Y-107289555D01*
X104624677Y-107289555D01*
X104782139Y-107275502D01*
X104782141Y-107275502D01*
X104787639Y-107275011D01*
X105002951Y-107216108D01*
X105007930Y-107213733D01*
X105007933Y-107213732D01*
X105199448Y-107122384D01*
X105199450Y-107122383D01*
X105204429Y-107120008D01*
X105208913Y-107116786D01*
X105311326Y-107043195D01*
X105377255Y-107020060D01*
X105445225Y-107036241D01*
G37*
G04 #@! TD.AperFunction*
G04 #@! TA.AperFunction,Conductor*
G36*
X115920415Y-87444795D02*
G01*
X115941057Y-87461429D01*
X116595981Y-88116353D01*
X116629466Y-88177676D01*
X116632300Y-88204034D01*
X116632300Y-94391843D01*
X116632191Y-94397035D01*
X116629590Y-94459094D01*
X116631521Y-94467325D01*
X116631521Y-94467329D01*
X116639547Y-94501547D01*
X116641677Y-94513036D01*
X116645809Y-94543198D01*
X116647594Y-94556232D01*
X116650951Y-94563989D01*
X116653634Y-94570189D01*
X116660558Y-94591125D01*
X116664032Y-94605936D01*
X116684732Y-94643589D01*
X116685038Y-94644146D01*
X116690176Y-94654635D01*
X116704137Y-94686897D01*
X116704140Y-94686902D01*
X116707495Y-94694655D01*
X116712812Y-94701221D01*
X116712813Y-94701223D01*
X116717067Y-94706476D01*
X116729357Y-94724765D01*
X116736693Y-94738108D01*
X116740941Y-94743030D01*
X116740943Y-94743032D01*
X116742212Y-94744502D01*
X116743697Y-94746222D01*
X116768309Y-94770834D01*
X116776994Y-94780479D01*
X116802414Y-94811870D01*
X116817884Y-94822864D01*
X116833734Y-94836259D01*
X117814642Y-95817166D01*
X117848127Y-95878489D01*
X117850421Y-95907711D01*
X117850511Y-95907708D01*
X117850571Y-95909623D01*
X117850756Y-95911977D01*
X117850366Y-95918738D01*
X117877183Y-96140344D01*
X117878808Y-96145626D01*
X117936274Y-96332424D01*
X117942819Y-96353700D01*
X117945352Y-96358607D01*
X117945353Y-96358610D01*
X118042667Y-96547150D01*
X118045201Y-96552059D01*
X118069082Y-96583181D01*
X118177730Y-96724776D01*
X118177734Y-96724780D01*
X118181090Y-96729154D01*
X118346193Y-96879386D01*
X118352265Y-96883195D01*
X118522852Y-96990205D01*
X118569182Y-97042505D01*
X118579882Y-97111551D01*
X118551554Y-97175420D01*
X118509363Y-97207630D01*
X118432633Y-97243410D01*
X118423283Y-97248808D01*
X118238657Y-97378084D01*
X118230393Y-97385019D01*
X118071021Y-97544391D01*
X118064085Y-97552657D01*
X117934802Y-97737292D01*
X117929414Y-97746624D01*
X117834157Y-97950903D01*
X117830468Y-97961036D01*
X117779278Y-98152079D01*
X117779609Y-98165953D01*
X117787425Y-98169300D01*
X119581300Y-98169300D01*
X119648339Y-98188985D01*
X119694094Y-98241789D01*
X119705300Y-98293300D01*
X119705300Y-101085300D01*
X119685615Y-101152339D01*
X119632811Y-101198094D01*
X119581300Y-101209300D01*
X119329300Y-101209300D01*
X119262261Y-101189615D01*
X119216506Y-101136811D01*
X119205300Y-101085300D01*
X119205300Y-98687130D01*
X119200896Y-98672131D01*
X119199526Y-98670944D01*
X119191968Y-98669300D01*
X117792494Y-98669300D01*
X117779177Y-98673210D01*
X117775281Y-98700304D01*
X117746255Y-98763859D01*
X117687477Y-98801633D01*
X117617607Y-98801633D01*
X117564862Y-98770337D01*
X116185658Y-97391134D01*
X116182063Y-97387386D01*
X116145722Y-97347865D01*
X116145720Y-97347863D01*
X116140001Y-97341644D01*
X116102938Y-97318664D01*
X116093310Y-97312047D01*
X116065316Y-97290798D01*
X116065313Y-97290796D01*
X116058583Y-97285688D01*
X116050725Y-97282577D01*
X116050720Y-97282574D01*
X116044445Y-97280090D01*
X116024744Y-97270182D01*
X116018999Y-97266620D01*
X116011814Y-97262165D01*
X115985846Y-97254621D01*
X115969942Y-97250000D01*
X115958891Y-97246216D01*
X115926208Y-97233276D01*
X115926205Y-97233275D01*
X115918347Y-97230164D01*
X115903218Y-97228574D01*
X115881584Y-97224329D01*
X115873219Y-97221899D01*
X115866975Y-97220085D01*
X115859476Y-97219534D01*
X115858560Y-97219467D01*
X115858558Y-97219467D01*
X115856285Y-97219300D01*
X115821478Y-97219300D01*
X115808517Y-97218621D01*
X115776752Y-97215282D01*
X115776749Y-97215282D01*
X115768346Y-97214399D01*
X115760016Y-97215808D01*
X115760013Y-97215808D01*
X115749633Y-97217564D01*
X115728954Y-97219300D01*
X115535110Y-97219300D01*
X115468071Y-97199615D01*
X115428544Y-97158700D01*
X115363596Y-97049532D01*
X115363595Y-97049531D01*
X115360686Y-97044641D01*
X115215210Y-96878757D01*
X115210751Y-96875242D01*
X115210747Y-96875238D01*
X115077766Y-96770405D01*
X115037306Y-96713443D01*
X115034064Y-96643649D01*
X115069071Y-96583181D01*
X115080342Y-96573671D01*
X115115858Y-96547150D01*
X115192033Y-96490267D01*
X115341801Y-96328249D01*
X115459536Y-96141650D01*
X115541294Y-95936721D01*
X115547065Y-95907711D01*
X115583227Y-95725908D01*
X115584338Y-95720324D01*
X115587226Y-95499706D01*
X115549862Y-95282257D01*
X115473496Y-95075257D01*
X115386394Y-94928852D01*
X115363596Y-94890532D01*
X115363595Y-94890531D01*
X115360686Y-94885641D01*
X115215210Y-94719757D01*
X115210751Y-94716242D01*
X115210747Y-94716238D01*
X115077766Y-94611405D01*
X115037306Y-94554443D01*
X115034064Y-94484649D01*
X115069071Y-94424181D01*
X115080342Y-94414671D01*
X115110912Y-94391843D01*
X115192033Y-94331267D01*
X115341801Y-94169249D01*
X115438216Y-94016441D01*
X115456502Y-93987459D01*
X115456503Y-93987457D01*
X115459536Y-93982650D01*
X115541294Y-93777721D01*
X115584338Y-93561324D01*
X115586729Y-93378738D01*
X115587152Y-93346395D01*
X115587152Y-93346390D01*
X115587226Y-93340706D01*
X115586263Y-93335101D01*
X115550825Y-93128860D01*
X115550824Y-93128857D01*
X115549862Y-93123257D01*
X115473496Y-92916257D01*
X115382031Y-92762518D01*
X115363596Y-92731532D01*
X115363595Y-92731531D01*
X115360686Y-92726641D01*
X115215210Y-92560757D01*
X115210751Y-92557242D01*
X115210747Y-92557238D01*
X115077766Y-92452405D01*
X115037306Y-92395443D01*
X115034064Y-92325649D01*
X115069071Y-92265181D01*
X115080342Y-92255671D01*
X115123389Y-92223526D01*
X115192033Y-92172267D01*
X115341801Y-92010249D01*
X115369540Y-91966286D01*
X115456502Y-91828459D01*
X115456503Y-91828457D01*
X115459536Y-91823650D01*
X115541294Y-91618721D01*
X115584338Y-91402324D01*
X115585397Y-91321495D01*
X115587152Y-91187395D01*
X115587152Y-91187390D01*
X115587226Y-91181706D01*
X115549862Y-90964257D01*
X115473496Y-90757257D01*
X115360686Y-90567641D01*
X115215210Y-90401757D01*
X115210751Y-90398242D01*
X115210747Y-90398238D01*
X115077766Y-90293405D01*
X115037306Y-90236443D01*
X115034064Y-90166649D01*
X115069071Y-90106181D01*
X115080342Y-90096671D01*
X115192033Y-90013267D01*
X115341801Y-89851249D01*
X115355240Y-89829950D01*
X115456502Y-89669459D01*
X115456503Y-89669457D01*
X115459536Y-89664650D01*
X115541294Y-89459721D01*
X115549535Y-89418294D01*
X115565747Y-89336786D01*
X115584338Y-89243324D01*
X115584736Y-89212975D01*
X115587152Y-89028395D01*
X115587152Y-89028390D01*
X115587226Y-89022706D01*
X115570807Y-88927150D01*
X115550825Y-88810860D01*
X115550824Y-88810857D01*
X115549862Y-88805257D01*
X115473496Y-88598257D01*
X115360686Y-88408641D01*
X115215210Y-88242757D01*
X115210751Y-88239242D01*
X115210747Y-88239238D01*
X115077766Y-88134405D01*
X115037306Y-88077443D01*
X115034064Y-88007649D01*
X115069071Y-87947181D01*
X115080342Y-87937671D01*
X115192033Y-87854267D01*
X115341801Y-87692249D01*
X115344836Y-87687439D01*
X115456502Y-87510459D01*
X115456503Y-87510457D01*
X115459536Y-87505650D01*
X115461643Y-87500369D01*
X115464223Y-87495305D01*
X115465986Y-87496203D01*
X115503653Y-87448189D01*
X115575701Y-87425110D01*
X115853376Y-87425110D01*
X115920415Y-87444795D01*
G37*
G04 #@! TD.AperFunction*
G04 #@! TA.AperFunction,Conductor*
G36*
X111755186Y-67846086D02*
G01*
X112192978Y-67864762D01*
X112203332Y-67865640D01*
X112638042Y-67920928D01*
X112648270Y-67922667D01*
X113076829Y-68014181D01*
X113086880Y-68016773D01*
X113506236Y-68143858D01*
X113516051Y-68147288D01*
X113923312Y-68309068D01*
X113932805Y-68313308D01*
X114325046Y-68508620D01*
X114334151Y-68513640D01*
X114708677Y-68741140D01*
X114717326Y-68746904D01*
X115071470Y-69004976D01*
X115079593Y-69011433D01*
X115380769Y-69272202D01*
X115386626Y-69277273D01*
X115403553Y-69295166D01*
X115411395Y-69305308D01*
X115420185Y-69311302D01*
X115439188Y-69327267D01*
X116200299Y-70109368D01*
X120442721Y-74468788D01*
X120563051Y-74592437D01*
X120595698Y-74654210D01*
X120598185Y-74678918D01*
X120598185Y-76896239D01*
X120578500Y-76963278D01*
X120525696Y-77009033D01*
X120456538Y-77018977D01*
X120408291Y-77001282D01*
X120404253Y-76998749D01*
X120375310Y-76980593D01*
X120370193Y-76978536D01*
X120370189Y-76978534D01*
X120173317Y-76899393D01*
X120168195Y-76897334D01*
X119949610Y-76852067D01*
X119892951Y-76848800D01*
X119048670Y-76848800D01*
X119045927Y-76849045D01*
X119045923Y-76849045D01*
X118888461Y-76863098D01*
X118888459Y-76863098D01*
X118882961Y-76863589D01*
X118667649Y-76922492D01*
X118662670Y-76924867D01*
X118662667Y-76924868D01*
X118471152Y-77016216D01*
X118466171Y-77018592D01*
X118461689Y-77021813D01*
X118461687Y-77021814D01*
X118348797Y-77102934D01*
X118284895Y-77148852D01*
X118129551Y-77309154D01*
X118126473Y-77313734D01*
X118126471Y-77313737D01*
X118079699Y-77383342D01*
X118026971Y-77461811D01*
X118015111Y-77479460D01*
X117961382Y-77524125D01*
X117912189Y-77534300D01*
X116438483Y-77534300D01*
X116371444Y-77514615D01*
X116325689Y-77461811D01*
X116315745Y-77392653D01*
X116327998Y-77354005D01*
X116329655Y-77350753D01*
X116370646Y-77270304D01*
X116385500Y-77176519D01*
X116385499Y-76263482D01*
X116370646Y-76169696D01*
X116313050Y-76056658D01*
X116223342Y-75966950D01*
X116110304Y-75909354D01*
X116069113Y-75902830D01*
X116021339Y-75895263D01*
X116021334Y-75895263D01*
X116016519Y-75894500D01*
X116011641Y-75894500D01*
X115559673Y-75894501D01*
X115103482Y-75894501D01*
X115030849Y-75906004D01*
X115019331Y-75907828D01*
X115019330Y-75907828D01*
X115009696Y-75909354D01*
X114896658Y-75966950D01*
X114806950Y-76056658D01*
X114749354Y-76169696D01*
X114734500Y-76263481D01*
X114734501Y-77176518D01*
X114749354Y-77270304D01*
X114790345Y-77350753D01*
X114792002Y-77354005D01*
X114804898Y-77422674D01*
X114778622Y-77487415D01*
X114721515Y-77527672D01*
X114681517Y-77534300D01*
X109768257Y-77534300D01*
X109763064Y-77534191D01*
X109709454Y-77531944D01*
X109709453Y-77531944D01*
X109701006Y-77531590D01*
X109692775Y-77533521D01*
X109692771Y-77533521D01*
X109658553Y-77541547D01*
X109647068Y-77543676D01*
X109629212Y-77546122D01*
X109612240Y-77548447D01*
X109612239Y-77548447D01*
X109603868Y-77549594D01*
X109596110Y-77552951D01*
X109596111Y-77552951D01*
X109589911Y-77555634D01*
X109568975Y-77562558D01*
X109562397Y-77564101D01*
X109554164Y-77566032D01*
X109515954Y-77587038D01*
X109505465Y-77592176D01*
X109473203Y-77606137D01*
X109473198Y-77606140D01*
X109465445Y-77609495D01*
X109458879Y-77614812D01*
X109458877Y-77614813D01*
X109453624Y-77619067D01*
X109435335Y-77631357D01*
X109421992Y-77638693D01*
X109413878Y-77645697D01*
X109389266Y-77670309D01*
X109379621Y-77678994D01*
X109348230Y-77704414D01*
X109343334Y-77711304D01*
X109337236Y-77719884D01*
X109323841Y-77735734D01*
X108168134Y-78891442D01*
X108164386Y-78895037D01*
X108124865Y-78931378D01*
X108124863Y-78931380D01*
X108118644Y-78937099D01*
X108111170Y-78949154D01*
X108095664Y-78974162D01*
X108089047Y-78983790D01*
X108067798Y-79011784D01*
X108067796Y-79011787D01*
X108062688Y-79018517D01*
X108059577Y-79026375D01*
X108059574Y-79026380D01*
X108057090Y-79032655D01*
X108047182Y-79052356D01*
X108039165Y-79065286D01*
X108036807Y-79073403D01*
X108027000Y-79107158D01*
X108023216Y-79118209D01*
X108014873Y-79139282D01*
X108007164Y-79158753D01*
X108006281Y-79167157D01*
X108005574Y-79173881D01*
X108001329Y-79195516D01*
X107997085Y-79210125D01*
X107996300Y-79220815D01*
X107996300Y-79255622D01*
X107995621Y-79268582D01*
X107991399Y-79308754D01*
X107992808Y-79317084D01*
X107992808Y-79317087D01*
X107994564Y-79327467D01*
X107996300Y-79348146D01*
X107996300Y-81942880D01*
X107992810Y-81970501D01*
X107991324Y-81974313D01*
X107969194Y-82142411D01*
X107970014Y-82149839D01*
X107970014Y-82149841D01*
X107980184Y-82241957D01*
X107987799Y-82310935D01*
X107990365Y-82317947D01*
X107990366Y-82317951D01*
X107996175Y-82333824D01*
X108046066Y-82470156D01*
X108050233Y-82476358D01*
X108050235Y-82476361D01*
X108096673Y-82545468D01*
X108140630Y-82610883D01*
X108146160Y-82615915D01*
X108260502Y-82719959D01*
X108260506Y-82719962D01*
X108266033Y-82724991D01*
X108415035Y-82805892D01*
X108507879Y-82830249D01*
X108571805Y-82847020D01*
X108571807Y-82847020D01*
X108579033Y-82848916D01*
X108661978Y-82850219D01*
X108741090Y-82851462D01*
X108741093Y-82851462D01*
X108748560Y-82851579D01*
X108888727Y-82819477D01*
X108906538Y-82815398D01*
X108906539Y-82815398D01*
X108913829Y-82813728D01*
X109024606Y-82758013D01*
X109058620Y-82740906D01*
X109058622Y-82740905D01*
X109065298Y-82737547D01*
X109070980Y-82732694D01*
X109070983Y-82732692D01*
X109188541Y-82632287D01*
X109194223Y-82627434D01*
X109293161Y-82489747D01*
X109335748Y-82383809D01*
X109379017Y-82328950D01*
X109445077Y-82306192D01*
X109512953Y-82322762D01*
X109561097Y-82373398D01*
X109574800Y-82430060D01*
X109574800Y-82563557D01*
X109552251Y-82634857D01*
X109503413Y-82704347D01*
X109441824Y-82862313D01*
X109419694Y-83030411D01*
X109420514Y-83037839D01*
X109420514Y-83037841D01*
X109434871Y-83167884D01*
X109438299Y-83198935D01*
X109440865Y-83205947D01*
X109440866Y-83205951D01*
X109478279Y-83308186D01*
X109482832Y-83377908D01*
X109448968Y-83439022D01*
X109387439Y-83472127D01*
X109361831Y-83474800D01*
X109151246Y-83474800D01*
X109145836Y-83475036D01*
X108984094Y-83489187D01*
X108973463Y-83491061D01*
X108764202Y-83547132D01*
X108754069Y-83550821D01*
X108557720Y-83642380D01*
X108548387Y-83647768D01*
X108370919Y-83772033D01*
X108362653Y-83778969D01*
X108209469Y-83932153D01*
X108202533Y-83940419D01*
X108078268Y-84117887D01*
X108072880Y-84127220D01*
X107981323Y-84323565D01*
X107977631Y-84333708D01*
X107931042Y-84507579D01*
X107931373Y-84521453D01*
X107939189Y-84524800D01*
X109581300Y-84524800D01*
X109648339Y-84544485D01*
X109694094Y-84597289D01*
X109705300Y-84648800D01*
X109705300Y-97854800D01*
X109685615Y-97921839D01*
X109632811Y-97967594D01*
X109581300Y-97978800D01*
X109329300Y-97978800D01*
X109262261Y-97959115D01*
X109216506Y-97906311D01*
X109205300Y-97854800D01*
X109205300Y-85042630D01*
X109200896Y-85027631D01*
X109199526Y-85026444D01*
X109191968Y-85024800D01*
X107944258Y-85024800D01*
X107929259Y-85029204D01*
X107917935Y-85042273D01*
X107905046Y-85070496D01*
X107846268Y-85108270D01*
X107776398Y-85108270D01*
X107723652Y-85076974D01*
X106875004Y-84228327D01*
X106841519Y-84167004D01*
X106838685Y-84140646D01*
X106838685Y-79134989D01*
X106838794Y-79129796D01*
X106841041Y-79076186D01*
X106841041Y-79076185D01*
X106841395Y-79067738D01*
X106839464Y-79059507D01*
X106839464Y-79059503D01*
X106831438Y-79025285D01*
X106829308Y-79013796D01*
X106829033Y-79011784D01*
X106823391Y-78970600D01*
X106817351Y-78956642D01*
X106810427Y-78935707D01*
X106808884Y-78929129D01*
X106806953Y-78920896D01*
X106785946Y-78882684D01*
X106780809Y-78872197D01*
X106766848Y-78839935D01*
X106766845Y-78839930D01*
X106763490Y-78832177D01*
X106753918Y-78820356D01*
X106741625Y-78802063D01*
X106734292Y-78788724D01*
X106727288Y-78780610D01*
X106702676Y-78755998D01*
X106693991Y-78746353D01*
X106673890Y-78721531D01*
X106668571Y-78714962D01*
X106653101Y-78703968D01*
X106637251Y-78690573D01*
X105818967Y-77872290D01*
X105788130Y-77821070D01*
X105729406Y-77630181D01*
X105729404Y-77630177D01*
X105727781Y-77624900D01*
X105724771Y-77619067D01*
X105627933Y-77431450D01*
X105627932Y-77431448D01*
X105625399Y-77426541D01*
X105538842Y-77313737D01*
X105512166Y-77278972D01*
X107395000Y-77278972D01*
X107395363Y-77285669D01*
X107400803Y-77335744D01*
X107404371Y-77350753D01*
X107448817Y-77469311D01*
X107457212Y-77484646D01*
X107532516Y-77585124D01*
X107544876Y-77597484D01*
X107645354Y-77672788D01*
X107660689Y-77681183D01*
X107779247Y-77725629D01*
X107794256Y-77729197D01*
X107844331Y-77734637D01*
X107851028Y-77735000D01*
X108052170Y-77735000D01*
X108067169Y-77730596D01*
X108068356Y-77729226D01*
X108070000Y-77721668D01*
X108070000Y-77717170D01*
X108570000Y-77717170D01*
X108574404Y-77732169D01*
X108575774Y-77733356D01*
X108583332Y-77735000D01*
X108788972Y-77735000D01*
X108795669Y-77734637D01*
X108845744Y-77729197D01*
X108860753Y-77725629D01*
X108979311Y-77681183D01*
X108994646Y-77672788D01*
X109095124Y-77597484D01*
X109107484Y-77585124D01*
X109182788Y-77484646D01*
X109191183Y-77469311D01*
X109235629Y-77350753D01*
X109239197Y-77335744D01*
X109244637Y-77285669D01*
X109245000Y-77278972D01*
X109245000Y-77077830D01*
X109240596Y-77062831D01*
X109239226Y-77061644D01*
X109231668Y-77060000D01*
X108587830Y-77060000D01*
X108572831Y-77064404D01*
X108571644Y-77065774D01*
X108570000Y-77073332D01*
X108570000Y-77717170D01*
X108070000Y-77717170D01*
X108070000Y-77077830D01*
X108065596Y-77062831D01*
X108064226Y-77061644D01*
X108056668Y-77060000D01*
X107412830Y-77060000D01*
X107397831Y-77064404D01*
X107396644Y-77065774D01*
X107395000Y-77073332D01*
X107395000Y-77278972D01*
X105512166Y-77278972D01*
X105492870Y-77253824D01*
X105492866Y-77253820D01*
X105489510Y-77249446D01*
X105324407Y-77099214D01*
X105135310Y-76980593D01*
X105130193Y-76978536D01*
X105130189Y-76978534D01*
X104933317Y-76899393D01*
X104928195Y-76897334D01*
X104709610Y-76852067D01*
X104652951Y-76848800D01*
X103808670Y-76848800D01*
X103805927Y-76849045D01*
X103805923Y-76849045D01*
X103648461Y-76863098D01*
X103648459Y-76863098D01*
X103642961Y-76863589D01*
X103427649Y-76922492D01*
X103422670Y-76924867D01*
X103422667Y-76924868D01*
X103231152Y-77016216D01*
X103226171Y-77018592D01*
X103198703Y-77038329D01*
X103188613Y-77045580D01*
X103122685Y-77068714D01*
X103054715Y-77052532D01*
X103006283Y-77002172D01*
X102992255Y-76944881D01*
X102992255Y-76542170D01*
X107395000Y-76542170D01*
X107399404Y-76557169D01*
X107400774Y-76558356D01*
X107408332Y-76560000D01*
X108052170Y-76560000D01*
X108067169Y-76555596D01*
X108068356Y-76554226D01*
X108070000Y-76546668D01*
X108070000Y-76542170D01*
X108570000Y-76542170D01*
X108574404Y-76557169D01*
X108575774Y-76558356D01*
X108583332Y-76560000D01*
X109227170Y-76560000D01*
X109242169Y-76555596D01*
X109243356Y-76554226D01*
X109245000Y-76546668D01*
X109245000Y-76341028D01*
X109244637Y-76334331D01*
X109239197Y-76284256D01*
X109235629Y-76269247D01*
X109191183Y-76150689D01*
X109182788Y-76135354D01*
X109107484Y-76034876D01*
X109095124Y-76022516D01*
X108994646Y-75947212D01*
X108979311Y-75938817D01*
X108860753Y-75894371D01*
X108845744Y-75890803D01*
X108795669Y-75885363D01*
X108788972Y-75885000D01*
X108587830Y-75885000D01*
X108572831Y-75889404D01*
X108571644Y-75890774D01*
X108570000Y-75898332D01*
X108570000Y-76542170D01*
X108070000Y-76542170D01*
X108070000Y-75902830D01*
X108065596Y-75887831D01*
X108064226Y-75886644D01*
X108056668Y-75885000D01*
X107851028Y-75885000D01*
X107844331Y-75885363D01*
X107794256Y-75890803D01*
X107779247Y-75894371D01*
X107660689Y-75938817D01*
X107645354Y-75947212D01*
X107544876Y-76022516D01*
X107532516Y-76034876D01*
X107457212Y-76135354D01*
X107448817Y-76150689D01*
X107404371Y-76269247D01*
X107400803Y-76284256D01*
X107395363Y-76334331D01*
X107395000Y-76341028D01*
X107395000Y-76542170D01*
X102992255Y-76542170D01*
X102992255Y-74676099D01*
X103011940Y-74609060D01*
X103026594Y-74590444D01*
X103966220Y-73606871D01*
X104326252Y-73230000D01*
X108344559Y-73230000D01*
X108364310Y-73606871D01*
X108423347Y-73979613D01*
X108521022Y-74344143D01*
X108522180Y-74347159D01*
X108522182Y-74347166D01*
X108655102Y-74693434D01*
X108655106Y-74693442D01*
X108656266Y-74696465D01*
X108827597Y-75032720D01*
X108829363Y-75035440D01*
X108829368Y-75035448D01*
X109031365Y-75346497D01*
X109033137Y-75349225D01*
X109035178Y-75351745D01*
X109035182Y-75351751D01*
X109268595Y-75639992D01*
X109270635Y-75642511D01*
X109537489Y-75909365D01*
X109540006Y-75911403D01*
X109540008Y-75911405D01*
X109828249Y-76144818D01*
X109828255Y-76144822D01*
X109830775Y-76146863D01*
X109833498Y-76148631D01*
X109833503Y-76148635D01*
X110019230Y-76269247D01*
X110147279Y-76352403D01*
X110483535Y-76523734D01*
X110486558Y-76524894D01*
X110486566Y-76524898D01*
X110832834Y-76657818D01*
X110832841Y-76657820D01*
X110835857Y-76658978D01*
X111200387Y-76756653D01*
X111573129Y-76815690D01*
X111576361Y-76815859D01*
X111576367Y-76815860D01*
X111946756Y-76835271D01*
X111950000Y-76835441D01*
X111953244Y-76835271D01*
X112323633Y-76815860D01*
X112323639Y-76815859D01*
X112326871Y-76815690D01*
X112699613Y-76756653D01*
X113064143Y-76658978D01*
X113067159Y-76657820D01*
X113067166Y-76657818D01*
X113413434Y-76524898D01*
X113413442Y-76524894D01*
X113416465Y-76523734D01*
X113752721Y-76352403D01*
X113880770Y-76269247D01*
X114066497Y-76148635D01*
X114066502Y-76148631D01*
X114069225Y-76146863D01*
X114071745Y-76144822D01*
X114071751Y-76144818D01*
X114359992Y-75911405D01*
X114359994Y-75911403D01*
X114362511Y-75909365D01*
X114629365Y-75642511D01*
X114631405Y-75639992D01*
X114864818Y-75351751D01*
X114864822Y-75351745D01*
X114866863Y-75349225D01*
X114868635Y-75346497D01*
X115070632Y-75035448D01*
X115070637Y-75035440D01*
X115072403Y-75032720D01*
X115243734Y-74696465D01*
X115244894Y-74693442D01*
X115244898Y-74693434D01*
X115377818Y-74347166D01*
X115377820Y-74347159D01*
X115378978Y-74344143D01*
X115476653Y-73979613D01*
X115535690Y-73606871D01*
X115555441Y-73230000D01*
X115535690Y-72853129D01*
X115476653Y-72480387D01*
X115378978Y-72115857D01*
X115377818Y-72112834D01*
X115244898Y-71766566D01*
X115244894Y-71766558D01*
X115243734Y-71763535D01*
X115072403Y-71427280D01*
X115070637Y-71424560D01*
X115070632Y-71424552D01*
X114868635Y-71113503D01*
X114868631Y-71113498D01*
X114866863Y-71110775D01*
X114864822Y-71108255D01*
X114864818Y-71108249D01*
X114631405Y-70820008D01*
X114631403Y-70820006D01*
X114629365Y-70817489D01*
X114362511Y-70550635D01*
X114359992Y-70548595D01*
X114071751Y-70315182D01*
X114071745Y-70315178D01*
X114069225Y-70313137D01*
X114066502Y-70311369D01*
X114066497Y-70311365D01*
X113755448Y-70109368D01*
X113752721Y-70107597D01*
X113416465Y-69936266D01*
X113413442Y-69935106D01*
X113413434Y-69935102D01*
X113067166Y-69802182D01*
X113067159Y-69802180D01*
X113064143Y-69801022D01*
X112699613Y-69703347D01*
X112326871Y-69644310D01*
X112323639Y-69644141D01*
X112323633Y-69644140D01*
X111953244Y-69624729D01*
X111950000Y-69624559D01*
X111946756Y-69624729D01*
X111576367Y-69644140D01*
X111576361Y-69644141D01*
X111573129Y-69644310D01*
X111200387Y-69703347D01*
X110835857Y-69801022D01*
X110832841Y-69802180D01*
X110832834Y-69802182D01*
X110486566Y-69935102D01*
X110486558Y-69935106D01*
X110483535Y-69936266D01*
X110147280Y-70107597D01*
X110144560Y-70109363D01*
X110144552Y-70109368D01*
X109833503Y-70311365D01*
X109833498Y-70311369D01*
X109830775Y-70313137D01*
X109828255Y-70315178D01*
X109828249Y-70315182D01*
X109540008Y-70548595D01*
X109537489Y-70550635D01*
X109270635Y-70817489D01*
X109268597Y-70820006D01*
X109268595Y-70820008D01*
X109035182Y-71108249D01*
X109035178Y-71108255D01*
X109033137Y-71110775D01*
X109031369Y-71113498D01*
X109031365Y-71113503D01*
X108829368Y-71424552D01*
X108829363Y-71424560D01*
X108827597Y-71427280D01*
X108656266Y-71763535D01*
X108655106Y-71766558D01*
X108655102Y-71766566D01*
X108522182Y-72112834D01*
X108521022Y-72115857D01*
X108423347Y-72480387D01*
X108364310Y-72853129D01*
X108344559Y-73230000D01*
X104326252Y-73230000D01*
X108060124Y-69321494D01*
X108075581Y-69308404D01*
X108078468Y-69305692D01*
X108086539Y-69300205D01*
X108094398Y-69290070D01*
X108111350Y-69272202D01*
X108418739Y-69006802D01*
X108426887Y-69000343D01*
X108781390Y-68742766D01*
X108790050Y-68737013D01*
X109164875Y-68510045D01*
X109173986Y-68505037D01*
X109566521Y-68310261D01*
X109576021Y-68306034D01*
X109983485Y-68144830D01*
X109993304Y-68141414D01*
X110039310Y-68127542D01*
X110412842Y-68014911D01*
X110422908Y-68012331D01*
X110851576Y-67921419D01*
X110861822Y-67919691D01*
X110958243Y-67907564D01*
X111296597Y-67865009D01*
X111306959Y-67864145D01*
X111638550Y-67850462D01*
X111744796Y-67846078D01*
X111755186Y-67846086D01*
G37*
G04 #@! TD.AperFunction*
M02*
