G04 #@! TF.GenerationSoftware,KiCad,Pcbnew,6.0.1-79c1e3a40b~116~ubuntu20.04.1*
G04 #@! TF.CreationDate,2022-01-18T16:47:47+01:00*
G04 #@! TF.ProjectId,Pro_Micro_GPIB,50726f5f-4d69-4637-926f-5f475049422e,rev?*
G04 #@! TF.SameCoordinates,Original*
G04 #@! TF.FileFunction,Copper,L1,Top*
G04 #@! TF.FilePolarity,Positive*
%FSLAX46Y46*%
G04 Gerber Fmt 4.6, Leading zero omitted, Abs format (unit mm)*
G04 Created by KiCad (PCBNEW 6.0.1-79c1e3a40b~116~ubuntu20.04.1) date 2022-01-18 16:47:47*
%MOMM*%
%LPD*%
G01*
G04 APERTURE LIST*
G04 Aperture macros list*
%AMRoundRect*
0 Rectangle with rounded corners*
0 $1 Rounding radius*
0 $2 $3 $4 $5 $6 $7 $8 $9 X,Y pos of 4 corners*
0 Add a 4 corners polygon primitive as box body*
4,1,4,$2,$3,$4,$5,$6,$7,$8,$9,$2,$3,0*
0 Add four circle primitives for the rounded corners*
1,1,$1+$1,$2,$3*
1,1,$1+$1,$4,$5*
1,1,$1+$1,$6,$7*
1,1,$1+$1,$8,$9*
0 Add four rect primitives between the rounded corners*
20,1,$1+$1,$2,$3,$4,$5,0*
20,1,$1+$1,$4,$5,$6,$7,0*
20,1,$1+$1,$6,$7,$8,$9,0*
20,1,$1+$1,$8,$9,$2,$3,0*%
G04 Aperture macros list end*
G04 #@! TA.AperFunction,ComponentPad*
%ADD10C,6.400000*%
G04 #@! TD*
G04 #@! TA.AperFunction,ComponentPad*
%ADD11C,0.800000*%
G04 #@! TD*
G04 #@! TA.AperFunction,ComponentPad*
%ADD12R,0.850000X0.850000*%
G04 #@! TD*
G04 #@! TA.AperFunction,ComponentPad*
%ADD13RoundRect,0.400000X0.650000X-0.400000X0.650000X0.400000X-0.650000X0.400000X-0.650000X-0.400000X0*%
G04 #@! TD*
G04 #@! TA.AperFunction,ComponentPad*
%ADD14O,2.100000X1.600000*%
G04 #@! TD*
G04 #@! TA.AperFunction,ComponentPad*
%ADD15RoundRect,0.425000X0.775000X-0.425000X0.775000X0.425000X-0.775000X0.425000X-0.775000X-0.425000X0*%
G04 #@! TD*
G04 #@! TA.AperFunction,ComponentPad*
%ADD16O,2.400000X1.700000*%
G04 #@! TD*
G04 #@! TA.AperFunction,ViaPad*
%ADD17C,0.600000*%
G04 #@! TD*
G04 #@! TA.AperFunction,ViaPad*
%ADD18C,0.800000*%
G04 #@! TD*
G04 #@! TA.AperFunction,Conductor*
%ADD19C,0.300000*%
G04 #@! TD*
G04 #@! TA.AperFunction,Conductor*
%ADD20C,0.400000*%
G04 #@! TD*
G04 #@! TA.AperFunction,Conductor*
%ADD21C,0.600000*%
G04 #@! TD*
G04 APERTURE END LIST*
D10*
X111950000Y-73230000D03*
D11*
X109550000Y-73230000D03*
X110252944Y-71532944D03*
X113647056Y-74927056D03*
X111950000Y-75630000D03*
X111950000Y-70830000D03*
X114350000Y-73230000D03*
X110252944Y-74927056D03*
X113647056Y-71532944D03*
D12*
X108320000Y-76810000D03*
D10*
X111910000Y-119990000D03*
D11*
X111910000Y-122390000D03*
X113607056Y-121687056D03*
X110212944Y-121687056D03*
X109510000Y-119990000D03*
X113607056Y-118292944D03*
X114310000Y-119990000D03*
X111910000Y-117590000D03*
X110212944Y-118292944D03*
D13*
X114135300Y-108548300D03*
D14*
X114135300Y-106389300D03*
X114135300Y-104230300D03*
X114135300Y-102071300D03*
X114135300Y-99912300D03*
X114135300Y-97753300D03*
X114135300Y-95594300D03*
X114135300Y-93435300D03*
X114135300Y-91276300D03*
X114135300Y-89117300D03*
X114135300Y-86958300D03*
X114135300Y-84799300D03*
X109455300Y-108523800D03*
X109455300Y-106364800D03*
X109455300Y-104205800D03*
X109455300Y-102046800D03*
X109455300Y-99887800D03*
X109455300Y-97728800D03*
X109455300Y-95569800D03*
X109455300Y-93410800D03*
X109455300Y-91251800D03*
X109455300Y-89092800D03*
X109455300Y-86933800D03*
X109455300Y-84774800D03*
D15*
X119455300Y-106039300D03*
D16*
X119455300Y-103499300D03*
X119455300Y-100959300D03*
X119455300Y-98419300D03*
X119455300Y-95879300D03*
X119455300Y-93339300D03*
X119455300Y-90799300D03*
X119455300Y-88259300D03*
X119455300Y-85719300D03*
X119455300Y-83179300D03*
X119455300Y-80639300D03*
X119455300Y-78099300D03*
X104215300Y-78099300D03*
X104215300Y-80639300D03*
X104215300Y-83179300D03*
X104215300Y-85719300D03*
X104215300Y-88259300D03*
X104215300Y-90799300D03*
X104215300Y-93339300D03*
X104215300Y-95879300D03*
X104215300Y-98419300D03*
X104215300Y-100959300D03*
X104215300Y-103499300D03*
X104215300Y-106039300D03*
D12*
X115560000Y-76720000D03*
D17*
X113208185Y-82410032D03*
X113055550Y-80879050D03*
X109708185Y-111150032D03*
X115915300Y-105958800D03*
X109372300Y-81512300D03*
X111647685Y-81650032D03*
X108674800Y-82149800D03*
X110125300Y-83037800D03*
D18*
X104218185Y-107950032D03*
X119488185Y-107940032D03*
X118938185Y-118420032D03*
X104808185Y-118570032D03*
D19*
X117868917Y-93379300D02*
X119541300Y-93379300D01*
X116611300Y-94636917D02*
X117868917Y-93379300D01*
X116611300Y-107548800D02*
X116611300Y-94636917D01*
X114262010Y-108564800D02*
X115595300Y-108564800D01*
X114260600Y-108566210D02*
X114262010Y-108564800D01*
X115595300Y-108564800D02*
X116611300Y-107548800D01*
X104228800Y-80624800D02*
X105513417Y-80624800D01*
X105513417Y-80624800D02*
X107308185Y-78830032D01*
X107308185Y-78830032D02*
X112467032Y-78830032D01*
X112467032Y-78830032D02*
X113944300Y-80307300D01*
X113944300Y-80307300D02*
X113944300Y-81673917D01*
X113944300Y-81673917D02*
X113208185Y-82410032D01*
X113055300Y-80879300D02*
X111975300Y-79799300D01*
X107608917Y-79799300D02*
X104243417Y-83164800D01*
X111975300Y-79799300D02*
X107608917Y-79799300D01*
X104243417Y-83164800D02*
X104228800Y-83164800D01*
X112558185Y-81530032D02*
X111716453Y-80688300D01*
X107869917Y-80688300D02*
X106258185Y-82300032D01*
X113309300Y-95547300D02*
X112558185Y-94796185D01*
X104228800Y-93324800D02*
X105752800Y-93324800D01*
X105752800Y-93324800D02*
X106258185Y-92819415D01*
X114261800Y-95547300D02*
X113309300Y-95547300D01*
X106258185Y-92819415D02*
X106258185Y-84370032D01*
X112558185Y-94796185D02*
X112558185Y-81530032D01*
X106258185Y-82300032D02*
X106258185Y-84360032D01*
X111716453Y-80688300D02*
X107869917Y-80688300D01*
X106488185Y-109290032D02*
X108348185Y-111150032D01*
X115915300Y-105958800D02*
X115915300Y-93967147D01*
X104292300Y-95864800D02*
X105902953Y-95864800D01*
X115915300Y-93967147D02*
X115299763Y-93351610D01*
X105902953Y-95864800D02*
X106488185Y-96450032D01*
X108348185Y-111150032D02*
X109708185Y-111150032D01*
X115915300Y-105958800D02*
X115915300Y-105958800D01*
X115299763Y-93351610D02*
X114260600Y-93351610D01*
X106488185Y-96450032D02*
X106488185Y-109290032D01*
X115912800Y-105961300D02*
X115915300Y-105958800D01*
X116647990Y-91192610D02*
X117001300Y-90839300D01*
X117001300Y-90839300D02*
X119445300Y-90839300D01*
X114260600Y-91192610D02*
X116647990Y-91192610D01*
X118075300Y-83219300D02*
X119445300Y-83219300D01*
X117119300Y-84175300D02*
X118075300Y-83219300D01*
X115444607Y-89033610D02*
X117119300Y-87358917D01*
X114260600Y-89033610D02*
X115444607Y-89033610D01*
X117119300Y-87358917D02*
X117119300Y-84175300D01*
D20*
X115550000Y-75699320D02*
X113100712Y-73250032D01*
X113100712Y-73250032D02*
X111936255Y-73250032D01*
X115550000Y-82828217D02*
X115550000Y-75699320D01*
X114135300Y-84242917D02*
X115550000Y-82828217D01*
X114135300Y-84799300D02*
X114135300Y-84242917D01*
D19*
X109372300Y-81513800D02*
X111511453Y-81513800D01*
X111511453Y-81513800D02*
X111647685Y-81650032D01*
X111868185Y-83290032D02*
X111868185Y-105410032D01*
X108674800Y-82149800D02*
X108775032Y-82250032D01*
X108673800Y-82148800D02*
X108674800Y-82149800D01*
X110828185Y-82250032D02*
X111868185Y-83290032D01*
X111868185Y-105410032D02*
X110872417Y-106405800D01*
X108775032Y-82250032D02*
X110828185Y-82250032D01*
X110872417Y-106405800D02*
X109435800Y-106405800D01*
X111168185Y-101371415D02*
X110451800Y-102087800D01*
X111168185Y-84080685D02*
X111168185Y-101371415D01*
X110451800Y-102087800D02*
X109435800Y-102087800D01*
X110125300Y-83037800D02*
X111168185Y-84080685D01*
D21*
X118505300Y-98459300D02*
X119445300Y-98459300D01*
G04 #@! TA.AperFunction,Conductor*
G36*
X108487907Y-81258485D02*
G01*
X108533662Y-81311289D01*
X108543606Y-81380447D01*
X108514581Y-81444003D01*
X108449816Y-81483374D01*
X108436096Y-81486668D01*
X108428832Y-81488412D01*
X108422199Y-81491835D01*
X108422195Y-81491837D01*
X108355265Y-81526383D01*
X108278169Y-81566175D01*
X108272537Y-81571088D01*
X108184222Y-81648130D01*
X108150404Y-81677631D01*
X108052913Y-81816347D01*
X107991324Y-81974313D01*
X107969194Y-82142411D01*
X107987799Y-82310935D01*
X107990365Y-82317947D01*
X107990366Y-82317951D01*
X108014972Y-82385189D01*
X108046066Y-82470156D01*
X108050233Y-82476358D01*
X108050235Y-82476361D01*
X108085016Y-82528120D01*
X108140630Y-82610883D01*
X108146160Y-82615915D01*
X108260502Y-82719959D01*
X108260506Y-82719962D01*
X108266033Y-82724991D01*
X108415035Y-82805892D01*
X108469414Y-82820158D01*
X108571805Y-82847020D01*
X108571807Y-82847020D01*
X108579033Y-82848916D01*
X108661978Y-82850219D01*
X108741090Y-82851462D01*
X108741093Y-82851462D01*
X108748560Y-82851579D01*
X108913829Y-82813728D01*
X108920506Y-82810370D01*
X108927472Y-82807862D01*
X108969473Y-82800532D01*
X109308563Y-82800532D01*
X109375602Y-82820217D01*
X109421357Y-82873021D01*
X109431502Y-82940717D01*
X109419694Y-83030411D01*
X109420514Y-83037839D01*
X109420514Y-83037841D01*
X109430805Y-83131058D01*
X109438299Y-83198935D01*
X109440865Y-83205947D01*
X109440866Y-83205951D01*
X109478279Y-83308186D01*
X109482832Y-83377908D01*
X109448968Y-83439022D01*
X109387439Y-83472127D01*
X109361831Y-83474800D01*
X109151246Y-83474800D01*
X109145836Y-83475036D01*
X108984094Y-83489187D01*
X108973463Y-83491061D01*
X108764202Y-83547132D01*
X108754069Y-83550821D01*
X108557720Y-83642380D01*
X108548387Y-83647768D01*
X108370919Y-83772033D01*
X108362653Y-83778969D01*
X108209469Y-83932153D01*
X108202533Y-83940419D01*
X108078268Y-84117887D01*
X108072880Y-84127220D01*
X107981323Y-84323565D01*
X107977631Y-84333708D01*
X107931042Y-84507579D01*
X107931373Y-84521453D01*
X107939189Y-84524800D01*
X109581300Y-84524800D01*
X109648339Y-84544485D01*
X109694094Y-84597289D01*
X109705300Y-84648800D01*
X109705300Y-97854800D01*
X109685615Y-97921839D01*
X109632811Y-97967594D01*
X109581300Y-97978800D01*
X107944258Y-97978800D01*
X107930941Y-97982710D01*
X107929731Y-97991126D01*
X107977631Y-98169892D01*
X107981323Y-98180035D01*
X108072880Y-98376380D01*
X108078268Y-98385713D01*
X108202533Y-98563181D01*
X108209469Y-98571447D01*
X108362653Y-98724631D01*
X108370923Y-98731571D01*
X108424611Y-98769163D01*
X108468236Y-98823739D01*
X108475430Y-98893238D01*
X108443908Y-98955592D01*
X108427685Y-98970090D01*
X108398567Y-98991833D01*
X108248799Y-99153851D01*
X108245765Y-99158660D01*
X108245764Y-99158661D01*
X108211220Y-99213411D01*
X108131064Y-99340450D01*
X108049306Y-99545379D01*
X108048196Y-99550960D01*
X108048195Y-99550963D01*
X108043322Y-99575463D01*
X108006262Y-99761776D01*
X108006188Y-99767463D01*
X108006187Y-99767468D01*
X108003448Y-99976705D01*
X108003374Y-99982394D01*
X108004337Y-99987998D01*
X108004337Y-99987999D01*
X108024567Y-100105730D01*
X108040738Y-100199843D01*
X108117104Y-100406843D01*
X108229914Y-100596459D01*
X108375390Y-100762343D01*
X108379849Y-100765858D01*
X108379853Y-100765862D01*
X108512834Y-100870695D01*
X108553294Y-100927657D01*
X108556536Y-100997451D01*
X108521529Y-101057919D01*
X108510258Y-101067429D01*
X108398567Y-101150833D01*
X108248799Y-101312851D01*
X108245765Y-101317660D01*
X108245764Y-101317661D01*
X108176337Y-101427697D01*
X108131064Y-101499450D01*
X108049306Y-101704379D01*
X108048196Y-101709960D01*
X108048195Y-101709963D01*
X108039553Y-101753411D01*
X108006262Y-101920776D01*
X108006188Y-101926463D01*
X108006187Y-101926468D01*
X108003455Y-102135190D01*
X108003374Y-102141394D01*
X108004337Y-102146998D01*
X108004337Y-102146999D01*
X108038921Y-102348267D01*
X108040738Y-102358843D01*
X108117104Y-102565843D01*
X108229914Y-102755459D01*
X108375390Y-102921343D01*
X108379849Y-102924858D01*
X108379853Y-102924862D01*
X108512834Y-103029695D01*
X108553294Y-103086657D01*
X108556536Y-103156451D01*
X108521529Y-103216919D01*
X108510258Y-103226429D01*
X108398567Y-103309833D01*
X108248799Y-103471851D01*
X108245765Y-103476660D01*
X108245764Y-103476661D01*
X108206597Y-103538738D01*
X108131064Y-103658450D01*
X108049306Y-103863379D01*
X108048196Y-103868960D01*
X108048195Y-103868963D01*
X108044324Y-103888424D01*
X108006262Y-104079776D01*
X108006188Y-104085463D01*
X108006187Y-104085468D01*
X108004490Y-104215139D01*
X108003374Y-104300394D01*
X108004337Y-104305998D01*
X108004337Y-104305999D01*
X108037567Y-104499386D01*
X108040738Y-104517843D01*
X108117104Y-104724843D01*
X108131680Y-104749343D01*
X108216749Y-104892330D01*
X108229914Y-104914459D01*
X108375390Y-105080343D01*
X108379849Y-105083858D01*
X108379853Y-105083862D01*
X108512834Y-105188695D01*
X108553294Y-105245657D01*
X108556536Y-105315451D01*
X108521529Y-105375919D01*
X108510258Y-105385429D01*
X108398567Y-105468833D01*
X108248799Y-105630851D01*
X108245765Y-105635660D01*
X108245764Y-105635661D01*
X108135842Y-105809878D01*
X108131064Y-105817450D01*
X108049306Y-106022379D01*
X108048196Y-106027960D01*
X108048195Y-106027963D01*
X108043322Y-106052463D01*
X108006262Y-106238776D01*
X108006188Y-106244463D01*
X108006187Y-106244468D01*
X108003448Y-106453705D01*
X108003374Y-106459394D01*
X108004337Y-106464998D01*
X108004337Y-106464999D01*
X108037808Y-106659789D01*
X108040738Y-106676843D01*
X108117104Y-106883843D01*
X108147519Y-106934966D01*
X108182029Y-106992971D01*
X108229914Y-107073459D01*
X108375390Y-107239343D01*
X108379849Y-107242858D01*
X108379853Y-107242862D01*
X108512834Y-107347695D01*
X108553294Y-107404657D01*
X108556536Y-107474451D01*
X108521529Y-107534919D01*
X108510258Y-107544429D01*
X108398567Y-107627833D01*
X108248799Y-107789851D01*
X108245765Y-107794660D01*
X108245764Y-107794661D01*
X108181940Y-107895817D01*
X108131064Y-107976450D01*
X108049306Y-108181379D01*
X108006262Y-108397776D01*
X108006188Y-108403463D01*
X108006187Y-108403468D01*
X108005776Y-108434895D01*
X108003374Y-108618394D01*
X108004337Y-108623998D01*
X108004337Y-108623999D01*
X108008775Y-108649824D01*
X108040738Y-108835843D01*
X108117104Y-109042843D01*
X108133945Y-109071150D01*
X108212140Y-109202583D01*
X108229914Y-109232459D01*
X108375390Y-109398343D01*
X108548660Y-109534937D01*
X108553691Y-109537584D01*
X108731357Y-109631059D01*
X108743920Y-109637669D01*
X108954633Y-109703097D01*
X108960278Y-109703765D01*
X108960282Y-109703766D01*
X109057557Y-109715279D01*
X109133776Y-109724300D01*
X109761270Y-109724300D01*
X109925011Y-109709254D01*
X110137364Y-109649365D01*
X110170584Y-109632983D01*
X110330147Y-109554295D01*
X110335247Y-109551780D01*
X110512033Y-109419767D01*
X110661801Y-109257749D01*
X110692484Y-109209120D01*
X110776502Y-109075959D01*
X110776503Y-109075957D01*
X110779536Y-109071150D01*
X110861294Y-108866221D01*
X110904338Y-108649824D01*
X110904677Y-108623999D01*
X110907152Y-108434895D01*
X110907152Y-108434890D01*
X110907226Y-108429206D01*
X110906263Y-108423601D01*
X110870825Y-108217360D01*
X110870824Y-108217357D01*
X110869862Y-108211757D01*
X110793496Y-108004757D01*
X110680686Y-107815141D01*
X110535210Y-107649257D01*
X110530751Y-107645742D01*
X110530747Y-107645738D01*
X110397766Y-107540905D01*
X110357306Y-107483943D01*
X110354064Y-107414149D01*
X110389071Y-107353681D01*
X110400342Y-107344171D01*
X110473291Y-107289697D01*
X110512033Y-107260767D01*
X110661801Y-107098749D01*
X110664832Y-107093946D01*
X110664836Y-107093940D01*
X110715190Y-107014132D01*
X110767610Y-106967939D01*
X110820060Y-106956300D01*
X110857460Y-106956300D01*
X110862653Y-106956409D01*
X110916263Y-106958656D01*
X110916264Y-106958656D01*
X110924711Y-106959010D01*
X110932942Y-106957079D01*
X110932946Y-106957079D01*
X110967164Y-106949053D01*
X110978649Y-106946924D01*
X110996505Y-106944478D01*
X111013477Y-106942153D01*
X111013478Y-106942153D01*
X111021849Y-106941006D01*
X111035807Y-106934966D01*
X111056742Y-106928042D01*
X111063320Y-106926499D01*
X111071553Y-106924568D01*
X111109765Y-106903561D01*
X111120252Y-106898424D01*
X111152514Y-106884463D01*
X111152519Y-106884460D01*
X111160272Y-106881105D01*
X111166838Y-106875788D01*
X111166840Y-106875787D01*
X111172093Y-106871533D01*
X111190382Y-106859243D01*
X111203725Y-106851907D01*
X111211839Y-106844903D01*
X111236451Y-106820291D01*
X111246096Y-106811606D01*
X111277487Y-106786186D01*
X111288481Y-106770716D01*
X111301876Y-106754866D01*
X112246864Y-105809878D01*
X112250612Y-105806283D01*
X112290120Y-105769954D01*
X112290122Y-105769952D01*
X112296341Y-105764233D01*
X112319327Y-105727160D01*
X112325937Y-105717543D01*
X112347186Y-105689548D01*
X112352297Y-105682815D01*
X112355408Y-105674957D01*
X112355411Y-105674952D01*
X112357895Y-105668677D01*
X112367803Y-105648976D01*
X112371365Y-105643231D01*
X112375820Y-105636046D01*
X112387985Y-105594174D01*
X112391769Y-105583123D01*
X112404709Y-105550440D01*
X112404710Y-105550437D01*
X112407821Y-105542579D01*
X112408704Y-105534175D01*
X112408706Y-105534168D01*
X112409413Y-105527443D01*
X112413656Y-105505816D01*
X112416086Y-105497451D01*
X112417900Y-105491207D01*
X112418685Y-105480517D01*
X112418685Y-105445719D01*
X112419364Y-105432757D01*
X112422703Y-105400987D01*
X112423587Y-105392578D01*
X112420422Y-105373865D01*
X112418685Y-105353186D01*
X112418685Y-95734571D01*
X112438370Y-95667532D01*
X112491174Y-95621777D01*
X112560332Y-95611833D01*
X112623888Y-95640858D01*
X112630366Y-95646890D01*
X112657800Y-95674324D01*
X112692328Y-95741006D01*
X112720738Y-95906343D01*
X112797104Y-96113343D01*
X112822250Y-96155609D01*
X112903896Y-96292843D01*
X112909914Y-96302959D01*
X113055390Y-96468843D01*
X113059849Y-96472358D01*
X113059853Y-96472362D01*
X113192834Y-96577195D01*
X113233294Y-96634157D01*
X113236536Y-96703951D01*
X113201529Y-96764419D01*
X113190258Y-96773929D01*
X113078567Y-96857333D01*
X112928799Y-97019351D01*
X112925765Y-97024160D01*
X112925764Y-97024161D01*
X112825173Y-97183589D01*
X112811064Y-97205950D01*
X112729306Y-97410879D01*
X112728196Y-97416460D01*
X112728195Y-97416463D01*
X112717774Y-97468852D01*
X112686262Y-97627276D01*
X112686188Y-97632963D01*
X112686187Y-97632968D01*
X112683448Y-97842205D01*
X112683374Y-97847894D01*
X112684337Y-97853498D01*
X112684337Y-97853499D01*
X112703276Y-97963716D01*
X112720738Y-98065343D01*
X112797104Y-98272343D01*
X112909914Y-98461959D01*
X113055390Y-98627843D01*
X113059849Y-98631358D01*
X113059853Y-98631362D01*
X113192834Y-98736195D01*
X113233294Y-98793157D01*
X113236536Y-98862951D01*
X113201529Y-98923419D01*
X113190258Y-98932929D01*
X113078567Y-99016333D01*
X112928799Y-99178351D01*
X112925765Y-99183160D01*
X112925764Y-99183161D01*
X112823190Y-99345732D01*
X112811064Y-99364950D01*
X112729306Y-99569879D01*
X112686262Y-99786276D01*
X112686188Y-99791963D01*
X112686187Y-99791968D01*
X112683621Y-99987999D01*
X112683374Y-100006894D01*
X112684337Y-100012498D01*
X112684337Y-100012499D01*
X112717445Y-100205176D01*
X112720738Y-100224343D01*
X112797104Y-100431343D01*
X112800011Y-100436229D01*
X112897883Y-100600736D01*
X112909914Y-100620959D01*
X113055390Y-100786843D01*
X113059849Y-100790358D01*
X113059853Y-100790362D01*
X113192834Y-100895195D01*
X113233294Y-100952157D01*
X113236536Y-101021951D01*
X113201529Y-101082419D01*
X113190258Y-101091929D01*
X113078567Y-101175333D01*
X112928799Y-101337351D01*
X112925765Y-101342160D01*
X112925764Y-101342161D01*
X112823190Y-101504732D01*
X112811064Y-101523950D01*
X112729306Y-101728879D01*
X112728196Y-101734460D01*
X112728195Y-101734463D01*
X112725215Y-101749446D01*
X112686262Y-101945276D01*
X112686188Y-101950963D01*
X112686187Y-101950968D01*
X112683621Y-102146999D01*
X112683374Y-102165894D01*
X112684337Y-102171498D01*
X112684337Y-102171499D01*
X112717445Y-102364176D01*
X112720738Y-102383343D01*
X112797104Y-102590343D01*
X112800011Y-102595229D01*
X112897883Y-102759736D01*
X112909914Y-102779959D01*
X113055390Y-102945843D01*
X113059849Y-102949358D01*
X113059853Y-102949362D01*
X113192834Y-103054195D01*
X113233294Y-103111157D01*
X113236536Y-103180951D01*
X113201529Y-103241419D01*
X113190258Y-103250929D01*
X113078567Y-103334333D01*
X112928799Y-103496351D01*
X112925765Y-103501160D01*
X112925764Y-103501161D01*
X112823190Y-103663732D01*
X112811064Y-103682950D01*
X112729306Y-103887879D01*
X112686262Y-104104276D01*
X112686188Y-104109963D01*
X112686187Y-104109968D01*
X112683621Y-104305999D01*
X112683374Y-104324894D01*
X112684337Y-104330498D01*
X112684337Y-104330499D01*
X112717445Y-104523176D01*
X112720738Y-104542343D01*
X112797104Y-104749343D01*
X112800011Y-104754229D01*
X112897883Y-104918736D01*
X112909914Y-104938959D01*
X113055390Y-105104843D01*
X113059849Y-105108358D01*
X113059853Y-105108362D01*
X113192834Y-105213195D01*
X113233294Y-105270157D01*
X113236536Y-105339951D01*
X113201529Y-105400419D01*
X113190258Y-105409929D01*
X113078567Y-105493333D01*
X112928799Y-105655351D01*
X112925765Y-105660160D01*
X112925764Y-105660161D01*
X112823190Y-105822732D01*
X112811064Y-105841950D01*
X112729306Y-106046879D01*
X112686262Y-106263276D01*
X112686188Y-106268963D01*
X112686187Y-106268968D01*
X112683621Y-106464999D01*
X112683374Y-106483894D01*
X112684337Y-106489498D01*
X112684337Y-106489499D01*
X112717445Y-106682176D01*
X112720738Y-106701343D01*
X112797104Y-106908343D01*
X112812943Y-106934966D01*
X112897883Y-107077736D01*
X112909914Y-107097959D01*
X113055390Y-107263843D01*
X113059849Y-107267358D01*
X113059851Y-107267360D01*
X113061403Y-107268583D01*
X113061947Y-107269349D01*
X113063979Y-107271277D01*
X113063600Y-107271676D01*
X113101868Y-107325542D01*
X113105115Y-107395336D01*
X113070113Y-107455806D01*
X113056460Y-107466430D01*
X113056034Y-107466636D01*
X112915680Y-107578680D01*
X112803636Y-107719034D01*
X112725473Y-107880723D01*
X112685074Y-108055711D01*
X112684800Y-108060463D01*
X112684801Y-109036136D01*
X112685074Y-109040889D01*
X112725473Y-109215877D01*
X112803636Y-109377566D01*
X112915680Y-109517920D01*
X113056034Y-109629964D01*
X113217723Y-109708127D01*
X113224480Y-109709687D01*
X113387595Y-109747345D01*
X113387596Y-109747345D01*
X113392711Y-109748526D01*
X113397463Y-109748800D01*
X114134677Y-109748800D01*
X114873136Y-109748799D01*
X114877889Y-109748526D01*
X115052877Y-109708127D01*
X115214566Y-109629964D01*
X115354920Y-109517920D01*
X115466964Y-109377566D01*
X115545127Y-109215877D01*
X115546687Y-109209120D01*
X115548989Y-109202583D01*
X115550847Y-109203237D01*
X115580362Y-109150790D01*
X115642108Y-109118091D01*
X115643737Y-109117848D01*
X115647594Y-109118010D01*
X115655825Y-109116079D01*
X115655829Y-109116079D01*
X115690047Y-109108053D01*
X115701532Y-109105924D01*
X115719388Y-109103478D01*
X115736360Y-109101153D01*
X115736361Y-109101153D01*
X115744732Y-109100006D01*
X115758690Y-109093966D01*
X115779625Y-109087042D01*
X115786203Y-109085499D01*
X115794436Y-109083568D01*
X115832648Y-109062561D01*
X115843135Y-109057424D01*
X115875397Y-109043463D01*
X115875402Y-109043460D01*
X115883155Y-109040105D01*
X115889721Y-109034788D01*
X115889723Y-109034787D01*
X115894976Y-109030533D01*
X115913265Y-109018243D01*
X115926608Y-109010907D01*
X115934722Y-109003903D01*
X115959334Y-108979291D01*
X115968979Y-108970606D01*
X116000370Y-108945186D01*
X116011364Y-108929716D01*
X116024759Y-108913866D01*
X116989967Y-107948657D01*
X116993715Y-107945062D01*
X117033235Y-107908722D01*
X117033237Y-107908720D01*
X117039456Y-107903001D01*
X117062436Y-107865938D01*
X117069053Y-107856310D01*
X117090302Y-107828316D01*
X117090304Y-107828313D01*
X117095412Y-107821583D01*
X117098523Y-107813725D01*
X117098526Y-107813720D01*
X117101010Y-107807445D01*
X117110918Y-107787744D01*
X117114480Y-107781999D01*
X117118935Y-107774814D01*
X117131100Y-107732942D01*
X117134884Y-107721891D01*
X117147824Y-107689208D01*
X117147825Y-107689205D01*
X117150936Y-107681347D01*
X117152526Y-107666218D01*
X117156771Y-107644584D01*
X117159201Y-107636219D01*
X117161015Y-107629975D01*
X117161800Y-107619285D01*
X117161800Y-107584478D01*
X117162479Y-107571517D01*
X117165818Y-107539752D01*
X117165818Y-107539749D01*
X117166701Y-107531346D01*
X117163536Y-107512633D01*
X117161800Y-107491954D01*
X117161800Y-98681626D01*
X117777967Y-98681626D01*
X117830468Y-98877564D01*
X117834157Y-98887697D01*
X117929410Y-99091967D01*
X117934808Y-99101317D01*
X118064084Y-99285943D01*
X118071019Y-99294207D01*
X118230393Y-99453581D01*
X118238652Y-99460511D01*
X118420332Y-99587725D01*
X118463956Y-99642302D01*
X118471149Y-99711801D01*
X118439627Y-99774155D01*
X118420332Y-99790875D01*
X118238652Y-99918089D01*
X118230393Y-99925019D01*
X118071021Y-100084391D01*
X118064085Y-100092657D01*
X117934802Y-100277292D01*
X117929414Y-100286624D01*
X117834157Y-100490903D01*
X117830468Y-100501036D01*
X117779278Y-100692079D01*
X117779609Y-100705953D01*
X117787425Y-100709300D01*
X119187470Y-100709300D01*
X119202469Y-100704896D01*
X119203656Y-100703526D01*
X119205300Y-100695968D01*
X119205300Y-98687130D01*
X119200896Y-98672131D01*
X119199526Y-98670944D01*
X119191968Y-98669300D01*
X117792494Y-98669300D01*
X117779177Y-98673210D01*
X117777967Y-98681626D01*
X117161800Y-98681626D01*
X117161800Y-94916304D01*
X117181485Y-94849265D01*
X117198119Y-94828623D01*
X117563462Y-94463280D01*
X117931969Y-94094772D01*
X117993292Y-94061287D01*
X118062983Y-94066271D01*
X118118026Y-94106967D01*
X118177730Y-94184776D01*
X118177734Y-94184780D01*
X118181090Y-94189154D01*
X118346193Y-94339386D01*
X118535290Y-94458007D01*
X118623169Y-94493334D01*
X118678028Y-94536602D01*
X118700786Y-94602661D01*
X118684217Y-94670538D01*
X118630301Y-94720306D01*
X118545838Y-94760593D01*
X118466171Y-94798592D01*
X118461689Y-94801813D01*
X118461687Y-94801814D01*
X118307113Y-94912887D01*
X118284895Y-94928852D01*
X118129551Y-95089154D01*
X118126473Y-95093734D01*
X118126471Y-95093737D01*
X118008127Y-95269852D01*
X118008124Y-95269857D01*
X118005050Y-95274432D01*
X117915326Y-95478829D01*
X117863215Y-95695885D01*
X117850366Y-95918738D01*
X117851030Y-95924222D01*
X117874567Y-96118724D01*
X117877183Y-96140344D01*
X117878808Y-96145626D01*
X117926484Y-96300600D01*
X117942819Y-96353700D01*
X117945352Y-96358607D01*
X117945353Y-96358610D01*
X118000260Y-96464989D01*
X118045201Y-96552059D01*
X118099083Y-96622280D01*
X118177730Y-96724776D01*
X118177734Y-96724780D01*
X118181090Y-96729154D01*
X118346193Y-96879386D01*
X118370158Y-96894419D01*
X118522852Y-96990205D01*
X118569182Y-97042505D01*
X118579882Y-97111551D01*
X118551554Y-97175420D01*
X118509363Y-97207630D01*
X118432633Y-97243410D01*
X118423283Y-97248808D01*
X118238657Y-97378084D01*
X118230393Y-97385019D01*
X118071021Y-97544391D01*
X118064085Y-97552657D01*
X117934802Y-97737292D01*
X117929414Y-97746624D01*
X117834157Y-97950903D01*
X117830468Y-97961036D01*
X117779278Y-98152079D01*
X117779609Y-98165953D01*
X117787425Y-98169300D01*
X119581300Y-98169300D01*
X119648339Y-98188985D01*
X119694094Y-98241789D01*
X119705300Y-98293300D01*
X119705300Y-101085300D01*
X119685615Y-101152339D01*
X119632811Y-101198094D01*
X119581300Y-101209300D01*
X117792494Y-101209300D01*
X117779177Y-101213210D01*
X117777967Y-101221626D01*
X117830468Y-101417564D01*
X117834157Y-101427697D01*
X117929410Y-101631967D01*
X117934808Y-101641317D01*
X118064084Y-101825943D01*
X118071019Y-101834207D01*
X118230393Y-101993581D01*
X118238657Y-102000516D01*
X118423283Y-102129792D01*
X118432633Y-102135190D01*
X118511749Y-102172083D01*
X118564188Y-102218256D01*
X118583340Y-102285449D01*
X118563124Y-102352330D01*
X118512727Y-102396386D01*
X118466171Y-102418592D01*
X118461688Y-102421814D01*
X118461687Y-102421814D01*
X118310247Y-102530635D01*
X118284895Y-102548852D01*
X118129551Y-102709154D01*
X118126473Y-102713734D01*
X118126471Y-102713737D01*
X118008127Y-102889852D01*
X118008124Y-102889857D01*
X118005050Y-102894432D01*
X117915326Y-103098829D01*
X117863215Y-103315885D01*
X117862897Y-103321400D01*
X117852533Y-103501161D01*
X117850366Y-103538738D01*
X117851030Y-103544222D01*
X117868457Y-103688232D01*
X117877183Y-103760344D01*
X117878808Y-103765626D01*
X117918226Y-103893757D01*
X117942819Y-103973700D01*
X117945352Y-103978607D01*
X117945353Y-103978610D01*
X118042667Y-104167150D01*
X118045201Y-104172059D01*
X118109578Y-104255957D01*
X118177730Y-104344776D01*
X118177734Y-104344780D01*
X118181090Y-104349154D01*
X118346193Y-104499386D01*
X118414672Y-104542343D01*
X118495655Y-104593144D01*
X118541985Y-104645444D01*
X118552685Y-104714490D01*
X118524357Y-104778359D01*
X118459758Y-104818504D01*
X118393575Y-104835005D01*
X118232922Y-104914754D01*
X118093141Y-105027141D01*
X117980754Y-105166922D01*
X117977767Y-105172940D01*
X117977766Y-105172941D01*
X117959533Y-105209671D01*
X117901005Y-105327575D01*
X117899380Y-105334092D01*
X117899379Y-105334095D01*
X117859379Y-105494529D01*
X117857615Y-105501606D01*
X117857244Y-105507049D01*
X117857243Y-105507055D01*
X117855814Y-105528017D01*
X117854800Y-105542896D01*
X117854800Y-106535704D01*
X117854943Y-106537798D01*
X117857243Y-106571545D01*
X117857244Y-106571551D01*
X117857615Y-106576994D01*
X117858936Y-106582291D01*
X117858936Y-106582293D01*
X117893611Y-106721367D01*
X117901005Y-106751025D01*
X117931078Y-106811606D01*
X117966937Y-106883843D01*
X117980754Y-106911678D01*
X118093141Y-107051459D01*
X118232922Y-107163846D01*
X118393575Y-107243595D01*
X118400092Y-107245220D01*
X118400095Y-107245221D01*
X118562307Y-107285664D01*
X118562309Y-107285664D01*
X118567606Y-107286985D01*
X118573049Y-107287356D01*
X118573055Y-107287357D01*
X118596000Y-107288921D01*
X118608896Y-107289800D01*
X120301704Y-107289800D01*
X120314600Y-107288921D01*
X120337545Y-107287357D01*
X120337551Y-107287356D01*
X120342994Y-107286985D01*
X120348291Y-107285664D01*
X120348293Y-107285664D01*
X120404396Y-107271676D01*
X120444188Y-107261755D01*
X120513997Y-107264637D01*
X120571167Y-107304803D01*
X120597546Y-107369502D01*
X120598185Y-107382072D01*
X120598185Y-118957133D01*
X120578500Y-119024172D01*
X120563048Y-119043616D01*
X115433613Y-124314023D01*
X115414473Y-124330079D01*
X115405971Y-124335859D01*
X115398112Y-124345994D01*
X115381160Y-124363862D01*
X115073771Y-124629262D01*
X115065623Y-124635721D01*
X114711120Y-124893298D01*
X114702460Y-124899051D01*
X114327635Y-125126019D01*
X114318524Y-125131027D01*
X113925989Y-125325803D01*
X113916489Y-125330030D01*
X113509025Y-125491234D01*
X113499208Y-125494649D01*
X113080842Y-125620799D01*
X113079671Y-125621152D01*
X113069602Y-125623733D01*
X112640934Y-125714645D01*
X112630688Y-125716373D01*
X112534267Y-125728500D01*
X112195913Y-125771055D01*
X112185551Y-125771919D01*
X111853960Y-125785602D01*
X111747714Y-125789986D01*
X111737324Y-125789978D01*
X111299532Y-125771302D01*
X111289178Y-125770424D01*
X110854468Y-125715136D01*
X110844240Y-125713397D01*
X110415681Y-125621883D01*
X110405630Y-125619291D01*
X109986272Y-125492205D01*
X109976459Y-125488776D01*
X109569198Y-125326996D01*
X109559705Y-125322756D01*
X109167464Y-125127444D01*
X109158359Y-125122424D01*
X108783833Y-124894924D01*
X108775181Y-124889158D01*
X108421040Y-124631088D01*
X108412917Y-124624631D01*
X108105882Y-124358789D01*
X108088957Y-124340898D01*
X108081115Y-124330756D01*
X108073051Y-124325257D01*
X108070739Y-124323079D01*
X108054550Y-124309349D01*
X104989912Y-121101014D01*
X103928659Y-119990000D01*
X108304559Y-119990000D01*
X108324310Y-120366871D01*
X108383347Y-120739613D01*
X108481022Y-121104143D01*
X108482180Y-121107159D01*
X108482182Y-121107166D01*
X108615102Y-121453434D01*
X108615106Y-121453442D01*
X108616266Y-121456465D01*
X108787597Y-121792720D01*
X108789363Y-121795440D01*
X108789368Y-121795448D01*
X108991365Y-122106497D01*
X108993137Y-122109225D01*
X108995178Y-122111745D01*
X108995182Y-122111751D01*
X109228595Y-122399992D01*
X109230635Y-122402511D01*
X109497489Y-122669365D01*
X109500006Y-122671403D01*
X109500008Y-122671405D01*
X109788249Y-122904818D01*
X109788255Y-122904822D01*
X109790775Y-122906863D01*
X109793498Y-122908631D01*
X109793503Y-122908635D01*
X110061843Y-123082897D01*
X110107279Y-123112403D01*
X110443535Y-123283734D01*
X110446558Y-123284894D01*
X110446566Y-123284898D01*
X110792834Y-123417818D01*
X110792841Y-123417820D01*
X110795857Y-123418978D01*
X111160387Y-123516653D01*
X111533129Y-123575690D01*
X111536361Y-123575859D01*
X111536367Y-123575860D01*
X111906756Y-123595271D01*
X111910000Y-123595441D01*
X111913244Y-123595271D01*
X112283633Y-123575860D01*
X112283639Y-123575859D01*
X112286871Y-123575690D01*
X112659613Y-123516653D01*
X113024143Y-123418978D01*
X113027159Y-123417820D01*
X113027166Y-123417818D01*
X113373434Y-123284898D01*
X113373442Y-123284894D01*
X113376465Y-123283734D01*
X113712721Y-123112403D01*
X113758157Y-123082897D01*
X114026497Y-122908635D01*
X114026502Y-122908631D01*
X114029225Y-122906863D01*
X114031745Y-122904822D01*
X114031751Y-122904818D01*
X114319992Y-122671405D01*
X114319994Y-122671403D01*
X114322511Y-122669365D01*
X114589365Y-122402511D01*
X114591405Y-122399992D01*
X114824818Y-122111751D01*
X114824822Y-122111745D01*
X114826863Y-122109225D01*
X114828635Y-122106497D01*
X115030632Y-121795448D01*
X115030637Y-121795440D01*
X115032403Y-121792720D01*
X115203734Y-121456465D01*
X115204894Y-121453442D01*
X115204898Y-121453434D01*
X115337818Y-121107166D01*
X115337820Y-121107159D01*
X115338978Y-121104143D01*
X115436653Y-120739613D01*
X115495690Y-120366871D01*
X115515441Y-119990000D01*
X115495690Y-119613129D01*
X115436653Y-119240387D01*
X115338978Y-118875857D01*
X115337818Y-118872834D01*
X115204898Y-118526566D01*
X115204894Y-118526558D01*
X115203734Y-118523535D01*
X115032403Y-118187280D01*
X115030637Y-118184560D01*
X115030632Y-118184552D01*
X114828635Y-117873503D01*
X114828631Y-117873498D01*
X114826863Y-117870775D01*
X114824822Y-117868255D01*
X114824818Y-117868249D01*
X114591405Y-117580008D01*
X114591403Y-117580006D01*
X114589365Y-117577489D01*
X114322511Y-117310635D01*
X114319992Y-117308595D01*
X114031751Y-117075182D01*
X114031745Y-117075178D01*
X114029225Y-117073137D01*
X114026502Y-117071369D01*
X114026497Y-117071365D01*
X113715448Y-116869368D01*
X113712721Y-116867597D01*
X113376465Y-116696266D01*
X113373442Y-116695106D01*
X113373434Y-116695102D01*
X113027166Y-116562182D01*
X113027159Y-116562180D01*
X113024143Y-116561022D01*
X112659613Y-116463347D01*
X112286871Y-116404310D01*
X112283639Y-116404141D01*
X112283633Y-116404140D01*
X111913244Y-116384729D01*
X111910000Y-116384559D01*
X111906756Y-116384729D01*
X111536367Y-116404140D01*
X111536361Y-116404141D01*
X111533129Y-116404310D01*
X111160387Y-116463347D01*
X110795857Y-116561022D01*
X110792841Y-116562180D01*
X110792834Y-116562182D01*
X110446566Y-116695102D01*
X110446558Y-116695106D01*
X110443535Y-116696266D01*
X110107280Y-116867597D01*
X110104560Y-116869363D01*
X110104552Y-116869368D01*
X109793503Y-117071365D01*
X109793498Y-117071369D01*
X109790775Y-117073137D01*
X109788255Y-117075178D01*
X109788249Y-117075182D01*
X109500008Y-117308595D01*
X109497489Y-117310635D01*
X109230635Y-117577489D01*
X109228597Y-117580006D01*
X109228595Y-117580008D01*
X108995182Y-117868249D01*
X108995178Y-117868255D01*
X108993137Y-117870775D01*
X108991369Y-117873498D01*
X108991365Y-117873503D01*
X108789368Y-118184552D01*
X108789363Y-118184560D01*
X108787597Y-118187280D01*
X108616266Y-118523535D01*
X108615106Y-118526558D01*
X108615102Y-118526566D01*
X108482182Y-118872834D01*
X108481022Y-118875857D01*
X108383347Y-119240387D01*
X108324310Y-119613129D01*
X108304559Y-119990000D01*
X103928659Y-119990000D01*
X103026589Y-119045633D01*
X102994517Y-118983559D01*
X102992255Y-118959983D01*
X102992255Y-107192076D01*
X103011940Y-107125037D01*
X103064744Y-107079282D01*
X103133902Y-107069338D01*
X103182148Y-107087032D01*
X103206384Y-107102236D01*
X103290615Y-107155075D01*
X103290620Y-107155078D01*
X103295290Y-107158007D01*
X103300407Y-107160064D01*
X103300411Y-107160066D01*
X103407978Y-107203307D01*
X103502405Y-107241266D01*
X103507807Y-107242385D01*
X103507808Y-107242385D01*
X103513651Y-107243595D01*
X103720990Y-107286533D01*
X103777649Y-107289800D01*
X104621930Y-107289800D01*
X104624673Y-107289555D01*
X104624677Y-107289555D01*
X104782139Y-107275502D01*
X104782141Y-107275502D01*
X104787639Y-107275011D01*
X105002951Y-107216108D01*
X105007930Y-107213733D01*
X105007933Y-107213732D01*
X105199448Y-107122384D01*
X105199450Y-107122383D01*
X105204429Y-107120008D01*
X105234014Y-107098749D01*
X105381220Y-106992971D01*
X105381221Y-106992970D01*
X105385705Y-106989748D01*
X105541049Y-106829446D01*
X105553037Y-106811606D01*
X105662473Y-106648748D01*
X105662476Y-106648743D01*
X105665550Y-106644168D01*
X105700143Y-106565363D01*
X105745114Y-106511890D01*
X105811855Y-106491218D01*
X105879178Y-106509912D01*
X105925707Y-106562035D01*
X105937685Y-106615205D01*
X105937685Y-109275075D01*
X105937576Y-109280267D01*
X105934975Y-109342326D01*
X105936906Y-109350557D01*
X105936906Y-109350561D01*
X105944932Y-109384779D01*
X105947061Y-109396264D01*
X105952979Y-109439464D01*
X105956336Y-109447221D01*
X105959019Y-109453421D01*
X105965943Y-109474357D01*
X105969417Y-109489168D01*
X105987602Y-109522246D01*
X105990423Y-109527378D01*
X105995561Y-109537867D01*
X106009522Y-109570129D01*
X106009525Y-109570134D01*
X106012880Y-109577887D01*
X106018197Y-109584453D01*
X106018198Y-109584455D01*
X106022452Y-109589708D01*
X106034742Y-109607997D01*
X106042078Y-109621340D01*
X106049082Y-109629454D01*
X106073694Y-109654066D01*
X106082379Y-109663711D01*
X106107799Y-109695102D01*
X106121880Y-109705109D01*
X106123269Y-109706096D01*
X106139119Y-109719491D01*
X107948327Y-111528698D01*
X107951922Y-111532446D01*
X107993984Y-111578188D01*
X108001168Y-111582642D01*
X108031046Y-111601167D01*
X108040672Y-111607783D01*
X108075401Y-111634144D01*
X108083258Y-111637255D01*
X108083260Y-111637256D01*
X108089549Y-111639746D01*
X108109235Y-111649647D01*
X108113355Y-111652201D01*
X108122171Y-111657667D01*
X108164049Y-111669834D01*
X108175101Y-111673618D01*
X108207775Y-111686555D01*
X108207782Y-111686557D01*
X108215638Y-111689667D01*
X108224041Y-111690550D01*
X108224045Y-111690551D01*
X108230758Y-111691256D01*
X108252399Y-111695502D01*
X108260770Y-111697934D01*
X108267010Y-111699747D01*
X108273485Y-111700222D01*
X108273488Y-111700223D01*
X108275425Y-111700365D01*
X108275427Y-111700365D01*
X108277700Y-111700532D01*
X108312508Y-111700532D01*
X108325470Y-111701211D01*
X108365639Y-111705433D01*
X108373969Y-111704024D01*
X108373972Y-111704024D01*
X108384352Y-111702268D01*
X108405031Y-111700532D01*
X109226652Y-111700532D01*
X109296932Y-111722961D01*
X109299418Y-111725223D01*
X109305990Y-111728791D01*
X109305991Y-111728792D01*
X109322543Y-111737779D01*
X109448420Y-111806124D01*
X109543770Y-111831139D01*
X109605190Y-111847252D01*
X109605192Y-111847252D01*
X109612418Y-111849148D01*
X109695363Y-111850451D01*
X109774475Y-111851694D01*
X109774478Y-111851694D01*
X109781945Y-111851811D01*
X109904394Y-111823767D01*
X109939923Y-111815630D01*
X109939924Y-111815630D01*
X109947214Y-111813960D01*
X110022296Y-111776197D01*
X110092005Y-111741138D01*
X110092007Y-111741137D01*
X110098683Y-111737779D01*
X110104365Y-111732926D01*
X110104368Y-111732924D01*
X110221926Y-111632519D01*
X110227608Y-111627666D01*
X110326546Y-111489979D01*
X110389786Y-111332666D01*
X110413675Y-111164810D01*
X110413830Y-111150032D01*
X110393461Y-110981712D01*
X110333530Y-110823109D01*
X110329293Y-110816944D01*
X110241734Y-110689545D01*
X110241731Y-110689542D01*
X110237497Y-110683381D01*
X110195525Y-110645985D01*
X110116488Y-110575565D01*
X110116486Y-110575564D01*
X110110906Y-110570592D01*
X110096970Y-110563213D01*
X109967674Y-110494755D01*
X109961066Y-110491256D01*
X109796626Y-110449951D01*
X109710433Y-110449500D01*
X109634553Y-110449102D01*
X109634552Y-110449102D01*
X109627080Y-110449063D01*
X109605420Y-110454263D01*
X109469480Y-110486900D01*
X109469478Y-110486901D01*
X109462217Y-110488644D01*
X109455584Y-110492067D01*
X109455580Y-110492069D01*
X109388650Y-110526615D01*
X109311554Y-110566407D01*
X109305920Y-110571321D01*
X109299741Y-110575521D01*
X109298468Y-110573648D01*
X109245145Y-110598212D01*
X109227097Y-110599532D01*
X108627572Y-110599532D01*
X108560533Y-110579847D01*
X108539891Y-110563213D01*
X107075004Y-109098327D01*
X107041519Y-109037004D01*
X107038685Y-109010646D01*
X107038685Y-96464989D01*
X107038794Y-96459796D01*
X107041041Y-96406186D01*
X107041041Y-96406185D01*
X107041395Y-96397738D01*
X107039464Y-96389507D01*
X107039464Y-96389503D01*
X107031438Y-96355285D01*
X107029308Y-96343796D01*
X107024538Y-96308972D01*
X107024538Y-96308971D01*
X107023391Y-96300600D01*
X107017351Y-96286642D01*
X107010427Y-96265707D01*
X107008884Y-96259129D01*
X107006953Y-96250896D01*
X106985946Y-96212684D01*
X106980809Y-96202197D01*
X106966848Y-96169935D01*
X106966845Y-96169930D01*
X106963490Y-96162177D01*
X106953918Y-96150356D01*
X106941625Y-96132063D01*
X106934292Y-96118724D01*
X106927288Y-96110610D01*
X106902676Y-96085998D01*
X106893991Y-96076353D01*
X106873890Y-96051531D01*
X106868571Y-96044962D01*
X106853101Y-96033968D01*
X106837251Y-96020573D01*
X106648804Y-95832126D01*
X107929731Y-95832126D01*
X107977631Y-96010892D01*
X107981323Y-96021035D01*
X108072880Y-96217380D01*
X108078268Y-96226713D01*
X108202533Y-96404181D01*
X108209469Y-96412447D01*
X108358641Y-96561619D01*
X108392126Y-96622942D01*
X108387142Y-96692634D01*
X108358641Y-96736981D01*
X108209469Y-96886153D01*
X108202533Y-96894419D01*
X108078268Y-97071887D01*
X108072880Y-97081220D01*
X107981323Y-97277565D01*
X107977631Y-97287708D01*
X107931042Y-97461579D01*
X107931373Y-97475453D01*
X107939189Y-97478800D01*
X109187470Y-97478800D01*
X109202469Y-97474396D01*
X109203656Y-97473026D01*
X109205300Y-97465468D01*
X109205300Y-95837630D01*
X109200896Y-95822631D01*
X109199526Y-95821444D01*
X109191968Y-95819800D01*
X107944258Y-95819800D01*
X107930941Y-95823710D01*
X107929731Y-95832126D01*
X106648804Y-95832126D01*
X106302810Y-95486133D01*
X106299215Y-95482385D01*
X106262875Y-95442865D01*
X106262873Y-95442863D01*
X106257154Y-95436644D01*
X106220091Y-95413664D01*
X106210463Y-95407047D01*
X106182469Y-95385798D01*
X106182466Y-95385796D01*
X106175736Y-95380688D01*
X106167878Y-95377577D01*
X106167873Y-95377574D01*
X106161598Y-95375090D01*
X106141897Y-95365182D01*
X106136152Y-95361620D01*
X106128967Y-95357165D01*
X106102999Y-95349621D01*
X106087095Y-95345000D01*
X106076044Y-95341216D01*
X106043361Y-95328276D01*
X106043358Y-95328275D01*
X106035500Y-95325164D01*
X106020371Y-95323574D01*
X105998737Y-95319329D01*
X105990372Y-95316899D01*
X105984128Y-95315085D01*
X105976629Y-95314534D01*
X105975713Y-95314467D01*
X105975711Y-95314467D01*
X105973438Y-95314300D01*
X105938631Y-95314300D01*
X105925670Y-95313621D01*
X105893905Y-95310282D01*
X105893902Y-95310282D01*
X105885499Y-95309399D01*
X105877169Y-95310808D01*
X105877166Y-95310808D01*
X105866786Y-95312564D01*
X105846107Y-95314300D01*
X105756559Y-95314300D01*
X105689520Y-95294615D01*
X105646371Y-95247173D01*
X105627933Y-95211450D01*
X105627932Y-95211448D01*
X105625399Y-95206541D01*
X105538842Y-95093737D01*
X105492870Y-95033824D01*
X105492866Y-95033820D01*
X105489510Y-95029446D01*
X105324407Y-94879214D01*
X105135310Y-94760593D01*
X105047431Y-94725266D01*
X104992572Y-94681998D01*
X104969814Y-94615939D01*
X104986383Y-94548062D01*
X105040299Y-94498294D01*
X105199448Y-94422384D01*
X105199450Y-94422383D01*
X105204429Y-94420008D01*
X105299271Y-94351857D01*
X105381220Y-94292971D01*
X105381221Y-94292970D01*
X105385705Y-94289748D01*
X105541049Y-94129446D01*
X105556155Y-94106967D01*
X105662473Y-93948747D01*
X105665550Y-93944168D01*
X105667054Y-93940741D01*
X105716202Y-93891871D01*
X105780511Y-93876980D01*
X105796645Y-93877656D01*
X105796646Y-93877656D01*
X105805094Y-93878010D01*
X105813325Y-93876079D01*
X105813329Y-93876079D01*
X105847547Y-93868053D01*
X105859032Y-93865924D01*
X105876888Y-93863478D01*
X105893860Y-93861153D01*
X105893861Y-93861153D01*
X105902232Y-93860006D01*
X105916190Y-93853966D01*
X105937125Y-93847042D01*
X105943703Y-93845499D01*
X105951936Y-93843568D01*
X105990148Y-93822561D01*
X106000635Y-93817424D01*
X106032897Y-93803463D01*
X106032902Y-93803460D01*
X106040655Y-93800105D01*
X106047221Y-93794788D01*
X106047223Y-93794787D01*
X106052476Y-93790533D01*
X106070765Y-93778243D01*
X106084108Y-93770907D01*
X106092222Y-93763903D01*
X106116834Y-93739291D01*
X106126479Y-93730606D01*
X106127473Y-93729801D01*
X106157870Y-93705186D01*
X106168864Y-93689716D01*
X106182259Y-93673866D01*
X106182999Y-93673126D01*
X107929731Y-93673126D01*
X107977631Y-93851892D01*
X107981323Y-93862035D01*
X108072880Y-94058380D01*
X108078268Y-94067713D01*
X108202533Y-94245181D01*
X108209469Y-94253447D01*
X108358641Y-94402619D01*
X108392126Y-94463942D01*
X108387142Y-94533634D01*
X108358641Y-94577981D01*
X108209469Y-94727153D01*
X108202533Y-94735419D01*
X108078268Y-94912887D01*
X108072880Y-94922220D01*
X107981323Y-95118565D01*
X107977631Y-95128708D01*
X107931042Y-95302579D01*
X107931373Y-95316453D01*
X107939189Y-95319800D01*
X109187470Y-95319800D01*
X109202469Y-95315396D01*
X109203656Y-95314026D01*
X109205300Y-95306468D01*
X109205300Y-93678630D01*
X109200896Y-93663631D01*
X109199526Y-93662444D01*
X109191968Y-93660800D01*
X107944258Y-93660800D01*
X107930941Y-93664710D01*
X107929731Y-93673126D01*
X106182999Y-93673126D01*
X106636852Y-93219272D01*
X106640600Y-93215677D01*
X106680120Y-93179337D01*
X106680122Y-93179335D01*
X106686341Y-93173616D01*
X106709321Y-93136552D01*
X106715938Y-93126925D01*
X106742297Y-93092199D01*
X106747899Y-93078051D01*
X106757800Y-93058365D01*
X106761367Y-93052611D01*
X106765820Y-93045429D01*
X106777987Y-93003550D01*
X106781771Y-92992499D01*
X106794708Y-92959825D01*
X106794710Y-92959818D01*
X106797820Y-92951962D01*
X106798703Y-92943559D01*
X106798704Y-92943555D01*
X106799409Y-92936842D01*
X106803655Y-92915201D01*
X106806087Y-92906830D01*
X106807900Y-92900590D01*
X106808395Y-92893857D01*
X106808518Y-92892175D01*
X106808518Y-92892173D01*
X106808685Y-92889900D01*
X106808685Y-92855092D01*
X106809364Y-92842130D01*
X106810847Y-92828021D01*
X106813586Y-92801961D01*
X106810421Y-92783248D01*
X106808685Y-92762569D01*
X106808685Y-91514126D01*
X107929731Y-91514126D01*
X107977631Y-91692892D01*
X107981323Y-91703035D01*
X108072880Y-91899380D01*
X108078268Y-91908713D01*
X108202533Y-92086181D01*
X108209469Y-92094447D01*
X108358641Y-92243619D01*
X108392126Y-92304942D01*
X108387142Y-92374634D01*
X108358641Y-92418981D01*
X108209469Y-92568153D01*
X108202533Y-92576419D01*
X108078268Y-92753887D01*
X108072880Y-92763220D01*
X107981323Y-92959565D01*
X107977631Y-92969708D01*
X107931042Y-93143579D01*
X107931373Y-93157453D01*
X107939189Y-93160800D01*
X109187470Y-93160800D01*
X109202469Y-93156396D01*
X109203656Y-93155026D01*
X109205300Y-93147468D01*
X109205300Y-91519630D01*
X109200896Y-91504631D01*
X109199526Y-91503444D01*
X109191968Y-91501800D01*
X107944258Y-91501800D01*
X107930941Y-91505710D01*
X107929731Y-91514126D01*
X106808685Y-91514126D01*
X106808685Y-89355126D01*
X107929731Y-89355126D01*
X107977631Y-89533892D01*
X107981323Y-89544035D01*
X108072880Y-89740380D01*
X108078268Y-89749713D01*
X108202533Y-89927181D01*
X108209469Y-89935447D01*
X108358641Y-90084619D01*
X108392126Y-90145942D01*
X108387142Y-90215634D01*
X108358641Y-90259981D01*
X108209469Y-90409153D01*
X108202533Y-90417419D01*
X108078268Y-90594887D01*
X108072880Y-90604220D01*
X107981323Y-90800565D01*
X107977631Y-90810708D01*
X107931042Y-90984579D01*
X107931373Y-90998453D01*
X107939189Y-91001800D01*
X109187470Y-91001800D01*
X109202469Y-90997396D01*
X109203656Y-90996026D01*
X109205300Y-90988468D01*
X109205300Y-89360630D01*
X109200896Y-89345631D01*
X109199526Y-89344444D01*
X109191968Y-89342800D01*
X107944258Y-89342800D01*
X107930941Y-89346710D01*
X107929731Y-89355126D01*
X106808685Y-89355126D01*
X106808685Y-87196126D01*
X107929731Y-87196126D01*
X107977631Y-87374892D01*
X107981323Y-87385035D01*
X108072880Y-87581380D01*
X108078268Y-87590713D01*
X108202533Y-87768181D01*
X108209469Y-87776447D01*
X108358641Y-87925619D01*
X108392126Y-87986942D01*
X108387142Y-88056634D01*
X108358641Y-88100981D01*
X108209469Y-88250153D01*
X108202533Y-88258419D01*
X108078268Y-88435887D01*
X108072880Y-88445220D01*
X107981323Y-88641565D01*
X107977631Y-88651708D01*
X107931042Y-88825579D01*
X107931373Y-88839453D01*
X107939189Y-88842800D01*
X109187470Y-88842800D01*
X109202469Y-88838396D01*
X109203656Y-88837026D01*
X109205300Y-88829468D01*
X109205300Y-87201630D01*
X109200896Y-87186631D01*
X109199526Y-87185444D01*
X109191968Y-87183800D01*
X107944258Y-87183800D01*
X107930941Y-87187710D01*
X107929731Y-87196126D01*
X106808685Y-87196126D01*
X106808685Y-85037126D01*
X107929731Y-85037126D01*
X107977631Y-85215892D01*
X107981323Y-85226035D01*
X108072880Y-85422380D01*
X108078268Y-85431713D01*
X108202533Y-85609181D01*
X108209469Y-85617447D01*
X108358641Y-85766619D01*
X108392126Y-85827942D01*
X108387142Y-85897634D01*
X108358641Y-85941981D01*
X108209469Y-86091153D01*
X108202533Y-86099419D01*
X108078268Y-86276887D01*
X108072880Y-86286220D01*
X107981323Y-86482565D01*
X107977631Y-86492708D01*
X107931042Y-86666579D01*
X107931373Y-86680453D01*
X107939189Y-86683800D01*
X109187470Y-86683800D01*
X109202469Y-86679396D01*
X109203656Y-86678026D01*
X109205300Y-86670468D01*
X109205300Y-85042630D01*
X109200896Y-85027631D01*
X109199526Y-85026444D01*
X109191968Y-85024800D01*
X107944258Y-85024800D01*
X107930941Y-85028710D01*
X107929731Y-85037126D01*
X106808685Y-85037126D01*
X106808685Y-82579419D01*
X106828370Y-82512380D01*
X106845004Y-82491738D01*
X108061622Y-81275119D01*
X108122945Y-81241634D01*
X108149303Y-81238800D01*
X108420868Y-81238800D01*
X108487907Y-81258485D01*
G37*
G04 #@! TD.AperFunction*
G04 #@! TA.AperFunction,Conductor*
G36*
X111755186Y-67846086D02*
G01*
X112192978Y-67864762D01*
X112203332Y-67865640D01*
X112638042Y-67920928D01*
X112648270Y-67922667D01*
X113076829Y-68014181D01*
X113086880Y-68016773D01*
X113506236Y-68143858D01*
X113516051Y-68147288D01*
X113923312Y-68309068D01*
X113932805Y-68313308D01*
X114325046Y-68508620D01*
X114334151Y-68513640D01*
X114708677Y-68741140D01*
X114717326Y-68746904D01*
X115071470Y-69004976D01*
X115079593Y-69011433D01*
X115380769Y-69272202D01*
X115386626Y-69277273D01*
X115403553Y-69295166D01*
X115411395Y-69305308D01*
X115420185Y-69311302D01*
X115439188Y-69327267D01*
X116200299Y-70109368D01*
X120442721Y-74468788D01*
X120563051Y-74592437D01*
X120595698Y-74654210D01*
X120598185Y-74678918D01*
X120598185Y-76896239D01*
X120578500Y-76963278D01*
X120525696Y-77009033D01*
X120456538Y-77018977D01*
X120408291Y-77001282D01*
X120404253Y-76998749D01*
X120375310Y-76980593D01*
X120370193Y-76978536D01*
X120370189Y-76978534D01*
X120173317Y-76899393D01*
X120168195Y-76897334D01*
X119949610Y-76852067D01*
X119892951Y-76848800D01*
X119048670Y-76848800D01*
X119045927Y-76849045D01*
X119045923Y-76849045D01*
X118888461Y-76863098D01*
X118888459Y-76863098D01*
X118882961Y-76863589D01*
X118667649Y-76922492D01*
X118662670Y-76924867D01*
X118662667Y-76924868D01*
X118471152Y-77016216D01*
X118466171Y-77018592D01*
X118461689Y-77021813D01*
X118461687Y-77021814D01*
X118348797Y-77102934D01*
X118284895Y-77148852D01*
X118129551Y-77309154D01*
X118126473Y-77313734D01*
X118126471Y-77313737D01*
X118008127Y-77489852D01*
X118008124Y-77489857D01*
X118005050Y-77494432D01*
X117915326Y-77698829D01*
X117863215Y-77915885D01*
X117850366Y-78138738D01*
X117851030Y-78144222D01*
X117876097Y-78351368D01*
X117877183Y-78360344D01*
X117878808Y-78365626D01*
X117921631Y-78504825D01*
X117942819Y-78573700D01*
X118045201Y-78772059D01*
X118109578Y-78855957D01*
X118177730Y-78944776D01*
X118177734Y-78944780D01*
X118181090Y-78949154D01*
X118346193Y-79099386D01*
X118535290Y-79218007D01*
X118623169Y-79253334D01*
X118678028Y-79296602D01*
X118700786Y-79362661D01*
X118684217Y-79430538D01*
X118630301Y-79480306D01*
X118545838Y-79520593D01*
X118466171Y-79558592D01*
X118461689Y-79561813D01*
X118461687Y-79561814D01*
X118348804Y-79642929D01*
X118284895Y-79688852D01*
X118129551Y-79849154D01*
X118126473Y-79853734D01*
X118126471Y-79853737D01*
X118008127Y-80029852D01*
X118008124Y-80029857D01*
X118005050Y-80034432D01*
X117915326Y-80238829D01*
X117863215Y-80455885D01*
X117850366Y-80678738D01*
X117877183Y-80900344D01*
X117942819Y-81113700D01*
X117945352Y-81118607D01*
X117945353Y-81118610D01*
X118042667Y-81307150D01*
X118045201Y-81312059D01*
X118097677Y-81380447D01*
X118177730Y-81484776D01*
X118177734Y-81484780D01*
X118181090Y-81489154D01*
X118346193Y-81639386D01*
X118535290Y-81758007D01*
X118623169Y-81793334D01*
X118678028Y-81836602D01*
X118700786Y-81902661D01*
X118684217Y-81970538D01*
X118630301Y-82020306D01*
X118545838Y-82060593D01*
X118466171Y-82098592D01*
X118461689Y-82101813D01*
X118461687Y-82101814D01*
X118353974Y-82179214D01*
X118284895Y-82228852D01*
X118129551Y-82389154D01*
X118126473Y-82393734D01*
X118126471Y-82393737D01*
X118008127Y-82569852D01*
X118008124Y-82569857D01*
X118005050Y-82574432D01*
X117994004Y-82599596D01*
X117983774Y-82622900D01*
X117938803Y-82676373D01*
X117919486Y-82686856D01*
X117911903Y-82690137D01*
X117890975Y-82697058D01*
X117884394Y-82698601D01*
X117884389Y-82698603D01*
X117876164Y-82700532D01*
X117868756Y-82704605D01*
X117868755Y-82704605D01*
X117837949Y-82721540D01*
X117827459Y-82726679D01*
X117803905Y-82736872D01*
X117787445Y-82743995D01*
X117780871Y-82749318D01*
X117780870Y-82749319D01*
X117775622Y-82753568D01*
X117757325Y-82765864D01*
X117743992Y-82773194D01*
X117735878Y-82780197D01*
X117711266Y-82804809D01*
X117701621Y-82813494D01*
X117670230Y-82838914D01*
X117659236Y-82854384D01*
X117645841Y-82870234D01*
X116740633Y-83775443D01*
X116736885Y-83779038D01*
X116697365Y-83815378D01*
X116697363Y-83815380D01*
X116691144Y-83821099D01*
X116686690Y-83828283D01*
X116668164Y-83858162D01*
X116661547Y-83867790D01*
X116640298Y-83895784D01*
X116640296Y-83895787D01*
X116635188Y-83902517D01*
X116632077Y-83910375D01*
X116632074Y-83910380D01*
X116629590Y-83916655D01*
X116619682Y-83936356D01*
X116611665Y-83949286D01*
X116609307Y-83957403D01*
X116599500Y-83991158D01*
X116595716Y-84002209D01*
X116585048Y-84029154D01*
X116579664Y-84042753D01*
X116578781Y-84051157D01*
X116578074Y-84057881D01*
X116573829Y-84079516D01*
X116569585Y-84094125D01*
X116568800Y-84104815D01*
X116568800Y-84139622D01*
X116568121Y-84152583D01*
X116564996Y-84182321D01*
X116563899Y-84192754D01*
X116565308Y-84201084D01*
X116565308Y-84201087D01*
X116567064Y-84211467D01*
X116568800Y-84232146D01*
X116568800Y-87079530D01*
X116549115Y-87146569D01*
X116532481Y-87167211D01*
X115953728Y-87745965D01*
X115421767Y-88277926D01*
X115360444Y-88311411D01*
X115290752Y-88306427D01*
X115240859Y-88272004D01*
X115215210Y-88242757D01*
X115210751Y-88239242D01*
X115210747Y-88239238D01*
X115077766Y-88134405D01*
X115037306Y-88077443D01*
X115034064Y-88007649D01*
X115069071Y-87947181D01*
X115080342Y-87937671D01*
X115192033Y-87854267D01*
X115341801Y-87692249D01*
X115365662Y-87654432D01*
X115456502Y-87510459D01*
X115456503Y-87510457D01*
X115459536Y-87505650D01*
X115541294Y-87300721D01*
X115543437Y-87289950D01*
X115575075Y-87130892D01*
X115584338Y-87084324D01*
X115584631Y-87061998D01*
X115587152Y-86869395D01*
X115587152Y-86869390D01*
X115587226Y-86863706D01*
X115562428Y-86719386D01*
X115550825Y-86651860D01*
X115550824Y-86651857D01*
X115549862Y-86646257D01*
X115473496Y-86439257D01*
X115360686Y-86249641D01*
X115215210Y-86083757D01*
X115210751Y-86080242D01*
X115210747Y-86080238D01*
X115077766Y-85975405D01*
X115037306Y-85918443D01*
X115034064Y-85848649D01*
X115069071Y-85788181D01*
X115080342Y-85778671D01*
X115192033Y-85695267D01*
X115341801Y-85533249D01*
X115344836Y-85528439D01*
X115456502Y-85351459D01*
X115456503Y-85351457D01*
X115459536Y-85346650D01*
X115541294Y-85141721D01*
X115584338Y-84925324D01*
X115585070Y-84869446D01*
X115587152Y-84710395D01*
X115587152Y-84710390D01*
X115587226Y-84704706D01*
X115575866Y-84638592D01*
X115550825Y-84492860D01*
X115550824Y-84492857D01*
X115549862Y-84487257D01*
X115473496Y-84280257D01*
X115360686Y-84090641D01*
X115341608Y-84068887D01*
X115332660Y-84058683D01*
X115303258Y-83995301D01*
X115312791Y-83926084D01*
X115338208Y-83889244D01*
X115941035Y-83286417D01*
X115953230Y-83275722D01*
X115971835Y-83261446D01*
X115978282Y-83256499D01*
X116074536Y-83131058D01*
X116083200Y-83110142D01*
X116131934Y-82992488D01*
X116131935Y-82992486D01*
X116135044Y-82984979D01*
X116150500Y-82867578D01*
X116155682Y-82828217D01*
X116151561Y-82796915D01*
X116150500Y-82780730D01*
X116150500Y-77586152D01*
X116170185Y-77519113D01*
X116207984Y-77484917D01*
X116206750Y-77483218D01*
X116214647Y-77477480D01*
X116223342Y-77473050D01*
X116313050Y-77383342D01*
X116370646Y-77270304D01*
X116385500Y-77176519D01*
X116385499Y-76263482D01*
X116370646Y-76169696D01*
X116313050Y-76056658D01*
X116223342Y-75966950D01*
X116214647Y-75962520D01*
X116206750Y-75956782D01*
X116208159Y-75954843D01*
X116167413Y-75916366D01*
X116150500Y-75853848D01*
X116150500Y-75746807D01*
X116151561Y-75730622D01*
X116154621Y-75707379D01*
X116155682Y-75699320D01*
X116135044Y-75542558D01*
X116074536Y-75396479D01*
X116002450Y-75302535D01*
X115978282Y-75271038D01*
X115953230Y-75251815D01*
X115941035Y-75241120D01*
X115343017Y-74643102D01*
X115309532Y-74581779D01*
X115314934Y-74510983D01*
X115377818Y-74347166D01*
X115377820Y-74347159D01*
X115378978Y-74344143D01*
X115476653Y-73979613D01*
X115535690Y-73606871D01*
X115555441Y-73230000D01*
X115535690Y-72853129D01*
X115476653Y-72480387D01*
X115378978Y-72115857D01*
X115377818Y-72112834D01*
X115244898Y-71766566D01*
X115244894Y-71766558D01*
X115243734Y-71763535D01*
X115072403Y-71427280D01*
X115070637Y-71424560D01*
X115070632Y-71424552D01*
X114868635Y-71113503D01*
X114868631Y-71113498D01*
X114866863Y-71110775D01*
X114864822Y-71108255D01*
X114864818Y-71108249D01*
X114631405Y-70820008D01*
X114631403Y-70820006D01*
X114629365Y-70817489D01*
X114362511Y-70550635D01*
X114359992Y-70548595D01*
X114071751Y-70315182D01*
X114071745Y-70315178D01*
X114069225Y-70313137D01*
X114066502Y-70311369D01*
X114066497Y-70311365D01*
X113755448Y-70109368D01*
X113752721Y-70107597D01*
X113416465Y-69936266D01*
X113413442Y-69935106D01*
X113413434Y-69935102D01*
X113067166Y-69802182D01*
X113067159Y-69802180D01*
X113064143Y-69801022D01*
X112699613Y-69703347D01*
X112326871Y-69644310D01*
X112323639Y-69644141D01*
X112323633Y-69644140D01*
X111953244Y-69624729D01*
X111950000Y-69624559D01*
X111946756Y-69624729D01*
X111576367Y-69644140D01*
X111576361Y-69644141D01*
X111573129Y-69644310D01*
X111200387Y-69703347D01*
X110835857Y-69801022D01*
X110832841Y-69802180D01*
X110832834Y-69802182D01*
X110486566Y-69935102D01*
X110486558Y-69935106D01*
X110483535Y-69936266D01*
X110147280Y-70107597D01*
X110144560Y-70109363D01*
X110144552Y-70109368D01*
X109833503Y-70311365D01*
X109833498Y-70311369D01*
X109830775Y-70313137D01*
X109828255Y-70315178D01*
X109828249Y-70315182D01*
X109540008Y-70548595D01*
X109537489Y-70550635D01*
X109270635Y-70817489D01*
X109268597Y-70820006D01*
X109268595Y-70820008D01*
X109035182Y-71108249D01*
X109035178Y-71108255D01*
X109033137Y-71110775D01*
X109031369Y-71113498D01*
X109031365Y-71113503D01*
X108829368Y-71424552D01*
X108829363Y-71424560D01*
X108827597Y-71427280D01*
X108656266Y-71763535D01*
X108655106Y-71766558D01*
X108655102Y-71766566D01*
X108522182Y-72112834D01*
X108521022Y-72115857D01*
X108423347Y-72480387D01*
X108364310Y-72853129D01*
X108344559Y-73230000D01*
X108364310Y-73606871D01*
X108423347Y-73979613D01*
X108521022Y-74344143D01*
X108522180Y-74347159D01*
X108522182Y-74347166D01*
X108655102Y-74693434D01*
X108655106Y-74693442D01*
X108656266Y-74696465D01*
X108827597Y-75032720D01*
X108829363Y-75035440D01*
X108829368Y-75035448D01*
X108986547Y-75277483D01*
X109033137Y-75349225D01*
X109035178Y-75351745D01*
X109035182Y-75351751D01*
X109268595Y-75639992D01*
X109270635Y-75642511D01*
X109537489Y-75909365D01*
X109540006Y-75911403D01*
X109540008Y-75911405D01*
X109828249Y-76144818D01*
X109828255Y-76144822D01*
X109830775Y-76146863D01*
X109833498Y-76148631D01*
X109833503Y-76148635D01*
X110019230Y-76269247D01*
X110147279Y-76352403D01*
X110483535Y-76523734D01*
X110486558Y-76524894D01*
X110486566Y-76524898D01*
X110832834Y-76657818D01*
X110832841Y-76657820D01*
X110835857Y-76658978D01*
X111200387Y-76756653D01*
X111573129Y-76815690D01*
X111576361Y-76815859D01*
X111576367Y-76815860D01*
X111946756Y-76835271D01*
X111950000Y-76835441D01*
X111953244Y-76835271D01*
X112323633Y-76815860D01*
X112323639Y-76815859D01*
X112326871Y-76815690D01*
X112699613Y-76756653D01*
X113064143Y-76658978D01*
X113067159Y-76657820D01*
X113067166Y-76657818D01*
X113413434Y-76524898D01*
X113413442Y-76524894D01*
X113416465Y-76523734D01*
X113752721Y-76352403D01*
X113880770Y-76269247D01*
X114066497Y-76148635D01*
X114066502Y-76148631D01*
X114069225Y-76146863D01*
X114071745Y-76144822D01*
X114071751Y-76144818D01*
X114359992Y-75911405D01*
X114359994Y-75911403D01*
X114362511Y-75909365D01*
X114428475Y-75843401D01*
X114548980Y-75722897D01*
X114610303Y-75689412D01*
X114679995Y-75694396D01*
X114724342Y-75722897D01*
X114844846Y-75843401D01*
X114878331Y-75904724D01*
X114873347Y-75974416D01*
X114844847Y-76018761D01*
X114806950Y-76056658D01*
X114749354Y-76169696D01*
X114734500Y-76263481D01*
X114734501Y-77176518D01*
X114749354Y-77270304D01*
X114806950Y-77383342D01*
X114896658Y-77473050D01*
X114900307Y-77474909D01*
X114941052Y-77527749D01*
X114949500Y-77572736D01*
X114949500Y-82528120D01*
X114929815Y-82595159D01*
X114913181Y-82615801D01*
X113966501Y-83562481D01*
X113905178Y-83595966D01*
X113878820Y-83598800D01*
X113829330Y-83598800D01*
X113665589Y-83613846D01*
X113453236Y-83673735D01*
X113287528Y-83755453D01*
X113218697Y-83767449D01*
X113154306Y-83740328D01*
X113114800Y-83682700D01*
X113108685Y-83644241D01*
X113108685Y-83235053D01*
X113128370Y-83168014D01*
X113181174Y-83122259D01*
X113234632Y-83111068D01*
X113274475Y-83111694D01*
X113274478Y-83111694D01*
X113281945Y-83111811D01*
X113404394Y-83083767D01*
X113439923Y-83075630D01*
X113439924Y-83075630D01*
X113447214Y-83073960D01*
X113548539Y-83022999D01*
X113592005Y-83001138D01*
X113592007Y-83001137D01*
X113598683Y-82997779D01*
X113604365Y-82992926D01*
X113604368Y-82992924D01*
X113721926Y-82892519D01*
X113727608Y-82887666D01*
X113826546Y-82749979D01*
X113889786Y-82592666D01*
X113891663Y-82579482D01*
X113898179Y-82533690D01*
X113927112Y-82470093D01*
X113933261Y-82463480D01*
X114322967Y-82073774D01*
X114326715Y-82070179D01*
X114366235Y-82033839D01*
X114366237Y-82033837D01*
X114372456Y-82028118D01*
X114395436Y-81991055D01*
X114402053Y-81981427D01*
X114423302Y-81953433D01*
X114423304Y-81953430D01*
X114428412Y-81946700D01*
X114431523Y-81938842D01*
X114431526Y-81938837D01*
X114434010Y-81932562D01*
X114443918Y-81912861D01*
X114447480Y-81907116D01*
X114451935Y-81899931D01*
X114464100Y-81858059D01*
X114467884Y-81847008D01*
X114480824Y-81814325D01*
X114480825Y-81814322D01*
X114483936Y-81806464D01*
X114485526Y-81791335D01*
X114489771Y-81769701D01*
X114492201Y-81761336D01*
X114494015Y-81755092D01*
X114494800Y-81744402D01*
X114494800Y-81709595D01*
X114495479Y-81696634D01*
X114498818Y-81664869D01*
X114498818Y-81664866D01*
X114499701Y-81656463D01*
X114496536Y-81637750D01*
X114494800Y-81617071D01*
X114494800Y-80322257D01*
X114494909Y-80317064D01*
X114497156Y-80263454D01*
X114497156Y-80263453D01*
X114497510Y-80255006D01*
X114495579Y-80246775D01*
X114495579Y-80246771D01*
X114487553Y-80212553D01*
X114485423Y-80201064D01*
X114480653Y-80166240D01*
X114480653Y-80166239D01*
X114479506Y-80157868D01*
X114473466Y-80143910D01*
X114466542Y-80122975D01*
X114464999Y-80116394D01*
X114464997Y-80116389D01*
X114463068Y-80108164D01*
X114458995Y-80100755D01*
X114442060Y-80069949D01*
X114436921Y-80059459D01*
X114422964Y-80027208D01*
X114419605Y-80019445D01*
X114414281Y-80012870D01*
X114410032Y-80007622D01*
X114397736Y-79989325D01*
X114393537Y-79981686D01*
X114393534Y-79981681D01*
X114390406Y-79975992D01*
X114383402Y-79967878D01*
X114358795Y-79943271D01*
X114350110Y-79933626D01*
X114330005Y-79908799D01*
X114324686Y-79902230D01*
X114317795Y-79897333D01*
X114317793Y-79897331D01*
X114309214Y-79891234D01*
X114293363Y-79877839D01*
X112866890Y-78451366D01*
X112863295Y-78447618D01*
X112826954Y-78408097D01*
X112826952Y-78408095D01*
X112821233Y-78401876D01*
X112792282Y-78383926D01*
X112784170Y-78378896D01*
X112774542Y-78372279D01*
X112746548Y-78351030D01*
X112746545Y-78351028D01*
X112739815Y-78345920D01*
X112731957Y-78342809D01*
X112731952Y-78342806D01*
X112725677Y-78340322D01*
X112705976Y-78330414D01*
X112700231Y-78326852D01*
X112693046Y-78322397D01*
X112654726Y-78311264D01*
X112651174Y-78310232D01*
X112640123Y-78306448D01*
X112607440Y-78293508D01*
X112607437Y-78293507D01*
X112599579Y-78290396D01*
X112584450Y-78288806D01*
X112562816Y-78284561D01*
X112554451Y-78282131D01*
X112548207Y-78280317D01*
X112540708Y-78279766D01*
X112539792Y-78279699D01*
X112539790Y-78279699D01*
X112537517Y-78279532D01*
X112502710Y-78279532D01*
X112489749Y-78278853D01*
X112457984Y-78275514D01*
X112457981Y-78275514D01*
X112449578Y-78274631D01*
X112441248Y-78276040D01*
X112441245Y-78276040D01*
X112430865Y-78277796D01*
X112410186Y-78279532D01*
X107323142Y-78279532D01*
X107317949Y-78279423D01*
X107264339Y-78277176D01*
X107264338Y-78277176D01*
X107255891Y-78276822D01*
X107247660Y-78278753D01*
X107247656Y-78278753D01*
X107213438Y-78286779D01*
X107201953Y-78288908D01*
X107184097Y-78291354D01*
X107167125Y-78293679D01*
X107167124Y-78293679D01*
X107158753Y-78294826D01*
X107150995Y-78298183D01*
X107150996Y-78298183D01*
X107144796Y-78300866D01*
X107123860Y-78307790D01*
X107117279Y-78309333D01*
X107117274Y-78309335D01*
X107109049Y-78311264D01*
X107101641Y-78315337D01*
X107101640Y-78315337D01*
X107070834Y-78332272D01*
X107060344Y-78337411D01*
X107047878Y-78342806D01*
X107020330Y-78354727D01*
X107013756Y-78360050D01*
X107013755Y-78360051D01*
X107008507Y-78364300D01*
X106990210Y-78376596D01*
X106976877Y-78383926D01*
X106968763Y-78390929D01*
X106944151Y-78415541D01*
X106934506Y-78424226D01*
X106903115Y-78449646D01*
X106898219Y-78456536D01*
X106892121Y-78465116D01*
X106878726Y-78480966D01*
X106212660Y-79147033D01*
X105615426Y-79744267D01*
X105554103Y-79777752D01*
X105484411Y-79772768D01*
X105444292Y-79748301D01*
X105383316Y-79692817D01*
X105324407Y-79639214D01*
X105135310Y-79520593D01*
X105047431Y-79485266D01*
X104992572Y-79441998D01*
X104969814Y-79375939D01*
X104986383Y-79308062D01*
X105040299Y-79258294D01*
X105199448Y-79182384D01*
X105199450Y-79182383D01*
X105204429Y-79180008D01*
X105312542Y-79102321D01*
X105381220Y-79052971D01*
X105381221Y-79052970D01*
X105385705Y-79049748D01*
X105541049Y-78889446D01*
X105616985Y-78776441D01*
X105662473Y-78708748D01*
X105662476Y-78708743D01*
X105665550Y-78704168D01*
X105755274Y-78499771D01*
X105807385Y-78282715D01*
X105820234Y-78059862D01*
X105806826Y-77949059D01*
X105794081Y-77843740D01*
X105794080Y-77843736D01*
X105793417Y-77838256D01*
X105760297Y-77730596D01*
X105729406Y-77630181D01*
X105729404Y-77630177D01*
X105727781Y-77624900D01*
X105713631Y-77597484D01*
X105627933Y-77431450D01*
X105627932Y-77431448D01*
X105625399Y-77426541D01*
X105538842Y-77313737D01*
X105512166Y-77278972D01*
X107395000Y-77278972D01*
X107395363Y-77285669D01*
X107400803Y-77335744D01*
X107404371Y-77350753D01*
X107448817Y-77469311D01*
X107457212Y-77484646D01*
X107532516Y-77585124D01*
X107544876Y-77597484D01*
X107645354Y-77672788D01*
X107660689Y-77681183D01*
X107779247Y-77725629D01*
X107794256Y-77729197D01*
X107844331Y-77734637D01*
X107851028Y-77735000D01*
X108052170Y-77735000D01*
X108067169Y-77730596D01*
X108068356Y-77729226D01*
X108070000Y-77721668D01*
X108070000Y-77717170D01*
X108570000Y-77717170D01*
X108574404Y-77732169D01*
X108575774Y-77733356D01*
X108583332Y-77735000D01*
X108788972Y-77735000D01*
X108795669Y-77734637D01*
X108845744Y-77729197D01*
X108860753Y-77725629D01*
X108979311Y-77681183D01*
X108994646Y-77672788D01*
X109095124Y-77597484D01*
X109107484Y-77585124D01*
X109182788Y-77484646D01*
X109191183Y-77469311D01*
X109235629Y-77350753D01*
X109239197Y-77335744D01*
X109244637Y-77285669D01*
X109245000Y-77278972D01*
X109245000Y-77077830D01*
X109240596Y-77062831D01*
X109239226Y-77061644D01*
X109231668Y-77060000D01*
X108587830Y-77060000D01*
X108572831Y-77064404D01*
X108571644Y-77065774D01*
X108570000Y-77073332D01*
X108570000Y-77717170D01*
X108070000Y-77717170D01*
X108070000Y-77077830D01*
X108065596Y-77062831D01*
X108064226Y-77061644D01*
X108056668Y-77060000D01*
X107412830Y-77060000D01*
X107397831Y-77064404D01*
X107396644Y-77065774D01*
X107395000Y-77073332D01*
X107395000Y-77278972D01*
X105512166Y-77278972D01*
X105492870Y-77253824D01*
X105492866Y-77253820D01*
X105489510Y-77249446D01*
X105324407Y-77099214D01*
X105135310Y-76980593D01*
X105130193Y-76978536D01*
X105130189Y-76978534D01*
X104933317Y-76899393D01*
X104928195Y-76897334D01*
X104709610Y-76852067D01*
X104652951Y-76848800D01*
X103808670Y-76848800D01*
X103805927Y-76849045D01*
X103805923Y-76849045D01*
X103648461Y-76863098D01*
X103648459Y-76863098D01*
X103642961Y-76863589D01*
X103427649Y-76922492D01*
X103422670Y-76924867D01*
X103422667Y-76924868D01*
X103231152Y-77016216D01*
X103226171Y-77018592D01*
X103198703Y-77038329D01*
X103188613Y-77045580D01*
X103122685Y-77068714D01*
X103054715Y-77052532D01*
X103006283Y-77002172D01*
X102992255Y-76944881D01*
X102992255Y-76542170D01*
X107395000Y-76542170D01*
X107399404Y-76557169D01*
X107400774Y-76558356D01*
X107408332Y-76560000D01*
X108052170Y-76560000D01*
X108067169Y-76555596D01*
X108068356Y-76554226D01*
X108070000Y-76546668D01*
X108070000Y-76542170D01*
X108570000Y-76542170D01*
X108574404Y-76557169D01*
X108575774Y-76558356D01*
X108583332Y-76560000D01*
X109227170Y-76560000D01*
X109242169Y-76555596D01*
X109243356Y-76554226D01*
X109245000Y-76546668D01*
X109245000Y-76341028D01*
X109244637Y-76334331D01*
X109239197Y-76284256D01*
X109235629Y-76269247D01*
X109191183Y-76150689D01*
X109182788Y-76135354D01*
X109107484Y-76034876D01*
X109095124Y-76022516D01*
X108994646Y-75947212D01*
X108979311Y-75938817D01*
X108860753Y-75894371D01*
X108845744Y-75890803D01*
X108795669Y-75885363D01*
X108788972Y-75885000D01*
X108587830Y-75885000D01*
X108572831Y-75889404D01*
X108571644Y-75890774D01*
X108570000Y-75898332D01*
X108570000Y-76542170D01*
X108070000Y-76542170D01*
X108070000Y-75902830D01*
X108065596Y-75887831D01*
X108064226Y-75886644D01*
X108056668Y-75885000D01*
X107851028Y-75885000D01*
X107844331Y-75885363D01*
X107794256Y-75890803D01*
X107779247Y-75894371D01*
X107660689Y-75938817D01*
X107645354Y-75947212D01*
X107544876Y-76022516D01*
X107532516Y-76034876D01*
X107457212Y-76135354D01*
X107448817Y-76150689D01*
X107404371Y-76269247D01*
X107400803Y-76284256D01*
X107395363Y-76334331D01*
X107395000Y-76341028D01*
X107395000Y-76542170D01*
X102992255Y-76542170D01*
X102992255Y-74676099D01*
X103011940Y-74609060D01*
X103026594Y-74590444D01*
X103966220Y-73606871D01*
X108060124Y-69321494D01*
X108075581Y-69308404D01*
X108078468Y-69305692D01*
X108086539Y-69300205D01*
X108094398Y-69290070D01*
X108111350Y-69272202D01*
X108418739Y-69006802D01*
X108426887Y-69000343D01*
X108781390Y-68742766D01*
X108790050Y-68737013D01*
X109164875Y-68510045D01*
X109173986Y-68505037D01*
X109566521Y-68310261D01*
X109576021Y-68306034D01*
X109983485Y-68144830D01*
X109993304Y-68141414D01*
X110039310Y-68127542D01*
X110412842Y-68014911D01*
X110422908Y-68012331D01*
X110851576Y-67921419D01*
X110861822Y-67919691D01*
X110958243Y-67907564D01*
X111296597Y-67865009D01*
X111306959Y-67864145D01*
X111638550Y-67850462D01*
X111744796Y-67846078D01*
X111755186Y-67846086D01*
G37*
G04 #@! TD.AperFunction*
M02*
