M48
; DRILL file {KiCad 6.0.1-79c1e3a40b~116~ubuntu20.04.1} date Tue 18 Jan 2022 04:29:50 PM CET
; FORMAT={-:-/ absolute / metric / decimal}
; #@! TF.CreationDate,2022-01-18T16:29:50+01:00
; #@! TF.GenerationSoftware,Kicad,Pcbnew,6.0.1-79c1e3a40b~116~ubuntu20.04.1
; #@! TF.FileFunction,Plated,1,2,PTH
FMAT,2
METRIC
; #@! TA.AperFunction,Plated,PTH,ViaDrill
T1C0.400
; #@! TA.AperFunction,Plated,PTH,ComponentDrill
T2C0.900
; #@! TA.AperFunction,Plated,PTH,ComponentDrill
T3C1.400
%
G90
G05
T1
X133.325Y-79.855
X133.325Y-122.875
X136.945Y-121.365
X137.145Y-112.075
X137.57Y-106.825
X138.395Y-86.825
X138.895Y-85.825
X139.145Y-122.075
X139.395Y-86.825
X142.015Y-120.275
X143.895Y-121.075
X145.625Y-121.805
X146.395Y-86.825
X146.895Y-85.825
X147.15Y-82.06
X147.395Y-86.825
X152.105Y-80.295
X152.215Y-96.645
X152.235Y-123.125
X152.395Y-91.575
X152.395Y-94.075
T2
X135.2Y-82.66
X135.2Y-85.2
X135.2Y-87.74
X135.2Y-90.28
X135.2Y-92.82
X135.2Y-95.36
X135.2Y-97.9
X135.2Y-100.44
X135.2Y-102.98
X135.2Y-105.52
X135.2Y-108.06
X135.2Y-110.6
X135.2Y-113.14
X135.2Y-115.68
X135.2Y-118.22
X150.44Y-82.66
X150.44Y-85.2
X150.44Y-87.74
X150.44Y-90.28
X150.44Y-92.82
X150.44Y-95.36
X150.44Y-97.9
X150.44Y-100.44
X150.44Y-102.98
X150.44Y-105.52
X150.44Y-108.06
X150.44Y-110.6
X150.44Y-113.14
X150.44Y-115.68
X150.44Y-118.22
T3
X140.135Y-88.675
X140.135Y-90.974
X140.135Y-93.273
X140.135Y-95.572
X140.135Y-97.871
X140.135Y-100.17
X140.135Y-102.47
X140.135Y-104.769
X140.135Y-107.068
X140.135Y-109.367
X140.135Y-111.666
X140.135Y-113.965
X145.715Y-88.665
X145.715Y-90.965
X145.715Y-93.265
X145.715Y-95.565
X145.715Y-97.865
X145.715Y-100.165
X145.715Y-102.465
X145.715Y-104.765
X145.715Y-107.065
X145.715Y-109.365
X145.715Y-111.665
X145.715Y-113.965
T0
M30
