G04 #@! TF.GenerationSoftware,KiCad,Pcbnew,6.0.1-79c1e3a40b~116~ubuntu20.04.1*
G04 #@! TF.CreationDate,2022-01-18T16:29:50+01:00*
G04 #@! TF.ProjectId,Arduino_GPIB_Adapter,41726475-696e-46f5-9f47-5049425f4164,rev?*
G04 #@! TF.SameCoordinates,Original*
G04 #@! TF.FileFunction,Copper,L1,Top*
G04 #@! TF.FilePolarity,Positive*
%FSLAX46Y46*%
G04 Gerber Fmt 4.6, Leading zero omitted, Abs format (unit mm)*
G04 Created by KiCad (PCBNEW 6.0.1-79c1e3a40b~116~ubuntu20.04.1) date 2022-01-18 16:29:50*
%MOMM*%
%LPD*%
G01*
G04 APERTURE LIST*
G04 Aperture macros list*
%AMRoundRect*
0 Rectangle with rounded corners*
0 $1 Rounding radius*
0 $2 $3 $4 $5 $6 $7 $8 $9 X,Y pos of 4 corners*
0 Add a 4 corners polygon primitive as box body*
4,1,4,$2,$3,$4,$5,$6,$7,$8,$9,$2,$3,0*
0 Add four circle primitives for the rounded corners*
1,1,$1+$1,$2,$3*
1,1,$1+$1,$4,$5*
1,1,$1+$1,$6,$7*
1,1,$1+$1,$8,$9*
0 Add four rect primitives between the rounded corners*
20,1,$1+$1,$2,$3,$4,$5,0*
20,1,$1+$1,$4,$5,$6,$7,0*
20,1,$1+$1,$6,$7,$8,$9,0*
20,1,$1+$1,$8,$9,$2,$3,0*%
G04 Aperture macros list end*
G04 #@! TA.AperFunction,ComponentPad*
%ADD10RoundRect,0.425000X-0.625000X-0.425000X0.625000X-0.425000X0.625000X0.425000X-0.625000X0.425000X0*%
G04 #@! TD*
G04 #@! TA.AperFunction,ComponentPad*
%ADD11O,2.100000X1.700000*%
G04 #@! TD*
G04 #@! TA.AperFunction,ComponentPad*
%ADD12RoundRect,0.200000X-1.600000X0.600000X-1.600000X-0.600000X1.600000X-0.600000X1.600000X0.600000X0*%
G04 #@! TD*
G04 #@! TA.AperFunction,ViaPad*
%ADD13C,0.800000*%
G04 #@! TD*
G04 #@! TA.AperFunction,Conductor*
%ADD14C,0.250000*%
G04 #@! TD*
G04 APERTURE END LIST*
D10*
X135200000Y-82660000D03*
D11*
X135200000Y-85200000D03*
X135200000Y-87740000D03*
X135200000Y-90280000D03*
X135200000Y-92820000D03*
X135200000Y-95360000D03*
X135200000Y-97900000D03*
X135200000Y-100440000D03*
X135200000Y-102980000D03*
X135200000Y-105520000D03*
X135200000Y-108060000D03*
X135200000Y-110600000D03*
X135200000Y-113140000D03*
X135200000Y-115680000D03*
X135200000Y-118220000D03*
X150440000Y-118220000D03*
X150440000Y-115680000D03*
X150440000Y-113140000D03*
X150440000Y-110600000D03*
X150440000Y-108060000D03*
X150440000Y-105520000D03*
X150440000Y-102980000D03*
X150440000Y-100440000D03*
X150440000Y-97900000D03*
X150440000Y-95360000D03*
X150440000Y-92820000D03*
X150440000Y-90280000D03*
X150440000Y-87740000D03*
X150440000Y-85200000D03*
X150440000Y-82660000D03*
D12*
X145714999Y-113964999D03*
X145714999Y-111664999D03*
X145714999Y-109364999D03*
X145714999Y-107064999D03*
X145714999Y-104764999D03*
X145714999Y-102464999D03*
X145714999Y-100164999D03*
X145714999Y-97864999D03*
X145714999Y-95564999D03*
X145714999Y-93264999D03*
X145714999Y-90964999D03*
X145714999Y-88664999D03*
X140134999Y-113964999D03*
X140134999Y-111665899D03*
X140134999Y-109366809D03*
X140134999Y-107067719D03*
X140134999Y-104768629D03*
X140134999Y-102469539D03*
X140134999Y-100170449D03*
X140134999Y-97871359D03*
X140134999Y-95572269D03*
X140134999Y-93273179D03*
X140134999Y-90974089D03*
X140134999Y-88674999D03*
D13*
X133324999Y-79854999D03*
X147394999Y-86824999D03*
X136944999Y-121364999D03*
X146394999Y-86824999D03*
X152234999Y-123124999D03*
X146894999Y-85824999D03*
X138894999Y-85824999D03*
X152104999Y-80294999D03*
X139394999Y-86824999D03*
X133324999Y-122874999D03*
X138394999Y-86824999D03*
X139144999Y-122074999D03*
X137569999Y-106824999D03*
X137144999Y-112074999D03*
X145624999Y-121804999D03*
X147149999Y-82059999D03*
X152394999Y-91574999D03*
X152394999Y-94074999D03*
X152214999Y-96644999D03*
X143894999Y-121074999D03*
X142014999Y-120274999D03*
D14*
X148644999Y-113074999D02*
X148644999Y-112395001D01*
X148644999Y-112395001D02*
X150440000Y-110600000D01*
X147744999Y-113974999D02*
X148644999Y-113074999D01*
X146644999Y-113974999D02*
X147744999Y-113974999D01*
X148644999Y-109855001D02*
X150440000Y-108060000D01*
X148644999Y-110824999D02*
X148644999Y-109855001D01*
X147794999Y-111674999D02*
X148644999Y-110824999D01*
X146644999Y-111674999D02*
X147794999Y-111674999D01*
X134144999Y-81074999D02*
X133394999Y-81824999D01*
X148644999Y-91324999D02*
X148644999Y-82324999D01*
X146644999Y-93274999D02*
X146694999Y-93274999D01*
X133394999Y-81824999D02*
X133394999Y-91014999D01*
X148644999Y-82324999D02*
X147394999Y-81074999D01*
X133394999Y-91014999D02*
X135200000Y-92820000D01*
X147394999Y-81074999D02*
X134144999Y-81074999D01*
X146694999Y-93274999D02*
X148644999Y-91324999D01*
X146644999Y-109374999D02*
X147844999Y-109374999D01*
X147844999Y-109374999D02*
X148644999Y-108574999D01*
X148644999Y-107315001D02*
X150440000Y-105520000D01*
X148644999Y-108574999D02*
X148644999Y-107315001D01*
X135999999Y-96179999D02*
X137394999Y-97574999D01*
X135200000Y-95360000D02*
X135999999Y-96159999D01*
X137394999Y-103974999D02*
X137394999Y-97574999D01*
X139144999Y-104774999D02*
X138194999Y-104774999D01*
X138194999Y-104774999D02*
X137394999Y-103974999D01*
X135999999Y-96159999D02*
X135999999Y-96179999D01*
X147894999Y-107074999D02*
X148644999Y-106324999D01*
X146644999Y-107074999D02*
X147894999Y-107074999D01*
X148644999Y-104775001D02*
X150440000Y-102980000D01*
X148644999Y-106324999D02*
X148644999Y-104775001D01*
X135200000Y-97900000D02*
X136679999Y-99379999D01*
X139144999Y-109374999D02*
X138194999Y-109374999D01*
X136679999Y-107859999D02*
X136679999Y-99379999D01*
X138194999Y-109374999D02*
X136679999Y-107859999D01*
X139144999Y-113974999D02*
X139144999Y-122074999D01*
X137819999Y-107074999D02*
X137569999Y-106824999D01*
X139144999Y-107074999D02*
X137819999Y-107074999D01*
X151470000Y-97900000D02*
X152894999Y-99324999D01*
X150440000Y-97900000D02*
X151470000Y-97900000D01*
X139144999Y-111674999D02*
X137544998Y-111675000D01*
X152894999Y-119574999D02*
X150644999Y-121824999D01*
X152894999Y-99324999D02*
X152894999Y-119574999D01*
X150644999Y-121824999D02*
X145894999Y-121824999D01*
X137544998Y-111675000D02*
X137144999Y-112074999D01*
X147594999Y-90974999D02*
X148144999Y-90424999D01*
X148144999Y-83054999D02*
X147149999Y-82059999D01*
X148144999Y-90424999D02*
X148144999Y-83054999D01*
X146644999Y-90974999D02*
X147594999Y-90974999D01*
X147149999Y-82059999D02*
X147144999Y-82054999D01*
X152389999Y-91554999D02*
X149474999Y-91554999D01*
X147644999Y-95574999D02*
X146769519Y-95574999D01*
X149474999Y-91554999D02*
X148384999Y-92644999D01*
X148384999Y-94834999D02*
X147644999Y-95574999D01*
X148384999Y-92644999D02*
X148384999Y-94834999D01*
X147594999Y-97874999D02*
X146644999Y-97874999D01*
X149524999Y-94074999D02*
X148894999Y-94704999D01*
X152394999Y-94074999D02*
X149524999Y-94074999D01*
X148894999Y-96574999D02*
X147594999Y-97874999D01*
X148894999Y-94704999D02*
X148894999Y-96574999D01*
X149644999Y-96634999D02*
X152219989Y-96634999D01*
X149144999Y-98624999D02*
X149144999Y-97264999D01*
X149144999Y-97134999D02*
X149144999Y-97264999D01*
X147594999Y-100174999D02*
X149144999Y-98624999D01*
X146644999Y-100174999D02*
X147594999Y-100174999D01*
X149644999Y-96634999D02*
X149144999Y-97134999D01*
X148644999Y-100074999D02*
X148644999Y-101424999D01*
X148644999Y-101424999D02*
X147594999Y-102474999D01*
X150644999Y-121074999D02*
X152394999Y-119324999D01*
X151644999Y-99164999D02*
X149554999Y-99164999D01*
X152394999Y-119324999D02*
X152394999Y-99914999D01*
X152394999Y-99914999D02*
X151644999Y-99164999D01*
X147594999Y-102474999D02*
X146644999Y-102474999D01*
X149554999Y-99164999D02*
X148644999Y-100074999D01*
X143894999Y-121074999D02*
X150644999Y-121074999D01*
X151894999Y-102374999D02*
X151254999Y-101734999D01*
X147594999Y-104774999D02*
X146644999Y-104774999D01*
X151254999Y-101734999D02*
X149484999Y-101734999D01*
X149484999Y-101734999D02*
X148644999Y-102574999D01*
X148644999Y-103724999D02*
X147594999Y-104774999D01*
X148644999Y-102574999D02*
X148644999Y-103724999D01*
X150694999Y-120274999D02*
X142014999Y-120274999D01*
X151894999Y-119074999D02*
X151894999Y-102374999D01*
X151894999Y-119074999D02*
X150694999Y-120274999D01*
G04 #@! TA.AperFunction,Conductor*
G36*
X151845593Y-78575772D02*
G01*
X151874939Y-78579064D01*
X151874943Y-78579064D01*
X151880969Y-78579740D01*
X151906216Y-78577620D01*
X151909588Y-78577337D01*
X151928073Y-78577167D01*
X152147948Y-78591578D01*
X152164029Y-78593696D01*
X152404664Y-78641561D01*
X152420332Y-78645759D01*
X152652670Y-78724628D01*
X152667655Y-78730835D01*
X152887709Y-78839353D01*
X152901756Y-78847463D01*
X153105764Y-78983778D01*
X153118632Y-78993652D01*
X153210867Y-79074539D01*
X153303107Y-79155432D01*
X153314566Y-79166891D01*
X153395459Y-79259131D01*
X153476346Y-79351366D01*
X153486220Y-79364234D01*
X153622535Y-79568242D01*
X153630645Y-79582289D01*
X153739163Y-79802343D01*
X153745370Y-79817328D01*
X153824239Y-80049666D01*
X153828437Y-80065334D01*
X153876302Y-80305969D01*
X153878420Y-80322050D01*
X153891950Y-80528481D01*
X153891442Y-80550413D01*
X153891022Y-80554160D01*
X153890258Y-80560969D01*
X153892533Y-80588058D01*
X153894564Y-80612249D01*
X153894999Y-80622625D01*
X153894999Y-122511771D01*
X153894226Y-122525593D01*
X153892766Y-122538614D01*
X153890258Y-122560969D01*
X153892210Y-122584220D01*
X153892661Y-122589588D01*
X153892831Y-122608073D01*
X153878420Y-122827948D01*
X153876302Y-122844029D01*
X153828437Y-123084664D01*
X153824239Y-123100332D01*
X153745370Y-123332670D01*
X153739163Y-123347655D01*
X153630645Y-123567709D01*
X153622535Y-123581756D01*
X153486220Y-123785764D01*
X153476346Y-123798632D01*
X153395459Y-123890867D01*
X153314566Y-123983107D01*
X153303107Y-123994566D01*
X153210867Y-124075458D01*
X153118632Y-124156346D01*
X153105764Y-124166220D01*
X152901756Y-124302535D01*
X152887709Y-124310645D01*
X152667655Y-124419163D01*
X152652670Y-124425370D01*
X152420332Y-124504239D01*
X152404664Y-124508437D01*
X152164029Y-124556302D01*
X152147948Y-124558420D01*
X151941517Y-124571950D01*
X151919585Y-124571442D01*
X151915059Y-124570934D01*
X151915055Y-124570934D01*
X151909029Y-124570258D01*
X151861777Y-124574226D01*
X151857749Y-124574564D01*
X151847373Y-124574999D01*
X133958227Y-124574999D01*
X133944405Y-124574226D01*
X133915059Y-124570934D01*
X133915055Y-124570934D01*
X133909029Y-124570258D01*
X133883782Y-124572378D01*
X133880410Y-124572661D01*
X133861925Y-124572831D01*
X133642050Y-124558420D01*
X133625969Y-124556302D01*
X133385334Y-124508437D01*
X133369666Y-124504239D01*
X133137328Y-124425370D01*
X133122343Y-124419163D01*
X132902289Y-124310645D01*
X132888242Y-124302535D01*
X132684234Y-124166220D01*
X132671366Y-124156346D01*
X132579131Y-124075458D01*
X132486891Y-123994566D01*
X132475432Y-123983107D01*
X132394540Y-123890867D01*
X132313652Y-123798632D01*
X132303778Y-123785764D01*
X132167463Y-123581756D01*
X132159353Y-123567709D01*
X132050835Y-123347655D01*
X132044628Y-123332670D01*
X131965759Y-123100332D01*
X131961561Y-123084664D01*
X131913696Y-122844029D01*
X131911578Y-122827948D01*
X131898048Y-122621517D01*
X131898556Y-122599585D01*
X131899064Y-122595059D01*
X131899064Y-122595055D01*
X131899740Y-122589029D01*
X131895434Y-122537749D01*
X131894999Y-122527373D01*
X131894999Y-81841661D01*
X132864820Y-81841661D01*
X132866230Y-81849997D01*
X132866230Y-81850001D01*
X132867762Y-81859061D01*
X132869499Y-81879740D01*
X132869499Y-91000601D01*
X132869390Y-91005792D01*
X132866912Y-91064918D01*
X132868843Y-91073150D01*
X132868843Y-91073152D01*
X132876356Y-91105183D01*
X132878485Y-91116666D01*
X132884098Y-91157645D01*
X132887453Y-91165397D01*
X132887454Y-91165402D01*
X132889665Y-91170511D01*
X132896586Y-91191439D01*
X132897857Y-91196859D01*
X132897860Y-91196866D01*
X132899789Y-91205092D01*
X132903859Y-91212496D01*
X132903862Y-91212503D01*
X132919718Y-91241345D01*
X132924857Y-91251835D01*
X132937921Y-91282024D01*
X132937923Y-91282028D01*
X132941279Y-91289782D01*
X132946595Y-91296347D01*
X132946601Y-91296357D01*
X132950105Y-91300684D01*
X132962392Y-91318968D01*
X132966019Y-91325564D01*
X132969152Y-91331262D01*
X132975835Y-91339004D01*
X132999120Y-91362289D01*
X133007805Y-91371935D01*
X133031887Y-91401674D01*
X133038775Y-91406569D01*
X133038777Y-91406571D01*
X133046275Y-91411899D01*
X133062125Y-91425294D01*
X133825248Y-92188417D01*
X133858733Y-92249740D01*
X133851109Y-92325939D01*
X133827484Y-92379759D01*
X133810026Y-92419529D01*
X133757915Y-92636585D01*
X133745066Y-92859438D01*
X133745730Y-92864922D01*
X133764881Y-93023179D01*
X133771883Y-93081044D01*
X133773508Y-93086326D01*
X133835620Y-93288226D01*
X133837519Y-93294400D01*
X133840052Y-93299307D01*
X133840053Y-93299310D01*
X133937367Y-93487850D01*
X133939901Y-93492759D01*
X133973473Y-93536511D01*
X134072430Y-93665476D01*
X134072434Y-93665480D01*
X134075790Y-93669854D01*
X134240893Y-93820086D01*
X134429990Y-93938707D01*
X134517869Y-93974034D01*
X134572728Y-94017302D01*
X134595486Y-94083361D01*
X134578917Y-94151238D01*
X134525001Y-94201006D01*
X134440538Y-94241293D01*
X134360871Y-94279292D01*
X134356388Y-94282514D01*
X134356387Y-94282514D01*
X134207452Y-94389535D01*
X134179595Y-94409552D01*
X134024251Y-94569854D01*
X134021173Y-94574434D01*
X134021171Y-94574437D01*
X133902827Y-94750552D01*
X133902824Y-94750557D01*
X133899750Y-94755132D01*
X133810026Y-94959529D01*
X133757915Y-95176585D01*
X133757597Y-95182100D01*
X133749679Y-95319438D01*
X133745066Y-95399438D01*
X133745730Y-95404922D01*
X133761822Y-95537900D01*
X133771883Y-95621044D01*
X133773508Y-95626326D01*
X133830340Y-95811063D01*
X133837519Y-95834400D01*
X133840052Y-95839307D01*
X133840053Y-95839310D01*
X133931866Y-96017192D01*
X133939901Y-96032759D01*
X133988927Y-96096651D01*
X134072430Y-96205476D01*
X134072434Y-96205480D01*
X134075790Y-96209854D01*
X134240893Y-96360086D01*
X134429990Y-96478707D01*
X134517869Y-96514034D01*
X134572728Y-96557302D01*
X134595486Y-96623361D01*
X134578917Y-96691238D01*
X134525001Y-96741006D01*
X134379235Y-96810533D01*
X134360871Y-96819292D01*
X134356388Y-96822514D01*
X134356387Y-96822514D01*
X134336622Y-96836717D01*
X134179595Y-96949552D01*
X134024251Y-97109854D01*
X134021173Y-97114434D01*
X134021171Y-97114437D01*
X133902827Y-97290552D01*
X133902824Y-97290557D01*
X133899750Y-97295132D01*
X133810026Y-97499529D01*
X133757915Y-97716585D01*
X133745066Y-97939438D01*
X133771883Y-98161044D01*
X133773508Y-98166326D01*
X133831849Y-98355968D01*
X133837519Y-98374400D01*
X133840052Y-98379307D01*
X133840053Y-98379310D01*
X133937367Y-98567850D01*
X133939901Y-98572759D01*
X133983263Y-98629270D01*
X134072430Y-98745476D01*
X134072434Y-98745480D01*
X134075790Y-98749854D01*
X134240893Y-98900086D01*
X134429990Y-99018707D01*
X134517869Y-99054034D01*
X134572728Y-99097302D01*
X134595486Y-99163361D01*
X134578917Y-99231238D01*
X134525001Y-99281006D01*
X134402582Y-99339397D01*
X134360871Y-99359292D01*
X134179595Y-99489552D01*
X134024251Y-99649854D01*
X134021173Y-99654434D01*
X134021171Y-99654437D01*
X133902827Y-99830552D01*
X133902824Y-99830557D01*
X133899750Y-99835132D01*
X133810026Y-100039529D01*
X133757915Y-100256585D01*
X133745066Y-100479438D01*
X133771883Y-100701044D01*
X133837519Y-100914400D01*
X133840052Y-100919307D01*
X133840053Y-100919310D01*
X133916716Y-101067840D01*
X133939901Y-101112759D01*
X133981791Y-101167351D01*
X134072430Y-101285476D01*
X134072434Y-101285480D01*
X134075790Y-101289854D01*
X134240893Y-101440086D01*
X134429990Y-101558707D01*
X134517869Y-101594034D01*
X134572728Y-101637302D01*
X134595486Y-101703361D01*
X134578917Y-101771238D01*
X134525001Y-101821006D01*
X134440538Y-101861293D01*
X134360871Y-101899292D01*
X134179595Y-102029552D01*
X134024251Y-102189854D01*
X134021173Y-102194434D01*
X134021171Y-102194437D01*
X133902827Y-102370552D01*
X133902824Y-102370557D01*
X133899750Y-102375132D01*
X133810026Y-102579529D01*
X133757915Y-102796585D01*
X133745066Y-103019438D01*
X133745730Y-103024922D01*
X133769550Y-103221761D01*
X133771883Y-103241044D01*
X133773508Y-103246326D01*
X133808581Y-103360333D01*
X133837519Y-103454400D01*
X133840052Y-103459307D01*
X133840053Y-103459310D01*
X133881034Y-103538708D01*
X133939901Y-103652759D01*
X133970400Y-103692506D01*
X134072430Y-103825476D01*
X134072434Y-103825480D01*
X134075790Y-103829854D01*
X134240893Y-103980086D01*
X134429990Y-104098707D01*
X134517869Y-104134034D01*
X134572728Y-104177302D01*
X134595486Y-104243361D01*
X134578917Y-104311238D01*
X134525001Y-104361006D01*
X134440538Y-104401293D01*
X134360871Y-104439292D01*
X134356388Y-104442514D01*
X134356387Y-104442514D01*
X134274521Y-104501341D01*
X134179595Y-104569552D01*
X134024251Y-104729854D01*
X134021173Y-104734434D01*
X134021171Y-104734437D01*
X133902827Y-104910552D01*
X133902824Y-104910557D01*
X133899750Y-104915132D01*
X133810026Y-105119529D01*
X133757915Y-105336585D01*
X133745066Y-105559438D01*
X133771883Y-105781044D01*
X133773508Y-105786326D01*
X133824805Y-105953071D01*
X133837519Y-105994400D01*
X133840052Y-105999307D01*
X133840053Y-105999310D01*
X133937367Y-106187850D01*
X133939901Y-106192759D01*
X133964550Y-106224882D01*
X134072430Y-106365476D01*
X134072434Y-106365480D01*
X134075790Y-106369854D01*
X134240893Y-106520086D01*
X134429990Y-106638707D01*
X134517869Y-106674034D01*
X134572728Y-106717302D01*
X134595486Y-106783361D01*
X134578917Y-106851238D01*
X134525001Y-106901006D01*
X134440538Y-106941293D01*
X134360871Y-106979292D01*
X134356388Y-106982514D01*
X134356387Y-106982514D01*
X134274521Y-107041341D01*
X134179595Y-107109552D01*
X134024251Y-107269854D01*
X134021173Y-107274434D01*
X134021171Y-107274437D01*
X133902827Y-107450552D01*
X133902824Y-107450557D01*
X133899750Y-107455132D01*
X133810026Y-107659529D01*
X133757915Y-107876585D01*
X133757597Y-107882100D01*
X133752654Y-107967840D01*
X133745066Y-108099438D01*
X133754248Y-108175316D01*
X133770059Y-108305967D01*
X133771883Y-108321044D01*
X133781013Y-108350723D01*
X133825324Y-108494758D01*
X133837519Y-108534400D01*
X133840052Y-108539307D01*
X133840053Y-108539310D01*
X133904859Y-108664868D01*
X133939901Y-108732759D01*
X134004278Y-108816657D01*
X134072430Y-108905476D01*
X134072434Y-108905480D01*
X134075790Y-108909854D01*
X134240893Y-109060086D01*
X134429990Y-109178707D01*
X134517869Y-109214034D01*
X134572728Y-109257302D01*
X134595486Y-109323361D01*
X134578917Y-109391238D01*
X134525001Y-109441006D01*
X134440538Y-109481293D01*
X134360871Y-109519292D01*
X134356388Y-109522514D01*
X134356387Y-109522514D01*
X134243497Y-109603634D01*
X134179595Y-109649552D01*
X134024251Y-109809854D01*
X134021173Y-109814434D01*
X134021171Y-109814437D01*
X133902827Y-109990552D01*
X133902824Y-109990557D01*
X133899750Y-109995132D01*
X133810026Y-110199529D01*
X133757915Y-110416585D01*
X133757597Y-110422100D01*
X133746491Y-110614730D01*
X133745066Y-110639438D01*
X133745730Y-110644922D01*
X133761822Y-110777900D01*
X133771883Y-110861044D01*
X133773508Y-110866326D01*
X133816331Y-111005525D01*
X133837519Y-111074400D01*
X133840052Y-111079307D01*
X133840053Y-111079310D01*
X133927716Y-111249151D01*
X133939901Y-111272759D01*
X133978646Y-111323253D01*
X134072430Y-111445476D01*
X134072434Y-111445480D01*
X134075790Y-111449854D01*
X134240893Y-111600086D01*
X134429990Y-111718707D01*
X134517869Y-111754034D01*
X134572728Y-111797302D01*
X134595486Y-111863361D01*
X134578917Y-111931238D01*
X134525001Y-111981006D01*
X134440538Y-112021293D01*
X134360871Y-112059292D01*
X134356388Y-112062514D01*
X134356387Y-112062514D01*
X134206514Y-112170209D01*
X134179595Y-112189552D01*
X134024251Y-112349854D01*
X134021173Y-112354434D01*
X134021171Y-112354437D01*
X133902827Y-112530552D01*
X133902824Y-112530557D01*
X133899750Y-112535132D01*
X133810026Y-112739529D01*
X133757915Y-112956585D01*
X133745066Y-113179438D01*
X133758474Y-113290241D01*
X133761822Y-113317900D01*
X133771883Y-113401044D01*
X133773508Y-113406326D01*
X133816331Y-113545525D01*
X133837519Y-113614400D01*
X133939901Y-113812759D01*
X134004278Y-113896657D01*
X134072430Y-113985476D01*
X134072434Y-113985480D01*
X134075790Y-113989854D01*
X134240893Y-114140086D01*
X134429990Y-114258707D01*
X134517869Y-114294034D01*
X134572728Y-114337302D01*
X134595486Y-114403361D01*
X134578917Y-114471238D01*
X134525001Y-114521006D01*
X134440538Y-114561293D01*
X134360871Y-114599292D01*
X134356388Y-114602514D01*
X134356387Y-114602514D01*
X134201653Y-114713702D01*
X134179595Y-114729552D01*
X134024251Y-114889854D01*
X134021173Y-114894434D01*
X134021171Y-114894437D01*
X133902827Y-115070552D01*
X133902824Y-115070557D01*
X133899750Y-115075132D01*
X133810026Y-115279529D01*
X133757915Y-115496585D01*
X133745066Y-115719438D01*
X133745730Y-115724922D01*
X133761822Y-115857900D01*
X133771883Y-115941044D01*
X133773508Y-115946326D01*
X133828896Y-116126369D01*
X133837519Y-116154400D01*
X133840052Y-116159307D01*
X133840053Y-116159310D01*
X133937367Y-116347850D01*
X133939901Y-116352759D01*
X133985938Y-116412756D01*
X134072430Y-116525476D01*
X134072434Y-116525480D01*
X134075790Y-116529854D01*
X134240893Y-116680086D01*
X134429990Y-116798707D01*
X134517869Y-116834034D01*
X134572728Y-116877302D01*
X134595486Y-116943361D01*
X134578917Y-117011238D01*
X134525001Y-117061006D01*
X134440538Y-117101293D01*
X134360871Y-117139292D01*
X134356388Y-117142514D01*
X134356387Y-117142514D01*
X134243497Y-117223634D01*
X134179595Y-117269552D01*
X134024251Y-117429854D01*
X134021173Y-117434434D01*
X134021171Y-117434437D01*
X133902827Y-117610552D01*
X133902824Y-117610557D01*
X133899750Y-117615132D01*
X133810026Y-117819529D01*
X133757915Y-118036585D01*
X133745066Y-118259438D01*
X133745730Y-118264922D01*
X133761822Y-118397900D01*
X133771883Y-118481044D01*
X133773508Y-118486326D01*
X133816331Y-118625525D01*
X133837519Y-118694400D01*
X133939901Y-118892759D01*
X134004278Y-118976657D01*
X134072430Y-119065476D01*
X134072434Y-119065480D01*
X134075790Y-119069854D01*
X134240893Y-119220086D01*
X134429990Y-119338707D01*
X134435107Y-119340764D01*
X134435111Y-119340766D01*
X134568611Y-119394432D01*
X134637105Y-119421966D01*
X134855690Y-119467233D01*
X134912349Y-119470500D01*
X135456630Y-119470500D01*
X135459373Y-119470255D01*
X135459377Y-119470255D01*
X135616839Y-119456202D01*
X135616841Y-119456202D01*
X135622339Y-119455711D01*
X135837651Y-119396808D01*
X135842630Y-119394433D01*
X135842633Y-119394432D01*
X136034148Y-119303084D01*
X136034150Y-119303083D01*
X136039129Y-119300708D01*
X136147242Y-119223021D01*
X136215920Y-119173671D01*
X136215921Y-119173670D01*
X136220405Y-119170448D01*
X136375749Y-119010146D01*
X136451685Y-118897141D01*
X136497173Y-118829448D01*
X136497176Y-118829443D01*
X136500250Y-118824868D01*
X136589974Y-118620471D01*
X136642085Y-118403415D01*
X136654934Y-118180562D01*
X136641526Y-118069759D01*
X136628781Y-117964440D01*
X136628780Y-117964436D01*
X136628117Y-117958956D01*
X136617095Y-117923129D01*
X136564106Y-117750881D01*
X136564104Y-117750877D01*
X136562481Y-117745600D01*
X136460099Y-117547241D01*
X136373542Y-117434437D01*
X136327570Y-117374524D01*
X136327566Y-117374520D01*
X136324210Y-117370146D01*
X136159107Y-117219914D01*
X135970010Y-117101293D01*
X135882131Y-117065966D01*
X135827272Y-117022698D01*
X135804514Y-116956639D01*
X135821083Y-116888762D01*
X135874999Y-116838994D01*
X136034148Y-116763084D01*
X136034150Y-116763083D01*
X136039129Y-116760708D01*
X136072680Y-116736599D01*
X136215920Y-116633671D01*
X136215921Y-116633670D01*
X136220405Y-116630448D01*
X136375749Y-116470146D01*
X136412837Y-116414953D01*
X136497173Y-116289448D01*
X136497176Y-116289443D01*
X136500250Y-116284868D01*
X136589974Y-116080471D01*
X136642085Y-115863415D01*
X136644585Y-115820058D01*
X136654616Y-115646079D01*
X136654616Y-115646078D01*
X136654934Y-115640562D01*
X136641526Y-115529759D01*
X136628781Y-115424440D01*
X136628780Y-115424436D01*
X136628117Y-115418956D01*
X136617095Y-115383129D01*
X136564106Y-115210881D01*
X136564104Y-115210877D01*
X136562481Y-115205600D01*
X136532201Y-115146933D01*
X136462633Y-115012150D01*
X136462632Y-115012148D01*
X136460099Y-115007241D01*
X136373542Y-114894437D01*
X136327570Y-114834524D01*
X136327566Y-114834520D01*
X136324210Y-114830146D01*
X136159107Y-114679914D01*
X135970010Y-114561293D01*
X135882131Y-114525966D01*
X135827272Y-114482698D01*
X135804514Y-114416639D01*
X135821083Y-114348762D01*
X135874999Y-114298994D01*
X136034148Y-114223084D01*
X136034150Y-114223083D01*
X136039129Y-114220708D01*
X136043613Y-114217486D01*
X136215920Y-114093671D01*
X136215921Y-114093670D01*
X136220405Y-114090448D01*
X136375749Y-113930146D01*
X136451685Y-113817141D01*
X136497173Y-113749448D01*
X136497176Y-113749443D01*
X136500250Y-113744868D01*
X136589974Y-113540471D01*
X136642085Y-113323415D01*
X136654934Y-113100562D01*
X136634567Y-112932259D01*
X136646055Y-112863341D01*
X136692980Y-112811574D01*
X136760443Y-112793394D01*
X136800892Y-112801140D01*
X136875817Y-112829004D01*
X136950115Y-112856635D01*
X137128129Y-112880387D01*
X137135030Y-112879759D01*
X137135032Y-112879759D01*
X137242743Y-112869957D01*
X137306980Y-112864111D01*
X137477781Y-112808614D01*
X137632043Y-112716656D01*
X137637065Y-112711874D01*
X137757079Y-112597586D01*
X137757081Y-112597584D01*
X137762098Y-112592806D01*
X137786933Y-112555426D01*
X137792440Y-112547138D01*
X137845935Y-112502193D01*
X137915237Y-112493304D01*
X137978343Y-112523294D01*
X138001154Y-112555426D01*
X138003289Y-112554193D01*
X138007353Y-112561232D01*
X138010463Y-112568740D01*
X138106717Y-112694181D01*
X138136553Y-112717075D01*
X138177754Y-112773500D01*
X138181909Y-112843246D01*
X138147697Y-112904167D01*
X138136565Y-112913814D01*
X138106717Y-112936717D01*
X138010463Y-113062158D01*
X138007353Y-113069666D01*
X137994556Y-113100562D01*
X137949955Y-113208237D01*
X137948894Y-113216296D01*
X137935518Y-113317900D01*
X137934499Y-113325638D01*
X137934500Y-114604359D01*
X137949955Y-114721761D01*
X138010463Y-114867840D01*
X138106717Y-114993281D01*
X138232158Y-115089535D01*
X138239666Y-115092645D01*
X138370728Y-115146933D01*
X138370730Y-115146934D01*
X138378237Y-115150043D01*
X138386296Y-115151104D01*
X138491617Y-115164970D01*
X138491623Y-115164970D01*
X138495638Y-115165499D01*
X138499689Y-115165499D01*
X138503611Y-115165756D01*
X138569219Y-115189784D01*
X138611422Y-115245468D01*
X138619499Y-115289490D01*
X138619499Y-121417013D01*
X138599814Y-121484052D01*
X138582258Y-121505607D01*
X138520731Y-121565858D01*
X138496972Y-121602725D01*
X138434610Y-121699492D01*
X138423445Y-121716816D01*
X138421075Y-121723328D01*
X138370614Y-121861969D01*
X138362021Y-121885577D01*
X138339513Y-122063752D01*
X138357038Y-122242485D01*
X138413725Y-122412895D01*
X138417318Y-122418828D01*
X138417319Y-122418830D01*
X138503167Y-122560582D01*
X138506758Y-122566511D01*
X138631513Y-122695698D01*
X138637307Y-122699489D01*
X138637310Y-122699492D01*
X138733212Y-122762248D01*
X138781788Y-122794035D01*
X138950115Y-122856635D01*
X139128129Y-122880387D01*
X139135030Y-122879759D01*
X139135032Y-122879759D01*
X139242743Y-122869957D01*
X139306980Y-122864111D01*
X139477781Y-122808614D01*
X139632043Y-122716656D01*
X139668946Y-122681514D01*
X139757079Y-122597586D01*
X139757081Y-122597584D01*
X139762098Y-122592806D01*
X139861482Y-122443221D01*
X139868139Y-122425698D01*
X139896704Y-122350499D01*
X139925256Y-122275335D01*
X139950250Y-122097492D01*
X139950564Y-122074999D01*
X139930545Y-121896527D01*
X139871484Y-121726926D01*
X139776315Y-121574624D01*
X139706512Y-121504332D01*
X139673242Y-121442892D01*
X139670499Y-121416957D01*
X139670499Y-116414417D01*
X139690184Y-116347378D01*
X139742988Y-116301623D01*
X139812146Y-116291679D01*
X139872754Y-116318229D01*
X139988944Y-116412756D01*
X140222719Y-116554919D01*
X140473675Y-116663924D01*
X140737136Y-116737742D01*
X141008195Y-116774999D01*
X141281803Y-116774999D01*
X141552862Y-116737742D01*
X141816323Y-116663924D01*
X142067279Y-116554919D01*
X142301054Y-116412756D01*
X142513295Y-116240086D01*
X142700046Y-116040124D01*
X142793696Y-115907453D01*
X142848437Y-115864037D01*
X142917962Y-115857108D01*
X142980197Y-115888867D01*
X142996301Y-115907452D01*
X143089952Y-116040124D01*
X143276703Y-116240086D01*
X143488944Y-116412756D01*
X143722719Y-116554919D01*
X143973675Y-116663924D01*
X144237136Y-116737742D01*
X144508195Y-116774999D01*
X144781803Y-116774999D01*
X145052862Y-116737742D01*
X145316323Y-116663924D01*
X145567279Y-116554919D01*
X145801054Y-116412756D01*
X146013295Y-116240086D01*
X146200046Y-116040124D01*
X146273856Y-115935560D01*
X146355387Y-115820058D01*
X146355390Y-115820053D01*
X146357831Y-115816595D01*
X146483708Y-115573663D01*
X146513009Y-115491216D01*
X146573914Y-115319847D01*
X146573916Y-115319841D01*
X146575333Y-115315853D01*
X146586052Y-115264270D01*
X146618964Y-115202637D01*
X146679972Y-115168583D01*
X146707458Y-115165498D01*
X147354359Y-115165498D01*
X147432016Y-115155275D01*
X147463703Y-115151104D01*
X147463705Y-115151104D01*
X147471761Y-115150043D01*
X147617840Y-115089535D01*
X147743281Y-114993281D01*
X147839535Y-114867840D01*
X147853335Y-114834524D01*
X147896933Y-114729270D01*
X147896934Y-114729268D01*
X147900043Y-114721761D01*
X147901104Y-114713702D01*
X147914970Y-114608380D01*
X147914970Y-114608376D01*
X147915499Y-114604360D01*
X147915499Y-114555300D01*
X147935184Y-114488261D01*
X147990250Y-114441500D01*
X148012022Y-114432078D01*
X148012027Y-114432075D01*
X148019782Y-114428719D01*
X148026347Y-114423403D01*
X148026357Y-114423397D01*
X148030684Y-114419893D01*
X148048968Y-114407606D01*
X148055564Y-114403979D01*
X148055566Y-114403977D01*
X148061262Y-114400846D01*
X148069004Y-114394163D01*
X148092289Y-114370878D01*
X148101935Y-114362193D01*
X148125103Y-114343432D01*
X148131674Y-114338111D01*
X148136569Y-114331223D01*
X148136571Y-114331221D01*
X148141899Y-114323723D01*
X148155294Y-114307873D01*
X148879628Y-113583539D01*
X148940951Y-113550054D01*
X149010643Y-113555038D01*
X149066576Y-113596910D01*
X149076766Y-113614789D01*
X149077519Y-113614400D01*
X149179901Y-113812759D01*
X149244278Y-113896657D01*
X149312430Y-113985476D01*
X149312434Y-113985480D01*
X149315790Y-113989854D01*
X149480893Y-114140086D01*
X149669990Y-114258707D01*
X149757869Y-114294034D01*
X149812728Y-114337302D01*
X149835486Y-114403361D01*
X149818917Y-114471238D01*
X149765001Y-114521006D01*
X149680538Y-114561293D01*
X149600871Y-114599292D01*
X149596388Y-114602514D01*
X149596387Y-114602514D01*
X149441653Y-114713702D01*
X149419595Y-114729552D01*
X149264251Y-114889854D01*
X149261173Y-114894434D01*
X149261171Y-114894437D01*
X149142827Y-115070552D01*
X149142824Y-115070557D01*
X149139750Y-115075132D01*
X149050026Y-115279529D01*
X148997915Y-115496585D01*
X148985066Y-115719438D01*
X148985730Y-115724922D01*
X149001822Y-115857900D01*
X149011883Y-115941044D01*
X149013508Y-115946326D01*
X149068896Y-116126369D01*
X149077519Y-116154400D01*
X149080052Y-116159307D01*
X149080053Y-116159310D01*
X149177367Y-116347850D01*
X149179901Y-116352759D01*
X149225938Y-116412756D01*
X149312430Y-116525476D01*
X149312434Y-116525480D01*
X149315790Y-116529854D01*
X149480893Y-116680086D01*
X149669990Y-116798707D01*
X149757869Y-116834034D01*
X149812728Y-116877302D01*
X149835486Y-116943361D01*
X149818917Y-117011238D01*
X149765001Y-117061006D01*
X149680538Y-117101293D01*
X149600871Y-117139292D01*
X149596388Y-117142514D01*
X149596387Y-117142514D01*
X149483497Y-117223634D01*
X149419595Y-117269552D01*
X149264251Y-117429854D01*
X149261173Y-117434434D01*
X149261171Y-117434437D01*
X149142827Y-117610552D01*
X149142824Y-117610557D01*
X149139750Y-117615132D01*
X149050026Y-117819529D01*
X148997915Y-118036585D01*
X148985066Y-118259438D01*
X148985730Y-118264922D01*
X149001822Y-118397900D01*
X149011883Y-118481044D01*
X149013508Y-118486326D01*
X149056331Y-118625525D01*
X149077519Y-118694400D01*
X149179901Y-118892759D01*
X149244278Y-118976657D01*
X149312430Y-119065476D01*
X149312434Y-119065480D01*
X149315790Y-119069854D01*
X149480893Y-119220086D01*
X149669990Y-119338707D01*
X149675107Y-119340764D01*
X149675111Y-119340766D01*
X149808611Y-119394432D01*
X149877105Y-119421966D01*
X150095690Y-119467233D01*
X150152349Y-119470500D01*
X150456967Y-119470500D01*
X150524006Y-119490185D01*
X150569761Y-119542989D01*
X150579705Y-119612147D01*
X150550680Y-119675703D01*
X150544648Y-119682181D01*
X150513649Y-119713180D01*
X150452326Y-119746665D01*
X150425968Y-119749499D01*
X142672981Y-119749499D01*
X142605942Y-119729814D01*
X142584995Y-119712874D01*
X142548082Y-119675703D01*
X142519769Y-119647192D01*
X142368135Y-119550962D01*
X142311140Y-119530667D01*
X142205478Y-119493042D01*
X142205474Y-119493041D01*
X142198950Y-119490718D01*
X142020623Y-119469454D01*
X142013734Y-119470178D01*
X142013731Y-119470178D01*
X141848912Y-119487501D01*
X141848910Y-119487501D01*
X141842016Y-119488226D01*
X141835455Y-119490460D01*
X141835453Y-119490460D01*
X141748717Y-119519988D01*
X141672006Y-119546102D01*
X141666104Y-119549733D01*
X141564652Y-119612147D01*
X141519044Y-119640205D01*
X141390731Y-119765858D01*
X141293445Y-119916816D01*
X141232021Y-120085577D01*
X141209513Y-120263752D01*
X141227038Y-120442485D01*
X141283725Y-120612895D01*
X141376758Y-120766511D01*
X141501513Y-120895698D01*
X141507307Y-120899489D01*
X141507310Y-120899492D01*
X141569275Y-120940040D01*
X141651788Y-120994035D01*
X141820115Y-121056635D01*
X141998129Y-121080387D01*
X142005030Y-121079759D01*
X142005032Y-121079759D01*
X142112743Y-121069957D01*
X142176980Y-121064111D01*
X142347781Y-121008614D01*
X142502043Y-120916656D01*
X142588104Y-120834702D01*
X142650226Y-120802725D01*
X142673616Y-120800499D01*
X142982119Y-120800499D01*
X143049158Y-120820184D01*
X143094913Y-120872988D01*
X143105141Y-120940040D01*
X143096208Y-121010757D01*
X143089513Y-121063752D01*
X143107038Y-121242485D01*
X143163725Y-121412895D01*
X143167318Y-121418828D01*
X143167319Y-121418830D01*
X143197138Y-121468067D01*
X143256758Y-121566511D01*
X143381513Y-121695698D01*
X143387307Y-121699489D01*
X143387310Y-121699492D01*
X143449273Y-121740039D01*
X143531788Y-121794035D01*
X143700115Y-121856635D01*
X143878129Y-121880387D01*
X143885030Y-121879759D01*
X143885032Y-121879759D01*
X143992743Y-121869957D01*
X144056980Y-121864111D01*
X144227781Y-121808614D01*
X144382043Y-121716656D01*
X144468104Y-121634702D01*
X144530226Y-121602725D01*
X144553616Y-121600499D01*
X144703276Y-121600499D01*
X144770315Y-121620184D01*
X144816070Y-121672988D01*
X144826298Y-121740039D01*
X144819513Y-121793752D01*
X144837038Y-121972485D01*
X144893725Y-122142895D01*
X144897318Y-122148828D01*
X144897319Y-122148830D01*
X144978016Y-122282077D01*
X144986758Y-122296511D01*
X145111513Y-122425698D01*
X145117307Y-122429489D01*
X145117310Y-122429492D01*
X145213212Y-122492248D01*
X145261788Y-122524035D01*
X145268283Y-122526450D01*
X145268284Y-122526451D01*
X145284735Y-122532569D01*
X145430115Y-122586635D01*
X145608129Y-122610387D01*
X145615030Y-122609759D01*
X145615032Y-122609759D01*
X145726828Y-122599585D01*
X145786980Y-122594111D01*
X145957781Y-122538614D01*
X146112043Y-122446656D01*
X146177102Y-122384702D01*
X146239224Y-122352725D01*
X146262614Y-122350499D01*
X150630601Y-122350499D01*
X150635793Y-122350608D01*
X150686470Y-122352732D01*
X150694918Y-122353086D01*
X150703150Y-122351155D01*
X150703152Y-122351155D01*
X150735183Y-122343642D01*
X150746666Y-122341513D01*
X150762904Y-122339289D01*
X150779274Y-122337047D01*
X150779276Y-122337046D01*
X150787645Y-122335900D01*
X150795397Y-122332545D01*
X150795402Y-122332544D01*
X150800511Y-122330333D01*
X150821439Y-122323412D01*
X150826859Y-122322141D01*
X150826866Y-122322138D01*
X150835092Y-122320209D01*
X150842496Y-122316139D01*
X150842503Y-122316136D01*
X150871345Y-122300280D01*
X150881835Y-122295141D01*
X150912024Y-122282077D01*
X150912028Y-122282075D01*
X150919782Y-122278719D01*
X150926347Y-122273403D01*
X150926357Y-122273397D01*
X150930684Y-122269893D01*
X150948968Y-122257606D01*
X150955564Y-122253979D01*
X150955566Y-122253977D01*
X150961262Y-122250846D01*
X150969004Y-122244163D01*
X150992289Y-122220878D01*
X151001935Y-122212193D01*
X151025103Y-122193432D01*
X151031674Y-122188111D01*
X151036569Y-122181223D01*
X151036571Y-122181221D01*
X151041899Y-122173723D01*
X151055294Y-122157873D01*
X153256398Y-119956769D01*
X153260147Y-119953174D01*
X153297487Y-119918838D01*
X153303711Y-119913115D01*
X153325507Y-119877962D01*
X153332120Y-119868340D01*
X153352015Y-119842129D01*
X153352015Y-119842128D01*
X153357127Y-119835394D01*
X153362288Y-119822360D01*
X153372191Y-119802669D01*
X153375125Y-119797938D01*
X153375129Y-119797930D01*
X153379581Y-119790749D01*
X153391120Y-119751032D01*
X153394903Y-119739982D01*
X153398929Y-119729814D01*
X153410129Y-119701526D01*
X153411594Y-119687586D01*
X153415840Y-119665945D01*
X153417937Y-119658727D01*
X153419750Y-119652487D01*
X153420499Y-119642287D01*
X153420499Y-119609366D01*
X153421178Y-119596404D01*
X153424295Y-119566743D01*
X153425179Y-119558337D01*
X153422235Y-119540931D01*
X153420499Y-119520252D01*
X153420499Y-99339397D01*
X153420608Y-99334205D01*
X153422732Y-99283528D01*
X153423086Y-99275080D01*
X153413642Y-99234815D01*
X153411512Y-99223325D01*
X153407047Y-99190724D01*
X153407046Y-99190722D01*
X153405900Y-99182353D01*
X153402545Y-99174601D01*
X153402544Y-99174596D01*
X153400333Y-99169487D01*
X153393412Y-99148559D01*
X153392141Y-99143139D01*
X153392138Y-99143132D01*
X153390209Y-99134906D01*
X153386139Y-99127502D01*
X153386136Y-99127495D01*
X153370280Y-99098653D01*
X153365141Y-99088163D01*
X153352077Y-99057974D01*
X153352075Y-99057970D01*
X153348719Y-99050216D01*
X153343403Y-99043651D01*
X153343397Y-99043641D01*
X153339893Y-99039314D01*
X153327606Y-99021030D01*
X153323979Y-99014434D01*
X153323977Y-99014432D01*
X153320846Y-99008736D01*
X153314163Y-99000994D01*
X153290878Y-98977709D01*
X153282193Y-98968063D01*
X153263432Y-98944895D01*
X153258111Y-98938324D01*
X153251223Y-98933429D01*
X153251221Y-98933427D01*
X153243723Y-98928099D01*
X153227873Y-98914704D01*
X151955687Y-97642518D01*
X151922202Y-97581195D01*
X151927186Y-97511503D01*
X151969058Y-97455570D01*
X152034522Y-97431153D01*
X152059768Y-97431926D01*
X152121157Y-97440117D01*
X152198129Y-97450387D01*
X152205030Y-97449759D01*
X152205032Y-97449759D01*
X152312743Y-97439957D01*
X152376980Y-97434111D01*
X152547781Y-97378614D01*
X152702043Y-97286656D01*
X152707065Y-97281874D01*
X152827079Y-97167586D01*
X152827081Y-97167584D01*
X152832098Y-97162806D01*
X152931482Y-97013221D01*
X152995256Y-96845335D01*
X153020250Y-96667492D01*
X153020456Y-96652767D01*
X153020510Y-96648898D01*
X153020510Y-96648891D01*
X153020564Y-96644999D01*
X153000545Y-96466527D01*
X152941484Y-96296926D01*
X152846315Y-96144624D01*
X152719769Y-96017192D01*
X152603542Y-95943432D01*
X152573989Y-95924677D01*
X152568135Y-95920962D01*
X152489693Y-95893030D01*
X152405478Y-95863042D01*
X152405474Y-95863041D01*
X152398950Y-95860718D01*
X152220623Y-95839454D01*
X152213734Y-95840178D01*
X152213731Y-95840178D01*
X152048912Y-95857501D01*
X152048910Y-95857501D01*
X152042016Y-95858226D01*
X152035452Y-95860461D01*
X152035450Y-95860461D01*
X151998624Y-95872997D01*
X151928817Y-95875966D01*
X151868487Y-95840724D01*
X151836787Y-95778459D01*
X151838090Y-95726664D01*
X151882085Y-95543415D01*
X151894934Y-95320562D01*
X151881525Y-95209759D01*
X151868781Y-95104440D01*
X151868780Y-95104436D01*
X151868117Y-95098956D01*
X151810411Y-94911377D01*
X151809513Y-94841513D01*
X151846529Y-94782254D01*
X151909707Y-94752415D01*
X151978987Y-94761469D01*
X151996825Y-94771156D01*
X152031788Y-94794035D01*
X152200115Y-94856635D01*
X152378129Y-94880387D01*
X152385030Y-94879759D01*
X152385032Y-94879759D01*
X152492743Y-94869957D01*
X152556980Y-94864111D01*
X152727781Y-94808614D01*
X152882043Y-94716656D01*
X152912932Y-94687241D01*
X153007079Y-94597586D01*
X153007081Y-94597584D01*
X153012098Y-94592806D01*
X153111482Y-94443221D01*
X153175256Y-94275335D01*
X153200250Y-94097492D01*
X153200564Y-94074999D01*
X153180545Y-93896527D01*
X153121484Y-93726926D01*
X153026315Y-93574624D01*
X152899769Y-93447192D01*
X152781405Y-93372076D01*
X152753989Y-93354677D01*
X152748135Y-93350962D01*
X152728218Y-93343870D01*
X152585478Y-93293042D01*
X152585474Y-93293041D01*
X152578950Y-93290718D01*
X152400623Y-93269454D01*
X152393734Y-93270178D01*
X152393731Y-93270178D01*
X152228912Y-93287501D01*
X152228910Y-93287501D01*
X152222016Y-93288226D01*
X152215455Y-93290460D01*
X152215453Y-93290460D01*
X152141179Y-93315745D01*
X152052006Y-93346102D01*
X152046104Y-93349733D01*
X152009786Y-93372076D01*
X151942373Y-93390438D01*
X151875733Y-93369438D01*
X151831026Y-93315745D01*
X151822445Y-93246404D01*
X151827289Y-93226911D01*
X151827755Y-93225525D01*
X151829974Y-93220471D01*
X151882085Y-93003415D01*
X151894934Y-92780562D01*
X151881525Y-92669759D01*
X151868781Y-92564440D01*
X151868780Y-92564436D01*
X151868117Y-92558956D01*
X151825818Y-92421459D01*
X151824920Y-92351595D01*
X151861936Y-92292336D01*
X151925114Y-92262497D01*
X151994394Y-92271551D01*
X152012236Y-92281240D01*
X152031788Y-92294035D01*
X152200115Y-92356635D01*
X152378129Y-92380387D01*
X152385030Y-92379759D01*
X152385032Y-92379759D01*
X152492743Y-92369957D01*
X152556980Y-92364111D01*
X152727781Y-92308614D01*
X152882043Y-92216656D01*
X152954936Y-92147241D01*
X153007079Y-92097586D01*
X153007081Y-92097584D01*
X153012098Y-92092806D01*
X153111482Y-91943221D01*
X153175256Y-91775335D01*
X153197363Y-91618034D01*
X153199708Y-91601349D01*
X153199708Y-91601348D01*
X153200250Y-91597492D01*
X153200564Y-91574999D01*
X153180545Y-91396527D01*
X153121484Y-91226926D01*
X153026315Y-91074624D01*
X152899769Y-90947192D01*
X152748135Y-90850962D01*
X152689857Y-90830210D01*
X152585478Y-90793042D01*
X152585474Y-90793041D01*
X152578950Y-90790718D01*
X152400623Y-90769454D01*
X152393734Y-90770178D01*
X152393731Y-90770178D01*
X152228912Y-90787501D01*
X152228910Y-90787501D01*
X152222016Y-90788226D01*
X152215455Y-90790460D01*
X152215453Y-90790460D01*
X152197482Y-90796578D01*
X152052006Y-90846102D01*
X152046104Y-90849733D01*
X151986271Y-90886542D01*
X151918857Y-90904904D01*
X151852218Y-90883904D01*
X151807511Y-90830210D01*
X151798930Y-90760869D01*
X151807753Y-90731092D01*
X151829974Y-90680471D01*
X151882085Y-90463415D01*
X151894934Y-90240562D01*
X151881525Y-90129759D01*
X151868781Y-90024440D01*
X151868780Y-90024436D01*
X151868117Y-90018956D01*
X151802481Y-89805600D01*
X151789245Y-89779955D01*
X151702633Y-89612150D01*
X151702632Y-89612148D01*
X151700099Y-89607241D01*
X151635722Y-89523343D01*
X151567570Y-89434524D01*
X151567566Y-89434520D01*
X151564210Y-89430146D01*
X151399107Y-89279914D01*
X151210010Y-89161293D01*
X151122131Y-89125966D01*
X151067272Y-89082698D01*
X151044514Y-89016639D01*
X151061083Y-88948762D01*
X151114999Y-88898994D01*
X151274148Y-88823084D01*
X151274150Y-88823083D01*
X151279129Y-88820708D01*
X151387242Y-88743021D01*
X151455920Y-88693671D01*
X151455921Y-88693670D01*
X151460405Y-88690448D01*
X151615749Y-88530146D01*
X151618829Y-88525563D01*
X151737173Y-88349448D01*
X151737176Y-88349443D01*
X151740250Y-88344868D01*
X151829974Y-88140471D01*
X151882085Y-87923415D01*
X151894934Y-87700562D01*
X151868117Y-87478956D01*
X151836514Y-87376228D01*
X151804106Y-87270881D01*
X151804104Y-87270877D01*
X151802481Y-87265600D01*
X151788393Y-87238304D01*
X151702633Y-87072150D01*
X151702632Y-87072148D01*
X151700099Y-87067241D01*
X151627457Y-86972572D01*
X151567570Y-86894524D01*
X151567566Y-86894520D01*
X151564210Y-86890146D01*
X151399107Y-86739914D01*
X151210010Y-86621293D01*
X151204891Y-86619235D01*
X151204889Y-86619234D01*
X151121502Y-86585713D01*
X151066642Y-86542444D01*
X151043884Y-86476384D01*
X151060454Y-86408508D01*
X151114369Y-86358740D01*
X151273895Y-86282650D01*
X151283357Y-86277054D01*
X151455592Y-86153291D01*
X151463919Y-86146103D01*
X151611516Y-85993795D01*
X151618439Y-85985247D01*
X151736733Y-85809206D01*
X151742028Y-85799573D01*
X151827281Y-85605365D01*
X151830787Y-85594945D01*
X151861423Y-85467336D01*
X151860730Y-85453475D01*
X151851989Y-85450000D01*
X150314000Y-85450000D01*
X150246961Y-85430315D01*
X150201206Y-85377511D01*
X150190000Y-85326000D01*
X150190000Y-85074000D01*
X150209685Y-85006961D01*
X150262489Y-84961206D01*
X150314000Y-84950000D01*
X151851120Y-84950000D01*
X151864881Y-84945959D01*
X151866447Y-84935876D01*
X151866000Y-84933774D01*
X151803641Y-84731071D01*
X151799482Y-84720880D01*
X151702209Y-84532419D01*
X151696312Y-84523128D01*
X151567204Y-84354869D01*
X151559754Y-84346767D01*
X151402886Y-84204029D01*
X151394127Y-84197380D01*
X151214457Y-84084672D01*
X151204661Y-84079681D01*
X151121520Y-84046259D01*
X151066660Y-84002990D01*
X151043902Y-83936930D01*
X151060471Y-83869054D01*
X151114387Y-83819286D01*
X151274148Y-83743084D01*
X151274150Y-83743083D01*
X151279129Y-83740708D01*
X151374525Y-83672159D01*
X151455920Y-83613671D01*
X151455921Y-83613670D01*
X151460405Y-83610448D01*
X151615749Y-83450146D01*
X151664400Y-83377746D01*
X151737173Y-83269448D01*
X151737176Y-83269443D01*
X151740250Y-83264868D01*
X151829974Y-83060471D01*
X151882085Y-82843415D01*
X151894934Y-82620562D01*
X151868117Y-82398956D01*
X151817391Y-82234065D01*
X151804106Y-82190881D01*
X151804104Y-82190877D01*
X151802481Y-82185600D01*
X151703579Y-81993982D01*
X151702633Y-81992150D01*
X151702632Y-81992148D01*
X151700099Y-81987241D01*
X151610580Y-81870577D01*
X151567570Y-81814524D01*
X151567566Y-81814520D01*
X151564210Y-81810146D01*
X151399107Y-81659914D01*
X151210010Y-81541293D01*
X151204893Y-81539236D01*
X151204889Y-81539234D01*
X151008017Y-81460093D01*
X151002895Y-81458034D01*
X150784310Y-81412767D01*
X150727651Y-81409500D01*
X150183370Y-81409500D01*
X150180627Y-81409745D01*
X150180623Y-81409745D01*
X150023161Y-81423798D01*
X150023159Y-81423798D01*
X150017661Y-81424289D01*
X149802349Y-81483192D01*
X149797370Y-81485567D01*
X149797367Y-81485568D01*
X149631667Y-81564603D01*
X149600871Y-81579292D01*
X149596388Y-81582514D01*
X149596387Y-81582514D01*
X149483497Y-81663634D01*
X149419595Y-81709552D01*
X149264251Y-81869854D01*
X149218242Y-81938324D01*
X149216584Y-81940791D01*
X149162855Y-81985456D01*
X149093507Y-81993982D01*
X149030559Y-81963663D01*
X149017298Y-81949669D01*
X149013432Y-81944895D01*
X149008111Y-81938324D01*
X149001223Y-81933429D01*
X149001221Y-81933427D01*
X148993723Y-81928099D01*
X148977873Y-81914704D01*
X147776769Y-80713600D01*
X147773174Y-80709851D01*
X147749140Y-80683714D01*
X147733115Y-80666287D01*
X147697967Y-80644494D01*
X147688351Y-80637887D01*
X147655395Y-80612871D01*
X147642355Y-80607708D01*
X147622669Y-80597808D01*
X147610749Y-80590417D01*
X147571025Y-80578876D01*
X147559989Y-80575098D01*
X147521527Y-80559870D01*
X147513128Y-80558987D01*
X147513119Y-80558985D01*
X147507580Y-80558403D01*
X147485953Y-80554160D01*
X147478731Y-80552062D01*
X147478730Y-80552062D01*
X147472487Y-80550248D01*
X147465288Y-80549719D01*
X147464562Y-80549666D01*
X147464560Y-80549666D01*
X147462287Y-80549499D01*
X147429356Y-80549499D01*
X147416394Y-80548820D01*
X147415449Y-80548721D01*
X147378337Y-80544820D01*
X147370001Y-80546230D01*
X147369997Y-80546230D01*
X147360937Y-80547762D01*
X147340258Y-80549499D01*
X134159397Y-80549499D01*
X134154205Y-80549390D01*
X134103528Y-80547266D01*
X134095080Y-80546912D01*
X134086847Y-80548843D01*
X134054817Y-80556355D01*
X134043332Y-80558484D01*
X134002353Y-80564098D01*
X133994597Y-80567455D01*
X133994595Y-80567455D01*
X133989489Y-80569665D01*
X133968553Y-80576589D01*
X133963139Y-80577859D01*
X133954906Y-80579790D01*
X133927132Y-80595059D01*
X133918668Y-80599712D01*
X133908179Y-80604850D01*
X133877976Y-80617920D01*
X133877971Y-80617923D01*
X133870216Y-80621279D01*
X133863648Y-80626598D01*
X133859322Y-80630101D01*
X133841026Y-80642395D01*
X133834433Y-80646020D01*
X133828736Y-80649152D01*
X133820994Y-80655835D01*
X133797709Y-80679120D01*
X133788063Y-80687805D01*
X133758324Y-80711887D01*
X133753429Y-80718775D01*
X133753427Y-80718777D01*
X133748099Y-80726275D01*
X133734704Y-80742125D01*
X133033600Y-81443229D01*
X133029851Y-81446824D01*
X132986287Y-81486883D01*
X132981832Y-81494068D01*
X132964494Y-81522031D01*
X132957887Y-81531647D01*
X132932871Y-81564603D01*
X132929759Y-81572463D01*
X132927709Y-81577641D01*
X132917808Y-81597329D01*
X132910417Y-81609249D01*
X132908058Y-81617367D01*
X132908058Y-81617368D01*
X132898877Y-81648969D01*
X132895098Y-81660009D01*
X132879870Y-81698471D01*
X132878987Y-81706870D01*
X132878985Y-81706879D01*
X132878403Y-81712418D01*
X132874160Y-81734045D01*
X132870248Y-81747511D01*
X132869499Y-81757711D01*
X132869499Y-81790642D01*
X132868820Y-81803604D01*
X132864820Y-81841661D01*
X131894999Y-81841661D01*
X131894999Y-80638227D01*
X131895772Y-80624405D01*
X131899064Y-80595059D01*
X131899064Y-80595055D01*
X131899740Y-80589029D01*
X131897337Y-80560410D01*
X131897167Y-80541925D01*
X131911578Y-80322050D01*
X131913696Y-80305969D01*
X131961561Y-80065334D01*
X131965759Y-80049666D01*
X132044628Y-79817328D01*
X132050835Y-79802343D01*
X132159353Y-79582289D01*
X132167463Y-79568242D01*
X132303778Y-79364234D01*
X132313652Y-79351366D01*
X132394539Y-79259131D01*
X132475432Y-79166891D01*
X132486891Y-79155432D01*
X132579131Y-79074540D01*
X132671366Y-78993652D01*
X132684234Y-78983778D01*
X132888242Y-78847463D01*
X132902289Y-78839353D01*
X133122343Y-78730835D01*
X133137328Y-78724628D01*
X133369666Y-78645759D01*
X133385334Y-78641561D01*
X133625969Y-78593696D01*
X133642050Y-78591578D01*
X133848481Y-78578048D01*
X133870413Y-78578556D01*
X133874939Y-78579064D01*
X133874943Y-78579064D01*
X133880969Y-78579740D01*
X133932248Y-78575434D01*
X133942625Y-78574999D01*
X151831771Y-78574999D01*
X151845593Y-78575772D01*
G37*
G04 #@! TD.AperFunction*
G04 #@! TA.AperFunction,Conductor*
G36*
X146355270Y-81620184D02*
G01*
X146401025Y-81672988D01*
X146410969Y-81742146D01*
X146404754Y-81766907D01*
X146391397Y-81803604D01*
X146377546Y-81841661D01*
X146367021Y-81870577D01*
X146344513Y-82048752D01*
X146362038Y-82227485D01*
X146418725Y-82397895D01*
X146422318Y-82403828D01*
X146422319Y-82403830D01*
X146508167Y-82545582D01*
X146511758Y-82551511D01*
X146636513Y-82680698D01*
X146642307Y-82684489D01*
X146642310Y-82684492D01*
X146738212Y-82747248D01*
X146786788Y-82779035D01*
X146955115Y-82841635D01*
X146961980Y-82842551D01*
X146975001Y-82844288D01*
X147133129Y-82865387D01*
X147140030Y-82864759D01*
X147140031Y-82864759D01*
X147142245Y-82864557D01*
X147147775Y-82864054D01*
X147216321Y-82877581D01*
X147246694Y-82899863D01*
X147583180Y-83236350D01*
X147616665Y-83297673D01*
X147619499Y-83324031D01*
X147619499Y-87359563D01*
X147599814Y-87426602D01*
X147547010Y-87472357D01*
X147477852Y-87482301D01*
X147463717Y-87479401D01*
X147358342Y-87465528D01*
X147350269Y-87464999D01*
X146724186Y-87464999D01*
X146657147Y-87445314D01*
X146611392Y-87392510D01*
X146602780Y-87366227D01*
X146576197Y-87238304D01*
X146575333Y-87234145D01*
X146483708Y-86976335D01*
X146372423Y-86761565D01*
X146359781Y-86737166D01*
X146359780Y-86737164D01*
X146357831Y-86733403D01*
X146305518Y-86659292D01*
X146223216Y-86542698D01*
X146200046Y-86509874D01*
X146054501Y-86354033D01*
X146016186Y-86313007D01*
X146016182Y-86313004D01*
X146013295Y-86309912D01*
X145801054Y-86137242D01*
X145567279Y-85995079D01*
X145316323Y-85886074D01*
X145052862Y-85812256D01*
X144781803Y-85774999D01*
X144508195Y-85774999D01*
X144237136Y-85812256D01*
X143973675Y-85886074D01*
X143722719Y-85995079D01*
X143488944Y-86137242D01*
X143276703Y-86309912D01*
X143273816Y-86313004D01*
X143273812Y-86313007D01*
X143235497Y-86354033D01*
X143089952Y-86509874D01*
X143011304Y-86621293D01*
X142996303Y-86642544D01*
X142941561Y-86685961D01*
X142872036Y-86692890D01*
X142809801Y-86661131D01*
X142793695Y-86642544D01*
X142778695Y-86621293D01*
X142700046Y-86509874D01*
X142554501Y-86354033D01*
X142516186Y-86313007D01*
X142516182Y-86313004D01*
X142513295Y-86309912D01*
X142301054Y-86137242D01*
X142067279Y-85995079D01*
X141816323Y-85886074D01*
X141552862Y-85812256D01*
X141281803Y-85774999D01*
X141008195Y-85774999D01*
X140737136Y-85812256D01*
X140473675Y-85886074D01*
X140222719Y-85995079D01*
X139988944Y-86137242D01*
X139776703Y-86309912D01*
X139773816Y-86313004D01*
X139773812Y-86313007D01*
X139735497Y-86354033D01*
X139589952Y-86509874D01*
X139566782Y-86542698D01*
X139484481Y-86659292D01*
X139432167Y-86733403D01*
X139430218Y-86737164D01*
X139430217Y-86737166D01*
X139417575Y-86761565D01*
X139306290Y-86976335D01*
X139304870Y-86980331D01*
X139216087Y-87230145D01*
X139214665Y-87234145D01*
X139213804Y-87238290D01*
X139213802Y-87238296D01*
X139185140Y-87376228D01*
X139152228Y-87437861D01*
X139091220Y-87471915D01*
X139063734Y-87475000D01*
X138499732Y-87475000D01*
X138491655Y-87475530D01*
X138386429Y-87489382D01*
X138370856Y-87493554D01*
X138239921Y-87547789D01*
X138225963Y-87555847D01*
X138113518Y-87642130D01*
X138102128Y-87653520D01*
X138015849Y-87765961D01*
X138007788Y-87779924D01*
X137953555Y-87910855D01*
X137949382Y-87926430D01*
X137935528Y-88031656D01*
X137934999Y-88039729D01*
X137934999Y-88407169D01*
X137939403Y-88422168D01*
X137940773Y-88423355D01*
X137948331Y-88424999D01*
X139020999Y-88424999D01*
X139088038Y-88444684D01*
X139133793Y-88497488D01*
X139144999Y-88548999D01*
X139144999Y-88800999D01*
X139125314Y-88868038D01*
X139072510Y-88913793D01*
X139020999Y-88924999D01*
X137952830Y-88924999D01*
X137937831Y-88929403D01*
X137936644Y-88930773D01*
X137935000Y-88938331D01*
X137935000Y-89310266D01*
X137935530Y-89318343D01*
X137949382Y-89423569D01*
X137953554Y-89439142D01*
X138007789Y-89570077D01*
X138015847Y-89584035D01*
X138102130Y-89696480D01*
X138113517Y-89707867D01*
X138137367Y-89726168D01*
X138178569Y-89782596D01*
X138182724Y-89852342D01*
X138148511Y-89913263D01*
X138137365Y-89922921D01*
X138113519Y-89941218D01*
X138102128Y-89952610D01*
X138015849Y-90065051D01*
X138007788Y-90079014D01*
X137953555Y-90209945D01*
X137949382Y-90225520D01*
X137935528Y-90330746D01*
X137934999Y-90338819D01*
X137934999Y-90706259D01*
X137939403Y-90721258D01*
X137940773Y-90722445D01*
X137948331Y-90724089D01*
X139020999Y-90724089D01*
X139088038Y-90743774D01*
X139133793Y-90796578D01*
X139144999Y-90848089D01*
X139144999Y-91100089D01*
X139125314Y-91167128D01*
X139072510Y-91212883D01*
X139020999Y-91224089D01*
X137952830Y-91224089D01*
X137937831Y-91228493D01*
X137936644Y-91229863D01*
X137935000Y-91237421D01*
X137935000Y-91609356D01*
X137935530Y-91617433D01*
X137949382Y-91722659D01*
X137953554Y-91738232D01*
X138007789Y-91869167D01*
X138015847Y-91883125D01*
X138102130Y-91995570D01*
X138113517Y-92006957D01*
X138137367Y-92025258D01*
X138178569Y-92081686D01*
X138182724Y-92151432D01*
X138148511Y-92212353D01*
X138137365Y-92222011D01*
X138113519Y-92240308D01*
X138102128Y-92251700D01*
X138015849Y-92364141D01*
X138007788Y-92378104D01*
X137953555Y-92509035D01*
X137949382Y-92524610D01*
X137935528Y-92629836D01*
X137934999Y-92637909D01*
X137934999Y-93005349D01*
X137939403Y-93020348D01*
X137940773Y-93021535D01*
X137948331Y-93023179D01*
X139020999Y-93023179D01*
X139088038Y-93042864D01*
X139133793Y-93095668D01*
X139144999Y-93147179D01*
X139144999Y-93399179D01*
X139125314Y-93466218D01*
X139072510Y-93511973D01*
X139020999Y-93523179D01*
X137952830Y-93523179D01*
X137937831Y-93527583D01*
X137936644Y-93528953D01*
X137935000Y-93536511D01*
X137935000Y-93908446D01*
X137935530Y-93916523D01*
X137949382Y-94021749D01*
X137953554Y-94037322D01*
X138007789Y-94168257D01*
X138015847Y-94182215D01*
X138102130Y-94294660D01*
X138113517Y-94306047D01*
X138137367Y-94324348D01*
X138178569Y-94380776D01*
X138182724Y-94450522D01*
X138148511Y-94511443D01*
X138137365Y-94521101D01*
X138113519Y-94539398D01*
X138102128Y-94550790D01*
X138015849Y-94663231D01*
X138007788Y-94677194D01*
X137953555Y-94808125D01*
X137949382Y-94823700D01*
X137935528Y-94928926D01*
X137934999Y-94936999D01*
X137934999Y-95304439D01*
X137939403Y-95319438D01*
X137940773Y-95320625D01*
X137948331Y-95322269D01*
X139020999Y-95322269D01*
X139088038Y-95341954D01*
X139133793Y-95394758D01*
X139144999Y-95446269D01*
X139144999Y-95698269D01*
X139125314Y-95765308D01*
X139072510Y-95811063D01*
X139020999Y-95822269D01*
X137952830Y-95822269D01*
X137937831Y-95826673D01*
X137936644Y-95828043D01*
X137935000Y-95835601D01*
X137935000Y-96207536D01*
X137935530Y-96215613D01*
X137949382Y-96320839D01*
X137953554Y-96336412D01*
X138007789Y-96467347D01*
X138015847Y-96481305D01*
X138102130Y-96593750D01*
X138113517Y-96605137D01*
X138137367Y-96623438D01*
X138178569Y-96679866D01*
X138182724Y-96749612D01*
X138148511Y-96810533D01*
X138137365Y-96820191D01*
X138113519Y-96838488D01*
X138102128Y-96849880D01*
X138015849Y-96962321D01*
X138007788Y-96976284D01*
X137953555Y-97107215D01*
X137950187Y-97119784D01*
X137913822Y-97179444D01*
X137850974Y-97209973D01*
X137781599Y-97201678D01*
X137759092Y-97186943D01*
X137758111Y-97188324D01*
X137743723Y-97178099D01*
X137727873Y-97164704D01*
X136568651Y-96005482D01*
X136535166Y-95944159D01*
X136542790Y-95867960D01*
X136560312Y-95828043D01*
X136589974Y-95760471D01*
X136642085Y-95543415D01*
X136654934Y-95320562D01*
X136641525Y-95209759D01*
X136628781Y-95104440D01*
X136628780Y-95104436D01*
X136628117Y-95098956D01*
X136617095Y-95063129D01*
X136564106Y-94890881D01*
X136564104Y-94890877D01*
X136562481Y-94885600D01*
X136559791Y-94880387D01*
X136462633Y-94692150D01*
X136462632Y-94692148D01*
X136460099Y-94687241D01*
X136373542Y-94574437D01*
X136327570Y-94514524D01*
X136327566Y-94514520D01*
X136324210Y-94510146D01*
X136159107Y-94359914D01*
X135970010Y-94241293D01*
X135882131Y-94205966D01*
X135827272Y-94162698D01*
X135804514Y-94096639D01*
X135821083Y-94028762D01*
X135874999Y-93978994D01*
X136034148Y-93903084D01*
X136034150Y-93903083D01*
X136039129Y-93900708D01*
X136043613Y-93897486D01*
X136215920Y-93773671D01*
X136215921Y-93773670D01*
X136220405Y-93770448D01*
X136375749Y-93610146D01*
X136395669Y-93580502D01*
X136497173Y-93429448D01*
X136497176Y-93429443D01*
X136500250Y-93424868D01*
X136589974Y-93220471D01*
X136642085Y-93003415D01*
X136654934Y-92780562D01*
X136641526Y-92669759D01*
X136628781Y-92564440D01*
X136628780Y-92564436D01*
X136628117Y-92558956D01*
X136572901Y-92379470D01*
X136564106Y-92350881D01*
X136564104Y-92350877D01*
X136562481Y-92345600D01*
X136513004Y-92249740D01*
X136462633Y-92152150D01*
X136462632Y-92152148D01*
X136460099Y-92147241D01*
X136352456Y-92006957D01*
X136327570Y-91974524D01*
X136327566Y-91974520D01*
X136324210Y-91970146D01*
X136159107Y-91819914D01*
X135970010Y-91701293D01*
X135964893Y-91699236D01*
X135964889Y-91699234D01*
X135881502Y-91665713D01*
X135826642Y-91622444D01*
X135803884Y-91556384D01*
X135820454Y-91488508D01*
X135874369Y-91438740D01*
X136033895Y-91362650D01*
X136043357Y-91357054D01*
X136215592Y-91233291D01*
X136223919Y-91226103D01*
X136371516Y-91073795D01*
X136378439Y-91065247D01*
X136496733Y-90889206D01*
X136502028Y-90879573D01*
X136587281Y-90685365D01*
X136590787Y-90674945D01*
X136621423Y-90547336D01*
X136620730Y-90533475D01*
X136611989Y-90530000D01*
X135074000Y-90530000D01*
X135006961Y-90510315D01*
X134961206Y-90457511D01*
X134950000Y-90406000D01*
X134950000Y-90154000D01*
X134969685Y-90086961D01*
X135022489Y-90041206D01*
X135074000Y-90030000D01*
X136611120Y-90030000D01*
X136624881Y-90025959D01*
X136626447Y-90015876D01*
X136626000Y-90013774D01*
X136563641Y-89811071D01*
X136559482Y-89800880D01*
X136462209Y-89612419D01*
X136456312Y-89603128D01*
X136327204Y-89434869D01*
X136319754Y-89426767D01*
X136162886Y-89284029D01*
X136154127Y-89277380D01*
X135974457Y-89164672D01*
X135964661Y-89159681D01*
X135881520Y-89126259D01*
X135826660Y-89082990D01*
X135803902Y-89016930D01*
X135820471Y-88949054D01*
X135874387Y-88899286D01*
X136034148Y-88823084D01*
X136034150Y-88823083D01*
X136039129Y-88820708D01*
X136147242Y-88743021D01*
X136215920Y-88693671D01*
X136215921Y-88693670D01*
X136220405Y-88690448D01*
X136375749Y-88530146D01*
X136378829Y-88525563D01*
X136497173Y-88349448D01*
X136497176Y-88349443D01*
X136500250Y-88344868D01*
X136589974Y-88140471D01*
X136642085Y-87923415D01*
X136654934Y-87700562D01*
X136628117Y-87478956D01*
X136596514Y-87376228D01*
X136564106Y-87270881D01*
X136564104Y-87270877D01*
X136562481Y-87265600D01*
X136548393Y-87238304D01*
X136462633Y-87072150D01*
X136462632Y-87072148D01*
X136460099Y-87067241D01*
X136387457Y-86972572D01*
X136327570Y-86894524D01*
X136327566Y-86894520D01*
X136324210Y-86890146D01*
X136159107Y-86739914D01*
X135970010Y-86621293D01*
X135882131Y-86585966D01*
X135827272Y-86542698D01*
X135804514Y-86476639D01*
X135821083Y-86408762D01*
X135874999Y-86358994D01*
X136034148Y-86283084D01*
X136034150Y-86283083D01*
X136039129Y-86280708D01*
X136147800Y-86202620D01*
X136215920Y-86153671D01*
X136215921Y-86153670D01*
X136220405Y-86150448D01*
X136375749Y-85990146D01*
X136379041Y-85985247D01*
X136497173Y-85809448D01*
X136497176Y-85809443D01*
X136500250Y-85804868D01*
X136589974Y-85600471D01*
X136642085Y-85383415D01*
X136654934Y-85160562D01*
X136641526Y-85049759D01*
X136628781Y-84944440D01*
X136628780Y-84944436D01*
X136628117Y-84938956D01*
X136562481Y-84725600D01*
X136460099Y-84527241D01*
X136395722Y-84443343D01*
X136327570Y-84354524D01*
X136327566Y-84354520D01*
X136324210Y-84350146D01*
X136159107Y-84199914D01*
X136030585Y-84119292D01*
X136009645Y-84106156D01*
X135963315Y-84053856D01*
X135952615Y-83984810D01*
X135980943Y-83920941D01*
X136045542Y-83880796D01*
X136105203Y-83865921D01*
X136105202Y-83865921D01*
X136111725Y-83864295D01*
X136212465Y-83814287D01*
X136266359Y-83787534D01*
X136266360Y-83787533D01*
X136272378Y-83784546D01*
X136412159Y-83672159D01*
X136524546Y-83532378D01*
X136604295Y-83371725D01*
X136616187Y-83324031D01*
X136646364Y-83202993D01*
X136646364Y-83202991D01*
X136647685Y-83197694D01*
X136648056Y-83192251D01*
X136648057Y-83192245D01*
X136650357Y-83158498D01*
X136650500Y-83156404D01*
X136650500Y-82163596D01*
X136649621Y-82150700D01*
X136648057Y-82127755D01*
X136648056Y-82127749D01*
X136647685Y-82122306D01*
X136641880Y-82099024D01*
X136605921Y-81954795D01*
X136605920Y-81954792D01*
X136604295Y-81948275D01*
X136551371Y-81841661D01*
X136527531Y-81793635D01*
X136527530Y-81793634D01*
X136524546Y-81787622D01*
X136524914Y-81787439D01*
X136506506Y-81724218D01*
X136526343Y-81657223D01*
X136579251Y-81611588D01*
X136630506Y-81600499D01*
X146288231Y-81600499D01*
X146355270Y-81620184D01*
G37*
G04 #@! TD.AperFunction*
M02*
