G04 #@! TF.GenerationSoftware,KiCad,Pcbnew,6.0.1-79c1e3a40b~116~ubuntu20.04.1*
G04 #@! TF.CreationDate,2022-01-18T16:29:50+01:00*
G04 #@! TF.ProjectId,Arduino_GPIB_Adapter,41726475-696e-46f5-9f47-5049425f4164,rev?*
G04 #@! TF.SameCoordinates,Original*
G04 #@! TF.FileFunction,Soldermask,Top*
G04 #@! TF.FilePolarity,Negative*
%FSLAX46Y46*%
G04 Gerber Fmt 4.6, Leading zero omitted, Abs format (unit mm)*
G04 Created by KiCad (PCBNEW 6.0.1-79c1e3a40b~116~ubuntu20.04.1) date 2022-01-18 16:29:50*
%MOMM*%
%LPD*%
G01*
G04 APERTURE LIST*
G04 Aperture macros list*
%AMRoundRect*
0 Rectangle with rounded corners*
0 $1 Rounding radius*
0 $2 $3 $4 $5 $6 $7 $8 $9 X,Y pos of 4 corners*
0 Add a 4 corners polygon primitive as box body*
4,1,4,$2,$3,$4,$5,$6,$7,$8,$9,$2,$3,0*
0 Add four circle primitives for the rounded corners*
1,1,$1+$1,$2,$3*
1,1,$1+$1,$4,$5*
1,1,$1+$1,$6,$7*
1,1,$1+$1,$8,$9*
0 Add four rect primitives between the rounded corners*
20,1,$1+$1,$2,$3,$4,$5,0*
20,1,$1+$1,$4,$5,$6,$7,0*
20,1,$1+$1,$6,$7,$8,$9,0*
20,1,$1+$1,$8,$9,$2,$3,0*%
G04 Aperture macros list end*
%ADD10RoundRect,0.476000X-0.625000X-0.425000X0.625000X-0.425000X0.625000X0.425000X-0.625000X0.425000X0*%
%ADD11O,2.202000X1.802000*%
%ADD12RoundRect,0.251000X-1.600000X0.600000X-1.600000X-0.600000X1.600000X-0.600000X1.600000X0.600000X0*%
G04 APERTURE END LIST*
D10*
X135200000Y-82660000D03*
D11*
X135200000Y-85200000D03*
X135200000Y-87740000D03*
X135200000Y-90280000D03*
X135200000Y-92820000D03*
X135200000Y-95360000D03*
X135200000Y-97900000D03*
X135200000Y-100440000D03*
X135200000Y-102980000D03*
X135200000Y-105520000D03*
X135200000Y-108060000D03*
X135200000Y-110600000D03*
X135200000Y-113140000D03*
X135200000Y-115680000D03*
X135200000Y-118220000D03*
X150440000Y-118220000D03*
X150440000Y-115680000D03*
X150440000Y-113140000D03*
X150440000Y-110600000D03*
X150440000Y-108060000D03*
X150440000Y-105520000D03*
X150440000Y-102980000D03*
X150440000Y-100440000D03*
X150440000Y-97900000D03*
X150440000Y-95360000D03*
X150440000Y-92820000D03*
X150440000Y-90280000D03*
X150440000Y-87740000D03*
X150440000Y-85200000D03*
X150440000Y-82660000D03*
D12*
X145714999Y-113964999D03*
X145714999Y-111664999D03*
X145714999Y-109364999D03*
X145714999Y-107064999D03*
X145714999Y-104764999D03*
X145714999Y-102464999D03*
X145714999Y-100164999D03*
X145714999Y-97864999D03*
X145714999Y-95564999D03*
X145714999Y-93264999D03*
X145714999Y-90964999D03*
X145714999Y-88664999D03*
X140134999Y-113964999D03*
X140134999Y-111665899D03*
X140134999Y-109366809D03*
X140134999Y-107067719D03*
X140134999Y-104768629D03*
X140134999Y-102469539D03*
X140134999Y-100170449D03*
X140134999Y-97871359D03*
X140134999Y-95572269D03*
X140134999Y-93273179D03*
X140134999Y-90974089D03*
X140134999Y-88674999D03*
M02*
