G04 #@! TF.GenerationSoftware,KiCad,Pcbnew,6.0.1-79c1e3a40b~116~ubuntu20.04.1*
G04 #@! TF.CreationDate,2022-01-18T16:29:50+01:00*
G04 #@! TF.ProjectId,Arduino_GPIB_Adapter,41726475-696e-46f5-9f47-5049425f4164,rev?*
G04 #@! TF.SameCoordinates,Original*
G04 #@! TF.FileFunction,Legend,Bot*
G04 #@! TF.FilePolarity,Positive*
%FSLAX46Y46*%
G04 Gerber Fmt 4.6, Leading zero omitted, Abs format (unit mm)*
G04 Created by KiCad (PCBNEW 6.0.1-79c1e3a40b~116~ubuntu20.04.1) date 2022-01-18 16:29:50*
%MOMM*%
%LPD*%
G01*
G04 APERTURE LIST*
G04 Aperture macros list*
%AMRoundRect*
0 Rectangle with rounded corners*
0 $1 Rounding radius*
0 $2 $3 $4 $5 $6 $7 $8 $9 X,Y pos of 4 corners*
0 Add a 4 corners polygon primitive as box body*
4,1,4,$2,$3,$4,$5,$6,$7,$8,$9,$2,$3,0*
0 Add four circle primitives for the rounded corners*
1,1,$1+$1,$2,$3*
1,1,$1+$1,$4,$5*
1,1,$1+$1,$6,$7*
1,1,$1+$1,$8,$9*
0 Add four rect primitives between the rounded corners*
20,1,$1+$1,$2,$3,$4,$5,0*
20,1,$1+$1,$4,$5,$6,$7,0*
20,1,$1+$1,$6,$7,$8,$9,0*
20,1,$1+$1,$8,$9,$2,$3,0*%
G04 Aperture macros list end*
%ADD10C,0.200000*%
%ADD11C,0.250000*%
%ADD12C,0.120000*%
%ADD13RoundRect,0.476000X-0.625000X-0.425000X0.625000X-0.425000X0.625000X0.425000X-0.625000X0.425000X0*%
%ADD14O,2.202000X1.802000*%
G04 APERTURE END LIST*
D10*
X143364999Y-110711665D02*
X143412618Y-110844999D01*
X143412618Y-111044999D01*
X143364999Y-111244999D01*
X143269760Y-111378332D01*
X143174522Y-111444999D01*
X142984046Y-111511665D01*
X142841189Y-111511665D01*
X142650713Y-111444999D01*
X142555475Y-111378332D01*
X142460237Y-111244999D01*
X142412618Y-111044999D01*
X142412618Y-110911665D01*
X142460237Y-110711665D01*
X142507856Y-110644999D01*
X142841189Y-110644999D01*
X142841189Y-110911665D01*
X142412618Y-110044999D02*
X143412618Y-110044999D01*
X143412618Y-109511665D01*
X143364999Y-109378332D01*
X143317379Y-109311665D01*
X143222141Y-109244999D01*
X143079284Y-109244999D01*
X142984046Y-109311665D01*
X142936427Y-109378332D01*
X142888808Y-109511665D01*
X142888808Y-110044999D01*
X142793570Y-108644999D02*
X142793570Y-107578332D01*
X142412618Y-106911665D02*
X143412618Y-106911665D01*
X142936427Y-105778332D02*
X142888808Y-105578332D01*
X142841189Y-105511665D01*
X142745951Y-105444999D01*
X142603094Y-105444999D01*
X142507856Y-105511665D01*
X142460237Y-105578332D01*
X142412618Y-105711665D01*
X142412618Y-106244999D01*
X143412618Y-106244999D01*
X143412618Y-105778332D01*
X143364999Y-105644999D01*
X143317379Y-105578332D01*
X143222141Y-105511665D01*
X143126903Y-105511665D01*
X143031665Y-105578332D01*
X142984046Y-105644999D01*
X142936427Y-105778332D01*
X142936427Y-106244999D01*
X142507856Y-102978332D02*
X142460237Y-103044999D01*
X142412618Y-103244999D01*
X142412618Y-103378332D01*
X142460237Y-103578332D01*
X142555475Y-103711665D01*
X142650713Y-103778332D01*
X142841189Y-103844999D01*
X142984046Y-103844999D01*
X143174522Y-103778332D01*
X143269760Y-103711665D01*
X143364999Y-103578332D01*
X143412618Y-103378332D01*
X143412618Y-103244999D01*
X143364999Y-103044999D01*
X143317379Y-102978332D01*
X143412618Y-102111665D02*
X143412618Y-101844999D01*
X143364999Y-101711665D01*
X143269760Y-101578332D01*
X143079284Y-101511665D01*
X142745951Y-101511665D01*
X142555475Y-101578332D01*
X142460237Y-101711665D01*
X142412618Y-101844999D01*
X142412618Y-102111665D01*
X142460237Y-102244999D01*
X142555475Y-102378332D01*
X142745951Y-102444999D01*
X143079284Y-102444999D01*
X143269760Y-102378332D01*
X143364999Y-102244999D01*
X143412618Y-102111665D01*
X142412618Y-100911665D02*
X143412618Y-100911665D01*
X142412618Y-100111665D01*
X143412618Y-100111665D01*
X142412618Y-99444999D02*
X143412618Y-99444999D01*
X142412618Y-98644999D01*
X143412618Y-98644999D01*
X142936427Y-97978332D02*
X142936427Y-97511665D01*
X142412618Y-97311665D02*
X142412618Y-97978332D01*
X143412618Y-97978332D01*
X143412618Y-97311665D01*
X142507856Y-95911665D02*
X142460237Y-95978332D01*
X142412618Y-96178332D01*
X142412618Y-96311665D01*
X142460237Y-96511665D01*
X142555475Y-96644999D01*
X142650713Y-96711665D01*
X142841189Y-96778332D01*
X142984046Y-96778332D01*
X143174522Y-96711665D01*
X143269760Y-96644999D01*
X143364999Y-96511665D01*
X143412618Y-96311665D01*
X143412618Y-96178332D01*
X143364999Y-95978332D01*
X143317379Y-95911665D01*
X143412618Y-95511665D02*
X143412618Y-94711665D01*
X142412618Y-95111665D02*
X143412618Y-95111665D01*
X143412618Y-93978332D02*
X143412618Y-93711665D01*
X143364999Y-93578332D01*
X143269760Y-93444999D01*
X143079284Y-93378332D01*
X142745951Y-93378332D01*
X142555475Y-93444999D01*
X142460237Y-93578332D01*
X142412618Y-93711665D01*
X142412618Y-93978332D01*
X142460237Y-94111665D01*
X142555475Y-94244999D01*
X142745951Y-94311665D01*
X143079284Y-94311665D01*
X143269760Y-94244999D01*
X143364999Y-94111665D01*
X143412618Y-93978332D01*
X142412618Y-91978332D02*
X142888808Y-92444999D01*
X142412618Y-92778332D02*
X143412618Y-92778332D01*
X143412618Y-92244999D01*
X143364999Y-92111665D01*
X143317379Y-92044999D01*
X143222141Y-91978332D01*
X143079284Y-91978332D01*
X142984046Y-92044999D01*
X142936427Y-92111665D01*
X142888808Y-92244999D01*
X142888808Y-92778332D01*
D11*
X137384999Y-86534999D02*
X137394999Y-116064999D01*
X145704999Y-120414999D02*
X138824999Y-118074999D01*
X148384999Y-118544999D02*
X148374999Y-84137000D01*
X145694999Y-82247000D02*
X138867973Y-84572935D01*
X148374999Y-84137000D02*
G75*
G03*
X145694999Y-82247000I-2001696J6722D01*
G01*
X137394998Y-116064999D02*
G75*
G03*
X138854999Y-118084999I2042422J-61418D01*
G01*
X145704999Y-120434999D02*
G75*
G03*
X148384999Y-118544999I665938J1900813D01*
G01*
X138867973Y-84572935D02*
G75*
G03*
X137384999Y-86534999I469989J-1896694D01*
G01*
%LPC*%
D12*
X141259999Y-87764999D02*
X139389999Y-87764999D01*
X139389999Y-87764999D02*
X139389999Y-114784999D01*
X139389999Y-114784999D02*
X141259999Y-114784999D01*
X141259999Y-114784999D02*
X141259999Y-87764999D01*
G36*
X141259999Y-87764999D02*
G01*
X139389999Y-87764999D01*
X139389999Y-114784999D01*
X141259999Y-114784999D01*
X141259999Y-87764999D01*
G37*
X146444999Y-87794999D02*
X144574999Y-87794999D01*
X144574999Y-87794999D02*
X144574999Y-114814999D01*
X144574999Y-114814999D02*
X146444999Y-114814999D01*
X146444999Y-114814999D02*
X146444999Y-87794999D01*
G36*
X146444999Y-87794999D02*
G01*
X144574999Y-87794999D01*
X144574999Y-114814999D01*
X146444999Y-114814999D01*
X146444999Y-87794999D01*
G37*
D13*
X135200000Y-82660000D03*
D14*
X135200000Y-85200000D03*
X135200000Y-87740000D03*
X135200000Y-90280000D03*
X135200000Y-92820000D03*
X135200000Y-95360000D03*
X135200000Y-97900000D03*
X135200000Y-100440000D03*
X135200000Y-102980000D03*
X135200000Y-105520000D03*
X135200000Y-108060000D03*
X135200000Y-110600000D03*
X135200000Y-113140000D03*
X135200000Y-115680000D03*
X135200000Y-118220000D03*
X150440000Y-118220000D03*
X150440000Y-115680000D03*
X150440000Y-113140000D03*
X150440000Y-110600000D03*
X150440000Y-108060000D03*
X150440000Y-105520000D03*
X150440000Y-102980000D03*
X150440000Y-100440000D03*
X150440000Y-97900000D03*
X150440000Y-95360000D03*
X150440000Y-92820000D03*
X150440000Y-90280000D03*
X150440000Y-87740000D03*
X150440000Y-85200000D03*
X150440000Y-82660000D03*
M02*
