M48
; DRILL file {KiCad 6.0.1-79c1e3a40b~116~ubuntu20.04.1} date Tue 18 Jan 2022 04:31:28 PM CET
; FORMAT={-:-/ absolute / metric / decimal}
; #@! TF.CreationDate,2022-01-18T16:31:28+01:00
; #@! TF.GenerationSoftware,Kicad,Pcbnew,6.0.1-79c1e3a40b~116~ubuntu20.04.1
; #@! TF.FileFunction,NonPlated,1,2,NPTH
FMAT,2
METRIC
; #@! TA.AperFunction,NonPlated,NPTH,ComponentDrill
T1C0.500
%
G90
G05
T1
X79.66Y-72.51
X79.7Y-129.432
X80.4Y-129.632
X80.41Y-72.31
X81.15Y-129.732
X81.16Y-72.21
X81.9Y-129.632
X81.91Y-72.31
X82.61Y-72.51
X82.65Y-129.432
X100.06Y-72.51
X100.1Y-129.432
X100.8Y-129.632
X100.81Y-72.31
X101.55Y-129.732
X101.56Y-72.21
X102.3Y-129.632
X102.31Y-72.31
X103.01Y-72.51
X103.05Y-129.432
X120.46Y-72.51
X120.5Y-129.432
X121.2Y-129.632
X121.21Y-72.31
X121.95Y-129.732
X121.96Y-72.21
X122.7Y-129.632
X122.71Y-72.31
X123.41Y-72.51
X123.45Y-129.432
X140.86Y-72.51
X140.9Y-129.432
X141.6Y-129.632
X141.61Y-72.31
X142.35Y-129.732
X142.36Y-72.21
X143.1Y-129.632
X143.11Y-72.31
X143.81Y-72.51
X143.85Y-129.432
X161.26Y-72.51
X161.3Y-129.432
X162.0Y-129.632
X162.01Y-72.31
X162.75Y-129.732
X162.76Y-72.21
X163.5Y-129.632
X163.51Y-72.31
X164.21Y-72.51
X164.25Y-129.432
T0
M30
