M48
; DRILL file {KiCad 6.0.1-79c1e3a40b~116~ubuntu20.04.1} date Tue 18 Jan 2022 04:31:28 PM CET
; FORMAT={-:-/ absolute / metric / decimal}
; #@! TF.CreationDate,2022-01-18T16:31:28+01:00
; #@! TF.GenerationSoftware,Kicad,Pcbnew,6.0.1-79c1e3a40b~116~ubuntu20.04.1
; #@! TF.FileFunction,Plated,1,2,PTH
FMAT,2
METRIC
; #@! TA.AperFunction,Plated,PTH,ViaDrill
T1C0.400
; #@! TA.AperFunction,Plated,PTH,ComponentDrill
T2C0.500
; #@! TA.AperFunction,Plated,PTH,ComponentDrill
T3C0.900
; #@! TA.AperFunction,Plated,PTH,ComponentDrill
T4C1.000
; #@! TA.AperFunction,Plated,PTH,ComponentDrill
T5C3.200
%
G90
G05
T1
X73.537Y-120.972
X73.547Y-81.752
X74.377Y-78.912
X74.417Y-123.202
X83.498Y-115.417
X83.498Y-118.338
X84.895Y-114.401
X84.895Y-118.592
X85.357Y-113.282
X87.857Y-79.052
X87.897Y-123.172
X88.807Y-121.112
X88.837Y-81.812
X93.937Y-120.972
X93.947Y-81.752
X94.777Y-78.912
X94.817Y-123.202
X103.898Y-115.417
X103.898Y-118.338
X105.295Y-114.401
X105.295Y-118.592
X105.757Y-113.282
X108.257Y-79.052
X108.297Y-123.172
X109.207Y-121.112
X109.237Y-81.812
X114.337Y-120.972
X114.347Y-81.752
X115.177Y-78.912
X115.217Y-123.202
X124.298Y-115.417
X124.298Y-118.338
X125.695Y-114.401
X125.695Y-118.592
X126.157Y-113.282
X128.657Y-79.052
X128.697Y-123.172
X129.607Y-121.112
X129.637Y-81.812
X134.737Y-120.972
X134.747Y-81.752
X135.577Y-78.912
X135.617Y-123.202
X144.698Y-115.417
X144.698Y-118.338
X146.095Y-114.401
X146.095Y-118.592
X146.557Y-113.282
X149.057Y-79.052
X149.097Y-123.172
X150.007Y-121.112
X150.037Y-81.812
X155.137Y-120.972
X155.147Y-81.752
X155.977Y-78.912
X156.017Y-123.202
X165.098Y-115.417
X165.098Y-118.338
X166.495Y-114.401
X166.495Y-118.592
X166.957Y-113.282
X169.457Y-79.052
X169.497Y-123.172
X170.407Y-121.112
X170.437Y-81.812
T2
X78.805Y-85.889
X78.807Y-77.602
X78.857Y-124.382
X79.51Y-75.905
X79.51Y-79.299
X79.56Y-122.685
X79.56Y-126.079
X81.207Y-75.202
X81.207Y-80.002
X81.257Y-121.982
X81.257Y-126.782
X82.904Y-75.905
X82.904Y-79.299
X82.954Y-122.685
X82.954Y-126.079
X83.607Y-77.602
X83.615Y-85.829
X83.657Y-124.382
X99.205Y-85.889
X99.207Y-77.602
X99.257Y-124.382
X99.91Y-75.905
X99.91Y-79.299
X99.96Y-122.685
X99.96Y-126.079
X101.607Y-75.202
X101.607Y-80.002
X101.657Y-121.982
X101.657Y-126.782
X103.304Y-75.905
X103.304Y-79.299
X103.354Y-122.685
X103.354Y-126.079
X104.007Y-77.602
X104.015Y-85.829
X104.057Y-124.382
X119.605Y-85.889
X119.607Y-77.602
X119.657Y-124.382
X120.31Y-75.905
X120.31Y-79.299
X120.36Y-122.685
X120.36Y-126.079
X122.007Y-75.202
X122.007Y-80.002
X122.057Y-121.982
X122.057Y-126.782
X123.704Y-75.905
X123.704Y-79.299
X123.754Y-122.685
X123.754Y-126.079
X124.407Y-77.602
X124.415Y-85.829
X124.457Y-124.382
X140.005Y-85.889
X140.007Y-77.602
X140.057Y-124.382
X140.71Y-75.905
X140.71Y-79.299
X140.76Y-122.685
X140.76Y-126.079
X142.407Y-75.202
X142.407Y-80.002
X142.457Y-121.982
X142.457Y-126.782
X144.104Y-75.905
X144.104Y-79.299
X144.154Y-122.685
X144.154Y-126.079
X144.807Y-77.602
X144.815Y-85.829
X144.857Y-124.382
X160.405Y-85.889
X160.407Y-77.602
X160.457Y-124.382
X161.11Y-75.905
X161.11Y-79.299
X161.16Y-122.685
X161.16Y-126.079
X162.807Y-75.202
X162.807Y-80.002
X162.857Y-121.982
X162.857Y-126.782
X164.504Y-75.905
X164.504Y-79.299
X164.554Y-122.685
X164.554Y-126.079
X165.207Y-77.602
X165.215Y-85.829
X165.257Y-124.382
T3
X78.82Y-88.986
X78.82Y-91.144
X78.82Y-93.303
X78.82Y-95.462
X78.82Y-97.621
X78.82Y-99.78
X78.82Y-101.939
X78.82Y-104.099
X78.82Y-106.257
X78.82Y-108.416
X78.82Y-110.575
X78.82Y-112.734
X83.5Y-89.01
X83.5Y-91.169
X83.5Y-93.328
X83.5Y-95.487
X83.5Y-97.646
X83.5Y-99.805
X83.5Y-101.964
X83.5Y-104.123
X83.5Y-106.282
X83.5Y-108.441
X83.5Y-110.6
X83.5Y-112.759
X99.22Y-88.986
X99.22Y-91.144
X99.22Y-93.303
X99.22Y-95.462
X99.22Y-97.621
X99.22Y-99.78
X99.22Y-101.939
X99.22Y-104.099
X99.22Y-106.257
X99.22Y-108.416
X99.22Y-110.575
X99.22Y-112.734
X103.9Y-89.01
X103.9Y-91.169
X103.9Y-93.328
X103.9Y-95.487
X103.9Y-97.646
X103.9Y-99.805
X103.9Y-101.964
X103.9Y-104.123
X103.9Y-106.282
X103.9Y-108.441
X103.9Y-110.6
X103.9Y-112.759
X119.62Y-88.986
X119.62Y-91.144
X119.62Y-93.303
X119.62Y-95.462
X119.62Y-97.621
X119.62Y-99.78
X119.62Y-101.939
X119.62Y-104.099
X119.62Y-106.257
X119.62Y-108.416
X119.62Y-110.575
X119.62Y-112.734
X124.3Y-89.01
X124.3Y-91.169
X124.3Y-93.328
X124.3Y-95.487
X124.3Y-97.646
X124.3Y-99.805
X124.3Y-101.964
X124.3Y-104.123
X124.3Y-106.282
X124.3Y-108.441
X124.3Y-110.6
X124.3Y-112.759
X140.02Y-88.986
X140.02Y-91.144
X140.02Y-93.303
X140.02Y-95.462
X140.02Y-97.621
X140.02Y-99.78
X140.02Y-101.939
X140.02Y-104.099
X140.02Y-106.257
X140.02Y-108.416
X140.02Y-110.575
X140.02Y-112.734
X144.7Y-89.01
X144.7Y-91.169
X144.7Y-93.328
X144.7Y-95.487
X144.7Y-97.646
X144.7Y-99.805
X144.7Y-101.964
X144.7Y-104.123
X144.7Y-106.282
X144.7Y-108.441
X144.7Y-110.6
X144.7Y-112.759
X160.42Y-88.986
X160.42Y-91.144
X160.42Y-93.303
X160.42Y-95.462
X160.42Y-97.621
X160.42Y-99.78
X160.42Y-101.939
X160.42Y-104.099
X160.42Y-106.257
X160.42Y-108.416
X160.42Y-110.575
X160.42Y-112.734
X165.1Y-89.01
X165.1Y-91.169
X165.1Y-93.328
X165.1Y-95.487
X165.1Y-97.646
X165.1Y-99.805
X165.1Y-101.964
X165.1Y-104.123
X165.1Y-106.282
X165.1Y-108.441
X165.1Y-110.6
X165.1Y-112.759
T4
X73.465Y-83.54
X73.465Y-86.08
X73.465Y-88.62
X73.465Y-91.16
X73.465Y-93.7
X73.465Y-96.24
X73.465Y-98.78
X73.465Y-101.32
X73.465Y-103.86
X73.465Y-106.4
X73.465Y-108.94
X73.465Y-111.48
X73.465Y-114.02
X73.465Y-116.56
X73.465Y-119.1
X88.705Y-83.54
X88.705Y-86.08
X88.705Y-88.62
X88.705Y-91.16
X88.705Y-93.7
X88.705Y-96.24
X88.705Y-98.78
X88.705Y-101.32
X88.705Y-103.86
X88.705Y-106.4
X88.705Y-108.94
X88.705Y-111.48
X88.705Y-114.02
X88.705Y-116.56
X88.705Y-119.1
X93.865Y-83.54
X93.865Y-86.08
X93.865Y-88.62
X93.865Y-91.16
X93.865Y-93.7
X93.865Y-96.24
X93.865Y-98.78
X93.865Y-101.32
X93.865Y-103.86
X93.865Y-106.4
X93.865Y-108.94
X93.865Y-111.48
X93.865Y-114.02
X93.865Y-116.56
X93.865Y-119.1
X109.105Y-83.54
X109.105Y-86.08
X109.105Y-88.62
X109.105Y-91.16
X109.105Y-93.7
X109.105Y-96.24
X109.105Y-98.78
X109.105Y-101.32
X109.105Y-103.86
X109.105Y-106.4
X109.105Y-108.94
X109.105Y-111.48
X109.105Y-114.02
X109.105Y-116.56
X109.105Y-119.1
X114.265Y-83.54
X114.265Y-86.08
X114.265Y-88.62
X114.265Y-91.16
X114.265Y-93.7
X114.265Y-96.24
X114.265Y-98.78
X114.265Y-101.32
X114.265Y-103.86
X114.265Y-106.4
X114.265Y-108.94
X114.265Y-111.48
X114.265Y-114.02
X114.265Y-116.56
X114.265Y-119.1
X129.505Y-83.54
X129.505Y-86.08
X129.505Y-88.62
X129.505Y-91.16
X129.505Y-93.7
X129.505Y-96.24
X129.505Y-98.78
X129.505Y-101.32
X129.505Y-103.86
X129.505Y-106.4
X129.505Y-108.94
X129.505Y-111.48
X129.505Y-114.02
X129.505Y-116.56
X129.505Y-119.1
X134.665Y-83.54
X134.665Y-86.08
X134.665Y-88.62
X134.665Y-91.16
X134.665Y-93.7
X134.665Y-96.24
X134.665Y-98.78
X134.665Y-101.32
X134.665Y-103.86
X134.665Y-106.4
X134.665Y-108.94
X134.665Y-111.48
X134.665Y-114.02
X134.665Y-116.56
X134.665Y-119.1
X149.905Y-83.54
X149.905Y-86.08
X149.905Y-88.62
X149.905Y-91.16
X149.905Y-93.7
X149.905Y-96.24
X149.905Y-98.78
X149.905Y-101.32
X149.905Y-103.86
X149.905Y-106.4
X149.905Y-108.94
X149.905Y-111.48
X149.905Y-114.02
X149.905Y-116.56
X149.905Y-119.1
X155.065Y-83.54
X155.065Y-86.08
X155.065Y-88.62
X155.065Y-91.16
X155.065Y-93.7
X155.065Y-96.24
X155.065Y-98.78
X155.065Y-101.32
X155.065Y-103.86
X155.065Y-106.4
X155.065Y-108.94
X155.065Y-111.48
X155.065Y-114.02
X155.065Y-116.56
X155.065Y-119.1
X170.305Y-83.54
X170.305Y-86.08
X170.305Y-88.62
X170.305Y-91.16
X170.305Y-93.7
X170.305Y-96.24
X170.305Y-98.78
X170.305Y-101.32
X170.305Y-103.86
X170.305Y-106.4
X170.305Y-108.94
X170.305Y-111.48
X170.305Y-114.02
X170.305Y-116.56
X170.305Y-119.1
T5
X81.207Y-77.602
X81.257Y-124.382
X101.607Y-77.602
X101.657Y-124.382
X122.007Y-77.602
X122.057Y-124.382
X142.407Y-77.602
X142.457Y-124.382
X162.807Y-77.602
X162.857Y-124.382
T0
M30
