G04 #@! TF.GenerationSoftware,KiCad,Pcbnew,6.0.1-79c1e3a40b~116~ubuntu20.04.1*
G04 #@! TF.CreationDate,2022-01-18T16:31:28+01:00*
G04 #@! TF.ProjectId,5xNano_GPIB,35784e61-6e6f-45f4-9750-49422e6b6963,rev?*
G04 #@! TF.SameCoordinates,Original*
G04 #@! TF.FileFunction,Profile,NP*
%FSLAX46Y46*%
G04 Gerber Fmt 4.6, Leading zero omitted, Abs format (unit mm)*
G04 Created by KiCad (PCBNEW 6.0.1-79c1e3a40b~116~ubuntu20.04.1) date 2022-01-18 16:31:28*
%MOMM*%
%LPD*%
G01*
G04 APERTURE LIST*
G04 #@! TA.AperFunction,Profile*
%ADD10C,0.150000*%
G04 #@! TD*
G04 APERTURE END LIST*
D10*
X138830000Y-132290000D02*
G75*
G03*
X139710000Y-128730000I30879J1881131D01*
G01*
X146020074Y-73948030D02*
X151537000Y-79442000D01*
X159089926Y-127993941D02*
X153517000Y-122410549D01*
X72927107Y-132287107D02*
G75*
G03*
X71927107Y-133287107I-1J-999999D01*
G01*
X97925926Y-73948030D02*
X92317000Y-79552000D01*
X98030000Y-132290000D02*
G75*
G03*
X98910000Y-128730000I30879J1881131D01*
G01*
X72917107Y-69650000D02*
X77652706Y-69652313D01*
X145984074Y-127993941D02*
X151536803Y-122454918D01*
X139710000Y-128730000D02*
X138689926Y-127993941D01*
X105080000Y-69651971D02*
G75*
G03*
X104200000Y-73211971I-30879J-1881131D01*
G01*
X83800000Y-73211971D02*
X84820074Y-73948030D01*
X71917000Y-122410549D02*
X71917000Y-79552000D01*
X125584074Y-127993941D02*
X131136803Y-122454918D01*
X171692893Y-55927107D02*
G75*
G03*
X170692893Y-54927107I-999999J1D01*
G01*
X166280000Y-69651971D02*
X170700000Y-69637107D01*
X125620074Y-73948030D02*
X131137000Y-79442000D01*
X84657294Y-132289658D02*
X98030000Y-132290000D01*
X124577294Y-128729659D02*
G75*
G03*
X125457294Y-132289658I849117J-1678869D01*
G01*
X138689926Y-127993941D02*
X133117000Y-122410549D01*
X153517000Y-122410549D02*
X153517000Y-79552000D01*
X166384074Y-127993941D02*
X171936803Y-122454918D01*
X97889926Y-127993941D02*
X92317000Y-122410549D01*
X84680000Y-69651971D02*
X98052706Y-69652313D01*
X171692893Y-55927107D02*
X171700000Y-68637107D01*
X170700000Y-69637107D02*
G75*
G03*
X171700000Y-68637107I1J999999D01*
G01*
X125480000Y-69651971D02*
G75*
G03*
X124600000Y-73211971I-30879J-1881131D01*
G01*
X98932706Y-73212312D02*
G75*
G03*
X98052706Y-69652313I-849117J1678869D01*
G01*
X78532706Y-73212312D02*
G75*
G03*
X77652706Y-69652313I-849117J1678869D01*
G01*
X166420074Y-73948030D02*
X171937000Y-79442000D01*
X139732706Y-73212313D02*
X138725926Y-73948030D01*
X119332706Y-73212313D02*
X118325926Y-73948030D01*
X124577294Y-128729658D02*
X125584074Y-127993941D01*
X77525926Y-73948030D02*
X71917000Y-79552000D01*
X78532706Y-73212313D02*
X77525926Y-73948030D01*
X71917107Y-68650000D02*
G75*
G03*
X72917107Y-69650000I999999J-1D01*
G01*
X84784074Y-127993941D02*
X90336803Y-122454918D01*
X159230000Y-132290000D02*
G75*
G03*
X160110000Y-128730000I30879J1881131D01*
G01*
X124600000Y-73211971D02*
X125620074Y-73948030D01*
X71917107Y-55937107D02*
X71917107Y-68650000D01*
X171702893Y-133287107D02*
G75*
G03*
X170702893Y-132287107I-999999J1D01*
G01*
X165377294Y-128729659D02*
G75*
G03*
X166257294Y-132289658I849117J-1678869D01*
G01*
X118325926Y-73948030D02*
X112717000Y-79552000D01*
X145880000Y-69651971D02*
G75*
G03*
X145000000Y-73211971I-30879J-1881131D01*
G01*
X145857294Y-132289658D02*
X159230000Y-132290000D01*
X160132706Y-73212312D02*
G75*
G03*
X159252706Y-69652313I-849117J1678869D01*
G01*
X118289926Y-127993941D02*
X112717000Y-122410549D01*
X98910000Y-128730000D02*
X97889926Y-127993941D01*
X77489926Y-127993941D02*
X71917000Y-122410549D01*
X138725926Y-73948030D02*
X133117000Y-79552000D01*
X104200000Y-73211971D02*
X105220074Y-73948030D01*
X125480000Y-69651971D02*
X138852706Y-69652313D01*
X90336803Y-122454918D02*
X90337000Y-79442000D01*
X145000000Y-73211971D02*
X146020074Y-73948030D01*
X78510000Y-128730000D02*
X77489926Y-127993941D01*
X170702893Y-147352893D02*
G75*
G03*
X171702893Y-146352893I1J999999D01*
G01*
X92317000Y-122410549D02*
X92317000Y-79552000D01*
X105220074Y-73948030D02*
X110737000Y-79442000D01*
X151536803Y-122454918D02*
X151537000Y-79442000D01*
X83777294Y-128729659D02*
G75*
G03*
X84657294Y-132289658I849117J-1678869D01*
G01*
X160110000Y-128730000D02*
X159089926Y-127993941D01*
X83777294Y-128729658D02*
X84784074Y-127993941D01*
X105080000Y-69651971D02*
X118452706Y-69652313D01*
X159125926Y-73948030D02*
X153517000Y-79552000D01*
X133117000Y-122410549D02*
X133117000Y-79552000D01*
X105057294Y-132289658D02*
X118430000Y-132290000D01*
X144977294Y-128729659D02*
G75*
G03*
X145857294Y-132289658I849117J-1678869D01*
G01*
X171936803Y-122454918D02*
X171937000Y-79442000D01*
X160132706Y-73212313D02*
X159125926Y-73948030D01*
X166280000Y-69651971D02*
G75*
G03*
X165400000Y-73211971I-30879J-1881131D01*
G01*
X119332706Y-73212312D02*
G75*
G03*
X118452706Y-69652313I-849117J1678869D01*
G01*
X105184074Y-127993941D02*
X110736803Y-122454918D01*
X171702893Y-133287107D02*
X171702893Y-146352893D01*
X84820074Y-73948030D02*
X90337000Y-79442000D01*
X125457294Y-132289658D02*
X138830000Y-132290000D01*
X104177294Y-128729658D02*
X105184074Y-127993941D01*
X84680000Y-69651971D02*
G75*
G03*
X83800000Y-73211971I-30879J-1881131D01*
G01*
X165400000Y-73211971D02*
X166420074Y-73948030D01*
X145880000Y-69651971D02*
X159252706Y-69652313D01*
X72917107Y-54937107D02*
G75*
G03*
X71917107Y-55937107I-1J-999999D01*
G01*
X72917107Y-147362893D02*
X170702893Y-147352893D01*
X112717000Y-122410549D02*
X112717000Y-79552000D01*
X118430000Y-132290000D02*
G75*
G03*
X119310000Y-128730000I30879J1881131D01*
G01*
X72927107Y-132287107D02*
X77630000Y-132290000D01*
X166257294Y-132289658D02*
X170702893Y-132287107D01*
X71917107Y-146362893D02*
G75*
G03*
X72917107Y-147362893I999999J-1D01*
G01*
X72917107Y-54937107D02*
X170692893Y-54927107D01*
X139732706Y-73212312D02*
G75*
G03*
X138852706Y-69652313I-849117J1678869D01*
G01*
X104177294Y-128729659D02*
G75*
G03*
X105057294Y-132289658I849117J-1678869D01*
G01*
X98932706Y-73212313D02*
X97925926Y-73948030D01*
X131136803Y-122454918D02*
X131137000Y-79442000D01*
X71927107Y-133287107D02*
X71917107Y-146362893D01*
X119310000Y-128730000D02*
X118289926Y-127993941D01*
X110736803Y-122454918D02*
X110737000Y-79442000D01*
X144977294Y-128729658D02*
X145984074Y-127993941D01*
X165377294Y-128729658D02*
X166384074Y-127993941D01*
X77630000Y-132290000D02*
G75*
G03*
X78510000Y-128730000I30879J1881131D01*
G01*
M02*
