G04 #@! TF.GenerationSoftware,KiCad,Pcbnew,6.0.1-79c1e3a40b~116~ubuntu20.04.1*
G04 #@! TF.CreationDate,2022-01-18T16:27:04+01:00*
G04 #@! TF.ProjectId,4xArduino_GPIB_Adapter,34784172-6475-4696-9e6f-5f475049425f,rev?*
G04 #@! TF.SameCoordinates,Original*
G04 #@! TF.FileFunction,Legend,Top*
G04 #@! TF.FilePolarity,Positive*
%FSLAX46Y46*%
G04 Gerber Fmt 4.6, Leading zero omitted, Abs format (unit mm)*
G04 Created by KiCad (PCBNEW 6.0.1-79c1e3a40b~116~ubuntu20.04.1) date 2022-01-18 16:27:04*
%MOMM*%
%LPD*%
G01*
G04 APERTURE LIST*
G04 Aperture macros list*
%AMRoundRect*
0 Rectangle with rounded corners*
0 $1 Rounding radius*
0 $2 $3 $4 $5 $6 $7 $8 $9 X,Y pos of 4 corners*
0 Add a 4 corners polygon primitive as box body*
4,1,4,$2,$3,$4,$5,$6,$7,$8,$9,$2,$3,0*
0 Add four circle primitives for the rounded corners*
1,1,$1+$1,$2,$3*
1,1,$1+$1,$4,$5*
1,1,$1+$1,$6,$7*
1,1,$1+$1,$8,$9*
0 Add four rect primitives between the rounded corners*
20,1,$1+$1,$2,$3,$4,$5,0*
20,1,$1+$1,$4,$5,$6,$7,0*
20,1,$1+$1,$6,$7,$8,$9,0*
20,1,$1+$1,$8,$9,$2,$3,0*%
G04 Aperture macros list end*
%ADD10C,0.400000*%
%ADD11C,0.200000*%
%ADD12C,0.120000*%
%ADD13C,0.300000*%
%ADD14C,0.100000*%
%ADD15RoundRect,0.476000X-0.625000X-0.425000X0.625000X-0.425000X0.625000X0.425000X-0.625000X0.425000X0*%
%ADD16O,2.202000X1.802000*%
%ADD17RoundRect,0.251000X-1.600000X0.600000X-1.600000X-0.600000X1.600000X-0.600000X1.600000X0.600000X0*%
%ADD18C,0.602000*%
G04 APERTURE END LIST*
D10*
X98175001Y-75565001D02*
X100700000Y-75565001D01*
X100700000Y-75565001D02*
X100700000Y-78020000D01*
X100700000Y-78020000D02*
X98175001Y-78020000D01*
X98175001Y-78020000D02*
X98175001Y-75565001D01*
X103126190Y-78854761D02*
X103126190Y-76854761D01*
X104269047Y-78854761D01*
X104269047Y-76854761D01*
X105126190Y-78283333D02*
X106078571Y-78283333D01*
X104935714Y-78854761D02*
X105602380Y-76854761D01*
X106269047Y-78854761D01*
X106935714Y-78854761D02*
X106935714Y-76854761D01*
X108078571Y-78854761D01*
X108078571Y-76854761D01*
X109411904Y-76854761D02*
X109792857Y-76854761D01*
X109983333Y-76950000D01*
X110173809Y-77140476D01*
X110269047Y-77521428D01*
X110269047Y-78188095D01*
X110173809Y-78569047D01*
X109983333Y-78759523D01*
X109792857Y-78854761D01*
X109411904Y-78854761D01*
X109221428Y-78759523D01*
X109030952Y-78569047D01*
X108935714Y-78188095D01*
X108935714Y-77521428D01*
X109030952Y-77140476D01*
X109221428Y-76950000D01*
X109411904Y-76854761D01*
D11*
X179371428Y-134678571D02*
X179371428Y-135750000D01*
X179300000Y-135964285D01*
X179157142Y-136107142D01*
X178942857Y-136178571D01*
X178800000Y-136178571D01*
X180800000Y-136178571D02*
X180085714Y-136178571D01*
X180085714Y-134678571D01*
X182157142Y-136035714D02*
X182085714Y-136107142D01*
X181871428Y-136178571D01*
X181728571Y-136178571D01*
X181514285Y-136107142D01*
X181371428Y-135964285D01*
X181300000Y-135821428D01*
X181228571Y-135535714D01*
X181228571Y-135321428D01*
X181300000Y-135035714D01*
X181371428Y-134892857D01*
X181514285Y-134750000D01*
X181728571Y-134678571D01*
X181871428Y-134678571D01*
X182085714Y-134750000D01*
X182157142Y-134821428D01*
X183228571Y-134678571D02*
X183228571Y-135750000D01*
X183157142Y-135964285D01*
X183014285Y-136107142D01*
X182800000Y-136178571D01*
X182657142Y-136178571D01*
X184657142Y-136178571D02*
X183942857Y-136178571D01*
X183942857Y-134678571D01*
X186014285Y-136035714D02*
X185942857Y-136107142D01*
X185728571Y-136178571D01*
X185585714Y-136178571D01*
X185371428Y-136107142D01*
X185228571Y-135964285D01*
X185157142Y-135821428D01*
X185085714Y-135535714D01*
X185085714Y-135321428D01*
X185157142Y-135035714D01*
X185228571Y-134892857D01*
X185371428Y-134750000D01*
X185585714Y-134678571D01*
X185728571Y-134678571D01*
X185942857Y-134750000D01*
X186014285Y-134821428D01*
X187085714Y-134678571D02*
X187085714Y-135750000D01*
X187014285Y-135964285D01*
X186871428Y-136107142D01*
X186657142Y-136178571D01*
X186514285Y-136178571D01*
X188514285Y-136178571D02*
X187800000Y-136178571D01*
X187800000Y-134678571D01*
X189871428Y-136035714D02*
X189800000Y-136107142D01*
X189585714Y-136178571D01*
X189442857Y-136178571D01*
X189228571Y-136107142D01*
X189085714Y-135964285D01*
X189014285Y-135821428D01*
X188942857Y-135535714D01*
X188942857Y-135321428D01*
X189014285Y-135035714D01*
X189085714Y-134892857D01*
X189228571Y-134750000D01*
X189442857Y-134678571D01*
X189585714Y-134678571D01*
X189800000Y-134750000D01*
X189871428Y-134821428D01*
X190942857Y-134678571D02*
X190942857Y-135750000D01*
X190871428Y-135964285D01*
X190728571Y-136107142D01*
X190514285Y-136178571D01*
X190371428Y-136178571D01*
X192371428Y-136178571D02*
X191657142Y-136178571D01*
X191657142Y-134678571D01*
X193728571Y-136035714D02*
X193657142Y-136107142D01*
X193442857Y-136178571D01*
X193300000Y-136178571D01*
X193085714Y-136107142D01*
X192942857Y-135964285D01*
X192871428Y-135821428D01*
X192800000Y-135535714D01*
X192800000Y-135321428D01*
X192871428Y-135035714D01*
X192942857Y-134892857D01*
X193085714Y-134750000D01*
X193300000Y-134678571D01*
X193442857Y-134678571D01*
X193657142Y-134750000D01*
X193728571Y-134821428D01*
D10*
X179876190Y-78604761D02*
X179876190Y-76604761D01*
X181019047Y-78604761D01*
X181019047Y-76604761D01*
X181876190Y-78033333D02*
X182828571Y-78033333D01*
X181685714Y-78604761D02*
X182352380Y-76604761D01*
X183019047Y-78604761D01*
X183685714Y-78604761D02*
X183685714Y-76604761D01*
X184828571Y-78604761D01*
X184828571Y-76604761D01*
X186161904Y-76604761D02*
X186542857Y-76604761D01*
X186733333Y-76700000D01*
X186923809Y-76890476D01*
X187019047Y-77271428D01*
X187019047Y-77938095D01*
X186923809Y-78319047D01*
X186733333Y-78509523D01*
X186542857Y-78604761D01*
X186161904Y-78604761D01*
X185971428Y-78509523D01*
X185780952Y-78319047D01*
X185685714Y-77938095D01*
X185685714Y-77271428D01*
X185780952Y-76890476D01*
X185971428Y-76700000D01*
X186161904Y-76604761D01*
X129276190Y-78804761D02*
X129276190Y-76804761D01*
X130419047Y-78804761D01*
X130419047Y-76804761D01*
X131276190Y-78233333D02*
X132228571Y-78233333D01*
X131085714Y-78804761D02*
X131752380Y-76804761D01*
X132419047Y-78804761D01*
X133085714Y-78804761D02*
X133085714Y-76804761D01*
X134228571Y-78804761D01*
X134228571Y-76804761D01*
X135561904Y-76804761D02*
X135942857Y-76804761D01*
X136133333Y-76900000D01*
X136323809Y-77090476D01*
X136419047Y-77471428D01*
X136419047Y-78138095D01*
X136323809Y-78519047D01*
X136133333Y-78709523D01*
X135942857Y-78804761D01*
X135561904Y-78804761D01*
X135371428Y-78709523D01*
X135180952Y-78519047D01*
X135085714Y-78138095D01*
X135085714Y-77471428D01*
X135180952Y-77090476D01*
X135371428Y-76900000D01*
X135561904Y-76804761D01*
X154476190Y-78804761D02*
X154476190Y-76804761D01*
X155619047Y-78804761D01*
X155619047Y-76804761D01*
X156476190Y-78233333D02*
X157428571Y-78233333D01*
X156285714Y-78804761D02*
X156952380Y-76804761D01*
X157619047Y-78804761D01*
X158285714Y-78804761D02*
X158285714Y-76804761D01*
X159428571Y-78804761D01*
X159428571Y-76804761D01*
X160761904Y-76804761D02*
X161142857Y-76804761D01*
X161333333Y-76900000D01*
X161523809Y-77090476D01*
X161619047Y-77471428D01*
X161619047Y-78138095D01*
X161523809Y-78519047D01*
X161333333Y-78709523D01*
X161142857Y-78804761D01*
X160761904Y-78804761D01*
X160571428Y-78709523D01*
X160380952Y-78519047D01*
X160285714Y-78138095D01*
X160285714Y-77471428D01*
X160380952Y-77090476D01*
X160571428Y-76900000D01*
X160761904Y-76804761D01*
D12*
X100725001Y-78055001D02*
X98055001Y-78055001D01*
D11*
X100855001Y-78055001D02*
X100855001Y-113615001D01*
X113355001Y-75515001D02*
X113355001Y-113615001D01*
X113425001Y-75515001D02*
X116055001Y-75515001D01*
X100725001Y-113615001D02*
X98045001Y-113615001D01*
X113425001Y-113615001D02*
X116055001Y-113615001D01*
X116055001Y-75515001D02*
X116055001Y-113615001D01*
X98055001Y-77945001D02*
X98045001Y-113615001D01*
D12*
X103265001Y-110375001D02*
X110875001Y-110375001D01*
X110875001Y-110375001D02*
X110875001Y-116185001D01*
X110875001Y-116185001D02*
X103265001Y-116185001D01*
X103265001Y-116185001D02*
X103265001Y-110375001D01*
G36*
X103265001Y-110375001D02*
G01*
X110875001Y-110375001D01*
X110875001Y-116185001D01*
X103265001Y-116185001D01*
X103265001Y-110375001D01*
G37*
D13*
X98105001Y-75625001D02*
X100835001Y-75625001D01*
X100835001Y-75625001D02*
X100835001Y-77945001D01*
X100835001Y-77945001D02*
X98105001Y-77945001D01*
X98105001Y-77945001D02*
X98105001Y-75625001D01*
D14*
X155410000Y-71700000D02*
G75*
G03*
X155410000Y-69700000I0J1000000D01*
G01*
X160910000Y-69700000D02*
G75*
G03*
X160910000Y-71700000I0J-1000000D01*
G01*
X186410000Y-69700000D02*
G75*
G03*
X186410000Y-71700000I0J-1000000D01*
G01*
X180910000Y-71700000D02*
G75*
G03*
X180910000Y-69700000I0J1000000D01*
G01*
D12*
X151725001Y-78055001D02*
X149055001Y-78055001D01*
D11*
X149055001Y-77945001D02*
X149045001Y-113615001D01*
X151725001Y-113615001D02*
X149045001Y-113615001D01*
X164425001Y-113615001D02*
X167055001Y-113615001D01*
X167055001Y-75515001D02*
X167055001Y-113615001D01*
X164425001Y-75515001D02*
X167055001Y-75515001D01*
X151855001Y-78055001D02*
X151855001Y-113615001D01*
X164355001Y-75515001D02*
X164355001Y-113615001D01*
D13*
X149105001Y-75625001D02*
X151835001Y-75625001D01*
X151835001Y-75625001D02*
X151835001Y-77945001D01*
X151835001Y-77945001D02*
X149105001Y-77945001D01*
X149105001Y-77945001D02*
X149105001Y-75625001D01*
D12*
X154265001Y-110375001D02*
X161875001Y-110375001D01*
X161875001Y-110375001D02*
X161875001Y-116185001D01*
X161875001Y-116185001D02*
X154265001Y-116185001D01*
X154265001Y-116185001D02*
X154265001Y-110375001D01*
G36*
X154265001Y-110375001D02*
G01*
X161875001Y-110375001D01*
X161875001Y-116185001D01*
X154265001Y-116185001D01*
X154265001Y-110375001D01*
G37*
D14*
X160980000Y-119700000D02*
G75*
G03*
X160980000Y-121700000I0J-1000000D01*
G01*
X155480000Y-121700000D02*
G75*
G03*
X155480000Y-119700000I0J1000000D01*
G01*
X104410000Y-71700000D02*
G75*
G03*
X104410000Y-69700000I0J1000000D01*
G01*
X109910000Y-69700000D02*
G75*
G03*
X109910000Y-71700000I0J-1000000D01*
G01*
X186480000Y-119700000D02*
G75*
G03*
X186480000Y-121700000I0J-1000000D01*
G01*
X180980000Y-121700000D02*
G75*
G03*
X180980000Y-119700000I0J1000000D01*
G01*
X109980000Y-119700000D02*
G75*
G03*
X109980000Y-121700000I0J-1000000D01*
G01*
X104480000Y-121700000D02*
G75*
G03*
X104480000Y-119700000I0J1000000D01*
G01*
X129980000Y-121700000D02*
G75*
G03*
X129980000Y-119700000I0J1000000D01*
G01*
X135480000Y-119700000D02*
G75*
G03*
X135480000Y-121700000I0J-1000000D01*
G01*
D11*
X126355001Y-78055001D02*
X126355001Y-113615001D01*
X126225001Y-113615001D02*
X123545001Y-113615001D01*
X138925001Y-75515001D02*
X141555001Y-75515001D01*
X141555001Y-75515001D02*
X141555001Y-113615001D01*
X123555001Y-77945001D02*
X123545001Y-113615001D01*
X138925001Y-113615001D02*
X141555001Y-113615001D01*
X138855001Y-75515001D02*
X138855001Y-113615001D01*
D12*
X126225001Y-78055001D02*
X123555001Y-78055001D01*
D13*
X123605001Y-75625001D02*
X126335001Y-75625001D01*
X126335001Y-75625001D02*
X126335001Y-77945001D01*
X126335001Y-77945001D02*
X123605001Y-77945001D01*
X123605001Y-77945001D02*
X123605001Y-75625001D01*
D12*
X128765001Y-110375001D02*
X136375001Y-110375001D01*
X136375001Y-110375001D02*
X136375001Y-116185001D01*
X136375001Y-116185001D02*
X128765001Y-116185001D01*
X128765001Y-116185001D02*
X128765001Y-110375001D01*
G36*
X128765001Y-110375001D02*
G01*
X136375001Y-110375001D01*
X136375001Y-116185001D01*
X128765001Y-116185001D01*
X128765001Y-110375001D01*
G37*
X177225001Y-78055001D02*
X174555001Y-78055001D01*
D11*
X189925001Y-113615001D02*
X192555001Y-113615001D01*
X192555001Y-75515001D02*
X192555001Y-113615001D01*
X177225001Y-113615001D02*
X174545001Y-113615001D01*
X189925001Y-75515001D02*
X192555001Y-75515001D01*
X189855001Y-75515001D02*
X189855001Y-113615001D01*
X177355001Y-78055001D02*
X177355001Y-113615001D01*
X174555001Y-77945001D02*
X174545001Y-113615001D01*
D12*
X179765001Y-110375001D02*
X187375001Y-110375001D01*
X187375001Y-110375001D02*
X187375001Y-116185001D01*
X187375001Y-116185001D02*
X179765001Y-116185001D01*
X179765001Y-116185001D02*
X179765001Y-110375001D01*
G36*
X179765001Y-110375001D02*
G01*
X187375001Y-110375001D01*
X187375001Y-116185001D01*
X179765001Y-116185001D01*
X179765001Y-110375001D01*
G37*
D13*
X174605001Y-75625001D02*
X177335001Y-75625001D01*
X177335001Y-75625001D02*
X177335001Y-77945001D01*
X177335001Y-77945001D02*
X174605001Y-77945001D01*
X174605001Y-77945001D02*
X174605001Y-75625001D01*
D14*
X129910000Y-71700000D02*
G75*
G03*
X129910000Y-69700000I0J1000000D01*
G01*
X135410000Y-69700000D02*
G75*
G03*
X135410000Y-71700000I0J-1000000D01*
G01*
%LPC*%
D15*
X99455001Y-76785001D03*
D16*
X99455001Y-79325001D03*
X99455001Y-81865001D03*
X99455001Y-84405001D03*
X99455001Y-86945001D03*
X99455001Y-89485001D03*
X99455001Y-92025001D03*
X99455001Y-94565001D03*
X99455001Y-97105001D03*
X99455001Y-99645001D03*
X99455001Y-102185001D03*
X99455001Y-104725001D03*
X99455001Y-107265001D03*
X99455001Y-109805001D03*
X99455001Y-112345001D03*
X114695001Y-112345001D03*
X114695001Y-109805001D03*
X114695001Y-107265001D03*
X114695001Y-104725001D03*
X114695001Y-102185001D03*
X114695001Y-99645001D03*
X114695001Y-97105001D03*
X114695001Y-94565001D03*
X114695001Y-92025001D03*
X114695001Y-89485001D03*
X114695001Y-86945001D03*
X114695001Y-84405001D03*
X114695001Y-81865001D03*
X114695001Y-79325001D03*
X114695001Y-76785001D03*
D17*
X109970000Y-108090000D03*
X109970000Y-105790000D03*
X109970000Y-103490000D03*
X109970000Y-101190000D03*
X109970000Y-98890000D03*
X109970000Y-96590000D03*
X109970000Y-94290000D03*
X109970000Y-91990000D03*
X109970000Y-89690000D03*
X109970000Y-87390000D03*
X109970000Y-85090000D03*
X109970000Y-82790000D03*
X104390000Y-108090000D03*
X104390000Y-105790900D03*
X104390000Y-103491810D03*
X104390000Y-101192720D03*
X104390000Y-98893630D03*
X104390000Y-96594540D03*
X104390000Y-94295450D03*
X104390000Y-91996360D03*
X104390000Y-89697270D03*
X104390000Y-87398180D03*
X104390000Y-85099090D03*
X104390000Y-82800000D03*
D18*
X156660000Y-71450000D03*
X158160000Y-71450000D03*
X159660000Y-71450000D03*
X158910000Y-71450000D03*
X157410000Y-71450000D03*
X185160000Y-71450000D03*
X182160000Y-71450000D03*
X183660000Y-71450000D03*
X184410000Y-71450000D03*
X182910000Y-71450000D03*
D15*
X150455001Y-76785001D03*
D16*
X150455001Y-79325001D03*
X150455001Y-81865001D03*
X150455001Y-84405001D03*
X150455001Y-86945001D03*
X150455001Y-89485001D03*
X150455001Y-92025001D03*
X150455001Y-94565001D03*
X150455001Y-97105001D03*
X150455001Y-99645001D03*
X150455001Y-102185001D03*
X150455001Y-104725001D03*
X150455001Y-107265001D03*
X150455001Y-109805001D03*
X150455001Y-112345001D03*
X165695001Y-112345001D03*
X165695001Y-109805001D03*
X165695001Y-107265001D03*
X165695001Y-104725001D03*
X165695001Y-102185001D03*
X165695001Y-99645001D03*
X165695001Y-97105001D03*
X165695001Y-94565001D03*
X165695001Y-92025001D03*
X165695001Y-89485001D03*
X165695001Y-86945001D03*
X165695001Y-84405001D03*
X165695001Y-81865001D03*
X165695001Y-79325001D03*
X165695001Y-76785001D03*
D17*
X135470000Y-108090000D03*
X135470000Y-105790000D03*
X135470000Y-103490000D03*
X135470000Y-101190000D03*
X135470000Y-98890000D03*
X135470000Y-96590000D03*
X135470000Y-94290000D03*
X135470000Y-91990000D03*
X135470000Y-89690000D03*
X135470000Y-87390000D03*
X135470000Y-85090000D03*
X135470000Y-82790000D03*
X129890000Y-108090000D03*
X129890000Y-105790900D03*
X129890000Y-103491810D03*
X129890000Y-101192720D03*
X129890000Y-98893630D03*
X129890000Y-96594540D03*
X129890000Y-94295450D03*
X129890000Y-91996360D03*
X129890000Y-89697270D03*
X129890000Y-87398180D03*
X129890000Y-85099090D03*
X129890000Y-82800000D03*
D18*
X159730000Y-119950000D03*
X156730000Y-119950000D03*
X157480000Y-119950000D03*
X158980000Y-119950000D03*
X158230000Y-119950000D03*
X107910000Y-71450000D03*
X107160000Y-71450000D03*
X108660000Y-71450000D03*
X106410000Y-71450000D03*
X105660000Y-71450000D03*
X183730000Y-119950000D03*
X184480000Y-119950000D03*
X182230000Y-119950000D03*
X182980000Y-119950000D03*
X185230000Y-119950000D03*
X107980000Y-119950000D03*
X106480000Y-119950000D03*
X108730000Y-119950000D03*
X105730000Y-119950000D03*
X107230000Y-119950000D03*
X131980000Y-119950000D03*
X134230000Y-119950000D03*
X131230000Y-119950000D03*
X132730000Y-119950000D03*
X133480000Y-119950000D03*
D17*
X186470000Y-108090000D03*
X186470000Y-105790000D03*
X186470000Y-103490000D03*
X186470000Y-101190000D03*
X186470000Y-98890000D03*
X186470000Y-96590000D03*
X186470000Y-94290000D03*
X186470000Y-91990000D03*
X186470000Y-89690000D03*
X186470000Y-87390000D03*
X186470000Y-85090000D03*
X186470000Y-82790000D03*
X180890000Y-108090000D03*
X180890000Y-105790900D03*
X180890000Y-103491810D03*
X180890000Y-101192720D03*
X180890000Y-98893630D03*
X180890000Y-96594540D03*
X180890000Y-94295450D03*
X180890000Y-91996360D03*
X180890000Y-89697270D03*
X180890000Y-87398180D03*
X180890000Y-85099090D03*
X180890000Y-82800000D03*
D15*
X124955001Y-76785001D03*
D16*
X124955001Y-79325001D03*
X124955001Y-81865001D03*
X124955001Y-84405001D03*
X124955001Y-86945001D03*
X124955001Y-89485001D03*
X124955001Y-92025001D03*
X124955001Y-94565001D03*
X124955001Y-97105001D03*
X124955001Y-99645001D03*
X124955001Y-102185001D03*
X124955001Y-104725001D03*
X124955001Y-107265001D03*
X124955001Y-109805001D03*
X124955001Y-112345001D03*
X140195001Y-112345001D03*
X140195001Y-109805001D03*
X140195001Y-107265001D03*
X140195001Y-104725001D03*
X140195001Y-102185001D03*
X140195001Y-99645001D03*
X140195001Y-97105001D03*
X140195001Y-94565001D03*
X140195001Y-92025001D03*
X140195001Y-89485001D03*
X140195001Y-86945001D03*
X140195001Y-84405001D03*
X140195001Y-81865001D03*
X140195001Y-79325001D03*
X140195001Y-76785001D03*
D17*
X160970000Y-108090000D03*
X160970000Y-105790000D03*
X160970000Y-103490000D03*
X160970000Y-101190000D03*
X160970000Y-98890000D03*
X160970000Y-96590000D03*
X160970000Y-94290000D03*
X160970000Y-91990000D03*
X160970000Y-89690000D03*
X160970000Y-87390000D03*
X160970000Y-85090000D03*
X160970000Y-82790000D03*
X155390000Y-108090000D03*
X155390000Y-105790900D03*
X155390000Y-103491810D03*
X155390000Y-101192720D03*
X155390000Y-98893630D03*
X155390000Y-96594540D03*
X155390000Y-94295450D03*
X155390000Y-91996360D03*
X155390000Y-89697270D03*
X155390000Y-87398180D03*
X155390000Y-85099090D03*
X155390000Y-82800000D03*
D15*
X175955001Y-76785001D03*
D16*
X175955001Y-79325001D03*
X175955001Y-81865001D03*
X175955001Y-84405001D03*
X175955001Y-86945001D03*
X175955001Y-89485001D03*
X175955001Y-92025001D03*
X175955001Y-94565001D03*
X175955001Y-97105001D03*
X175955001Y-99645001D03*
X175955001Y-102185001D03*
X175955001Y-104725001D03*
X175955001Y-107265001D03*
X175955001Y-109805001D03*
X175955001Y-112345001D03*
X191195001Y-112345001D03*
X191195001Y-109805001D03*
X191195001Y-107265001D03*
X191195001Y-104725001D03*
X191195001Y-102185001D03*
X191195001Y-99645001D03*
X191195001Y-97105001D03*
X191195001Y-94565001D03*
X191195001Y-92025001D03*
X191195001Y-89485001D03*
X191195001Y-86945001D03*
X191195001Y-84405001D03*
X191195001Y-81865001D03*
X191195001Y-79325001D03*
X191195001Y-76785001D03*
D18*
X132660000Y-71450000D03*
X131160000Y-71450000D03*
X133410000Y-71450000D03*
X131910000Y-71450000D03*
X134160000Y-71450000D03*
M02*
