G04 #@! TF.GenerationSoftware,KiCad,Pcbnew,6.0.1-79c1e3a40b~116~ubuntu20.04.1*
G04 #@! TF.CreationDate,2022-01-18T16:27:04+01:00*
G04 #@! TF.ProjectId,4xArduino_GPIB_Adapter,34784172-6475-4696-9e6f-5f475049425f,rev?*
G04 #@! TF.SameCoordinates,Original*
G04 #@! TF.FileFunction,Profile,NP*
%FSLAX46Y46*%
G04 Gerber Fmt 4.6, Leading zero omitted, Abs format (unit mm)*
G04 Created by KiCad (PCBNEW 6.0.1-79c1e3a40b~116~ubuntu20.04.1) date 2022-01-18 16:27:04*
%MOMM*%
%LPD*%
G01*
G04 APERTURE LIST*
G04 #@! TA.AperFunction,Profile*
%ADD10C,0.100000*%
G04 #@! TD*
G04 APERTURE END LIST*
D10*
X95475000Y-116700000D02*
G75*
G03*
X98475000Y-119700000I3000001J1D01*
G01*
X186490000Y-119700000D02*
G75*
G03*
X186490000Y-121700000I0J-1000000D01*
G01*
X160910000Y-69700000D02*
X180900000Y-69700000D01*
X95470000Y-137950000D02*
X95470001Y-122697106D01*
X166975000Y-71700000D02*
X160910000Y-71700000D01*
X174975000Y-119700000D02*
X180980000Y-119700000D01*
X160990000Y-121700000D02*
X180980000Y-121700000D01*
X109990000Y-121700000D02*
X129980000Y-121700000D01*
X109910000Y-69700000D02*
G75*
G03*
X109910000Y-71700000I0J-1000000D01*
G01*
X194399999Y-69702894D02*
G75*
G03*
X195399999Y-68702894I-3J1000003D01*
G01*
X155400000Y-71700000D02*
X149475000Y-71700000D01*
X135490000Y-119700000D02*
G75*
G03*
X135490000Y-121700000I0J-1000000D01*
G01*
X149475000Y-71700000D02*
G75*
G03*
X146475000Y-74700000I1J-3000001D01*
G01*
X149475000Y-119700000D02*
X155480000Y-119700000D01*
X195472894Y-122697107D02*
X195470000Y-137950000D01*
X174975000Y-71700000D02*
G75*
G03*
X171975000Y-74700000I1J-3000001D01*
G01*
X144475000Y-74700000D02*
G75*
G03*
X141475000Y-71700000I-3000001J-1D01*
G01*
X115975000Y-71700000D02*
X109910000Y-71700000D01*
X195475000Y-74700000D02*
G75*
G03*
X192475000Y-71700000I-3000001J-1D01*
G01*
X135490000Y-119700000D02*
X141475000Y-119700000D01*
X95397106Y-68702893D02*
X95400000Y-53450000D01*
X96397106Y-69702893D02*
X104400000Y-69700000D01*
X180980000Y-121700000D02*
G75*
G03*
X180980000Y-119700000I0J1000000D01*
G01*
X171975000Y-74700000D02*
X171975000Y-116700000D01*
X194472894Y-121697107D02*
X186490000Y-121700000D01*
X129980000Y-121700000D02*
G75*
G03*
X129980000Y-119700000I0J1000000D01*
G01*
X186410000Y-69700000D02*
G75*
G03*
X186410000Y-71700000I0J-1000000D01*
G01*
X120975000Y-74700000D02*
X120975000Y-116700000D01*
X104400000Y-71700000D02*
G75*
G03*
X104400000Y-69700000I0J1000000D01*
G01*
X109990000Y-119700000D02*
X115975000Y-119700000D01*
X166975000Y-119700000D02*
G75*
G03*
X169975000Y-116700000I-1J3000001D01*
G01*
X146475000Y-116700000D02*
G75*
G03*
X149475000Y-119700000I3000001J1D01*
G01*
X169975000Y-116700000D02*
X169975000Y-74700000D01*
X171975000Y-116700000D02*
G75*
G03*
X174975000Y-119700000I3000001J1D01*
G01*
X186490000Y-119700000D02*
X192475000Y-119700000D01*
X195400000Y-53450000D02*
X195399999Y-68702894D01*
X96470001Y-121697106D02*
G75*
G03*
X95470001Y-122697106I3J-1000003D01*
G01*
X98475000Y-71700000D02*
G75*
G03*
X95475000Y-74700000I1J-3000001D01*
G01*
X135490000Y-121700000D02*
X155480000Y-121700000D01*
X115975000Y-119700000D02*
G75*
G03*
X118975000Y-116700000I-1J3000001D01*
G01*
X155400000Y-71700000D02*
G75*
G03*
X155400000Y-69700000I0J1000000D01*
G01*
X104480000Y-121700000D02*
X96470001Y-121697106D01*
X146475000Y-74700000D02*
X146475000Y-116700000D01*
X180900000Y-71700000D02*
G75*
G03*
X180900000Y-69700000I0J1000000D01*
G01*
X160990000Y-119700000D02*
G75*
G03*
X160990000Y-121700000I0J-1000000D01*
G01*
X186410000Y-69700000D02*
X194399999Y-69702894D01*
X109910000Y-69700000D02*
X129900000Y-69700000D01*
X192475000Y-71700000D02*
X186410000Y-71700000D01*
X135410000Y-69700000D02*
X155400000Y-69700000D01*
X95470000Y-137950000D02*
G75*
G03*
X96470000Y-138950000I1000003J3D01*
G01*
X194470000Y-138950000D02*
X96470000Y-138950000D01*
X192475000Y-119700000D02*
G75*
G03*
X195475000Y-116700000I-1J3000001D01*
G01*
X95475000Y-74700000D02*
X95475000Y-116700000D01*
X194470000Y-138950000D02*
G75*
G03*
X195470000Y-137950000I-3J1000003D01*
G01*
X96400000Y-52450000D02*
G75*
G03*
X95400000Y-53450000I3J-1000003D01*
G01*
X141475000Y-119700000D02*
G75*
G03*
X144475000Y-116700000I-1J3000001D01*
G01*
X123975000Y-119700000D02*
X129980000Y-119700000D01*
X104480000Y-121700000D02*
G75*
G03*
X104480000Y-119700000I0J1000000D01*
G01*
X180900000Y-71700000D02*
X174975000Y-71700000D01*
X95397106Y-68702893D02*
G75*
G03*
X96397106Y-69702893I1000003J3D01*
G01*
X123975000Y-71700000D02*
G75*
G03*
X120975000Y-74700000I1J-3000001D01*
G01*
X195475000Y-116700000D02*
X195475000Y-74700000D01*
X141475000Y-71700000D02*
X135410000Y-71700000D01*
X195400000Y-53450000D02*
G75*
G03*
X194400000Y-52450000I-1000003J-3D01*
G01*
X96400000Y-52450000D02*
X194400000Y-52450000D01*
X169975000Y-74700000D02*
G75*
G03*
X166975000Y-71700000I-3000001J-1D01*
G01*
X129900000Y-71700000D02*
X123975000Y-71700000D01*
X129900000Y-71700000D02*
G75*
G03*
X129900000Y-69700000I0J1000000D01*
G01*
X155480000Y-121700000D02*
G75*
G03*
X155480000Y-119700000I0J1000000D01*
G01*
X160910000Y-69700000D02*
G75*
G03*
X160910000Y-71700000I0J-1000000D01*
G01*
X135410000Y-69700000D02*
G75*
G03*
X135410000Y-71700000I0J-1000000D01*
G01*
X118975000Y-74700000D02*
G75*
G03*
X115975000Y-71700000I-3000001J-1D01*
G01*
X160990000Y-119700000D02*
X166975000Y-119700000D01*
X109990000Y-119700000D02*
G75*
G03*
X109990000Y-121700000I0J-1000000D01*
G01*
X120975000Y-116700000D02*
G75*
G03*
X123975000Y-119700000I3000001J1D01*
G01*
X118975000Y-116700000D02*
X118975000Y-74700000D01*
X104400000Y-71700000D02*
X98475000Y-71700000D01*
X144475000Y-116700000D02*
X144475000Y-74700000D01*
X98475000Y-119700000D02*
X104480000Y-119700000D01*
X195472894Y-122697107D02*
G75*
G03*
X194472894Y-121697107I-1000003J-3D01*
G01*
X107900000Y-108900000D02*
X107900000Y-81900000D01*
X109900000Y-81900000D02*
X109900000Y-108900000D01*
X104400000Y-81900000D02*
X104400000Y-108900000D01*
X106400000Y-108900000D02*
X106400000Y-81900000D01*
X107900000Y-108900000D02*
G75*
G03*
X109900000Y-108900000I1000000J0D01*
G01*
X109900000Y-81900000D02*
G75*
G03*
X107900000Y-81900000I-1000000J0D01*
G01*
X106400000Y-81900000D02*
G75*
G03*
X104400000Y-81900000I-1000000J0D01*
G01*
X104400000Y-108900000D02*
G75*
G03*
X106400000Y-108900000I1000000J0D01*
G01*
X129900000Y-81900000D02*
X129900000Y-108900000D01*
X133400000Y-108900000D02*
X133400000Y-81900000D01*
X131900000Y-108900000D02*
X131900000Y-81900000D01*
X135400000Y-81900000D02*
X135400000Y-108900000D01*
X129900000Y-108900000D02*
G75*
G03*
X131900000Y-108900000I1000000J0D01*
G01*
X133400000Y-108900000D02*
G75*
G03*
X135400000Y-108900000I1000000J0D01*
G01*
X135400000Y-81900000D02*
G75*
G03*
X133400000Y-81900000I-1000000J0D01*
G01*
X131900000Y-81900000D02*
G75*
G03*
X129900000Y-81900000I-1000000J0D01*
G01*
X184400000Y-108900000D02*
X184400000Y-81900000D01*
X180900000Y-81900000D02*
X180900000Y-108900000D01*
X182900000Y-108900000D02*
X182900000Y-81900000D01*
X186400000Y-81900000D02*
X186400000Y-108900000D01*
X186400000Y-81900000D02*
G75*
G03*
X184400000Y-81900000I-1000000J0D01*
G01*
X184400000Y-108900000D02*
G75*
G03*
X186400000Y-108900000I1000000J0D01*
G01*
X182900000Y-81900000D02*
G75*
G03*
X180900000Y-81900000I-1000000J0D01*
G01*
X180900000Y-108900000D02*
G75*
G03*
X182900000Y-108900000I1000000J0D01*
G01*
X158900000Y-108900000D02*
X158900000Y-81900000D01*
X155400000Y-81900000D02*
X155400000Y-108900000D01*
X157400000Y-108900000D02*
X157400000Y-81900000D01*
X160900000Y-81900000D02*
X160900000Y-108900000D01*
X155400000Y-108900000D02*
G75*
G03*
X157400000Y-108900000I1000000J0D01*
G01*
X157400000Y-81900000D02*
G75*
G03*
X155400000Y-81900000I-1000000J0D01*
G01*
X158900000Y-108900000D02*
G75*
G03*
X160900000Y-108900000I1000000J0D01*
G01*
X160900000Y-81900000D02*
G75*
G03*
X158900000Y-81900000I-1000000J0D01*
G01*
M02*
