M48
; DRILL file {KiCad 6.0.1-79c1e3a40b~116~ubuntu20.04.1} date Tue 18 Jan 2022 04:27:04 PM CET
; FORMAT={-:-/ absolute / metric / decimal}
; #@! TF.CreationDate,2022-01-18T16:27:04+01:00
; #@! TF.GenerationSoftware,Kicad,Pcbnew,6.0.1-79c1e3a40b~116~ubuntu20.04.1
; #@! TF.FileFunction,NonPlated,1,2,NPTH
FMAT,2
METRIC
; #@! TA.AperFunction,NonPlated,NPTH,ComponentDrill
T1C0.500
%
G90
G05
T1
X105.66Y-71.45
X105.73Y-119.95
X106.41Y-71.45
X106.48Y-119.95
X107.16Y-71.45
X107.23Y-119.95
X107.91Y-71.45
X107.98Y-119.95
X108.66Y-71.45
X108.73Y-119.95
X131.16Y-71.45
X131.23Y-119.95
X131.91Y-71.45
X131.98Y-119.95
X132.66Y-71.45
X132.73Y-119.95
X133.41Y-71.45
X133.48Y-119.95
X134.16Y-71.45
X134.23Y-119.95
X156.66Y-71.45
X156.73Y-119.95
X157.41Y-71.45
X157.48Y-119.95
X158.16Y-71.45
X158.23Y-119.95
X158.91Y-71.45
X158.98Y-119.95
X159.66Y-71.45
X159.73Y-119.95
X182.16Y-71.45
X182.23Y-119.95
X182.91Y-71.45
X182.98Y-119.95
X183.66Y-71.45
X183.73Y-119.95
X184.41Y-71.45
X184.48Y-119.95
X185.16Y-71.45
X185.23Y-119.95
T0
M30
