M48
; DRILL file {KiCad 6.0.1-79c1e3a40b~116~ubuntu20.04.1} date Tue 18 Jan 2022 04:27:04 PM CET
; FORMAT={-:-/ absolute / metric / decimal}
; #@! TF.CreationDate,2022-01-18T16:27:04+01:00
; #@! TF.GenerationSoftware,Kicad,Pcbnew,6.0.1-79c1e3a40b~116~ubuntu20.04.1
; #@! TF.FileFunction,Plated,1,2,PTH
FMAT,2
METRIC
; #@! TA.AperFunction,Plated,PTH,ViaDrill
T1C0.400
; #@! TA.AperFunction,Plated,PTH,ComponentDrill
T2C0.900
; #@! TA.AperFunction,Plated,PTH,ComponentDrill
T3C1.400
%
G90
G05
T1
X97.7Y-73.9
X97.8Y-117.3
X101.1Y-115.6
X101.4Y-106.2
X101.825Y-100.95
X102.65Y-80.95
X103.15Y-79.95
X103.4Y-116.2
X103.65Y-80.95
X106.27Y-114.4
X108.15Y-115.2
X109.88Y-115.93
X110.65Y-80.95
X111.15Y-79.95
X111.405Y-76.185
X111.65Y-80.95
X116.4Y-73.9
X116.4Y-117.2
X116.425Y-90.77
X116.65Y-85.7
X116.65Y-88.2
X123.2Y-73.9
X123.3Y-117.3
X126.6Y-115.6
X126.9Y-106.2
X127.325Y-100.95
X128.15Y-80.95
X128.65Y-79.95
X128.9Y-116.2
X129.15Y-80.95
X131.77Y-114.4
X133.65Y-115.2
X135.38Y-115.93
X136.15Y-80.95
X136.65Y-79.95
X136.905Y-76.185
X137.15Y-80.95
X141.9Y-73.9
X141.9Y-117.2
X141.925Y-90.77
X142.15Y-85.7
X142.15Y-88.2
X148.7Y-73.9
X148.8Y-117.3
X152.1Y-115.6
X152.4Y-106.2
X152.825Y-100.95
X153.65Y-80.95
X154.15Y-79.95
X154.4Y-116.2
X154.65Y-80.95
X157.27Y-114.4
X159.15Y-115.2
X160.88Y-115.93
X161.65Y-80.95
X162.15Y-79.95
X162.405Y-76.185
X162.65Y-80.95
X167.4Y-73.9
X167.4Y-117.2
X167.425Y-90.77
X167.65Y-85.7
X167.65Y-88.2
X174.2Y-73.9
X174.3Y-117.3
X177.6Y-115.6
X177.9Y-106.2
X178.325Y-100.95
X179.15Y-80.95
X179.65Y-79.95
X179.9Y-116.2
X180.15Y-80.95
X182.77Y-114.4
X184.65Y-115.2
X186.38Y-115.93
X187.15Y-80.95
X187.65Y-79.95
X187.905Y-76.185
X188.15Y-80.95
X192.9Y-73.9
X192.9Y-117.2
X192.925Y-90.77
X193.15Y-85.7
X193.15Y-88.2
T2
X99.455Y-76.785
X99.455Y-79.325
X99.455Y-81.865
X99.455Y-84.405
X99.455Y-86.945
X99.455Y-89.485
X99.455Y-92.025
X99.455Y-94.565
X99.455Y-97.105
X99.455Y-99.645
X99.455Y-102.185
X99.455Y-104.725
X99.455Y-107.265
X99.455Y-109.805
X99.455Y-112.345
X114.695Y-76.785
X114.695Y-79.325
X114.695Y-81.865
X114.695Y-84.405
X114.695Y-86.945
X114.695Y-89.485
X114.695Y-92.025
X114.695Y-94.565
X114.695Y-97.105
X114.695Y-99.645
X114.695Y-102.185
X114.695Y-104.725
X114.695Y-107.265
X114.695Y-109.805
X114.695Y-112.345
X124.955Y-76.785
X124.955Y-79.325
X124.955Y-81.865
X124.955Y-84.405
X124.955Y-86.945
X124.955Y-89.485
X124.955Y-92.025
X124.955Y-94.565
X124.955Y-97.105
X124.955Y-99.645
X124.955Y-102.185
X124.955Y-104.725
X124.955Y-107.265
X124.955Y-109.805
X124.955Y-112.345
X140.195Y-76.785
X140.195Y-79.325
X140.195Y-81.865
X140.195Y-84.405
X140.195Y-86.945
X140.195Y-89.485
X140.195Y-92.025
X140.195Y-94.565
X140.195Y-97.105
X140.195Y-99.645
X140.195Y-102.185
X140.195Y-104.725
X140.195Y-107.265
X140.195Y-109.805
X140.195Y-112.345
X150.455Y-76.785
X150.455Y-79.325
X150.455Y-81.865
X150.455Y-84.405
X150.455Y-86.945
X150.455Y-89.485
X150.455Y-92.025
X150.455Y-94.565
X150.455Y-97.105
X150.455Y-99.645
X150.455Y-102.185
X150.455Y-104.725
X150.455Y-107.265
X150.455Y-109.805
X150.455Y-112.345
X165.695Y-76.785
X165.695Y-79.325
X165.695Y-81.865
X165.695Y-84.405
X165.695Y-86.945
X165.695Y-89.485
X165.695Y-92.025
X165.695Y-94.565
X165.695Y-97.105
X165.695Y-99.645
X165.695Y-102.185
X165.695Y-104.725
X165.695Y-107.265
X165.695Y-109.805
X165.695Y-112.345
X175.955Y-76.785
X175.955Y-79.325
X175.955Y-81.865
X175.955Y-84.405
X175.955Y-86.945
X175.955Y-89.485
X175.955Y-92.025
X175.955Y-94.565
X175.955Y-97.105
X175.955Y-99.645
X175.955Y-102.185
X175.955Y-104.725
X175.955Y-107.265
X175.955Y-109.805
X175.955Y-112.345
X191.195Y-76.785
X191.195Y-79.325
X191.195Y-81.865
X191.195Y-84.405
X191.195Y-86.945
X191.195Y-89.485
X191.195Y-92.025
X191.195Y-94.565
X191.195Y-97.105
X191.195Y-99.645
X191.195Y-102.185
X191.195Y-104.725
X191.195Y-107.265
X191.195Y-109.805
X191.195Y-112.345
T3
X104.39Y-82.8
X104.39Y-85.099
X104.39Y-87.398
X104.39Y-89.697
X104.39Y-91.996
X104.39Y-94.295
X104.39Y-96.595
X104.39Y-98.894
X104.39Y-101.193
X104.39Y-103.492
X104.39Y-105.791
X104.39Y-108.09
X109.97Y-82.79
X109.97Y-85.09
X109.97Y-87.39
X109.97Y-89.69
X109.97Y-91.99
X109.97Y-94.29
X109.97Y-96.59
X109.97Y-98.89
X109.97Y-101.19
X109.97Y-103.49
X109.97Y-105.79
X109.97Y-108.09
X129.89Y-82.8
X129.89Y-85.099
X129.89Y-87.398
X129.89Y-89.697
X129.89Y-91.996
X129.89Y-94.295
X129.89Y-96.595
X129.89Y-98.894
X129.89Y-101.193
X129.89Y-103.492
X129.89Y-105.791
X129.89Y-108.09
X135.47Y-82.79
X135.47Y-85.09
X135.47Y-87.39
X135.47Y-89.69
X135.47Y-91.99
X135.47Y-94.29
X135.47Y-96.59
X135.47Y-98.89
X135.47Y-101.19
X135.47Y-103.49
X135.47Y-105.79
X135.47Y-108.09
X155.39Y-82.8
X155.39Y-85.099
X155.39Y-87.398
X155.39Y-89.697
X155.39Y-91.996
X155.39Y-94.295
X155.39Y-96.595
X155.39Y-98.894
X155.39Y-101.193
X155.39Y-103.492
X155.39Y-105.791
X155.39Y-108.09
X160.97Y-82.79
X160.97Y-85.09
X160.97Y-87.39
X160.97Y-89.69
X160.97Y-91.99
X160.97Y-94.29
X160.97Y-96.59
X160.97Y-98.89
X160.97Y-101.19
X160.97Y-103.49
X160.97Y-105.79
X160.97Y-108.09
X180.89Y-82.8
X180.89Y-85.099
X180.89Y-87.398
X180.89Y-89.697
X180.89Y-91.996
X180.89Y-94.295
X180.89Y-96.595
X180.89Y-98.894
X180.89Y-101.193
X180.89Y-103.492
X180.89Y-105.791
X180.89Y-108.09
X186.47Y-82.79
X186.47Y-85.09
X186.47Y-87.39
X186.47Y-89.69
X186.47Y-91.99
X186.47Y-94.29
X186.47Y-96.59
X186.47Y-98.89
X186.47Y-101.19
X186.47Y-103.49
X186.47Y-105.79
X186.47Y-108.09
T0
M30
