G04 #@! TF.GenerationSoftware,KiCad,Pcbnew,6.0.1-79c1e3a40b~116~ubuntu20.04.1*
G04 #@! TF.CreationDate,2022-01-18T16:27:04+01:00*
G04 #@! TF.ProjectId,4xArduino_GPIB_Adapter,34784172-6475-4696-9e6f-5f475049425f,rev?*
G04 #@! TF.SameCoordinates,Original*
G04 #@! TF.FileFunction,Legend,Bot*
G04 #@! TF.FilePolarity,Positive*
%FSLAX46Y46*%
G04 Gerber Fmt 4.6, Leading zero omitted, Abs format (unit mm)*
G04 Created by KiCad (PCBNEW 6.0.1-79c1e3a40b~116~ubuntu20.04.1) date 2022-01-18 16:27:04*
%MOMM*%
%LPD*%
G01*
G04 APERTURE LIST*
G04 Aperture macros list*
%AMRoundRect*
0 Rectangle with rounded corners*
0 $1 Rounding radius*
0 $2 $3 $4 $5 $6 $7 $8 $9 X,Y pos of 4 corners*
0 Add a 4 corners polygon primitive as box body*
4,1,4,$2,$3,$4,$5,$6,$7,$8,$9,$2,$3,0*
0 Add four circle primitives for the rounded corners*
1,1,$1+$1,$2,$3*
1,1,$1+$1,$4,$5*
1,1,$1+$1,$6,$7*
1,1,$1+$1,$8,$9*
0 Add four rect primitives between the rounded corners*
20,1,$1+$1,$2,$3,$4,$5,0*
20,1,$1+$1,$4,$5,$6,$7,0*
20,1,$1+$1,$6,$7,$8,$9,0*
20,1,$1+$1,$8,$9,$2,$3,0*%
G04 Aperture macros list end*
%ADD10C,0.200000*%
%ADD11C,0.250000*%
%ADD12C,0.120000*%
%ADD13RoundRect,0.476000X-0.625000X-0.425000X0.625000X-0.425000X0.625000X0.425000X-0.625000X0.425000X0*%
%ADD14O,2.202000X1.802000*%
%ADD15C,0.602000*%
G04 APERTURE END LIST*
D10*
X107620000Y-104836666D02*
X107667619Y-104970000D01*
X107667619Y-105170000D01*
X107620000Y-105370000D01*
X107524761Y-105503333D01*
X107429523Y-105570000D01*
X107239047Y-105636666D01*
X107096190Y-105636666D01*
X106905714Y-105570000D01*
X106810476Y-105503333D01*
X106715238Y-105370000D01*
X106667619Y-105170000D01*
X106667619Y-105036666D01*
X106715238Y-104836666D01*
X106762857Y-104770000D01*
X107096190Y-104770000D01*
X107096190Y-105036666D01*
X106667619Y-104170000D02*
X107667619Y-104170000D01*
X107667619Y-103636666D01*
X107620000Y-103503333D01*
X107572380Y-103436666D01*
X107477142Y-103370000D01*
X107334285Y-103370000D01*
X107239047Y-103436666D01*
X107191428Y-103503333D01*
X107143809Y-103636666D01*
X107143809Y-104170000D01*
X107048571Y-102770000D02*
X107048571Y-101703333D01*
X106667619Y-101036666D02*
X107667619Y-101036666D01*
X107191428Y-99903333D02*
X107143809Y-99703333D01*
X107096190Y-99636666D01*
X107000952Y-99570000D01*
X106858095Y-99570000D01*
X106762857Y-99636666D01*
X106715238Y-99703333D01*
X106667619Y-99836666D01*
X106667619Y-100370000D01*
X107667619Y-100370000D01*
X107667619Y-99903333D01*
X107620000Y-99770000D01*
X107572380Y-99703333D01*
X107477142Y-99636666D01*
X107381904Y-99636666D01*
X107286666Y-99703333D01*
X107239047Y-99770000D01*
X107191428Y-99903333D01*
X107191428Y-100370000D01*
X106762857Y-97103333D02*
X106715238Y-97170000D01*
X106667619Y-97370000D01*
X106667619Y-97503333D01*
X106715238Y-97703333D01*
X106810476Y-97836666D01*
X106905714Y-97903333D01*
X107096190Y-97970000D01*
X107239047Y-97970000D01*
X107429523Y-97903333D01*
X107524761Y-97836666D01*
X107620000Y-97703333D01*
X107667619Y-97503333D01*
X107667619Y-97370000D01*
X107620000Y-97170000D01*
X107572380Y-97103333D01*
X107667619Y-96236666D02*
X107667619Y-95970000D01*
X107620000Y-95836666D01*
X107524761Y-95703333D01*
X107334285Y-95636666D01*
X107000952Y-95636666D01*
X106810476Y-95703333D01*
X106715238Y-95836666D01*
X106667619Y-95970000D01*
X106667619Y-96236666D01*
X106715238Y-96370000D01*
X106810476Y-96503333D01*
X107000952Y-96570000D01*
X107334285Y-96570000D01*
X107524761Y-96503333D01*
X107620000Y-96370000D01*
X107667619Y-96236666D01*
X106667619Y-95036666D02*
X107667619Y-95036666D01*
X106667619Y-94236666D01*
X107667619Y-94236666D01*
X106667619Y-93570000D02*
X107667619Y-93570000D01*
X106667619Y-92770000D01*
X107667619Y-92770000D01*
X107191428Y-92103333D02*
X107191428Y-91636666D01*
X106667619Y-91436666D02*
X106667619Y-92103333D01*
X107667619Y-92103333D01*
X107667619Y-91436666D01*
X106762857Y-90036666D02*
X106715238Y-90103333D01*
X106667619Y-90303333D01*
X106667619Y-90436666D01*
X106715238Y-90636666D01*
X106810476Y-90770000D01*
X106905714Y-90836666D01*
X107096190Y-90903333D01*
X107239047Y-90903333D01*
X107429523Y-90836666D01*
X107524761Y-90770000D01*
X107620000Y-90636666D01*
X107667619Y-90436666D01*
X107667619Y-90303333D01*
X107620000Y-90103333D01*
X107572380Y-90036666D01*
X107667619Y-89636666D02*
X107667619Y-88836666D01*
X106667619Y-89236666D02*
X107667619Y-89236666D01*
X107667619Y-88103333D02*
X107667619Y-87836666D01*
X107620000Y-87703333D01*
X107524761Y-87570000D01*
X107334285Y-87503333D01*
X107000952Y-87503333D01*
X106810476Y-87570000D01*
X106715238Y-87703333D01*
X106667619Y-87836666D01*
X106667619Y-88103333D01*
X106715238Y-88236666D01*
X106810476Y-88370000D01*
X107000952Y-88436666D01*
X107334285Y-88436666D01*
X107524761Y-88370000D01*
X107620000Y-88236666D01*
X107667619Y-88103333D01*
X106667619Y-86103333D02*
X107143809Y-86570000D01*
X106667619Y-86903333D02*
X107667619Y-86903333D01*
X107667619Y-86370000D01*
X107620000Y-86236666D01*
X107572380Y-86170000D01*
X107477142Y-86103333D01*
X107334285Y-86103333D01*
X107239047Y-86170000D01*
X107191428Y-86236666D01*
X107143809Y-86370000D01*
X107143809Y-86903333D01*
X158620000Y-104836666D02*
X158667619Y-104970000D01*
X158667619Y-105170000D01*
X158620000Y-105370000D01*
X158524761Y-105503333D01*
X158429523Y-105570000D01*
X158239047Y-105636666D01*
X158096190Y-105636666D01*
X157905714Y-105570000D01*
X157810476Y-105503333D01*
X157715238Y-105370000D01*
X157667619Y-105170000D01*
X157667619Y-105036666D01*
X157715238Y-104836666D01*
X157762857Y-104770000D01*
X158096190Y-104770000D01*
X158096190Y-105036666D01*
X157667619Y-104170000D02*
X158667619Y-104170000D01*
X158667619Y-103636666D01*
X158620000Y-103503333D01*
X158572380Y-103436666D01*
X158477142Y-103370000D01*
X158334285Y-103370000D01*
X158239047Y-103436666D01*
X158191428Y-103503333D01*
X158143809Y-103636666D01*
X158143809Y-104170000D01*
X158048571Y-102770000D02*
X158048571Y-101703333D01*
X157667619Y-101036666D02*
X158667619Y-101036666D01*
X158191428Y-99903333D02*
X158143809Y-99703333D01*
X158096190Y-99636666D01*
X158000952Y-99570000D01*
X157858095Y-99570000D01*
X157762857Y-99636666D01*
X157715238Y-99703333D01*
X157667619Y-99836666D01*
X157667619Y-100370000D01*
X158667619Y-100370000D01*
X158667619Y-99903333D01*
X158620000Y-99770000D01*
X158572380Y-99703333D01*
X158477142Y-99636666D01*
X158381904Y-99636666D01*
X158286666Y-99703333D01*
X158239047Y-99770000D01*
X158191428Y-99903333D01*
X158191428Y-100370000D01*
X157762857Y-97103333D02*
X157715238Y-97170000D01*
X157667619Y-97370000D01*
X157667619Y-97503333D01*
X157715238Y-97703333D01*
X157810476Y-97836666D01*
X157905714Y-97903333D01*
X158096190Y-97970000D01*
X158239047Y-97970000D01*
X158429523Y-97903333D01*
X158524761Y-97836666D01*
X158620000Y-97703333D01*
X158667619Y-97503333D01*
X158667619Y-97370000D01*
X158620000Y-97170000D01*
X158572380Y-97103333D01*
X158667619Y-96236666D02*
X158667619Y-95970000D01*
X158620000Y-95836666D01*
X158524761Y-95703333D01*
X158334285Y-95636666D01*
X158000952Y-95636666D01*
X157810476Y-95703333D01*
X157715238Y-95836666D01*
X157667619Y-95970000D01*
X157667619Y-96236666D01*
X157715238Y-96370000D01*
X157810476Y-96503333D01*
X158000952Y-96570000D01*
X158334285Y-96570000D01*
X158524761Y-96503333D01*
X158620000Y-96370000D01*
X158667619Y-96236666D01*
X157667619Y-95036666D02*
X158667619Y-95036666D01*
X157667619Y-94236666D01*
X158667619Y-94236666D01*
X157667619Y-93570000D02*
X158667619Y-93570000D01*
X157667619Y-92770000D01*
X158667619Y-92770000D01*
X158191428Y-92103333D02*
X158191428Y-91636666D01*
X157667619Y-91436666D02*
X157667619Y-92103333D01*
X158667619Y-92103333D01*
X158667619Y-91436666D01*
X157762857Y-90036666D02*
X157715238Y-90103333D01*
X157667619Y-90303333D01*
X157667619Y-90436666D01*
X157715238Y-90636666D01*
X157810476Y-90770000D01*
X157905714Y-90836666D01*
X158096190Y-90903333D01*
X158239047Y-90903333D01*
X158429523Y-90836666D01*
X158524761Y-90770000D01*
X158620000Y-90636666D01*
X158667619Y-90436666D01*
X158667619Y-90303333D01*
X158620000Y-90103333D01*
X158572380Y-90036666D01*
X158667619Y-89636666D02*
X158667619Y-88836666D01*
X157667619Y-89236666D02*
X158667619Y-89236666D01*
X158667619Y-88103333D02*
X158667619Y-87836666D01*
X158620000Y-87703333D01*
X158524761Y-87570000D01*
X158334285Y-87503333D01*
X158000952Y-87503333D01*
X157810476Y-87570000D01*
X157715238Y-87703333D01*
X157667619Y-87836666D01*
X157667619Y-88103333D01*
X157715238Y-88236666D01*
X157810476Y-88370000D01*
X158000952Y-88436666D01*
X158334285Y-88436666D01*
X158524761Y-88370000D01*
X158620000Y-88236666D01*
X158667619Y-88103333D01*
X157667619Y-86103333D02*
X158143809Y-86570000D01*
X157667619Y-86903333D02*
X158667619Y-86903333D01*
X158667619Y-86370000D01*
X158620000Y-86236666D01*
X158572380Y-86170000D01*
X158477142Y-86103333D01*
X158334285Y-86103333D01*
X158239047Y-86170000D01*
X158191428Y-86236666D01*
X158143809Y-86370000D01*
X158143809Y-86903333D01*
X133120000Y-104836666D02*
X133167619Y-104970000D01*
X133167619Y-105170000D01*
X133120000Y-105370000D01*
X133024761Y-105503333D01*
X132929523Y-105570000D01*
X132739047Y-105636666D01*
X132596190Y-105636666D01*
X132405714Y-105570000D01*
X132310476Y-105503333D01*
X132215238Y-105370000D01*
X132167619Y-105170000D01*
X132167619Y-105036666D01*
X132215238Y-104836666D01*
X132262857Y-104770000D01*
X132596190Y-104770000D01*
X132596190Y-105036666D01*
X132167619Y-104170000D02*
X133167619Y-104170000D01*
X133167619Y-103636666D01*
X133120000Y-103503333D01*
X133072380Y-103436666D01*
X132977142Y-103370000D01*
X132834285Y-103370000D01*
X132739047Y-103436666D01*
X132691428Y-103503333D01*
X132643809Y-103636666D01*
X132643809Y-104170000D01*
X132548571Y-102770000D02*
X132548571Y-101703333D01*
X132167619Y-101036666D02*
X133167619Y-101036666D01*
X132691428Y-99903333D02*
X132643809Y-99703333D01*
X132596190Y-99636666D01*
X132500952Y-99570000D01*
X132358095Y-99570000D01*
X132262857Y-99636666D01*
X132215238Y-99703333D01*
X132167619Y-99836666D01*
X132167619Y-100370000D01*
X133167619Y-100370000D01*
X133167619Y-99903333D01*
X133120000Y-99770000D01*
X133072380Y-99703333D01*
X132977142Y-99636666D01*
X132881904Y-99636666D01*
X132786666Y-99703333D01*
X132739047Y-99770000D01*
X132691428Y-99903333D01*
X132691428Y-100370000D01*
X132262857Y-97103333D02*
X132215238Y-97170000D01*
X132167619Y-97370000D01*
X132167619Y-97503333D01*
X132215238Y-97703333D01*
X132310476Y-97836666D01*
X132405714Y-97903333D01*
X132596190Y-97970000D01*
X132739047Y-97970000D01*
X132929523Y-97903333D01*
X133024761Y-97836666D01*
X133120000Y-97703333D01*
X133167619Y-97503333D01*
X133167619Y-97370000D01*
X133120000Y-97170000D01*
X133072380Y-97103333D01*
X133167619Y-96236666D02*
X133167619Y-95970000D01*
X133120000Y-95836666D01*
X133024761Y-95703333D01*
X132834285Y-95636666D01*
X132500952Y-95636666D01*
X132310476Y-95703333D01*
X132215238Y-95836666D01*
X132167619Y-95970000D01*
X132167619Y-96236666D01*
X132215238Y-96370000D01*
X132310476Y-96503333D01*
X132500952Y-96570000D01*
X132834285Y-96570000D01*
X133024761Y-96503333D01*
X133120000Y-96370000D01*
X133167619Y-96236666D01*
X132167619Y-95036666D02*
X133167619Y-95036666D01*
X132167619Y-94236666D01*
X133167619Y-94236666D01*
X132167619Y-93570000D02*
X133167619Y-93570000D01*
X132167619Y-92770000D01*
X133167619Y-92770000D01*
X132691428Y-92103333D02*
X132691428Y-91636666D01*
X132167619Y-91436666D02*
X132167619Y-92103333D01*
X133167619Y-92103333D01*
X133167619Y-91436666D01*
X132262857Y-90036666D02*
X132215238Y-90103333D01*
X132167619Y-90303333D01*
X132167619Y-90436666D01*
X132215238Y-90636666D01*
X132310476Y-90770000D01*
X132405714Y-90836666D01*
X132596190Y-90903333D01*
X132739047Y-90903333D01*
X132929523Y-90836666D01*
X133024761Y-90770000D01*
X133120000Y-90636666D01*
X133167619Y-90436666D01*
X133167619Y-90303333D01*
X133120000Y-90103333D01*
X133072380Y-90036666D01*
X133167619Y-89636666D02*
X133167619Y-88836666D01*
X132167619Y-89236666D02*
X133167619Y-89236666D01*
X133167619Y-88103333D02*
X133167619Y-87836666D01*
X133120000Y-87703333D01*
X133024761Y-87570000D01*
X132834285Y-87503333D01*
X132500952Y-87503333D01*
X132310476Y-87570000D01*
X132215238Y-87703333D01*
X132167619Y-87836666D01*
X132167619Y-88103333D01*
X132215238Y-88236666D01*
X132310476Y-88370000D01*
X132500952Y-88436666D01*
X132834285Y-88436666D01*
X133024761Y-88370000D01*
X133120000Y-88236666D01*
X133167619Y-88103333D01*
X132167619Y-86103333D02*
X132643809Y-86570000D01*
X132167619Y-86903333D02*
X133167619Y-86903333D01*
X133167619Y-86370000D01*
X133120000Y-86236666D01*
X133072380Y-86170000D01*
X132977142Y-86103333D01*
X132834285Y-86103333D01*
X132739047Y-86170000D01*
X132691428Y-86236666D01*
X132643809Y-86370000D01*
X132643809Y-86903333D01*
X184120000Y-104836666D02*
X184167619Y-104970000D01*
X184167619Y-105170000D01*
X184120000Y-105370000D01*
X184024761Y-105503333D01*
X183929523Y-105570000D01*
X183739047Y-105636666D01*
X183596190Y-105636666D01*
X183405714Y-105570000D01*
X183310476Y-105503333D01*
X183215238Y-105370000D01*
X183167619Y-105170000D01*
X183167619Y-105036666D01*
X183215238Y-104836666D01*
X183262857Y-104770000D01*
X183596190Y-104770000D01*
X183596190Y-105036666D01*
X183167619Y-104170000D02*
X184167619Y-104170000D01*
X184167619Y-103636666D01*
X184120000Y-103503333D01*
X184072380Y-103436666D01*
X183977142Y-103370000D01*
X183834285Y-103370000D01*
X183739047Y-103436666D01*
X183691428Y-103503333D01*
X183643809Y-103636666D01*
X183643809Y-104170000D01*
X183548571Y-102770000D02*
X183548571Y-101703333D01*
X183167619Y-101036666D02*
X184167619Y-101036666D01*
X183691428Y-99903333D02*
X183643809Y-99703333D01*
X183596190Y-99636666D01*
X183500952Y-99570000D01*
X183358095Y-99570000D01*
X183262857Y-99636666D01*
X183215238Y-99703333D01*
X183167619Y-99836666D01*
X183167619Y-100370000D01*
X184167619Y-100370000D01*
X184167619Y-99903333D01*
X184120000Y-99770000D01*
X184072380Y-99703333D01*
X183977142Y-99636666D01*
X183881904Y-99636666D01*
X183786666Y-99703333D01*
X183739047Y-99770000D01*
X183691428Y-99903333D01*
X183691428Y-100370000D01*
X183262857Y-97103333D02*
X183215238Y-97170000D01*
X183167619Y-97370000D01*
X183167619Y-97503333D01*
X183215238Y-97703333D01*
X183310476Y-97836666D01*
X183405714Y-97903333D01*
X183596190Y-97970000D01*
X183739047Y-97970000D01*
X183929523Y-97903333D01*
X184024761Y-97836666D01*
X184120000Y-97703333D01*
X184167619Y-97503333D01*
X184167619Y-97370000D01*
X184120000Y-97170000D01*
X184072380Y-97103333D01*
X184167619Y-96236666D02*
X184167619Y-95970000D01*
X184120000Y-95836666D01*
X184024761Y-95703333D01*
X183834285Y-95636666D01*
X183500952Y-95636666D01*
X183310476Y-95703333D01*
X183215238Y-95836666D01*
X183167619Y-95970000D01*
X183167619Y-96236666D01*
X183215238Y-96370000D01*
X183310476Y-96503333D01*
X183500952Y-96570000D01*
X183834285Y-96570000D01*
X184024761Y-96503333D01*
X184120000Y-96370000D01*
X184167619Y-96236666D01*
X183167619Y-95036666D02*
X184167619Y-95036666D01*
X183167619Y-94236666D01*
X184167619Y-94236666D01*
X183167619Y-93570000D02*
X184167619Y-93570000D01*
X183167619Y-92770000D01*
X184167619Y-92770000D01*
X183691428Y-92103333D02*
X183691428Y-91636666D01*
X183167619Y-91436666D02*
X183167619Y-92103333D01*
X184167619Y-92103333D01*
X184167619Y-91436666D01*
X183262857Y-90036666D02*
X183215238Y-90103333D01*
X183167619Y-90303333D01*
X183167619Y-90436666D01*
X183215238Y-90636666D01*
X183310476Y-90770000D01*
X183405714Y-90836666D01*
X183596190Y-90903333D01*
X183739047Y-90903333D01*
X183929523Y-90836666D01*
X184024761Y-90770000D01*
X184120000Y-90636666D01*
X184167619Y-90436666D01*
X184167619Y-90303333D01*
X184120000Y-90103333D01*
X184072380Y-90036666D01*
X184167619Y-89636666D02*
X184167619Y-88836666D01*
X183167619Y-89236666D02*
X184167619Y-89236666D01*
X184167619Y-88103333D02*
X184167619Y-87836666D01*
X184120000Y-87703333D01*
X184024761Y-87570000D01*
X183834285Y-87503333D01*
X183500952Y-87503333D01*
X183310476Y-87570000D01*
X183215238Y-87703333D01*
X183167619Y-87836666D01*
X183167619Y-88103333D01*
X183215238Y-88236666D01*
X183310476Y-88370000D01*
X183500952Y-88436666D01*
X183834285Y-88436666D01*
X184024761Y-88370000D01*
X184120000Y-88236666D01*
X184167619Y-88103333D01*
X183167619Y-86103333D02*
X183643809Y-86570000D01*
X183167619Y-86903333D02*
X184167619Y-86903333D01*
X184167619Y-86370000D01*
X184120000Y-86236666D01*
X184072380Y-86170000D01*
X183977142Y-86103333D01*
X183834285Y-86103333D01*
X183739047Y-86170000D01*
X183691428Y-86236666D01*
X183643809Y-86370000D01*
X183643809Y-86903333D01*
D11*
X101640000Y-80660000D02*
X101650000Y-110190000D01*
X109950000Y-76372001D02*
X103122974Y-78697936D01*
X109960000Y-114540000D02*
X103080000Y-112200000D01*
X112640000Y-112670000D02*
X112630000Y-78262001D01*
X109960000Y-114560000D02*
G75*
G03*
X112640000Y-112670000I665938J1900813D01*
G01*
X101649999Y-110190000D02*
G75*
G03*
X103110000Y-112210000I2042422J-61418D01*
G01*
X112630000Y-78262001D02*
G75*
G03*
X109950000Y-76372001I-2001696J6722D01*
G01*
X103122974Y-78697936D02*
G75*
G03*
X101640000Y-80660000I469989J-1896694D01*
G01*
X135450000Y-76372001D02*
X128622974Y-78697936D01*
X127140000Y-80660000D02*
X127150000Y-110190000D01*
X135460000Y-114540000D02*
X128580000Y-112200000D01*
X138140000Y-112670000D02*
X138130000Y-78262001D01*
X138130000Y-78262001D02*
G75*
G03*
X135450000Y-76372001I-2001696J6722D01*
G01*
X128622974Y-78697936D02*
G75*
G03*
X127140000Y-80660000I469989J-1896694D01*
G01*
X127149999Y-110190000D02*
G75*
G03*
X128610000Y-112210000I2042422J-61418D01*
G01*
X135460000Y-114560000D02*
G75*
G03*
X138140000Y-112670000I665938J1900813D01*
G01*
X186450000Y-76372001D02*
X179622974Y-78697936D01*
X186460000Y-114540000D02*
X179580000Y-112200000D01*
X178140000Y-80660000D02*
X178150000Y-110190000D01*
X189140000Y-112670000D02*
X189130000Y-78262001D01*
X179622974Y-78697936D02*
G75*
G03*
X178140000Y-80660000I469989J-1896694D01*
G01*
X186460000Y-114560000D02*
G75*
G03*
X189140000Y-112670000I665938J1900813D01*
G01*
X178149999Y-110190000D02*
G75*
G03*
X179610000Y-112210000I2042422J-61418D01*
G01*
X189130000Y-78262001D02*
G75*
G03*
X186450000Y-76372001I-2001696J6722D01*
G01*
X163640000Y-112670000D02*
X163630000Y-78262001D01*
X152640000Y-80660000D02*
X152650000Y-110190000D01*
X160960000Y-114540000D02*
X154080000Y-112200000D01*
X160950000Y-76372001D02*
X154122974Y-78697936D01*
X160960000Y-114560000D02*
G75*
G03*
X163640000Y-112670000I665938J1900813D01*
G01*
X163630000Y-78262001D02*
G75*
G03*
X160950000Y-76372001I-2001696J6722D01*
G01*
X152649999Y-110190000D02*
G75*
G03*
X154110000Y-112210000I2042422J-61418D01*
G01*
X154122974Y-78697936D02*
G75*
G03*
X152640000Y-80660000I469989J-1896694D01*
G01*
%LPC*%
D12*
X110700000Y-81920000D02*
X108830000Y-81920000D01*
X108830000Y-81920000D02*
X108830000Y-108940000D01*
X108830000Y-108940000D02*
X110700000Y-108940000D01*
X110700000Y-108940000D02*
X110700000Y-81920000D01*
G36*
X110700000Y-81920000D02*
G01*
X108830000Y-81920000D01*
X108830000Y-108940000D01*
X110700000Y-108940000D01*
X110700000Y-81920000D01*
G37*
X105515000Y-81890000D02*
X103645000Y-81890000D01*
X103645000Y-81890000D02*
X103645000Y-108910000D01*
X103645000Y-108910000D02*
X105515000Y-108910000D01*
X105515000Y-108910000D02*
X105515000Y-81890000D01*
G36*
X105515000Y-81890000D02*
G01*
X103645000Y-81890000D01*
X103645000Y-108910000D01*
X105515000Y-108910000D01*
X105515000Y-81890000D01*
G37*
X131015000Y-81890000D02*
X129145000Y-81890000D01*
X129145000Y-81890000D02*
X129145000Y-108910000D01*
X129145000Y-108910000D02*
X131015000Y-108910000D01*
X131015000Y-108910000D02*
X131015000Y-81890000D01*
G36*
X131015000Y-81890000D02*
G01*
X129145000Y-81890000D01*
X129145000Y-108910000D01*
X131015000Y-108910000D01*
X131015000Y-81890000D01*
G37*
X136200000Y-81920000D02*
X134330000Y-81920000D01*
X134330000Y-81920000D02*
X134330000Y-108940000D01*
X134330000Y-108940000D02*
X136200000Y-108940000D01*
X136200000Y-108940000D02*
X136200000Y-81920000D01*
G36*
X136200000Y-81920000D02*
G01*
X134330000Y-81920000D01*
X134330000Y-108940000D01*
X136200000Y-108940000D01*
X136200000Y-81920000D01*
G37*
X187200000Y-81920000D02*
X185330000Y-81920000D01*
X185330000Y-81920000D02*
X185330000Y-108940000D01*
X185330000Y-108940000D02*
X187200000Y-108940000D01*
X187200000Y-108940000D02*
X187200000Y-81920000D01*
G36*
X187200000Y-81920000D02*
G01*
X185330000Y-81920000D01*
X185330000Y-108940000D01*
X187200000Y-108940000D01*
X187200000Y-81920000D01*
G37*
X182015000Y-81890000D02*
X180145000Y-81890000D01*
X180145000Y-81890000D02*
X180145000Y-108910000D01*
X180145000Y-108910000D02*
X182015000Y-108910000D01*
X182015000Y-108910000D02*
X182015000Y-81890000D01*
G36*
X182015000Y-81890000D02*
G01*
X180145000Y-81890000D01*
X180145000Y-108910000D01*
X182015000Y-108910000D01*
X182015000Y-81890000D01*
G37*
X161700000Y-81920000D02*
X159830000Y-81920000D01*
X159830000Y-81920000D02*
X159830000Y-108940000D01*
X159830000Y-108940000D02*
X161700000Y-108940000D01*
X161700000Y-108940000D02*
X161700000Y-81920000D01*
G36*
X161700000Y-81920000D02*
G01*
X159830000Y-81920000D01*
X159830000Y-108940000D01*
X161700000Y-108940000D01*
X161700000Y-81920000D01*
G37*
X156515000Y-81890000D02*
X154645000Y-81890000D01*
X154645000Y-81890000D02*
X154645000Y-108910000D01*
X154645000Y-108910000D02*
X156515000Y-108910000D01*
X156515000Y-108910000D02*
X156515000Y-81890000D01*
G36*
X156515000Y-81890000D02*
G01*
X154645000Y-81890000D01*
X154645000Y-108910000D01*
X156515000Y-108910000D01*
X156515000Y-81890000D01*
G37*
D13*
X99455001Y-76785001D03*
D14*
X99455001Y-79325001D03*
X99455001Y-81865001D03*
X99455001Y-84405001D03*
X99455001Y-86945001D03*
X99455001Y-89485001D03*
X99455001Y-92025001D03*
X99455001Y-94565001D03*
X99455001Y-97105001D03*
X99455001Y-99645001D03*
X99455001Y-102185001D03*
X99455001Y-104725001D03*
X99455001Y-107265001D03*
X99455001Y-109805001D03*
X99455001Y-112345001D03*
X114695001Y-112345001D03*
X114695001Y-109805001D03*
X114695001Y-107265001D03*
X114695001Y-104725001D03*
X114695001Y-102185001D03*
X114695001Y-99645001D03*
X114695001Y-97105001D03*
X114695001Y-94565001D03*
X114695001Y-92025001D03*
X114695001Y-89485001D03*
X114695001Y-86945001D03*
X114695001Y-84405001D03*
X114695001Y-81865001D03*
X114695001Y-79325001D03*
X114695001Y-76785001D03*
D15*
X156660000Y-71450000D03*
X158160000Y-71450000D03*
X159660000Y-71450000D03*
X158910000Y-71450000D03*
X157410000Y-71450000D03*
X185160000Y-71450000D03*
X182160000Y-71450000D03*
X183660000Y-71450000D03*
X184410000Y-71450000D03*
X182910000Y-71450000D03*
D13*
X150455001Y-76785001D03*
D14*
X150455001Y-79325001D03*
X150455001Y-81865001D03*
X150455001Y-84405001D03*
X150455001Y-86945001D03*
X150455001Y-89485001D03*
X150455001Y-92025001D03*
X150455001Y-94565001D03*
X150455001Y-97105001D03*
X150455001Y-99645001D03*
X150455001Y-102185001D03*
X150455001Y-104725001D03*
X150455001Y-107265001D03*
X150455001Y-109805001D03*
X150455001Y-112345001D03*
X165695001Y-112345001D03*
X165695001Y-109805001D03*
X165695001Y-107265001D03*
X165695001Y-104725001D03*
X165695001Y-102185001D03*
X165695001Y-99645001D03*
X165695001Y-97105001D03*
X165695001Y-94565001D03*
X165695001Y-92025001D03*
X165695001Y-89485001D03*
X165695001Y-86945001D03*
X165695001Y-84405001D03*
X165695001Y-81865001D03*
X165695001Y-79325001D03*
X165695001Y-76785001D03*
D15*
X159730000Y-119950000D03*
X156730000Y-119950000D03*
X157480000Y-119950000D03*
X158980000Y-119950000D03*
X158230000Y-119950000D03*
X107910000Y-71450000D03*
X107160000Y-71450000D03*
X108660000Y-71450000D03*
X106410000Y-71450000D03*
X105660000Y-71450000D03*
X183730000Y-119950000D03*
X184480000Y-119950000D03*
X182230000Y-119950000D03*
X182980000Y-119950000D03*
X185230000Y-119950000D03*
X107980000Y-119950000D03*
X106480000Y-119950000D03*
X108730000Y-119950000D03*
X105730000Y-119950000D03*
X107230000Y-119950000D03*
X131980000Y-119950000D03*
X134230000Y-119950000D03*
X131230000Y-119950000D03*
X132730000Y-119950000D03*
X133480000Y-119950000D03*
D13*
X124955001Y-76785001D03*
D14*
X124955001Y-79325001D03*
X124955001Y-81865001D03*
X124955001Y-84405001D03*
X124955001Y-86945001D03*
X124955001Y-89485001D03*
X124955001Y-92025001D03*
X124955001Y-94565001D03*
X124955001Y-97105001D03*
X124955001Y-99645001D03*
X124955001Y-102185001D03*
X124955001Y-104725001D03*
X124955001Y-107265001D03*
X124955001Y-109805001D03*
X124955001Y-112345001D03*
X140195001Y-112345001D03*
X140195001Y-109805001D03*
X140195001Y-107265001D03*
X140195001Y-104725001D03*
X140195001Y-102185001D03*
X140195001Y-99645001D03*
X140195001Y-97105001D03*
X140195001Y-94565001D03*
X140195001Y-92025001D03*
X140195001Y-89485001D03*
X140195001Y-86945001D03*
X140195001Y-84405001D03*
X140195001Y-81865001D03*
X140195001Y-79325001D03*
X140195001Y-76785001D03*
D13*
X175955001Y-76785001D03*
D14*
X175955001Y-79325001D03*
X175955001Y-81865001D03*
X175955001Y-84405001D03*
X175955001Y-86945001D03*
X175955001Y-89485001D03*
X175955001Y-92025001D03*
X175955001Y-94565001D03*
X175955001Y-97105001D03*
X175955001Y-99645001D03*
X175955001Y-102185001D03*
X175955001Y-104725001D03*
X175955001Y-107265001D03*
X175955001Y-109805001D03*
X175955001Y-112345001D03*
X191195001Y-112345001D03*
X191195001Y-109805001D03*
X191195001Y-107265001D03*
X191195001Y-104725001D03*
X191195001Y-102185001D03*
X191195001Y-99645001D03*
X191195001Y-97105001D03*
X191195001Y-94565001D03*
X191195001Y-92025001D03*
X191195001Y-89485001D03*
X191195001Y-86945001D03*
X191195001Y-84405001D03*
X191195001Y-81865001D03*
X191195001Y-79325001D03*
X191195001Y-76785001D03*
D15*
X132660000Y-71450000D03*
X131160000Y-71450000D03*
X133410000Y-71450000D03*
X131910000Y-71450000D03*
X134160000Y-71450000D03*
M02*
