%TF.GenerationSoftware,KiCad,Pcbnew,6.0.3-a3aad9c10e~116~ubuntu20.04.1*%
%TF.CreationDate,2022-03-20T14:38:18+01:00*%
%TF.ProjectId,5xPro_Micro_GPIB,35785072-6f5f-44d6-9963-726f5f475049,rev?*%
%TF.SameCoordinates,Original*%
%TF.FileFunction,Legend,Bot*%
%TF.FilePolarity,Positive*%
%FSLAX46Y46*%
G04 Gerber Fmt 4.6, Leading zero omitted, Abs format (unit mm)*
G04 Created by KiCad (PCBNEW 6.0.3-a3aad9c10e~116~ubuntu20.04.1) date 2022-03-20 14:38:18*
%MOMM*%
%LPD*%
G01*
G04 APERTURE LIST*
%ADD10C,0.150000*%
%ADD11C,0.300000*%
G04 APERTURE END LIST*
D10*
X123104000Y-117892000D02*
X123094000Y-107209490D01*
X107854000Y-117872000D02*
X112535300Y-122618710D01*
X184324000Y-75611645D02*
X184324000Y-73642000D01*
X173743138Y-122623552D02*
G75*
G03*
X179615400Y-122606010I2925862J3446552D01*
G01*
X87449000Y-75582000D02*
X87449000Y-73672000D01*
X87454000Y-117872000D02*
X92135300Y-122618710D01*
X184304000Y-117892000D02*
X184294000Y-107209490D01*
X87449000Y-73672000D02*
X92135300Y-68948510D01*
X148649000Y-73672000D02*
X153335300Y-68948510D01*
X143504000Y-117892000D02*
X138815400Y-122606010D01*
X107854000Y-117872000D02*
X107849000Y-107152000D01*
X159215399Y-68961212D02*
G75*
G03*
X153343140Y-68943670I-2946399J-3428988D01*
G01*
X123104000Y-117892000D02*
X118415400Y-122606010D01*
X128254000Y-117872000D02*
X132935300Y-122618710D01*
X102704000Y-117892000D02*
X98015400Y-122606010D01*
X163904000Y-117892000D02*
X163894000Y-107209490D01*
X102724000Y-75611645D02*
X102724000Y-73642000D01*
X92143138Y-122623552D02*
G75*
G03*
X98015400Y-122606010I2925862J3446552D01*
G01*
X138815399Y-68961212D02*
G75*
G03*
X132943140Y-68943670I-2946399J-3428988D01*
G01*
X123124000Y-75611645D02*
X123124000Y-73642000D01*
X87454000Y-117872000D02*
X87449000Y-107152000D01*
X143504000Y-73642000D02*
X138828100Y-68973910D01*
X163904000Y-117892000D02*
X159215400Y-122606010D01*
X163904000Y-73642000D02*
X159228100Y-68973910D01*
X148649000Y-75582000D02*
X148649000Y-73672000D01*
X184304000Y-73642000D02*
X179628100Y-68973910D01*
X169054000Y-117872000D02*
X173735300Y-122618710D01*
X143504000Y-117892000D02*
X143494000Y-107209490D01*
X132943138Y-122623552D02*
G75*
G03*
X138815400Y-122606010I2925862J3446552D01*
G01*
X107849000Y-75582000D02*
X107849000Y-73672000D01*
X123104000Y-73642000D02*
X118428100Y-68973910D01*
X98015399Y-68961212D02*
G75*
G03*
X92143140Y-68943670I-2946399J-3428988D01*
G01*
X163924000Y-75611645D02*
X163924000Y-73642000D01*
X112543138Y-122623552D02*
G75*
G03*
X118415400Y-122606010I2925862J3446552D01*
G01*
X118415399Y-68961212D02*
G75*
G03*
X112543140Y-68943670I-2946399J-3428988D01*
G01*
X143524000Y-75611645D02*
X143524000Y-73642000D01*
X153343138Y-122623552D02*
G75*
G03*
X159215400Y-122606010I2925862J3446552D01*
G01*
X169049000Y-75582000D02*
X169049000Y-73672000D01*
X184304000Y-117892000D02*
X179615400Y-122606010D01*
X128249000Y-73672000D02*
X132935300Y-68948510D01*
X148654000Y-117872000D02*
X148649000Y-107152000D01*
X169054000Y-117872000D02*
X169049000Y-107152000D01*
X169049000Y-73672000D02*
X173735300Y-68948510D01*
X148654000Y-117872000D02*
X153335300Y-122618710D01*
X102704000Y-117892000D02*
X102694000Y-107209490D01*
X128249000Y-75582000D02*
X128249000Y-73672000D01*
X179615399Y-68961212D02*
G75*
G03*
X173743140Y-68943670I-2946399J-3428988D01*
G01*
X107849000Y-73672000D02*
X112535300Y-68948510D01*
X128254000Y-117872000D02*
X128249000Y-107152000D01*
X102704000Y-73642000D02*
X98028100Y-68973910D01*
D11*
%TO.C,J10*%
X157000000Y-107498571D02*
X157080952Y-107670000D01*
X157080952Y-107927142D01*
X157000000Y-108184285D01*
X156838095Y-108355714D01*
X156676190Y-108441428D01*
X156352380Y-108527142D01*
X156109523Y-108527142D01*
X155785714Y-108441428D01*
X155623809Y-108355714D01*
X155461904Y-108184285D01*
X155380952Y-107927142D01*
X155380952Y-107755714D01*
X155461904Y-107498571D01*
X155542857Y-107412857D01*
X156109523Y-107412857D01*
X156109523Y-107755714D01*
X155380952Y-106641428D02*
X157080952Y-106641428D01*
X157080952Y-105955714D01*
X157000000Y-105784285D01*
X156919047Y-105698571D01*
X156757142Y-105612857D01*
X156514285Y-105612857D01*
X156352380Y-105698571D01*
X156271428Y-105784285D01*
X156190476Y-105955714D01*
X156190476Y-106641428D01*
X156028571Y-104841428D02*
X156028571Y-103470000D01*
X155380952Y-102612857D02*
X157080952Y-102612857D01*
X156271428Y-101155714D02*
X156190476Y-100898571D01*
X156109523Y-100812857D01*
X155947619Y-100727142D01*
X155704761Y-100727142D01*
X155542857Y-100812857D01*
X155461904Y-100898571D01*
X155380952Y-101070000D01*
X155380952Y-101755714D01*
X157080952Y-101755714D01*
X157080952Y-101155714D01*
X157000000Y-100984285D01*
X156919047Y-100898571D01*
X156757142Y-100812857D01*
X156595238Y-100812857D01*
X156433333Y-100898571D01*
X156352380Y-100984285D01*
X156271428Y-101155714D01*
X156271428Y-101755714D01*
X155542857Y-97555714D02*
X155461904Y-97641428D01*
X155380952Y-97898571D01*
X155380952Y-98070000D01*
X155461904Y-98327142D01*
X155623809Y-98498571D01*
X155785714Y-98584285D01*
X156109523Y-98670000D01*
X156352380Y-98670000D01*
X156676190Y-98584285D01*
X156838095Y-98498571D01*
X157000000Y-98327142D01*
X157080952Y-98070000D01*
X157080952Y-97898571D01*
X157000000Y-97641428D01*
X156919047Y-97555714D01*
X157080952Y-96441428D02*
X157080952Y-96098571D01*
X157000000Y-95927142D01*
X156838095Y-95755714D01*
X156514285Y-95670000D01*
X155947619Y-95670000D01*
X155623809Y-95755714D01*
X155461904Y-95927142D01*
X155380952Y-96098571D01*
X155380952Y-96441428D01*
X155461904Y-96612857D01*
X155623809Y-96784285D01*
X155947619Y-96870000D01*
X156514285Y-96870000D01*
X156838095Y-96784285D01*
X157000000Y-96612857D01*
X157080952Y-96441428D01*
X155380952Y-94898571D02*
X157080952Y-94898571D01*
X155380952Y-93870000D01*
X157080952Y-93870000D01*
X155380952Y-93012857D02*
X157080952Y-93012857D01*
X155380952Y-91984285D01*
X157080952Y-91984285D01*
X156271428Y-91127142D02*
X156271428Y-90527142D01*
X155380952Y-90270000D02*
X155380952Y-91127142D01*
X157080952Y-91127142D01*
X157080952Y-90270000D01*
X155542857Y-88470000D02*
X155461904Y-88555714D01*
X155380952Y-88812857D01*
X155380952Y-88984285D01*
X155461904Y-89241428D01*
X155623809Y-89412857D01*
X155785714Y-89498571D01*
X156109523Y-89584285D01*
X156352380Y-89584285D01*
X156676190Y-89498571D01*
X156838095Y-89412857D01*
X157000000Y-89241428D01*
X157080952Y-88984285D01*
X157080952Y-88812857D01*
X157000000Y-88555714D01*
X156919047Y-88470000D01*
X157080952Y-87955714D02*
X157080952Y-86927142D01*
X155380952Y-87441428D02*
X157080952Y-87441428D01*
X157080952Y-85984285D02*
X157080952Y-85641428D01*
X157000000Y-85470000D01*
X156838095Y-85298571D01*
X156514285Y-85212857D01*
X155947619Y-85212857D01*
X155623809Y-85298571D01*
X155461904Y-85470000D01*
X155380952Y-85641428D01*
X155380952Y-85984285D01*
X155461904Y-86155714D01*
X155623809Y-86327142D01*
X155947619Y-86412857D01*
X156514285Y-86412857D01*
X156838095Y-86327142D01*
X157000000Y-86155714D01*
X157080952Y-85984285D01*
X155380952Y-83412857D02*
X156190476Y-84012857D01*
X155380952Y-84441428D02*
X157080952Y-84441428D01*
X157080952Y-83755714D01*
X157000000Y-83584285D01*
X156919047Y-83498571D01*
X156757142Y-83412857D01*
X156514285Y-83412857D01*
X156352380Y-83498571D01*
X156271428Y-83584285D01*
X156190476Y-83755714D01*
X156190476Y-84441428D01*
%TO.C,J7*%
X136600000Y-107498571D02*
X136680952Y-107670000D01*
X136680952Y-107927142D01*
X136600000Y-108184285D01*
X136438095Y-108355714D01*
X136276190Y-108441428D01*
X135952380Y-108527142D01*
X135709523Y-108527142D01*
X135385714Y-108441428D01*
X135223809Y-108355714D01*
X135061904Y-108184285D01*
X134980952Y-107927142D01*
X134980952Y-107755714D01*
X135061904Y-107498571D01*
X135142857Y-107412857D01*
X135709523Y-107412857D01*
X135709523Y-107755714D01*
X134980952Y-106641428D02*
X136680952Y-106641428D01*
X136680952Y-105955714D01*
X136600000Y-105784285D01*
X136519047Y-105698571D01*
X136357142Y-105612857D01*
X136114285Y-105612857D01*
X135952380Y-105698571D01*
X135871428Y-105784285D01*
X135790476Y-105955714D01*
X135790476Y-106641428D01*
X135628571Y-104841428D02*
X135628571Y-103470000D01*
X134980952Y-102612857D02*
X136680952Y-102612857D01*
X135871428Y-101155714D02*
X135790476Y-100898571D01*
X135709523Y-100812857D01*
X135547619Y-100727142D01*
X135304761Y-100727142D01*
X135142857Y-100812857D01*
X135061904Y-100898571D01*
X134980952Y-101070000D01*
X134980952Y-101755714D01*
X136680952Y-101755714D01*
X136680952Y-101155714D01*
X136600000Y-100984285D01*
X136519047Y-100898571D01*
X136357142Y-100812857D01*
X136195238Y-100812857D01*
X136033333Y-100898571D01*
X135952380Y-100984285D01*
X135871428Y-101155714D01*
X135871428Y-101755714D01*
X135142857Y-97555714D02*
X135061904Y-97641428D01*
X134980952Y-97898571D01*
X134980952Y-98070000D01*
X135061904Y-98327142D01*
X135223809Y-98498571D01*
X135385714Y-98584285D01*
X135709523Y-98670000D01*
X135952380Y-98670000D01*
X136276190Y-98584285D01*
X136438095Y-98498571D01*
X136600000Y-98327142D01*
X136680952Y-98070000D01*
X136680952Y-97898571D01*
X136600000Y-97641428D01*
X136519047Y-97555714D01*
X136680952Y-96441428D02*
X136680952Y-96098571D01*
X136600000Y-95927142D01*
X136438095Y-95755714D01*
X136114285Y-95670000D01*
X135547619Y-95670000D01*
X135223809Y-95755714D01*
X135061904Y-95927142D01*
X134980952Y-96098571D01*
X134980952Y-96441428D01*
X135061904Y-96612857D01*
X135223809Y-96784285D01*
X135547619Y-96870000D01*
X136114285Y-96870000D01*
X136438095Y-96784285D01*
X136600000Y-96612857D01*
X136680952Y-96441428D01*
X134980952Y-94898571D02*
X136680952Y-94898571D01*
X134980952Y-93870000D01*
X136680952Y-93870000D01*
X134980952Y-93012857D02*
X136680952Y-93012857D01*
X134980952Y-91984285D01*
X136680952Y-91984285D01*
X135871428Y-91127142D02*
X135871428Y-90527142D01*
X134980952Y-90270000D02*
X134980952Y-91127142D01*
X136680952Y-91127142D01*
X136680952Y-90270000D01*
X135142857Y-88470000D02*
X135061904Y-88555714D01*
X134980952Y-88812857D01*
X134980952Y-88984285D01*
X135061904Y-89241428D01*
X135223809Y-89412857D01*
X135385714Y-89498571D01*
X135709523Y-89584285D01*
X135952380Y-89584285D01*
X136276190Y-89498571D01*
X136438095Y-89412857D01*
X136600000Y-89241428D01*
X136680952Y-88984285D01*
X136680952Y-88812857D01*
X136600000Y-88555714D01*
X136519047Y-88470000D01*
X136680952Y-87955714D02*
X136680952Y-86927142D01*
X134980952Y-87441428D02*
X136680952Y-87441428D01*
X136680952Y-85984285D02*
X136680952Y-85641428D01*
X136600000Y-85470000D01*
X136438095Y-85298571D01*
X136114285Y-85212857D01*
X135547619Y-85212857D01*
X135223809Y-85298571D01*
X135061904Y-85470000D01*
X134980952Y-85641428D01*
X134980952Y-85984285D01*
X135061904Y-86155714D01*
X135223809Y-86327142D01*
X135547619Y-86412857D01*
X136114285Y-86412857D01*
X136438095Y-86327142D01*
X136600000Y-86155714D01*
X136680952Y-85984285D01*
X134980952Y-83412857D02*
X135790476Y-84012857D01*
X134980952Y-84441428D02*
X136680952Y-84441428D01*
X136680952Y-83755714D01*
X136600000Y-83584285D01*
X136519047Y-83498571D01*
X136357142Y-83412857D01*
X136114285Y-83412857D01*
X135952380Y-83498571D01*
X135871428Y-83584285D01*
X135790476Y-83755714D01*
X135790476Y-84441428D01*
%TO.C,J1*%
X95800000Y-107498571D02*
X95880952Y-107670000D01*
X95880952Y-107927142D01*
X95800000Y-108184285D01*
X95638095Y-108355714D01*
X95476190Y-108441428D01*
X95152380Y-108527142D01*
X94909523Y-108527142D01*
X94585714Y-108441428D01*
X94423809Y-108355714D01*
X94261904Y-108184285D01*
X94180952Y-107927142D01*
X94180952Y-107755714D01*
X94261904Y-107498571D01*
X94342857Y-107412857D01*
X94909523Y-107412857D01*
X94909523Y-107755714D01*
X94180952Y-106641428D02*
X95880952Y-106641428D01*
X95880952Y-105955714D01*
X95800000Y-105784285D01*
X95719047Y-105698571D01*
X95557142Y-105612857D01*
X95314285Y-105612857D01*
X95152380Y-105698571D01*
X95071428Y-105784285D01*
X94990476Y-105955714D01*
X94990476Y-106641428D01*
X94828571Y-104841428D02*
X94828571Y-103470000D01*
X94180952Y-102612857D02*
X95880952Y-102612857D01*
X95071428Y-101155714D02*
X94990476Y-100898571D01*
X94909523Y-100812857D01*
X94747619Y-100727142D01*
X94504761Y-100727142D01*
X94342857Y-100812857D01*
X94261904Y-100898571D01*
X94180952Y-101070000D01*
X94180952Y-101755714D01*
X95880952Y-101755714D01*
X95880952Y-101155714D01*
X95800000Y-100984285D01*
X95719047Y-100898571D01*
X95557142Y-100812857D01*
X95395238Y-100812857D01*
X95233333Y-100898571D01*
X95152380Y-100984285D01*
X95071428Y-101155714D01*
X95071428Y-101755714D01*
X94342857Y-97555714D02*
X94261904Y-97641428D01*
X94180952Y-97898571D01*
X94180952Y-98070000D01*
X94261904Y-98327142D01*
X94423809Y-98498571D01*
X94585714Y-98584285D01*
X94909523Y-98670000D01*
X95152380Y-98670000D01*
X95476190Y-98584285D01*
X95638095Y-98498571D01*
X95800000Y-98327142D01*
X95880952Y-98070000D01*
X95880952Y-97898571D01*
X95800000Y-97641428D01*
X95719047Y-97555714D01*
X95880952Y-96441428D02*
X95880952Y-96098571D01*
X95800000Y-95927142D01*
X95638095Y-95755714D01*
X95314285Y-95670000D01*
X94747619Y-95670000D01*
X94423809Y-95755714D01*
X94261904Y-95927142D01*
X94180952Y-96098571D01*
X94180952Y-96441428D01*
X94261904Y-96612857D01*
X94423809Y-96784285D01*
X94747619Y-96870000D01*
X95314285Y-96870000D01*
X95638095Y-96784285D01*
X95800000Y-96612857D01*
X95880952Y-96441428D01*
X94180952Y-94898571D02*
X95880952Y-94898571D01*
X94180952Y-93870000D01*
X95880952Y-93870000D01*
X94180952Y-93012857D02*
X95880952Y-93012857D01*
X94180952Y-91984285D01*
X95880952Y-91984285D01*
X95071428Y-91127142D02*
X95071428Y-90527142D01*
X94180952Y-90270000D02*
X94180952Y-91127142D01*
X95880952Y-91127142D01*
X95880952Y-90270000D01*
X94342857Y-88470000D02*
X94261904Y-88555714D01*
X94180952Y-88812857D01*
X94180952Y-88984285D01*
X94261904Y-89241428D01*
X94423809Y-89412857D01*
X94585714Y-89498571D01*
X94909523Y-89584285D01*
X95152380Y-89584285D01*
X95476190Y-89498571D01*
X95638095Y-89412857D01*
X95800000Y-89241428D01*
X95880952Y-88984285D01*
X95880952Y-88812857D01*
X95800000Y-88555714D01*
X95719047Y-88470000D01*
X95880952Y-87955714D02*
X95880952Y-86927142D01*
X94180952Y-87441428D02*
X95880952Y-87441428D01*
X95880952Y-85984285D02*
X95880952Y-85641428D01*
X95800000Y-85470000D01*
X95638095Y-85298571D01*
X95314285Y-85212857D01*
X94747619Y-85212857D01*
X94423809Y-85298571D01*
X94261904Y-85470000D01*
X94180952Y-85641428D01*
X94180952Y-85984285D01*
X94261904Y-86155714D01*
X94423809Y-86327142D01*
X94747619Y-86412857D01*
X95314285Y-86412857D01*
X95638095Y-86327142D01*
X95800000Y-86155714D01*
X95880952Y-85984285D01*
X94180952Y-83412857D02*
X94990476Y-84012857D01*
X94180952Y-84441428D02*
X95880952Y-84441428D01*
X95880952Y-83755714D01*
X95800000Y-83584285D01*
X95719047Y-83498571D01*
X95557142Y-83412857D01*
X95314285Y-83412857D01*
X95152380Y-83498571D01*
X95071428Y-83584285D01*
X94990476Y-83755714D01*
X94990476Y-84441428D01*
%TO.C,J4*%
X116200000Y-107498571D02*
X116280952Y-107670000D01*
X116280952Y-107927142D01*
X116200000Y-108184285D01*
X116038095Y-108355714D01*
X115876190Y-108441428D01*
X115552380Y-108527142D01*
X115309523Y-108527142D01*
X114985714Y-108441428D01*
X114823809Y-108355714D01*
X114661904Y-108184285D01*
X114580952Y-107927142D01*
X114580952Y-107755714D01*
X114661904Y-107498571D01*
X114742857Y-107412857D01*
X115309523Y-107412857D01*
X115309523Y-107755714D01*
X114580952Y-106641428D02*
X116280952Y-106641428D01*
X116280952Y-105955714D01*
X116200000Y-105784285D01*
X116119047Y-105698571D01*
X115957142Y-105612857D01*
X115714285Y-105612857D01*
X115552380Y-105698571D01*
X115471428Y-105784285D01*
X115390476Y-105955714D01*
X115390476Y-106641428D01*
X115228571Y-104841428D02*
X115228571Y-103470000D01*
X114580952Y-102612857D02*
X116280952Y-102612857D01*
X115471428Y-101155714D02*
X115390476Y-100898571D01*
X115309523Y-100812857D01*
X115147619Y-100727142D01*
X114904761Y-100727142D01*
X114742857Y-100812857D01*
X114661904Y-100898571D01*
X114580952Y-101070000D01*
X114580952Y-101755714D01*
X116280952Y-101755714D01*
X116280952Y-101155714D01*
X116200000Y-100984285D01*
X116119047Y-100898571D01*
X115957142Y-100812857D01*
X115795238Y-100812857D01*
X115633333Y-100898571D01*
X115552380Y-100984285D01*
X115471428Y-101155714D01*
X115471428Y-101755714D01*
X114742857Y-97555714D02*
X114661904Y-97641428D01*
X114580952Y-97898571D01*
X114580952Y-98070000D01*
X114661904Y-98327142D01*
X114823809Y-98498571D01*
X114985714Y-98584285D01*
X115309523Y-98670000D01*
X115552380Y-98670000D01*
X115876190Y-98584285D01*
X116038095Y-98498571D01*
X116200000Y-98327142D01*
X116280952Y-98070000D01*
X116280952Y-97898571D01*
X116200000Y-97641428D01*
X116119047Y-97555714D01*
X116280952Y-96441428D02*
X116280952Y-96098571D01*
X116200000Y-95927142D01*
X116038095Y-95755714D01*
X115714285Y-95670000D01*
X115147619Y-95670000D01*
X114823809Y-95755714D01*
X114661904Y-95927142D01*
X114580952Y-96098571D01*
X114580952Y-96441428D01*
X114661904Y-96612857D01*
X114823809Y-96784285D01*
X115147619Y-96870000D01*
X115714285Y-96870000D01*
X116038095Y-96784285D01*
X116200000Y-96612857D01*
X116280952Y-96441428D01*
X114580952Y-94898571D02*
X116280952Y-94898571D01*
X114580952Y-93870000D01*
X116280952Y-93870000D01*
X114580952Y-93012857D02*
X116280952Y-93012857D01*
X114580952Y-91984285D01*
X116280952Y-91984285D01*
X115471428Y-91127142D02*
X115471428Y-90527142D01*
X114580952Y-90270000D02*
X114580952Y-91127142D01*
X116280952Y-91127142D01*
X116280952Y-90270000D01*
X114742857Y-88470000D02*
X114661904Y-88555714D01*
X114580952Y-88812857D01*
X114580952Y-88984285D01*
X114661904Y-89241428D01*
X114823809Y-89412857D01*
X114985714Y-89498571D01*
X115309523Y-89584285D01*
X115552380Y-89584285D01*
X115876190Y-89498571D01*
X116038095Y-89412857D01*
X116200000Y-89241428D01*
X116280952Y-88984285D01*
X116280952Y-88812857D01*
X116200000Y-88555714D01*
X116119047Y-88470000D01*
X116280952Y-87955714D02*
X116280952Y-86927142D01*
X114580952Y-87441428D02*
X116280952Y-87441428D01*
X116280952Y-85984285D02*
X116280952Y-85641428D01*
X116200000Y-85470000D01*
X116038095Y-85298571D01*
X115714285Y-85212857D01*
X115147619Y-85212857D01*
X114823809Y-85298571D01*
X114661904Y-85470000D01*
X114580952Y-85641428D01*
X114580952Y-85984285D01*
X114661904Y-86155714D01*
X114823809Y-86327142D01*
X115147619Y-86412857D01*
X115714285Y-86412857D01*
X116038095Y-86327142D01*
X116200000Y-86155714D01*
X116280952Y-85984285D01*
X114580952Y-83412857D02*
X115390476Y-84012857D01*
X114580952Y-84441428D02*
X116280952Y-84441428D01*
X116280952Y-83755714D01*
X116200000Y-83584285D01*
X116119047Y-83498571D01*
X115957142Y-83412857D01*
X115714285Y-83412857D01*
X115552380Y-83498571D01*
X115471428Y-83584285D01*
X115390476Y-83755714D01*
X115390476Y-84441428D01*
%TO.C,J13*%
X177400000Y-107498571D02*
X177480952Y-107670000D01*
X177480952Y-107927142D01*
X177400000Y-108184285D01*
X177238095Y-108355714D01*
X177076190Y-108441428D01*
X176752380Y-108527142D01*
X176509523Y-108527142D01*
X176185714Y-108441428D01*
X176023809Y-108355714D01*
X175861904Y-108184285D01*
X175780952Y-107927142D01*
X175780952Y-107755714D01*
X175861904Y-107498571D01*
X175942857Y-107412857D01*
X176509523Y-107412857D01*
X176509523Y-107755714D01*
X175780952Y-106641428D02*
X177480952Y-106641428D01*
X177480952Y-105955714D01*
X177400000Y-105784285D01*
X177319047Y-105698571D01*
X177157142Y-105612857D01*
X176914285Y-105612857D01*
X176752380Y-105698571D01*
X176671428Y-105784285D01*
X176590476Y-105955714D01*
X176590476Y-106641428D01*
X176428571Y-104841428D02*
X176428571Y-103470000D01*
X175780952Y-102612857D02*
X177480952Y-102612857D01*
X176671428Y-101155714D02*
X176590476Y-100898571D01*
X176509523Y-100812857D01*
X176347619Y-100727142D01*
X176104761Y-100727142D01*
X175942857Y-100812857D01*
X175861904Y-100898571D01*
X175780952Y-101070000D01*
X175780952Y-101755714D01*
X177480952Y-101755714D01*
X177480952Y-101155714D01*
X177400000Y-100984285D01*
X177319047Y-100898571D01*
X177157142Y-100812857D01*
X176995238Y-100812857D01*
X176833333Y-100898571D01*
X176752380Y-100984285D01*
X176671428Y-101155714D01*
X176671428Y-101755714D01*
X175942857Y-97555714D02*
X175861904Y-97641428D01*
X175780952Y-97898571D01*
X175780952Y-98070000D01*
X175861904Y-98327142D01*
X176023809Y-98498571D01*
X176185714Y-98584285D01*
X176509523Y-98670000D01*
X176752380Y-98670000D01*
X177076190Y-98584285D01*
X177238095Y-98498571D01*
X177400000Y-98327142D01*
X177480952Y-98070000D01*
X177480952Y-97898571D01*
X177400000Y-97641428D01*
X177319047Y-97555714D01*
X177480952Y-96441428D02*
X177480952Y-96098571D01*
X177400000Y-95927142D01*
X177238095Y-95755714D01*
X176914285Y-95670000D01*
X176347619Y-95670000D01*
X176023809Y-95755714D01*
X175861904Y-95927142D01*
X175780952Y-96098571D01*
X175780952Y-96441428D01*
X175861904Y-96612857D01*
X176023809Y-96784285D01*
X176347619Y-96870000D01*
X176914285Y-96870000D01*
X177238095Y-96784285D01*
X177400000Y-96612857D01*
X177480952Y-96441428D01*
X175780952Y-94898571D02*
X177480952Y-94898571D01*
X175780952Y-93870000D01*
X177480952Y-93870000D01*
X175780952Y-93012857D02*
X177480952Y-93012857D01*
X175780952Y-91984285D01*
X177480952Y-91984285D01*
X176671428Y-91127142D02*
X176671428Y-90527142D01*
X175780952Y-90270000D02*
X175780952Y-91127142D01*
X177480952Y-91127142D01*
X177480952Y-90270000D01*
X175942857Y-88470000D02*
X175861904Y-88555714D01*
X175780952Y-88812857D01*
X175780952Y-88984285D01*
X175861904Y-89241428D01*
X176023809Y-89412857D01*
X176185714Y-89498571D01*
X176509523Y-89584285D01*
X176752380Y-89584285D01*
X177076190Y-89498571D01*
X177238095Y-89412857D01*
X177400000Y-89241428D01*
X177480952Y-88984285D01*
X177480952Y-88812857D01*
X177400000Y-88555714D01*
X177319047Y-88470000D01*
X177480952Y-87955714D02*
X177480952Y-86927142D01*
X175780952Y-87441428D02*
X177480952Y-87441428D01*
X177480952Y-85984285D02*
X177480952Y-85641428D01*
X177400000Y-85470000D01*
X177238095Y-85298571D01*
X176914285Y-85212857D01*
X176347619Y-85212857D01*
X176023809Y-85298571D01*
X175861904Y-85470000D01*
X175780952Y-85641428D01*
X175780952Y-85984285D01*
X175861904Y-86155714D01*
X176023809Y-86327142D01*
X176347619Y-86412857D01*
X176914285Y-86412857D01*
X177238095Y-86327142D01*
X177400000Y-86155714D01*
X177480952Y-85984285D01*
X175780952Y-83412857D02*
X176590476Y-84012857D01*
X175780952Y-84441428D02*
X177480952Y-84441428D01*
X177480952Y-83755714D01*
X177400000Y-83584285D01*
X177319047Y-83498571D01*
X177157142Y-83412857D01*
X176914285Y-83412857D01*
X176752380Y-83498571D01*
X176671428Y-83584285D01*
X176590476Y-83755714D01*
X176590476Y-84441428D01*
%TO.C,J10*%
X153372627Y-108912335D02*
X158893464Y-110370201D01*
X152133464Y-84680201D02*
X152165270Y-107029302D01*
X160153464Y-109340201D02*
X160146185Y-82310999D01*
X153352647Y-82748155D02*
X158886185Y-81280999D01*
X160146186Y-82310999D02*
G75*
G03*
X158886185Y-81280999I-1131691J-98719D01*
G01*
X153352645Y-82748150D02*
G75*
G03*
X152133464Y-84660201I759280J-1828858D01*
G01*
X158893464Y-110370202D02*
G75*
G03*
X160153464Y-109340201I128307J1128722D01*
G01*
X152165270Y-107029302D02*
G75*
G03*
X153372627Y-108912335I1955825J-74552D01*
G01*
%TO.C,J7*%
X139753464Y-109340201D02*
X139746185Y-82310999D01*
X132972627Y-108912335D02*
X138493464Y-110370201D01*
X132952647Y-82748155D02*
X138486185Y-81280999D01*
X131733464Y-84680201D02*
X131765270Y-107029302D01*
X138493464Y-110370202D02*
G75*
G03*
X139753464Y-109340201I128307J1128722D01*
G01*
X131765270Y-107029302D02*
G75*
G03*
X132972627Y-108912335I1955825J-74552D01*
G01*
X132952645Y-82748150D02*
G75*
G03*
X131733464Y-84660201I759280J-1828858D01*
G01*
X139746186Y-82310999D02*
G75*
G03*
X138486185Y-81280999I-1131691J-98719D01*
G01*
%TO.C,J1*%
X98953464Y-109340201D02*
X98946185Y-82310999D01*
X90933464Y-84680201D02*
X90965270Y-107029302D01*
X92172627Y-108912335D02*
X97693464Y-110370201D01*
X92152647Y-82748155D02*
X97686185Y-81280999D01*
X90965270Y-107029302D02*
G75*
G03*
X92172627Y-108912335I1955825J-74552D01*
G01*
X97693464Y-110370202D02*
G75*
G03*
X98953464Y-109340201I128307J1128722D01*
G01*
X98946186Y-82310999D02*
G75*
G03*
X97686185Y-81280999I-1131691J-98719D01*
G01*
X92152645Y-82748150D02*
G75*
G03*
X90933464Y-84660201I759280J-1828858D01*
G01*
%TO.C,J4*%
X119353464Y-109340201D02*
X119346185Y-82310999D01*
X112552647Y-82748155D02*
X118086185Y-81280999D01*
X112572627Y-108912335D02*
X118093464Y-110370201D01*
X111333464Y-84680201D02*
X111365270Y-107029302D01*
X112552645Y-82748150D02*
G75*
G03*
X111333464Y-84660201I759280J-1828858D01*
G01*
X111365270Y-107029302D02*
G75*
G03*
X112572627Y-108912335I1955825J-74552D01*
G01*
X119346186Y-82310999D02*
G75*
G03*
X118086185Y-81280999I-1131691J-98719D01*
G01*
X118093464Y-110370202D02*
G75*
G03*
X119353464Y-109340201I128307J1128722D01*
G01*
%TO.C,J13*%
X173752647Y-82748155D02*
X179286185Y-81280999D01*
X173772627Y-108912335D02*
X179293464Y-110370201D01*
X172533464Y-84680201D02*
X172565270Y-107029302D01*
X180553464Y-109340201D02*
X180546185Y-82310999D01*
X180546186Y-82310999D02*
G75*
G03*
X179286185Y-81280999I-1131691J-98719D01*
G01*
X172565270Y-107029302D02*
G75*
G03*
X173772627Y-108912335I1955825J-74552D01*
G01*
X179293464Y-110370202D02*
G75*
G03*
X180553464Y-109340201I128307J1128722D01*
G01*
X173752645Y-82748150D02*
G75*
G03*
X172533464Y-84660201I759280J-1828858D01*
G01*
%TD*%
M02*
