%TF.GenerationSoftware,KiCad,Pcbnew,6.0.3-a3aad9c10e~116~ubuntu20.04.1*%
%TF.CreationDate,2022-03-20T14:38:18+01:00*%
%TF.ProjectId,5xPro_Micro_GPIB,35785072-6f5f-44d6-9963-726f5f475049,rev?*%
%TF.SameCoordinates,Original*%
%TF.FileFunction,Soldermask,Top*%
%TF.FilePolarity,Negative*%
%FSLAX46Y46*%
G04 Gerber Fmt 4.6, Leading zero omitted, Abs format (unit mm)*
G04 Created by KiCad (PCBNEW 6.0.3-a3aad9c10e~116~ubuntu20.04.1) date 2022-03-20 14:38:18*
%MOMM*%
%LPD*%
G01*
G04 APERTURE LIST*
G04 Aperture macros list*
%AMRoundRect*
0 Rectangle with rounded corners*
0 $1 Rounding radius*
0 $2 $3 $4 $5 $6 $7 $8 $9 X,Y pos of 4 corners*
0 Add a 4 corners polygon primitive as box body*
4,1,4,$2,$3,$4,$5,$6,$7,$8,$9,$2,$3,0*
0 Add four circle primitives for the rounded corners*
1,1,$1+$1,$2,$3*
1,1,$1+$1,$4,$5*
1,1,$1+$1,$6,$7*
1,1,$1+$1,$8,$9*
0 Add four rect primitives between the rounded corners*
20,1,$1+$1,$2,$3,$4,$5,0*
20,1,$1+$1,$4,$5,$6,$7,0*
20,1,$1+$1,$6,$7,$8,$9,0*
20,1,$1+$1,$8,$9,$2,$3,0*%
G04 Aperture macros list end*
%ADD10R,0.900000X0.900000*%
%ADD11C,0.500000*%
%ADD12C,0.800000*%
%ADD13C,6.400000*%
%ADD14RoundRect,0.400000X0.650000X-0.400000X0.650000X0.400000X-0.650000X0.400000X-0.650000X-0.400000X0*%
%ADD15O,2.100000X1.600000*%
G04 APERTURE END LIST*
D10*
%TO.C,J8*%
X132340000Y-76000000D03*
%TD*%
D11*
%TO.C,mouse-bite-2mm-slot1*%
X116155930Y-125673530D03*
X115405930Y-125773530D03*
X113955930Y-125473530D03*
X114655930Y-125673530D03*
X116905930Y-125473530D03*
%TD*%
D10*
%TO.C,J12*%
X160040000Y-75980000D03*
%TD*%
D12*
%TO.C,REF\u002A\u002A6*%
X153984000Y-72392000D03*
X158081056Y-70694944D03*
D13*
X156384000Y-72392000D03*
D12*
X154686944Y-70694944D03*
X156384000Y-69992000D03*
X156384000Y-74792000D03*
X158081056Y-74089056D03*
X154686944Y-74089056D03*
X158784000Y-72392000D03*
%TD*%
D14*
%TO.C,J10*%
X158583045Y-107690268D03*
D15*
X158583045Y-105531268D03*
X158583045Y-103372268D03*
X158583045Y-101213268D03*
X158583045Y-99054268D03*
X158583045Y-96895268D03*
X158583045Y-94736268D03*
X158583045Y-92577268D03*
X158583045Y-90418268D03*
X158583045Y-88259268D03*
X158583045Y-86100268D03*
X158583045Y-83941268D03*
X153903045Y-107665768D03*
X153903045Y-105506768D03*
X153903045Y-103347768D03*
X153903045Y-101188768D03*
X153903045Y-99029768D03*
X153903045Y-96870768D03*
X153903045Y-94711768D03*
X153903045Y-92552768D03*
X153903045Y-90393768D03*
X153903045Y-88234768D03*
X153903045Y-86075768D03*
X153903045Y-83916768D03*
%TD*%
D10*
%TO.C,J9*%
X139640000Y-75980000D03*
%TD*%
D11*
%TO.C,mouse-bite-2mm-slot3*%
X137305930Y-125473530D03*
X135055930Y-125673530D03*
X135805930Y-125773530D03*
X134355930Y-125473530D03*
X136555930Y-125673530D03*
%TD*%
D13*
%TO.C,REF\u002A\u002A8*%
X176784000Y-72392000D03*
D12*
X175086944Y-74089056D03*
X175086944Y-70694944D03*
X176784000Y-69992000D03*
X179184000Y-72392000D03*
X176784000Y-74792000D03*
X174384000Y-72392000D03*
X178481056Y-74089056D03*
X178481056Y-70694944D03*
%TD*%
%TO.C,REF\u002A\u002A7*%
X178461056Y-120849056D03*
X174364000Y-119152000D03*
X178461056Y-117454944D03*
X175066944Y-120849056D03*
X179164000Y-119152000D03*
X176764000Y-121552000D03*
X175066944Y-117454944D03*
X176764000Y-116752000D03*
D13*
X176764000Y-119152000D03*
%TD*%
D11*
%TO.C,mouse-bite-2mm-slot2*%
X114632070Y-66246470D03*
X116132070Y-66246470D03*
X113882070Y-66446470D03*
X116832070Y-66446470D03*
X115382070Y-66146470D03*
%TD*%
D10*
%TO.C,J14*%
X173140000Y-76000000D03*
%TD*%
D11*
%TO.C,mouse-bite-2mm-slot5*%
X154755930Y-125473530D03*
X157705930Y-125473530D03*
X155455930Y-125673530D03*
X156955930Y-125673530D03*
X156205930Y-125773530D03*
%TD*%
D10*
%TO.C,J2*%
X91540000Y-76000000D03*
%TD*%
D14*
%TO.C,J7*%
X138183045Y-107690268D03*
D15*
X138183045Y-105531268D03*
X138183045Y-103372268D03*
X138183045Y-101213268D03*
X138183045Y-99054268D03*
X138183045Y-96895268D03*
X138183045Y-94736268D03*
X138183045Y-92577268D03*
X138183045Y-90418268D03*
X138183045Y-88259268D03*
X138183045Y-86100268D03*
X138183045Y-83941268D03*
X133503045Y-107665768D03*
X133503045Y-105506768D03*
X133503045Y-103347768D03*
X133503045Y-101188768D03*
X133503045Y-99029768D03*
X133503045Y-96870768D03*
X133503045Y-94711768D03*
X133503045Y-92552768D03*
X133503045Y-90393768D03*
X133503045Y-88234768D03*
X133503045Y-86075768D03*
X133503045Y-83916768D03*
%TD*%
D10*
%TO.C,J5*%
X111940000Y-76000000D03*
%TD*%
D12*
%TO.C,REF\u002A\u002A1*%
X115564000Y-121552000D03*
X115564000Y-116752000D03*
D13*
X115564000Y-119152000D03*
D12*
X117261056Y-120849056D03*
X113164000Y-119152000D03*
X117964000Y-119152000D03*
X117261056Y-117454944D03*
X113866944Y-120849056D03*
X113866944Y-117454944D03*
%TD*%
D11*
%TO.C,mouse-bite-2mm-slot*%
X95755930Y-125673530D03*
X93555930Y-125473530D03*
X95005930Y-125773530D03*
X96505930Y-125473530D03*
X94255930Y-125673530D03*
%TD*%
D12*
%TO.C,REF\u002A\u002A4*%
X134286944Y-70694944D03*
D13*
X135984000Y-72392000D03*
D12*
X137681056Y-70694944D03*
X135984000Y-74792000D03*
X137681056Y-74089056D03*
X133584000Y-72392000D03*
X134286944Y-74089056D03*
X138384000Y-72392000D03*
X135984000Y-69992000D03*
%TD*%
D14*
%TO.C,J1*%
X97383045Y-107690268D03*
D15*
X97383045Y-105531268D03*
X97383045Y-103372268D03*
X97383045Y-101213268D03*
X97383045Y-99054268D03*
X97383045Y-96895268D03*
X97383045Y-94736268D03*
X97383045Y-92577268D03*
X97383045Y-90418268D03*
X97383045Y-88259268D03*
X97383045Y-86100268D03*
X97383045Y-83941268D03*
X92703045Y-107665768D03*
X92703045Y-105506768D03*
X92703045Y-103347768D03*
X92703045Y-101188768D03*
X92703045Y-99029768D03*
X92703045Y-96870768D03*
X92703045Y-94711768D03*
X92703045Y-92552768D03*
X92703045Y-90393768D03*
X92703045Y-88234768D03*
X92703045Y-86075768D03*
X92703045Y-83916768D03*
%TD*%
D11*
%TO.C,mouse-bite-2mm-slot7*%
X175155930Y-125473530D03*
X176605930Y-125773530D03*
X177355930Y-125673530D03*
X178105930Y-125473530D03*
X175855930Y-125673530D03*
%TD*%
D10*
%TO.C,J3*%
X98840000Y-75980000D03*
%TD*%
D11*
%TO.C,mouse-bite-2mm-slot4*%
X136532070Y-66246470D03*
X134282070Y-66446470D03*
X135032070Y-66246470D03*
X137232070Y-66446470D03*
X135782070Y-66146470D03*
%TD*%
%TO.C,mouse-bite-2mm-slot*%
X93482070Y-66446470D03*
X94982070Y-66146470D03*
X96432070Y-66446470D03*
X94232070Y-66246470D03*
X95732070Y-66246470D03*
%TD*%
D12*
%TO.C,REF\u002A\u002A*%
X96881056Y-70694944D03*
X93486944Y-70694944D03*
X97584000Y-72392000D03*
X95184000Y-69992000D03*
X93486944Y-74089056D03*
D13*
X95184000Y-72392000D03*
D12*
X96881056Y-74089056D03*
X92784000Y-72392000D03*
X95184000Y-74792000D03*
%TD*%
D13*
%TO.C,REF\u002A\u002A*%
X95164000Y-119152000D03*
D12*
X92764000Y-119152000D03*
X93466944Y-120849056D03*
X95164000Y-116752000D03*
X97564000Y-119152000D03*
X95164000Y-121552000D03*
X96861056Y-117454944D03*
X93466944Y-117454944D03*
X96861056Y-120849056D03*
%TD*%
D10*
%TO.C,J6*%
X119240000Y-75980000D03*
%TD*%
D12*
%TO.C,REF\u002A\u002A2*%
X117281056Y-70694944D03*
X117281056Y-74089056D03*
D13*
X115584000Y-72392000D03*
D12*
X117984000Y-72392000D03*
X113886944Y-70694944D03*
X115584000Y-69992000D03*
X113184000Y-72392000D03*
X115584000Y-74792000D03*
X113886944Y-74089056D03*
%TD*%
%TO.C,REF\u002A\u002A3*%
X137661056Y-117454944D03*
X133564000Y-119152000D03*
X134266944Y-120849056D03*
X135964000Y-121552000D03*
D13*
X135964000Y-119152000D03*
D12*
X138364000Y-119152000D03*
X135964000Y-116752000D03*
X137661056Y-120849056D03*
X134266944Y-117454944D03*
%TD*%
%TO.C,REF\u002A\u002A5*%
X153964000Y-119152000D03*
X158764000Y-119152000D03*
D13*
X156364000Y-119152000D03*
D12*
X154666944Y-117454944D03*
X158061056Y-120849056D03*
X156364000Y-121552000D03*
X158061056Y-117454944D03*
X154666944Y-120849056D03*
X156364000Y-116752000D03*
%TD*%
D10*
%TO.C,J15*%
X180440000Y-75980000D03*
%TD*%
D14*
%TO.C,J4*%
X117783045Y-107690268D03*
D15*
X117783045Y-105531268D03*
X117783045Y-103372268D03*
X117783045Y-101213268D03*
X117783045Y-99054268D03*
X117783045Y-96895268D03*
X117783045Y-94736268D03*
X117783045Y-92577268D03*
X117783045Y-90418268D03*
X117783045Y-88259268D03*
X117783045Y-86100268D03*
X117783045Y-83941268D03*
X113103045Y-107665768D03*
X113103045Y-105506768D03*
X113103045Y-103347768D03*
X113103045Y-101188768D03*
X113103045Y-99029768D03*
X113103045Y-96870768D03*
X113103045Y-94711768D03*
X113103045Y-92552768D03*
X113103045Y-90393768D03*
X113103045Y-88234768D03*
X113103045Y-86075768D03*
X113103045Y-83916768D03*
%TD*%
D10*
%TO.C,J11*%
X152740000Y-76000000D03*
%TD*%
D14*
%TO.C,J13*%
X178983045Y-107690268D03*
D15*
X178983045Y-105531268D03*
X178983045Y-103372268D03*
X178983045Y-101213268D03*
X178983045Y-99054268D03*
X178983045Y-96895268D03*
X178983045Y-94736268D03*
X178983045Y-92577268D03*
X178983045Y-90418268D03*
X178983045Y-88259268D03*
X178983045Y-86100268D03*
X178983045Y-83941268D03*
X174303045Y-107665768D03*
X174303045Y-105506768D03*
X174303045Y-103347768D03*
X174303045Y-101188768D03*
X174303045Y-99029768D03*
X174303045Y-96870768D03*
X174303045Y-94711768D03*
X174303045Y-92552768D03*
X174303045Y-90393768D03*
X174303045Y-88234768D03*
X174303045Y-86075768D03*
X174303045Y-83916768D03*
%TD*%
D11*
%TO.C,mouse-bite-2mm-slot6*%
X156932070Y-66246470D03*
X157632070Y-66446470D03*
X156182070Y-66146470D03*
X154682070Y-66446470D03*
X155432070Y-66246470D03*
%TD*%
%TO.C,mouse-bite-2mm-slot8*%
X175832070Y-66246470D03*
X178032070Y-66446470D03*
X176582070Y-66146470D03*
X177332070Y-66246470D03*
X175082070Y-66446470D03*
%TD*%
M02*
