M48
; DRILL file {KiCad 6.0.3-a3aad9c10e~116~ubuntu20.04.1} date Sun 20 Mar 2022 02:38:18 PM CET
; FORMAT={-:-/ absolute / inch / decimal}
; #@! TF.CreationDate,2022-03-20T14:38:18+01:00
; #@! TF.GenerationSoftware,Kicad,Pcbnew,6.0.3-a3aad9c10e~116~ubuntu20.04.1
; #@! TF.FileFunction,Plated,1,2,PTH
FMAT,2
INCH
; #@! TA.AperFunction,Plated,PTH,ViaDrill
T1C0.0118
; #@! TA.AperFunction,Plated,PTH,ViaDrill
T2C0.0157
; #@! TA.AperFunction,Plated,PTH,ComponentDrill
T3C0.0197
; #@! TA.AperFunction,Plated,PTH,ComponentDrill
T4C0.0354
; #@! TA.AperFunction,Plated,PTH,ComponentDrill
T5C0.0394
; #@! TA.AperFunction,Plated,PTH,ComponentDrill
T6C0.0433
; #@! TA.AperFunction,Plated,PTH,ComponentDrill
T7C0.1260
%
G90
G05
T1
X3.619Y-3.2005
X3.6465Y-3.1705
X3.6597Y-4.3422
X3.6744Y-3.2264
X3.7313Y-3.1859
X3.7915Y-3.1504
X3.7975Y-3.1939
X3.9041Y-4.1378
X4.4221Y-3.2005
X4.4496Y-3.1705
X4.4628Y-4.3422
X4.4776Y-3.2264
X4.5345Y-3.1859
X4.5946Y-3.1504
X4.6006Y-3.1939
X4.7072Y-4.1378
X5.2253Y-3.2005
X5.2528Y-3.1705
X5.266Y-4.3422
X5.2807Y-3.2264
X5.3376Y-3.1859
X5.3978Y-3.1504
X5.4038Y-3.1939
X5.5104Y-4.1378
X6.0284Y-3.2005
X6.0559Y-3.1705
X6.0691Y-4.3422
X6.0839Y-3.2264
X6.1408Y-3.1859
X6.2009Y-3.1504
X6.2069Y-3.1939
X6.3135Y-4.1378
X6.8316Y-3.2005
X6.8591Y-3.1705
X6.8723Y-4.3422
X6.887Y-3.2264
X6.9439Y-3.1859
X7.0041Y-3.1504
X7.0101Y-3.1939
X7.1167Y-4.1378
T2
X3.4435Y-4.2162
X3.4668Y-4.6343
X4.0231Y-4.6284
X4.0447Y-4.2158
X4.2467Y-4.2162
X4.2699Y-4.6343
X4.8262Y-4.6284
X4.8479Y-4.2158
X5.0498Y-4.2162
X5.0731Y-4.6343
X5.6294Y-4.6284
X5.651Y-4.2158
X5.853Y-4.2162
X5.8762Y-4.6343
X6.4325Y-4.6284
X6.4542Y-4.2158
X6.6561Y-4.2162
X6.6794Y-4.6343
X7.2357Y-4.6284
X7.2573Y-4.2158
T3
X3.6039Y-2.9921
X3.6521Y-4.691
X3.6529Y-2.8501
X3.6798Y-4.6242
X3.6798Y-4.7578
X3.6806Y-2.7833
X3.6806Y-2.9169
X3.7466Y-4.5965
X3.7466Y-4.7855
X3.7474Y-2.7556
X3.7474Y-2.9446
X3.8134Y-4.6242
X3.8134Y-4.7578
X3.8142Y-2.7833
X3.8142Y-2.9169
X3.8411Y-4.691
X3.8419Y-2.8501
X3.8913Y-2.9913
X4.4071Y-2.9921
X4.4553Y-4.691
X4.4561Y-2.8501
X4.483Y-4.6242
X4.483Y-4.7578
X4.4837Y-2.7833
X4.4837Y-2.9169
X4.5498Y-4.5965
X4.5498Y-4.7855
X4.5506Y-2.7556
X4.5506Y-2.9446
X4.6166Y-4.6242
X4.6166Y-4.7578
X4.6174Y-2.7833
X4.6174Y-2.9169
X4.6443Y-4.691
X4.645Y-2.8501
X4.6945Y-2.9913
X5.2102Y-2.9921
X5.2584Y-4.691
X5.2592Y-2.8501
X5.2861Y-4.6242
X5.2861Y-4.7578
X5.2869Y-2.7833
X5.2869Y-2.9169
X5.3529Y-4.5965
X5.3529Y-4.7855
X5.3537Y-2.7556
X5.3537Y-2.9446
X5.4197Y-4.6242
X5.4197Y-4.7578
X5.4205Y-2.7833
X5.4205Y-2.9169
X5.4474Y-4.691
X5.4482Y-2.8501
X5.4976Y-2.9913
X6.0134Y-2.9921
X6.0616Y-4.691
X6.0624Y-2.8501
X6.0892Y-4.6242
X6.0892Y-4.7578
X6.09Y-2.7833
X6.09Y-2.9169
X6.1561Y-4.5965
X6.1561Y-4.7855
X6.1569Y-2.7556
X6.1569Y-2.9446
X6.2229Y-4.6242
X6.2229Y-4.7578
X6.2237Y-2.7833
X6.2237Y-2.9169
X6.2506Y-4.691
X6.2513Y-2.8501
X6.3008Y-2.9913
X6.8165Y-2.9921
X6.8647Y-4.691
X6.8655Y-2.8501
X6.8924Y-4.6242
X6.8924Y-4.7578
X6.8932Y-2.7833
X6.8932Y-2.9169
X6.9592Y-4.5965
X6.9592Y-4.7855
X6.96Y-2.7556
X6.96Y-2.9446
X7.026Y-4.6242
X7.026Y-4.7578
X7.0268Y-2.7833
X7.0268Y-2.9169
X7.0537Y-4.691
X7.0545Y-2.8501
X7.1039Y-2.9913
T4
X3.6497Y-3.3038
X3.6497Y-3.3888
X3.6497Y-3.4738
X3.6497Y-3.5588
X3.6497Y-3.6438
X3.6497Y-3.7288
X3.6497Y-3.8138
X3.6497Y-3.8988
X3.6497Y-3.9838
X3.6497Y-4.0688
X3.6497Y-4.1538
X3.6497Y-4.2388
X3.834Y-3.3048
X3.834Y-3.3898
X3.834Y-3.4748
X3.834Y-3.5598
X3.834Y-3.6448
X3.834Y-3.7298
X3.834Y-3.8148
X3.834Y-3.8998
X3.834Y-3.9848
X3.834Y-4.0698
X3.834Y-4.1548
X3.834Y-4.2398
X4.4529Y-3.3038
X4.4529Y-3.3888
X4.4529Y-3.4738
X4.4529Y-3.5588
X4.4529Y-3.6438
X4.4529Y-3.7288
X4.4529Y-3.8138
X4.4529Y-3.8988
X4.4529Y-3.9838
X4.4529Y-4.0688
X4.4529Y-4.1538
X4.4529Y-4.2388
X4.6371Y-3.3048
X4.6371Y-3.3898
X4.6371Y-3.4748
X4.6371Y-3.5598
X4.6371Y-3.6448
X4.6371Y-3.7298
X4.6371Y-3.8148
X4.6371Y-3.8998
X4.6371Y-3.9848
X4.6371Y-4.0698
X4.6371Y-4.1548
X4.6371Y-4.2398
X5.256Y-3.3038
X5.256Y-3.3888
X5.256Y-3.4738
X5.256Y-3.5588
X5.256Y-3.6438
X5.256Y-3.7288
X5.256Y-3.8138
X5.256Y-3.8988
X5.256Y-3.9838
X5.256Y-4.0688
X5.256Y-4.1538
X5.256Y-4.2388
X5.4403Y-3.3048
X5.4403Y-3.3898
X5.4403Y-3.4748
X5.4403Y-3.5598
X5.4403Y-3.6448
X5.4403Y-3.7298
X5.4403Y-3.8148
X5.4403Y-3.8998
X5.4403Y-3.9848
X5.4403Y-4.0698
X5.4403Y-4.1548
X5.4403Y-4.2398
X6.0592Y-3.3038
X6.0592Y-3.3888
X6.0592Y-3.4738
X6.0592Y-3.5588
X6.0592Y-3.6438
X6.0592Y-3.7288
X6.0592Y-3.8138
X6.0592Y-3.8988
X6.0592Y-3.9838
X6.0592Y-4.0688
X6.0592Y-4.1538
X6.0592Y-4.2388
X6.2434Y-3.3048
X6.2434Y-3.3898
X6.2434Y-3.4748
X6.2434Y-3.5598
X6.2434Y-3.6448
X6.2434Y-3.7298
X6.2434Y-3.8148
X6.2434Y-3.8998
X6.2434Y-3.9848
X6.2434Y-4.0698
X6.2434Y-4.1548
X6.2434Y-4.2398
X6.8623Y-3.3038
X6.8623Y-3.3888
X6.8623Y-3.4738
X6.8623Y-3.5588
X6.8623Y-3.6438
X6.8623Y-3.7288
X6.8623Y-3.8138
X6.8623Y-3.8988
X6.8623Y-3.9838
X6.8623Y-4.0688
X6.8623Y-4.1538
X6.8623Y-4.2388
X7.0466Y-3.3048
X7.0466Y-3.3898
X7.0466Y-3.4748
X7.0466Y-3.5598
X7.0466Y-3.6448
X7.0466Y-3.7298
X7.0466Y-3.8148
X7.0466Y-3.8998
X7.0466Y-3.9848
X7.0466Y-4.0698
X7.0466Y-4.1548
X7.0466Y-4.2398
T5
X3.4434Y-3.041
X3.4434Y-3.141
X3.4434Y-3.241
X3.4434Y-3.341
X3.4434Y-3.441
X3.4434Y-3.541
X3.4434Y-3.641
X3.4434Y-3.741
X3.4434Y-3.841
X3.4434Y-3.941
X3.4434Y-4.041
X3.4434Y-4.141
X4.0434Y-3.041
X4.0434Y-3.141
X4.0434Y-3.241
X4.0434Y-3.341
X4.0434Y-3.441
X4.0434Y-3.541
X4.0434Y-3.641
X4.0434Y-3.741
X4.0434Y-3.841
X4.0434Y-3.941
X4.0434Y-4.041
X4.2466Y-3.041
X4.2466Y-3.141
X4.2466Y-3.241
X4.2466Y-3.341
X4.2466Y-3.441
X4.2466Y-3.541
X4.2466Y-3.641
X4.2466Y-3.741
X4.2466Y-3.841
X4.2466Y-3.941
X4.2466Y-4.041
X4.2466Y-4.141
X4.8466Y-3.041
X4.8466Y-3.141
X4.8466Y-3.241
X4.8466Y-3.341
X4.8466Y-3.441
X4.8466Y-3.541
X4.8466Y-3.641
X4.8466Y-3.741
X4.8466Y-3.841
X4.8466Y-3.941
X4.8466Y-4.041
X5.0497Y-3.041
X5.0497Y-3.141
X5.0497Y-3.241
X5.0497Y-3.341
X5.0497Y-3.441
X5.0497Y-3.541
X5.0497Y-3.641
X5.0497Y-3.741
X5.0497Y-3.841
X5.0497Y-3.941
X5.0497Y-4.041
X5.0497Y-4.141
X5.6497Y-3.041
X5.6497Y-3.141
X5.6497Y-3.241
X5.6497Y-3.341
X5.6497Y-3.441
X5.6497Y-3.541
X5.6497Y-3.641
X5.6497Y-3.741
X5.6497Y-3.841
X5.6497Y-3.941
X5.6497Y-4.041
X5.8529Y-3.041
X5.8529Y-3.141
X5.8529Y-3.241
X5.8529Y-3.341
X5.8529Y-3.441
X5.8529Y-3.541
X5.8529Y-3.641
X5.8529Y-3.741
X5.8529Y-3.841
X5.8529Y-3.941
X5.8529Y-4.041
X5.8529Y-4.141
X6.4529Y-3.041
X6.4529Y-3.141
X6.4529Y-3.241
X6.4529Y-3.341
X6.4529Y-3.441
X6.4529Y-3.541
X6.4529Y-3.641
X6.4529Y-3.741
X6.4529Y-3.841
X6.4529Y-3.941
X6.4529Y-4.041
X6.656Y-3.041
X6.656Y-3.141
X6.656Y-3.241
X6.656Y-3.341
X6.656Y-3.441
X6.656Y-3.541
X6.656Y-3.641
X6.656Y-3.741
X6.656Y-3.841
X6.656Y-3.941
X6.656Y-4.041
X6.656Y-4.141
X7.256Y-3.041
X7.256Y-3.141
X7.256Y-3.241
X7.256Y-3.341
X7.256Y-3.441
X7.256Y-3.541
X7.256Y-3.641
X7.256Y-3.741
X7.256Y-3.841
X7.256Y-3.941
X7.256Y-4.041
T6
X4.0434Y-4.141
X4.8466Y-4.141
X5.6497Y-4.141
X6.4529Y-4.141
X7.256Y-4.141
T7
X3.7466Y-4.691
X3.7474Y-2.8501
X4.5498Y-4.691
X4.5506Y-2.8501
X5.3529Y-4.691
X5.3537Y-2.8501
X6.1561Y-4.691
X6.1569Y-2.8501
X6.9592Y-4.691
X6.96Y-2.8501
T0
M30
