M48
; DRILL file {KiCad 6.0.3-a3aad9c10e~116~ubuntu20.04.1} date Sun 20 Mar 2022 02:38:18 PM CET
; FORMAT={-:-/ absolute / inch / decimal}
; #@! TF.CreationDate,2022-03-20T14:38:18+01:00
; #@! TF.GenerationSoftware,Kicad,Pcbnew,6.0.3-a3aad9c10e~116~ubuntu20.04.1
; #@! TF.FileFunction,NonPlated,1,2,NPTH
FMAT,2
INCH
; #@! TA.AperFunction,NonPlated,NPTH,ComponentDrill
T1C0.0197
%
G90
G05
T1
X3.6804Y-2.616
X3.6833Y-4.9399
X3.7099Y-2.6081
X3.7109Y-4.9478
X3.7395Y-2.6042
X3.7404Y-4.9517
X3.769Y-2.6081
X3.7699Y-4.9478
X3.7965Y-2.616
X3.7994Y-4.9399
X4.4835Y-2.616
X4.4865Y-4.9399
X4.5131Y-2.6081
X4.514Y-4.9478
X4.5426Y-2.6042
X4.5435Y-4.9517
X4.5721Y-2.6081
X4.5731Y-4.9478
X4.5997Y-2.616
X4.6026Y-4.9399
X5.2867Y-2.616
X5.2896Y-4.9399
X5.3162Y-2.6081
X5.3172Y-4.9478
X5.3458Y-2.6042
X5.3467Y-4.9517
X5.3753Y-2.6081
X5.3762Y-4.9478
X5.4028Y-2.616
X5.4057Y-4.9399
X6.0898Y-2.616
X6.0928Y-4.9399
X6.1194Y-2.6081
X6.1203Y-4.9478
X6.1489Y-2.6042
X6.1498Y-4.9517
X6.1784Y-2.6081
X6.1794Y-4.9478
X6.206Y-2.616
X6.2089Y-4.9399
X6.893Y-2.616
X6.8959Y-4.9399
X6.9225Y-2.6081
X6.9235Y-4.9478
X6.952Y-2.6042
X6.953Y-4.9517
X6.9816Y-2.6081
X6.9825Y-4.9478
X7.0091Y-2.616
X7.012Y-4.9399
T0
M30
