%TF.GenerationSoftware,KiCad,Pcbnew,6.0.3-a3aad9c10e~116~ubuntu20.04.1*%
%TF.CreationDate,2022-03-20T14:38:18+01:00*%
%TF.ProjectId,5xPro_Micro_GPIB,35785072-6f5f-44d6-9963-726f5f475049,rev?*%
%TF.SameCoordinates,Original*%
%TF.FileFunction,Profile,NP*%
%FSLAX46Y46*%
G04 Gerber Fmt 4.6, Leading zero omitted, Abs format (unit mm)*
G04 Created by KiCad (PCBNEW 6.0.3-a3aad9c10e~116~ubuntu20.04.1) date 2022-03-20 14:38:18*
%MOMM*%
%LPD*%
G01*
G04 APERTURE LIST*
%TA.AperFunction,Profile*%
%ADD10C,0.050000*%
%TD*%
%ADD11C,0.150000*%
G04 APERTURE END LIST*
D10*
X86330000Y-128337106D02*
X91485930Y-128332000D01*
X92354776Y-67148342D02*
X91057000Y-68147000D01*
X180102070Y-63588000D02*
X185346447Y-63593553D01*
X91051165Y-123767511D02*
X85840000Y-118312000D01*
X152685931Y-128331967D02*
G75*
G03*
X153565930Y-124772000I30669J1881167D01*
G01*
X112754776Y-67148342D02*
X111457000Y-68147000D01*
X138422070Y-67148000D02*
X139736835Y-68152489D01*
X158833234Y-124771677D02*
G75*
G03*
X159713224Y-128331658I849266J-1678823D01*
G01*
X179233224Y-124771658D02*
X180531000Y-123773000D01*
X104245930Y-73608000D02*
X104245930Y-118312000D01*
X185346447Y-144023647D02*
G75*
G03*
X185846447Y-143523553I-47J500047D01*
G01*
X158833224Y-124771658D02*
X160131000Y-123773000D01*
X172657000Y-68147000D02*
X167440000Y-73608000D01*
X119331000Y-123773000D02*
X124645930Y-118312000D01*
X85830000Y-143520000D02*
G75*
G03*
X86330000Y-144020000I500000J0D01*
G01*
X160131000Y-123773000D02*
X165445930Y-118312000D01*
X86330000Y-47907106D02*
X185346447Y-47903553D01*
X153565930Y-124772000D02*
X152251165Y-123767511D01*
X159713224Y-128331658D02*
X173085930Y-128332000D01*
X153554776Y-67148342D02*
X152257000Y-68147000D01*
X118033234Y-124771677D02*
G75*
G03*
X118913224Y-128331658I849266J-1678823D01*
G01*
X98936835Y-68152489D02*
X104245930Y-73608000D01*
X180536835Y-68152489D02*
X185845930Y-73608000D01*
X180113224Y-128331658D02*
X185360000Y-128333553D01*
X139736835Y-68152489D02*
X145045930Y-73608000D01*
X185846447Y-143523553D02*
X185846447Y-128833553D01*
X126640000Y-73608000D02*
X126640000Y-118312000D01*
X118913224Y-128331658D02*
X132285930Y-128332000D01*
X86330000Y-144020000D02*
X185346447Y-144023553D01*
X173085931Y-128331967D02*
G75*
G03*
X173965930Y-124772000I30669J1881167D01*
G01*
X118022070Y-67148000D02*
X119336835Y-68152489D01*
X179233234Y-124771677D02*
G75*
G03*
X180113224Y-128331658I849266J-1678823D01*
G01*
X119336835Y-68152489D02*
X124645930Y-73608000D01*
X160136835Y-68152489D02*
X165445930Y-73608000D01*
X173965930Y-124772000D02*
X172651165Y-123767511D01*
X133154766Y-67148323D02*
G75*
G03*
X132274776Y-63588342I-849266J1678823D01*
G01*
X91485931Y-128331967D02*
G75*
G03*
X92365930Y-124772000I30669J1881167D01*
G01*
X185846447Y-63093553D02*
X185846447Y-48403553D01*
X98931000Y-123773000D02*
X104245930Y-118312000D01*
X139302069Y-63588033D02*
G75*
G03*
X138422070Y-67148000I-30669J-1881167D01*
G01*
X111451165Y-123767511D02*
X106240000Y-118312000D01*
X179222070Y-67148000D02*
X180536835Y-68152489D01*
X97633224Y-124771658D02*
X98931000Y-123773000D01*
X185846447Y-48403553D02*
G75*
G03*
X185346447Y-47903553I-500047J-47D01*
G01*
X92365930Y-124772000D02*
X91051165Y-123767511D01*
X97633234Y-124771677D02*
G75*
G03*
X98513224Y-128331658I849266J-1678823D01*
G01*
X133165930Y-124772000D02*
X131851165Y-123767511D01*
X138433234Y-124771677D02*
G75*
G03*
X139313224Y-128331658I849266J-1678823D01*
G01*
X185346447Y-63593647D02*
G75*
G03*
X185846447Y-63093553I-47J500047D01*
G01*
X185845930Y-73608000D02*
X185845930Y-118312000D01*
X147040000Y-73608000D02*
X147040000Y-118312000D01*
X152251165Y-123767511D02*
X147040000Y-118312000D01*
X139731000Y-123773000D02*
X145045930Y-118312000D01*
X145045930Y-73608000D02*
X145045930Y-118312000D01*
X97622070Y-67148000D02*
X98936835Y-68152489D01*
X167440000Y-73608000D02*
X167440000Y-118312000D01*
X165445930Y-73608000D02*
X165445930Y-118312000D01*
X131851165Y-123767511D02*
X126640000Y-118312000D01*
X118033224Y-124771658D02*
X119331000Y-123773000D01*
X133154776Y-67148342D02*
X131857000Y-68147000D01*
X118902070Y-63588000D02*
X132274776Y-63588342D01*
X159702069Y-63588033D02*
G75*
G03*
X158822070Y-67148000I-30669J-1881167D01*
G01*
X85840000Y-73608000D02*
X85840000Y-118312000D01*
X86330000Y-47907100D02*
G75*
G03*
X85830000Y-48407106I0J-500000D01*
G01*
X98513224Y-128331658D02*
X111885930Y-128332000D01*
X180531000Y-123773000D02*
X185845930Y-118312000D01*
X112754766Y-67148323D02*
G75*
G03*
X111874776Y-63588342I-849266J1678823D01*
G01*
X158822070Y-67148000D02*
X160136835Y-68152489D01*
X152257000Y-68147000D02*
X147040000Y-73608000D01*
X85830000Y-63090000D02*
G75*
G03*
X86330000Y-63590000I500000J0D01*
G01*
X92354766Y-67148323D02*
G75*
G03*
X91474776Y-63588342I-849266J1678823D01*
G01*
X131857000Y-68147000D02*
X126640000Y-73608000D01*
X111457000Y-68147000D02*
X106240000Y-73608000D01*
X86330000Y-63590000D02*
X91474776Y-63588342D01*
X173954766Y-67148323D02*
G75*
G03*
X173074776Y-63588342I-849266J1678823D01*
G01*
X139302070Y-63588000D02*
X152674776Y-63588342D01*
X86330000Y-128337100D02*
G75*
G03*
X85830000Y-128837106I0J-500000D01*
G01*
X98502070Y-63588000D02*
X111874776Y-63588342D01*
X172651165Y-123767511D02*
X167440000Y-118312000D01*
X132285931Y-128331967D02*
G75*
G03*
X133165930Y-124772000I30669J1881167D01*
G01*
X85830000Y-128837106D02*
X85830000Y-143520000D01*
X124645930Y-73608000D02*
X124645930Y-118312000D01*
X98502069Y-63588033D02*
G75*
G03*
X97622070Y-67148000I-30669J-1881167D01*
G01*
X118902069Y-63588033D02*
G75*
G03*
X118022070Y-67148000I-30669J-1881167D01*
G01*
X112765930Y-124772000D02*
X111451165Y-123767511D01*
X153554766Y-67148323D02*
G75*
G03*
X152674776Y-63588342I-849266J1678823D01*
G01*
X139313224Y-128331658D02*
X152685930Y-128332000D01*
X111885931Y-128331967D02*
G75*
G03*
X112765930Y-124772000I30669J1881167D01*
G01*
X173954776Y-67148342D02*
X172657000Y-68147000D01*
X106240000Y-73608000D02*
X106240000Y-118312000D01*
X91057000Y-68147000D02*
X85840000Y-73608000D01*
X180102069Y-63588033D02*
G75*
G03*
X179222070Y-67148000I-30669J-1881167D01*
G01*
X85830000Y-48407106D02*
X85830000Y-63090000D01*
X159702070Y-63588000D02*
X173074776Y-63588342D01*
X185846447Y-128833553D02*
G75*
G03*
X185346447Y-128333553I-500047J-47D01*
G01*
X138433224Y-124771658D02*
X139731000Y-123773000D01*
D11*
X192788310Y-100490809D02*
X192788310Y-100300333D01*
X192740691Y-100205095D01*
X192693072Y-100157476D01*
X192550215Y-100062238D01*
X192359739Y-100014619D01*
X191978787Y-100014619D01*
X191883549Y-100062238D01*
X191835930Y-100109857D01*
X191788310Y-100205095D01*
X191788310Y-100395571D01*
X191835930Y-100490809D01*
X191883549Y-100538428D01*
X191978787Y-100586047D01*
X192216882Y-100586047D01*
X192312120Y-100538428D01*
X192359739Y-100490809D01*
X192407358Y-100395571D01*
X192407358Y-100205095D01*
X192359739Y-100109857D01*
X192312120Y-100062238D01*
X192216882Y-100014619D01*
X191788310Y-99157476D02*
X191788310Y-99347952D01*
X191835930Y-99443190D01*
X191883549Y-99490809D01*
X192026406Y-99586047D01*
X192216882Y-99633666D01*
X192597834Y-99633666D01*
X192693072Y-99586047D01*
X192740691Y-99538428D01*
X192788310Y-99443190D01*
X192788310Y-99252714D01*
X192740691Y-99157476D01*
X192693072Y-99109857D01*
X192597834Y-99062238D01*
X192359739Y-99062238D01*
X192264501Y-99109857D01*
X192216882Y-99157476D01*
X192169263Y-99252714D01*
X192169263Y-99443190D01*
X192216882Y-99538428D01*
X192264501Y-99586047D01*
X192359739Y-99633666D01*
X192740691Y-98586047D02*
X192788310Y-98586047D01*
X192883549Y-98633666D01*
X192931168Y-98681285D01*
X192788310Y-97633666D02*
X192788310Y-98205095D01*
X192788310Y-97919380D02*
X191788310Y-97919380D01*
X191931168Y-98014619D01*
X192026406Y-98109857D01*
X192074025Y-98205095D01*
X191788310Y-97300333D02*
X191788310Y-96681285D01*
X192169263Y-97014619D01*
X192169263Y-96871761D01*
X192216882Y-96776523D01*
X192264501Y-96728904D01*
X192359739Y-96681285D01*
X192597834Y-96681285D01*
X192693072Y-96728904D01*
X192740691Y-96776523D01*
X192788310Y-96871761D01*
X192788310Y-97157476D01*
X192740691Y-97252714D01*
X192693072Y-97300333D01*
X191788310Y-96062238D02*
X191788310Y-95967000D01*
X191835930Y-95871761D01*
X191883549Y-95824142D01*
X191978787Y-95776523D01*
X192169263Y-95728904D01*
X192407358Y-95728904D01*
X192597834Y-95776523D01*
X192693072Y-95824142D01*
X192740691Y-95871761D01*
X192788310Y-95967000D01*
X192788310Y-96062238D01*
X192740691Y-96157476D01*
X192693072Y-96205095D01*
X192597834Y-96252714D01*
X192407358Y-96300333D01*
X192169263Y-96300333D01*
X191978787Y-96252714D01*
X191883549Y-96205095D01*
X191835930Y-96157476D01*
X191788310Y-96062238D01*
X191788310Y-95109857D02*
X191788310Y-95014619D01*
X191835930Y-94919380D01*
X191883549Y-94871761D01*
X191978787Y-94824142D01*
X192169263Y-94776523D01*
X192407358Y-94776523D01*
X192597834Y-94824142D01*
X192693072Y-94871761D01*
X192740691Y-94919380D01*
X192788310Y-95014619D01*
X192788310Y-95109857D01*
X192740691Y-95205095D01*
X192693072Y-95252714D01*
X192597834Y-95300333D01*
X192407358Y-95347952D01*
X192169263Y-95347952D01*
X191978787Y-95300333D01*
X191883549Y-95252714D01*
X191835930Y-95205095D01*
X191788310Y-95109857D01*
X192788310Y-93586047D02*
X192121644Y-93586047D01*
X192216882Y-93586047D02*
X192169263Y-93538428D01*
X192121644Y-93443190D01*
X192121644Y-93300333D01*
X192169263Y-93205095D01*
X192264501Y-93157476D01*
X192788310Y-93157476D01*
X192264501Y-93157476D02*
X192169263Y-93109857D01*
X192121644Y-93014619D01*
X192121644Y-92871761D01*
X192169263Y-92776523D01*
X192264501Y-92728904D01*
X192788310Y-92728904D01*
X192788310Y-92252714D02*
X192121644Y-92252714D01*
X192216882Y-92252714D02*
X192169263Y-92205095D01*
X192121644Y-92109857D01*
X192121644Y-91967000D01*
X192169263Y-91871761D01*
X192264501Y-91824142D01*
X192788310Y-91824142D01*
X192264501Y-91824142D02*
X192169263Y-91776523D01*
X192121644Y-91681285D01*
X192121644Y-91538428D01*
X192169263Y-91443190D01*
X192264501Y-91395571D01*
X192788310Y-91395571D01*
D10*
X186345930Y-144032000D02*
X194072350Y-144032000D01*
X186345930Y-47902000D02*
X194072350Y-47902000D01*
X193485930Y-144032000D02*
X193485930Y-47902000D01*
X193485930Y-144032000D02*
X193485930Y-47902000D01*
X193485930Y-144032000D02*
X194072351Y-142905496D01*
X193485930Y-144032000D02*
X192899509Y-142905496D01*
X193485930Y-47902000D02*
X192899509Y-49028504D01*
X193485930Y-47902000D02*
X194072351Y-49028504D01*
D11*
X131317120Y-148104380D02*
X130745691Y-148104380D01*
X131031406Y-148104380D02*
X131031406Y-147104380D01*
X130936168Y-147247238D01*
X130840930Y-147342476D01*
X130745691Y-147390095D01*
X131936168Y-147104380D02*
X132031406Y-147104380D01*
X132126644Y-147152000D01*
X132174263Y-147199619D01*
X132221882Y-147294857D01*
X132269501Y-147485333D01*
X132269501Y-147723428D01*
X132221882Y-147913904D01*
X132174263Y-148009142D01*
X132126644Y-148056761D01*
X132031406Y-148104380D01*
X131936168Y-148104380D01*
X131840930Y-148056761D01*
X131793310Y-148009142D01*
X131745691Y-147913904D01*
X131698072Y-147723428D01*
X131698072Y-147485333D01*
X131745691Y-147294857D01*
X131793310Y-147199619D01*
X131840930Y-147152000D01*
X131936168Y-147104380D01*
X132888549Y-147104380D02*
X132983787Y-147104380D01*
X133079025Y-147152000D01*
X133126644Y-147199619D01*
X133174263Y-147294857D01*
X133221882Y-147485333D01*
X133221882Y-147723428D01*
X133174263Y-147913904D01*
X133126644Y-148009142D01*
X133079025Y-148056761D01*
X132983787Y-148104380D01*
X132888549Y-148104380D01*
X132793310Y-148056761D01*
X132745691Y-148009142D01*
X132698072Y-147913904D01*
X132650453Y-147723428D01*
X132650453Y-147485333D01*
X132698072Y-147294857D01*
X132745691Y-147199619D01*
X132793310Y-147152000D01*
X132888549Y-147104380D01*
X133698072Y-148056761D02*
X133698072Y-148104380D01*
X133650453Y-148199619D01*
X133602834Y-148247238D01*
X134317120Y-147104380D02*
X134412358Y-147104380D01*
X134507596Y-147152000D01*
X134555215Y-147199619D01*
X134602834Y-147294857D01*
X134650453Y-147485333D01*
X134650453Y-147723428D01*
X134602834Y-147913904D01*
X134555215Y-148009142D01*
X134507596Y-148056761D01*
X134412358Y-148104380D01*
X134317120Y-148104380D01*
X134221882Y-148056761D01*
X134174263Y-148009142D01*
X134126644Y-147913904D01*
X134079025Y-147723428D01*
X134079025Y-147485333D01*
X134126644Y-147294857D01*
X134174263Y-147199619D01*
X134221882Y-147152000D01*
X134317120Y-147104380D01*
X135602834Y-148104380D02*
X135031406Y-148104380D01*
X135317120Y-148104380D02*
X135317120Y-147104380D01*
X135221882Y-147247238D01*
X135126644Y-147342476D01*
X135031406Y-147390095D01*
X136221882Y-147104380D02*
X136317120Y-147104380D01*
X136412358Y-147152000D01*
X136459977Y-147199619D01*
X136507596Y-147294857D01*
X136555215Y-147485333D01*
X136555215Y-147723428D01*
X136507596Y-147913904D01*
X136459977Y-148009142D01*
X136412358Y-148056761D01*
X136317120Y-148104380D01*
X136221882Y-148104380D01*
X136126644Y-148056761D01*
X136079025Y-148009142D01*
X136031406Y-147913904D01*
X135983787Y-147723428D01*
X135983787Y-147485333D01*
X136031406Y-147294857D01*
X136079025Y-147199619D01*
X136126644Y-147152000D01*
X136221882Y-147104380D01*
X137174263Y-147104380D02*
X137269501Y-147104380D01*
X137364739Y-147152000D01*
X137412358Y-147199619D01*
X137459977Y-147294857D01*
X137507596Y-147485333D01*
X137507596Y-147723428D01*
X137459977Y-147913904D01*
X137412358Y-148009142D01*
X137364739Y-148056761D01*
X137269501Y-148104380D01*
X137174263Y-148104380D01*
X137079025Y-148056761D01*
X137031406Y-148009142D01*
X136983787Y-147913904D01*
X136936168Y-147723428D01*
X136936168Y-147485333D01*
X136983787Y-147294857D01*
X137031406Y-147199619D01*
X137079025Y-147152000D01*
X137174263Y-147104380D01*
X138698072Y-148104380D02*
X138698072Y-147437714D01*
X138698072Y-147532952D02*
X138745691Y-147485333D01*
X138840930Y-147437714D01*
X138983787Y-147437714D01*
X139079025Y-147485333D01*
X139126644Y-147580571D01*
X139126644Y-148104380D01*
X139126644Y-147580571D02*
X139174263Y-147485333D01*
X139269501Y-147437714D01*
X139412358Y-147437714D01*
X139507596Y-147485333D01*
X139555215Y-147580571D01*
X139555215Y-148104380D01*
X140031406Y-148104380D02*
X140031406Y-147437714D01*
X140031406Y-147532952D02*
X140079025Y-147485333D01*
X140174263Y-147437714D01*
X140317120Y-147437714D01*
X140412358Y-147485333D01*
X140459977Y-147580571D01*
X140459977Y-148104380D01*
X140459977Y-147580571D02*
X140507596Y-147485333D01*
X140602834Y-147437714D01*
X140745691Y-147437714D01*
X140840930Y-147485333D01*
X140888549Y-147580571D01*
X140888549Y-148104380D01*
D10*
X85835930Y-144532000D02*
X85835930Y-149388420D01*
X185845930Y-144532000D02*
X185845930Y-149388420D01*
X85835930Y-148802000D02*
X185845930Y-148802000D01*
X85835930Y-148802000D02*
X185845930Y-148802000D01*
X85835930Y-148802000D02*
X86962434Y-149388421D01*
X85835930Y-148802000D02*
X86962434Y-148215579D01*
X185845930Y-148802000D02*
X184719426Y-148215579D01*
X185845930Y-148802000D02*
X184719426Y-149388421D01*
M02*
