%TF.GenerationSoftware,KiCad,Pcbnew,6.0.3-a3aad9c10e~116~ubuntu20.04.1*%
%TF.CreationDate,2022-03-20T14:38:18+01:00*%
%TF.ProjectId,5xPro_Micro_GPIB,35785072-6f5f-44d6-9963-726f5f475049,rev?*%
%TF.SameCoordinates,Original*%
%TF.FileFunction,Legend,Top*%
%TF.FilePolarity,Positive*%
%FSLAX46Y46*%
G04 Gerber Fmt 4.6, Leading zero omitted, Abs format (unit mm)*
G04 Created by KiCad (PCBNEW 6.0.3-a3aad9c10e~116~ubuntu20.04.1) date 2022-03-20 14:38:18*
%MOMM*%
%LPD*%
G01*
G04 APERTURE LIST*
%ADD10C,0.120000*%
%ADD11C,0.150000*%
%ADD12C,0.300000*%
%ADD13C,0.400000*%
%ADD14C,0.100000*%
G04 APERTURE END LIST*
D10*
X104175930Y-76011268D02*
X85915930Y-76011268D01*
D11*
X182833045Y-76011268D02*
X182835930Y-106432000D01*
D10*
X116995930Y-81512000D02*
X116935930Y-81512000D01*
X178195930Y-81512000D02*
X178135930Y-81512000D01*
X165375930Y-76011268D02*
X147115930Y-76011268D01*
X185775930Y-76011268D02*
X167515930Y-76011268D01*
D11*
X142033045Y-76011268D02*
X142035930Y-106432000D01*
X121633045Y-76011268D02*
X121635930Y-106432000D01*
X129836545Y-76021268D02*
X129836545Y-106431268D01*
D10*
X137395930Y-81512000D02*
X137335930Y-81512000D01*
D11*
X150236545Y-76021268D02*
X150236545Y-106431268D01*
D10*
X96595930Y-81512000D02*
X96535930Y-81512000D01*
D11*
X162433045Y-76011268D02*
X162435930Y-106432000D01*
X109436545Y-76021268D02*
X109436545Y-106431268D01*
D10*
X144975930Y-76011268D02*
X126715930Y-76011268D01*
X124575930Y-76011268D02*
X106315930Y-76011268D01*
D11*
X101233045Y-76011268D02*
X101235930Y-106432000D01*
X89036545Y-76021268D02*
X89036545Y-106431268D01*
D10*
X157795930Y-81512000D02*
X157735930Y-81512000D01*
D11*
X170636545Y-76021268D02*
X170636545Y-106431268D01*
D12*
X119622571Y-116910571D02*
X119979714Y-117910571D01*
X120336857Y-116910571D01*
X120765428Y-116410571D02*
X121694000Y-116410571D01*
X121194000Y-116982000D01*
X121408285Y-116982000D01*
X121551142Y-117053428D01*
X121622571Y-117124857D01*
X121694000Y-117267714D01*
X121694000Y-117624857D01*
X121622571Y-117767714D01*
X121551142Y-117839142D01*
X121408285Y-117910571D01*
X120979714Y-117910571D01*
X120836857Y-117839142D01*
X120765428Y-117767714D01*
D11*
X109338095Y-73400000D02*
X109242857Y-73352380D01*
X109100000Y-73352380D01*
X108957142Y-73400000D01*
X108861904Y-73495238D01*
X108814285Y-73590476D01*
X108766666Y-73780952D01*
X108766666Y-73923809D01*
X108814285Y-74114285D01*
X108861904Y-74209523D01*
X108957142Y-74304761D01*
X109100000Y-74352380D01*
X109195238Y-74352380D01*
X109338095Y-74304761D01*
X109385714Y-74257142D01*
X109385714Y-73923809D01*
X109195238Y-73923809D01*
X109814285Y-74352380D02*
X109814285Y-73352380D01*
X110385714Y-74352380D01*
X110385714Y-73352380D01*
X110861904Y-74352380D02*
X110861904Y-73352380D01*
X111100000Y-73352380D01*
X111242857Y-73400000D01*
X111338095Y-73495238D01*
X111385714Y-73590476D01*
X111433333Y-73780952D01*
X111433333Y-73923809D01*
X111385714Y-74114285D01*
X111338095Y-74209523D01*
X111242857Y-74304761D01*
X111100000Y-74352380D01*
X110861904Y-74352380D01*
X88938095Y-73400000D02*
X88842857Y-73352380D01*
X88700000Y-73352380D01*
X88557142Y-73400000D01*
X88461904Y-73495238D01*
X88414285Y-73590476D01*
X88366666Y-73780952D01*
X88366666Y-73923809D01*
X88414285Y-74114285D01*
X88461904Y-74209523D01*
X88557142Y-74304761D01*
X88700000Y-74352380D01*
X88795238Y-74352380D01*
X88938095Y-74304761D01*
X88985714Y-74257142D01*
X88985714Y-73923809D01*
X88795238Y-73923809D01*
X89414285Y-74352380D02*
X89414285Y-73352380D01*
X89985714Y-74352380D01*
X89985714Y-73352380D01*
X90461904Y-74352380D02*
X90461904Y-73352380D01*
X90700000Y-73352380D01*
X90842857Y-73400000D01*
X90938095Y-73495238D01*
X90985714Y-73590476D01*
X91033333Y-73780952D01*
X91033333Y-73923809D01*
X90985714Y-74114285D01*
X90938095Y-74209523D01*
X90842857Y-74304761D01*
X90700000Y-74352380D01*
X90461904Y-74352380D01*
X180675714Y-74369761D02*
X180804285Y-74417380D01*
X181018571Y-74417380D01*
X181104285Y-74369761D01*
X181147142Y-74322142D01*
X181190000Y-74226904D01*
X181190000Y-74131666D01*
X181147142Y-74036428D01*
X181104285Y-73988809D01*
X181018571Y-73941190D01*
X180847142Y-73893571D01*
X180761428Y-73845952D01*
X180718571Y-73798333D01*
X180675714Y-73703095D01*
X180675714Y-73607857D01*
X180718571Y-73512619D01*
X180761428Y-73465000D01*
X180847142Y-73417380D01*
X181061428Y-73417380D01*
X181190000Y-73465000D01*
X181575714Y-74417380D02*
X181575714Y-73417380D01*
X181575714Y-73893571D02*
X182090000Y-73893571D01*
X182090000Y-74417380D02*
X182090000Y-73417380D01*
X182518571Y-73893571D02*
X182818571Y-73893571D01*
X182947142Y-74417380D02*
X182518571Y-74417380D01*
X182518571Y-73417380D01*
X182947142Y-73417380D01*
X183332857Y-74417380D02*
X183332857Y-73417380D01*
X184190000Y-74417380D02*
X183761428Y-74417380D01*
X183761428Y-73417380D01*
X184490000Y-74417380D02*
X184490000Y-73417380D01*
X184704285Y-73417380D01*
X184832857Y-73465000D01*
X184918571Y-73560238D01*
X184961428Y-73655476D01*
X185004285Y-73845952D01*
X185004285Y-73988809D01*
X184961428Y-74179285D01*
X184918571Y-74274523D01*
X184832857Y-74369761D01*
X184704285Y-74417380D01*
X184490000Y-74417380D01*
D12*
X152470000Y-80800000D02*
X152470000Y-79400000D01*
X152470000Y-79600000D02*
X152570000Y-79500000D01*
X152770000Y-79400000D01*
X153070000Y-79400000D01*
X153270000Y-79500000D01*
X153370000Y-79700000D01*
X153370000Y-80800000D01*
X153370000Y-79700000D02*
X153470000Y-79500000D01*
X153670000Y-79400000D01*
X153970000Y-79400000D01*
X154170000Y-79500000D01*
X154270000Y-79700000D01*
X154270000Y-80800000D01*
X155270000Y-80800000D02*
X155270000Y-79400000D01*
X155270000Y-78700000D02*
X155170000Y-78800000D01*
X155270000Y-78900000D01*
X155370000Y-78800000D01*
X155270000Y-78700000D01*
X155270000Y-78900000D01*
X157170000Y-80700000D02*
X156970000Y-80800000D01*
X156570000Y-80800000D01*
X156370000Y-80700000D01*
X156270000Y-80600000D01*
X156170000Y-80400000D01*
X156170000Y-79800000D01*
X156270000Y-79600000D01*
X156370000Y-79500000D01*
X156570000Y-79400000D01*
X156970000Y-79400000D01*
X157170000Y-79500000D01*
X158070000Y-80800000D02*
X158070000Y-79400000D01*
X158070000Y-79800000D02*
X158170000Y-79600000D01*
X158270000Y-79500000D01*
X158470000Y-79400000D01*
X158670000Y-79400000D01*
X159670000Y-80800000D02*
X159470000Y-80700000D01*
X159370000Y-80600000D01*
X159270000Y-80400000D01*
X159270000Y-79800000D01*
X159370000Y-79600000D01*
X159470000Y-79500000D01*
X159670000Y-79400000D01*
X159970000Y-79400000D01*
X160170000Y-79500000D01*
X160270000Y-79600000D01*
X160370000Y-79800000D01*
X160370000Y-80400000D01*
X160270000Y-80600000D01*
X160170000Y-80700000D01*
X159970000Y-80800000D01*
X159670000Y-80800000D01*
X172870000Y-80800000D02*
X172870000Y-79400000D01*
X172870000Y-79600000D02*
X172970000Y-79500000D01*
X173170000Y-79400000D01*
X173470000Y-79400000D01*
X173670000Y-79500000D01*
X173770000Y-79700000D01*
X173770000Y-80800000D01*
X173770000Y-79700000D02*
X173870000Y-79500000D01*
X174070000Y-79400000D01*
X174370000Y-79400000D01*
X174570000Y-79500000D01*
X174670000Y-79700000D01*
X174670000Y-80800000D01*
X175670000Y-80800000D02*
X175670000Y-79400000D01*
X175670000Y-78700000D02*
X175570000Y-78800000D01*
X175670000Y-78900000D01*
X175770000Y-78800000D01*
X175670000Y-78700000D01*
X175670000Y-78900000D01*
X177570000Y-80700000D02*
X177370000Y-80800000D01*
X176970000Y-80800000D01*
X176770000Y-80700000D01*
X176670000Y-80600000D01*
X176570000Y-80400000D01*
X176570000Y-79800000D01*
X176670000Y-79600000D01*
X176770000Y-79500000D01*
X176970000Y-79400000D01*
X177370000Y-79400000D01*
X177570000Y-79500000D01*
X178470000Y-80800000D02*
X178470000Y-79400000D01*
X178470000Y-79800000D02*
X178570000Y-79600000D01*
X178670000Y-79500000D01*
X178870000Y-79400000D01*
X179070000Y-79400000D01*
X180070000Y-80800000D02*
X179870000Y-80700000D01*
X179770000Y-80600000D01*
X179670000Y-80400000D01*
X179670000Y-79800000D01*
X179770000Y-79600000D01*
X179870000Y-79500000D01*
X180070000Y-79400000D01*
X180370000Y-79400000D01*
X180570000Y-79500000D01*
X180670000Y-79600000D01*
X180770000Y-79800000D01*
X180770000Y-80400000D01*
X180670000Y-80600000D01*
X180570000Y-80700000D01*
X180370000Y-80800000D01*
X180070000Y-80800000D01*
D11*
X150138095Y-73400000D02*
X150042857Y-73352380D01*
X149900000Y-73352380D01*
X149757142Y-73400000D01*
X149661904Y-73495238D01*
X149614285Y-73590476D01*
X149566666Y-73780952D01*
X149566666Y-73923809D01*
X149614285Y-74114285D01*
X149661904Y-74209523D01*
X149757142Y-74304761D01*
X149900000Y-74352380D01*
X149995238Y-74352380D01*
X150138095Y-74304761D01*
X150185714Y-74257142D01*
X150185714Y-73923809D01*
X149995238Y-73923809D01*
X150614285Y-74352380D02*
X150614285Y-73352380D01*
X151185714Y-74352380D01*
X151185714Y-73352380D01*
X151661904Y-74352380D02*
X151661904Y-73352380D01*
X151900000Y-73352380D01*
X152042857Y-73400000D01*
X152138095Y-73495238D01*
X152185714Y-73590476D01*
X152233333Y-73780952D01*
X152233333Y-73923809D01*
X152185714Y-74114285D01*
X152138095Y-74209523D01*
X152042857Y-74304761D01*
X151900000Y-74352380D01*
X151661904Y-74352380D01*
D12*
X91270000Y-80800000D02*
X91270000Y-79400000D01*
X91270000Y-79600000D02*
X91370000Y-79500000D01*
X91570000Y-79400000D01*
X91870000Y-79400000D01*
X92070000Y-79500000D01*
X92170000Y-79700000D01*
X92170000Y-80800000D01*
X92170000Y-79700000D02*
X92270000Y-79500000D01*
X92470000Y-79400000D01*
X92770000Y-79400000D01*
X92970000Y-79500000D01*
X93070000Y-79700000D01*
X93070000Y-80800000D01*
X94070000Y-80800000D02*
X94070000Y-79400000D01*
X94070000Y-78700000D02*
X93970000Y-78800000D01*
X94070000Y-78900000D01*
X94170000Y-78800000D01*
X94070000Y-78700000D01*
X94070000Y-78900000D01*
X95970000Y-80700000D02*
X95770000Y-80800000D01*
X95370000Y-80800000D01*
X95170000Y-80700000D01*
X95070000Y-80600000D01*
X94970000Y-80400000D01*
X94970000Y-79800000D01*
X95070000Y-79600000D01*
X95170000Y-79500000D01*
X95370000Y-79400000D01*
X95770000Y-79400000D01*
X95970000Y-79500000D01*
X96870000Y-80800000D02*
X96870000Y-79400000D01*
X96870000Y-79800000D02*
X96970000Y-79600000D01*
X97070000Y-79500000D01*
X97270000Y-79400000D01*
X97470000Y-79400000D01*
X98470000Y-80800000D02*
X98270000Y-80700000D01*
X98170000Y-80600000D01*
X98070000Y-80400000D01*
X98070000Y-79800000D01*
X98170000Y-79600000D01*
X98270000Y-79500000D01*
X98470000Y-79400000D01*
X98770000Y-79400000D01*
X98970000Y-79500000D01*
X99070000Y-79600000D01*
X99170000Y-79800000D01*
X99170000Y-80400000D01*
X99070000Y-80600000D01*
X98970000Y-80700000D01*
X98770000Y-80800000D01*
X98470000Y-80800000D01*
X93120000Y-76640000D02*
X93120000Y-78740000D01*
X93120000Y-76740000D02*
X93320000Y-76640000D01*
X93720000Y-76640000D01*
X93920000Y-76740000D01*
X94020000Y-76840000D01*
X94120000Y-77040000D01*
X94120000Y-77640000D01*
X94020000Y-77840000D01*
X93920000Y-77940000D01*
X93720000Y-78040000D01*
X93320000Y-78040000D01*
X93120000Y-77940000D01*
X95020000Y-78040000D02*
X95020000Y-76640000D01*
X95020000Y-77040000D02*
X95120000Y-76840000D01*
X95220000Y-76740000D01*
X95420000Y-76640000D01*
X95620000Y-76640000D01*
X96620000Y-78040000D02*
X96420000Y-77940000D01*
X96320000Y-77840000D01*
X96220000Y-77640000D01*
X96220000Y-77040000D01*
X96320000Y-76840000D01*
X96420000Y-76740000D01*
X96620000Y-76640000D01*
X96920000Y-76640000D01*
X97120000Y-76740000D01*
X97220000Y-76840000D01*
X97320000Y-77040000D01*
X97320000Y-77640000D01*
X97220000Y-77840000D01*
X97120000Y-77940000D01*
X96920000Y-78040000D01*
X96620000Y-78040000D01*
X113520000Y-76640000D02*
X113520000Y-78740000D01*
X113520000Y-76740000D02*
X113720000Y-76640000D01*
X114120000Y-76640000D01*
X114320000Y-76740000D01*
X114420000Y-76840000D01*
X114520000Y-77040000D01*
X114520000Y-77640000D01*
X114420000Y-77840000D01*
X114320000Y-77940000D01*
X114120000Y-78040000D01*
X113720000Y-78040000D01*
X113520000Y-77940000D01*
X115420000Y-78040000D02*
X115420000Y-76640000D01*
X115420000Y-77040000D02*
X115520000Y-76840000D01*
X115620000Y-76740000D01*
X115820000Y-76640000D01*
X116020000Y-76640000D01*
X117020000Y-78040000D02*
X116820000Y-77940000D01*
X116720000Y-77840000D01*
X116620000Y-77640000D01*
X116620000Y-77040000D01*
X116720000Y-76840000D01*
X116820000Y-76740000D01*
X117020000Y-76640000D01*
X117320000Y-76640000D01*
X117520000Y-76740000D01*
X117620000Y-76840000D01*
X117720000Y-77040000D01*
X117720000Y-77640000D01*
X117620000Y-77840000D01*
X117520000Y-77940000D01*
X117320000Y-78040000D01*
X117020000Y-78040000D01*
D11*
X119475714Y-74369761D02*
X119604285Y-74417380D01*
X119818571Y-74417380D01*
X119904285Y-74369761D01*
X119947142Y-74322142D01*
X119990000Y-74226904D01*
X119990000Y-74131666D01*
X119947142Y-74036428D01*
X119904285Y-73988809D01*
X119818571Y-73941190D01*
X119647142Y-73893571D01*
X119561428Y-73845952D01*
X119518571Y-73798333D01*
X119475714Y-73703095D01*
X119475714Y-73607857D01*
X119518571Y-73512619D01*
X119561428Y-73465000D01*
X119647142Y-73417380D01*
X119861428Y-73417380D01*
X119990000Y-73465000D01*
X120375714Y-74417380D02*
X120375714Y-73417380D01*
X120375714Y-73893571D02*
X120890000Y-73893571D01*
X120890000Y-74417380D02*
X120890000Y-73417380D01*
X121318571Y-73893571D02*
X121618571Y-73893571D01*
X121747142Y-74417380D02*
X121318571Y-74417380D01*
X121318571Y-73417380D01*
X121747142Y-73417380D01*
X122132857Y-74417380D02*
X122132857Y-73417380D01*
X122990000Y-74417380D02*
X122561428Y-74417380D01*
X122561428Y-73417380D01*
X123290000Y-74417380D02*
X123290000Y-73417380D01*
X123504285Y-73417380D01*
X123632857Y-73465000D01*
X123718571Y-73560238D01*
X123761428Y-73655476D01*
X123804285Y-73845952D01*
X123804285Y-73988809D01*
X123761428Y-74179285D01*
X123718571Y-74274523D01*
X123632857Y-74369761D01*
X123504285Y-74417380D01*
X123290000Y-74417380D01*
X170538095Y-73400000D02*
X170442857Y-73352380D01*
X170300000Y-73352380D01*
X170157142Y-73400000D01*
X170061904Y-73495238D01*
X170014285Y-73590476D01*
X169966666Y-73780952D01*
X169966666Y-73923809D01*
X170014285Y-74114285D01*
X170061904Y-74209523D01*
X170157142Y-74304761D01*
X170300000Y-74352380D01*
X170395238Y-74352380D01*
X170538095Y-74304761D01*
X170585714Y-74257142D01*
X170585714Y-73923809D01*
X170395238Y-73923809D01*
X171014285Y-74352380D02*
X171014285Y-73352380D01*
X171585714Y-74352380D01*
X171585714Y-73352380D01*
X172061904Y-74352380D02*
X172061904Y-73352380D01*
X172300000Y-73352380D01*
X172442857Y-73400000D01*
X172538095Y-73495238D01*
X172585714Y-73590476D01*
X172633333Y-73780952D01*
X172633333Y-73923809D01*
X172585714Y-74114285D01*
X172538095Y-74209523D01*
X172442857Y-74304761D01*
X172300000Y-74352380D01*
X172061904Y-74352380D01*
D12*
X99222571Y-116910571D02*
X99579714Y-117910571D01*
X99936857Y-116910571D01*
X100365428Y-116410571D02*
X101294000Y-116410571D01*
X100794000Y-116982000D01*
X101008285Y-116982000D01*
X101151142Y-117053428D01*
X101222571Y-117124857D01*
X101294000Y-117267714D01*
X101294000Y-117624857D01*
X101222571Y-117767714D01*
X101151142Y-117839142D01*
X101008285Y-117910571D01*
X100579714Y-117910571D01*
X100436857Y-117839142D01*
X100365428Y-117767714D01*
D13*
X170144000Y-113762000D02*
X171572571Y-113762000D01*
X169858285Y-114619142D02*
X170858285Y-111619142D01*
X171858285Y-114619142D01*
X174572571Y-114619142D02*
X173572571Y-113190571D01*
X172858285Y-114619142D02*
X172858285Y-111619142D01*
X174001142Y-111619142D01*
X174286857Y-111762000D01*
X174429714Y-111904857D01*
X174572571Y-112190571D01*
X174572571Y-112619142D01*
X174429714Y-112904857D01*
X174286857Y-113047714D01*
X174001142Y-113190571D01*
X172858285Y-113190571D01*
X177144000Y-112619142D02*
X177144000Y-114619142D01*
X176429714Y-111476285D02*
X175715428Y-113619142D01*
X177572571Y-113619142D01*
X179144000Y-112904857D02*
X178858285Y-112762000D01*
X178715428Y-112619142D01*
X178572571Y-112333428D01*
X178572571Y-112190571D01*
X178715428Y-111904857D01*
X178858285Y-111762000D01*
X179144000Y-111619142D01*
X179715428Y-111619142D01*
X180001142Y-111762000D01*
X180144000Y-111904857D01*
X180286857Y-112190571D01*
X180286857Y-112333428D01*
X180144000Y-112619142D01*
X180001142Y-112762000D01*
X179715428Y-112904857D01*
X179144000Y-112904857D01*
X178858285Y-113047714D01*
X178715428Y-113190571D01*
X178572571Y-113476285D01*
X178572571Y-114047714D01*
X178715428Y-114333428D01*
X178858285Y-114476285D01*
X179144000Y-114619142D01*
X179715428Y-114619142D01*
X180001142Y-114476285D01*
X180144000Y-114333428D01*
X180286857Y-114047714D01*
X180286857Y-113476285D01*
X180144000Y-113190571D01*
X180001142Y-113047714D01*
X179715428Y-112904857D01*
X182001142Y-112904857D02*
X181715428Y-112762000D01*
X181572571Y-112619142D01*
X181429714Y-112333428D01*
X181429714Y-112190571D01*
X181572571Y-111904857D01*
X181715428Y-111762000D01*
X182001142Y-111619142D01*
X182572571Y-111619142D01*
X182858285Y-111762000D01*
X183001142Y-111904857D01*
X183144000Y-112190571D01*
X183144000Y-112333428D01*
X183001142Y-112619142D01*
X182858285Y-112762000D01*
X182572571Y-112904857D01*
X182001142Y-112904857D01*
X181715428Y-113047714D01*
X181572571Y-113190571D01*
X181429714Y-113476285D01*
X181429714Y-114047714D01*
X181572571Y-114333428D01*
X181715428Y-114476285D01*
X182001142Y-114619142D01*
X182572571Y-114619142D01*
X182858285Y-114476285D01*
X183001142Y-114333428D01*
X183144000Y-114047714D01*
X183144000Y-113476285D01*
X183001142Y-113190571D01*
X182858285Y-113047714D01*
X182572571Y-112904857D01*
D11*
X139875714Y-74369761D02*
X140004285Y-74417380D01*
X140218571Y-74417380D01*
X140304285Y-74369761D01*
X140347142Y-74322142D01*
X140390000Y-74226904D01*
X140390000Y-74131666D01*
X140347142Y-74036428D01*
X140304285Y-73988809D01*
X140218571Y-73941190D01*
X140047142Y-73893571D01*
X139961428Y-73845952D01*
X139918571Y-73798333D01*
X139875714Y-73703095D01*
X139875714Y-73607857D01*
X139918571Y-73512619D01*
X139961428Y-73465000D01*
X140047142Y-73417380D01*
X140261428Y-73417380D01*
X140390000Y-73465000D01*
X140775714Y-74417380D02*
X140775714Y-73417380D01*
X140775714Y-73893571D02*
X141290000Y-73893571D01*
X141290000Y-74417380D02*
X141290000Y-73417380D01*
X141718571Y-73893571D02*
X142018571Y-73893571D01*
X142147142Y-74417380D02*
X141718571Y-74417380D01*
X141718571Y-73417380D01*
X142147142Y-73417380D01*
X142532857Y-74417380D02*
X142532857Y-73417380D01*
X143390000Y-74417380D02*
X142961428Y-74417380D01*
X142961428Y-73417380D01*
X143690000Y-74417380D02*
X143690000Y-73417380D01*
X143904285Y-73417380D01*
X144032857Y-73465000D01*
X144118571Y-73560238D01*
X144161428Y-73655476D01*
X144204285Y-73845952D01*
X144204285Y-73988809D01*
X144161428Y-74179285D01*
X144118571Y-74274523D01*
X144032857Y-74369761D01*
X143904285Y-74417380D01*
X143690000Y-74417380D01*
D13*
X129344000Y-113762000D02*
X130772571Y-113762000D01*
X129058285Y-114619142D02*
X130058285Y-111619142D01*
X131058285Y-114619142D01*
X133772571Y-114619142D02*
X132772571Y-113190571D01*
X132058285Y-114619142D02*
X132058285Y-111619142D01*
X133201142Y-111619142D01*
X133486857Y-111762000D01*
X133629714Y-111904857D01*
X133772571Y-112190571D01*
X133772571Y-112619142D01*
X133629714Y-112904857D01*
X133486857Y-113047714D01*
X133201142Y-113190571D01*
X132058285Y-113190571D01*
X136344000Y-112619142D02*
X136344000Y-114619142D01*
X135629714Y-111476285D02*
X134915428Y-113619142D01*
X136772571Y-113619142D01*
X138344000Y-112904857D02*
X138058285Y-112762000D01*
X137915428Y-112619142D01*
X137772571Y-112333428D01*
X137772571Y-112190571D01*
X137915428Y-111904857D01*
X138058285Y-111762000D01*
X138344000Y-111619142D01*
X138915428Y-111619142D01*
X139201142Y-111762000D01*
X139344000Y-111904857D01*
X139486857Y-112190571D01*
X139486857Y-112333428D01*
X139344000Y-112619142D01*
X139201142Y-112762000D01*
X138915428Y-112904857D01*
X138344000Y-112904857D01*
X138058285Y-113047714D01*
X137915428Y-113190571D01*
X137772571Y-113476285D01*
X137772571Y-114047714D01*
X137915428Y-114333428D01*
X138058285Y-114476285D01*
X138344000Y-114619142D01*
X138915428Y-114619142D01*
X139201142Y-114476285D01*
X139344000Y-114333428D01*
X139486857Y-114047714D01*
X139486857Y-113476285D01*
X139344000Y-113190571D01*
X139201142Y-113047714D01*
X138915428Y-112904857D01*
X141201142Y-112904857D02*
X140915428Y-112762000D01*
X140772571Y-112619142D01*
X140629714Y-112333428D01*
X140629714Y-112190571D01*
X140772571Y-111904857D01*
X140915428Y-111762000D01*
X141201142Y-111619142D01*
X141772571Y-111619142D01*
X142058285Y-111762000D01*
X142201142Y-111904857D01*
X142344000Y-112190571D01*
X142344000Y-112333428D01*
X142201142Y-112619142D01*
X142058285Y-112762000D01*
X141772571Y-112904857D01*
X141201142Y-112904857D01*
X140915428Y-113047714D01*
X140772571Y-113190571D01*
X140629714Y-113476285D01*
X140629714Y-114047714D01*
X140772571Y-114333428D01*
X140915428Y-114476285D01*
X141201142Y-114619142D01*
X141772571Y-114619142D01*
X142058285Y-114476285D01*
X142201142Y-114333428D01*
X142344000Y-114047714D01*
X142344000Y-113476285D01*
X142201142Y-113190571D01*
X142058285Y-113047714D01*
X141772571Y-112904857D01*
D11*
X129738095Y-73400000D02*
X129642857Y-73352380D01*
X129500000Y-73352380D01*
X129357142Y-73400000D01*
X129261904Y-73495238D01*
X129214285Y-73590476D01*
X129166666Y-73780952D01*
X129166666Y-73923809D01*
X129214285Y-74114285D01*
X129261904Y-74209523D01*
X129357142Y-74304761D01*
X129500000Y-74352380D01*
X129595238Y-74352380D01*
X129738095Y-74304761D01*
X129785714Y-74257142D01*
X129785714Y-73923809D01*
X129595238Y-73923809D01*
X130214285Y-74352380D02*
X130214285Y-73352380D01*
X130785714Y-74352380D01*
X130785714Y-73352380D01*
X131261904Y-74352380D02*
X131261904Y-73352380D01*
X131500000Y-73352380D01*
X131642857Y-73400000D01*
X131738095Y-73495238D01*
X131785714Y-73590476D01*
X131833333Y-73780952D01*
X131833333Y-73923809D01*
X131785714Y-74114285D01*
X131738095Y-74209523D01*
X131642857Y-74304761D01*
X131500000Y-74352380D01*
X131261904Y-74352380D01*
X99075714Y-74369761D02*
X99204285Y-74417380D01*
X99418571Y-74417380D01*
X99504285Y-74369761D01*
X99547142Y-74322142D01*
X99590000Y-74226904D01*
X99590000Y-74131666D01*
X99547142Y-74036428D01*
X99504285Y-73988809D01*
X99418571Y-73941190D01*
X99247142Y-73893571D01*
X99161428Y-73845952D01*
X99118571Y-73798333D01*
X99075714Y-73703095D01*
X99075714Y-73607857D01*
X99118571Y-73512619D01*
X99161428Y-73465000D01*
X99247142Y-73417380D01*
X99461428Y-73417380D01*
X99590000Y-73465000D01*
X99975714Y-74417380D02*
X99975714Y-73417380D01*
X99975714Y-73893571D02*
X100490000Y-73893571D01*
X100490000Y-74417380D02*
X100490000Y-73417380D01*
X100918571Y-73893571D02*
X101218571Y-73893571D01*
X101347142Y-74417380D02*
X100918571Y-74417380D01*
X100918571Y-73417380D01*
X101347142Y-73417380D01*
X101732857Y-74417380D02*
X101732857Y-73417380D01*
X102590000Y-74417380D02*
X102161428Y-74417380D01*
X102161428Y-73417380D01*
X102890000Y-74417380D02*
X102890000Y-73417380D01*
X103104285Y-73417380D01*
X103232857Y-73465000D01*
X103318571Y-73560238D01*
X103361428Y-73655476D01*
X103404285Y-73845952D01*
X103404285Y-73988809D01*
X103361428Y-74179285D01*
X103318571Y-74274523D01*
X103232857Y-74369761D01*
X103104285Y-74417380D01*
X102890000Y-74417380D01*
D12*
X133920000Y-76640000D02*
X133920000Y-78740000D01*
X133920000Y-76740000D02*
X134120000Y-76640000D01*
X134520000Y-76640000D01*
X134720000Y-76740000D01*
X134820000Y-76840000D01*
X134920000Y-77040000D01*
X134920000Y-77640000D01*
X134820000Y-77840000D01*
X134720000Y-77940000D01*
X134520000Y-78040000D01*
X134120000Y-78040000D01*
X133920000Y-77940000D01*
X135820000Y-78040000D02*
X135820000Y-76640000D01*
X135820000Y-77040000D02*
X135920000Y-76840000D01*
X136020000Y-76740000D01*
X136220000Y-76640000D01*
X136420000Y-76640000D01*
X137420000Y-78040000D02*
X137220000Y-77940000D01*
X137120000Y-77840000D01*
X137020000Y-77640000D01*
X137020000Y-77040000D01*
X137120000Y-76840000D01*
X137220000Y-76740000D01*
X137420000Y-76640000D01*
X137720000Y-76640000D01*
X137920000Y-76740000D01*
X138020000Y-76840000D01*
X138120000Y-77040000D01*
X138120000Y-77640000D01*
X138020000Y-77840000D01*
X137920000Y-77940000D01*
X137720000Y-78040000D01*
X137420000Y-78040000D01*
D13*
X149744000Y-113762000D02*
X151172571Y-113762000D01*
X149458285Y-114619142D02*
X150458285Y-111619142D01*
X151458285Y-114619142D01*
X154172571Y-114619142D02*
X153172571Y-113190571D01*
X152458285Y-114619142D02*
X152458285Y-111619142D01*
X153601142Y-111619142D01*
X153886857Y-111762000D01*
X154029714Y-111904857D01*
X154172571Y-112190571D01*
X154172571Y-112619142D01*
X154029714Y-112904857D01*
X153886857Y-113047714D01*
X153601142Y-113190571D01*
X152458285Y-113190571D01*
X156744000Y-112619142D02*
X156744000Y-114619142D01*
X156029714Y-111476285D02*
X155315428Y-113619142D01*
X157172571Y-113619142D01*
X158744000Y-112904857D02*
X158458285Y-112762000D01*
X158315428Y-112619142D01*
X158172571Y-112333428D01*
X158172571Y-112190571D01*
X158315428Y-111904857D01*
X158458285Y-111762000D01*
X158744000Y-111619142D01*
X159315428Y-111619142D01*
X159601142Y-111762000D01*
X159744000Y-111904857D01*
X159886857Y-112190571D01*
X159886857Y-112333428D01*
X159744000Y-112619142D01*
X159601142Y-112762000D01*
X159315428Y-112904857D01*
X158744000Y-112904857D01*
X158458285Y-113047714D01*
X158315428Y-113190571D01*
X158172571Y-113476285D01*
X158172571Y-114047714D01*
X158315428Y-114333428D01*
X158458285Y-114476285D01*
X158744000Y-114619142D01*
X159315428Y-114619142D01*
X159601142Y-114476285D01*
X159744000Y-114333428D01*
X159886857Y-114047714D01*
X159886857Y-113476285D01*
X159744000Y-113190571D01*
X159601142Y-113047714D01*
X159315428Y-112904857D01*
X161601142Y-112904857D02*
X161315428Y-112762000D01*
X161172571Y-112619142D01*
X161029714Y-112333428D01*
X161029714Y-112190571D01*
X161172571Y-111904857D01*
X161315428Y-111762000D01*
X161601142Y-111619142D01*
X162172571Y-111619142D01*
X162458285Y-111762000D01*
X162601142Y-111904857D01*
X162744000Y-112190571D01*
X162744000Y-112333428D01*
X162601142Y-112619142D01*
X162458285Y-112762000D01*
X162172571Y-112904857D01*
X161601142Y-112904857D01*
X161315428Y-113047714D01*
X161172571Y-113190571D01*
X161029714Y-113476285D01*
X161029714Y-114047714D01*
X161172571Y-114333428D01*
X161315428Y-114476285D01*
X161601142Y-114619142D01*
X162172571Y-114619142D01*
X162458285Y-114476285D01*
X162601142Y-114333428D01*
X162744000Y-114047714D01*
X162744000Y-113476285D01*
X162601142Y-113190571D01*
X162458285Y-113047714D01*
X162172571Y-112904857D01*
D12*
X132070000Y-80800000D02*
X132070000Y-79400000D01*
X132070000Y-79600000D02*
X132170000Y-79500000D01*
X132370000Y-79400000D01*
X132670000Y-79400000D01*
X132870000Y-79500000D01*
X132970000Y-79700000D01*
X132970000Y-80800000D01*
X132970000Y-79700000D02*
X133070000Y-79500000D01*
X133270000Y-79400000D01*
X133570000Y-79400000D01*
X133770000Y-79500000D01*
X133870000Y-79700000D01*
X133870000Y-80800000D01*
X134870000Y-80800000D02*
X134870000Y-79400000D01*
X134870000Y-78700000D02*
X134770000Y-78800000D01*
X134870000Y-78900000D01*
X134970000Y-78800000D01*
X134870000Y-78700000D01*
X134870000Y-78900000D01*
X136770000Y-80700000D02*
X136570000Y-80800000D01*
X136170000Y-80800000D01*
X135970000Y-80700000D01*
X135870000Y-80600000D01*
X135770000Y-80400000D01*
X135770000Y-79800000D01*
X135870000Y-79600000D01*
X135970000Y-79500000D01*
X136170000Y-79400000D01*
X136570000Y-79400000D01*
X136770000Y-79500000D01*
X137670000Y-80800000D02*
X137670000Y-79400000D01*
X137670000Y-79800000D02*
X137770000Y-79600000D01*
X137870000Y-79500000D01*
X138070000Y-79400000D01*
X138270000Y-79400000D01*
X139270000Y-80800000D02*
X139070000Y-80700000D01*
X138970000Y-80600000D01*
X138870000Y-80400000D01*
X138870000Y-79800000D01*
X138970000Y-79600000D01*
X139070000Y-79500000D01*
X139270000Y-79400000D01*
X139570000Y-79400000D01*
X139770000Y-79500000D01*
X139870000Y-79600000D01*
X139970000Y-79800000D01*
X139970000Y-80400000D01*
X139870000Y-80600000D01*
X139770000Y-80700000D01*
X139570000Y-80800000D01*
X139270000Y-80800000D01*
X163671431Y-138590571D02*
X163671431Y-139662000D01*
X163600003Y-139876285D01*
X163457145Y-140019142D01*
X163242860Y-140090571D01*
X163100003Y-140090571D01*
X165100003Y-140090571D02*
X164385717Y-140090571D01*
X164385717Y-138590571D01*
X166457145Y-139947714D02*
X166385717Y-140019142D01*
X166171431Y-140090571D01*
X166028574Y-140090571D01*
X165814288Y-140019142D01*
X165671431Y-139876285D01*
X165600003Y-139733428D01*
X165528574Y-139447714D01*
X165528574Y-139233428D01*
X165600003Y-138947714D01*
X165671431Y-138804857D01*
X165814288Y-138662000D01*
X166028574Y-138590571D01*
X166171431Y-138590571D01*
X166385717Y-138662000D01*
X166457145Y-138733428D01*
X167528574Y-138590571D02*
X167528574Y-139662000D01*
X167457145Y-139876285D01*
X167314288Y-140019142D01*
X167100003Y-140090571D01*
X166957145Y-140090571D01*
X168957145Y-140090571D02*
X168242860Y-140090571D01*
X168242860Y-138590571D01*
X170314288Y-139947714D02*
X170242860Y-140019142D01*
X170028574Y-140090571D01*
X169885717Y-140090571D01*
X169671431Y-140019142D01*
X169528574Y-139876285D01*
X169457145Y-139733428D01*
X169385717Y-139447714D01*
X169385717Y-139233428D01*
X169457145Y-138947714D01*
X169528574Y-138804857D01*
X169671431Y-138662000D01*
X169885717Y-138590571D01*
X170028574Y-138590571D01*
X170242860Y-138662000D01*
X170314288Y-138733428D01*
X171385717Y-138590571D02*
X171385717Y-139662000D01*
X171314288Y-139876285D01*
X171171431Y-140019142D01*
X170957145Y-140090571D01*
X170814288Y-140090571D01*
X172814288Y-140090571D02*
X172100003Y-140090571D01*
X172100003Y-138590571D01*
X174171431Y-139947714D02*
X174100003Y-140019142D01*
X173885717Y-140090571D01*
X173742860Y-140090571D01*
X173528574Y-140019142D01*
X173385717Y-139876285D01*
X173314288Y-139733428D01*
X173242860Y-139447714D01*
X173242860Y-139233428D01*
X173314288Y-138947714D01*
X173385717Y-138804857D01*
X173528574Y-138662000D01*
X173742860Y-138590571D01*
X173885717Y-138590571D01*
X174100003Y-138662000D01*
X174171431Y-138733428D01*
X175242860Y-138590571D02*
X175242860Y-139662000D01*
X175171431Y-139876285D01*
X175028574Y-140019142D01*
X174814288Y-140090571D01*
X174671431Y-140090571D01*
X176671431Y-140090571D02*
X175957145Y-140090571D01*
X175957145Y-138590571D01*
X178028574Y-139947714D02*
X177957145Y-140019142D01*
X177742860Y-140090571D01*
X177600003Y-140090571D01*
X177385717Y-140019142D01*
X177242860Y-139876285D01*
X177171431Y-139733428D01*
X177100003Y-139447714D01*
X177100003Y-139233428D01*
X177171431Y-138947714D01*
X177242860Y-138804857D01*
X177385717Y-138662000D01*
X177600003Y-138590571D01*
X177742860Y-138590571D01*
X177957145Y-138662000D01*
X178028574Y-138733428D01*
X140022571Y-116910571D02*
X140379714Y-117910571D01*
X140736857Y-116910571D01*
X141165428Y-116410571D02*
X142094000Y-116410571D01*
X141594000Y-116982000D01*
X141808285Y-116982000D01*
X141951142Y-117053428D01*
X142022571Y-117124857D01*
X142094000Y-117267714D01*
X142094000Y-117624857D01*
X142022571Y-117767714D01*
X141951142Y-117839142D01*
X141808285Y-117910571D01*
X141379714Y-117910571D01*
X141236857Y-117839142D01*
X141165428Y-117767714D01*
D13*
X88544000Y-113762000D02*
X89972571Y-113762000D01*
X88258285Y-114619142D02*
X89258285Y-111619142D01*
X90258285Y-114619142D01*
X92972571Y-114619142D02*
X91972571Y-113190571D01*
X91258285Y-114619142D02*
X91258285Y-111619142D01*
X92401142Y-111619142D01*
X92686857Y-111762000D01*
X92829714Y-111904857D01*
X92972571Y-112190571D01*
X92972571Y-112619142D01*
X92829714Y-112904857D01*
X92686857Y-113047714D01*
X92401142Y-113190571D01*
X91258285Y-113190571D01*
X95544000Y-112619142D02*
X95544000Y-114619142D01*
X94829714Y-111476285D02*
X94115428Y-113619142D01*
X95972571Y-113619142D01*
X97544000Y-112904857D02*
X97258285Y-112762000D01*
X97115428Y-112619142D01*
X96972571Y-112333428D01*
X96972571Y-112190571D01*
X97115428Y-111904857D01*
X97258285Y-111762000D01*
X97544000Y-111619142D01*
X98115428Y-111619142D01*
X98401142Y-111762000D01*
X98544000Y-111904857D01*
X98686857Y-112190571D01*
X98686857Y-112333428D01*
X98544000Y-112619142D01*
X98401142Y-112762000D01*
X98115428Y-112904857D01*
X97544000Y-112904857D01*
X97258285Y-113047714D01*
X97115428Y-113190571D01*
X96972571Y-113476285D01*
X96972571Y-114047714D01*
X97115428Y-114333428D01*
X97258285Y-114476285D01*
X97544000Y-114619142D01*
X98115428Y-114619142D01*
X98401142Y-114476285D01*
X98544000Y-114333428D01*
X98686857Y-114047714D01*
X98686857Y-113476285D01*
X98544000Y-113190571D01*
X98401142Y-113047714D01*
X98115428Y-112904857D01*
X100401142Y-112904857D02*
X100115428Y-112762000D01*
X99972571Y-112619142D01*
X99829714Y-112333428D01*
X99829714Y-112190571D01*
X99972571Y-111904857D01*
X100115428Y-111762000D01*
X100401142Y-111619142D01*
X100972571Y-111619142D01*
X101258285Y-111762000D01*
X101401142Y-111904857D01*
X101544000Y-112190571D01*
X101544000Y-112333428D01*
X101401142Y-112619142D01*
X101258285Y-112762000D01*
X100972571Y-112904857D01*
X100401142Y-112904857D01*
X100115428Y-113047714D01*
X99972571Y-113190571D01*
X99829714Y-113476285D01*
X99829714Y-114047714D01*
X99972571Y-114333428D01*
X100115428Y-114476285D01*
X100401142Y-114619142D01*
X100972571Y-114619142D01*
X101258285Y-114476285D01*
X101401142Y-114333428D01*
X101544000Y-114047714D01*
X101544000Y-113476285D01*
X101401142Y-113190571D01*
X101258285Y-113047714D01*
X100972571Y-112904857D01*
D12*
X160422571Y-116910571D02*
X160779714Y-117910571D01*
X161136857Y-116910571D01*
X161565428Y-116410571D02*
X162494000Y-116410571D01*
X161994000Y-116982000D01*
X162208285Y-116982000D01*
X162351142Y-117053428D01*
X162422571Y-117124857D01*
X162494000Y-117267714D01*
X162494000Y-117624857D01*
X162422571Y-117767714D01*
X162351142Y-117839142D01*
X162208285Y-117910571D01*
X161779714Y-117910571D01*
X161636857Y-117839142D01*
X161565428Y-117767714D01*
X174720000Y-76640000D02*
X174720000Y-78740000D01*
X174720000Y-76740000D02*
X174920000Y-76640000D01*
X175320000Y-76640000D01*
X175520000Y-76740000D01*
X175620000Y-76840000D01*
X175720000Y-77040000D01*
X175720000Y-77640000D01*
X175620000Y-77840000D01*
X175520000Y-77940000D01*
X175320000Y-78040000D01*
X174920000Y-78040000D01*
X174720000Y-77940000D01*
X176620000Y-78040000D02*
X176620000Y-76640000D01*
X176620000Y-77040000D02*
X176720000Y-76840000D01*
X176820000Y-76740000D01*
X177020000Y-76640000D01*
X177220000Y-76640000D01*
X178220000Y-78040000D02*
X178020000Y-77940000D01*
X177920000Y-77840000D01*
X177820000Y-77640000D01*
X177820000Y-77040000D01*
X177920000Y-76840000D01*
X178020000Y-76740000D01*
X178220000Y-76640000D01*
X178520000Y-76640000D01*
X178720000Y-76740000D01*
X178820000Y-76840000D01*
X178920000Y-77040000D01*
X178920000Y-77640000D01*
X178820000Y-77840000D01*
X178720000Y-77940000D01*
X178520000Y-78040000D01*
X178220000Y-78040000D01*
D13*
X108944000Y-113762000D02*
X110372571Y-113762000D01*
X108658285Y-114619142D02*
X109658285Y-111619142D01*
X110658285Y-114619142D01*
X113372571Y-114619142D02*
X112372571Y-113190571D01*
X111658285Y-114619142D02*
X111658285Y-111619142D01*
X112801142Y-111619142D01*
X113086857Y-111762000D01*
X113229714Y-111904857D01*
X113372571Y-112190571D01*
X113372571Y-112619142D01*
X113229714Y-112904857D01*
X113086857Y-113047714D01*
X112801142Y-113190571D01*
X111658285Y-113190571D01*
X115944000Y-112619142D02*
X115944000Y-114619142D01*
X115229714Y-111476285D02*
X114515428Y-113619142D01*
X116372571Y-113619142D01*
X117944000Y-112904857D02*
X117658285Y-112762000D01*
X117515428Y-112619142D01*
X117372571Y-112333428D01*
X117372571Y-112190571D01*
X117515428Y-111904857D01*
X117658285Y-111762000D01*
X117944000Y-111619142D01*
X118515428Y-111619142D01*
X118801142Y-111762000D01*
X118944000Y-111904857D01*
X119086857Y-112190571D01*
X119086857Y-112333428D01*
X118944000Y-112619142D01*
X118801142Y-112762000D01*
X118515428Y-112904857D01*
X117944000Y-112904857D01*
X117658285Y-113047714D01*
X117515428Y-113190571D01*
X117372571Y-113476285D01*
X117372571Y-114047714D01*
X117515428Y-114333428D01*
X117658285Y-114476285D01*
X117944000Y-114619142D01*
X118515428Y-114619142D01*
X118801142Y-114476285D01*
X118944000Y-114333428D01*
X119086857Y-114047714D01*
X119086857Y-113476285D01*
X118944000Y-113190571D01*
X118801142Y-113047714D01*
X118515428Y-112904857D01*
X120801142Y-112904857D02*
X120515428Y-112762000D01*
X120372571Y-112619142D01*
X120229714Y-112333428D01*
X120229714Y-112190571D01*
X120372571Y-111904857D01*
X120515428Y-111762000D01*
X120801142Y-111619142D01*
X121372571Y-111619142D01*
X121658285Y-111762000D01*
X121801142Y-111904857D01*
X121944000Y-112190571D01*
X121944000Y-112333428D01*
X121801142Y-112619142D01*
X121658285Y-112762000D01*
X121372571Y-112904857D01*
X120801142Y-112904857D01*
X120515428Y-113047714D01*
X120372571Y-113190571D01*
X120229714Y-113476285D01*
X120229714Y-114047714D01*
X120372571Y-114333428D01*
X120515428Y-114476285D01*
X120801142Y-114619142D01*
X121372571Y-114619142D01*
X121658285Y-114476285D01*
X121801142Y-114333428D01*
X121944000Y-114047714D01*
X121944000Y-113476285D01*
X121801142Y-113190571D01*
X121658285Y-113047714D01*
X121372571Y-112904857D01*
D12*
X154320000Y-76640000D02*
X154320000Y-78740000D01*
X154320000Y-76740000D02*
X154520000Y-76640000D01*
X154920000Y-76640000D01*
X155120000Y-76740000D01*
X155220000Y-76840000D01*
X155320000Y-77040000D01*
X155320000Y-77640000D01*
X155220000Y-77840000D01*
X155120000Y-77940000D01*
X154920000Y-78040000D01*
X154520000Y-78040000D01*
X154320000Y-77940000D01*
X156220000Y-78040000D02*
X156220000Y-76640000D01*
X156220000Y-77040000D02*
X156320000Y-76840000D01*
X156420000Y-76740000D01*
X156620000Y-76640000D01*
X156820000Y-76640000D01*
X157820000Y-78040000D02*
X157620000Y-77940000D01*
X157520000Y-77840000D01*
X157420000Y-77640000D01*
X157420000Y-77040000D01*
X157520000Y-76840000D01*
X157620000Y-76740000D01*
X157820000Y-76640000D01*
X158120000Y-76640000D01*
X158320000Y-76740000D01*
X158420000Y-76840000D01*
X158520000Y-77040000D01*
X158520000Y-77640000D01*
X158420000Y-77840000D01*
X158320000Y-77940000D01*
X158120000Y-78040000D01*
X157820000Y-78040000D01*
X111670000Y-80800000D02*
X111670000Y-79400000D01*
X111670000Y-79600000D02*
X111770000Y-79500000D01*
X111970000Y-79400000D01*
X112270000Y-79400000D01*
X112470000Y-79500000D01*
X112570000Y-79700000D01*
X112570000Y-80800000D01*
X112570000Y-79700000D02*
X112670000Y-79500000D01*
X112870000Y-79400000D01*
X113170000Y-79400000D01*
X113370000Y-79500000D01*
X113470000Y-79700000D01*
X113470000Y-80800000D01*
X114470000Y-80800000D02*
X114470000Y-79400000D01*
X114470000Y-78700000D02*
X114370000Y-78800000D01*
X114470000Y-78900000D01*
X114570000Y-78800000D01*
X114470000Y-78700000D01*
X114470000Y-78900000D01*
X116370000Y-80700000D02*
X116170000Y-80800000D01*
X115770000Y-80800000D01*
X115570000Y-80700000D01*
X115470000Y-80600000D01*
X115370000Y-80400000D01*
X115370000Y-79800000D01*
X115470000Y-79600000D01*
X115570000Y-79500000D01*
X115770000Y-79400000D01*
X116170000Y-79400000D01*
X116370000Y-79500000D01*
X117270000Y-80800000D02*
X117270000Y-79400000D01*
X117270000Y-79800000D02*
X117370000Y-79600000D01*
X117470000Y-79500000D01*
X117670000Y-79400000D01*
X117870000Y-79400000D01*
X118870000Y-80800000D02*
X118670000Y-80700000D01*
X118570000Y-80600000D01*
X118470000Y-80400000D01*
X118470000Y-79800000D01*
X118570000Y-79600000D01*
X118670000Y-79500000D01*
X118870000Y-79400000D01*
X119170000Y-79400000D01*
X119370000Y-79500000D01*
X119470000Y-79600000D01*
X119570000Y-79800000D01*
X119570000Y-80400000D01*
X119470000Y-80600000D01*
X119370000Y-80700000D01*
X119170000Y-80800000D01*
X118870000Y-80800000D01*
D11*
X160275714Y-74369761D02*
X160404285Y-74417380D01*
X160618571Y-74417380D01*
X160704285Y-74369761D01*
X160747142Y-74322142D01*
X160790000Y-74226904D01*
X160790000Y-74131666D01*
X160747142Y-74036428D01*
X160704285Y-73988809D01*
X160618571Y-73941190D01*
X160447142Y-73893571D01*
X160361428Y-73845952D01*
X160318571Y-73798333D01*
X160275714Y-73703095D01*
X160275714Y-73607857D01*
X160318571Y-73512619D01*
X160361428Y-73465000D01*
X160447142Y-73417380D01*
X160661428Y-73417380D01*
X160790000Y-73465000D01*
X161175714Y-74417380D02*
X161175714Y-73417380D01*
X161175714Y-73893571D02*
X161690000Y-73893571D01*
X161690000Y-74417380D02*
X161690000Y-73417380D01*
X162118571Y-73893571D02*
X162418571Y-73893571D01*
X162547142Y-74417380D02*
X162118571Y-74417380D01*
X162118571Y-73417380D01*
X162547142Y-73417380D01*
X162932857Y-74417380D02*
X162932857Y-73417380D01*
X163790000Y-74417380D02*
X163361428Y-74417380D01*
X163361428Y-73417380D01*
X164090000Y-74417380D02*
X164090000Y-73417380D01*
X164304285Y-73417380D01*
X164432857Y-73465000D01*
X164518571Y-73560238D01*
X164561428Y-73655476D01*
X164604285Y-73845952D01*
X164604285Y-73988809D01*
X164561428Y-74179285D01*
X164518571Y-74274523D01*
X164432857Y-74369761D01*
X164304285Y-74417380D01*
X164090000Y-74417380D01*
D12*
X180822571Y-116910571D02*
X181179714Y-117910571D01*
X181536857Y-116910571D01*
X181965428Y-116410571D02*
X182894000Y-116410571D01*
X182394000Y-116982000D01*
X182608285Y-116982000D01*
X182751142Y-117053428D01*
X182822571Y-117124857D01*
X182894000Y-117267714D01*
X182894000Y-117624857D01*
X182822571Y-117767714D01*
X182751142Y-117839142D01*
X182608285Y-117910571D01*
X182179714Y-117910571D01*
X182036857Y-117839142D01*
X181965428Y-117767714D01*
D10*
%TO.C,J8*%
X131645000Y-75315000D02*
X132340000Y-75315000D01*
X131645000Y-76685000D02*
X131645000Y-76560000D01*
X133035000Y-76685000D02*
X133035000Y-76560000D01*
X132948276Y-76685000D02*
X133035000Y-76685000D01*
X131645000Y-76000000D02*
X131645000Y-75315000D01*
X131645000Y-76685000D02*
X131731724Y-76685000D01*
X131645000Y-76685000D02*
X133035000Y-76685000D01*
D14*
%TO.C,mouse-bite-2mm-slot1*%
X118155930Y-124873530D02*
G75*
G03*
X118155930Y-126873530I0J-1000000D01*
G01*
X112655930Y-126873530D02*
G75*
G03*
X112655930Y-124873530I0J1000000D01*
G01*
D10*
%TO.C,J12*%
X159345000Y-75295000D02*
X160040000Y-75295000D01*
X160648276Y-76665000D02*
X160735000Y-76665000D01*
X160735000Y-76665000D02*
X160735000Y-76540000D01*
X159345000Y-76665000D02*
X160735000Y-76665000D01*
X159345000Y-76665000D02*
X159345000Y-76540000D01*
X159345000Y-75980000D02*
X159345000Y-75295000D01*
X159345000Y-76665000D02*
X159431724Y-76665000D01*
%TO.C,J9*%
X138945000Y-75980000D02*
X138945000Y-75295000D01*
X138945000Y-76665000D02*
X139031724Y-76665000D01*
X138945000Y-76665000D02*
X140335000Y-76665000D01*
X138945000Y-75295000D02*
X139640000Y-75295000D01*
X138945000Y-76665000D02*
X138945000Y-76540000D01*
X140248276Y-76665000D02*
X140335000Y-76665000D01*
X140335000Y-76665000D02*
X140335000Y-76540000D01*
D12*
%TO.C,U2*%
X111673045Y-108991268D02*
X111673045Y-104451268D01*
X119293045Y-108991268D02*
X111673045Y-108991268D01*
X111673045Y-104451268D02*
X119303045Y-104451268D01*
D11*
X111673045Y-106451268D02*
X106433045Y-106451268D01*
D12*
X119293045Y-104461268D02*
X119293045Y-108991268D01*
D11*
X124583045Y-106451268D02*
X119293045Y-106451268D01*
D10*
X121733045Y-106461268D02*
X124483045Y-106461268D01*
X124483045Y-106461268D02*
X124483045Y-103911268D01*
X124483045Y-103911268D02*
X121733045Y-103911268D01*
X121733045Y-103911268D02*
X121733045Y-106461268D01*
G36*
X121733045Y-106461268D02*
G01*
X124483045Y-106461268D01*
X124483045Y-103911268D01*
X121733045Y-103911268D01*
X121733045Y-106461268D01*
G37*
D14*
%TO.C,mouse-bite-2mm-slot3*%
X133055930Y-126873530D02*
G75*
G03*
X133055930Y-124873530I0J1000000D01*
G01*
X138555930Y-124873530D02*
G75*
G03*
X138555930Y-126873530I0J-1000000D01*
G01*
D11*
%TO.C,U4*%
X152473045Y-106451268D02*
X147233045Y-106451268D01*
D12*
X152473045Y-108991268D02*
X152473045Y-104451268D01*
X160093045Y-108991268D02*
X152473045Y-108991268D01*
X160093045Y-104461268D02*
X160093045Y-108991268D01*
D11*
X165383045Y-106451268D02*
X160093045Y-106451268D01*
D12*
X152473045Y-104451268D02*
X160103045Y-104451268D01*
D10*
X162533045Y-106461268D02*
X165283045Y-106461268D01*
X165283045Y-106461268D02*
X165283045Y-103911268D01*
X165283045Y-103911268D02*
X162533045Y-103911268D01*
X162533045Y-103911268D02*
X162533045Y-106461268D01*
G36*
X162533045Y-106461268D02*
G01*
X165283045Y-106461268D01*
X165283045Y-103911268D01*
X162533045Y-103911268D01*
X162533045Y-106461268D01*
G37*
D14*
%TO.C,mouse-bite-2mm-slot2*%
X118132070Y-65046470D02*
G75*
G03*
X118132070Y-67046470I0J-1000000D01*
G01*
X112632070Y-67046470D02*
G75*
G03*
X112632070Y-65046470I0J1000000D01*
G01*
D10*
%TO.C,J14*%
X172445000Y-76685000D02*
X172531724Y-76685000D01*
X172445000Y-76685000D02*
X173835000Y-76685000D01*
X172445000Y-76000000D02*
X172445000Y-75315000D01*
X173835000Y-76685000D02*
X173835000Y-76560000D01*
X173748276Y-76685000D02*
X173835000Y-76685000D01*
X172445000Y-75315000D02*
X173140000Y-75315000D01*
X172445000Y-76685000D02*
X172445000Y-76560000D01*
D14*
%TO.C,mouse-bite-2mm-slot5*%
X158955930Y-124873530D02*
G75*
G03*
X158955930Y-126873530I0J-1000000D01*
G01*
X153455930Y-126873530D02*
G75*
G03*
X153455930Y-124873530I0J1000000D01*
G01*
D10*
%TO.C,J2*%
X90845000Y-76000000D02*
X90845000Y-75315000D01*
X90845000Y-75315000D02*
X91540000Y-75315000D01*
X92148276Y-76685000D02*
X92235000Y-76685000D01*
X90845000Y-76685000D02*
X92235000Y-76685000D01*
X90845000Y-76685000D02*
X90845000Y-76560000D01*
X92235000Y-76685000D02*
X92235000Y-76560000D01*
X90845000Y-76685000D02*
X90931724Y-76685000D01*
%TO.C,J5*%
X111245000Y-76000000D02*
X111245000Y-75315000D01*
X112635000Y-76685000D02*
X112635000Y-76560000D01*
X112548276Y-76685000D02*
X112635000Y-76685000D01*
X111245000Y-76685000D02*
X111245000Y-76560000D01*
X111245000Y-76685000D02*
X111331724Y-76685000D01*
X111245000Y-76685000D02*
X112635000Y-76685000D01*
X111245000Y-75315000D02*
X111940000Y-75315000D01*
D12*
%TO.C,U3*%
X139693045Y-108991268D02*
X132073045Y-108991268D01*
D11*
X132073045Y-106451268D02*
X126833045Y-106451268D01*
D12*
X132073045Y-104451268D02*
X139703045Y-104451268D01*
D11*
X144983045Y-106451268D02*
X139693045Y-106451268D01*
D12*
X132073045Y-108991268D02*
X132073045Y-104451268D01*
X139693045Y-104461268D02*
X139693045Y-108991268D01*
D10*
X142133045Y-106461268D02*
X144883045Y-106461268D01*
X144883045Y-106461268D02*
X144883045Y-103911268D01*
X144883045Y-103911268D02*
X142133045Y-103911268D01*
X142133045Y-103911268D02*
X142133045Y-106461268D01*
G36*
X142133045Y-106461268D02*
G01*
X144883045Y-106461268D01*
X144883045Y-103911268D01*
X142133045Y-103911268D01*
X142133045Y-106461268D01*
G37*
D14*
%TO.C,mouse-bite-2mm-slot*%
X92255930Y-126873530D02*
G75*
G03*
X92255930Y-124873530I0J1000000D01*
G01*
X97755930Y-124873530D02*
G75*
G03*
X97755930Y-126873530I0J-1000000D01*
G01*
%TO.C,mouse-bite-2mm-slot7*%
X179355930Y-124873530D02*
G75*
G03*
X179355930Y-126873530I0J-1000000D01*
G01*
X173855930Y-126873530D02*
G75*
G03*
X173855930Y-124873530I0J1000000D01*
G01*
D12*
%TO.C,U1*%
X98893045Y-104461268D02*
X98893045Y-108991268D01*
D11*
X104183045Y-106451268D02*
X98893045Y-106451268D01*
D12*
X91273045Y-104451268D02*
X98903045Y-104451268D01*
D11*
X91273045Y-106451268D02*
X86033045Y-106451268D01*
D12*
X91273045Y-108991268D02*
X91273045Y-104451268D01*
X98893045Y-108991268D02*
X91273045Y-108991268D01*
D10*
X101333045Y-106461268D02*
X104083045Y-106461268D01*
X104083045Y-106461268D02*
X104083045Y-103911268D01*
X104083045Y-103911268D02*
X101333045Y-103911268D01*
X101333045Y-103911268D02*
X101333045Y-106461268D01*
G36*
X101333045Y-106461268D02*
G01*
X104083045Y-106461268D01*
X104083045Y-103911268D01*
X101333045Y-103911268D01*
X101333045Y-106461268D01*
G37*
%TO.C,J3*%
X99448276Y-76665000D02*
X99535000Y-76665000D01*
X98145000Y-75980000D02*
X98145000Y-75295000D01*
X98145000Y-76665000D02*
X98231724Y-76665000D01*
X98145000Y-76665000D02*
X99535000Y-76665000D01*
X98145000Y-75295000D02*
X98840000Y-75295000D01*
X99535000Y-76665000D02*
X99535000Y-76540000D01*
X98145000Y-76665000D02*
X98145000Y-76540000D01*
D14*
%TO.C,mouse-bite-2mm-slot4*%
X138532070Y-65046470D02*
G75*
G03*
X138532070Y-67046470I0J-1000000D01*
G01*
X133032070Y-67046470D02*
G75*
G03*
X133032070Y-65046470I0J1000000D01*
G01*
%TO.C,mouse-bite-2mm-slot*%
X97732070Y-65046470D02*
G75*
G03*
X97732070Y-67046470I0J-1000000D01*
G01*
X92232070Y-67046470D02*
G75*
G03*
X92232070Y-65046470I0J1000000D01*
G01*
D10*
%TO.C,J6*%
X119848276Y-76665000D02*
X119935000Y-76665000D01*
X118545000Y-76665000D02*
X118631724Y-76665000D01*
X118545000Y-75980000D02*
X118545000Y-75295000D01*
X118545000Y-75295000D02*
X119240000Y-75295000D01*
X118545000Y-76665000D02*
X119935000Y-76665000D01*
X118545000Y-76665000D02*
X118545000Y-76540000D01*
X119935000Y-76665000D02*
X119935000Y-76540000D01*
D12*
%TO.C,U5*%
X180493045Y-104461268D02*
X180493045Y-108991268D01*
X180493045Y-108991268D02*
X172873045Y-108991268D01*
X172873045Y-104451268D02*
X180503045Y-104451268D01*
D11*
X172873045Y-106451268D02*
X167633045Y-106451268D01*
X185783045Y-106451268D02*
X180493045Y-106451268D01*
D12*
X172873045Y-108991268D02*
X172873045Y-104451268D01*
D10*
X182933045Y-106461268D02*
X185683045Y-106461268D01*
X185683045Y-106461268D02*
X185683045Y-103911268D01*
X185683045Y-103911268D02*
X182933045Y-103911268D01*
X182933045Y-103911268D02*
X182933045Y-106461268D01*
G36*
X182933045Y-106461268D02*
G01*
X185683045Y-106461268D01*
X185683045Y-103911268D01*
X182933045Y-103911268D01*
X182933045Y-106461268D01*
G37*
%TO.C,J15*%
X179745000Y-75295000D02*
X180440000Y-75295000D01*
X181048276Y-76665000D02*
X181135000Y-76665000D01*
X179745000Y-75980000D02*
X179745000Y-75295000D01*
X179745000Y-76665000D02*
X179831724Y-76665000D01*
X179745000Y-76665000D02*
X181135000Y-76665000D01*
X179745000Y-76665000D02*
X179745000Y-76540000D01*
X181135000Y-76665000D02*
X181135000Y-76540000D01*
%TO.C,J11*%
X153435000Y-76685000D02*
X153435000Y-76560000D01*
X152045000Y-76685000D02*
X152045000Y-76560000D01*
X152045000Y-76685000D02*
X152131724Y-76685000D01*
X152045000Y-76000000D02*
X152045000Y-75315000D01*
X152045000Y-76685000D02*
X153435000Y-76685000D01*
X153348276Y-76685000D02*
X153435000Y-76685000D01*
X152045000Y-75315000D02*
X152740000Y-75315000D01*
D14*
%TO.C,mouse-bite-2mm-slot6*%
X153432070Y-67046470D02*
G75*
G03*
X153432070Y-65046470I0J1000000D01*
G01*
X158932070Y-65046470D02*
G75*
G03*
X158932070Y-67046470I0J-1000000D01*
G01*
%TO.C,mouse-bite-2mm-slot8*%
X173832070Y-67046470D02*
G75*
G03*
X173832070Y-65046470I0J1000000D01*
G01*
X179332070Y-65046470D02*
G75*
G03*
X179332070Y-67046470I0J-1000000D01*
G01*
%TD*%
M02*
