G04 #@! TF.GenerationSoftware,KiCad,Pcbnew,6.0.1-79c1e3a40b~116~ubuntu20.04.1*
G04 #@! TF.CreationDate,2022-01-18T16:31:01+01:00*
G04 #@! TF.ProjectId,10xNano_GPIB,3130784e-616e-46f5-9f47-5049422e6b69,rev?*
G04 #@! TF.SameCoordinates,Original*
G04 #@! TF.FileFunction,Legend,Bot*
G04 #@! TF.FilePolarity,Positive*
%FSLAX46Y46*%
G04 Gerber Fmt 4.6, Leading zero omitted, Abs format (unit mm)*
G04 Created by KiCad (PCBNEW 6.0.1-79c1e3a40b~116~ubuntu20.04.1) date 2022-01-18 16:31:01*
%MOMM*%
%LPD*%
G01*
G04 APERTURE LIST*
G04 Aperture macros list*
%AMRoundRect*
0 Rectangle with rounded corners*
0 $1 Rounding radius*
0 $2 $3 $4 $5 $6 $7 $8 $9 X,Y pos of 4 corners*
0 Add a 4 corners polygon primitive as box body*
4,1,4,$2,$3,$4,$5,$6,$7,$8,$9,$2,$3,0*
0 Add four circle primitives for the rounded corners*
1,1,$1+$1,$2,$3*
1,1,$1+$1,$4,$5*
1,1,$1+$1,$6,$7*
1,1,$1+$1,$8,$9*
0 Add four rect primitives between the rounded corners*
20,1,$1+$1,$2,$3,$4,$5,0*
20,1,$1+$1,$4,$5,$6,$7,0*
20,1,$1+$1,$6,$7,$8,$9,0*
20,1,$1+$1,$8,$9,$2,$3,0*%
G04 Aperture macros list end*
%ADD10C,0.300000*%
%ADD11RoundRect,0.051000X0.425000X0.425000X-0.425000X0.425000X-0.425000X-0.425000X0.425000X-0.425000X0*%
%ADD12C,0.602000*%
%ADD13RoundRect,0.451000X-0.700000X-0.400000X0.700000X-0.400000X0.700000X0.400000X-0.700000X0.400000X0*%
%ADD14O,2.302000X1.902000*%
G04 APERTURE END LIST*
D10*
X121610000Y-127358571D02*
X121695714Y-127530000D01*
X121695714Y-127787142D01*
X121610000Y-128044285D01*
X121438571Y-128215714D01*
X121267142Y-128301428D01*
X120924285Y-128387142D01*
X120667142Y-128387142D01*
X120324285Y-128301428D01*
X120152857Y-128215714D01*
X119981428Y-128044285D01*
X119895714Y-127787142D01*
X119895714Y-127615714D01*
X119981428Y-127358571D01*
X120067142Y-127272857D01*
X120667142Y-127272857D01*
X120667142Y-127615714D01*
X119895714Y-126501428D02*
X121695714Y-126501428D01*
X121695714Y-125815714D01*
X121610000Y-125644285D01*
X121524285Y-125558571D01*
X121352857Y-125472857D01*
X121095714Y-125472857D01*
X120924285Y-125558571D01*
X120838571Y-125644285D01*
X120752857Y-125815714D01*
X120752857Y-126501428D01*
X120581428Y-124701428D02*
X120581428Y-123330000D01*
X119895714Y-122472857D02*
X121695714Y-122472857D01*
X120838571Y-121015714D02*
X120752857Y-120758571D01*
X120667142Y-120672857D01*
X120495714Y-120587142D01*
X120238571Y-120587142D01*
X120067142Y-120672857D01*
X119981428Y-120758571D01*
X119895714Y-120930000D01*
X119895714Y-121615714D01*
X121695714Y-121615714D01*
X121695714Y-121015714D01*
X121610000Y-120844285D01*
X121524285Y-120758571D01*
X121352857Y-120672857D01*
X121181428Y-120672857D01*
X121010000Y-120758571D01*
X120924285Y-120844285D01*
X120838571Y-121015714D01*
X120838571Y-121615714D01*
X120067142Y-117415714D02*
X119981428Y-117501428D01*
X119895714Y-117758571D01*
X119895714Y-117930000D01*
X119981428Y-118187142D01*
X120152857Y-118358571D01*
X120324285Y-118444285D01*
X120667142Y-118530000D01*
X120924285Y-118530000D01*
X121267142Y-118444285D01*
X121438571Y-118358571D01*
X121610000Y-118187142D01*
X121695714Y-117930000D01*
X121695714Y-117758571D01*
X121610000Y-117501428D01*
X121524285Y-117415714D01*
X121695714Y-116301428D02*
X121695714Y-115958571D01*
X121610000Y-115787142D01*
X121438571Y-115615714D01*
X121095714Y-115530000D01*
X120495714Y-115530000D01*
X120152857Y-115615714D01*
X119981428Y-115787142D01*
X119895714Y-115958571D01*
X119895714Y-116301428D01*
X119981428Y-116472857D01*
X120152857Y-116644285D01*
X120495714Y-116730000D01*
X121095714Y-116730000D01*
X121438571Y-116644285D01*
X121610000Y-116472857D01*
X121695714Y-116301428D01*
X119895714Y-114758571D02*
X121695714Y-114758571D01*
X119895714Y-113730000D01*
X121695714Y-113730000D01*
X119895714Y-112872857D02*
X121695714Y-112872857D01*
X119895714Y-111844285D01*
X121695714Y-111844285D01*
X120838571Y-110987142D02*
X120838571Y-110387142D01*
X119895714Y-110130000D02*
X119895714Y-110987142D01*
X121695714Y-110987142D01*
X121695714Y-110130000D01*
X120067142Y-108330000D02*
X119981428Y-108415714D01*
X119895714Y-108672857D01*
X119895714Y-108844285D01*
X119981428Y-109101428D01*
X120152857Y-109272857D01*
X120324285Y-109358571D01*
X120667142Y-109444285D01*
X120924285Y-109444285D01*
X121267142Y-109358571D01*
X121438571Y-109272857D01*
X121610000Y-109101428D01*
X121695714Y-108844285D01*
X121695714Y-108672857D01*
X121610000Y-108415714D01*
X121524285Y-108330000D01*
X121695714Y-107815714D02*
X121695714Y-106787142D01*
X119895714Y-107301428D02*
X121695714Y-107301428D01*
X121695714Y-105844285D02*
X121695714Y-105501428D01*
X121610000Y-105330000D01*
X121438571Y-105158571D01*
X121095714Y-105072857D01*
X120495714Y-105072857D01*
X120152857Y-105158571D01*
X119981428Y-105330000D01*
X119895714Y-105501428D01*
X119895714Y-105844285D01*
X119981428Y-106015714D01*
X120152857Y-106187142D01*
X120495714Y-106272857D01*
X121095714Y-106272857D01*
X121438571Y-106187142D01*
X121610000Y-106015714D01*
X121695714Y-105844285D01*
X119895714Y-103272857D02*
X120752857Y-103872857D01*
X119895714Y-104301428D02*
X121695714Y-104301428D01*
X121695714Y-103615714D01*
X121610000Y-103444285D01*
X121524285Y-103358571D01*
X121352857Y-103272857D01*
X121095714Y-103272857D01*
X120924285Y-103358571D01*
X120838571Y-103444285D01*
X120752857Y-103615714D01*
X120752857Y-104301428D01*
X80790000Y-81858571D02*
X80875714Y-82030000D01*
X80875714Y-82287142D01*
X80790000Y-82544285D01*
X80618571Y-82715714D01*
X80447142Y-82801428D01*
X80104285Y-82887142D01*
X79847142Y-82887142D01*
X79504285Y-82801428D01*
X79332857Y-82715714D01*
X79161428Y-82544285D01*
X79075714Y-82287142D01*
X79075714Y-82115714D01*
X79161428Y-81858571D01*
X79247142Y-81772857D01*
X79847142Y-81772857D01*
X79847142Y-82115714D01*
X79075714Y-81001428D02*
X80875714Y-81001428D01*
X80875714Y-80315714D01*
X80790000Y-80144285D01*
X80704285Y-80058571D01*
X80532857Y-79972857D01*
X80275714Y-79972857D01*
X80104285Y-80058571D01*
X80018571Y-80144285D01*
X79932857Y-80315714D01*
X79932857Y-81001428D01*
X79761428Y-79201428D02*
X79761428Y-77830000D01*
X79075714Y-76972857D02*
X80875714Y-76972857D01*
X80018571Y-75515714D02*
X79932857Y-75258571D01*
X79847142Y-75172857D01*
X79675714Y-75087142D01*
X79418571Y-75087142D01*
X79247142Y-75172857D01*
X79161428Y-75258571D01*
X79075714Y-75430000D01*
X79075714Y-76115714D01*
X80875714Y-76115714D01*
X80875714Y-75515714D01*
X80790000Y-75344285D01*
X80704285Y-75258571D01*
X80532857Y-75172857D01*
X80361428Y-75172857D01*
X80190000Y-75258571D01*
X80104285Y-75344285D01*
X80018571Y-75515714D01*
X80018571Y-76115714D01*
X79247142Y-71915714D02*
X79161428Y-72001428D01*
X79075714Y-72258571D01*
X79075714Y-72430000D01*
X79161428Y-72687142D01*
X79332857Y-72858571D01*
X79504285Y-72944285D01*
X79847142Y-73030000D01*
X80104285Y-73030000D01*
X80447142Y-72944285D01*
X80618571Y-72858571D01*
X80790000Y-72687142D01*
X80875714Y-72430000D01*
X80875714Y-72258571D01*
X80790000Y-72001428D01*
X80704285Y-71915714D01*
X80875714Y-70801428D02*
X80875714Y-70458571D01*
X80790000Y-70287142D01*
X80618571Y-70115714D01*
X80275714Y-70030000D01*
X79675714Y-70030000D01*
X79332857Y-70115714D01*
X79161428Y-70287142D01*
X79075714Y-70458571D01*
X79075714Y-70801428D01*
X79161428Y-70972857D01*
X79332857Y-71144285D01*
X79675714Y-71230000D01*
X80275714Y-71230000D01*
X80618571Y-71144285D01*
X80790000Y-70972857D01*
X80875714Y-70801428D01*
X79075714Y-69258571D02*
X80875714Y-69258571D01*
X79075714Y-68230000D01*
X80875714Y-68230000D01*
X79075714Y-67372857D02*
X80875714Y-67372857D01*
X79075714Y-66344285D01*
X80875714Y-66344285D01*
X80018571Y-65487142D02*
X80018571Y-64887142D01*
X79075714Y-64630000D02*
X79075714Y-65487142D01*
X80875714Y-65487142D01*
X80875714Y-64630000D01*
X79247142Y-62830000D02*
X79161428Y-62915714D01*
X79075714Y-63172857D01*
X79075714Y-63344285D01*
X79161428Y-63601428D01*
X79332857Y-63772857D01*
X79504285Y-63858571D01*
X79847142Y-63944285D01*
X80104285Y-63944285D01*
X80447142Y-63858571D01*
X80618571Y-63772857D01*
X80790000Y-63601428D01*
X80875714Y-63344285D01*
X80875714Y-63172857D01*
X80790000Y-62915714D01*
X80704285Y-62830000D01*
X80875714Y-62315714D02*
X80875714Y-61287142D01*
X79075714Y-61801428D02*
X80875714Y-61801428D01*
X80875714Y-60344285D02*
X80875714Y-60001428D01*
X80790000Y-59830000D01*
X80618571Y-59658571D01*
X80275714Y-59572857D01*
X79675714Y-59572857D01*
X79332857Y-59658571D01*
X79161428Y-59830000D01*
X79075714Y-60001428D01*
X79075714Y-60344285D01*
X79161428Y-60515714D01*
X79332857Y-60687142D01*
X79675714Y-60772857D01*
X80275714Y-60772857D01*
X80618571Y-60687142D01*
X80790000Y-60515714D01*
X80875714Y-60344285D01*
X79075714Y-57772857D02*
X79932857Y-58372857D01*
X79075714Y-58801428D02*
X80875714Y-58801428D01*
X80875714Y-58115714D01*
X80790000Y-57944285D01*
X80704285Y-57858571D01*
X80532857Y-57772857D01*
X80275714Y-57772857D01*
X80104285Y-57858571D01*
X80018571Y-57944285D01*
X79932857Y-58115714D01*
X79932857Y-58801428D01*
X141990000Y-81858571D02*
X142075714Y-82030000D01*
X142075714Y-82287142D01*
X141990000Y-82544285D01*
X141818571Y-82715714D01*
X141647142Y-82801428D01*
X141304285Y-82887142D01*
X141047142Y-82887142D01*
X140704285Y-82801428D01*
X140532857Y-82715714D01*
X140361428Y-82544285D01*
X140275714Y-82287142D01*
X140275714Y-82115714D01*
X140361428Y-81858571D01*
X140447142Y-81772857D01*
X141047142Y-81772857D01*
X141047142Y-82115714D01*
X140275714Y-81001428D02*
X142075714Y-81001428D01*
X142075714Y-80315714D01*
X141990000Y-80144285D01*
X141904285Y-80058571D01*
X141732857Y-79972857D01*
X141475714Y-79972857D01*
X141304285Y-80058571D01*
X141218571Y-80144285D01*
X141132857Y-80315714D01*
X141132857Y-81001428D01*
X140961428Y-79201428D02*
X140961428Y-77830000D01*
X140275714Y-76972857D02*
X142075714Y-76972857D01*
X141218571Y-75515714D02*
X141132857Y-75258571D01*
X141047142Y-75172857D01*
X140875714Y-75087142D01*
X140618571Y-75087142D01*
X140447142Y-75172857D01*
X140361428Y-75258571D01*
X140275714Y-75430000D01*
X140275714Y-76115714D01*
X142075714Y-76115714D01*
X142075714Y-75515714D01*
X141990000Y-75344285D01*
X141904285Y-75258571D01*
X141732857Y-75172857D01*
X141561428Y-75172857D01*
X141390000Y-75258571D01*
X141304285Y-75344285D01*
X141218571Y-75515714D01*
X141218571Y-76115714D01*
X140447142Y-71915714D02*
X140361428Y-72001428D01*
X140275714Y-72258571D01*
X140275714Y-72430000D01*
X140361428Y-72687142D01*
X140532857Y-72858571D01*
X140704285Y-72944285D01*
X141047142Y-73030000D01*
X141304285Y-73030000D01*
X141647142Y-72944285D01*
X141818571Y-72858571D01*
X141990000Y-72687142D01*
X142075714Y-72430000D01*
X142075714Y-72258571D01*
X141990000Y-72001428D01*
X141904285Y-71915714D01*
X142075714Y-70801428D02*
X142075714Y-70458571D01*
X141990000Y-70287142D01*
X141818571Y-70115714D01*
X141475714Y-70030000D01*
X140875714Y-70030000D01*
X140532857Y-70115714D01*
X140361428Y-70287142D01*
X140275714Y-70458571D01*
X140275714Y-70801428D01*
X140361428Y-70972857D01*
X140532857Y-71144285D01*
X140875714Y-71230000D01*
X141475714Y-71230000D01*
X141818571Y-71144285D01*
X141990000Y-70972857D01*
X142075714Y-70801428D01*
X140275714Y-69258571D02*
X142075714Y-69258571D01*
X140275714Y-68230000D01*
X142075714Y-68230000D01*
X140275714Y-67372857D02*
X142075714Y-67372857D01*
X140275714Y-66344285D01*
X142075714Y-66344285D01*
X141218571Y-65487142D02*
X141218571Y-64887142D01*
X140275714Y-64630000D02*
X140275714Y-65487142D01*
X142075714Y-65487142D01*
X142075714Y-64630000D01*
X140447142Y-62830000D02*
X140361428Y-62915714D01*
X140275714Y-63172857D01*
X140275714Y-63344285D01*
X140361428Y-63601428D01*
X140532857Y-63772857D01*
X140704285Y-63858571D01*
X141047142Y-63944285D01*
X141304285Y-63944285D01*
X141647142Y-63858571D01*
X141818571Y-63772857D01*
X141990000Y-63601428D01*
X142075714Y-63344285D01*
X142075714Y-63172857D01*
X141990000Y-62915714D01*
X141904285Y-62830000D01*
X142075714Y-62315714D02*
X142075714Y-61287142D01*
X140275714Y-61801428D02*
X142075714Y-61801428D01*
X142075714Y-60344285D02*
X142075714Y-60001428D01*
X141990000Y-59830000D01*
X141818571Y-59658571D01*
X141475714Y-59572857D01*
X140875714Y-59572857D01*
X140532857Y-59658571D01*
X140361428Y-59830000D01*
X140275714Y-60001428D01*
X140275714Y-60344285D01*
X140361428Y-60515714D01*
X140532857Y-60687142D01*
X140875714Y-60772857D01*
X141475714Y-60772857D01*
X141818571Y-60687142D01*
X141990000Y-60515714D01*
X142075714Y-60344285D01*
X140275714Y-57772857D02*
X141132857Y-58372857D01*
X140275714Y-58801428D02*
X142075714Y-58801428D01*
X142075714Y-58115714D01*
X141990000Y-57944285D01*
X141904285Y-57858571D01*
X141732857Y-57772857D01*
X141475714Y-57772857D01*
X141304285Y-57858571D01*
X141218571Y-57944285D01*
X141132857Y-58115714D01*
X141132857Y-58801428D01*
X60390000Y-81858571D02*
X60475714Y-82030000D01*
X60475714Y-82287142D01*
X60390000Y-82544285D01*
X60218571Y-82715714D01*
X60047142Y-82801428D01*
X59704285Y-82887142D01*
X59447142Y-82887142D01*
X59104285Y-82801428D01*
X58932857Y-82715714D01*
X58761428Y-82544285D01*
X58675714Y-82287142D01*
X58675714Y-82115714D01*
X58761428Y-81858571D01*
X58847142Y-81772857D01*
X59447142Y-81772857D01*
X59447142Y-82115714D01*
X58675714Y-81001428D02*
X60475714Y-81001428D01*
X60475714Y-80315714D01*
X60390000Y-80144285D01*
X60304285Y-80058571D01*
X60132857Y-79972857D01*
X59875714Y-79972857D01*
X59704285Y-80058571D01*
X59618571Y-80144285D01*
X59532857Y-80315714D01*
X59532857Y-81001428D01*
X59361428Y-79201428D02*
X59361428Y-77830000D01*
X58675714Y-76972857D02*
X60475714Y-76972857D01*
X59618571Y-75515714D02*
X59532857Y-75258571D01*
X59447142Y-75172857D01*
X59275714Y-75087142D01*
X59018571Y-75087142D01*
X58847142Y-75172857D01*
X58761428Y-75258571D01*
X58675714Y-75430000D01*
X58675714Y-76115714D01*
X60475714Y-76115714D01*
X60475714Y-75515714D01*
X60390000Y-75344285D01*
X60304285Y-75258571D01*
X60132857Y-75172857D01*
X59961428Y-75172857D01*
X59790000Y-75258571D01*
X59704285Y-75344285D01*
X59618571Y-75515714D01*
X59618571Y-76115714D01*
X58847142Y-71915714D02*
X58761428Y-72001428D01*
X58675714Y-72258571D01*
X58675714Y-72430000D01*
X58761428Y-72687142D01*
X58932857Y-72858571D01*
X59104285Y-72944285D01*
X59447142Y-73030000D01*
X59704285Y-73030000D01*
X60047142Y-72944285D01*
X60218571Y-72858571D01*
X60390000Y-72687142D01*
X60475714Y-72430000D01*
X60475714Y-72258571D01*
X60390000Y-72001428D01*
X60304285Y-71915714D01*
X60475714Y-70801428D02*
X60475714Y-70458571D01*
X60390000Y-70287142D01*
X60218571Y-70115714D01*
X59875714Y-70030000D01*
X59275714Y-70030000D01*
X58932857Y-70115714D01*
X58761428Y-70287142D01*
X58675714Y-70458571D01*
X58675714Y-70801428D01*
X58761428Y-70972857D01*
X58932857Y-71144285D01*
X59275714Y-71230000D01*
X59875714Y-71230000D01*
X60218571Y-71144285D01*
X60390000Y-70972857D01*
X60475714Y-70801428D01*
X58675714Y-69258571D02*
X60475714Y-69258571D01*
X58675714Y-68230000D01*
X60475714Y-68230000D01*
X58675714Y-67372857D02*
X60475714Y-67372857D01*
X58675714Y-66344285D01*
X60475714Y-66344285D01*
X59618571Y-65487142D02*
X59618571Y-64887142D01*
X58675714Y-64630000D02*
X58675714Y-65487142D01*
X60475714Y-65487142D01*
X60475714Y-64630000D01*
X58847142Y-62830000D02*
X58761428Y-62915714D01*
X58675714Y-63172857D01*
X58675714Y-63344285D01*
X58761428Y-63601428D01*
X58932857Y-63772857D01*
X59104285Y-63858571D01*
X59447142Y-63944285D01*
X59704285Y-63944285D01*
X60047142Y-63858571D01*
X60218571Y-63772857D01*
X60390000Y-63601428D01*
X60475714Y-63344285D01*
X60475714Y-63172857D01*
X60390000Y-62915714D01*
X60304285Y-62830000D01*
X60475714Y-62315714D02*
X60475714Y-61287142D01*
X58675714Y-61801428D02*
X60475714Y-61801428D01*
X60475714Y-60344285D02*
X60475714Y-60001428D01*
X60390000Y-59830000D01*
X60218571Y-59658571D01*
X59875714Y-59572857D01*
X59275714Y-59572857D01*
X58932857Y-59658571D01*
X58761428Y-59830000D01*
X58675714Y-60001428D01*
X58675714Y-60344285D01*
X58761428Y-60515714D01*
X58932857Y-60687142D01*
X59275714Y-60772857D01*
X59875714Y-60772857D01*
X60218571Y-60687142D01*
X60390000Y-60515714D01*
X60475714Y-60344285D01*
X58675714Y-57772857D02*
X59532857Y-58372857D01*
X58675714Y-58801428D02*
X60475714Y-58801428D01*
X60475714Y-58115714D01*
X60390000Y-57944285D01*
X60304285Y-57858571D01*
X60132857Y-57772857D01*
X59875714Y-57772857D01*
X59704285Y-57858571D01*
X59618571Y-57944285D01*
X59532857Y-58115714D01*
X59532857Y-58801428D01*
X101190000Y-127358571D02*
X101275714Y-127530000D01*
X101275714Y-127787142D01*
X101190000Y-128044285D01*
X101018571Y-128215714D01*
X100847142Y-128301428D01*
X100504285Y-128387142D01*
X100247142Y-128387142D01*
X99904285Y-128301428D01*
X99732857Y-128215714D01*
X99561428Y-128044285D01*
X99475714Y-127787142D01*
X99475714Y-127615714D01*
X99561428Y-127358571D01*
X99647142Y-127272857D01*
X100247142Y-127272857D01*
X100247142Y-127615714D01*
X99475714Y-126501428D02*
X101275714Y-126501428D01*
X101275714Y-125815714D01*
X101190000Y-125644285D01*
X101104285Y-125558571D01*
X100932857Y-125472857D01*
X100675714Y-125472857D01*
X100504285Y-125558571D01*
X100418571Y-125644285D01*
X100332857Y-125815714D01*
X100332857Y-126501428D01*
X100161428Y-124701428D02*
X100161428Y-123330000D01*
X99475714Y-122472857D02*
X101275714Y-122472857D01*
X100418571Y-121015714D02*
X100332857Y-120758571D01*
X100247142Y-120672857D01*
X100075714Y-120587142D01*
X99818571Y-120587142D01*
X99647142Y-120672857D01*
X99561428Y-120758571D01*
X99475714Y-120930000D01*
X99475714Y-121615714D01*
X101275714Y-121615714D01*
X101275714Y-121015714D01*
X101190000Y-120844285D01*
X101104285Y-120758571D01*
X100932857Y-120672857D01*
X100761428Y-120672857D01*
X100590000Y-120758571D01*
X100504285Y-120844285D01*
X100418571Y-121015714D01*
X100418571Y-121615714D01*
X99647142Y-117415714D02*
X99561428Y-117501428D01*
X99475714Y-117758571D01*
X99475714Y-117930000D01*
X99561428Y-118187142D01*
X99732857Y-118358571D01*
X99904285Y-118444285D01*
X100247142Y-118530000D01*
X100504285Y-118530000D01*
X100847142Y-118444285D01*
X101018571Y-118358571D01*
X101190000Y-118187142D01*
X101275714Y-117930000D01*
X101275714Y-117758571D01*
X101190000Y-117501428D01*
X101104285Y-117415714D01*
X101275714Y-116301428D02*
X101275714Y-115958571D01*
X101190000Y-115787142D01*
X101018571Y-115615714D01*
X100675714Y-115530000D01*
X100075714Y-115530000D01*
X99732857Y-115615714D01*
X99561428Y-115787142D01*
X99475714Y-115958571D01*
X99475714Y-116301428D01*
X99561428Y-116472857D01*
X99732857Y-116644285D01*
X100075714Y-116730000D01*
X100675714Y-116730000D01*
X101018571Y-116644285D01*
X101190000Y-116472857D01*
X101275714Y-116301428D01*
X99475714Y-114758571D02*
X101275714Y-114758571D01*
X99475714Y-113730000D01*
X101275714Y-113730000D01*
X99475714Y-112872857D02*
X101275714Y-112872857D01*
X99475714Y-111844285D01*
X101275714Y-111844285D01*
X100418571Y-110987142D02*
X100418571Y-110387142D01*
X99475714Y-110130000D02*
X99475714Y-110987142D01*
X101275714Y-110987142D01*
X101275714Y-110130000D01*
X99647142Y-108330000D02*
X99561428Y-108415714D01*
X99475714Y-108672857D01*
X99475714Y-108844285D01*
X99561428Y-109101428D01*
X99732857Y-109272857D01*
X99904285Y-109358571D01*
X100247142Y-109444285D01*
X100504285Y-109444285D01*
X100847142Y-109358571D01*
X101018571Y-109272857D01*
X101190000Y-109101428D01*
X101275714Y-108844285D01*
X101275714Y-108672857D01*
X101190000Y-108415714D01*
X101104285Y-108330000D01*
X101275714Y-107815714D02*
X101275714Y-106787142D01*
X99475714Y-107301428D02*
X101275714Y-107301428D01*
X101275714Y-105844285D02*
X101275714Y-105501428D01*
X101190000Y-105330000D01*
X101018571Y-105158571D01*
X100675714Y-105072857D01*
X100075714Y-105072857D01*
X99732857Y-105158571D01*
X99561428Y-105330000D01*
X99475714Y-105501428D01*
X99475714Y-105844285D01*
X99561428Y-106015714D01*
X99732857Y-106187142D01*
X100075714Y-106272857D01*
X100675714Y-106272857D01*
X101018571Y-106187142D01*
X101190000Y-106015714D01*
X101275714Y-105844285D01*
X99475714Y-103272857D02*
X100332857Y-103872857D01*
X99475714Y-104301428D02*
X101275714Y-104301428D01*
X101275714Y-103615714D01*
X101190000Y-103444285D01*
X101104285Y-103358571D01*
X100932857Y-103272857D01*
X100675714Y-103272857D01*
X100504285Y-103358571D01*
X100418571Y-103444285D01*
X100332857Y-103615714D01*
X100332857Y-104301428D01*
X101190000Y-81858571D02*
X101275714Y-82030000D01*
X101275714Y-82287142D01*
X101190000Y-82544285D01*
X101018571Y-82715714D01*
X100847142Y-82801428D01*
X100504285Y-82887142D01*
X100247142Y-82887142D01*
X99904285Y-82801428D01*
X99732857Y-82715714D01*
X99561428Y-82544285D01*
X99475714Y-82287142D01*
X99475714Y-82115714D01*
X99561428Y-81858571D01*
X99647142Y-81772857D01*
X100247142Y-81772857D01*
X100247142Y-82115714D01*
X99475714Y-81001428D02*
X101275714Y-81001428D01*
X101275714Y-80315714D01*
X101190000Y-80144285D01*
X101104285Y-80058571D01*
X100932857Y-79972857D01*
X100675714Y-79972857D01*
X100504285Y-80058571D01*
X100418571Y-80144285D01*
X100332857Y-80315714D01*
X100332857Y-81001428D01*
X100161428Y-79201428D02*
X100161428Y-77830000D01*
X99475714Y-76972857D02*
X101275714Y-76972857D01*
X100418571Y-75515714D02*
X100332857Y-75258571D01*
X100247142Y-75172857D01*
X100075714Y-75087142D01*
X99818571Y-75087142D01*
X99647142Y-75172857D01*
X99561428Y-75258571D01*
X99475714Y-75430000D01*
X99475714Y-76115714D01*
X101275714Y-76115714D01*
X101275714Y-75515714D01*
X101190000Y-75344285D01*
X101104285Y-75258571D01*
X100932857Y-75172857D01*
X100761428Y-75172857D01*
X100590000Y-75258571D01*
X100504285Y-75344285D01*
X100418571Y-75515714D01*
X100418571Y-76115714D01*
X99647142Y-71915714D02*
X99561428Y-72001428D01*
X99475714Y-72258571D01*
X99475714Y-72430000D01*
X99561428Y-72687142D01*
X99732857Y-72858571D01*
X99904285Y-72944285D01*
X100247142Y-73030000D01*
X100504285Y-73030000D01*
X100847142Y-72944285D01*
X101018571Y-72858571D01*
X101190000Y-72687142D01*
X101275714Y-72430000D01*
X101275714Y-72258571D01*
X101190000Y-72001428D01*
X101104285Y-71915714D01*
X101275714Y-70801428D02*
X101275714Y-70458571D01*
X101190000Y-70287142D01*
X101018571Y-70115714D01*
X100675714Y-70030000D01*
X100075714Y-70030000D01*
X99732857Y-70115714D01*
X99561428Y-70287142D01*
X99475714Y-70458571D01*
X99475714Y-70801428D01*
X99561428Y-70972857D01*
X99732857Y-71144285D01*
X100075714Y-71230000D01*
X100675714Y-71230000D01*
X101018571Y-71144285D01*
X101190000Y-70972857D01*
X101275714Y-70801428D01*
X99475714Y-69258571D02*
X101275714Y-69258571D01*
X99475714Y-68230000D01*
X101275714Y-68230000D01*
X99475714Y-67372857D02*
X101275714Y-67372857D01*
X99475714Y-66344285D01*
X101275714Y-66344285D01*
X100418571Y-65487142D02*
X100418571Y-64887142D01*
X99475714Y-64630000D02*
X99475714Y-65487142D01*
X101275714Y-65487142D01*
X101275714Y-64630000D01*
X99647142Y-62830000D02*
X99561428Y-62915714D01*
X99475714Y-63172857D01*
X99475714Y-63344285D01*
X99561428Y-63601428D01*
X99732857Y-63772857D01*
X99904285Y-63858571D01*
X100247142Y-63944285D01*
X100504285Y-63944285D01*
X100847142Y-63858571D01*
X101018571Y-63772857D01*
X101190000Y-63601428D01*
X101275714Y-63344285D01*
X101275714Y-63172857D01*
X101190000Y-62915714D01*
X101104285Y-62830000D01*
X101275714Y-62315714D02*
X101275714Y-61287142D01*
X99475714Y-61801428D02*
X101275714Y-61801428D01*
X101275714Y-60344285D02*
X101275714Y-60001428D01*
X101190000Y-59830000D01*
X101018571Y-59658571D01*
X100675714Y-59572857D01*
X100075714Y-59572857D01*
X99732857Y-59658571D01*
X99561428Y-59830000D01*
X99475714Y-60001428D01*
X99475714Y-60344285D01*
X99561428Y-60515714D01*
X99732857Y-60687142D01*
X100075714Y-60772857D01*
X100675714Y-60772857D01*
X101018571Y-60687142D01*
X101190000Y-60515714D01*
X101275714Y-60344285D01*
X99475714Y-57772857D02*
X100332857Y-58372857D01*
X99475714Y-58801428D02*
X101275714Y-58801428D01*
X101275714Y-58115714D01*
X101190000Y-57944285D01*
X101104285Y-57858571D01*
X100932857Y-57772857D01*
X100675714Y-57772857D01*
X100504285Y-57858571D01*
X100418571Y-57944285D01*
X100332857Y-58115714D01*
X100332857Y-58801428D01*
X80790000Y-127358571D02*
X80875714Y-127530000D01*
X80875714Y-127787142D01*
X80790000Y-128044285D01*
X80618571Y-128215714D01*
X80447142Y-128301428D01*
X80104285Y-128387142D01*
X79847142Y-128387142D01*
X79504285Y-128301428D01*
X79332857Y-128215714D01*
X79161428Y-128044285D01*
X79075714Y-127787142D01*
X79075714Y-127615714D01*
X79161428Y-127358571D01*
X79247142Y-127272857D01*
X79847142Y-127272857D01*
X79847142Y-127615714D01*
X79075714Y-126501428D02*
X80875714Y-126501428D01*
X80875714Y-125815714D01*
X80790000Y-125644285D01*
X80704285Y-125558571D01*
X80532857Y-125472857D01*
X80275714Y-125472857D01*
X80104285Y-125558571D01*
X80018571Y-125644285D01*
X79932857Y-125815714D01*
X79932857Y-126501428D01*
X79761428Y-124701428D02*
X79761428Y-123330000D01*
X79075714Y-122472857D02*
X80875714Y-122472857D01*
X80018571Y-121015714D02*
X79932857Y-120758571D01*
X79847142Y-120672857D01*
X79675714Y-120587142D01*
X79418571Y-120587142D01*
X79247142Y-120672857D01*
X79161428Y-120758571D01*
X79075714Y-120930000D01*
X79075714Y-121615714D01*
X80875714Y-121615714D01*
X80875714Y-121015714D01*
X80790000Y-120844285D01*
X80704285Y-120758571D01*
X80532857Y-120672857D01*
X80361428Y-120672857D01*
X80190000Y-120758571D01*
X80104285Y-120844285D01*
X80018571Y-121015714D01*
X80018571Y-121615714D01*
X79247142Y-117415714D02*
X79161428Y-117501428D01*
X79075714Y-117758571D01*
X79075714Y-117930000D01*
X79161428Y-118187142D01*
X79332857Y-118358571D01*
X79504285Y-118444285D01*
X79847142Y-118530000D01*
X80104285Y-118530000D01*
X80447142Y-118444285D01*
X80618571Y-118358571D01*
X80790000Y-118187142D01*
X80875714Y-117930000D01*
X80875714Y-117758571D01*
X80790000Y-117501428D01*
X80704285Y-117415714D01*
X80875714Y-116301428D02*
X80875714Y-115958571D01*
X80790000Y-115787142D01*
X80618571Y-115615714D01*
X80275714Y-115530000D01*
X79675714Y-115530000D01*
X79332857Y-115615714D01*
X79161428Y-115787142D01*
X79075714Y-115958571D01*
X79075714Y-116301428D01*
X79161428Y-116472857D01*
X79332857Y-116644285D01*
X79675714Y-116730000D01*
X80275714Y-116730000D01*
X80618571Y-116644285D01*
X80790000Y-116472857D01*
X80875714Y-116301428D01*
X79075714Y-114758571D02*
X80875714Y-114758571D01*
X79075714Y-113730000D01*
X80875714Y-113730000D01*
X79075714Y-112872857D02*
X80875714Y-112872857D01*
X79075714Y-111844285D01*
X80875714Y-111844285D01*
X80018571Y-110987142D02*
X80018571Y-110387142D01*
X79075714Y-110130000D02*
X79075714Y-110987142D01*
X80875714Y-110987142D01*
X80875714Y-110130000D01*
X79247142Y-108330000D02*
X79161428Y-108415714D01*
X79075714Y-108672857D01*
X79075714Y-108844285D01*
X79161428Y-109101428D01*
X79332857Y-109272857D01*
X79504285Y-109358571D01*
X79847142Y-109444285D01*
X80104285Y-109444285D01*
X80447142Y-109358571D01*
X80618571Y-109272857D01*
X80790000Y-109101428D01*
X80875714Y-108844285D01*
X80875714Y-108672857D01*
X80790000Y-108415714D01*
X80704285Y-108330000D01*
X80875714Y-107815714D02*
X80875714Y-106787142D01*
X79075714Y-107301428D02*
X80875714Y-107301428D01*
X80875714Y-105844285D02*
X80875714Y-105501428D01*
X80790000Y-105330000D01*
X80618571Y-105158571D01*
X80275714Y-105072857D01*
X79675714Y-105072857D01*
X79332857Y-105158571D01*
X79161428Y-105330000D01*
X79075714Y-105501428D01*
X79075714Y-105844285D01*
X79161428Y-106015714D01*
X79332857Y-106187142D01*
X79675714Y-106272857D01*
X80275714Y-106272857D01*
X80618571Y-106187142D01*
X80790000Y-106015714D01*
X80875714Y-105844285D01*
X79075714Y-103272857D02*
X79932857Y-103872857D01*
X79075714Y-104301428D02*
X80875714Y-104301428D01*
X80875714Y-103615714D01*
X80790000Y-103444285D01*
X80704285Y-103358571D01*
X80532857Y-103272857D01*
X80275714Y-103272857D01*
X80104285Y-103358571D01*
X80018571Y-103444285D01*
X79932857Y-103615714D01*
X79932857Y-104301428D01*
X142020000Y-127348571D02*
X142105714Y-127520000D01*
X142105714Y-127777142D01*
X142020000Y-128034285D01*
X141848571Y-128205714D01*
X141677142Y-128291428D01*
X141334285Y-128377142D01*
X141077142Y-128377142D01*
X140734285Y-128291428D01*
X140562857Y-128205714D01*
X140391428Y-128034285D01*
X140305714Y-127777142D01*
X140305714Y-127605714D01*
X140391428Y-127348571D01*
X140477142Y-127262857D01*
X141077142Y-127262857D01*
X141077142Y-127605714D01*
X140305714Y-126491428D02*
X142105714Y-126491428D01*
X142105714Y-125805714D01*
X142020000Y-125634285D01*
X141934285Y-125548571D01*
X141762857Y-125462857D01*
X141505714Y-125462857D01*
X141334285Y-125548571D01*
X141248571Y-125634285D01*
X141162857Y-125805714D01*
X141162857Y-126491428D01*
X140991428Y-124691428D02*
X140991428Y-123320000D01*
X140305714Y-122462857D02*
X142105714Y-122462857D01*
X141248571Y-121005714D02*
X141162857Y-120748571D01*
X141077142Y-120662857D01*
X140905714Y-120577142D01*
X140648571Y-120577142D01*
X140477142Y-120662857D01*
X140391428Y-120748571D01*
X140305714Y-120920000D01*
X140305714Y-121605714D01*
X142105714Y-121605714D01*
X142105714Y-121005714D01*
X142020000Y-120834285D01*
X141934285Y-120748571D01*
X141762857Y-120662857D01*
X141591428Y-120662857D01*
X141420000Y-120748571D01*
X141334285Y-120834285D01*
X141248571Y-121005714D01*
X141248571Y-121605714D01*
X140477142Y-117405714D02*
X140391428Y-117491428D01*
X140305714Y-117748571D01*
X140305714Y-117920000D01*
X140391428Y-118177142D01*
X140562857Y-118348571D01*
X140734285Y-118434285D01*
X141077142Y-118520000D01*
X141334285Y-118520000D01*
X141677142Y-118434285D01*
X141848571Y-118348571D01*
X142020000Y-118177142D01*
X142105714Y-117920000D01*
X142105714Y-117748571D01*
X142020000Y-117491428D01*
X141934285Y-117405714D01*
X142105714Y-116291428D02*
X142105714Y-115948571D01*
X142020000Y-115777142D01*
X141848571Y-115605714D01*
X141505714Y-115520000D01*
X140905714Y-115520000D01*
X140562857Y-115605714D01*
X140391428Y-115777142D01*
X140305714Y-115948571D01*
X140305714Y-116291428D01*
X140391428Y-116462857D01*
X140562857Y-116634285D01*
X140905714Y-116720000D01*
X141505714Y-116720000D01*
X141848571Y-116634285D01*
X142020000Y-116462857D01*
X142105714Y-116291428D01*
X140305714Y-114748571D02*
X142105714Y-114748571D01*
X140305714Y-113720000D01*
X142105714Y-113720000D01*
X140305714Y-112862857D02*
X142105714Y-112862857D01*
X140305714Y-111834285D01*
X142105714Y-111834285D01*
X141248571Y-110977142D02*
X141248571Y-110377142D01*
X140305714Y-110120000D02*
X140305714Y-110977142D01*
X142105714Y-110977142D01*
X142105714Y-110120000D01*
X140477142Y-108320000D02*
X140391428Y-108405714D01*
X140305714Y-108662857D01*
X140305714Y-108834285D01*
X140391428Y-109091428D01*
X140562857Y-109262857D01*
X140734285Y-109348571D01*
X141077142Y-109434285D01*
X141334285Y-109434285D01*
X141677142Y-109348571D01*
X141848571Y-109262857D01*
X142020000Y-109091428D01*
X142105714Y-108834285D01*
X142105714Y-108662857D01*
X142020000Y-108405714D01*
X141934285Y-108320000D01*
X142105714Y-107805714D02*
X142105714Y-106777142D01*
X140305714Y-107291428D02*
X142105714Y-107291428D01*
X142105714Y-105834285D02*
X142105714Y-105491428D01*
X142020000Y-105320000D01*
X141848571Y-105148571D01*
X141505714Y-105062857D01*
X140905714Y-105062857D01*
X140562857Y-105148571D01*
X140391428Y-105320000D01*
X140305714Y-105491428D01*
X140305714Y-105834285D01*
X140391428Y-106005714D01*
X140562857Y-106177142D01*
X140905714Y-106262857D01*
X141505714Y-106262857D01*
X141848571Y-106177142D01*
X142020000Y-106005714D01*
X142105714Y-105834285D01*
X140305714Y-103262857D02*
X141162857Y-103862857D01*
X140305714Y-104291428D02*
X142105714Y-104291428D01*
X142105714Y-103605714D01*
X142020000Y-103434285D01*
X141934285Y-103348571D01*
X141762857Y-103262857D01*
X141505714Y-103262857D01*
X141334285Y-103348571D01*
X141248571Y-103434285D01*
X141162857Y-103605714D01*
X141162857Y-104291428D01*
X121590000Y-81858571D02*
X121675714Y-82030000D01*
X121675714Y-82287142D01*
X121590000Y-82544285D01*
X121418571Y-82715714D01*
X121247142Y-82801428D01*
X120904285Y-82887142D01*
X120647142Y-82887142D01*
X120304285Y-82801428D01*
X120132857Y-82715714D01*
X119961428Y-82544285D01*
X119875714Y-82287142D01*
X119875714Y-82115714D01*
X119961428Y-81858571D01*
X120047142Y-81772857D01*
X120647142Y-81772857D01*
X120647142Y-82115714D01*
X119875714Y-81001428D02*
X121675714Y-81001428D01*
X121675714Y-80315714D01*
X121590000Y-80144285D01*
X121504285Y-80058571D01*
X121332857Y-79972857D01*
X121075714Y-79972857D01*
X120904285Y-80058571D01*
X120818571Y-80144285D01*
X120732857Y-80315714D01*
X120732857Y-81001428D01*
X120561428Y-79201428D02*
X120561428Y-77830000D01*
X119875714Y-76972857D02*
X121675714Y-76972857D01*
X120818571Y-75515714D02*
X120732857Y-75258571D01*
X120647142Y-75172857D01*
X120475714Y-75087142D01*
X120218571Y-75087142D01*
X120047142Y-75172857D01*
X119961428Y-75258571D01*
X119875714Y-75430000D01*
X119875714Y-76115714D01*
X121675714Y-76115714D01*
X121675714Y-75515714D01*
X121590000Y-75344285D01*
X121504285Y-75258571D01*
X121332857Y-75172857D01*
X121161428Y-75172857D01*
X120990000Y-75258571D01*
X120904285Y-75344285D01*
X120818571Y-75515714D01*
X120818571Y-76115714D01*
X120047142Y-71915714D02*
X119961428Y-72001428D01*
X119875714Y-72258571D01*
X119875714Y-72430000D01*
X119961428Y-72687142D01*
X120132857Y-72858571D01*
X120304285Y-72944285D01*
X120647142Y-73030000D01*
X120904285Y-73030000D01*
X121247142Y-72944285D01*
X121418571Y-72858571D01*
X121590000Y-72687142D01*
X121675714Y-72430000D01*
X121675714Y-72258571D01*
X121590000Y-72001428D01*
X121504285Y-71915714D01*
X121675714Y-70801428D02*
X121675714Y-70458571D01*
X121590000Y-70287142D01*
X121418571Y-70115714D01*
X121075714Y-70030000D01*
X120475714Y-70030000D01*
X120132857Y-70115714D01*
X119961428Y-70287142D01*
X119875714Y-70458571D01*
X119875714Y-70801428D01*
X119961428Y-70972857D01*
X120132857Y-71144285D01*
X120475714Y-71230000D01*
X121075714Y-71230000D01*
X121418571Y-71144285D01*
X121590000Y-70972857D01*
X121675714Y-70801428D01*
X119875714Y-69258571D02*
X121675714Y-69258571D01*
X119875714Y-68230000D01*
X121675714Y-68230000D01*
X119875714Y-67372857D02*
X121675714Y-67372857D01*
X119875714Y-66344285D01*
X121675714Y-66344285D01*
X120818571Y-65487142D02*
X120818571Y-64887142D01*
X119875714Y-64630000D02*
X119875714Y-65487142D01*
X121675714Y-65487142D01*
X121675714Y-64630000D01*
X120047142Y-62830000D02*
X119961428Y-62915714D01*
X119875714Y-63172857D01*
X119875714Y-63344285D01*
X119961428Y-63601428D01*
X120132857Y-63772857D01*
X120304285Y-63858571D01*
X120647142Y-63944285D01*
X120904285Y-63944285D01*
X121247142Y-63858571D01*
X121418571Y-63772857D01*
X121590000Y-63601428D01*
X121675714Y-63344285D01*
X121675714Y-63172857D01*
X121590000Y-62915714D01*
X121504285Y-62830000D01*
X121675714Y-62315714D02*
X121675714Y-61287142D01*
X119875714Y-61801428D02*
X121675714Y-61801428D01*
X121675714Y-60344285D02*
X121675714Y-60001428D01*
X121590000Y-59830000D01*
X121418571Y-59658571D01*
X121075714Y-59572857D01*
X120475714Y-59572857D01*
X120132857Y-59658571D01*
X119961428Y-59830000D01*
X119875714Y-60001428D01*
X119875714Y-60344285D01*
X119961428Y-60515714D01*
X120132857Y-60687142D01*
X120475714Y-60772857D01*
X121075714Y-60772857D01*
X121418571Y-60687142D01*
X121590000Y-60515714D01*
X121675714Y-60344285D01*
X119875714Y-57772857D02*
X120732857Y-58372857D01*
X119875714Y-58801428D02*
X121675714Y-58801428D01*
X121675714Y-58115714D01*
X121590000Y-57944285D01*
X121504285Y-57858571D01*
X121332857Y-57772857D01*
X121075714Y-57772857D01*
X120904285Y-57858571D01*
X120818571Y-57944285D01*
X120732857Y-58115714D01*
X120732857Y-58801428D01*
X60390000Y-127358571D02*
X60475714Y-127530000D01*
X60475714Y-127787142D01*
X60390000Y-128044285D01*
X60218571Y-128215714D01*
X60047142Y-128301428D01*
X59704285Y-128387142D01*
X59447142Y-128387142D01*
X59104285Y-128301428D01*
X58932857Y-128215714D01*
X58761428Y-128044285D01*
X58675714Y-127787142D01*
X58675714Y-127615714D01*
X58761428Y-127358571D01*
X58847142Y-127272857D01*
X59447142Y-127272857D01*
X59447142Y-127615714D01*
X58675714Y-126501428D02*
X60475714Y-126501428D01*
X60475714Y-125815714D01*
X60390000Y-125644285D01*
X60304285Y-125558571D01*
X60132857Y-125472857D01*
X59875714Y-125472857D01*
X59704285Y-125558571D01*
X59618571Y-125644285D01*
X59532857Y-125815714D01*
X59532857Y-126501428D01*
X59361428Y-124701428D02*
X59361428Y-123330000D01*
X58675714Y-122472857D02*
X60475714Y-122472857D01*
X59618571Y-121015714D02*
X59532857Y-120758571D01*
X59447142Y-120672857D01*
X59275714Y-120587142D01*
X59018571Y-120587142D01*
X58847142Y-120672857D01*
X58761428Y-120758571D01*
X58675714Y-120930000D01*
X58675714Y-121615714D01*
X60475714Y-121615714D01*
X60475714Y-121015714D01*
X60390000Y-120844285D01*
X60304285Y-120758571D01*
X60132857Y-120672857D01*
X59961428Y-120672857D01*
X59790000Y-120758571D01*
X59704285Y-120844285D01*
X59618571Y-121015714D01*
X59618571Y-121615714D01*
X58847142Y-117415714D02*
X58761428Y-117501428D01*
X58675714Y-117758571D01*
X58675714Y-117930000D01*
X58761428Y-118187142D01*
X58932857Y-118358571D01*
X59104285Y-118444285D01*
X59447142Y-118530000D01*
X59704285Y-118530000D01*
X60047142Y-118444285D01*
X60218571Y-118358571D01*
X60390000Y-118187142D01*
X60475714Y-117930000D01*
X60475714Y-117758571D01*
X60390000Y-117501428D01*
X60304285Y-117415714D01*
X60475714Y-116301428D02*
X60475714Y-115958571D01*
X60390000Y-115787142D01*
X60218571Y-115615714D01*
X59875714Y-115530000D01*
X59275714Y-115530000D01*
X58932857Y-115615714D01*
X58761428Y-115787142D01*
X58675714Y-115958571D01*
X58675714Y-116301428D01*
X58761428Y-116472857D01*
X58932857Y-116644285D01*
X59275714Y-116730000D01*
X59875714Y-116730000D01*
X60218571Y-116644285D01*
X60390000Y-116472857D01*
X60475714Y-116301428D01*
X58675714Y-114758571D02*
X60475714Y-114758571D01*
X58675714Y-113730000D01*
X60475714Y-113730000D01*
X58675714Y-112872857D02*
X60475714Y-112872857D01*
X58675714Y-111844285D01*
X60475714Y-111844285D01*
X59618571Y-110987142D02*
X59618571Y-110387142D01*
X58675714Y-110130000D02*
X58675714Y-110987142D01*
X60475714Y-110987142D01*
X60475714Y-110130000D01*
X58847142Y-108330000D02*
X58761428Y-108415714D01*
X58675714Y-108672857D01*
X58675714Y-108844285D01*
X58761428Y-109101428D01*
X58932857Y-109272857D01*
X59104285Y-109358571D01*
X59447142Y-109444285D01*
X59704285Y-109444285D01*
X60047142Y-109358571D01*
X60218571Y-109272857D01*
X60390000Y-109101428D01*
X60475714Y-108844285D01*
X60475714Y-108672857D01*
X60390000Y-108415714D01*
X60304285Y-108330000D01*
X60475714Y-107815714D02*
X60475714Y-106787142D01*
X58675714Y-107301428D02*
X60475714Y-107301428D01*
X60475714Y-105844285D02*
X60475714Y-105501428D01*
X60390000Y-105330000D01*
X60218571Y-105158571D01*
X59875714Y-105072857D01*
X59275714Y-105072857D01*
X58932857Y-105158571D01*
X58761428Y-105330000D01*
X58675714Y-105501428D01*
X58675714Y-105844285D01*
X58761428Y-106015714D01*
X58932857Y-106187142D01*
X59275714Y-106272857D01*
X59875714Y-106272857D01*
X60218571Y-106187142D01*
X60390000Y-106015714D01*
X60475714Y-105844285D01*
X58675714Y-103272857D02*
X59532857Y-103872857D01*
X58675714Y-104301428D02*
X60475714Y-104301428D01*
X60475714Y-103615714D01*
X60390000Y-103444285D01*
X60304285Y-103358571D01*
X60132857Y-103272857D01*
X59875714Y-103272857D01*
X59704285Y-103358571D01*
X59618571Y-103444285D01*
X59532857Y-103615714D01*
X59532857Y-104301428D01*
X116710419Y-104608933D02*
X116742225Y-126958034D01*
X124730419Y-129268933D02*
X124723140Y-102239731D01*
X117929602Y-102676887D02*
X123463140Y-101209731D01*
X117949582Y-128841067D02*
X123470419Y-130298933D01*
X116742225Y-126958034D02*
G75*
G03*
X117949582Y-128841067I1955825J-74552D01*
G01*
X117929602Y-102676887D02*
G75*
G03*
X116710419Y-104588933I759261J-1828848D01*
G01*
X124723139Y-102239731D02*
G75*
G03*
X123463140Y-101209731I-1131692J-98721D01*
G01*
X123470419Y-130298934D02*
G75*
G03*
X124730419Y-129268933I128307J1128722D01*
G01*
X75890419Y-59108933D02*
X75922225Y-81458034D01*
X77109602Y-57176887D02*
X82643140Y-55709731D01*
X83910419Y-83768933D02*
X83903140Y-56739731D01*
X77129582Y-83341067D02*
X82650419Y-84798933D01*
X82650419Y-84798934D02*
G75*
G03*
X83910419Y-83768933I128307J1128722D01*
G01*
X77109602Y-57176887D02*
G75*
G03*
X75890419Y-59088933I759261J-1828848D01*
G01*
X83903139Y-56739731D02*
G75*
G03*
X82643140Y-55709731I-1131692J-98721D01*
G01*
X75922225Y-81458034D02*
G75*
G03*
X77129582Y-83341067I1955825J-74552D01*
G01*
X138329582Y-83341067D02*
X143850419Y-84798933D01*
X145110419Y-83768933D02*
X145103140Y-56739731D01*
X138309602Y-57176887D02*
X143843140Y-55709731D01*
X137090419Y-59108933D02*
X137122225Y-81458034D01*
X145103139Y-56739731D02*
G75*
G03*
X143843140Y-55709731I-1131692J-98721D01*
G01*
X137122225Y-81458034D02*
G75*
G03*
X138329582Y-83341067I1955825J-74552D01*
G01*
X143850419Y-84798934D02*
G75*
G03*
X145110419Y-83768933I128307J1128722D01*
G01*
X138309602Y-57176887D02*
G75*
G03*
X137090419Y-59088933I759261J-1828848D01*
G01*
X63510419Y-83768933D02*
X63503140Y-56739731D01*
X56729582Y-83341067D02*
X62250419Y-84798933D01*
X56709602Y-57176887D02*
X62243140Y-55709731D01*
X55490419Y-59108933D02*
X55522225Y-81458034D01*
X55522225Y-81458034D02*
G75*
G03*
X56729582Y-83341067I1955825J-74552D01*
G01*
X63503139Y-56739731D02*
G75*
G03*
X62243140Y-55709731I-1131692J-98721D01*
G01*
X62250419Y-84798934D02*
G75*
G03*
X63510419Y-83768933I128307J1128722D01*
G01*
X56709602Y-57176887D02*
G75*
G03*
X55490419Y-59088933I759261J-1828848D01*
G01*
X97529582Y-128841067D02*
X103050419Y-130298933D01*
X96290419Y-104608933D02*
X96322225Y-126958034D01*
X104310419Y-129268933D02*
X104303140Y-102239731D01*
X97509602Y-102676887D02*
X103043140Y-101209731D01*
X104303139Y-102239731D02*
G75*
G03*
X103043140Y-101209731I-1131692J-98721D01*
G01*
X96322225Y-126958034D02*
G75*
G03*
X97529582Y-128841067I1955825J-74552D01*
G01*
X97509602Y-102676887D02*
G75*
G03*
X96290419Y-104588933I759261J-1828848D01*
G01*
X103050419Y-130298934D02*
G75*
G03*
X104310419Y-129268933I128307J1128722D01*
G01*
X97509602Y-57176887D02*
X103043140Y-55709731D01*
X97529582Y-83341067D02*
X103050419Y-84798933D01*
X96290419Y-59108933D02*
X96322225Y-81458034D01*
X104310419Y-83768933D02*
X104303140Y-56739731D01*
X104303139Y-56739731D02*
G75*
G03*
X103043140Y-55709731I-1131692J-98721D01*
G01*
X103050419Y-84798934D02*
G75*
G03*
X104310419Y-83768933I128307J1128722D01*
G01*
X96322225Y-81458034D02*
G75*
G03*
X97529582Y-83341067I1955825J-74552D01*
G01*
X97509602Y-57176887D02*
G75*
G03*
X96290419Y-59088933I759261J-1828848D01*
G01*
X77129582Y-128841067D02*
X82650419Y-130298933D01*
X75890419Y-104608933D02*
X75922225Y-126958034D01*
X77109602Y-102676887D02*
X82643140Y-101209731D01*
X83910419Y-129268933D02*
X83903140Y-102239731D01*
X82650419Y-130298934D02*
G75*
G03*
X83910419Y-129268933I128307J1128722D01*
G01*
X75922225Y-126958034D02*
G75*
G03*
X77129582Y-128841067I1955825J-74552D01*
G01*
X77109602Y-102676887D02*
G75*
G03*
X75890419Y-104588933I759261J-1828848D01*
G01*
X83903139Y-102239731D02*
G75*
G03*
X82643140Y-101209731I-1131692J-98721D01*
G01*
X145140419Y-129258933D02*
X145133140Y-102229731D01*
X138339602Y-102666887D02*
X143873140Y-101199731D01*
X137120419Y-104598933D02*
X137152225Y-126948034D01*
X138359582Y-128831067D02*
X143880419Y-130288933D01*
X138339602Y-102666887D02*
G75*
G03*
X137120419Y-104578933I759261J-1828848D01*
G01*
X145133139Y-102229731D02*
G75*
G03*
X143873140Y-101199731I-1131692J-98721D01*
G01*
X137152225Y-126948034D02*
G75*
G03*
X138359582Y-128831067I1955825J-74552D01*
G01*
X143880419Y-130288934D02*
G75*
G03*
X145140419Y-129258933I128307J1128722D01*
G01*
X116690419Y-59108933D02*
X116722225Y-81458034D01*
X117929582Y-83341067D02*
X123450419Y-84798933D01*
X124710419Y-83768933D02*
X124703140Y-56739731D01*
X117909602Y-57176887D02*
X123443140Y-55709731D01*
X117909602Y-57176887D02*
G75*
G03*
X116690419Y-59088933I759261J-1828848D01*
G01*
X123450419Y-84798934D02*
G75*
G03*
X124710419Y-83768933I128307J1128722D01*
G01*
X124703139Y-56739731D02*
G75*
G03*
X123443140Y-55709731I-1131692J-98721D01*
G01*
X116722225Y-81458034D02*
G75*
G03*
X117929582Y-83341067I1955825J-74552D01*
G01*
X55490419Y-104608933D02*
X55522225Y-126958034D01*
X56709602Y-102676887D02*
X62243140Y-101209731D01*
X63510419Y-129268933D02*
X63503140Y-102239731D01*
X56729582Y-128841067D02*
X62250419Y-130298933D01*
X55522225Y-126958034D02*
G75*
G03*
X56729582Y-128841067I1955825J-74552D01*
G01*
X56709602Y-102676887D02*
G75*
G03*
X55490419Y-104588933I759261J-1828848D01*
G01*
X62250419Y-130298934D02*
G75*
G03*
X63510419Y-129268933I128307J1128722D01*
G01*
X63503139Y-102239731D02*
G75*
G03*
X62243140Y-101209731I-1131692J-98721D01*
G01*
%LPC*%
D11*
X98030439Y-100729447D03*
X123240439Y-100669447D03*
X98030439Y-55229447D03*
X143640439Y-100669447D03*
X57230439Y-55229447D03*
D12*
X80010000Y-48610000D03*
X78510000Y-48610000D03*
X81510000Y-48610000D03*
X80760000Y-48610000D03*
X79260000Y-48610000D03*
D13*
X113090000Y-52880000D03*
D14*
X113090000Y-55420000D03*
X113090000Y-57960000D03*
X113090000Y-60500000D03*
X113090000Y-63040000D03*
X113090000Y-65580000D03*
X113090000Y-68120000D03*
X113090000Y-70660000D03*
X113090000Y-73200000D03*
X113090000Y-75740000D03*
X113090000Y-78280000D03*
X113090000Y-80820000D03*
X113090000Y-83360000D03*
X113090000Y-85900000D03*
X113090000Y-88440000D03*
X128330000Y-88440000D03*
X128330000Y-85900000D03*
X128330000Y-83360000D03*
X128330000Y-80820000D03*
X128330000Y-78280000D03*
X128330000Y-75740000D03*
X128330000Y-73200000D03*
X128330000Y-70660000D03*
X128330000Y-68120000D03*
X128330000Y-65580000D03*
X128330000Y-63040000D03*
X128330000Y-60500000D03*
X128330000Y-57960000D03*
X128330000Y-55420000D03*
X128330000Y-52880000D03*
D12*
X61120000Y-92630000D03*
X60370000Y-94130000D03*
X60370000Y-92630000D03*
X59620000Y-92630000D03*
X58120000Y-94130000D03*
X61120000Y-94130000D03*
X58870000Y-92630000D03*
X59620000Y-94130000D03*
X58870000Y-94130000D03*
X58120000Y-92630000D03*
D13*
X72290000Y-52880000D03*
D14*
X72290000Y-55420000D03*
X72290000Y-57960000D03*
X72290000Y-60500000D03*
X72290000Y-63040000D03*
X72290000Y-65580000D03*
X72290000Y-68120000D03*
X72290000Y-70660000D03*
X72290000Y-73200000D03*
X72290000Y-75740000D03*
X72290000Y-78280000D03*
X72290000Y-80820000D03*
X72290000Y-83360000D03*
X72290000Y-85900000D03*
X72290000Y-88440000D03*
X87530000Y-88440000D03*
X87530000Y-85900000D03*
X87530000Y-83360000D03*
X87530000Y-80820000D03*
X87530000Y-78280000D03*
X87530000Y-75740000D03*
X87530000Y-73200000D03*
X87530000Y-70660000D03*
X87530000Y-68120000D03*
X87530000Y-65580000D03*
X87530000Y-63040000D03*
X87530000Y-60500000D03*
X87530000Y-57960000D03*
X87530000Y-55420000D03*
X87530000Y-52880000D03*
D13*
X113090000Y-98380000D03*
D14*
X113090000Y-100920000D03*
X113090000Y-103460000D03*
X113090000Y-106000000D03*
X113090000Y-108540000D03*
X113090000Y-111080000D03*
X113090000Y-113620000D03*
X113090000Y-116160000D03*
X113090000Y-118700000D03*
X113090000Y-121240000D03*
X113090000Y-123780000D03*
X113090000Y-126320000D03*
X113090000Y-128860000D03*
X113090000Y-131400000D03*
X113090000Y-133940000D03*
X128330000Y-133940000D03*
X128330000Y-131400000D03*
X128330000Y-128860000D03*
X128330000Y-126320000D03*
X128330000Y-123780000D03*
X128330000Y-121240000D03*
X128330000Y-118700000D03*
X128330000Y-116160000D03*
X128330000Y-113620000D03*
X128330000Y-111080000D03*
X128330000Y-108540000D03*
X128330000Y-106000000D03*
X128330000Y-103460000D03*
X128330000Y-100920000D03*
X128330000Y-98380000D03*
D11*
X138830439Y-100729447D03*
D13*
X72290000Y-98380000D03*
D14*
X72290000Y-100920000D03*
X72290000Y-103460000D03*
X72290000Y-106000000D03*
X72290000Y-108540000D03*
X72290000Y-111080000D03*
X72290000Y-113620000D03*
X72290000Y-116160000D03*
X72290000Y-118700000D03*
X72290000Y-121240000D03*
X72290000Y-123780000D03*
X72290000Y-126320000D03*
X72290000Y-128860000D03*
X72290000Y-131400000D03*
X72290000Y-133940000D03*
X87530000Y-133940000D03*
X87530000Y-131400000D03*
X87530000Y-128860000D03*
X87530000Y-126320000D03*
X87530000Y-123780000D03*
X87530000Y-121240000D03*
X87530000Y-118700000D03*
X87530000Y-116160000D03*
X87530000Y-113620000D03*
X87530000Y-111080000D03*
X87530000Y-108540000D03*
X87530000Y-106000000D03*
X87530000Y-103460000D03*
X87530000Y-100920000D03*
X87530000Y-98380000D03*
D12*
X140470000Y-92630000D03*
X141220000Y-92630000D03*
X141970000Y-94130000D03*
X142720000Y-94130000D03*
X139720000Y-92630000D03*
X142720000Y-92630000D03*
X140470000Y-94130000D03*
X139720000Y-94130000D03*
X141220000Y-94130000D03*
X141970000Y-92630000D03*
D11*
X77630439Y-55229447D03*
D12*
X119320000Y-138140000D03*
X120070000Y-138140000D03*
X122320000Y-138140000D03*
X121570000Y-138140000D03*
X120820000Y-138140000D03*
D13*
X92690000Y-52880000D03*
D14*
X92690000Y-55420000D03*
X92690000Y-57960000D03*
X92690000Y-60500000D03*
X92690000Y-63040000D03*
X92690000Y-65580000D03*
X92690000Y-68120000D03*
X92690000Y-70660000D03*
X92690000Y-73200000D03*
X92690000Y-75740000D03*
X92690000Y-78280000D03*
X92690000Y-80820000D03*
X92690000Y-83360000D03*
X92690000Y-85900000D03*
X92690000Y-88440000D03*
X107930000Y-88440000D03*
X107930000Y-85900000D03*
X107930000Y-83360000D03*
X107930000Y-80820000D03*
X107930000Y-78280000D03*
X107930000Y-75740000D03*
X107930000Y-73200000D03*
X107930000Y-70660000D03*
X107930000Y-68120000D03*
X107930000Y-65580000D03*
X107930000Y-63040000D03*
X107930000Y-60500000D03*
X107930000Y-57960000D03*
X107930000Y-55420000D03*
X107930000Y-52880000D03*
D11*
X102840439Y-55169447D03*
X77630439Y-100729447D03*
X143640439Y-55169447D03*
X118430439Y-55229447D03*
D12*
X98920000Y-138140000D03*
X99670000Y-138140000D03*
X101920000Y-138140000D03*
X101170000Y-138140000D03*
X100420000Y-138140000D03*
D13*
X133490000Y-52880000D03*
D14*
X133490000Y-55420000D03*
X133490000Y-57960000D03*
X133490000Y-60500000D03*
X133490000Y-63040000D03*
X133490000Y-65580000D03*
X133490000Y-68120000D03*
X133490000Y-70660000D03*
X133490000Y-73200000D03*
X133490000Y-75740000D03*
X133490000Y-78280000D03*
X133490000Y-80820000D03*
X133490000Y-83360000D03*
X133490000Y-85900000D03*
X133490000Y-88440000D03*
X148730000Y-88440000D03*
X148730000Y-85900000D03*
X148730000Y-83360000D03*
X148730000Y-80820000D03*
X148730000Y-78280000D03*
X148730000Y-75740000D03*
X148730000Y-73200000D03*
X148730000Y-70660000D03*
X148730000Y-68120000D03*
X148730000Y-65580000D03*
X148730000Y-63040000D03*
X148730000Y-60500000D03*
X148730000Y-57960000D03*
X148730000Y-55420000D03*
X148730000Y-52880000D03*
D12*
X122320000Y-94130000D03*
X120820000Y-92630000D03*
X119320000Y-92630000D03*
X122320000Y-92630000D03*
X119320000Y-94130000D03*
X120820000Y-94130000D03*
X121570000Y-92630000D03*
X120070000Y-92630000D03*
X120070000Y-94130000D03*
X121570000Y-94130000D03*
D11*
X138830439Y-55229447D03*
D13*
X92690000Y-98380000D03*
D14*
X92690000Y-100920000D03*
X92690000Y-103460000D03*
X92690000Y-106000000D03*
X92690000Y-108540000D03*
X92690000Y-111080000D03*
X92690000Y-113620000D03*
X92690000Y-116160000D03*
X92690000Y-118700000D03*
X92690000Y-121240000D03*
X92690000Y-123780000D03*
X92690000Y-126320000D03*
X92690000Y-128860000D03*
X92690000Y-131400000D03*
X92690000Y-133940000D03*
X107930000Y-133940000D03*
X107930000Y-131400000D03*
X107930000Y-128860000D03*
X107930000Y-126320000D03*
X107930000Y-123780000D03*
X107930000Y-121240000D03*
X107930000Y-118700000D03*
X107930000Y-116160000D03*
X107930000Y-113620000D03*
X107930000Y-111080000D03*
X107930000Y-108540000D03*
X107930000Y-106000000D03*
X107930000Y-103460000D03*
X107930000Y-100920000D03*
X107930000Y-98380000D03*
D11*
X82440439Y-55169447D03*
D12*
X140450000Y-48610000D03*
X139700000Y-48610000D03*
X141200000Y-48610000D03*
X141950000Y-48610000D03*
X142700000Y-48610000D03*
D11*
X62040439Y-100669447D03*
D13*
X133490000Y-98380000D03*
D14*
X133490000Y-100920000D03*
X133490000Y-103460000D03*
X133490000Y-106000000D03*
X133490000Y-108540000D03*
X133490000Y-111080000D03*
X133490000Y-113620000D03*
X133490000Y-116160000D03*
X133490000Y-118700000D03*
X133490000Y-121240000D03*
X133490000Y-123780000D03*
X133490000Y-126320000D03*
X133490000Y-128860000D03*
X133490000Y-131400000D03*
X133490000Y-133940000D03*
X148730000Y-133940000D03*
X148730000Y-131400000D03*
X148730000Y-128860000D03*
X148730000Y-126320000D03*
X148730000Y-123780000D03*
X148730000Y-121240000D03*
X148730000Y-118700000D03*
X148730000Y-116160000D03*
X148730000Y-113620000D03*
X148730000Y-111080000D03*
X148730000Y-108540000D03*
X148730000Y-106000000D03*
X148730000Y-103460000D03*
X148730000Y-100920000D03*
X148730000Y-98380000D03*
D11*
X82440439Y-100669447D03*
X57230439Y-100729447D03*
D12*
X98910000Y-48610000D03*
X101160000Y-48610000D03*
X99660000Y-48610000D03*
X101910000Y-48610000D03*
X100410000Y-48610000D03*
D13*
X51890000Y-98380000D03*
D14*
X51890000Y-100920000D03*
X51890000Y-103460000D03*
X51890000Y-106000000D03*
X51890000Y-108540000D03*
X51890000Y-111080000D03*
X51890000Y-113620000D03*
X51890000Y-116160000D03*
X51890000Y-118700000D03*
X51890000Y-121240000D03*
X51890000Y-123780000D03*
X51890000Y-126320000D03*
X51890000Y-128860000D03*
X51890000Y-131400000D03*
X51890000Y-133940000D03*
X67130000Y-133940000D03*
X67130000Y-131400000D03*
X67130000Y-128860000D03*
X67130000Y-126320000D03*
X67130000Y-123780000D03*
X67130000Y-121240000D03*
X67130000Y-118700000D03*
X67130000Y-116160000D03*
X67130000Y-113620000D03*
X67130000Y-111080000D03*
X67130000Y-108540000D03*
X67130000Y-106000000D03*
X67130000Y-103460000D03*
X67130000Y-100920000D03*
X67130000Y-98380000D03*
D11*
X62040439Y-55169447D03*
D12*
X60370000Y-138140000D03*
X61120000Y-138140000D03*
X59620000Y-138140000D03*
X58120000Y-138140000D03*
X58870000Y-138140000D03*
D13*
X51890000Y-52880000D03*
D14*
X51890000Y-55420000D03*
X51890000Y-57960000D03*
X51890000Y-60500000D03*
X51890000Y-63040000D03*
X51890000Y-65580000D03*
X51890000Y-68120000D03*
X51890000Y-70660000D03*
X51890000Y-73200000D03*
X51890000Y-75740000D03*
X51890000Y-78280000D03*
X51890000Y-80820000D03*
X51890000Y-83360000D03*
X51890000Y-85900000D03*
X51890000Y-88440000D03*
X67130000Y-88440000D03*
X67130000Y-85900000D03*
X67130000Y-83360000D03*
X67130000Y-80820000D03*
X67130000Y-78280000D03*
X67130000Y-75740000D03*
X67130000Y-73200000D03*
X67130000Y-70660000D03*
X67130000Y-68120000D03*
X67130000Y-65580000D03*
X67130000Y-63040000D03*
X67130000Y-60500000D03*
X67130000Y-57960000D03*
X67130000Y-55420000D03*
X67130000Y-52880000D03*
D12*
X78520000Y-92630000D03*
X79270000Y-94130000D03*
X81520000Y-94130000D03*
X80770000Y-94130000D03*
X78520000Y-94130000D03*
X80020000Y-92630000D03*
X81520000Y-92630000D03*
X79270000Y-92630000D03*
X80020000Y-94130000D03*
X80770000Y-92630000D03*
X60360000Y-48610000D03*
X58110000Y-48610000D03*
X59610000Y-48610000D03*
X61110000Y-48610000D03*
X58860000Y-48610000D03*
X139720000Y-138140000D03*
X141220000Y-138140000D03*
X141970000Y-138140000D03*
X140470000Y-138140000D03*
X142720000Y-138140000D03*
D11*
X123240439Y-55169447D03*
X102840439Y-100669447D03*
D12*
X80020000Y-138140000D03*
X80770000Y-138140000D03*
X79270000Y-138140000D03*
X81520000Y-138140000D03*
X78520000Y-138140000D03*
D11*
X118430439Y-100729447D03*
D12*
X99670000Y-94130000D03*
X101170000Y-92630000D03*
X98920000Y-94130000D03*
X98920000Y-92630000D03*
X101920000Y-92630000D03*
X101920000Y-94130000D03*
X99670000Y-92630000D03*
X100420000Y-92630000D03*
X100420000Y-94130000D03*
X101170000Y-94130000D03*
X121560000Y-48610000D03*
X120810000Y-48610000D03*
X122310000Y-48610000D03*
X120060000Y-48610000D03*
X119310000Y-48610000D03*
M02*
