G04 #@! TF.GenerationSoftware,KiCad,Pcbnew,6.0.1-79c1e3a40b~116~ubuntu20.04.1*
G04 #@! TF.CreationDate,2022-01-18T16:31:01+01:00*
G04 #@! TF.ProjectId,10xNano_GPIB,3130784e-616e-46f5-9f47-5049422e6b69,rev?*
G04 #@! TF.SameCoordinates,Original*
G04 #@! TF.FileFunction,Legend,Top*
G04 #@! TF.FilePolarity,Positive*
%FSLAX46Y46*%
G04 Gerber Fmt 4.6, Leading zero omitted, Abs format (unit mm)*
G04 Created by KiCad (PCBNEW 6.0.1-79c1e3a40b~116~ubuntu20.04.1) date 2022-01-18 16:31:01*
%MOMM*%
%LPD*%
G01*
G04 APERTURE LIST*
G04 Aperture macros list*
%AMRoundRect*
0 Rectangle with rounded corners*
0 $1 Rounding radius*
0 $2 $3 $4 $5 $6 $7 $8 $9 X,Y pos of 4 corners*
0 Add a 4 corners polygon primitive as box body*
4,1,4,$2,$3,$4,$5,$6,$7,$8,$9,$2,$3,0*
0 Add four circle primitives for the rounded corners*
1,1,$1+$1,$2,$3*
1,1,$1+$1,$4,$5*
1,1,$1+$1,$6,$7*
1,1,$1+$1,$8,$9*
0 Add four rect primitives between the rounded corners*
20,1,$1+$1,$2,$3,$4,$5,0*
20,1,$1+$1,$4,$5,$6,$7,0*
20,1,$1+$1,$6,$7,$8,$9,0*
20,1,$1+$1,$8,$9,$2,$3,0*%
G04 Aperture macros list end*
%ADD10C,0.200000*%
%ADD11C,0.150000*%
%ADD12C,0.300000*%
%ADD13C,0.400000*%
%ADD14C,0.120000*%
%ADD15C,0.100000*%
%ADD16RoundRect,0.451000X0.600000X-0.400000X0.600000X0.400000X-0.600000X0.400000X-0.600000X-0.400000X0*%
%ADD17O,2.102000X1.702000*%
%ADD18RoundRect,0.051000X0.425000X0.425000X-0.425000X0.425000X-0.425000X-0.425000X0.425000X-0.425000X0*%
%ADD19C,0.602000*%
G04 APERTURE END LIST*
D10*
X117350439Y-101569447D02*
X115930439Y-102989447D01*
X56150439Y-56069447D02*
X54730439Y-57489447D01*
X62890439Y-56189447D02*
X64150439Y-57399447D01*
D11*
X95530439Y-57489447D02*
X96950439Y-56069447D01*
D10*
X76550439Y-56069447D02*
X75130439Y-57489447D01*
D11*
X136330439Y-57489447D02*
X137750439Y-56069447D01*
D10*
X144490439Y-56189447D02*
X145750439Y-57399447D01*
D11*
X75130439Y-57489447D02*
X76550439Y-56069447D01*
D10*
X137750439Y-56069447D02*
X136330439Y-57489447D01*
X56150439Y-101569447D02*
X54730439Y-102989447D01*
D11*
X136330439Y-102989447D02*
X137750439Y-101569447D01*
D10*
X96950439Y-101569447D02*
X95530439Y-102989447D01*
X137750439Y-101569447D02*
X136330439Y-102989447D01*
X124090439Y-101689447D02*
X125350439Y-102899447D01*
X103690439Y-56189447D02*
X104950439Y-57399447D01*
X83290439Y-101689447D02*
X84550439Y-102899447D01*
X83290439Y-56189447D02*
X84550439Y-57399447D01*
X96950439Y-56069447D02*
X95530439Y-57489447D01*
X117350439Y-56069447D02*
X115930439Y-57489447D01*
X124090439Y-56189447D02*
X125350439Y-57399447D01*
D11*
X115930439Y-57489447D02*
X117350439Y-56069447D01*
D10*
X76550439Y-101569447D02*
X75130439Y-102989447D01*
D11*
X54730439Y-57489447D02*
X56150439Y-56069447D01*
D10*
X62890439Y-101689447D02*
X64150439Y-102899447D01*
D11*
X115930439Y-102989447D02*
X117350439Y-101569447D01*
X95530439Y-102989447D02*
X96950439Y-101569447D01*
X54730439Y-102989447D02*
X56150439Y-101569447D01*
D10*
X144490439Y-101689447D02*
X145750439Y-102899447D01*
X103690439Y-101689447D02*
X104950439Y-102899447D01*
D11*
X75130439Y-102989447D02*
X76550439Y-101569447D01*
D12*
X94920439Y-106782304D02*
X94849010Y-106925161D01*
X94849010Y-107139447D01*
X94920439Y-107353732D01*
X95063296Y-107496589D01*
X95206153Y-107568018D01*
X95491867Y-107639447D01*
X95706153Y-107639447D01*
X95991867Y-107568018D01*
X96134724Y-107496589D01*
X96277581Y-107353732D01*
X96349010Y-107139447D01*
X96349010Y-106996589D01*
X96277581Y-106782304D01*
X96206153Y-106710875D01*
X95706153Y-106710875D01*
X95706153Y-106996589D01*
X96349010Y-106068018D02*
X94849010Y-106068018D01*
X96349010Y-105210875D01*
X94849010Y-105210875D01*
X96349010Y-104496589D02*
X94849010Y-104496589D01*
X94849010Y-104139447D01*
X94920439Y-103925161D01*
X95063296Y-103782304D01*
X95206153Y-103710875D01*
X95491867Y-103639447D01*
X95706153Y-103639447D01*
X95991867Y-103710875D01*
X96134724Y-103782304D01*
X96277581Y-103925161D01*
X96349010Y-104139447D01*
X96349010Y-104496589D01*
D13*
X135960439Y-98912780D02*
X137103296Y-98912780D01*
X135731867Y-99655637D02*
X136531867Y-97055637D01*
X137331867Y-99655637D01*
X139503296Y-99655637D02*
X138703296Y-98417542D01*
X138131867Y-99655637D02*
X138131867Y-97055637D01*
X139046153Y-97055637D01*
X139274724Y-97179447D01*
X139389010Y-97303256D01*
X139503296Y-97550875D01*
X139503296Y-97922304D01*
X139389010Y-98169923D01*
X139274724Y-98293732D01*
X139046153Y-98417542D01*
X138131867Y-98417542D01*
X141560439Y-97922304D02*
X141560439Y-99655637D01*
X140989010Y-96931827D02*
X140417581Y-98788970D01*
X141903296Y-98788970D01*
X143160439Y-98169923D02*
X142931867Y-98046113D01*
X142817581Y-97922304D01*
X142703296Y-97674685D01*
X142703296Y-97550875D01*
X142817581Y-97303256D01*
X142931867Y-97179447D01*
X143160439Y-97055637D01*
X143617581Y-97055637D01*
X143846153Y-97179447D01*
X143960439Y-97303256D01*
X144074724Y-97550875D01*
X144074724Y-97674685D01*
X143960439Y-97922304D01*
X143846153Y-98046113D01*
X143617581Y-98169923D01*
X143160439Y-98169923D01*
X142931867Y-98293732D01*
X142817581Y-98417542D01*
X142703296Y-98665161D01*
X142703296Y-99160399D01*
X142817581Y-99408018D01*
X142931867Y-99531827D01*
X143160439Y-99655637D01*
X143617581Y-99655637D01*
X143846153Y-99531827D01*
X143960439Y-99408018D01*
X144074724Y-99160399D01*
X144074724Y-98665161D01*
X143960439Y-98417542D01*
X143846153Y-98293732D01*
X143617581Y-98169923D01*
X145446153Y-98169923D02*
X145217581Y-98046113D01*
X145103296Y-97922304D01*
X144989010Y-97674685D01*
X144989010Y-97550875D01*
X145103296Y-97303256D01*
X145217581Y-97179447D01*
X145446153Y-97055637D01*
X145903296Y-97055637D01*
X146131867Y-97179447D01*
X146246153Y-97303256D01*
X146360439Y-97550875D01*
X146360439Y-97674685D01*
X146246153Y-97922304D01*
X146131867Y-98046113D01*
X145903296Y-98169923D01*
X145446153Y-98169923D01*
X145217581Y-98293732D01*
X145103296Y-98417542D01*
X144989010Y-98665161D01*
X144989010Y-99160399D01*
X145103296Y-99408018D01*
X145217581Y-99531827D01*
X145446153Y-99655637D01*
X145903296Y-99655637D01*
X146131867Y-99531827D01*
X146246153Y-99408018D01*
X146360439Y-99160399D01*
X146360439Y-98665161D01*
X146246153Y-98417542D01*
X146131867Y-98293732D01*
X145903296Y-98169923D01*
X115560439Y-53412780D02*
X116703296Y-53412780D01*
X115331867Y-54155637D02*
X116131867Y-51555637D01*
X116931867Y-54155637D01*
X119103296Y-54155637D02*
X118303296Y-52917542D01*
X117731867Y-54155637D02*
X117731867Y-51555637D01*
X118646153Y-51555637D01*
X118874724Y-51679447D01*
X118989010Y-51803256D01*
X119103296Y-52050875D01*
X119103296Y-52422304D01*
X118989010Y-52669923D01*
X118874724Y-52793732D01*
X118646153Y-52917542D01*
X117731867Y-52917542D01*
X121160439Y-52422304D02*
X121160439Y-54155637D01*
X120589010Y-51431827D02*
X120017581Y-53288970D01*
X121503296Y-53288970D01*
X122760439Y-52669923D02*
X122531867Y-52546113D01*
X122417581Y-52422304D01*
X122303296Y-52174685D01*
X122303296Y-52050875D01*
X122417581Y-51803256D01*
X122531867Y-51679447D01*
X122760439Y-51555637D01*
X123217581Y-51555637D01*
X123446153Y-51679447D01*
X123560439Y-51803256D01*
X123674724Y-52050875D01*
X123674724Y-52174685D01*
X123560439Y-52422304D01*
X123446153Y-52546113D01*
X123217581Y-52669923D01*
X122760439Y-52669923D01*
X122531867Y-52793732D01*
X122417581Y-52917542D01*
X122303296Y-53165161D01*
X122303296Y-53660399D01*
X122417581Y-53908018D01*
X122531867Y-54031827D01*
X122760439Y-54155637D01*
X123217581Y-54155637D01*
X123446153Y-54031827D01*
X123560439Y-53908018D01*
X123674724Y-53660399D01*
X123674724Y-53165161D01*
X123560439Y-52917542D01*
X123446153Y-52793732D01*
X123217581Y-52669923D01*
X125046153Y-52669923D02*
X124817581Y-52546113D01*
X124703296Y-52422304D01*
X124589010Y-52174685D01*
X124589010Y-52050875D01*
X124703296Y-51803256D01*
X124817581Y-51679447D01*
X125046153Y-51555637D01*
X125503296Y-51555637D01*
X125731867Y-51679447D01*
X125846153Y-51803256D01*
X125960439Y-52050875D01*
X125960439Y-52174685D01*
X125846153Y-52422304D01*
X125731867Y-52546113D01*
X125503296Y-52669923D01*
X125046153Y-52669923D01*
X124817581Y-52793732D01*
X124703296Y-52917542D01*
X124589010Y-53165161D01*
X124589010Y-53660399D01*
X124703296Y-53908018D01*
X124817581Y-54031827D01*
X125046153Y-54155637D01*
X125503296Y-54155637D01*
X125731867Y-54031827D01*
X125846153Y-53908018D01*
X125960439Y-53660399D01*
X125960439Y-53165161D01*
X125846153Y-52917542D01*
X125731867Y-52793732D01*
X125503296Y-52669923D01*
D12*
X74520439Y-106782304D02*
X74449010Y-106925161D01*
X74449010Y-107139447D01*
X74520439Y-107353732D01*
X74663296Y-107496589D01*
X74806153Y-107568018D01*
X75091867Y-107639447D01*
X75306153Y-107639447D01*
X75591867Y-107568018D01*
X75734724Y-107496589D01*
X75877581Y-107353732D01*
X75949010Y-107139447D01*
X75949010Y-106996589D01*
X75877581Y-106782304D01*
X75806153Y-106710875D01*
X75306153Y-106710875D01*
X75306153Y-106996589D01*
X75949010Y-106068018D02*
X74449010Y-106068018D01*
X75949010Y-105210875D01*
X74449010Y-105210875D01*
X75949010Y-104496589D02*
X74449010Y-104496589D01*
X74449010Y-104139447D01*
X74520439Y-103925161D01*
X74663296Y-103782304D01*
X74806153Y-103710875D01*
X75091867Y-103639447D01*
X75306153Y-103639447D01*
X75591867Y-103710875D01*
X75734724Y-103782304D01*
X75877581Y-103925161D01*
X75949010Y-104139447D01*
X75949010Y-104496589D01*
X74520439Y-61282304D02*
X74449010Y-61425161D01*
X74449010Y-61639447D01*
X74520439Y-61853732D01*
X74663296Y-61996589D01*
X74806153Y-62068018D01*
X75091867Y-62139447D01*
X75306153Y-62139447D01*
X75591867Y-62068018D01*
X75734724Y-61996589D01*
X75877581Y-61853732D01*
X75949010Y-61639447D01*
X75949010Y-61496589D01*
X75877581Y-61282304D01*
X75806153Y-61210875D01*
X75306153Y-61210875D01*
X75306153Y-61496589D01*
X75949010Y-60568018D02*
X74449010Y-60568018D01*
X75949010Y-59710875D01*
X74449010Y-59710875D01*
X75949010Y-58996589D02*
X74449010Y-58996589D01*
X74449010Y-58639447D01*
X74520439Y-58425161D01*
X74663296Y-58282304D01*
X74806153Y-58210875D01*
X75091867Y-58139447D01*
X75306153Y-58139447D01*
X75591867Y-58210875D01*
X75734724Y-58282304D01*
X75877581Y-58425161D01*
X75949010Y-58639447D01*
X75949010Y-58996589D01*
X115320439Y-106782304D02*
X115249010Y-106925161D01*
X115249010Y-107139447D01*
X115320439Y-107353732D01*
X115463296Y-107496589D01*
X115606153Y-107568018D01*
X115891867Y-107639447D01*
X116106153Y-107639447D01*
X116391867Y-107568018D01*
X116534724Y-107496589D01*
X116677581Y-107353732D01*
X116749010Y-107139447D01*
X116749010Y-106996589D01*
X116677581Y-106782304D01*
X116606153Y-106710875D01*
X116106153Y-106710875D01*
X116106153Y-106996589D01*
X116749010Y-106068018D02*
X115249010Y-106068018D01*
X116749010Y-105210875D01*
X115249010Y-105210875D01*
X116749010Y-104496589D02*
X115249010Y-104496589D01*
X115249010Y-104139447D01*
X115320439Y-103925161D01*
X115463296Y-103782304D01*
X115606153Y-103710875D01*
X115891867Y-103639447D01*
X116106153Y-103639447D01*
X116391867Y-103710875D01*
X116534724Y-103782304D01*
X116677581Y-103925161D01*
X116749010Y-104139447D01*
X116749010Y-104496589D01*
X76469142Y-129598428D02*
X76469142Y-130931761D01*
X76469142Y-129788904D02*
X76564380Y-129693666D01*
X76754857Y-129598428D01*
X77040571Y-129598428D01*
X77231047Y-129693666D01*
X77326285Y-129884142D01*
X77326285Y-130931761D01*
X79135809Y-130931761D02*
X79135809Y-129884142D01*
X79040571Y-129693666D01*
X78850095Y-129598428D01*
X78469142Y-129598428D01*
X78278666Y-129693666D01*
X79135809Y-130836523D02*
X78945333Y-130931761D01*
X78469142Y-130931761D01*
X78278666Y-130836523D01*
X78183428Y-130646047D01*
X78183428Y-130455571D01*
X78278666Y-130265095D01*
X78469142Y-130169857D01*
X78945333Y-130169857D01*
X79135809Y-130074619D01*
X80088190Y-129598428D02*
X80088190Y-130931761D01*
X80088190Y-129788904D02*
X80183428Y-129693666D01*
X80373904Y-129598428D01*
X80659619Y-129598428D01*
X80850095Y-129693666D01*
X80945333Y-129884142D01*
X80945333Y-130931761D01*
X82183428Y-130931761D02*
X81992952Y-130836523D01*
X81897714Y-130741285D01*
X81802476Y-130550809D01*
X81802476Y-129979380D01*
X81897714Y-129788904D01*
X81992952Y-129693666D01*
X82183428Y-129598428D01*
X82469142Y-129598428D01*
X82659619Y-129693666D01*
X82754857Y-129788904D01*
X82850095Y-129979380D01*
X82850095Y-130550809D01*
X82754857Y-130741285D01*
X82659619Y-130836523D01*
X82469142Y-130931761D01*
X82183428Y-130931761D01*
X137669142Y-84098428D02*
X137669142Y-85431761D01*
X137669142Y-84288904D02*
X137764380Y-84193666D01*
X137954857Y-84098428D01*
X138240571Y-84098428D01*
X138431047Y-84193666D01*
X138526285Y-84384142D01*
X138526285Y-85431761D01*
X140335809Y-85431761D02*
X140335809Y-84384142D01*
X140240571Y-84193666D01*
X140050095Y-84098428D01*
X139669142Y-84098428D01*
X139478666Y-84193666D01*
X140335809Y-85336523D02*
X140145333Y-85431761D01*
X139669142Y-85431761D01*
X139478666Y-85336523D01*
X139383428Y-85146047D01*
X139383428Y-84955571D01*
X139478666Y-84765095D01*
X139669142Y-84669857D01*
X140145333Y-84669857D01*
X140335809Y-84574619D01*
X141288190Y-84098428D02*
X141288190Y-85431761D01*
X141288190Y-84288904D02*
X141383428Y-84193666D01*
X141573904Y-84098428D01*
X141859619Y-84098428D01*
X142050095Y-84193666D01*
X142145333Y-84384142D01*
X142145333Y-85431761D01*
X143383428Y-85431761D02*
X143192952Y-85336523D01*
X143097714Y-85241285D01*
X143002476Y-85050809D01*
X143002476Y-84479380D01*
X143097714Y-84288904D01*
X143192952Y-84193666D01*
X143383428Y-84098428D01*
X143669142Y-84098428D01*
X143859619Y-84193666D01*
X143954857Y-84288904D01*
X144050095Y-84479380D01*
X144050095Y-85050809D01*
X143954857Y-85241285D01*
X143859619Y-85336523D01*
X143669142Y-85431761D01*
X143383428Y-85431761D01*
X76469142Y-84098428D02*
X76469142Y-85431761D01*
X76469142Y-84288904D02*
X76564380Y-84193666D01*
X76754857Y-84098428D01*
X77040571Y-84098428D01*
X77231047Y-84193666D01*
X77326285Y-84384142D01*
X77326285Y-85431761D01*
X79135809Y-85431761D02*
X79135809Y-84384142D01*
X79040571Y-84193666D01*
X78850095Y-84098428D01*
X78469142Y-84098428D01*
X78278666Y-84193666D01*
X79135809Y-85336523D02*
X78945333Y-85431761D01*
X78469142Y-85431761D01*
X78278666Y-85336523D01*
X78183428Y-85146047D01*
X78183428Y-84955571D01*
X78278666Y-84765095D01*
X78469142Y-84669857D01*
X78945333Y-84669857D01*
X79135809Y-84574619D01*
X80088190Y-84098428D02*
X80088190Y-85431761D01*
X80088190Y-84288904D02*
X80183428Y-84193666D01*
X80373904Y-84098428D01*
X80659619Y-84098428D01*
X80850095Y-84193666D01*
X80945333Y-84384142D01*
X80945333Y-85431761D01*
X82183428Y-85431761D02*
X81992952Y-85336523D01*
X81897714Y-85241285D01*
X81802476Y-85050809D01*
X81802476Y-84479380D01*
X81897714Y-84288904D01*
X81992952Y-84193666D01*
X82183428Y-84098428D01*
X82469142Y-84098428D01*
X82659619Y-84193666D01*
X82754857Y-84288904D01*
X82850095Y-84479380D01*
X82850095Y-85050809D01*
X82754857Y-85241285D01*
X82659619Y-85336523D01*
X82469142Y-85431761D01*
X82183428Y-85431761D01*
X96869142Y-129598428D02*
X96869142Y-130931761D01*
X96869142Y-129788904D02*
X96964380Y-129693666D01*
X97154857Y-129598428D01*
X97440571Y-129598428D01*
X97631047Y-129693666D01*
X97726285Y-129884142D01*
X97726285Y-130931761D01*
X99535809Y-130931761D02*
X99535809Y-129884142D01*
X99440571Y-129693666D01*
X99250095Y-129598428D01*
X98869142Y-129598428D01*
X98678666Y-129693666D01*
X99535809Y-130836523D02*
X99345333Y-130931761D01*
X98869142Y-130931761D01*
X98678666Y-130836523D01*
X98583428Y-130646047D01*
X98583428Y-130455571D01*
X98678666Y-130265095D01*
X98869142Y-130169857D01*
X99345333Y-130169857D01*
X99535809Y-130074619D01*
X100488190Y-129598428D02*
X100488190Y-130931761D01*
X100488190Y-129788904D02*
X100583428Y-129693666D01*
X100773904Y-129598428D01*
X101059619Y-129598428D01*
X101250095Y-129693666D01*
X101345333Y-129884142D01*
X101345333Y-130931761D01*
X102583428Y-130931761D02*
X102392952Y-130836523D01*
X102297714Y-130741285D01*
X102202476Y-130550809D01*
X102202476Y-129979380D01*
X102297714Y-129788904D01*
X102392952Y-129693666D01*
X102583428Y-129598428D01*
X102869142Y-129598428D01*
X103059619Y-129693666D01*
X103154857Y-129788904D01*
X103250095Y-129979380D01*
X103250095Y-130550809D01*
X103154857Y-130741285D01*
X103059619Y-130836523D01*
X102869142Y-130931761D01*
X102583428Y-130931761D01*
D13*
X54360439Y-98912780D02*
X55503296Y-98912780D01*
X54131867Y-99655637D02*
X54931867Y-97055637D01*
X55731867Y-99655637D01*
X57903296Y-99655637D02*
X57103296Y-98417542D01*
X56531867Y-99655637D02*
X56531867Y-97055637D01*
X57446153Y-97055637D01*
X57674724Y-97179447D01*
X57789010Y-97303256D01*
X57903296Y-97550875D01*
X57903296Y-97922304D01*
X57789010Y-98169923D01*
X57674724Y-98293732D01*
X57446153Y-98417542D01*
X56531867Y-98417542D01*
X59960439Y-97922304D02*
X59960439Y-99655637D01*
X59389010Y-96931827D02*
X58817581Y-98788970D01*
X60303296Y-98788970D01*
X61560439Y-98169923D02*
X61331867Y-98046113D01*
X61217581Y-97922304D01*
X61103296Y-97674685D01*
X61103296Y-97550875D01*
X61217581Y-97303256D01*
X61331867Y-97179447D01*
X61560439Y-97055637D01*
X62017581Y-97055637D01*
X62246153Y-97179447D01*
X62360439Y-97303256D01*
X62474724Y-97550875D01*
X62474724Y-97674685D01*
X62360439Y-97922304D01*
X62246153Y-98046113D01*
X62017581Y-98169923D01*
X61560439Y-98169923D01*
X61331867Y-98293732D01*
X61217581Y-98417542D01*
X61103296Y-98665161D01*
X61103296Y-99160399D01*
X61217581Y-99408018D01*
X61331867Y-99531827D01*
X61560439Y-99655637D01*
X62017581Y-99655637D01*
X62246153Y-99531827D01*
X62360439Y-99408018D01*
X62474724Y-99160399D01*
X62474724Y-98665161D01*
X62360439Y-98417542D01*
X62246153Y-98293732D01*
X62017581Y-98169923D01*
X63846153Y-98169923D02*
X63617581Y-98046113D01*
X63503296Y-97922304D01*
X63389010Y-97674685D01*
X63389010Y-97550875D01*
X63503296Y-97303256D01*
X63617581Y-97179447D01*
X63846153Y-97055637D01*
X64303296Y-97055637D01*
X64531867Y-97179447D01*
X64646153Y-97303256D01*
X64760439Y-97550875D01*
X64760439Y-97674685D01*
X64646153Y-97922304D01*
X64531867Y-98046113D01*
X64303296Y-98169923D01*
X63846153Y-98169923D01*
X63617581Y-98293732D01*
X63503296Y-98417542D01*
X63389010Y-98665161D01*
X63389010Y-99160399D01*
X63503296Y-99408018D01*
X63617581Y-99531827D01*
X63846153Y-99655637D01*
X64303296Y-99655637D01*
X64531867Y-99531827D01*
X64646153Y-99408018D01*
X64760439Y-99160399D01*
X64760439Y-98665161D01*
X64646153Y-98417542D01*
X64531867Y-98293732D01*
X64303296Y-98169923D01*
D12*
X54120439Y-61282304D02*
X54049010Y-61425161D01*
X54049010Y-61639447D01*
X54120439Y-61853732D01*
X54263296Y-61996589D01*
X54406153Y-62068018D01*
X54691867Y-62139447D01*
X54906153Y-62139447D01*
X55191867Y-62068018D01*
X55334724Y-61996589D01*
X55477581Y-61853732D01*
X55549010Y-61639447D01*
X55549010Y-61496589D01*
X55477581Y-61282304D01*
X55406153Y-61210875D01*
X54906153Y-61210875D01*
X54906153Y-61496589D01*
X55549010Y-60568018D02*
X54049010Y-60568018D01*
X55549010Y-59710875D01*
X54049010Y-59710875D01*
X55549010Y-58996589D02*
X54049010Y-58996589D01*
X54049010Y-58639447D01*
X54120439Y-58425161D01*
X54263296Y-58282304D01*
X54406153Y-58210875D01*
X54691867Y-58139447D01*
X54906153Y-58139447D01*
X55191867Y-58210875D01*
X55334724Y-58282304D01*
X55477581Y-58425161D01*
X55549010Y-58639447D01*
X55549010Y-58996589D01*
D13*
X95160439Y-53412780D02*
X96303296Y-53412780D01*
X94931867Y-54155637D02*
X95731867Y-51555637D01*
X96531867Y-54155637D01*
X98703296Y-54155637D02*
X97903296Y-52917542D01*
X97331867Y-54155637D02*
X97331867Y-51555637D01*
X98246153Y-51555637D01*
X98474724Y-51679447D01*
X98589010Y-51803256D01*
X98703296Y-52050875D01*
X98703296Y-52422304D01*
X98589010Y-52669923D01*
X98474724Y-52793732D01*
X98246153Y-52917542D01*
X97331867Y-52917542D01*
X100760439Y-52422304D02*
X100760439Y-54155637D01*
X100189010Y-51431827D02*
X99617581Y-53288970D01*
X101103296Y-53288970D01*
X102360439Y-52669923D02*
X102131867Y-52546113D01*
X102017581Y-52422304D01*
X101903296Y-52174685D01*
X101903296Y-52050875D01*
X102017581Y-51803256D01*
X102131867Y-51679447D01*
X102360439Y-51555637D01*
X102817581Y-51555637D01*
X103046153Y-51679447D01*
X103160439Y-51803256D01*
X103274724Y-52050875D01*
X103274724Y-52174685D01*
X103160439Y-52422304D01*
X103046153Y-52546113D01*
X102817581Y-52669923D01*
X102360439Y-52669923D01*
X102131867Y-52793732D01*
X102017581Y-52917542D01*
X101903296Y-53165161D01*
X101903296Y-53660399D01*
X102017581Y-53908018D01*
X102131867Y-54031827D01*
X102360439Y-54155637D01*
X102817581Y-54155637D01*
X103046153Y-54031827D01*
X103160439Y-53908018D01*
X103274724Y-53660399D01*
X103274724Y-53165161D01*
X103160439Y-52917542D01*
X103046153Y-52793732D01*
X102817581Y-52669923D01*
X104646153Y-52669923D02*
X104417581Y-52546113D01*
X104303296Y-52422304D01*
X104189010Y-52174685D01*
X104189010Y-52050875D01*
X104303296Y-51803256D01*
X104417581Y-51679447D01*
X104646153Y-51555637D01*
X105103296Y-51555637D01*
X105331867Y-51679447D01*
X105446153Y-51803256D01*
X105560439Y-52050875D01*
X105560439Y-52174685D01*
X105446153Y-52422304D01*
X105331867Y-52546113D01*
X105103296Y-52669923D01*
X104646153Y-52669923D01*
X104417581Y-52793732D01*
X104303296Y-52917542D01*
X104189010Y-53165161D01*
X104189010Y-53660399D01*
X104303296Y-53908018D01*
X104417581Y-54031827D01*
X104646153Y-54155637D01*
X105103296Y-54155637D01*
X105331867Y-54031827D01*
X105446153Y-53908018D01*
X105560439Y-53660399D01*
X105560439Y-53165161D01*
X105446153Y-52917542D01*
X105331867Y-52793732D01*
X105103296Y-52669923D01*
D12*
X126337581Y-110616589D02*
X126409010Y-110402304D01*
X126409010Y-110045161D01*
X126337581Y-109902304D01*
X126266153Y-109830875D01*
X126123296Y-109759447D01*
X125980439Y-109759447D01*
X125837581Y-109830875D01*
X125766153Y-109902304D01*
X125694724Y-110045161D01*
X125623296Y-110330875D01*
X125551867Y-110473732D01*
X125480439Y-110545161D01*
X125337581Y-110616589D01*
X125194724Y-110616589D01*
X125051867Y-110545161D01*
X124980439Y-110473732D01*
X124909010Y-110330875D01*
X124909010Y-109973732D01*
X124980439Y-109759447D01*
X126409010Y-109116589D02*
X124909010Y-109116589D01*
X125623296Y-109116589D02*
X125623296Y-108259447D01*
X126409010Y-108259447D02*
X124909010Y-108259447D01*
X126409010Y-107545161D02*
X124909010Y-107545161D01*
X125623296Y-106830875D02*
X125623296Y-106330875D01*
X126409010Y-106116589D02*
X126409010Y-106830875D01*
X124909010Y-106830875D01*
X124909010Y-106116589D01*
X126409010Y-104759447D02*
X126409010Y-105473732D01*
X124909010Y-105473732D01*
X126409010Y-104259447D02*
X124909010Y-104259447D01*
X124909010Y-103902304D01*
X124980439Y-103688018D01*
X125123296Y-103545161D01*
X125266153Y-103473732D01*
X125551867Y-103402304D01*
X125766153Y-103402304D01*
X126051867Y-103473732D01*
X126194724Y-103545161D01*
X126337581Y-103688018D01*
X126409010Y-103902304D01*
X126409010Y-104259447D01*
X146737581Y-65116589D02*
X146809010Y-64902304D01*
X146809010Y-64545161D01*
X146737581Y-64402304D01*
X146666153Y-64330875D01*
X146523296Y-64259447D01*
X146380439Y-64259447D01*
X146237581Y-64330875D01*
X146166153Y-64402304D01*
X146094724Y-64545161D01*
X146023296Y-64830875D01*
X145951867Y-64973732D01*
X145880439Y-65045161D01*
X145737581Y-65116589D01*
X145594724Y-65116589D01*
X145451867Y-65045161D01*
X145380439Y-64973732D01*
X145309010Y-64830875D01*
X145309010Y-64473732D01*
X145380439Y-64259447D01*
X146809010Y-63616589D02*
X145309010Y-63616589D01*
X146023296Y-63616589D02*
X146023296Y-62759447D01*
X146809010Y-62759447D02*
X145309010Y-62759447D01*
X146809010Y-62045161D02*
X145309010Y-62045161D01*
X146023296Y-61330875D02*
X146023296Y-60830875D01*
X146809010Y-60616589D02*
X146809010Y-61330875D01*
X145309010Y-61330875D01*
X145309010Y-60616589D01*
X146809010Y-59259447D02*
X146809010Y-59973732D01*
X145309010Y-59973732D01*
X146809010Y-58759447D02*
X145309010Y-58759447D01*
X145309010Y-58402304D01*
X145380439Y-58188018D01*
X145523296Y-58045161D01*
X145666153Y-57973732D01*
X145951867Y-57902304D01*
X146166153Y-57902304D01*
X146451867Y-57973732D01*
X146594724Y-58045161D01*
X146737581Y-58188018D01*
X146809010Y-58402304D01*
X146809010Y-58759447D01*
X115320439Y-61282304D02*
X115249010Y-61425161D01*
X115249010Y-61639447D01*
X115320439Y-61853732D01*
X115463296Y-61996589D01*
X115606153Y-62068018D01*
X115891867Y-62139447D01*
X116106153Y-62139447D01*
X116391867Y-62068018D01*
X116534724Y-61996589D01*
X116677581Y-61853732D01*
X116749010Y-61639447D01*
X116749010Y-61496589D01*
X116677581Y-61282304D01*
X116606153Y-61210875D01*
X116106153Y-61210875D01*
X116106153Y-61496589D01*
X116749010Y-60568018D02*
X115249010Y-60568018D01*
X116749010Y-59710875D01*
X115249010Y-59710875D01*
X116749010Y-58996589D02*
X115249010Y-58996589D01*
X115249010Y-58639447D01*
X115320439Y-58425161D01*
X115463296Y-58282304D01*
X115606153Y-58210875D01*
X115891867Y-58139447D01*
X116106153Y-58139447D01*
X116391867Y-58210875D01*
X116534724Y-58282304D01*
X116677581Y-58425161D01*
X116749010Y-58639447D01*
X116749010Y-58996589D01*
D13*
X74760439Y-53412780D02*
X75903296Y-53412780D01*
X74531867Y-54155637D02*
X75331867Y-51555637D01*
X76131867Y-54155637D01*
X78303296Y-54155637D02*
X77503296Y-52917542D01*
X76931867Y-54155637D02*
X76931867Y-51555637D01*
X77846153Y-51555637D01*
X78074724Y-51679447D01*
X78189010Y-51803256D01*
X78303296Y-52050875D01*
X78303296Y-52422304D01*
X78189010Y-52669923D01*
X78074724Y-52793732D01*
X77846153Y-52917542D01*
X76931867Y-52917542D01*
X80360439Y-52422304D02*
X80360439Y-54155637D01*
X79789010Y-51431827D02*
X79217581Y-53288970D01*
X80703296Y-53288970D01*
X81960439Y-52669923D02*
X81731867Y-52546113D01*
X81617581Y-52422304D01*
X81503296Y-52174685D01*
X81503296Y-52050875D01*
X81617581Y-51803256D01*
X81731867Y-51679447D01*
X81960439Y-51555637D01*
X82417581Y-51555637D01*
X82646153Y-51679447D01*
X82760439Y-51803256D01*
X82874724Y-52050875D01*
X82874724Y-52174685D01*
X82760439Y-52422304D01*
X82646153Y-52546113D01*
X82417581Y-52669923D01*
X81960439Y-52669923D01*
X81731867Y-52793732D01*
X81617581Y-52917542D01*
X81503296Y-53165161D01*
X81503296Y-53660399D01*
X81617581Y-53908018D01*
X81731867Y-54031827D01*
X81960439Y-54155637D01*
X82417581Y-54155637D01*
X82646153Y-54031827D01*
X82760439Y-53908018D01*
X82874724Y-53660399D01*
X82874724Y-53165161D01*
X82760439Y-52917542D01*
X82646153Y-52793732D01*
X82417581Y-52669923D01*
X84246153Y-52669923D02*
X84017581Y-52546113D01*
X83903296Y-52422304D01*
X83789010Y-52174685D01*
X83789010Y-52050875D01*
X83903296Y-51803256D01*
X84017581Y-51679447D01*
X84246153Y-51555637D01*
X84703296Y-51555637D01*
X84931867Y-51679447D01*
X85046153Y-51803256D01*
X85160439Y-52050875D01*
X85160439Y-52174685D01*
X85046153Y-52422304D01*
X84931867Y-52546113D01*
X84703296Y-52669923D01*
X84246153Y-52669923D01*
X84017581Y-52793732D01*
X83903296Y-52917542D01*
X83789010Y-53165161D01*
X83789010Y-53660399D01*
X83903296Y-53908018D01*
X84017581Y-54031827D01*
X84246153Y-54155637D01*
X84703296Y-54155637D01*
X84931867Y-54031827D01*
X85046153Y-53908018D01*
X85160439Y-53660399D01*
X85160439Y-53165161D01*
X85046153Y-52917542D01*
X84931867Y-52793732D01*
X84703296Y-52669923D01*
D12*
X56069142Y-129598428D02*
X56069142Y-130931761D01*
X56069142Y-129788904D02*
X56164380Y-129693666D01*
X56354857Y-129598428D01*
X56640571Y-129598428D01*
X56831047Y-129693666D01*
X56926285Y-129884142D01*
X56926285Y-130931761D01*
X58735809Y-130931761D02*
X58735809Y-129884142D01*
X58640571Y-129693666D01*
X58450095Y-129598428D01*
X58069142Y-129598428D01*
X57878666Y-129693666D01*
X58735809Y-130836523D02*
X58545333Y-130931761D01*
X58069142Y-130931761D01*
X57878666Y-130836523D01*
X57783428Y-130646047D01*
X57783428Y-130455571D01*
X57878666Y-130265095D01*
X58069142Y-130169857D01*
X58545333Y-130169857D01*
X58735809Y-130074619D01*
X59688190Y-129598428D02*
X59688190Y-130931761D01*
X59688190Y-129788904D02*
X59783428Y-129693666D01*
X59973904Y-129598428D01*
X60259619Y-129598428D01*
X60450095Y-129693666D01*
X60545333Y-129884142D01*
X60545333Y-130931761D01*
X61783428Y-130931761D02*
X61592952Y-130836523D01*
X61497714Y-130741285D01*
X61402476Y-130550809D01*
X61402476Y-129979380D01*
X61497714Y-129788904D01*
X61592952Y-129693666D01*
X61783428Y-129598428D01*
X62069142Y-129598428D01*
X62259619Y-129693666D01*
X62354857Y-129788904D01*
X62450095Y-129979380D01*
X62450095Y-130550809D01*
X62354857Y-130741285D01*
X62259619Y-130836523D01*
X62069142Y-130931761D01*
X61783428Y-130931761D01*
D13*
X74760439Y-98912780D02*
X75903296Y-98912780D01*
X74531867Y-99655637D02*
X75331867Y-97055637D01*
X76131867Y-99655637D01*
X78303296Y-99655637D02*
X77503296Y-98417542D01*
X76931867Y-99655637D02*
X76931867Y-97055637D01*
X77846153Y-97055637D01*
X78074724Y-97179447D01*
X78189010Y-97303256D01*
X78303296Y-97550875D01*
X78303296Y-97922304D01*
X78189010Y-98169923D01*
X78074724Y-98293732D01*
X77846153Y-98417542D01*
X76931867Y-98417542D01*
X80360439Y-97922304D02*
X80360439Y-99655637D01*
X79789010Y-96931827D02*
X79217581Y-98788970D01*
X80703296Y-98788970D01*
X81960439Y-98169923D02*
X81731867Y-98046113D01*
X81617581Y-97922304D01*
X81503296Y-97674685D01*
X81503296Y-97550875D01*
X81617581Y-97303256D01*
X81731867Y-97179447D01*
X81960439Y-97055637D01*
X82417581Y-97055637D01*
X82646153Y-97179447D01*
X82760439Y-97303256D01*
X82874724Y-97550875D01*
X82874724Y-97674685D01*
X82760439Y-97922304D01*
X82646153Y-98046113D01*
X82417581Y-98169923D01*
X81960439Y-98169923D01*
X81731867Y-98293732D01*
X81617581Y-98417542D01*
X81503296Y-98665161D01*
X81503296Y-99160399D01*
X81617581Y-99408018D01*
X81731867Y-99531827D01*
X81960439Y-99655637D01*
X82417581Y-99655637D01*
X82646153Y-99531827D01*
X82760439Y-99408018D01*
X82874724Y-99160399D01*
X82874724Y-98665161D01*
X82760439Y-98417542D01*
X82646153Y-98293732D01*
X82417581Y-98169923D01*
X84246153Y-98169923D02*
X84017581Y-98046113D01*
X83903296Y-97922304D01*
X83789010Y-97674685D01*
X83789010Y-97550875D01*
X83903296Y-97303256D01*
X84017581Y-97179447D01*
X84246153Y-97055637D01*
X84703296Y-97055637D01*
X84931867Y-97179447D01*
X85046153Y-97303256D01*
X85160439Y-97550875D01*
X85160439Y-97674685D01*
X85046153Y-97922304D01*
X84931867Y-98046113D01*
X84703296Y-98169923D01*
X84246153Y-98169923D01*
X84017581Y-98293732D01*
X83903296Y-98417542D01*
X83789010Y-98665161D01*
X83789010Y-99160399D01*
X83903296Y-99408018D01*
X84017581Y-99531827D01*
X84246153Y-99655637D01*
X84703296Y-99655637D01*
X84931867Y-99531827D01*
X85046153Y-99408018D01*
X85160439Y-99160399D01*
X85160439Y-98665161D01*
X85046153Y-98417542D01*
X84931867Y-98293732D01*
X84703296Y-98169923D01*
D12*
X135720439Y-61282304D02*
X135649010Y-61425161D01*
X135649010Y-61639447D01*
X135720439Y-61853732D01*
X135863296Y-61996589D01*
X136006153Y-62068018D01*
X136291867Y-62139447D01*
X136506153Y-62139447D01*
X136791867Y-62068018D01*
X136934724Y-61996589D01*
X137077581Y-61853732D01*
X137149010Y-61639447D01*
X137149010Y-61496589D01*
X137077581Y-61282304D01*
X137006153Y-61210875D01*
X136506153Y-61210875D01*
X136506153Y-61496589D01*
X137149010Y-60568018D02*
X135649010Y-60568018D01*
X137149010Y-59710875D01*
X135649010Y-59710875D01*
X137149010Y-58996589D02*
X135649010Y-58996589D01*
X135649010Y-58639447D01*
X135720439Y-58425161D01*
X135863296Y-58282304D01*
X136006153Y-58210875D01*
X136291867Y-58139447D01*
X136506153Y-58139447D01*
X136791867Y-58210875D01*
X136934724Y-58282304D01*
X137077581Y-58425161D01*
X137149010Y-58639447D01*
X137149010Y-58996589D01*
X137669142Y-129598428D02*
X137669142Y-130931761D01*
X137669142Y-129788904D02*
X137764380Y-129693666D01*
X137954857Y-129598428D01*
X138240571Y-129598428D01*
X138431047Y-129693666D01*
X138526285Y-129884142D01*
X138526285Y-130931761D01*
X140335809Y-130931761D02*
X140335809Y-129884142D01*
X140240571Y-129693666D01*
X140050095Y-129598428D01*
X139669142Y-129598428D01*
X139478666Y-129693666D01*
X140335809Y-130836523D02*
X140145333Y-130931761D01*
X139669142Y-130931761D01*
X139478666Y-130836523D01*
X139383428Y-130646047D01*
X139383428Y-130455571D01*
X139478666Y-130265095D01*
X139669142Y-130169857D01*
X140145333Y-130169857D01*
X140335809Y-130074619D01*
X141288190Y-129598428D02*
X141288190Y-130931761D01*
X141288190Y-129788904D02*
X141383428Y-129693666D01*
X141573904Y-129598428D01*
X141859619Y-129598428D01*
X142050095Y-129693666D01*
X142145333Y-129884142D01*
X142145333Y-130931761D01*
X143383428Y-130931761D02*
X143192952Y-130836523D01*
X143097714Y-130741285D01*
X143002476Y-130550809D01*
X143002476Y-129979380D01*
X143097714Y-129788904D01*
X143192952Y-129693666D01*
X143383428Y-129598428D01*
X143669142Y-129598428D01*
X143859619Y-129693666D01*
X143954857Y-129788904D01*
X144050095Y-129979380D01*
X144050095Y-130550809D01*
X143954857Y-130741285D01*
X143859619Y-130836523D01*
X143669142Y-130931761D01*
X143383428Y-130931761D01*
X96869142Y-84098428D02*
X96869142Y-85431761D01*
X96869142Y-84288904D02*
X96964380Y-84193666D01*
X97154857Y-84098428D01*
X97440571Y-84098428D01*
X97631047Y-84193666D01*
X97726285Y-84384142D01*
X97726285Y-85431761D01*
X99535809Y-85431761D02*
X99535809Y-84384142D01*
X99440571Y-84193666D01*
X99250095Y-84098428D01*
X98869142Y-84098428D01*
X98678666Y-84193666D01*
X99535809Y-85336523D02*
X99345333Y-85431761D01*
X98869142Y-85431761D01*
X98678666Y-85336523D01*
X98583428Y-85146047D01*
X98583428Y-84955571D01*
X98678666Y-84765095D01*
X98869142Y-84669857D01*
X99345333Y-84669857D01*
X99535809Y-84574619D01*
X100488190Y-84098428D02*
X100488190Y-85431761D01*
X100488190Y-84288904D02*
X100583428Y-84193666D01*
X100773904Y-84098428D01*
X101059619Y-84098428D01*
X101250095Y-84193666D01*
X101345333Y-84384142D01*
X101345333Y-85431761D01*
X102583428Y-85431761D02*
X102392952Y-85336523D01*
X102297714Y-85241285D01*
X102202476Y-85050809D01*
X102202476Y-84479380D01*
X102297714Y-84288904D01*
X102392952Y-84193666D01*
X102583428Y-84098428D01*
X102869142Y-84098428D01*
X103059619Y-84193666D01*
X103154857Y-84288904D01*
X103250095Y-84479380D01*
X103250095Y-85050809D01*
X103154857Y-85241285D01*
X103059619Y-85336523D01*
X102869142Y-85431761D01*
X102583428Y-85431761D01*
X117269142Y-84098428D02*
X117269142Y-85431761D01*
X117269142Y-84288904D02*
X117364380Y-84193666D01*
X117554857Y-84098428D01*
X117840571Y-84098428D01*
X118031047Y-84193666D01*
X118126285Y-84384142D01*
X118126285Y-85431761D01*
X119935809Y-85431761D02*
X119935809Y-84384142D01*
X119840571Y-84193666D01*
X119650095Y-84098428D01*
X119269142Y-84098428D01*
X119078666Y-84193666D01*
X119935809Y-85336523D02*
X119745333Y-85431761D01*
X119269142Y-85431761D01*
X119078666Y-85336523D01*
X118983428Y-85146047D01*
X118983428Y-84955571D01*
X119078666Y-84765095D01*
X119269142Y-84669857D01*
X119745333Y-84669857D01*
X119935809Y-84574619D01*
X120888190Y-84098428D02*
X120888190Y-85431761D01*
X120888190Y-84288904D02*
X120983428Y-84193666D01*
X121173904Y-84098428D01*
X121459619Y-84098428D01*
X121650095Y-84193666D01*
X121745333Y-84384142D01*
X121745333Y-85431761D01*
X122983428Y-85431761D02*
X122792952Y-85336523D01*
X122697714Y-85241285D01*
X122602476Y-85050809D01*
X122602476Y-84479380D01*
X122697714Y-84288904D01*
X122792952Y-84193666D01*
X122983428Y-84098428D01*
X123269142Y-84098428D01*
X123459619Y-84193666D01*
X123554857Y-84288904D01*
X123650095Y-84479380D01*
X123650095Y-85050809D01*
X123554857Y-85241285D01*
X123459619Y-85336523D01*
X123269142Y-85431761D01*
X122983428Y-85431761D01*
X65137581Y-110616589D02*
X65209010Y-110402304D01*
X65209010Y-110045161D01*
X65137581Y-109902304D01*
X65066153Y-109830875D01*
X64923296Y-109759447D01*
X64780439Y-109759447D01*
X64637581Y-109830875D01*
X64566153Y-109902304D01*
X64494724Y-110045161D01*
X64423296Y-110330875D01*
X64351867Y-110473732D01*
X64280439Y-110545161D01*
X64137581Y-110616589D01*
X63994724Y-110616589D01*
X63851867Y-110545161D01*
X63780439Y-110473732D01*
X63709010Y-110330875D01*
X63709010Y-109973732D01*
X63780439Y-109759447D01*
X65209010Y-109116589D02*
X63709010Y-109116589D01*
X64423296Y-109116589D02*
X64423296Y-108259447D01*
X65209010Y-108259447D02*
X63709010Y-108259447D01*
X65209010Y-107545161D02*
X63709010Y-107545161D01*
X64423296Y-106830875D02*
X64423296Y-106330875D01*
X65209010Y-106116589D02*
X65209010Y-106830875D01*
X63709010Y-106830875D01*
X63709010Y-106116589D01*
X65209010Y-104759447D02*
X65209010Y-105473732D01*
X63709010Y-105473732D01*
X65209010Y-104259447D02*
X63709010Y-104259447D01*
X63709010Y-103902304D01*
X63780439Y-103688018D01*
X63923296Y-103545161D01*
X64066153Y-103473732D01*
X64351867Y-103402304D01*
X64566153Y-103402304D01*
X64851867Y-103473732D01*
X64994724Y-103545161D01*
X65137581Y-103688018D01*
X65209010Y-103902304D01*
X65209010Y-104259447D01*
X117269142Y-129598428D02*
X117269142Y-130931761D01*
X117269142Y-129788904D02*
X117364380Y-129693666D01*
X117554857Y-129598428D01*
X117840571Y-129598428D01*
X118031047Y-129693666D01*
X118126285Y-129884142D01*
X118126285Y-130931761D01*
X119935809Y-130931761D02*
X119935809Y-129884142D01*
X119840571Y-129693666D01*
X119650095Y-129598428D01*
X119269142Y-129598428D01*
X119078666Y-129693666D01*
X119935809Y-130836523D02*
X119745333Y-130931761D01*
X119269142Y-130931761D01*
X119078666Y-130836523D01*
X118983428Y-130646047D01*
X118983428Y-130455571D01*
X119078666Y-130265095D01*
X119269142Y-130169857D01*
X119745333Y-130169857D01*
X119935809Y-130074619D01*
X120888190Y-129598428D02*
X120888190Y-130931761D01*
X120888190Y-129788904D02*
X120983428Y-129693666D01*
X121173904Y-129598428D01*
X121459619Y-129598428D01*
X121650095Y-129693666D01*
X121745333Y-129884142D01*
X121745333Y-130931761D01*
X122983428Y-130931761D02*
X122792952Y-130836523D01*
X122697714Y-130741285D01*
X122602476Y-130550809D01*
X122602476Y-129979380D01*
X122697714Y-129788904D01*
X122792952Y-129693666D01*
X122983428Y-129598428D01*
X123269142Y-129598428D01*
X123459619Y-129693666D01*
X123554857Y-129788904D01*
X123650095Y-129979380D01*
X123650095Y-130550809D01*
X123554857Y-130741285D01*
X123459619Y-130836523D01*
X123269142Y-130931761D01*
X122983428Y-130931761D01*
X135720439Y-106782304D02*
X135649010Y-106925161D01*
X135649010Y-107139447D01*
X135720439Y-107353732D01*
X135863296Y-107496589D01*
X136006153Y-107568018D01*
X136291867Y-107639447D01*
X136506153Y-107639447D01*
X136791867Y-107568018D01*
X136934724Y-107496589D01*
X137077581Y-107353732D01*
X137149010Y-107139447D01*
X137149010Y-106996589D01*
X137077581Y-106782304D01*
X137006153Y-106710875D01*
X136506153Y-106710875D01*
X136506153Y-106996589D01*
X137149010Y-106068018D02*
X135649010Y-106068018D01*
X137149010Y-105210875D01*
X135649010Y-105210875D01*
X137149010Y-104496589D02*
X135649010Y-104496589D01*
X135649010Y-104139447D01*
X135720439Y-103925161D01*
X135863296Y-103782304D01*
X136006153Y-103710875D01*
X136291867Y-103639447D01*
X136506153Y-103639447D01*
X136791867Y-103710875D01*
X136934724Y-103782304D01*
X137077581Y-103925161D01*
X137149010Y-104139447D01*
X137149010Y-104496589D01*
D10*
X111995535Y-141100911D02*
X111995535Y-142172340D01*
X111924107Y-142386625D01*
X111781249Y-142529482D01*
X111566964Y-142600911D01*
X111424107Y-142600911D01*
X113424107Y-142600911D02*
X112709821Y-142600911D01*
X112709821Y-141100911D01*
X114781249Y-142458054D02*
X114709821Y-142529482D01*
X114495535Y-142600911D01*
X114352678Y-142600911D01*
X114138392Y-142529482D01*
X113995535Y-142386625D01*
X113924107Y-142243768D01*
X113852678Y-141958054D01*
X113852678Y-141743768D01*
X113924107Y-141458054D01*
X113995535Y-141315197D01*
X114138392Y-141172340D01*
X114352678Y-141100911D01*
X114495535Y-141100911D01*
X114709821Y-141172340D01*
X114781249Y-141243768D01*
X115852678Y-141100911D02*
X115852678Y-142172340D01*
X115781249Y-142386625D01*
X115638392Y-142529482D01*
X115424107Y-142600911D01*
X115281249Y-142600911D01*
X117281249Y-142600911D02*
X116566964Y-142600911D01*
X116566964Y-141100911D01*
X118638392Y-142458054D02*
X118566964Y-142529482D01*
X118352678Y-142600911D01*
X118209821Y-142600911D01*
X117995535Y-142529482D01*
X117852678Y-142386625D01*
X117781249Y-142243768D01*
X117709821Y-141958054D01*
X117709821Y-141743768D01*
X117781249Y-141458054D01*
X117852678Y-141315197D01*
X117995535Y-141172340D01*
X118209821Y-141100911D01*
X118352678Y-141100911D01*
X118566964Y-141172340D01*
X118638392Y-141243768D01*
X119709821Y-141100911D02*
X119709821Y-142172340D01*
X119638392Y-142386625D01*
X119495535Y-142529482D01*
X119281249Y-142600911D01*
X119138392Y-142600911D01*
X121138392Y-142600911D02*
X120424107Y-142600911D01*
X120424107Y-141100911D01*
X122495535Y-142458054D02*
X122424107Y-142529482D01*
X122209821Y-142600911D01*
X122066964Y-142600911D01*
X121852678Y-142529482D01*
X121709821Y-142386625D01*
X121638392Y-142243768D01*
X121566964Y-141958054D01*
X121566964Y-141743768D01*
X121638392Y-141458054D01*
X121709821Y-141315197D01*
X121852678Y-141172340D01*
X122066964Y-141100911D01*
X122209821Y-141100911D01*
X122424107Y-141172340D01*
X122495535Y-141243768D01*
X123566964Y-141100911D02*
X123566964Y-142172340D01*
X123495535Y-142386625D01*
X123352678Y-142529482D01*
X123138392Y-142600911D01*
X122995535Y-142600911D01*
X124995535Y-142600911D02*
X124281249Y-142600911D01*
X124281249Y-141100911D01*
X126352678Y-142458054D02*
X126281249Y-142529482D01*
X126066964Y-142600911D01*
X125924107Y-142600911D01*
X125709821Y-142529482D01*
X125566964Y-142386625D01*
X125495535Y-142243768D01*
X125424107Y-141958054D01*
X125424107Y-141743768D01*
X125495535Y-141458054D01*
X125566964Y-141315197D01*
X125709821Y-141172340D01*
X125924107Y-141100911D01*
X126066964Y-141100911D01*
X126281249Y-141172340D01*
X126352678Y-141243768D01*
D12*
X105937581Y-110616589D02*
X106009010Y-110402304D01*
X106009010Y-110045161D01*
X105937581Y-109902304D01*
X105866153Y-109830875D01*
X105723296Y-109759447D01*
X105580439Y-109759447D01*
X105437581Y-109830875D01*
X105366153Y-109902304D01*
X105294724Y-110045161D01*
X105223296Y-110330875D01*
X105151867Y-110473732D01*
X105080439Y-110545161D01*
X104937581Y-110616589D01*
X104794724Y-110616589D01*
X104651867Y-110545161D01*
X104580439Y-110473732D01*
X104509010Y-110330875D01*
X104509010Y-109973732D01*
X104580439Y-109759447D01*
X106009010Y-109116589D02*
X104509010Y-109116589D01*
X105223296Y-109116589D02*
X105223296Y-108259447D01*
X106009010Y-108259447D02*
X104509010Y-108259447D01*
X106009010Y-107545161D02*
X104509010Y-107545161D01*
X105223296Y-106830875D02*
X105223296Y-106330875D01*
X106009010Y-106116589D02*
X106009010Y-106830875D01*
X104509010Y-106830875D01*
X104509010Y-106116589D01*
X106009010Y-104759447D02*
X106009010Y-105473732D01*
X104509010Y-105473732D01*
X106009010Y-104259447D02*
X104509010Y-104259447D01*
X104509010Y-103902304D01*
X104580439Y-103688018D01*
X104723296Y-103545161D01*
X104866153Y-103473732D01*
X105151867Y-103402304D01*
X105366153Y-103402304D01*
X105651867Y-103473732D01*
X105794724Y-103545161D01*
X105937581Y-103688018D01*
X106009010Y-103902304D01*
X106009010Y-104259447D01*
X126337581Y-65116589D02*
X126409010Y-64902304D01*
X126409010Y-64545161D01*
X126337581Y-64402304D01*
X126266153Y-64330875D01*
X126123296Y-64259447D01*
X125980439Y-64259447D01*
X125837581Y-64330875D01*
X125766153Y-64402304D01*
X125694724Y-64545161D01*
X125623296Y-64830875D01*
X125551867Y-64973732D01*
X125480439Y-65045161D01*
X125337581Y-65116589D01*
X125194724Y-65116589D01*
X125051867Y-65045161D01*
X124980439Y-64973732D01*
X124909010Y-64830875D01*
X124909010Y-64473732D01*
X124980439Y-64259447D01*
X126409010Y-63616589D02*
X124909010Y-63616589D01*
X125623296Y-63616589D02*
X125623296Y-62759447D01*
X126409010Y-62759447D02*
X124909010Y-62759447D01*
X126409010Y-62045161D02*
X124909010Y-62045161D01*
X125623296Y-61330875D02*
X125623296Y-60830875D01*
X126409010Y-60616589D02*
X126409010Y-61330875D01*
X124909010Y-61330875D01*
X124909010Y-60616589D01*
X126409010Y-59259447D02*
X126409010Y-59973732D01*
X124909010Y-59973732D01*
X126409010Y-58759447D02*
X124909010Y-58759447D01*
X124909010Y-58402304D01*
X124980439Y-58188018D01*
X125123296Y-58045161D01*
X125266153Y-57973732D01*
X125551867Y-57902304D01*
X125766153Y-57902304D01*
X126051867Y-57973732D01*
X126194724Y-58045161D01*
X126337581Y-58188018D01*
X126409010Y-58402304D01*
X126409010Y-58759447D01*
X105937581Y-65116589D02*
X106009010Y-64902304D01*
X106009010Y-64545161D01*
X105937581Y-64402304D01*
X105866153Y-64330875D01*
X105723296Y-64259447D01*
X105580439Y-64259447D01*
X105437581Y-64330875D01*
X105366153Y-64402304D01*
X105294724Y-64545161D01*
X105223296Y-64830875D01*
X105151867Y-64973732D01*
X105080439Y-65045161D01*
X104937581Y-65116589D01*
X104794724Y-65116589D01*
X104651867Y-65045161D01*
X104580439Y-64973732D01*
X104509010Y-64830875D01*
X104509010Y-64473732D01*
X104580439Y-64259447D01*
X106009010Y-63616589D02*
X104509010Y-63616589D01*
X105223296Y-63616589D02*
X105223296Y-62759447D01*
X106009010Y-62759447D02*
X104509010Y-62759447D01*
X106009010Y-62045161D02*
X104509010Y-62045161D01*
X105223296Y-61330875D02*
X105223296Y-60830875D01*
X106009010Y-60616589D02*
X106009010Y-61330875D01*
X104509010Y-61330875D01*
X104509010Y-60616589D01*
X106009010Y-59259447D02*
X106009010Y-59973732D01*
X104509010Y-59973732D01*
X106009010Y-58759447D02*
X104509010Y-58759447D01*
X104509010Y-58402304D01*
X104580439Y-58188018D01*
X104723296Y-58045161D01*
X104866153Y-57973732D01*
X105151867Y-57902304D01*
X105366153Y-57902304D01*
X105651867Y-57973732D01*
X105794724Y-58045161D01*
X105937581Y-58188018D01*
X106009010Y-58402304D01*
X106009010Y-58759447D01*
D13*
X135960439Y-53412780D02*
X137103296Y-53412780D01*
X135731867Y-54155637D02*
X136531867Y-51555637D01*
X137331867Y-54155637D01*
X139503296Y-54155637D02*
X138703296Y-52917542D01*
X138131867Y-54155637D02*
X138131867Y-51555637D01*
X139046153Y-51555637D01*
X139274724Y-51679447D01*
X139389010Y-51803256D01*
X139503296Y-52050875D01*
X139503296Y-52422304D01*
X139389010Y-52669923D01*
X139274724Y-52793732D01*
X139046153Y-52917542D01*
X138131867Y-52917542D01*
X141560439Y-52422304D02*
X141560439Y-54155637D01*
X140989010Y-51431827D02*
X140417581Y-53288970D01*
X141903296Y-53288970D01*
X143160439Y-52669923D02*
X142931867Y-52546113D01*
X142817581Y-52422304D01*
X142703296Y-52174685D01*
X142703296Y-52050875D01*
X142817581Y-51803256D01*
X142931867Y-51679447D01*
X143160439Y-51555637D01*
X143617581Y-51555637D01*
X143846153Y-51679447D01*
X143960439Y-51803256D01*
X144074724Y-52050875D01*
X144074724Y-52174685D01*
X143960439Y-52422304D01*
X143846153Y-52546113D01*
X143617581Y-52669923D01*
X143160439Y-52669923D01*
X142931867Y-52793732D01*
X142817581Y-52917542D01*
X142703296Y-53165161D01*
X142703296Y-53660399D01*
X142817581Y-53908018D01*
X142931867Y-54031827D01*
X143160439Y-54155637D01*
X143617581Y-54155637D01*
X143846153Y-54031827D01*
X143960439Y-53908018D01*
X144074724Y-53660399D01*
X144074724Y-53165161D01*
X143960439Y-52917542D01*
X143846153Y-52793732D01*
X143617581Y-52669923D01*
X145446153Y-52669923D02*
X145217581Y-52546113D01*
X145103296Y-52422304D01*
X144989010Y-52174685D01*
X144989010Y-52050875D01*
X145103296Y-51803256D01*
X145217581Y-51679447D01*
X145446153Y-51555637D01*
X145903296Y-51555637D01*
X146131867Y-51679447D01*
X146246153Y-51803256D01*
X146360439Y-52050875D01*
X146360439Y-52174685D01*
X146246153Y-52422304D01*
X146131867Y-52546113D01*
X145903296Y-52669923D01*
X145446153Y-52669923D01*
X145217581Y-52793732D01*
X145103296Y-52917542D01*
X144989010Y-53165161D01*
X144989010Y-53660399D01*
X145103296Y-53908018D01*
X145217581Y-54031827D01*
X145446153Y-54155637D01*
X145903296Y-54155637D01*
X146131867Y-54031827D01*
X146246153Y-53908018D01*
X146360439Y-53660399D01*
X146360439Y-53165161D01*
X146246153Y-52917542D01*
X146131867Y-52793732D01*
X145903296Y-52669923D01*
D12*
X146737581Y-110616589D02*
X146809010Y-110402304D01*
X146809010Y-110045161D01*
X146737581Y-109902304D01*
X146666153Y-109830875D01*
X146523296Y-109759447D01*
X146380439Y-109759447D01*
X146237581Y-109830875D01*
X146166153Y-109902304D01*
X146094724Y-110045161D01*
X146023296Y-110330875D01*
X145951867Y-110473732D01*
X145880439Y-110545161D01*
X145737581Y-110616589D01*
X145594724Y-110616589D01*
X145451867Y-110545161D01*
X145380439Y-110473732D01*
X145309010Y-110330875D01*
X145309010Y-109973732D01*
X145380439Y-109759447D01*
X146809010Y-109116589D02*
X145309010Y-109116589D01*
X146023296Y-109116589D02*
X146023296Y-108259447D01*
X146809010Y-108259447D02*
X145309010Y-108259447D01*
X146809010Y-107545161D02*
X145309010Y-107545161D01*
X146023296Y-106830875D02*
X146023296Y-106330875D01*
X146809010Y-106116589D02*
X146809010Y-106830875D01*
X145309010Y-106830875D01*
X145309010Y-106116589D01*
X146809010Y-104759447D02*
X146809010Y-105473732D01*
X145309010Y-105473732D01*
X146809010Y-104259447D02*
X145309010Y-104259447D01*
X145309010Y-103902304D01*
X145380439Y-103688018D01*
X145523296Y-103545161D01*
X145666153Y-103473732D01*
X145951867Y-103402304D01*
X146166153Y-103402304D01*
X146451867Y-103473732D01*
X146594724Y-103545161D01*
X146737581Y-103688018D01*
X146809010Y-103902304D01*
X146809010Y-104259447D01*
X54120439Y-106782304D02*
X54049010Y-106925161D01*
X54049010Y-107139447D01*
X54120439Y-107353732D01*
X54263296Y-107496589D01*
X54406153Y-107568018D01*
X54691867Y-107639447D01*
X54906153Y-107639447D01*
X55191867Y-107568018D01*
X55334724Y-107496589D01*
X55477581Y-107353732D01*
X55549010Y-107139447D01*
X55549010Y-106996589D01*
X55477581Y-106782304D01*
X55406153Y-106710875D01*
X54906153Y-106710875D01*
X54906153Y-106996589D01*
X55549010Y-106068018D02*
X54049010Y-106068018D01*
X55549010Y-105210875D01*
X54049010Y-105210875D01*
X55549010Y-104496589D02*
X54049010Y-104496589D01*
X54049010Y-104139447D01*
X54120439Y-103925161D01*
X54263296Y-103782304D01*
X54406153Y-103710875D01*
X54691867Y-103639447D01*
X54906153Y-103639447D01*
X55191867Y-103710875D01*
X55334724Y-103782304D01*
X55477581Y-103925161D01*
X55549010Y-104139447D01*
X55549010Y-104496589D01*
X65137581Y-65116589D02*
X65209010Y-64902304D01*
X65209010Y-64545161D01*
X65137581Y-64402304D01*
X65066153Y-64330875D01*
X64923296Y-64259447D01*
X64780439Y-64259447D01*
X64637581Y-64330875D01*
X64566153Y-64402304D01*
X64494724Y-64545161D01*
X64423296Y-64830875D01*
X64351867Y-64973732D01*
X64280439Y-65045161D01*
X64137581Y-65116589D01*
X63994724Y-65116589D01*
X63851867Y-65045161D01*
X63780439Y-64973732D01*
X63709010Y-64830875D01*
X63709010Y-64473732D01*
X63780439Y-64259447D01*
X65209010Y-63616589D02*
X63709010Y-63616589D01*
X64423296Y-63616589D02*
X64423296Y-62759447D01*
X65209010Y-62759447D02*
X63709010Y-62759447D01*
X65209010Y-62045161D02*
X63709010Y-62045161D01*
X64423296Y-61330875D02*
X64423296Y-60830875D01*
X65209010Y-60616589D02*
X65209010Y-61330875D01*
X63709010Y-61330875D01*
X63709010Y-60616589D01*
X65209010Y-59259447D02*
X65209010Y-59973732D01*
X63709010Y-59973732D01*
X65209010Y-58759447D02*
X63709010Y-58759447D01*
X63709010Y-58402304D01*
X63780439Y-58188018D01*
X63923296Y-58045161D01*
X64066153Y-57973732D01*
X64351867Y-57902304D01*
X64566153Y-57902304D01*
X64851867Y-57973732D01*
X64994724Y-58045161D01*
X65137581Y-58188018D01*
X65209010Y-58402304D01*
X65209010Y-58759447D01*
X85537581Y-110616589D02*
X85609010Y-110402304D01*
X85609010Y-110045161D01*
X85537581Y-109902304D01*
X85466153Y-109830875D01*
X85323296Y-109759447D01*
X85180439Y-109759447D01*
X85037581Y-109830875D01*
X84966153Y-109902304D01*
X84894724Y-110045161D01*
X84823296Y-110330875D01*
X84751867Y-110473732D01*
X84680439Y-110545161D01*
X84537581Y-110616589D01*
X84394724Y-110616589D01*
X84251867Y-110545161D01*
X84180439Y-110473732D01*
X84109010Y-110330875D01*
X84109010Y-109973732D01*
X84180439Y-109759447D01*
X85609010Y-109116589D02*
X84109010Y-109116589D01*
X84823296Y-109116589D02*
X84823296Y-108259447D01*
X85609010Y-108259447D02*
X84109010Y-108259447D01*
X85609010Y-107545161D02*
X84109010Y-107545161D01*
X84823296Y-106830875D02*
X84823296Y-106330875D01*
X85609010Y-106116589D02*
X85609010Y-106830875D01*
X84109010Y-106830875D01*
X84109010Y-106116589D01*
X85609010Y-104759447D02*
X85609010Y-105473732D01*
X84109010Y-105473732D01*
X85609010Y-104259447D02*
X84109010Y-104259447D01*
X84109010Y-103902304D01*
X84180439Y-103688018D01*
X84323296Y-103545161D01*
X84466153Y-103473732D01*
X84751867Y-103402304D01*
X84966153Y-103402304D01*
X85251867Y-103473732D01*
X85394724Y-103545161D01*
X85537581Y-103688018D01*
X85609010Y-103902304D01*
X85609010Y-104259447D01*
D13*
X95160439Y-98912780D02*
X96303296Y-98912780D01*
X94931867Y-99655637D02*
X95731867Y-97055637D01*
X96531867Y-99655637D01*
X98703296Y-99655637D02*
X97903296Y-98417542D01*
X97331867Y-99655637D02*
X97331867Y-97055637D01*
X98246153Y-97055637D01*
X98474724Y-97179447D01*
X98589010Y-97303256D01*
X98703296Y-97550875D01*
X98703296Y-97922304D01*
X98589010Y-98169923D01*
X98474724Y-98293732D01*
X98246153Y-98417542D01*
X97331867Y-98417542D01*
X100760439Y-97922304D02*
X100760439Y-99655637D01*
X100189010Y-96931827D02*
X99617581Y-98788970D01*
X101103296Y-98788970D01*
X102360439Y-98169923D02*
X102131867Y-98046113D01*
X102017581Y-97922304D01*
X101903296Y-97674685D01*
X101903296Y-97550875D01*
X102017581Y-97303256D01*
X102131867Y-97179447D01*
X102360439Y-97055637D01*
X102817581Y-97055637D01*
X103046153Y-97179447D01*
X103160439Y-97303256D01*
X103274724Y-97550875D01*
X103274724Y-97674685D01*
X103160439Y-97922304D01*
X103046153Y-98046113D01*
X102817581Y-98169923D01*
X102360439Y-98169923D01*
X102131867Y-98293732D01*
X102017581Y-98417542D01*
X101903296Y-98665161D01*
X101903296Y-99160399D01*
X102017581Y-99408018D01*
X102131867Y-99531827D01*
X102360439Y-99655637D01*
X102817581Y-99655637D01*
X103046153Y-99531827D01*
X103160439Y-99408018D01*
X103274724Y-99160399D01*
X103274724Y-98665161D01*
X103160439Y-98417542D01*
X103046153Y-98293732D01*
X102817581Y-98169923D01*
X104646153Y-98169923D02*
X104417581Y-98046113D01*
X104303296Y-97922304D01*
X104189010Y-97674685D01*
X104189010Y-97550875D01*
X104303296Y-97303256D01*
X104417581Y-97179447D01*
X104646153Y-97055637D01*
X105103296Y-97055637D01*
X105331867Y-97179447D01*
X105446153Y-97303256D01*
X105560439Y-97550875D01*
X105560439Y-97674685D01*
X105446153Y-97922304D01*
X105331867Y-98046113D01*
X105103296Y-98169923D01*
X104646153Y-98169923D01*
X104417581Y-98293732D01*
X104303296Y-98417542D01*
X104189010Y-98665161D01*
X104189010Y-99160399D01*
X104303296Y-99408018D01*
X104417581Y-99531827D01*
X104646153Y-99655637D01*
X105103296Y-99655637D01*
X105331867Y-99531827D01*
X105446153Y-99408018D01*
X105560439Y-99160399D01*
X105560439Y-98665161D01*
X105446153Y-98417542D01*
X105331867Y-98293732D01*
X105103296Y-98169923D01*
X115560439Y-98912780D02*
X116703296Y-98912780D01*
X115331867Y-99655637D02*
X116131867Y-97055637D01*
X116931867Y-99655637D01*
X119103296Y-99655637D02*
X118303296Y-98417542D01*
X117731867Y-99655637D02*
X117731867Y-97055637D01*
X118646153Y-97055637D01*
X118874724Y-97179447D01*
X118989010Y-97303256D01*
X119103296Y-97550875D01*
X119103296Y-97922304D01*
X118989010Y-98169923D01*
X118874724Y-98293732D01*
X118646153Y-98417542D01*
X117731867Y-98417542D01*
X121160439Y-97922304D02*
X121160439Y-99655637D01*
X120589010Y-96931827D02*
X120017581Y-98788970D01*
X121503296Y-98788970D01*
X122760439Y-98169923D02*
X122531867Y-98046113D01*
X122417581Y-97922304D01*
X122303296Y-97674685D01*
X122303296Y-97550875D01*
X122417581Y-97303256D01*
X122531867Y-97179447D01*
X122760439Y-97055637D01*
X123217581Y-97055637D01*
X123446153Y-97179447D01*
X123560439Y-97303256D01*
X123674724Y-97550875D01*
X123674724Y-97674685D01*
X123560439Y-97922304D01*
X123446153Y-98046113D01*
X123217581Y-98169923D01*
X122760439Y-98169923D01*
X122531867Y-98293732D01*
X122417581Y-98417542D01*
X122303296Y-98665161D01*
X122303296Y-99160399D01*
X122417581Y-99408018D01*
X122531867Y-99531827D01*
X122760439Y-99655637D01*
X123217581Y-99655637D01*
X123446153Y-99531827D01*
X123560439Y-99408018D01*
X123674724Y-99160399D01*
X123674724Y-98665161D01*
X123560439Y-98417542D01*
X123446153Y-98293732D01*
X123217581Y-98169923D01*
X125046153Y-98169923D02*
X124817581Y-98046113D01*
X124703296Y-97922304D01*
X124589010Y-97674685D01*
X124589010Y-97550875D01*
X124703296Y-97303256D01*
X124817581Y-97179447D01*
X125046153Y-97055637D01*
X125503296Y-97055637D01*
X125731867Y-97179447D01*
X125846153Y-97303256D01*
X125960439Y-97550875D01*
X125960439Y-97674685D01*
X125846153Y-97922304D01*
X125731867Y-98046113D01*
X125503296Y-98169923D01*
X125046153Y-98169923D01*
X124817581Y-98293732D01*
X124703296Y-98417542D01*
X124589010Y-98665161D01*
X124589010Y-99160399D01*
X124703296Y-99408018D01*
X124817581Y-99531827D01*
X125046153Y-99655637D01*
X125503296Y-99655637D01*
X125731867Y-99531827D01*
X125846153Y-99408018D01*
X125960439Y-99160399D01*
X125960439Y-98665161D01*
X125846153Y-98417542D01*
X125731867Y-98293732D01*
X125503296Y-98169923D01*
D12*
X94920439Y-61282304D02*
X94849010Y-61425161D01*
X94849010Y-61639447D01*
X94920439Y-61853732D01*
X95063296Y-61996589D01*
X95206153Y-62068018D01*
X95491867Y-62139447D01*
X95706153Y-62139447D01*
X95991867Y-62068018D01*
X96134724Y-61996589D01*
X96277581Y-61853732D01*
X96349010Y-61639447D01*
X96349010Y-61496589D01*
X96277581Y-61282304D01*
X96206153Y-61210875D01*
X95706153Y-61210875D01*
X95706153Y-61496589D01*
X96349010Y-60568018D02*
X94849010Y-60568018D01*
X96349010Y-59710875D01*
X94849010Y-59710875D01*
X96349010Y-58996589D02*
X94849010Y-58996589D01*
X94849010Y-58639447D01*
X94920439Y-58425161D01*
X95063296Y-58282304D01*
X95206153Y-58210875D01*
X95491867Y-58139447D01*
X95706153Y-58139447D01*
X95991867Y-58210875D01*
X96134724Y-58282304D01*
X96277581Y-58425161D01*
X96349010Y-58639447D01*
X96349010Y-58996589D01*
D13*
X54360439Y-53412780D02*
X55503296Y-53412780D01*
X54131867Y-54155637D02*
X54931867Y-51555637D01*
X55731867Y-54155637D01*
X57903296Y-54155637D02*
X57103296Y-52917542D01*
X56531867Y-54155637D02*
X56531867Y-51555637D01*
X57446153Y-51555637D01*
X57674724Y-51679447D01*
X57789010Y-51803256D01*
X57903296Y-52050875D01*
X57903296Y-52422304D01*
X57789010Y-52669923D01*
X57674724Y-52793732D01*
X57446153Y-52917542D01*
X56531867Y-52917542D01*
X59960439Y-52422304D02*
X59960439Y-54155637D01*
X59389010Y-51431827D02*
X58817581Y-53288970D01*
X60303296Y-53288970D01*
X61560439Y-52669923D02*
X61331867Y-52546113D01*
X61217581Y-52422304D01*
X61103296Y-52174685D01*
X61103296Y-52050875D01*
X61217581Y-51803256D01*
X61331867Y-51679447D01*
X61560439Y-51555637D01*
X62017581Y-51555637D01*
X62246153Y-51679447D01*
X62360439Y-51803256D01*
X62474724Y-52050875D01*
X62474724Y-52174685D01*
X62360439Y-52422304D01*
X62246153Y-52546113D01*
X62017581Y-52669923D01*
X61560439Y-52669923D01*
X61331867Y-52793732D01*
X61217581Y-52917542D01*
X61103296Y-53165161D01*
X61103296Y-53660399D01*
X61217581Y-53908018D01*
X61331867Y-54031827D01*
X61560439Y-54155637D01*
X62017581Y-54155637D01*
X62246153Y-54031827D01*
X62360439Y-53908018D01*
X62474724Y-53660399D01*
X62474724Y-53165161D01*
X62360439Y-52917542D01*
X62246153Y-52793732D01*
X62017581Y-52669923D01*
X63846153Y-52669923D02*
X63617581Y-52546113D01*
X63503296Y-52422304D01*
X63389010Y-52174685D01*
X63389010Y-52050875D01*
X63503296Y-51803256D01*
X63617581Y-51679447D01*
X63846153Y-51555637D01*
X64303296Y-51555637D01*
X64531867Y-51679447D01*
X64646153Y-51803256D01*
X64760439Y-52050875D01*
X64760439Y-52174685D01*
X64646153Y-52422304D01*
X64531867Y-52546113D01*
X64303296Y-52669923D01*
X63846153Y-52669923D01*
X63617581Y-52793732D01*
X63503296Y-52917542D01*
X63389010Y-53165161D01*
X63389010Y-53660399D01*
X63503296Y-53908018D01*
X63617581Y-54031827D01*
X63846153Y-54155637D01*
X64303296Y-54155637D01*
X64531867Y-54031827D01*
X64646153Y-53908018D01*
X64760439Y-53660399D01*
X64760439Y-53165161D01*
X64646153Y-52917542D01*
X64531867Y-52793732D01*
X64303296Y-52669923D01*
D12*
X56069142Y-84098428D02*
X56069142Y-85431761D01*
X56069142Y-84288904D02*
X56164380Y-84193666D01*
X56354857Y-84098428D01*
X56640571Y-84098428D01*
X56831047Y-84193666D01*
X56926285Y-84384142D01*
X56926285Y-85431761D01*
X58735809Y-85431761D02*
X58735809Y-84384142D01*
X58640571Y-84193666D01*
X58450095Y-84098428D01*
X58069142Y-84098428D01*
X57878666Y-84193666D01*
X58735809Y-85336523D02*
X58545333Y-85431761D01*
X58069142Y-85431761D01*
X57878666Y-85336523D01*
X57783428Y-85146047D01*
X57783428Y-84955571D01*
X57878666Y-84765095D01*
X58069142Y-84669857D01*
X58545333Y-84669857D01*
X58735809Y-84574619D01*
X59688190Y-84098428D02*
X59688190Y-85431761D01*
X59688190Y-84288904D02*
X59783428Y-84193666D01*
X59973904Y-84098428D01*
X60259619Y-84098428D01*
X60450095Y-84193666D01*
X60545333Y-84384142D01*
X60545333Y-85431761D01*
X61783428Y-85431761D02*
X61592952Y-85336523D01*
X61497714Y-85241285D01*
X61402476Y-85050809D01*
X61402476Y-84479380D01*
X61497714Y-84288904D01*
X61592952Y-84193666D01*
X61783428Y-84098428D01*
X62069142Y-84098428D01*
X62259619Y-84193666D01*
X62354857Y-84288904D01*
X62450095Y-84479380D01*
X62450095Y-85050809D01*
X62354857Y-85241285D01*
X62259619Y-85336523D01*
X62069142Y-85431761D01*
X61783428Y-85431761D01*
X85537581Y-65116589D02*
X85609010Y-64902304D01*
X85609010Y-64545161D01*
X85537581Y-64402304D01*
X85466153Y-64330875D01*
X85323296Y-64259447D01*
X85180439Y-64259447D01*
X85037581Y-64330875D01*
X84966153Y-64402304D01*
X84894724Y-64545161D01*
X84823296Y-64830875D01*
X84751867Y-64973732D01*
X84680439Y-65045161D01*
X84537581Y-65116589D01*
X84394724Y-65116589D01*
X84251867Y-65045161D01*
X84180439Y-64973732D01*
X84109010Y-64830875D01*
X84109010Y-64473732D01*
X84180439Y-64259447D01*
X85609010Y-63616589D02*
X84109010Y-63616589D01*
X84823296Y-63616589D02*
X84823296Y-62759447D01*
X85609010Y-62759447D02*
X84109010Y-62759447D01*
X85609010Y-62045161D02*
X84109010Y-62045161D01*
X84823296Y-61330875D02*
X84823296Y-60830875D01*
X85609010Y-60616589D02*
X85609010Y-61330875D01*
X84109010Y-61330875D01*
X84109010Y-60616589D01*
X85609010Y-59259447D02*
X85609010Y-59973732D01*
X84109010Y-59973732D01*
X85609010Y-58759447D02*
X84109010Y-58759447D01*
X84109010Y-58402304D01*
X84180439Y-58188018D01*
X84323296Y-58045161D01*
X84466153Y-57973732D01*
X84751867Y-57902304D01*
X84966153Y-57902304D01*
X85251867Y-57973732D01*
X85394724Y-58045161D01*
X85537581Y-58188018D01*
X85609010Y-58402304D01*
X85609010Y-58759447D01*
D11*
X119995714Y-47966666D02*
X120471904Y-47966666D01*
X119900476Y-48252380D02*
X120233809Y-47252380D01*
X120567142Y-48252380D01*
X121424285Y-48252380D02*
X120852857Y-48252380D01*
X121138571Y-48252380D02*
X121138571Y-47252380D01*
X121043333Y-47395238D01*
X120948095Y-47490476D01*
X120852857Y-47538095D01*
X79195714Y-47966666D02*
X79671904Y-47966666D01*
X79100476Y-48252380D02*
X79433809Y-47252380D01*
X79767142Y-48252380D01*
X80624285Y-48252380D02*
X80052857Y-48252380D01*
X80338571Y-48252380D02*
X80338571Y-47252380D01*
X80243333Y-47395238D01*
X80148095Y-47490476D01*
X80052857Y-47538095D01*
X119995714Y-93466666D02*
X120471904Y-93466666D01*
X119900476Y-93752380D02*
X120233809Y-92752380D01*
X120567142Y-93752380D01*
X121424285Y-93752380D02*
X120852857Y-93752380D01*
X121138571Y-93752380D02*
X121138571Y-92752380D01*
X121043333Y-92895238D01*
X120948095Y-92990476D01*
X120852857Y-93038095D01*
X79195714Y-93466666D02*
X79671904Y-93466666D01*
X79100476Y-93752380D02*
X79433809Y-92752380D01*
X79767142Y-93752380D01*
X80624285Y-93752380D02*
X80052857Y-93752380D01*
X80338571Y-93752380D02*
X80338571Y-92752380D01*
X80243333Y-92895238D01*
X80148095Y-92990476D01*
X80052857Y-93038095D01*
X99595714Y-47966666D02*
X100071904Y-47966666D01*
X99500476Y-48252380D02*
X99833809Y-47252380D01*
X100167142Y-48252380D01*
X101024285Y-48252380D02*
X100452857Y-48252380D01*
X100738571Y-48252380D02*
X100738571Y-47252380D01*
X100643333Y-47395238D01*
X100548095Y-47490476D01*
X100452857Y-47538095D01*
X140395714Y-47966666D02*
X140871904Y-47966666D01*
X140300476Y-48252380D02*
X140633809Y-47252380D01*
X140967142Y-48252380D01*
X141824285Y-48252380D02*
X141252857Y-48252380D01*
X141538571Y-48252380D02*
X141538571Y-47252380D01*
X141443333Y-47395238D01*
X141348095Y-47490476D01*
X141252857Y-47538095D01*
X99595714Y-93466666D02*
X100071904Y-93466666D01*
X99500476Y-93752380D02*
X99833809Y-92752380D01*
X100167142Y-93752380D01*
X101024285Y-93752380D02*
X100452857Y-93752380D01*
X100738571Y-93752380D02*
X100738571Y-92752380D01*
X100643333Y-92895238D01*
X100548095Y-92990476D01*
X100452857Y-93038095D01*
X140395714Y-93466666D02*
X140871904Y-93466666D01*
X140300476Y-93752380D02*
X140633809Y-92752380D01*
X140967142Y-93752380D01*
X141824285Y-93752380D02*
X141252857Y-93752380D01*
X141538571Y-93752380D02*
X141538571Y-92752380D01*
X141443333Y-92895238D01*
X141348095Y-92990476D01*
X141252857Y-93038095D01*
X58795714Y-93466666D02*
X59271904Y-93466666D01*
X58700476Y-93752380D02*
X59033809Y-92752380D01*
X59367142Y-93752380D01*
X60224285Y-93752380D02*
X59652857Y-93752380D01*
X59938571Y-93752380D02*
X59938571Y-92752380D01*
X59843333Y-92895238D01*
X59748095Y-92990476D01*
X59652857Y-93038095D01*
X58795714Y-47966666D02*
X59271904Y-47966666D01*
X58700476Y-48252380D02*
X59033809Y-47252380D01*
X59367142Y-48252380D01*
X60224285Y-48252380D02*
X59652857Y-48252380D01*
X59938571Y-48252380D02*
X59938571Y-47252380D01*
X59843333Y-47395238D01*
X59748095Y-47490476D01*
X59652857Y-47538095D01*
D14*
X98725439Y-101414447D02*
X98030439Y-101414447D01*
X98725439Y-100729447D02*
X98725439Y-101414447D01*
X123935439Y-101354447D02*
X123240439Y-101354447D01*
X123935439Y-100669447D02*
X123935439Y-101354447D01*
X98725439Y-55229447D02*
X98725439Y-55914447D01*
X98725439Y-55914447D02*
X98030439Y-55914447D01*
X144335439Y-100669447D02*
X144335439Y-101354447D01*
X144335439Y-101354447D02*
X143640439Y-101354447D01*
X57925439Y-55229447D02*
X57925439Y-55914447D01*
X57925439Y-55914447D02*
X57230439Y-55914447D01*
D15*
X77260000Y-48860000D02*
G75*
G03*
X77260000Y-46860000I0J1000000D01*
G01*
X82760000Y-46860000D02*
G75*
G03*
X82760000Y-48860000I0J-1000000D01*
G01*
D14*
X114360000Y-89710000D02*
X111690000Y-89710000D01*
X114360000Y-54150000D02*
X114360000Y-51610000D01*
X127060000Y-51610000D02*
X129730000Y-51610000D01*
X114360000Y-54150000D02*
X111690000Y-54150000D01*
X114360000Y-54150000D02*
X114360000Y-89710000D01*
X127060000Y-51610000D02*
X127060000Y-89710000D01*
X114360000Y-51610000D02*
X111690000Y-51610000D01*
X127060000Y-89710000D02*
X129730000Y-89710000D01*
X116900000Y-86470000D02*
X124510000Y-86470000D01*
X124510000Y-86470000D02*
X124510000Y-92280000D01*
X124510000Y-92280000D02*
X116900000Y-92280000D01*
X116900000Y-92280000D02*
X116900000Y-86470000D01*
G36*
X116900000Y-86470000D02*
G01*
X124510000Y-86470000D01*
X124510000Y-92280000D01*
X116900000Y-92280000D01*
X116900000Y-86470000D01*
G37*
X111710000Y-51720000D02*
X114250000Y-51720000D01*
X114250000Y-51720000D02*
X114250000Y-54040000D01*
X114250000Y-54040000D02*
X111710000Y-54040000D01*
X111710000Y-54040000D02*
X111710000Y-51720000D01*
G36*
X111710000Y-51720000D02*
G01*
X114250000Y-51720000D01*
X114250000Y-54040000D01*
X111710000Y-54040000D01*
X111710000Y-51720000D01*
G37*
D15*
X62370000Y-92380000D02*
G75*
G03*
X62370000Y-94380000I0J-1000000D01*
G01*
X56870000Y-94380000D02*
G75*
G03*
X56870000Y-92380000I0J1000000D01*
G01*
D14*
X73560000Y-54150000D02*
X73560000Y-89710000D01*
X73560000Y-89710000D02*
X70890000Y-89710000D01*
X86260000Y-51610000D02*
X86260000Y-89710000D01*
X86260000Y-89710000D02*
X88930000Y-89710000D01*
X73560000Y-54150000D02*
X73560000Y-51610000D01*
X86260000Y-51610000D02*
X88930000Y-51610000D01*
X73560000Y-51610000D02*
X70890000Y-51610000D01*
X73560000Y-54150000D02*
X70890000Y-54150000D01*
X70910000Y-51720000D02*
X73450000Y-51720000D01*
X73450000Y-51720000D02*
X73450000Y-54040000D01*
X73450000Y-54040000D02*
X70910000Y-54040000D01*
X70910000Y-54040000D02*
X70910000Y-51720000D01*
G36*
X70910000Y-51720000D02*
G01*
X73450000Y-51720000D01*
X73450000Y-54040000D01*
X70910000Y-54040000D01*
X70910000Y-51720000D01*
G37*
X76100000Y-86470000D02*
X83710000Y-86470000D01*
X83710000Y-86470000D02*
X83710000Y-92280000D01*
X83710000Y-92280000D02*
X76100000Y-92280000D01*
X76100000Y-92280000D02*
X76100000Y-86470000D01*
G36*
X76100000Y-86470000D02*
G01*
X83710000Y-86470000D01*
X83710000Y-92280000D01*
X76100000Y-92280000D01*
X76100000Y-86470000D01*
G37*
X127060000Y-97110000D02*
X129730000Y-97110000D01*
X114360000Y-99650000D02*
X114360000Y-97110000D01*
X127060000Y-135210000D02*
X129730000Y-135210000D01*
X114360000Y-99650000D02*
X114360000Y-135210000D01*
X114360000Y-135210000D02*
X111690000Y-135210000D01*
X127060000Y-97110000D02*
X127060000Y-135210000D01*
X114360000Y-97110000D02*
X111690000Y-97110000D01*
X114360000Y-99650000D02*
X111690000Y-99650000D01*
X116900000Y-131970000D02*
X124510000Y-131970000D01*
X124510000Y-131970000D02*
X124510000Y-137780000D01*
X124510000Y-137780000D02*
X116900000Y-137780000D01*
X116900000Y-137780000D02*
X116900000Y-131970000D01*
G36*
X116900000Y-131970000D02*
G01*
X124510000Y-131970000D01*
X124510000Y-137780000D01*
X116900000Y-137780000D01*
X116900000Y-131970000D01*
G37*
X111710000Y-97220000D02*
X114250000Y-97220000D01*
X114250000Y-97220000D02*
X114250000Y-99540000D01*
X114250000Y-99540000D02*
X111710000Y-99540000D01*
X111710000Y-99540000D02*
X111710000Y-97220000D01*
G36*
X111710000Y-97220000D02*
G01*
X114250000Y-97220000D01*
X114250000Y-99540000D01*
X111710000Y-99540000D01*
X111710000Y-97220000D01*
G37*
X139525439Y-100729447D02*
X139525439Y-101414447D01*
X139525439Y-101414447D02*
X138830439Y-101414447D01*
X73560000Y-97110000D02*
X70890000Y-97110000D01*
X73560000Y-99650000D02*
X70890000Y-99650000D01*
X86260000Y-97110000D02*
X88930000Y-97110000D01*
X73560000Y-99650000D02*
X73560000Y-97110000D01*
X73560000Y-99650000D02*
X73560000Y-135210000D01*
X73560000Y-135210000D02*
X70890000Y-135210000D01*
X86260000Y-97110000D02*
X86260000Y-135210000D01*
X86260000Y-135210000D02*
X88930000Y-135210000D01*
X70910000Y-97220000D02*
X73450000Y-97220000D01*
X73450000Y-97220000D02*
X73450000Y-99540000D01*
X73450000Y-99540000D02*
X70910000Y-99540000D01*
X70910000Y-99540000D02*
X70910000Y-97220000D01*
G36*
X70910000Y-97220000D02*
G01*
X73450000Y-97220000D01*
X73450000Y-99540000D01*
X70910000Y-99540000D01*
X70910000Y-97220000D01*
G37*
X76100000Y-131970000D02*
X83710000Y-131970000D01*
X83710000Y-131970000D02*
X83710000Y-137780000D01*
X83710000Y-137780000D02*
X76100000Y-137780000D01*
X76100000Y-137780000D02*
X76100000Y-131970000D01*
G36*
X76100000Y-131970000D02*
G01*
X83710000Y-131970000D01*
X83710000Y-137780000D01*
X76100000Y-137780000D01*
X76100000Y-131970000D01*
G37*
D15*
X138470000Y-94380000D02*
G75*
G03*
X138470000Y-92380000I0J1000000D01*
G01*
X143970000Y-92380000D02*
G75*
G03*
X143970000Y-94380000I0J-1000000D01*
G01*
D14*
X78325439Y-55229447D02*
X78325439Y-55914447D01*
X78325439Y-55914447D02*
X77630439Y-55914447D01*
D15*
X123570000Y-137890000D02*
G75*
G03*
X123570000Y-139890000I0J-1000000D01*
G01*
X118070000Y-139890000D02*
G75*
G03*
X118070000Y-137890000I0J1000000D01*
G01*
D14*
X93960000Y-51610000D02*
X91290000Y-51610000D01*
X93960000Y-54150000D02*
X93960000Y-89710000D01*
X93960000Y-54150000D02*
X93960000Y-51610000D01*
X106660000Y-89710000D02*
X109330000Y-89710000D01*
X93960000Y-89710000D02*
X91290000Y-89710000D01*
X93960000Y-54150000D02*
X91290000Y-54150000D01*
X106660000Y-51610000D02*
X109330000Y-51610000D01*
X106660000Y-51610000D02*
X106660000Y-89710000D01*
X91310000Y-51720000D02*
X93850000Y-51720000D01*
X93850000Y-51720000D02*
X93850000Y-54040000D01*
X93850000Y-54040000D02*
X91310000Y-54040000D01*
X91310000Y-54040000D02*
X91310000Y-51720000D01*
G36*
X91310000Y-51720000D02*
G01*
X93850000Y-51720000D01*
X93850000Y-54040000D01*
X91310000Y-54040000D01*
X91310000Y-51720000D01*
G37*
X96500000Y-86470000D02*
X104110000Y-86470000D01*
X104110000Y-86470000D02*
X104110000Y-92280000D01*
X104110000Y-92280000D02*
X96500000Y-92280000D01*
X96500000Y-92280000D02*
X96500000Y-86470000D01*
G36*
X96500000Y-86470000D02*
G01*
X104110000Y-86470000D01*
X104110000Y-92280000D01*
X96500000Y-92280000D01*
X96500000Y-86470000D01*
G37*
X103535439Y-55169447D02*
X103535439Y-55854447D01*
X103535439Y-55854447D02*
X102840439Y-55854447D01*
X78325439Y-101414447D02*
X77630439Y-101414447D01*
X78325439Y-100729447D02*
X78325439Y-101414447D01*
X144335439Y-55169447D02*
X144335439Y-55854447D01*
X144335439Y-55854447D02*
X143640439Y-55854447D01*
X119125439Y-55229447D02*
X119125439Y-55914447D01*
X119125439Y-55914447D02*
X118430439Y-55914447D01*
D15*
X97670000Y-139890000D02*
G75*
G03*
X97670000Y-137890000I0J1000000D01*
G01*
X103170000Y-137890000D02*
G75*
G03*
X103170000Y-139890000I0J-1000000D01*
G01*
D14*
X147460000Y-89710000D02*
X150130000Y-89710000D01*
X134760000Y-54150000D02*
X134760000Y-89710000D01*
X134760000Y-51610000D02*
X132090000Y-51610000D01*
X134760000Y-54150000D02*
X132090000Y-54150000D01*
X147460000Y-51610000D02*
X150130000Y-51610000D01*
X134760000Y-54150000D02*
X134760000Y-51610000D01*
X147460000Y-51610000D02*
X147460000Y-89710000D01*
X134760000Y-89710000D02*
X132090000Y-89710000D01*
X137300000Y-86470000D02*
X144910000Y-86470000D01*
X144910000Y-86470000D02*
X144910000Y-92280000D01*
X144910000Y-92280000D02*
X137300000Y-92280000D01*
X137300000Y-92280000D02*
X137300000Y-86470000D01*
G36*
X137300000Y-86470000D02*
G01*
X144910000Y-86470000D01*
X144910000Y-92280000D01*
X137300000Y-92280000D01*
X137300000Y-86470000D01*
G37*
X132110000Y-51720000D02*
X134650000Y-51720000D01*
X134650000Y-51720000D02*
X134650000Y-54040000D01*
X134650000Y-54040000D02*
X132110000Y-54040000D01*
X132110000Y-54040000D02*
X132110000Y-51720000D01*
G36*
X132110000Y-51720000D02*
G01*
X134650000Y-51720000D01*
X134650000Y-54040000D01*
X132110000Y-54040000D01*
X132110000Y-51720000D01*
G37*
D15*
X118070000Y-94380000D02*
G75*
G03*
X118070000Y-92380000I0J1000000D01*
G01*
X123570000Y-92380000D02*
G75*
G03*
X123570000Y-94380000I0J-1000000D01*
G01*
D14*
X139525439Y-55229447D02*
X139525439Y-55914447D01*
X139525439Y-55914447D02*
X138830439Y-55914447D01*
X93960000Y-99650000D02*
X93960000Y-97110000D01*
X106660000Y-97110000D02*
X106660000Y-135210000D01*
X93960000Y-99650000D02*
X93960000Y-135210000D01*
X93960000Y-97110000D02*
X91290000Y-97110000D01*
X93960000Y-135210000D02*
X91290000Y-135210000D01*
X106660000Y-97110000D02*
X109330000Y-97110000D01*
X106660000Y-135210000D02*
X109330000Y-135210000D01*
X93960000Y-99650000D02*
X91290000Y-99650000D01*
X96500000Y-131970000D02*
X104110000Y-131970000D01*
X104110000Y-131970000D02*
X104110000Y-137780000D01*
X104110000Y-137780000D02*
X96500000Y-137780000D01*
X96500000Y-137780000D02*
X96500000Y-131970000D01*
G36*
X96500000Y-131970000D02*
G01*
X104110000Y-131970000D01*
X104110000Y-137780000D01*
X96500000Y-137780000D01*
X96500000Y-131970000D01*
G37*
X91310000Y-97220000D02*
X93850000Y-97220000D01*
X93850000Y-97220000D02*
X93850000Y-99540000D01*
X93850000Y-99540000D02*
X91310000Y-99540000D01*
X91310000Y-99540000D02*
X91310000Y-97220000D01*
G36*
X91310000Y-97220000D02*
G01*
X93850000Y-97220000D01*
X93850000Y-99540000D01*
X91310000Y-99540000D01*
X91310000Y-97220000D01*
G37*
X83135439Y-55854447D02*
X82440439Y-55854447D01*
X83135439Y-55169447D02*
X83135439Y-55854447D01*
D15*
X138450000Y-48860000D02*
G75*
G03*
X138450000Y-46860000I0J1000000D01*
G01*
X143950000Y-46860000D02*
G75*
G03*
X143950000Y-48860000I0J-1000000D01*
G01*
D14*
X62735439Y-101354447D02*
X62040439Y-101354447D01*
X62735439Y-100669447D02*
X62735439Y-101354447D01*
X147460000Y-135210000D02*
X150130000Y-135210000D01*
X134760000Y-99650000D02*
X132090000Y-99650000D01*
X147460000Y-97110000D02*
X147460000Y-135210000D01*
X134760000Y-135210000D02*
X132090000Y-135210000D01*
X134760000Y-97110000D02*
X132090000Y-97110000D01*
X147460000Y-97110000D02*
X150130000Y-97110000D01*
X134760000Y-99650000D02*
X134760000Y-97110000D01*
X134760000Y-99650000D02*
X134760000Y-135210000D01*
X132110000Y-97220000D02*
X134650000Y-97220000D01*
X134650000Y-97220000D02*
X134650000Y-99540000D01*
X134650000Y-99540000D02*
X132110000Y-99540000D01*
X132110000Y-99540000D02*
X132110000Y-97220000D01*
G36*
X132110000Y-97220000D02*
G01*
X134650000Y-97220000D01*
X134650000Y-99540000D01*
X132110000Y-99540000D01*
X132110000Y-97220000D01*
G37*
X137300000Y-131970000D02*
X144910000Y-131970000D01*
X144910000Y-131970000D02*
X144910000Y-137780000D01*
X144910000Y-137780000D02*
X137300000Y-137780000D01*
X137300000Y-137780000D02*
X137300000Y-131970000D01*
G36*
X137300000Y-131970000D02*
G01*
X144910000Y-131970000D01*
X144910000Y-137780000D01*
X137300000Y-137780000D01*
X137300000Y-131970000D01*
G37*
X83135439Y-101354447D02*
X82440439Y-101354447D01*
X83135439Y-100669447D02*
X83135439Y-101354447D01*
X57925439Y-100729447D02*
X57925439Y-101414447D01*
X57925439Y-101414447D02*
X57230439Y-101414447D01*
D15*
X97660000Y-48860000D02*
G75*
G03*
X97660000Y-46860000I0J1000000D01*
G01*
X103160000Y-46860000D02*
G75*
G03*
X103160000Y-48860000I0J-1000000D01*
G01*
D14*
X53160000Y-99650000D02*
X53160000Y-135210000D01*
X65860000Y-135210000D02*
X68530000Y-135210000D01*
X53160000Y-97110000D02*
X50490000Y-97110000D01*
X53160000Y-99650000D02*
X50490000Y-99650000D01*
X65860000Y-97110000D02*
X68530000Y-97110000D01*
X65860000Y-97110000D02*
X65860000Y-135210000D01*
X53160000Y-135210000D02*
X50490000Y-135210000D01*
X53160000Y-99650000D02*
X53160000Y-97110000D01*
X55700000Y-131970000D02*
X63310000Y-131970000D01*
X63310000Y-131970000D02*
X63310000Y-137780000D01*
X63310000Y-137780000D02*
X55700000Y-137780000D01*
X55700000Y-137780000D02*
X55700000Y-131970000D01*
G36*
X55700000Y-131970000D02*
G01*
X63310000Y-131970000D01*
X63310000Y-137780000D01*
X55700000Y-137780000D01*
X55700000Y-131970000D01*
G37*
X50510000Y-97220000D02*
X53050000Y-97220000D01*
X53050000Y-97220000D02*
X53050000Y-99540000D01*
X53050000Y-99540000D02*
X50510000Y-99540000D01*
X50510000Y-99540000D02*
X50510000Y-97220000D01*
G36*
X50510000Y-97220000D02*
G01*
X53050000Y-97220000D01*
X53050000Y-99540000D01*
X50510000Y-99540000D01*
X50510000Y-97220000D01*
G37*
X62735439Y-55854447D02*
X62040439Y-55854447D01*
X62735439Y-55169447D02*
X62735439Y-55854447D01*
D15*
X62370000Y-137890000D02*
G75*
G03*
X62370000Y-139890000I0J-1000000D01*
G01*
X56870000Y-139890000D02*
G75*
G03*
X56870000Y-137890000I0J1000000D01*
G01*
D14*
X65860000Y-89710000D02*
X68530000Y-89710000D01*
X53160000Y-54150000D02*
X53160000Y-89710000D01*
X53160000Y-54150000D02*
X50490000Y-54150000D01*
X65860000Y-51610000D02*
X68530000Y-51610000D01*
X53160000Y-89710000D02*
X50490000Y-89710000D01*
X53160000Y-54150000D02*
X53160000Y-51610000D01*
X53160000Y-51610000D02*
X50490000Y-51610000D01*
X65860000Y-51610000D02*
X65860000Y-89710000D01*
X55700000Y-86470000D02*
X63310000Y-86470000D01*
X63310000Y-86470000D02*
X63310000Y-92280000D01*
X63310000Y-92280000D02*
X55700000Y-92280000D01*
X55700000Y-92280000D02*
X55700000Y-86470000D01*
G36*
X55700000Y-86470000D02*
G01*
X63310000Y-86470000D01*
X63310000Y-92280000D01*
X55700000Y-92280000D01*
X55700000Y-86470000D01*
G37*
X50510000Y-51720000D02*
X53050000Y-51720000D01*
X53050000Y-51720000D02*
X53050000Y-54040000D01*
X53050000Y-54040000D02*
X50510000Y-54040000D01*
X50510000Y-54040000D02*
X50510000Y-51720000D01*
G36*
X50510000Y-51720000D02*
G01*
X53050000Y-51720000D01*
X53050000Y-54040000D01*
X50510000Y-54040000D01*
X50510000Y-51720000D01*
G37*
D15*
X82770000Y-92380000D02*
G75*
G03*
X82770000Y-94380000I0J-1000000D01*
G01*
X77270000Y-94380000D02*
G75*
G03*
X77270000Y-92380000I0J1000000D01*
G01*
X56860000Y-48860000D02*
G75*
G03*
X56860000Y-46860000I0J1000000D01*
G01*
X62360000Y-46860000D02*
G75*
G03*
X62360000Y-48860000I0J-1000000D01*
G01*
X143970000Y-137890000D02*
G75*
G03*
X143970000Y-139890000I0J-1000000D01*
G01*
X138470000Y-139890000D02*
G75*
G03*
X138470000Y-137890000I0J1000000D01*
G01*
D14*
X123935439Y-55854447D02*
X123240439Y-55854447D01*
X123935439Y-55169447D02*
X123935439Y-55854447D01*
X103535439Y-101354447D02*
X102840439Y-101354447D01*
X103535439Y-100669447D02*
X103535439Y-101354447D01*
D15*
X82770000Y-137890000D02*
G75*
G03*
X82770000Y-139890000I0J-1000000D01*
G01*
X77270000Y-139890000D02*
G75*
G03*
X77270000Y-137890000I0J1000000D01*
G01*
D14*
X119125439Y-100729447D02*
X119125439Y-101414447D01*
X119125439Y-101414447D02*
X118430439Y-101414447D01*
D15*
X103170000Y-92380000D02*
G75*
G03*
X103170000Y-94380000I0J-1000000D01*
G01*
X97670000Y-94380000D02*
G75*
G03*
X97670000Y-92380000I0J1000000D01*
G01*
X118060000Y-48860000D02*
G75*
G03*
X118060000Y-46860000I0J1000000D01*
G01*
X123560000Y-46860000D02*
G75*
G03*
X123560000Y-48860000I0J-1000000D01*
G01*
%LPC*%
D16*
X123160000Y-127619000D03*
D17*
X123160000Y-125460000D03*
X123160000Y-123301000D03*
X123160000Y-121142000D03*
X123160000Y-118983000D03*
X123160000Y-116824000D03*
X123160000Y-114665000D03*
X123160000Y-112506000D03*
X123160000Y-110347000D03*
X123160000Y-108188000D03*
X123160000Y-106029000D03*
X123160000Y-103870000D03*
X118480000Y-127594500D03*
X118480000Y-125435500D03*
X118480000Y-123276500D03*
X118480000Y-121117500D03*
X118480000Y-118958500D03*
X118480000Y-116799500D03*
X118480000Y-114640500D03*
X118480000Y-112481500D03*
X118480000Y-110322500D03*
X118480000Y-108163500D03*
X118480000Y-106004500D03*
X118480000Y-103845500D03*
D18*
X98030439Y-100729447D03*
D16*
X82340000Y-82119000D03*
D17*
X82340000Y-79960000D03*
X82340000Y-77801000D03*
X82340000Y-75642000D03*
X82340000Y-73483000D03*
X82340000Y-71324000D03*
X82340000Y-69165000D03*
X82340000Y-67006000D03*
X82340000Y-64847000D03*
X82340000Y-62688000D03*
X82340000Y-60529000D03*
X82340000Y-58370000D03*
X77660000Y-82094500D03*
X77660000Y-79935500D03*
X77660000Y-77776500D03*
X77660000Y-75617500D03*
X77660000Y-73458500D03*
X77660000Y-71299500D03*
X77660000Y-69140500D03*
X77660000Y-66981500D03*
X77660000Y-64822500D03*
X77660000Y-62663500D03*
X77660000Y-60504500D03*
X77660000Y-58345500D03*
D16*
X143540000Y-82119000D03*
D17*
X143540000Y-79960000D03*
X143540000Y-77801000D03*
X143540000Y-75642000D03*
X143540000Y-73483000D03*
X143540000Y-71324000D03*
X143540000Y-69165000D03*
X143540000Y-67006000D03*
X143540000Y-64847000D03*
X143540000Y-62688000D03*
X143540000Y-60529000D03*
X143540000Y-58370000D03*
X138860000Y-82094500D03*
X138860000Y-79935500D03*
X138860000Y-77776500D03*
X138860000Y-75617500D03*
X138860000Y-73458500D03*
X138860000Y-71299500D03*
X138860000Y-69140500D03*
X138860000Y-66981500D03*
X138860000Y-64822500D03*
X138860000Y-62663500D03*
X138860000Y-60504500D03*
X138860000Y-58345500D03*
D18*
X123240439Y-100669447D03*
X98030439Y-55229447D03*
X143640439Y-100669447D03*
X57230439Y-55229447D03*
D19*
X80010000Y-48610000D03*
X78510000Y-48610000D03*
X81510000Y-48610000D03*
X80760000Y-48610000D03*
X79260000Y-48610000D03*
D16*
X61940000Y-82119000D03*
D17*
X61940000Y-79960000D03*
X61940000Y-77801000D03*
X61940000Y-75642000D03*
X61940000Y-73483000D03*
X61940000Y-71324000D03*
X61940000Y-69165000D03*
X61940000Y-67006000D03*
X61940000Y-64847000D03*
X61940000Y-62688000D03*
X61940000Y-60529000D03*
X61940000Y-58370000D03*
X57260000Y-82094500D03*
X57260000Y-79935500D03*
X57260000Y-77776500D03*
X57260000Y-75617500D03*
X57260000Y-73458500D03*
X57260000Y-71299500D03*
X57260000Y-69140500D03*
X57260000Y-66981500D03*
X57260000Y-64822500D03*
X57260000Y-62663500D03*
X57260000Y-60504500D03*
X57260000Y-58345500D03*
D19*
X61120000Y-92630000D03*
X60370000Y-94130000D03*
X60370000Y-92630000D03*
X59620000Y-92630000D03*
X58120000Y-94130000D03*
X61120000Y-94130000D03*
X58870000Y-92630000D03*
X59620000Y-94130000D03*
X58870000Y-94130000D03*
X58120000Y-92630000D03*
D18*
X138830439Y-100729447D03*
D19*
X140470000Y-92630000D03*
X141220000Y-92630000D03*
X141970000Y-94130000D03*
X142720000Y-94130000D03*
X139720000Y-92630000D03*
X142720000Y-92630000D03*
X140470000Y-94130000D03*
X139720000Y-94130000D03*
X141220000Y-94130000D03*
X141970000Y-92630000D03*
D18*
X77630439Y-55229447D03*
D19*
X119320000Y-138140000D03*
X120070000Y-138140000D03*
X122320000Y-138140000D03*
X121570000Y-138140000D03*
X120820000Y-138140000D03*
D16*
X102740000Y-127619000D03*
D17*
X102740000Y-125460000D03*
X102740000Y-123301000D03*
X102740000Y-121142000D03*
X102740000Y-118983000D03*
X102740000Y-116824000D03*
X102740000Y-114665000D03*
X102740000Y-112506000D03*
X102740000Y-110347000D03*
X102740000Y-108188000D03*
X102740000Y-106029000D03*
X102740000Y-103870000D03*
X98060000Y-127594500D03*
X98060000Y-125435500D03*
X98060000Y-123276500D03*
X98060000Y-121117500D03*
X98060000Y-118958500D03*
X98060000Y-116799500D03*
X98060000Y-114640500D03*
X98060000Y-112481500D03*
X98060000Y-110322500D03*
X98060000Y-108163500D03*
X98060000Y-106004500D03*
X98060000Y-103845500D03*
D18*
X102840439Y-55169447D03*
X77630439Y-100729447D03*
X143640439Y-55169447D03*
X118430439Y-55229447D03*
D16*
X102740000Y-82119000D03*
D17*
X102740000Y-79960000D03*
X102740000Y-77801000D03*
X102740000Y-75642000D03*
X102740000Y-73483000D03*
X102740000Y-71324000D03*
X102740000Y-69165000D03*
X102740000Y-67006000D03*
X102740000Y-64847000D03*
X102740000Y-62688000D03*
X102740000Y-60529000D03*
X102740000Y-58370000D03*
X98060000Y-82094500D03*
X98060000Y-79935500D03*
X98060000Y-77776500D03*
X98060000Y-75617500D03*
X98060000Y-73458500D03*
X98060000Y-71299500D03*
X98060000Y-69140500D03*
X98060000Y-66981500D03*
X98060000Y-64822500D03*
X98060000Y-62663500D03*
X98060000Y-60504500D03*
X98060000Y-58345500D03*
D19*
X98920000Y-138140000D03*
X99670000Y-138140000D03*
X101920000Y-138140000D03*
X101170000Y-138140000D03*
X100420000Y-138140000D03*
X122320000Y-94130000D03*
X120820000Y-92630000D03*
X119320000Y-92630000D03*
X122320000Y-92630000D03*
X119320000Y-94130000D03*
X120820000Y-94130000D03*
X121570000Y-92630000D03*
X120070000Y-92630000D03*
X120070000Y-94130000D03*
X121570000Y-94130000D03*
D18*
X138830439Y-55229447D03*
X82440439Y-55169447D03*
D16*
X82340000Y-127619000D03*
D17*
X82340000Y-125460000D03*
X82340000Y-123301000D03*
X82340000Y-121142000D03*
X82340000Y-118983000D03*
X82340000Y-116824000D03*
X82340000Y-114665000D03*
X82340000Y-112506000D03*
X82340000Y-110347000D03*
X82340000Y-108188000D03*
X82340000Y-106029000D03*
X82340000Y-103870000D03*
X77660000Y-127594500D03*
X77660000Y-125435500D03*
X77660000Y-123276500D03*
X77660000Y-121117500D03*
X77660000Y-118958500D03*
X77660000Y-116799500D03*
X77660000Y-114640500D03*
X77660000Y-112481500D03*
X77660000Y-110322500D03*
X77660000Y-108163500D03*
X77660000Y-106004500D03*
X77660000Y-103845500D03*
D19*
X140450000Y-48610000D03*
X139700000Y-48610000D03*
X141200000Y-48610000D03*
X141950000Y-48610000D03*
X142700000Y-48610000D03*
D18*
X62040439Y-100669447D03*
X82440439Y-100669447D03*
X57230439Y-100729447D03*
D19*
X98910000Y-48610000D03*
X101160000Y-48610000D03*
X99660000Y-48610000D03*
X101910000Y-48610000D03*
X100410000Y-48610000D03*
D18*
X62040439Y-55169447D03*
D19*
X60370000Y-138140000D03*
X61120000Y-138140000D03*
X59620000Y-138140000D03*
X58120000Y-138140000D03*
X58870000Y-138140000D03*
X78520000Y-92630000D03*
X79270000Y-94130000D03*
X81520000Y-94130000D03*
X80770000Y-94130000D03*
X78520000Y-94130000D03*
X80020000Y-92630000D03*
X81520000Y-92630000D03*
X79270000Y-92630000D03*
X80020000Y-94130000D03*
X80770000Y-92630000D03*
X60360000Y-48610000D03*
X58110000Y-48610000D03*
X59610000Y-48610000D03*
X61110000Y-48610000D03*
X58860000Y-48610000D03*
D16*
X143570000Y-127609000D03*
D17*
X143570000Y-125450000D03*
X143570000Y-123291000D03*
X143570000Y-121132000D03*
X143570000Y-118973000D03*
X143570000Y-116814000D03*
X143570000Y-114655000D03*
X143570000Y-112496000D03*
X143570000Y-110337000D03*
X143570000Y-108178000D03*
X143570000Y-106019000D03*
X143570000Y-103860000D03*
X138890000Y-127584500D03*
X138890000Y-125425500D03*
X138890000Y-123266500D03*
X138890000Y-121107500D03*
X138890000Y-118948500D03*
X138890000Y-116789500D03*
X138890000Y-114630500D03*
X138890000Y-112471500D03*
X138890000Y-110312500D03*
X138890000Y-108153500D03*
X138890000Y-105994500D03*
X138890000Y-103835500D03*
D19*
X139720000Y-138140000D03*
X141220000Y-138140000D03*
X141970000Y-138140000D03*
X140470000Y-138140000D03*
X142720000Y-138140000D03*
D18*
X123240439Y-55169447D03*
X102840439Y-100669447D03*
D19*
X80020000Y-138140000D03*
X80770000Y-138140000D03*
X79270000Y-138140000D03*
X81520000Y-138140000D03*
X78520000Y-138140000D03*
D16*
X123140000Y-82119000D03*
D17*
X123140000Y-79960000D03*
X123140000Y-77801000D03*
X123140000Y-75642000D03*
X123140000Y-73483000D03*
X123140000Y-71324000D03*
X123140000Y-69165000D03*
X123140000Y-67006000D03*
X123140000Y-64847000D03*
X123140000Y-62688000D03*
X123140000Y-60529000D03*
X123140000Y-58370000D03*
X118460000Y-82094500D03*
X118460000Y-79935500D03*
X118460000Y-77776500D03*
X118460000Y-75617500D03*
X118460000Y-73458500D03*
X118460000Y-71299500D03*
X118460000Y-69140500D03*
X118460000Y-66981500D03*
X118460000Y-64822500D03*
X118460000Y-62663500D03*
X118460000Y-60504500D03*
X118460000Y-58345500D03*
D18*
X118430439Y-100729447D03*
D19*
X99670000Y-94130000D03*
X101170000Y-92630000D03*
X98920000Y-94130000D03*
X98920000Y-92630000D03*
X101920000Y-92630000D03*
X101920000Y-94130000D03*
X99670000Y-92630000D03*
X100420000Y-92630000D03*
X100420000Y-94130000D03*
X101170000Y-94130000D03*
D16*
X61940000Y-127619000D03*
D17*
X61940000Y-125460000D03*
X61940000Y-123301000D03*
X61940000Y-121142000D03*
X61940000Y-118983000D03*
X61940000Y-116824000D03*
X61940000Y-114665000D03*
X61940000Y-112506000D03*
X61940000Y-110347000D03*
X61940000Y-108188000D03*
X61940000Y-106029000D03*
X61940000Y-103870000D03*
X57260000Y-127594500D03*
X57260000Y-125435500D03*
X57260000Y-123276500D03*
X57260000Y-121117500D03*
X57260000Y-118958500D03*
X57260000Y-116799500D03*
X57260000Y-114640500D03*
X57260000Y-112481500D03*
X57260000Y-110322500D03*
X57260000Y-108163500D03*
X57260000Y-106004500D03*
X57260000Y-103845500D03*
D19*
X121560000Y-48610000D03*
X120810000Y-48610000D03*
X122310000Y-48610000D03*
X120060000Y-48610000D03*
X119310000Y-48610000D03*
M02*
