M48
; DRILL file {KiCad 6.0.1-79c1e3a40b~116~ubuntu20.04.1} date Tue 18 Jan 2022 04:31:02 PM CET
; FORMAT={-:-/ absolute / metric / decimal}
; #@! TF.CreationDate,2022-01-18T16:31:02+01:00
; #@! TF.GenerationSoftware,Kicad,Pcbnew,6.0.1-79c1e3a40b~116~ubuntu20.04.1
; #@! TF.FileFunction,NonPlated,1,2,NPTH
FMAT,2
METRIC
; #@! TA.AperFunction,NonPlated,NPTH,ComponentDrill
T1C0.500
%
G90
G05
T1
X58.11Y-48.61
X58.12Y-92.63
X58.12Y-94.13
X58.12Y-138.14
X58.86Y-48.61
X58.87Y-92.63
X58.87Y-94.13
X58.87Y-138.14
X59.61Y-48.61
X59.62Y-92.63
X59.62Y-94.13
X59.62Y-138.14
X60.36Y-48.61
X60.37Y-92.63
X60.37Y-94.13
X60.37Y-138.14
X61.11Y-48.61
X61.12Y-92.63
X61.12Y-94.13
X61.12Y-138.14
X78.51Y-48.61
X78.52Y-92.63
X78.52Y-94.13
X78.52Y-138.14
X79.26Y-48.61
X79.27Y-92.63
X79.27Y-94.13
X79.27Y-138.14
X80.01Y-48.61
X80.02Y-92.63
X80.02Y-94.13
X80.02Y-138.14
X80.76Y-48.61
X80.77Y-92.63
X80.77Y-94.13
X80.77Y-138.14
X81.51Y-48.61
X81.52Y-92.63
X81.52Y-94.13
X81.52Y-138.14
X98.91Y-48.61
X98.92Y-92.63
X98.92Y-94.13
X98.92Y-138.14
X99.66Y-48.61
X99.67Y-92.63
X99.67Y-94.13
X99.67Y-138.14
X100.41Y-48.61
X100.42Y-92.63
X100.42Y-94.13
X100.42Y-138.14
X101.16Y-48.61
X101.17Y-92.63
X101.17Y-94.13
X101.17Y-138.14
X101.91Y-48.61
X101.92Y-92.63
X101.92Y-94.13
X101.92Y-138.14
X119.31Y-48.61
X119.32Y-92.63
X119.32Y-94.13
X119.32Y-138.14
X120.06Y-48.61
X120.07Y-92.63
X120.07Y-94.13
X120.07Y-138.14
X120.81Y-48.61
X120.82Y-92.63
X120.82Y-94.13
X120.82Y-138.14
X121.56Y-48.61
X121.57Y-92.63
X121.57Y-94.13
X121.57Y-138.14
X122.31Y-48.61
X122.32Y-92.63
X122.32Y-94.13
X122.32Y-138.14
X139.7Y-48.61
X139.72Y-92.63
X139.72Y-94.13
X139.72Y-138.14
X140.45Y-48.61
X140.47Y-92.63
X140.47Y-94.13
X140.47Y-138.14
X141.2Y-48.61
X141.22Y-92.63
X141.22Y-94.13
X141.22Y-138.14
X141.95Y-48.61
X141.97Y-92.63
X141.97Y-94.13
X141.97Y-138.14
X142.7Y-48.61
X142.72Y-92.63
X142.72Y-94.13
X142.72Y-138.14
T0
M30
