M48
; DRILL file {KiCad 6.0.1-79c1e3a40b~116~ubuntu20.04.1} date Tue 18 Jan 2022 04:31:02 PM CET
; FORMAT={-:-/ absolute / metric / decimal}
; #@! TF.CreationDate,2022-01-18T16:31:02+01:00
; #@! TF.GenerationSoftware,Kicad,Pcbnew,6.0.1-79c1e3a40b~116~ubuntu20.04.1
; #@! TF.FileFunction,Plated,1,2,PTH
FMAT,2
METRIC
; #@! TA.AperFunction,Plated,PTH,ViaDrill
T1C0.400
; #@! TA.AperFunction,Plated,PTH,ComponentDrill
T2C0.500
; #@! TA.AperFunction,Plated,PTH,ComponentDrill
T3C0.900
; #@! TA.AperFunction,Plated,PTH,ComponentDrill
T4C1.000
%
G90
G05
T1
X51.86Y-96.06
X51.88Y-50.62
X51.96Y-136.33
X52.1Y-90.92
X53.49Y-79.689
X53.49Y-125.189
X61.923Y-84.757
X61.923Y-87.678
X61.923Y-130.257
X61.923Y-133.178
X63.32Y-83.741
X63.32Y-87.932
X63.32Y-129.241
X63.32Y-133.432
X63.73Y-82.699
X63.73Y-128.199
X64.722Y-88.357
X64.722Y-133.857
X67.01Y-96.02
X67.03Y-50.58
X67.11Y-136.29
X67.25Y-90.88
X72.26Y-96.06
X72.28Y-50.62
X72.36Y-136.33
X72.5Y-90.92
X73.89Y-79.689
X73.89Y-125.189
X82.323Y-84.757
X82.323Y-87.678
X82.323Y-130.257
X82.323Y-133.178
X83.72Y-83.741
X83.72Y-87.932
X83.72Y-129.241
X83.72Y-133.432
X84.13Y-82.699
X84.13Y-128.199
X85.122Y-88.357
X85.122Y-133.857
X87.41Y-96.02
X87.43Y-50.58
X87.51Y-136.29
X87.65Y-90.88
X92.66Y-96.06
X92.68Y-50.62
X92.76Y-136.33
X92.9Y-90.92
X94.29Y-79.689
X94.29Y-125.189
X102.723Y-84.757
X102.723Y-87.678
X102.723Y-130.257
X102.723Y-133.178
X104.12Y-83.741
X104.12Y-87.932
X104.12Y-129.241
X104.12Y-133.432
X104.53Y-82.699
X104.53Y-128.199
X105.522Y-88.357
X105.522Y-133.857
X107.81Y-96.02
X107.83Y-50.58
X107.91Y-136.29
X108.05Y-90.88
X113.06Y-96.06
X113.08Y-50.62
X113.16Y-136.33
X113.3Y-90.92
X114.69Y-79.689
X114.69Y-125.189
X123.123Y-84.757
X123.123Y-87.678
X123.123Y-130.257
X123.123Y-133.178
X124.52Y-83.741
X124.52Y-87.932
X124.52Y-129.241
X124.52Y-133.432
X124.93Y-82.699
X124.93Y-128.199
X125.922Y-88.357
X125.922Y-133.857
X128.21Y-96.02
X128.23Y-50.58
X128.31Y-136.29
X128.45Y-90.88
X133.46Y-96.06
X133.48Y-50.62
X133.56Y-136.33
X133.7Y-90.92
X135.09Y-79.689
X135.09Y-125.189
X143.523Y-84.757
X143.523Y-87.678
X143.523Y-130.257
X143.523Y-133.178
X144.92Y-83.741
X144.92Y-87.932
X144.92Y-129.241
X144.92Y-133.432
X145.33Y-82.699
X145.33Y-128.199
X146.322Y-88.357
X146.322Y-133.857
X148.61Y-96.02
X148.63Y-50.58
X148.71Y-136.29
X148.85Y-90.88
T2
X57.23Y-55.229
X57.23Y-100.729
X62.04Y-55.169
X62.04Y-100.669
X77.63Y-55.229
X77.63Y-100.729
X82.44Y-55.169
X82.44Y-100.669
X98.03Y-55.229
X98.03Y-100.729
X102.84Y-55.169
X102.84Y-100.669
X118.43Y-55.229
X118.43Y-100.729
X123.24Y-55.169
X123.24Y-100.669
X138.83Y-55.229
X138.83Y-100.729
X143.64Y-55.169
X143.64Y-100.669
T3
X57.26Y-58.345
X57.26Y-60.505
X57.26Y-62.663
X57.26Y-64.822
X57.26Y-66.981
X57.26Y-69.141
X57.26Y-71.299
X57.26Y-73.459
X57.26Y-75.617
X57.26Y-77.776
X57.26Y-79.935
X57.26Y-82.094
X57.26Y-103.846
X57.26Y-106.004
X57.26Y-108.163
X57.26Y-110.322
X57.26Y-112.481
X57.26Y-114.64
X57.26Y-116.799
X57.26Y-118.959
X57.26Y-121.117
X57.26Y-123.276
X57.26Y-125.435
X57.26Y-127.594
X61.94Y-58.37
X61.94Y-60.529
X61.94Y-62.688
X61.94Y-64.847
X61.94Y-67.006
X61.94Y-69.165
X61.94Y-71.324
X61.94Y-73.483
X61.94Y-75.642
X61.94Y-77.801
X61.94Y-79.96
X61.94Y-82.119
X61.94Y-103.87
X61.94Y-106.029
X61.94Y-108.188
X61.94Y-110.347
X61.94Y-112.506
X61.94Y-114.665
X61.94Y-116.824
X61.94Y-118.983
X61.94Y-121.142
X61.94Y-123.301
X61.94Y-125.46
X61.94Y-127.619
X77.66Y-58.345
X77.66Y-60.505
X77.66Y-62.663
X77.66Y-64.822
X77.66Y-66.981
X77.66Y-69.141
X77.66Y-71.299
X77.66Y-73.459
X77.66Y-75.617
X77.66Y-77.776
X77.66Y-79.935
X77.66Y-82.094
X77.66Y-103.846
X77.66Y-106.004
X77.66Y-108.163
X77.66Y-110.322
X77.66Y-112.481
X77.66Y-114.64
X77.66Y-116.799
X77.66Y-118.959
X77.66Y-121.117
X77.66Y-123.276
X77.66Y-125.435
X77.66Y-127.594
X82.34Y-58.37
X82.34Y-60.529
X82.34Y-62.688
X82.34Y-64.847
X82.34Y-67.006
X82.34Y-69.165
X82.34Y-71.324
X82.34Y-73.483
X82.34Y-75.642
X82.34Y-77.801
X82.34Y-79.96
X82.34Y-82.119
X82.34Y-103.87
X82.34Y-106.029
X82.34Y-108.188
X82.34Y-110.347
X82.34Y-112.506
X82.34Y-114.665
X82.34Y-116.824
X82.34Y-118.983
X82.34Y-121.142
X82.34Y-123.301
X82.34Y-125.46
X82.34Y-127.619
X98.06Y-58.345
X98.06Y-60.505
X98.06Y-62.663
X98.06Y-64.822
X98.06Y-66.981
X98.06Y-69.141
X98.06Y-71.299
X98.06Y-73.459
X98.06Y-75.617
X98.06Y-77.776
X98.06Y-79.935
X98.06Y-82.094
X98.06Y-103.846
X98.06Y-106.004
X98.06Y-108.163
X98.06Y-110.322
X98.06Y-112.481
X98.06Y-114.64
X98.06Y-116.799
X98.06Y-118.959
X98.06Y-121.117
X98.06Y-123.276
X98.06Y-125.435
X98.06Y-127.594
X102.74Y-58.37
X102.74Y-60.529
X102.74Y-62.688
X102.74Y-64.847
X102.74Y-67.006
X102.74Y-69.165
X102.74Y-71.324
X102.74Y-73.483
X102.74Y-75.642
X102.74Y-77.801
X102.74Y-79.96
X102.74Y-82.119
X102.74Y-103.87
X102.74Y-106.029
X102.74Y-108.188
X102.74Y-110.347
X102.74Y-112.506
X102.74Y-114.665
X102.74Y-116.824
X102.74Y-118.983
X102.74Y-121.142
X102.74Y-123.301
X102.74Y-125.46
X102.74Y-127.619
X118.46Y-58.345
X118.46Y-60.505
X118.46Y-62.663
X118.46Y-64.822
X118.46Y-66.981
X118.46Y-69.141
X118.46Y-71.299
X118.46Y-73.459
X118.46Y-75.617
X118.46Y-77.776
X118.46Y-79.935
X118.46Y-82.094
X118.48Y-103.846
X118.48Y-106.004
X118.48Y-108.163
X118.48Y-110.322
X118.48Y-112.481
X118.48Y-114.64
X118.48Y-116.799
X118.48Y-118.959
X118.48Y-121.117
X118.48Y-123.276
X118.48Y-125.435
X118.48Y-127.594
X123.14Y-58.37
X123.14Y-60.529
X123.14Y-62.688
X123.14Y-64.847
X123.14Y-67.006
X123.14Y-69.165
X123.14Y-71.324
X123.14Y-73.483
X123.14Y-75.642
X123.14Y-77.801
X123.14Y-79.96
X123.14Y-82.119
X123.16Y-103.87
X123.16Y-106.029
X123.16Y-108.188
X123.16Y-110.347
X123.16Y-112.506
X123.16Y-114.665
X123.16Y-116.824
X123.16Y-118.983
X123.16Y-121.142
X123.16Y-123.301
X123.16Y-125.46
X123.16Y-127.619
X138.86Y-58.345
X138.86Y-60.505
X138.86Y-62.663
X138.86Y-64.822
X138.86Y-66.981
X138.86Y-69.141
X138.86Y-71.299
X138.86Y-73.459
X138.86Y-75.617
X138.86Y-77.776
X138.86Y-79.935
X138.86Y-82.094
X138.89Y-103.835
X138.89Y-105.995
X138.89Y-108.153
X138.89Y-110.312
X138.89Y-112.471
X138.89Y-114.63
X138.89Y-116.789
X138.89Y-118.948
X138.89Y-121.107
X138.89Y-123.266
X138.89Y-125.425
X138.89Y-127.584
X143.54Y-58.37
X143.54Y-60.529
X143.54Y-62.688
X143.54Y-64.847
X143.54Y-67.006
X143.54Y-69.165
X143.54Y-71.324
X143.54Y-73.483
X143.54Y-75.642
X143.54Y-77.801
X143.54Y-79.96
X143.54Y-82.119
X143.57Y-103.86
X143.57Y-106.019
X143.57Y-108.178
X143.57Y-110.337
X143.57Y-112.496
X143.57Y-114.655
X143.57Y-116.814
X143.57Y-118.973
X143.57Y-121.132
X143.57Y-123.291
X143.57Y-125.45
X143.57Y-127.609
T4
X51.89Y-52.88
X51.89Y-55.42
X51.89Y-57.96
X51.89Y-60.5
X51.89Y-63.04
X51.89Y-65.58
X51.89Y-68.12
X51.89Y-70.66
X51.89Y-73.2
X51.89Y-75.74
X51.89Y-78.28
X51.89Y-80.82
X51.89Y-83.36
X51.89Y-85.9
X51.89Y-88.44
X51.89Y-98.38
X51.89Y-100.92
X51.89Y-103.46
X51.89Y-106.0
X51.89Y-108.54
X51.89Y-111.08
X51.89Y-113.62
X51.89Y-116.16
X51.89Y-118.7
X51.89Y-121.24
X51.89Y-123.78
X51.89Y-126.32
X51.89Y-128.86
X51.89Y-131.4
X51.89Y-133.94
X67.13Y-52.88
X67.13Y-55.42
X67.13Y-57.96
X67.13Y-60.5
X67.13Y-63.04
X67.13Y-65.58
X67.13Y-68.12
X67.13Y-70.66
X67.13Y-73.2
X67.13Y-75.74
X67.13Y-78.28
X67.13Y-80.82
X67.13Y-83.36
X67.13Y-85.9
X67.13Y-88.44
X67.13Y-98.38
X67.13Y-100.92
X67.13Y-103.46
X67.13Y-106.0
X67.13Y-108.54
X67.13Y-111.08
X67.13Y-113.62
X67.13Y-116.16
X67.13Y-118.7
X67.13Y-121.24
X67.13Y-123.78
X67.13Y-126.32
X67.13Y-128.86
X67.13Y-131.4
X67.13Y-133.94
X72.29Y-52.88
X72.29Y-55.42
X72.29Y-57.96
X72.29Y-60.5
X72.29Y-63.04
X72.29Y-65.58
X72.29Y-68.12
X72.29Y-70.66
X72.29Y-73.2
X72.29Y-75.74
X72.29Y-78.28
X72.29Y-80.82
X72.29Y-83.36
X72.29Y-85.9
X72.29Y-88.44
X72.29Y-98.38
X72.29Y-100.92
X72.29Y-103.46
X72.29Y-106.0
X72.29Y-108.54
X72.29Y-111.08
X72.29Y-113.62
X72.29Y-116.16
X72.29Y-118.7
X72.29Y-121.24
X72.29Y-123.78
X72.29Y-126.32
X72.29Y-128.86
X72.29Y-131.4
X72.29Y-133.94
X87.53Y-52.88
X87.53Y-55.42
X87.53Y-57.96
X87.53Y-60.5
X87.53Y-63.04
X87.53Y-65.58
X87.53Y-68.12
X87.53Y-70.66
X87.53Y-73.2
X87.53Y-75.74
X87.53Y-78.28
X87.53Y-80.82
X87.53Y-83.36
X87.53Y-85.9
X87.53Y-88.44
X87.53Y-98.38
X87.53Y-100.92
X87.53Y-103.46
X87.53Y-106.0
X87.53Y-108.54
X87.53Y-111.08
X87.53Y-113.62
X87.53Y-116.16
X87.53Y-118.7
X87.53Y-121.24
X87.53Y-123.78
X87.53Y-126.32
X87.53Y-128.86
X87.53Y-131.4
X87.53Y-133.94
X92.69Y-52.88
X92.69Y-55.42
X92.69Y-57.96
X92.69Y-60.5
X92.69Y-63.04
X92.69Y-65.58
X92.69Y-68.12
X92.69Y-70.66
X92.69Y-73.2
X92.69Y-75.74
X92.69Y-78.28
X92.69Y-80.82
X92.69Y-83.36
X92.69Y-85.9
X92.69Y-88.44
X92.69Y-98.38
X92.69Y-100.92
X92.69Y-103.46
X92.69Y-106.0
X92.69Y-108.54
X92.69Y-111.08
X92.69Y-113.62
X92.69Y-116.16
X92.69Y-118.7
X92.69Y-121.24
X92.69Y-123.78
X92.69Y-126.32
X92.69Y-128.86
X92.69Y-131.4
X92.69Y-133.94
X107.93Y-52.88
X107.93Y-55.42
X107.93Y-57.96
X107.93Y-60.5
X107.93Y-63.04
X107.93Y-65.58
X107.93Y-68.12
X107.93Y-70.66
X107.93Y-73.2
X107.93Y-75.74
X107.93Y-78.28
X107.93Y-80.82
X107.93Y-83.36
X107.93Y-85.9
X107.93Y-88.44
X107.93Y-98.38
X107.93Y-100.92
X107.93Y-103.46
X107.93Y-106.0
X107.93Y-108.54
X107.93Y-111.08
X107.93Y-113.62
X107.93Y-116.16
X107.93Y-118.7
X107.93Y-121.24
X107.93Y-123.78
X107.93Y-126.32
X107.93Y-128.86
X107.93Y-131.4
X107.93Y-133.94
X113.09Y-52.88
X113.09Y-55.42
X113.09Y-57.96
X113.09Y-60.5
X113.09Y-63.04
X113.09Y-65.58
X113.09Y-68.12
X113.09Y-70.66
X113.09Y-73.2
X113.09Y-75.74
X113.09Y-78.28
X113.09Y-80.82
X113.09Y-83.36
X113.09Y-85.9
X113.09Y-88.44
X113.09Y-98.38
X113.09Y-100.92
X113.09Y-103.46
X113.09Y-106.0
X113.09Y-108.54
X113.09Y-111.08
X113.09Y-113.62
X113.09Y-116.16
X113.09Y-118.7
X113.09Y-121.24
X113.09Y-123.78
X113.09Y-126.32
X113.09Y-128.86
X113.09Y-131.4
X113.09Y-133.94
X128.33Y-52.88
X128.33Y-55.42
X128.33Y-57.96
X128.33Y-60.5
X128.33Y-63.04
X128.33Y-65.58
X128.33Y-68.12
X128.33Y-70.66
X128.33Y-73.2
X128.33Y-75.74
X128.33Y-78.28
X128.33Y-80.82
X128.33Y-83.36
X128.33Y-85.9
X128.33Y-88.44
X128.33Y-98.38
X128.33Y-100.92
X128.33Y-103.46
X128.33Y-106.0
X128.33Y-108.54
X128.33Y-111.08
X128.33Y-113.62
X128.33Y-116.16
X128.33Y-118.7
X128.33Y-121.24
X128.33Y-123.78
X128.33Y-126.32
X128.33Y-128.86
X128.33Y-131.4
X128.33Y-133.94
X133.49Y-52.88
X133.49Y-55.42
X133.49Y-57.96
X133.49Y-60.5
X133.49Y-63.04
X133.49Y-65.58
X133.49Y-68.12
X133.49Y-70.66
X133.49Y-73.2
X133.49Y-75.74
X133.49Y-78.28
X133.49Y-80.82
X133.49Y-83.36
X133.49Y-85.9
X133.49Y-88.44
X133.49Y-98.38
X133.49Y-100.92
X133.49Y-103.46
X133.49Y-106.0
X133.49Y-108.54
X133.49Y-111.08
X133.49Y-113.62
X133.49Y-116.16
X133.49Y-118.7
X133.49Y-121.24
X133.49Y-123.78
X133.49Y-126.32
X133.49Y-128.86
X133.49Y-131.4
X133.49Y-133.94
X148.73Y-52.88
X148.73Y-55.42
X148.73Y-57.96
X148.73Y-60.5
X148.73Y-63.04
X148.73Y-65.58
X148.73Y-68.12
X148.73Y-70.66
X148.73Y-73.2
X148.73Y-75.74
X148.73Y-78.28
X148.73Y-80.82
X148.73Y-83.36
X148.73Y-85.9
X148.73Y-88.44
X148.73Y-98.38
X148.73Y-100.92
X148.73Y-103.46
X148.73Y-106.0
X148.73Y-108.54
X148.73Y-111.08
X148.73Y-113.62
X148.73Y-116.16
X148.73Y-118.7
X148.73Y-121.24
X148.73Y-123.78
X148.73Y-126.32
X148.73Y-128.86
X148.73Y-131.4
X148.73Y-133.94
T0
M30
