M48
; DRILL file {KiCad 6.0.0-d3dd2cf0fa~116~ubuntu20.04.1} date Mon 17 Jan 2022 05:50:43 PM CET
; FORMAT={-:-/ absolute / metric / decimal}
; #@! TF.CreationDate,2022-01-17T17:50:43+01:00
; #@! TF.GenerationSoftware,Kicad,Pcbnew,6.0.0-d3dd2cf0fa~116~ubuntu20.04.1
; #@! TF.FileFunction,Plated,1,2,PTH
FMAT,2
METRIC
; #@! TA.AperFunction,Plated,PTH,ViaDrill
T1C0.400
; #@! TA.AperFunction,Plated,PTH,ComponentDrill
T2C0.900
; #@! TA.AperFunction,Plated,PTH,ComponentDrill
T3C1.400
%
G90
G05
T1
X94.145Y-56.86
X94.145Y-106.86
X94.245Y-100.26
X94.245Y-150.26
X97.545Y-98.56
X97.545Y-148.56
X97.845Y-89.16
X97.845Y-139.16
X98.27Y-83.91
X98.27Y-133.91
X99.095Y-63.91
X99.095Y-113.91
X99.595Y-62.91
X99.595Y-112.91
X99.845Y-99.16
X99.845Y-149.16
X100.095Y-63.91
X100.095Y-113.91
X102.715Y-97.36
X102.715Y-147.36
X104.595Y-98.16
X104.595Y-148.16
X106.325Y-98.89
X106.325Y-148.89
X107.095Y-63.91
X107.095Y-113.91
X107.595Y-62.91
X107.595Y-112.91
X107.85Y-59.145
X107.85Y-109.145
X108.095Y-63.91
X108.095Y-113.91
X112.845Y-56.86
X112.845Y-100.16
X112.845Y-106.86
X112.845Y-150.16
X112.87Y-73.73
X112.87Y-123.73
X113.095Y-68.66
X113.095Y-71.16
X113.095Y-118.66
X113.095Y-121.16
X119.645Y-56.86
X119.645Y-106.86
X119.745Y-100.26
X119.745Y-150.26
X123.045Y-98.56
X123.045Y-148.56
X123.345Y-89.16
X123.345Y-139.16
X123.77Y-83.91
X123.77Y-133.91
X124.595Y-63.91
X124.595Y-113.91
X125.095Y-62.91
X125.095Y-112.91
X125.345Y-99.16
X125.345Y-149.16
X125.595Y-63.91
X125.595Y-113.91
X128.215Y-97.36
X128.215Y-147.36
X130.095Y-98.16
X130.095Y-148.16
X131.825Y-98.89
X131.825Y-148.89
X132.595Y-63.91
X132.595Y-113.91
X133.095Y-62.91
X133.095Y-112.91
X133.35Y-59.145
X133.35Y-109.145
X133.595Y-63.91
X133.595Y-113.91
X138.345Y-56.86
X138.345Y-100.16
X138.345Y-106.86
X138.345Y-150.16
X138.37Y-73.73
X138.37Y-123.73
X138.595Y-68.66
X138.595Y-71.16
X138.595Y-118.66
X138.595Y-121.16
X145.145Y-56.86
X145.145Y-106.86
X145.245Y-100.26
X145.245Y-150.26
X148.545Y-98.56
X148.545Y-148.56
X148.845Y-89.16
X148.845Y-139.16
X149.27Y-83.91
X149.27Y-133.91
X150.095Y-63.91
X150.095Y-113.91
X150.595Y-62.91
X150.595Y-112.91
X150.845Y-99.16
X150.845Y-149.16
X151.095Y-63.91
X151.095Y-113.91
X153.715Y-97.36
X153.715Y-147.36
X155.595Y-98.16
X155.595Y-148.16
X157.325Y-98.89
X157.325Y-148.89
X158.095Y-63.91
X158.095Y-113.91
X158.595Y-62.91
X158.595Y-112.91
X158.85Y-59.145
X158.85Y-109.145
X159.095Y-63.91
X159.095Y-113.91
X163.845Y-56.86
X163.845Y-100.16
X163.845Y-106.86
X163.845Y-150.16
X163.87Y-73.73
X163.87Y-123.73
X164.095Y-68.66
X164.095Y-71.16
X164.095Y-118.66
X164.095Y-121.16
X170.645Y-56.86
X170.645Y-106.86
X170.745Y-100.26
X170.745Y-150.26
X174.045Y-98.56
X174.045Y-148.56
X174.345Y-89.16
X174.345Y-139.16
X174.77Y-83.91
X174.77Y-133.91
X175.595Y-63.91
X175.595Y-113.91
X176.095Y-62.91
X176.095Y-112.91
X176.345Y-99.16
X176.345Y-149.16
X176.595Y-63.91
X176.595Y-113.91
X179.215Y-97.36
X179.215Y-147.36
X181.095Y-98.16
X181.095Y-148.16
X182.825Y-98.89
X182.825Y-148.89
X183.595Y-63.91
X183.595Y-113.91
X184.095Y-62.91
X184.095Y-112.91
X184.35Y-59.145
X184.35Y-109.145
X184.595Y-63.91
X184.595Y-113.91
X189.345Y-56.86
X189.345Y-100.16
X189.345Y-106.86
X189.345Y-150.16
X189.37Y-73.73
X189.37Y-123.73
X189.595Y-68.66
X189.595Y-71.16
X189.595Y-118.66
X189.595Y-121.16
T2
X95.9Y-59.745
X95.9Y-62.285
X95.9Y-64.825
X95.9Y-67.365
X95.9Y-69.905
X95.9Y-72.445
X95.9Y-74.985
X95.9Y-77.525
X95.9Y-80.065
X95.9Y-82.605
X95.9Y-85.145
X95.9Y-87.685
X95.9Y-90.225
X95.9Y-92.765
X95.9Y-95.305
X95.9Y-109.745
X95.9Y-112.285
X95.9Y-114.825
X95.9Y-117.365
X95.9Y-119.905
X95.9Y-122.445
X95.9Y-124.985
X95.9Y-127.525
X95.9Y-130.065
X95.9Y-132.605
X95.9Y-135.145
X95.9Y-137.685
X95.9Y-140.225
X95.9Y-142.765
X95.9Y-145.305
X111.14Y-59.745
X111.14Y-62.285
X111.14Y-64.825
X111.14Y-67.365
X111.14Y-69.905
X111.14Y-72.445
X111.14Y-74.985
X111.14Y-77.525
X111.14Y-80.065
X111.14Y-82.605
X111.14Y-85.145
X111.14Y-87.685
X111.14Y-90.225
X111.14Y-92.765
X111.14Y-95.305
X111.14Y-109.745
X111.14Y-112.285
X111.14Y-114.825
X111.14Y-117.365
X111.14Y-119.905
X111.14Y-122.445
X111.14Y-124.985
X111.14Y-127.525
X111.14Y-130.065
X111.14Y-132.605
X111.14Y-135.145
X111.14Y-137.685
X111.14Y-140.225
X111.14Y-142.765
X111.14Y-145.305
X121.4Y-59.745
X121.4Y-62.285
X121.4Y-64.825
X121.4Y-67.365
X121.4Y-69.905
X121.4Y-72.445
X121.4Y-74.985
X121.4Y-77.525
X121.4Y-80.065
X121.4Y-82.605
X121.4Y-85.145
X121.4Y-87.685
X121.4Y-90.225
X121.4Y-92.765
X121.4Y-95.305
X121.4Y-109.745
X121.4Y-112.285
X121.4Y-114.825
X121.4Y-117.365
X121.4Y-119.905
X121.4Y-122.445
X121.4Y-124.985
X121.4Y-127.525
X121.4Y-130.065
X121.4Y-132.605
X121.4Y-135.145
X121.4Y-137.685
X121.4Y-140.225
X121.4Y-142.765
X121.4Y-145.305
X136.64Y-59.745
X136.64Y-62.285
X136.64Y-64.825
X136.64Y-67.365
X136.64Y-69.905
X136.64Y-72.445
X136.64Y-74.985
X136.64Y-77.525
X136.64Y-80.065
X136.64Y-82.605
X136.64Y-85.145
X136.64Y-87.685
X136.64Y-90.225
X136.64Y-92.765
X136.64Y-95.305
X136.64Y-109.745
X136.64Y-112.285
X136.64Y-114.825
X136.64Y-117.365
X136.64Y-119.905
X136.64Y-122.445
X136.64Y-124.985
X136.64Y-127.525
X136.64Y-130.065
X136.64Y-132.605
X136.64Y-135.145
X136.64Y-137.685
X136.64Y-140.225
X136.64Y-142.765
X136.64Y-145.305
X146.9Y-59.745
X146.9Y-62.285
X146.9Y-64.825
X146.9Y-67.365
X146.9Y-69.905
X146.9Y-72.445
X146.9Y-74.985
X146.9Y-77.525
X146.9Y-80.065
X146.9Y-82.605
X146.9Y-85.145
X146.9Y-87.685
X146.9Y-90.225
X146.9Y-92.765
X146.9Y-95.305
X146.9Y-109.745
X146.9Y-112.285
X146.9Y-114.825
X146.9Y-117.365
X146.9Y-119.905
X146.9Y-122.445
X146.9Y-124.985
X146.9Y-127.525
X146.9Y-130.065
X146.9Y-132.605
X146.9Y-135.145
X146.9Y-137.685
X146.9Y-140.225
X146.9Y-142.765
X146.9Y-145.305
X162.14Y-59.745
X162.14Y-62.285
X162.14Y-64.825
X162.14Y-67.365
X162.14Y-69.905
X162.14Y-72.445
X162.14Y-74.985
X162.14Y-77.525
X162.14Y-80.065
X162.14Y-82.605
X162.14Y-85.145
X162.14Y-87.685
X162.14Y-90.225
X162.14Y-92.765
X162.14Y-95.305
X162.14Y-109.745
X162.14Y-112.285
X162.14Y-114.825
X162.14Y-117.365
X162.14Y-119.905
X162.14Y-122.445
X162.14Y-124.985
X162.14Y-127.525
X162.14Y-130.065
X162.14Y-132.605
X162.14Y-135.145
X162.14Y-137.685
X162.14Y-140.225
X162.14Y-142.765
X162.14Y-145.305
X172.4Y-59.745
X172.4Y-62.285
X172.4Y-64.825
X172.4Y-67.365
X172.4Y-69.905
X172.4Y-72.445
X172.4Y-74.985
X172.4Y-77.525
X172.4Y-80.065
X172.4Y-82.605
X172.4Y-85.145
X172.4Y-87.685
X172.4Y-90.225
X172.4Y-92.765
X172.4Y-95.305
X172.4Y-109.745
X172.4Y-112.285
X172.4Y-114.825
X172.4Y-117.365
X172.4Y-119.905
X172.4Y-122.445
X172.4Y-124.985
X172.4Y-127.525
X172.4Y-130.065
X172.4Y-132.605
X172.4Y-135.145
X172.4Y-137.685
X172.4Y-140.225
X172.4Y-142.765
X172.4Y-145.305
X187.64Y-59.745
X187.64Y-62.285
X187.64Y-64.825
X187.64Y-67.365
X187.64Y-69.905
X187.64Y-72.445
X187.64Y-74.985
X187.64Y-77.525
X187.64Y-80.065
X187.64Y-82.605
X187.64Y-85.145
X187.64Y-87.685
X187.64Y-90.225
X187.64Y-92.765
X187.64Y-95.305
X187.64Y-109.745
X187.64Y-112.285
X187.64Y-114.825
X187.64Y-117.365
X187.64Y-119.905
X187.64Y-122.445
X187.64Y-124.985
X187.64Y-127.525
X187.64Y-130.065
X187.64Y-132.605
X187.64Y-135.145
X187.64Y-137.685
X187.64Y-140.225
X187.64Y-142.765
X187.64Y-145.305
T3
X100.812Y-65.76
X100.812Y-68.059
X100.812Y-70.358
X100.812Y-72.657
X100.812Y-74.956
X100.812Y-77.255
X100.812Y-79.555
X100.812Y-81.854
X100.812Y-84.153
X100.812Y-86.452
X100.812Y-88.751
X100.812Y-91.05
X100.835Y-115.76
X100.835Y-118.059
X100.835Y-120.358
X100.835Y-122.657
X100.835Y-124.956
X100.835Y-127.255
X100.835Y-129.555
X100.835Y-131.854
X100.835Y-134.153
X100.835Y-136.452
X100.835Y-138.751
X100.835Y-141.05
X106.392Y-65.75
X106.392Y-68.05
X106.392Y-70.35
X106.392Y-72.65
X106.392Y-74.95
X106.392Y-77.25
X106.392Y-79.55
X106.392Y-81.85
X106.392Y-84.15
X106.392Y-86.45
X106.392Y-88.75
X106.392Y-91.05
X106.415Y-115.75
X106.415Y-118.05
X106.415Y-120.35
X106.415Y-122.65
X106.415Y-124.95
X106.415Y-127.25
X106.415Y-129.55
X106.415Y-131.85
X106.415Y-134.15
X106.415Y-136.45
X106.415Y-138.75
X106.415Y-141.05
X126.335Y-65.76
X126.335Y-68.059
X126.335Y-70.358
X126.335Y-72.657
X126.335Y-74.956
X126.335Y-77.255
X126.335Y-79.555
X126.335Y-81.854
X126.335Y-84.153
X126.335Y-86.452
X126.335Y-88.751
X126.335Y-91.05
X126.335Y-115.76
X126.335Y-118.059
X126.335Y-120.358
X126.335Y-122.657
X126.335Y-124.956
X126.335Y-127.255
X126.335Y-129.555
X126.335Y-131.854
X126.335Y-134.153
X126.335Y-136.452
X126.335Y-138.751
X126.335Y-141.05
X131.915Y-65.75
X131.915Y-68.05
X131.915Y-70.35
X131.915Y-72.65
X131.915Y-74.95
X131.915Y-77.25
X131.915Y-79.55
X131.915Y-81.85
X131.915Y-84.15
X131.915Y-86.45
X131.915Y-88.75
X131.915Y-91.05
X131.915Y-115.75
X131.915Y-118.05
X131.915Y-120.35
X131.915Y-122.65
X131.915Y-124.95
X131.915Y-127.25
X131.915Y-129.55
X131.915Y-131.85
X131.915Y-134.15
X131.915Y-136.45
X131.915Y-138.75
X131.915Y-141.05
X151.835Y-65.76
X151.835Y-68.059
X151.835Y-70.358
X151.835Y-72.657
X151.835Y-74.956
X151.835Y-77.255
X151.835Y-79.555
X151.835Y-81.854
X151.835Y-84.153
X151.835Y-86.452
X151.835Y-88.751
X151.835Y-91.05
X151.835Y-115.76
X151.835Y-118.059
X151.835Y-120.358
X151.835Y-122.657
X151.835Y-124.956
X151.835Y-127.255
X151.835Y-129.555
X151.835Y-131.854
X151.835Y-134.153
X151.835Y-136.452
X151.835Y-138.751
X151.835Y-141.05
X157.415Y-65.75
X157.415Y-68.05
X157.415Y-70.35
X157.415Y-72.65
X157.415Y-74.95
X157.415Y-77.25
X157.415Y-79.55
X157.415Y-81.85
X157.415Y-84.15
X157.415Y-86.45
X157.415Y-88.75
X157.415Y-91.05
X157.415Y-115.75
X157.415Y-118.05
X157.415Y-120.35
X157.415Y-122.65
X157.415Y-124.95
X157.415Y-127.25
X157.415Y-129.55
X157.415Y-131.85
X157.415Y-134.15
X157.415Y-136.45
X157.415Y-138.75
X157.415Y-141.05
X177.335Y-65.76
X177.335Y-68.059
X177.335Y-70.358
X177.335Y-72.657
X177.335Y-74.956
X177.335Y-77.255
X177.335Y-79.555
X177.335Y-81.854
X177.335Y-84.153
X177.335Y-86.452
X177.335Y-88.751
X177.335Y-91.05
X177.335Y-115.76
X177.335Y-118.059
X177.335Y-120.358
X177.335Y-122.657
X177.335Y-124.956
X177.335Y-127.255
X177.335Y-129.555
X177.335Y-131.854
X177.335Y-134.153
X177.335Y-136.452
X177.335Y-138.751
X177.335Y-141.05
X182.915Y-65.75
X182.915Y-68.05
X182.915Y-70.35
X182.915Y-72.65
X182.915Y-74.95
X182.915Y-77.25
X182.915Y-79.55
X182.915Y-81.85
X182.915Y-84.15
X182.915Y-86.45
X182.915Y-88.75
X182.915Y-91.05
X182.915Y-115.75
X182.915Y-118.05
X182.915Y-120.35
X182.915Y-122.65
X182.915Y-124.95
X182.915Y-127.25
X182.915Y-129.55
X182.915Y-131.85
X182.915Y-134.15
X182.915Y-136.45
X182.915Y-138.75
X182.915Y-141.05
T0
M30
