G04 #@! TF.GenerationSoftware,KiCad,Pcbnew,6.0.0-d3dd2cf0fa~116~ubuntu20.04.1*
G04 #@! TF.CreationDate,2022-01-17T17:50:43+01:00*
G04 #@! TF.ProjectId,8xArduino_GPIB_Cuttout,38784172-6475-4696-9e6f-5f475049425f,rev?*
G04 #@! TF.SameCoordinates,Original*
G04 #@! TF.FileFunction,Legend,Bot*
G04 #@! TF.FilePolarity,Positive*
%FSLAX46Y46*%
G04 Gerber Fmt 4.6, Leading zero omitted, Abs format (unit mm)*
G04 Created by KiCad (PCBNEW 6.0.0-d3dd2cf0fa~116~ubuntu20.04.1) date 2022-01-17 17:50:43*
%MOMM*%
%LPD*%
G01*
G04 APERTURE LIST*
G04 Aperture macros list*
%AMRoundRect*
0 Rectangle with rounded corners*
0 $1 Rounding radius*
0 $2 $3 $4 $5 $6 $7 $8 $9 X,Y pos of 4 corners*
0 Add a 4 corners polygon primitive as box body*
4,1,4,$2,$3,$4,$5,$6,$7,$8,$9,$2,$3,0*
0 Add four circle primitives for the rounded corners*
1,1,$1+$1,$2,$3*
1,1,$1+$1,$4,$5*
1,1,$1+$1,$6,$7*
1,1,$1+$1,$8,$9*
0 Add four rect primitives between the rounded corners*
20,1,$1+$1,$2,$3,$4,$5,0*
20,1,$1+$1,$4,$5,$6,$7,0*
20,1,$1+$1,$6,$7,$8,$9,0*
20,1,$1+$1,$8,$9,$2,$3,0*%
G04 Aperture macros list end*
%ADD10C,0.200000*%
%ADD11C,0.250000*%
%ADD12C,0.120000*%
%ADD13C,0.602000*%
%ADD14RoundRect,0.476000X-0.625000X-0.425000X0.625000X-0.425000X0.625000X0.425000X-0.625000X0.425000X0*%
%ADD15O,2.202000X1.802000*%
G04 APERTURE END LIST*
D10*
X129565000Y-87796666D02*
X129612619Y-87930000D01*
X129612619Y-88130000D01*
X129565000Y-88330000D01*
X129469761Y-88463333D01*
X129374523Y-88530000D01*
X129184047Y-88596666D01*
X129041190Y-88596666D01*
X128850714Y-88530000D01*
X128755476Y-88463333D01*
X128660238Y-88330000D01*
X128612619Y-88130000D01*
X128612619Y-87996666D01*
X128660238Y-87796666D01*
X128707857Y-87730000D01*
X129041190Y-87730000D01*
X129041190Y-87996666D01*
X128612619Y-87130000D02*
X129612619Y-87130000D01*
X129612619Y-86596666D01*
X129565000Y-86463333D01*
X129517380Y-86396666D01*
X129422142Y-86330000D01*
X129279285Y-86330000D01*
X129184047Y-86396666D01*
X129136428Y-86463333D01*
X129088809Y-86596666D01*
X129088809Y-87130000D01*
X128993571Y-85730000D02*
X128993571Y-84663333D01*
X128612619Y-83996666D02*
X129612619Y-83996666D01*
X129136428Y-82863333D02*
X129088809Y-82663333D01*
X129041190Y-82596666D01*
X128945952Y-82530000D01*
X128803095Y-82530000D01*
X128707857Y-82596666D01*
X128660238Y-82663333D01*
X128612619Y-82796666D01*
X128612619Y-83330000D01*
X129612619Y-83330000D01*
X129612619Y-82863333D01*
X129565000Y-82730000D01*
X129517380Y-82663333D01*
X129422142Y-82596666D01*
X129326904Y-82596666D01*
X129231666Y-82663333D01*
X129184047Y-82730000D01*
X129136428Y-82863333D01*
X129136428Y-83330000D01*
X128707857Y-80063333D02*
X128660238Y-80130000D01*
X128612619Y-80330000D01*
X128612619Y-80463333D01*
X128660238Y-80663333D01*
X128755476Y-80796666D01*
X128850714Y-80863333D01*
X129041190Y-80930000D01*
X129184047Y-80930000D01*
X129374523Y-80863333D01*
X129469761Y-80796666D01*
X129565000Y-80663333D01*
X129612619Y-80463333D01*
X129612619Y-80330000D01*
X129565000Y-80130000D01*
X129517380Y-80063333D01*
X129612619Y-79196666D02*
X129612619Y-78930000D01*
X129565000Y-78796666D01*
X129469761Y-78663333D01*
X129279285Y-78596666D01*
X128945952Y-78596666D01*
X128755476Y-78663333D01*
X128660238Y-78796666D01*
X128612619Y-78930000D01*
X128612619Y-79196666D01*
X128660238Y-79330000D01*
X128755476Y-79463333D01*
X128945952Y-79530000D01*
X129279285Y-79530000D01*
X129469761Y-79463333D01*
X129565000Y-79330000D01*
X129612619Y-79196666D01*
X128612619Y-77996666D02*
X129612619Y-77996666D01*
X128612619Y-77196666D01*
X129612619Y-77196666D01*
X128612619Y-76530000D02*
X129612619Y-76530000D01*
X128612619Y-75730000D01*
X129612619Y-75730000D01*
X129136428Y-75063333D02*
X129136428Y-74596666D01*
X128612619Y-74396666D02*
X128612619Y-75063333D01*
X129612619Y-75063333D01*
X129612619Y-74396666D01*
X128707857Y-72996666D02*
X128660238Y-73063333D01*
X128612619Y-73263333D01*
X128612619Y-73396666D01*
X128660238Y-73596666D01*
X128755476Y-73730000D01*
X128850714Y-73796666D01*
X129041190Y-73863333D01*
X129184047Y-73863333D01*
X129374523Y-73796666D01*
X129469761Y-73730000D01*
X129565000Y-73596666D01*
X129612619Y-73396666D01*
X129612619Y-73263333D01*
X129565000Y-73063333D01*
X129517380Y-72996666D01*
X129612619Y-72596666D02*
X129612619Y-71796666D01*
X128612619Y-72196666D02*
X129612619Y-72196666D01*
X129612619Y-71063333D02*
X129612619Y-70796666D01*
X129565000Y-70663333D01*
X129469761Y-70530000D01*
X129279285Y-70463333D01*
X128945952Y-70463333D01*
X128755476Y-70530000D01*
X128660238Y-70663333D01*
X128612619Y-70796666D01*
X128612619Y-71063333D01*
X128660238Y-71196666D01*
X128755476Y-71330000D01*
X128945952Y-71396666D01*
X129279285Y-71396666D01*
X129469761Y-71330000D01*
X129565000Y-71196666D01*
X129612619Y-71063333D01*
X128612619Y-69063333D02*
X129088809Y-69530000D01*
X128612619Y-69863333D02*
X129612619Y-69863333D01*
X129612619Y-69330000D01*
X129565000Y-69196666D01*
X129517380Y-69130000D01*
X129422142Y-69063333D01*
X129279285Y-69063333D01*
X129184047Y-69130000D01*
X129136428Y-69196666D01*
X129088809Y-69330000D01*
X129088809Y-69863333D01*
X104065000Y-87796666D02*
X104112619Y-87930000D01*
X104112619Y-88130000D01*
X104065000Y-88330000D01*
X103969761Y-88463333D01*
X103874523Y-88530000D01*
X103684047Y-88596666D01*
X103541190Y-88596666D01*
X103350714Y-88530000D01*
X103255476Y-88463333D01*
X103160238Y-88330000D01*
X103112619Y-88130000D01*
X103112619Y-87996666D01*
X103160238Y-87796666D01*
X103207857Y-87730000D01*
X103541190Y-87730000D01*
X103541190Y-87996666D01*
X103112619Y-87130000D02*
X104112619Y-87130000D01*
X104112619Y-86596666D01*
X104065000Y-86463333D01*
X104017380Y-86396666D01*
X103922142Y-86330000D01*
X103779285Y-86330000D01*
X103684047Y-86396666D01*
X103636428Y-86463333D01*
X103588809Y-86596666D01*
X103588809Y-87130000D01*
X103493571Y-85730000D02*
X103493571Y-84663333D01*
X103112619Y-83996666D02*
X104112619Y-83996666D01*
X103636428Y-82863333D02*
X103588809Y-82663333D01*
X103541190Y-82596666D01*
X103445952Y-82530000D01*
X103303095Y-82530000D01*
X103207857Y-82596666D01*
X103160238Y-82663333D01*
X103112619Y-82796666D01*
X103112619Y-83330000D01*
X104112619Y-83330000D01*
X104112619Y-82863333D01*
X104065000Y-82730000D01*
X104017380Y-82663333D01*
X103922142Y-82596666D01*
X103826904Y-82596666D01*
X103731666Y-82663333D01*
X103684047Y-82730000D01*
X103636428Y-82863333D01*
X103636428Y-83330000D01*
X103207857Y-80063333D02*
X103160238Y-80130000D01*
X103112619Y-80330000D01*
X103112619Y-80463333D01*
X103160238Y-80663333D01*
X103255476Y-80796666D01*
X103350714Y-80863333D01*
X103541190Y-80930000D01*
X103684047Y-80930000D01*
X103874523Y-80863333D01*
X103969761Y-80796666D01*
X104065000Y-80663333D01*
X104112619Y-80463333D01*
X104112619Y-80330000D01*
X104065000Y-80130000D01*
X104017380Y-80063333D01*
X104112619Y-79196666D02*
X104112619Y-78930000D01*
X104065000Y-78796666D01*
X103969761Y-78663333D01*
X103779285Y-78596666D01*
X103445952Y-78596666D01*
X103255476Y-78663333D01*
X103160238Y-78796666D01*
X103112619Y-78930000D01*
X103112619Y-79196666D01*
X103160238Y-79330000D01*
X103255476Y-79463333D01*
X103445952Y-79530000D01*
X103779285Y-79530000D01*
X103969761Y-79463333D01*
X104065000Y-79330000D01*
X104112619Y-79196666D01*
X103112619Y-77996666D02*
X104112619Y-77996666D01*
X103112619Y-77196666D01*
X104112619Y-77196666D01*
X103112619Y-76530000D02*
X104112619Y-76530000D01*
X103112619Y-75730000D01*
X104112619Y-75730000D01*
X103636428Y-75063333D02*
X103636428Y-74596666D01*
X103112619Y-74396666D02*
X103112619Y-75063333D01*
X104112619Y-75063333D01*
X104112619Y-74396666D01*
X103207857Y-72996666D02*
X103160238Y-73063333D01*
X103112619Y-73263333D01*
X103112619Y-73396666D01*
X103160238Y-73596666D01*
X103255476Y-73730000D01*
X103350714Y-73796666D01*
X103541190Y-73863333D01*
X103684047Y-73863333D01*
X103874523Y-73796666D01*
X103969761Y-73730000D01*
X104065000Y-73596666D01*
X104112619Y-73396666D01*
X104112619Y-73263333D01*
X104065000Y-73063333D01*
X104017380Y-72996666D01*
X104112619Y-72596666D02*
X104112619Y-71796666D01*
X103112619Y-72196666D02*
X104112619Y-72196666D01*
X104112619Y-71063333D02*
X104112619Y-70796666D01*
X104065000Y-70663333D01*
X103969761Y-70530000D01*
X103779285Y-70463333D01*
X103445952Y-70463333D01*
X103255476Y-70530000D01*
X103160238Y-70663333D01*
X103112619Y-70796666D01*
X103112619Y-71063333D01*
X103160238Y-71196666D01*
X103255476Y-71330000D01*
X103445952Y-71396666D01*
X103779285Y-71396666D01*
X103969761Y-71330000D01*
X104065000Y-71196666D01*
X104112619Y-71063333D01*
X103112619Y-69063333D02*
X103588809Y-69530000D01*
X103112619Y-69863333D02*
X104112619Y-69863333D01*
X104112619Y-69330000D01*
X104065000Y-69196666D01*
X104017380Y-69130000D01*
X103922142Y-69063333D01*
X103779285Y-69063333D01*
X103684047Y-69130000D01*
X103636428Y-69196666D01*
X103588809Y-69330000D01*
X103588809Y-69863333D01*
X104065000Y-137796666D02*
X104112619Y-137930000D01*
X104112619Y-138130000D01*
X104065000Y-138330000D01*
X103969761Y-138463333D01*
X103874523Y-138530000D01*
X103684047Y-138596666D01*
X103541190Y-138596666D01*
X103350714Y-138530000D01*
X103255476Y-138463333D01*
X103160238Y-138330000D01*
X103112619Y-138130000D01*
X103112619Y-137996666D01*
X103160238Y-137796666D01*
X103207857Y-137730000D01*
X103541190Y-137730000D01*
X103541190Y-137996666D01*
X103112619Y-137130000D02*
X104112619Y-137130000D01*
X104112619Y-136596666D01*
X104065000Y-136463333D01*
X104017380Y-136396666D01*
X103922142Y-136330000D01*
X103779285Y-136330000D01*
X103684047Y-136396666D01*
X103636428Y-136463333D01*
X103588809Y-136596666D01*
X103588809Y-137130000D01*
X103493571Y-135730000D02*
X103493571Y-134663333D01*
X103112619Y-133996666D02*
X104112619Y-133996666D01*
X103636428Y-132863333D02*
X103588809Y-132663333D01*
X103541190Y-132596666D01*
X103445952Y-132530000D01*
X103303095Y-132530000D01*
X103207857Y-132596666D01*
X103160238Y-132663333D01*
X103112619Y-132796666D01*
X103112619Y-133330000D01*
X104112619Y-133330000D01*
X104112619Y-132863333D01*
X104065000Y-132730000D01*
X104017380Y-132663333D01*
X103922142Y-132596666D01*
X103826904Y-132596666D01*
X103731666Y-132663333D01*
X103684047Y-132730000D01*
X103636428Y-132863333D01*
X103636428Y-133330000D01*
X103207857Y-130063333D02*
X103160238Y-130130000D01*
X103112619Y-130330000D01*
X103112619Y-130463333D01*
X103160238Y-130663333D01*
X103255476Y-130796666D01*
X103350714Y-130863333D01*
X103541190Y-130930000D01*
X103684047Y-130930000D01*
X103874523Y-130863333D01*
X103969761Y-130796666D01*
X104065000Y-130663333D01*
X104112619Y-130463333D01*
X104112619Y-130330000D01*
X104065000Y-130130000D01*
X104017380Y-130063333D01*
X104112619Y-129196666D02*
X104112619Y-128930000D01*
X104065000Y-128796666D01*
X103969761Y-128663333D01*
X103779285Y-128596666D01*
X103445952Y-128596666D01*
X103255476Y-128663333D01*
X103160238Y-128796666D01*
X103112619Y-128930000D01*
X103112619Y-129196666D01*
X103160238Y-129330000D01*
X103255476Y-129463333D01*
X103445952Y-129530000D01*
X103779285Y-129530000D01*
X103969761Y-129463333D01*
X104065000Y-129330000D01*
X104112619Y-129196666D01*
X103112619Y-127996666D02*
X104112619Y-127996666D01*
X103112619Y-127196666D01*
X104112619Y-127196666D01*
X103112619Y-126530000D02*
X104112619Y-126530000D01*
X103112619Y-125730000D01*
X104112619Y-125730000D01*
X103636428Y-125063333D02*
X103636428Y-124596666D01*
X103112619Y-124396666D02*
X103112619Y-125063333D01*
X104112619Y-125063333D01*
X104112619Y-124396666D01*
X103207857Y-122996666D02*
X103160238Y-123063333D01*
X103112619Y-123263333D01*
X103112619Y-123396666D01*
X103160238Y-123596666D01*
X103255476Y-123730000D01*
X103350714Y-123796666D01*
X103541190Y-123863333D01*
X103684047Y-123863333D01*
X103874523Y-123796666D01*
X103969761Y-123730000D01*
X104065000Y-123596666D01*
X104112619Y-123396666D01*
X104112619Y-123263333D01*
X104065000Y-123063333D01*
X104017380Y-122996666D01*
X104112619Y-122596666D02*
X104112619Y-121796666D01*
X103112619Y-122196666D02*
X104112619Y-122196666D01*
X104112619Y-121063333D02*
X104112619Y-120796666D01*
X104065000Y-120663333D01*
X103969761Y-120530000D01*
X103779285Y-120463333D01*
X103445952Y-120463333D01*
X103255476Y-120530000D01*
X103160238Y-120663333D01*
X103112619Y-120796666D01*
X103112619Y-121063333D01*
X103160238Y-121196666D01*
X103255476Y-121330000D01*
X103445952Y-121396666D01*
X103779285Y-121396666D01*
X103969761Y-121330000D01*
X104065000Y-121196666D01*
X104112619Y-121063333D01*
X103112619Y-119063333D02*
X103588809Y-119530000D01*
X103112619Y-119863333D02*
X104112619Y-119863333D01*
X104112619Y-119330000D01*
X104065000Y-119196666D01*
X104017380Y-119130000D01*
X103922142Y-119063333D01*
X103779285Y-119063333D01*
X103684047Y-119130000D01*
X103636428Y-119196666D01*
X103588809Y-119330000D01*
X103588809Y-119863333D01*
X129565000Y-137796666D02*
X129612619Y-137930000D01*
X129612619Y-138130000D01*
X129565000Y-138330000D01*
X129469761Y-138463333D01*
X129374523Y-138530000D01*
X129184047Y-138596666D01*
X129041190Y-138596666D01*
X128850714Y-138530000D01*
X128755476Y-138463333D01*
X128660238Y-138330000D01*
X128612619Y-138130000D01*
X128612619Y-137996666D01*
X128660238Y-137796666D01*
X128707857Y-137730000D01*
X129041190Y-137730000D01*
X129041190Y-137996666D01*
X128612619Y-137130000D02*
X129612619Y-137130000D01*
X129612619Y-136596666D01*
X129565000Y-136463333D01*
X129517380Y-136396666D01*
X129422142Y-136330000D01*
X129279285Y-136330000D01*
X129184047Y-136396666D01*
X129136428Y-136463333D01*
X129088809Y-136596666D01*
X129088809Y-137130000D01*
X128993571Y-135730000D02*
X128993571Y-134663333D01*
X128612619Y-133996666D02*
X129612619Y-133996666D01*
X129136428Y-132863333D02*
X129088809Y-132663333D01*
X129041190Y-132596666D01*
X128945952Y-132530000D01*
X128803095Y-132530000D01*
X128707857Y-132596666D01*
X128660238Y-132663333D01*
X128612619Y-132796666D01*
X128612619Y-133330000D01*
X129612619Y-133330000D01*
X129612619Y-132863333D01*
X129565000Y-132730000D01*
X129517380Y-132663333D01*
X129422142Y-132596666D01*
X129326904Y-132596666D01*
X129231666Y-132663333D01*
X129184047Y-132730000D01*
X129136428Y-132863333D01*
X129136428Y-133330000D01*
X128707857Y-130063333D02*
X128660238Y-130130000D01*
X128612619Y-130330000D01*
X128612619Y-130463333D01*
X128660238Y-130663333D01*
X128755476Y-130796666D01*
X128850714Y-130863333D01*
X129041190Y-130930000D01*
X129184047Y-130930000D01*
X129374523Y-130863333D01*
X129469761Y-130796666D01*
X129565000Y-130663333D01*
X129612619Y-130463333D01*
X129612619Y-130330000D01*
X129565000Y-130130000D01*
X129517380Y-130063333D01*
X129612619Y-129196666D02*
X129612619Y-128930000D01*
X129565000Y-128796666D01*
X129469761Y-128663333D01*
X129279285Y-128596666D01*
X128945952Y-128596666D01*
X128755476Y-128663333D01*
X128660238Y-128796666D01*
X128612619Y-128930000D01*
X128612619Y-129196666D01*
X128660238Y-129330000D01*
X128755476Y-129463333D01*
X128945952Y-129530000D01*
X129279285Y-129530000D01*
X129469761Y-129463333D01*
X129565000Y-129330000D01*
X129612619Y-129196666D01*
X128612619Y-127996666D02*
X129612619Y-127996666D01*
X128612619Y-127196666D01*
X129612619Y-127196666D01*
X128612619Y-126530000D02*
X129612619Y-126530000D01*
X128612619Y-125730000D01*
X129612619Y-125730000D01*
X129136428Y-125063333D02*
X129136428Y-124596666D01*
X128612619Y-124396666D02*
X128612619Y-125063333D01*
X129612619Y-125063333D01*
X129612619Y-124396666D01*
X128707857Y-122996666D02*
X128660238Y-123063333D01*
X128612619Y-123263333D01*
X128612619Y-123396666D01*
X128660238Y-123596666D01*
X128755476Y-123730000D01*
X128850714Y-123796666D01*
X129041190Y-123863333D01*
X129184047Y-123863333D01*
X129374523Y-123796666D01*
X129469761Y-123730000D01*
X129565000Y-123596666D01*
X129612619Y-123396666D01*
X129612619Y-123263333D01*
X129565000Y-123063333D01*
X129517380Y-122996666D01*
X129612619Y-122596666D02*
X129612619Y-121796666D01*
X128612619Y-122196666D02*
X129612619Y-122196666D01*
X129612619Y-121063333D02*
X129612619Y-120796666D01*
X129565000Y-120663333D01*
X129469761Y-120530000D01*
X129279285Y-120463333D01*
X128945952Y-120463333D01*
X128755476Y-120530000D01*
X128660238Y-120663333D01*
X128612619Y-120796666D01*
X128612619Y-121063333D01*
X128660238Y-121196666D01*
X128755476Y-121330000D01*
X128945952Y-121396666D01*
X129279285Y-121396666D01*
X129469761Y-121330000D01*
X129565000Y-121196666D01*
X129612619Y-121063333D01*
X128612619Y-119063333D02*
X129088809Y-119530000D01*
X128612619Y-119863333D02*
X129612619Y-119863333D01*
X129612619Y-119330000D01*
X129565000Y-119196666D01*
X129517380Y-119130000D01*
X129422142Y-119063333D01*
X129279285Y-119063333D01*
X129184047Y-119130000D01*
X129136428Y-119196666D01*
X129088809Y-119330000D01*
X129088809Y-119863333D01*
X180565000Y-137796666D02*
X180612619Y-137930000D01*
X180612619Y-138130000D01*
X180565000Y-138330000D01*
X180469761Y-138463333D01*
X180374523Y-138530000D01*
X180184047Y-138596666D01*
X180041190Y-138596666D01*
X179850714Y-138530000D01*
X179755476Y-138463333D01*
X179660238Y-138330000D01*
X179612619Y-138130000D01*
X179612619Y-137996666D01*
X179660238Y-137796666D01*
X179707857Y-137730000D01*
X180041190Y-137730000D01*
X180041190Y-137996666D01*
X179612619Y-137130000D02*
X180612619Y-137130000D01*
X180612619Y-136596666D01*
X180565000Y-136463333D01*
X180517380Y-136396666D01*
X180422142Y-136330000D01*
X180279285Y-136330000D01*
X180184047Y-136396666D01*
X180136428Y-136463333D01*
X180088809Y-136596666D01*
X180088809Y-137130000D01*
X179993571Y-135730000D02*
X179993571Y-134663333D01*
X179612619Y-133996666D02*
X180612619Y-133996666D01*
X180136428Y-132863333D02*
X180088809Y-132663333D01*
X180041190Y-132596666D01*
X179945952Y-132530000D01*
X179803095Y-132530000D01*
X179707857Y-132596666D01*
X179660238Y-132663333D01*
X179612619Y-132796666D01*
X179612619Y-133330000D01*
X180612619Y-133330000D01*
X180612619Y-132863333D01*
X180565000Y-132730000D01*
X180517380Y-132663333D01*
X180422142Y-132596666D01*
X180326904Y-132596666D01*
X180231666Y-132663333D01*
X180184047Y-132730000D01*
X180136428Y-132863333D01*
X180136428Y-133330000D01*
X179707857Y-130063333D02*
X179660238Y-130130000D01*
X179612619Y-130330000D01*
X179612619Y-130463333D01*
X179660238Y-130663333D01*
X179755476Y-130796666D01*
X179850714Y-130863333D01*
X180041190Y-130930000D01*
X180184047Y-130930000D01*
X180374523Y-130863333D01*
X180469761Y-130796666D01*
X180565000Y-130663333D01*
X180612619Y-130463333D01*
X180612619Y-130330000D01*
X180565000Y-130130000D01*
X180517380Y-130063333D01*
X180612619Y-129196666D02*
X180612619Y-128930000D01*
X180565000Y-128796666D01*
X180469761Y-128663333D01*
X180279285Y-128596666D01*
X179945952Y-128596666D01*
X179755476Y-128663333D01*
X179660238Y-128796666D01*
X179612619Y-128930000D01*
X179612619Y-129196666D01*
X179660238Y-129330000D01*
X179755476Y-129463333D01*
X179945952Y-129530000D01*
X180279285Y-129530000D01*
X180469761Y-129463333D01*
X180565000Y-129330000D01*
X180612619Y-129196666D01*
X179612619Y-127996666D02*
X180612619Y-127996666D01*
X179612619Y-127196666D01*
X180612619Y-127196666D01*
X179612619Y-126530000D02*
X180612619Y-126530000D01*
X179612619Y-125730000D01*
X180612619Y-125730000D01*
X180136428Y-125063333D02*
X180136428Y-124596666D01*
X179612619Y-124396666D02*
X179612619Y-125063333D01*
X180612619Y-125063333D01*
X180612619Y-124396666D01*
X179707857Y-122996666D02*
X179660238Y-123063333D01*
X179612619Y-123263333D01*
X179612619Y-123396666D01*
X179660238Y-123596666D01*
X179755476Y-123730000D01*
X179850714Y-123796666D01*
X180041190Y-123863333D01*
X180184047Y-123863333D01*
X180374523Y-123796666D01*
X180469761Y-123730000D01*
X180565000Y-123596666D01*
X180612619Y-123396666D01*
X180612619Y-123263333D01*
X180565000Y-123063333D01*
X180517380Y-122996666D01*
X180612619Y-122596666D02*
X180612619Y-121796666D01*
X179612619Y-122196666D02*
X180612619Y-122196666D01*
X180612619Y-121063333D02*
X180612619Y-120796666D01*
X180565000Y-120663333D01*
X180469761Y-120530000D01*
X180279285Y-120463333D01*
X179945952Y-120463333D01*
X179755476Y-120530000D01*
X179660238Y-120663333D01*
X179612619Y-120796666D01*
X179612619Y-121063333D01*
X179660238Y-121196666D01*
X179755476Y-121330000D01*
X179945952Y-121396666D01*
X180279285Y-121396666D01*
X180469761Y-121330000D01*
X180565000Y-121196666D01*
X180612619Y-121063333D01*
X179612619Y-119063333D02*
X180088809Y-119530000D01*
X179612619Y-119863333D02*
X180612619Y-119863333D01*
X180612619Y-119330000D01*
X180565000Y-119196666D01*
X180517380Y-119130000D01*
X180422142Y-119063333D01*
X180279285Y-119063333D01*
X180184047Y-119130000D01*
X180136428Y-119196666D01*
X180088809Y-119330000D01*
X180088809Y-119863333D01*
X155065000Y-137796666D02*
X155112619Y-137930000D01*
X155112619Y-138130000D01*
X155065000Y-138330000D01*
X154969761Y-138463333D01*
X154874523Y-138530000D01*
X154684047Y-138596666D01*
X154541190Y-138596666D01*
X154350714Y-138530000D01*
X154255476Y-138463333D01*
X154160238Y-138330000D01*
X154112619Y-138130000D01*
X154112619Y-137996666D01*
X154160238Y-137796666D01*
X154207857Y-137730000D01*
X154541190Y-137730000D01*
X154541190Y-137996666D01*
X154112619Y-137130000D02*
X155112619Y-137130000D01*
X155112619Y-136596666D01*
X155065000Y-136463333D01*
X155017380Y-136396666D01*
X154922142Y-136330000D01*
X154779285Y-136330000D01*
X154684047Y-136396666D01*
X154636428Y-136463333D01*
X154588809Y-136596666D01*
X154588809Y-137130000D01*
X154493571Y-135730000D02*
X154493571Y-134663333D01*
X154112619Y-133996666D02*
X155112619Y-133996666D01*
X154636428Y-132863333D02*
X154588809Y-132663333D01*
X154541190Y-132596666D01*
X154445952Y-132530000D01*
X154303095Y-132530000D01*
X154207857Y-132596666D01*
X154160238Y-132663333D01*
X154112619Y-132796666D01*
X154112619Y-133330000D01*
X155112619Y-133330000D01*
X155112619Y-132863333D01*
X155065000Y-132730000D01*
X155017380Y-132663333D01*
X154922142Y-132596666D01*
X154826904Y-132596666D01*
X154731666Y-132663333D01*
X154684047Y-132730000D01*
X154636428Y-132863333D01*
X154636428Y-133330000D01*
X154207857Y-130063333D02*
X154160238Y-130130000D01*
X154112619Y-130330000D01*
X154112619Y-130463333D01*
X154160238Y-130663333D01*
X154255476Y-130796666D01*
X154350714Y-130863333D01*
X154541190Y-130930000D01*
X154684047Y-130930000D01*
X154874523Y-130863333D01*
X154969761Y-130796666D01*
X155065000Y-130663333D01*
X155112619Y-130463333D01*
X155112619Y-130330000D01*
X155065000Y-130130000D01*
X155017380Y-130063333D01*
X155112619Y-129196666D02*
X155112619Y-128930000D01*
X155065000Y-128796666D01*
X154969761Y-128663333D01*
X154779285Y-128596666D01*
X154445952Y-128596666D01*
X154255476Y-128663333D01*
X154160238Y-128796666D01*
X154112619Y-128930000D01*
X154112619Y-129196666D01*
X154160238Y-129330000D01*
X154255476Y-129463333D01*
X154445952Y-129530000D01*
X154779285Y-129530000D01*
X154969761Y-129463333D01*
X155065000Y-129330000D01*
X155112619Y-129196666D01*
X154112619Y-127996666D02*
X155112619Y-127996666D01*
X154112619Y-127196666D01*
X155112619Y-127196666D01*
X154112619Y-126530000D02*
X155112619Y-126530000D01*
X154112619Y-125730000D01*
X155112619Y-125730000D01*
X154636428Y-125063333D02*
X154636428Y-124596666D01*
X154112619Y-124396666D02*
X154112619Y-125063333D01*
X155112619Y-125063333D01*
X155112619Y-124396666D01*
X154207857Y-122996666D02*
X154160238Y-123063333D01*
X154112619Y-123263333D01*
X154112619Y-123396666D01*
X154160238Y-123596666D01*
X154255476Y-123730000D01*
X154350714Y-123796666D01*
X154541190Y-123863333D01*
X154684047Y-123863333D01*
X154874523Y-123796666D01*
X154969761Y-123730000D01*
X155065000Y-123596666D01*
X155112619Y-123396666D01*
X155112619Y-123263333D01*
X155065000Y-123063333D01*
X155017380Y-122996666D01*
X155112619Y-122596666D02*
X155112619Y-121796666D01*
X154112619Y-122196666D02*
X155112619Y-122196666D01*
X155112619Y-121063333D02*
X155112619Y-120796666D01*
X155065000Y-120663333D01*
X154969761Y-120530000D01*
X154779285Y-120463333D01*
X154445952Y-120463333D01*
X154255476Y-120530000D01*
X154160238Y-120663333D01*
X154112619Y-120796666D01*
X154112619Y-121063333D01*
X154160238Y-121196666D01*
X154255476Y-121330000D01*
X154445952Y-121396666D01*
X154779285Y-121396666D01*
X154969761Y-121330000D01*
X155065000Y-121196666D01*
X155112619Y-121063333D01*
X154112619Y-119063333D02*
X154588809Y-119530000D01*
X154112619Y-119863333D02*
X155112619Y-119863333D01*
X155112619Y-119330000D01*
X155065000Y-119196666D01*
X155017380Y-119130000D01*
X154922142Y-119063333D01*
X154779285Y-119063333D01*
X154684047Y-119130000D01*
X154636428Y-119196666D01*
X154588809Y-119330000D01*
X154588809Y-119863333D01*
X180565000Y-87796666D02*
X180612619Y-87930000D01*
X180612619Y-88130000D01*
X180565000Y-88330000D01*
X180469761Y-88463333D01*
X180374523Y-88530000D01*
X180184047Y-88596666D01*
X180041190Y-88596666D01*
X179850714Y-88530000D01*
X179755476Y-88463333D01*
X179660238Y-88330000D01*
X179612619Y-88130000D01*
X179612619Y-87996666D01*
X179660238Y-87796666D01*
X179707857Y-87730000D01*
X180041190Y-87730000D01*
X180041190Y-87996666D01*
X179612619Y-87130000D02*
X180612619Y-87130000D01*
X180612619Y-86596666D01*
X180565000Y-86463333D01*
X180517380Y-86396666D01*
X180422142Y-86330000D01*
X180279285Y-86330000D01*
X180184047Y-86396666D01*
X180136428Y-86463333D01*
X180088809Y-86596666D01*
X180088809Y-87130000D01*
X179993571Y-85730000D02*
X179993571Y-84663333D01*
X179612619Y-83996666D02*
X180612619Y-83996666D01*
X180136428Y-82863333D02*
X180088809Y-82663333D01*
X180041190Y-82596666D01*
X179945952Y-82530000D01*
X179803095Y-82530000D01*
X179707857Y-82596666D01*
X179660238Y-82663333D01*
X179612619Y-82796666D01*
X179612619Y-83330000D01*
X180612619Y-83330000D01*
X180612619Y-82863333D01*
X180565000Y-82730000D01*
X180517380Y-82663333D01*
X180422142Y-82596666D01*
X180326904Y-82596666D01*
X180231666Y-82663333D01*
X180184047Y-82730000D01*
X180136428Y-82863333D01*
X180136428Y-83330000D01*
X179707857Y-80063333D02*
X179660238Y-80130000D01*
X179612619Y-80330000D01*
X179612619Y-80463333D01*
X179660238Y-80663333D01*
X179755476Y-80796666D01*
X179850714Y-80863333D01*
X180041190Y-80930000D01*
X180184047Y-80930000D01*
X180374523Y-80863333D01*
X180469761Y-80796666D01*
X180565000Y-80663333D01*
X180612619Y-80463333D01*
X180612619Y-80330000D01*
X180565000Y-80130000D01*
X180517380Y-80063333D01*
X180612619Y-79196666D02*
X180612619Y-78930000D01*
X180565000Y-78796666D01*
X180469761Y-78663333D01*
X180279285Y-78596666D01*
X179945952Y-78596666D01*
X179755476Y-78663333D01*
X179660238Y-78796666D01*
X179612619Y-78930000D01*
X179612619Y-79196666D01*
X179660238Y-79330000D01*
X179755476Y-79463333D01*
X179945952Y-79530000D01*
X180279285Y-79530000D01*
X180469761Y-79463333D01*
X180565000Y-79330000D01*
X180612619Y-79196666D01*
X179612619Y-77996666D02*
X180612619Y-77996666D01*
X179612619Y-77196666D01*
X180612619Y-77196666D01*
X179612619Y-76530000D02*
X180612619Y-76530000D01*
X179612619Y-75730000D01*
X180612619Y-75730000D01*
X180136428Y-75063333D02*
X180136428Y-74596666D01*
X179612619Y-74396666D02*
X179612619Y-75063333D01*
X180612619Y-75063333D01*
X180612619Y-74396666D01*
X179707857Y-72996666D02*
X179660238Y-73063333D01*
X179612619Y-73263333D01*
X179612619Y-73396666D01*
X179660238Y-73596666D01*
X179755476Y-73730000D01*
X179850714Y-73796666D01*
X180041190Y-73863333D01*
X180184047Y-73863333D01*
X180374523Y-73796666D01*
X180469761Y-73730000D01*
X180565000Y-73596666D01*
X180612619Y-73396666D01*
X180612619Y-73263333D01*
X180565000Y-73063333D01*
X180517380Y-72996666D01*
X180612619Y-72596666D02*
X180612619Y-71796666D01*
X179612619Y-72196666D02*
X180612619Y-72196666D01*
X180612619Y-71063333D02*
X180612619Y-70796666D01*
X180565000Y-70663333D01*
X180469761Y-70530000D01*
X180279285Y-70463333D01*
X179945952Y-70463333D01*
X179755476Y-70530000D01*
X179660238Y-70663333D01*
X179612619Y-70796666D01*
X179612619Y-71063333D01*
X179660238Y-71196666D01*
X179755476Y-71330000D01*
X179945952Y-71396666D01*
X180279285Y-71396666D01*
X180469761Y-71330000D01*
X180565000Y-71196666D01*
X180612619Y-71063333D01*
X179612619Y-69063333D02*
X180088809Y-69530000D01*
X179612619Y-69863333D02*
X180612619Y-69863333D01*
X180612619Y-69330000D01*
X180565000Y-69196666D01*
X180517380Y-69130000D01*
X180422142Y-69063333D01*
X180279285Y-69063333D01*
X180184047Y-69130000D01*
X180136428Y-69196666D01*
X180088809Y-69330000D01*
X180088809Y-69863333D01*
X155065000Y-87796666D02*
X155112619Y-87930000D01*
X155112619Y-88130000D01*
X155065000Y-88330000D01*
X154969761Y-88463333D01*
X154874523Y-88530000D01*
X154684047Y-88596666D01*
X154541190Y-88596666D01*
X154350714Y-88530000D01*
X154255476Y-88463333D01*
X154160238Y-88330000D01*
X154112619Y-88130000D01*
X154112619Y-87996666D01*
X154160238Y-87796666D01*
X154207857Y-87730000D01*
X154541190Y-87730000D01*
X154541190Y-87996666D01*
X154112619Y-87130000D02*
X155112619Y-87130000D01*
X155112619Y-86596666D01*
X155065000Y-86463333D01*
X155017380Y-86396666D01*
X154922142Y-86330000D01*
X154779285Y-86330000D01*
X154684047Y-86396666D01*
X154636428Y-86463333D01*
X154588809Y-86596666D01*
X154588809Y-87130000D01*
X154493571Y-85730000D02*
X154493571Y-84663333D01*
X154112619Y-83996666D02*
X155112619Y-83996666D01*
X154636428Y-82863333D02*
X154588809Y-82663333D01*
X154541190Y-82596666D01*
X154445952Y-82530000D01*
X154303095Y-82530000D01*
X154207857Y-82596666D01*
X154160238Y-82663333D01*
X154112619Y-82796666D01*
X154112619Y-83330000D01*
X155112619Y-83330000D01*
X155112619Y-82863333D01*
X155065000Y-82730000D01*
X155017380Y-82663333D01*
X154922142Y-82596666D01*
X154826904Y-82596666D01*
X154731666Y-82663333D01*
X154684047Y-82730000D01*
X154636428Y-82863333D01*
X154636428Y-83330000D01*
X154207857Y-80063333D02*
X154160238Y-80130000D01*
X154112619Y-80330000D01*
X154112619Y-80463333D01*
X154160238Y-80663333D01*
X154255476Y-80796666D01*
X154350714Y-80863333D01*
X154541190Y-80930000D01*
X154684047Y-80930000D01*
X154874523Y-80863333D01*
X154969761Y-80796666D01*
X155065000Y-80663333D01*
X155112619Y-80463333D01*
X155112619Y-80330000D01*
X155065000Y-80130000D01*
X155017380Y-80063333D01*
X155112619Y-79196666D02*
X155112619Y-78930000D01*
X155065000Y-78796666D01*
X154969761Y-78663333D01*
X154779285Y-78596666D01*
X154445952Y-78596666D01*
X154255476Y-78663333D01*
X154160238Y-78796666D01*
X154112619Y-78930000D01*
X154112619Y-79196666D01*
X154160238Y-79330000D01*
X154255476Y-79463333D01*
X154445952Y-79530000D01*
X154779285Y-79530000D01*
X154969761Y-79463333D01*
X155065000Y-79330000D01*
X155112619Y-79196666D01*
X154112619Y-77996666D02*
X155112619Y-77996666D01*
X154112619Y-77196666D01*
X155112619Y-77196666D01*
X154112619Y-76530000D02*
X155112619Y-76530000D01*
X154112619Y-75730000D01*
X155112619Y-75730000D01*
X154636428Y-75063333D02*
X154636428Y-74596666D01*
X154112619Y-74396666D02*
X154112619Y-75063333D01*
X155112619Y-75063333D01*
X155112619Y-74396666D01*
X154207857Y-72996666D02*
X154160238Y-73063333D01*
X154112619Y-73263333D01*
X154112619Y-73396666D01*
X154160238Y-73596666D01*
X154255476Y-73730000D01*
X154350714Y-73796666D01*
X154541190Y-73863333D01*
X154684047Y-73863333D01*
X154874523Y-73796666D01*
X154969761Y-73730000D01*
X155065000Y-73596666D01*
X155112619Y-73396666D01*
X155112619Y-73263333D01*
X155065000Y-73063333D01*
X155017380Y-72996666D01*
X155112619Y-72596666D02*
X155112619Y-71796666D01*
X154112619Y-72196666D02*
X155112619Y-72196666D01*
X155112619Y-71063333D02*
X155112619Y-70796666D01*
X155065000Y-70663333D01*
X154969761Y-70530000D01*
X154779285Y-70463333D01*
X154445952Y-70463333D01*
X154255476Y-70530000D01*
X154160238Y-70663333D01*
X154112619Y-70796666D01*
X154112619Y-71063333D01*
X154160238Y-71196666D01*
X154255476Y-71330000D01*
X154445952Y-71396666D01*
X154779285Y-71396666D01*
X154969761Y-71330000D01*
X155065000Y-71196666D01*
X155112619Y-71063333D01*
X154112619Y-69063333D02*
X154588809Y-69530000D01*
X154112619Y-69863333D02*
X155112619Y-69863333D01*
X155112619Y-69330000D01*
X155065000Y-69196666D01*
X155017380Y-69130000D01*
X154922142Y-69063333D01*
X154779285Y-69063333D01*
X154684047Y-69130000D01*
X154636428Y-69196666D01*
X154588809Y-69330000D01*
X154588809Y-69863333D01*
D11*
X157405000Y-97500000D02*
X150525000Y-95160000D01*
X160085000Y-95630000D02*
X160075000Y-61222001D01*
X157395000Y-59332001D02*
X150567974Y-61657936D01*
X149085000Y-63620000D02*
X149095000Y-93150000D01*
X160075000Y-61222001D02*
G75*
G03*
X157395000Y-59332001I-2001696J6722D01*
G01*
X150567974Y-61657936D02*
G75*
G03*
X149085000Y-63620000I469989J-1896694D01*
G01*
X149094999Y-93150000D02*
G75*
G03*
X150555000Y-95170000I2042422J-61418D01*
G01*
X157405000Y-97520000D02*
G75*
G03*
X160085000Y-95630000I665938J1900813D01*
G01*
X131905000Y-147500000D02*
X125025000Y-145160000D01*
X134585000Y-145630000D02*
X134575000Y-111222001D01*
X123585000Y-113620000D02*
X123595000Y-143150000D01*
X131895000Y-109332001D02*
X125067974Y-111657936D01*
X131905000Y-147520000D02*
G75*
G03*
X134585000Y-145630000I665938J1900813D01*
G01*
X125067974Y-111657936D02*
G75*
G03*
X123585000Y-113620000I469989J-1896694D01*
G01*
X123594999Y-143150000D02*
G75*
G03*
X125055000Y-145170000I2042422J-61418D01*
G01*
X134575000Y-111222001D02*
G75*
G03*
X131895000Y-109332001I-2001696J6722D01*
G01*
X106372500Y-59332001D02*
X99545474Y-61657936D01*
X106382500Y-97500000D02*
X99502500Y-95160000D01*
X98062500Y-63620000D02*
X98072500Y-93150000D01*
X109062500Y-95630000D02*
X109052500Y-61222001D01*
X106382500Y-97520000D02*
G75*
G03*
X109062500Y-95630000I665938J1900813D01*
G01*
X99545474Y-61657936D02*
G75*
G03*
X98062500Y-63620000I469989J-1896694D01*
G01*
X109052500Y-61222001D02*
G75*
G03*
X106372500Y-59332001I-2001696J6722D01*
G01*
X98072499Y-93150000D02*
G75*
G03*
X99532500Y-95170000I2042422J-61418D01*
G01*
X123585000Y-63620000D02*
X123595000Y-93150000D01*
X131905000Y-97500000D02*
X125025000Y-95160000D01*
X131895000Y-59332001D02*
X125067974Y-61657936D01*
X134585000Y-95630000D02*
X134575000Y-61222001D01*
X123594999Y-93150000D02*
G75*
G03*
X125055000Y-95170000I2042422J-61418D01*
G01*
X131905000Y-97520000D02*
G75*
G03*
X134585000Y-95630000I665938J1900813D01*
G01*
X134575000Y-61222001D02*
G75*
G03*
X131895000Y-59332001I-2001696J6722D01*
G01*
X125067974Y-61657936D02*
G75*
G03*
X123585000Y-63620000I469989J-1896694D01*
G01*
X185585000Y-95630000D02*
X185575000Y-61222001D01*
X174585000Y-63620000D02*
X174595000Y-93150000D01*
X182905000Y-97500000D02*
X176025000Y-95160000D01*
X182895000Y-59332001D02*
X176067974Y-61657936D01*
X174594999Y-93150000D02*
G75*
G03*
X176055000Y-95170000I2042422J-61418D01*
G01*
X176067974Y-61657936D02*
G75*
G03*
X174585000Y-63620000I469989J-1896694D01*
G01*
X182905000Y-97520000D02*
G75*
G03*
X185585000Y-95630000I665938J1900813D01*
G01*
X185575000Y-61222001D02*
G75*
G03*
X182895000Y-59332001I-2001696J6722D01*
G01*
X182905000Y-147500000D02*
X176025000Y-145160000D01*
X185585000Y-145630000D02*
X185575000Y-111222001D01*
X182895000Y-109332001D02*
X176067974Y-111657936D01*
X174585000Y-113620000D02*
X174595000Y-143150000D01*
X174594999Y-143150000D02*
G75*
G03*
X176055000Y-145170000I2042422J-61418D01*
G01*
X182905000Y-147520000D02*
G75*
G03*
X185585000Y-145630000I665938J1900813D01*
G01*
X185575000Y-111222001D02*
G75*
G03*
X182895000Y-109332001I-2001696J6722D01*
G01*
X176067974Y-111657936D02*
G75*
G03*
X174585000Y-113620000I469989J-1896694D01*
G01*
X106395000Y-109332001D02*
X99567974Y-111657936D01*
X106405000Y-147500000D02*
X99525000Y-145160000D01*
X109085000Y-145630000D02*
X109075000Y-111222001D01*
X98085000Y-113620000D02*
X98095000Y-143150000D01*
X99567974Y-111657936D02*
G75*
G03*
X98085000Y-113620000I469989J-1896694D01*
G01*
X109075000Y-111222001D02*
G75*
G03*
X106395000Y-109332001I-2001696J6722D01*
G01*
X98094999Y-143150000D02*
G75*
G03*
X99555000Y-145170000I2042422J-61418D01*
G01*
X106405000Y-147520000D02*
G75*
G03*
X109085000Y-145630000I665938J1900813D01*
G01*
X149085000Y-113620000D02*
X149095000Y-143150000D01*
X157395000Y-109332001D02*
X150567974Y-111657936D01*
X157405000Y-147500000D02*
X150525000Y-145160000D01*
X160085000Y-145630000D02*
X160075000Y-111222001D01*
X149094999Y-143150000D02*
G75*
G03*
X150555000Y-145170000I2042422J-61418D01*
G01*
X150567974Y-111657936D02*
G75*
G03*
X149085000Y-113620000I469989J-1896694D01*
G01*
X160075000Y-111222001D02*
G75*
G03*
X157395000Y-109332001I-2001696J6722D01*
G01*
X157405000Y-147520000D02*
G75*
G03*
X160085000Y-145630000I665938J1900813D01*
G01*
%LPC*%
D12*
X158145000Y-64880000D02*
X156275000Y-64880000D01*
X156275000Y-64880000D02*
X156275000Y-91900000D01*
X156275000Y-91900000D02*
X158145000Y-91900000D01*
X158145000Y-91900000D02*
X158145000Y-64880000D01*
G36*
X158145000Y-64880000D02*
G01*
X156275000Y-64880000D01*
X156275000Y-91900000D01*
X158145000Y-91900000D01*
X158145000Y-64880000D01*
G37*
X152960000Y-64850000D02*
X151090000Y-64850000D01*
X151090000Y-64850000D02*
X151090000Y-91870000D01*
X151090000Y-91870000D02*
X152960000Y-91870000D01*
X152960000Y-91870000D02*
X152960000Y-64850000D01*
G36*
X152960000Y-64850000D02*
G01*
X151090000Y-64850000D01*
X151090000Y-91870000D01*
X152960000Y-91870000D01*
X152960000Y-64850000D01*
G37*
X127460000Y-114850000D02*
X125590000Y-114850000D01*
X125590000Y-114850000D02*
X125590000Y-141870000D01*
X125590000Y-141870000D02*
X127460000Y-141870000D01*
X127460000Y-141870000D02*
X127460000Y-114850000D01*
G36*
X127460000Y-114850000D02*
G01*
X125590000Y-114850000D01*
X125590000Y-141870000D01*
X127460000Y-141870000D01*
X127460000Y-114850000D01*
G37*
X132645000Y-114880000D02*
X130775000Y-114880000D01*
X130775000Y-114880000D02*
X130775000Y-141900000D01*
X130775000Y-141900000D02*
X132645000Y-141900000D01*
X132645000Y-141900000D02*
X132645000Y-114880000D01*
G36*
X132645000Y-114880000D02*
G01*
X130775000Y-114880000D01*
X130775000Y-141900000D01*
X132645000Y-141900000D01*
X132645000Y-114880000D01*
G37*
X101937500Y-64850000D02*
X100067500Y-64850000D01*
X100067500Y-64850000D02*
X100067500Y-91870000D01*
X100067500Y-91870000D02*
X101937500Y-91870000D01*
X101937500Y-91870000D02*
X101937500Y-64850000D01*
G36*
X101937500Y-64850000D02*
G01*
X100067500Y-64850000D01*
X100067500Y-91870000D01*
X101937500Y-91870000D01*
X101937500Y-64850000D01*
G37*
X107122500Y-64880000D02*
X105252500Y-64880000D01*
X105252500Y-64880000D02*
X105252500Y-91900000D01*
X105252500Y-91900000D02*
X107122500Y-91900000D01*
X107122500Y-91900000D02*
X107122500Y-64880000D01*
G36*
X107122500Y-64880000D02*
G01*
X105252500Y-64880000D01*
X105252500Y-91900000D01*
X107122500Y-91900000D01*
X107122500Y-64880000D01*
G37*
X132645000Y-64880000D02*
X130775000Y-64880000D01*
X130775000Y-64880000D02*
X130775000Y-91900000D01*
X130775000Y-91900000D02*
X132645000Y-91900000D01*
X132645000Y-91900000D02*
X132645000Y-64880000D01*
G36*
X132645000Y-64880000D02*
G01*
X130775000Y-64880000D01*
X130775000Y-91900000D01*
X132645000Y-91900000D01*
X132645000Y-64880000D01*
G37*
X127460000Y-64850000D02*
X125590000Y-64850000D01*
X125590000Y-64850000D02*
X125590000Y-91870000D01*
X125590000Y-91870000D02*
X127460000Y-91870000D01*
X127460000Y-91870000D02*
X127460000Y-64850000D01*
G36*
X127460000Y-64850000D02*
G01*
X125590000Y-64850000D01*
X125590000Y-91870000D01*
X127460000Y-91870000D01*
X127460000Y-64850000D01*
G37*
X183645000Y-64880000D02*
X181775000Y-64880000D01*
X181775000Y-64880000D02*
X181775000Y-91900000D01*
X181775000Y-91900000D02*
X183645000Y-91900000D01*
X183645000Y-91900000D02*
X183645000Y-64880000D01*
G36*
X183645000Y-64880000D02*
G01*
X181775000Y-64880000D01*
X181775000Y-91900000D01*
X183645000Y-91900000D01*
X183645000Y-64880000D01*
G37*
X178460000Y-64850000D02*
X176590000Y-64850000D01*
X176590000Y-64850000D02*
X176590000Y-91870000D01*
X176590000Y-91870000D02*
X178460000Y-91870000D01*
X178460000Y-91870000D02*
X178460000Y-64850000D01*
G36*
X178460000Y-64850000D02*
G01*
X176590000Y-64850000D01*
X176590000Y-91870000D01*
X178460000Y-91870000D01*
X178460000Y-64850000D01*
G37*
X183645000Y-114880000D02*
X181775000Y-114880000D01*
X181775000Y-114880000D02*
X181775000Y-141900000D01*
X181775000Y-141900000D02*
X183645000Y-141900000D01*
X183645000Y-141900000D02*
X183645000Y-114880000D01*
G36*
X183645000Y-114880000D02*
G01*
X181775000Y-114880000D01*
X181775000Y-141900000D01*
X183645000Y-141900000D01*
X183645000Y-114880000D01*
G37*
X178460000Y-114850000D02*
X176590000Y-114850000D01*
X176590000Y-114850000D02*
X176590000Y-141870000D01*
X176590000Y-141870000D02*
X178460000Y-141870000D01*
X178460000Y-141870000D02*
X178460000Y-114850000D01*
G36*
X178460000Y-114850000D02*
G01*
X176590000Y-114850000D01*
X176590000Y-141870000D01*
X178460000Y-141870000D01*
X178460000Y-114850000D01*
G37*
X107145000Y-114880000D02*
X105275000Y-114880000D01*
X105275000Y-114880000D02*
X105275000Y-141900000D01*
X105275000Y-141900000D02*
X107145000Y-141900000D01*
X107145000Y-141900000D02*
X107145000Y-114880000D01*
G36*
X107145000Y-114880000D02*
G01*
X105275000Y-114880000D01*
X105275000Y-141900000D01*
X107145000Y-141900000D01*
X107145000Y-114880000D01*
G37*
X101960000Y-114850000D02*
X100090000Y-114850000D01*
X100090000Y-114850000D02*
X100090000Y-141870000D01*
X100090000Y-141870000D02*
X101960000Y-141870000D01*
X101960000Y-141870000D02*
X101960000Y-114850000D01*
G36*
X101960000Y-114850000D02*
G01*
X100090000Y-114850000D01*
X100090000Y-141870000D01*
X101960000Y-141870000D01*
X101960000Y-114850000D01*
G37*
X152960000Y-114850000D02*
X151090000Y-114850000D01*
X151090000Y-114850000D02*
X151090000Y-141870000D01*
X151090000Y-141870000D02*
X152960000Y-141870000D01*
X152960000Y-141870000D02*
X152960000Y-114850000D01*
G36*
X152960000Y-114850000D02*
G01*
X151090000Y-114850000D01*
X151090000Y-141870000D01*
X152960000Y-141870000D01*
X152960000Y-114850000D01*
G37*
X158145000Y-114880000D02*
X156275000Y-114880000D01*
X156275000Y-114880000D02*
X156275000Y-141900000D01*
X156275000Y-141900000D02*
X158145000Y-141900000D01*
X158145000Y-141900000D02*
X158145000Y-114880000D01*
G36*
X158145000Y-114880000D02*
G01*
X156275000Y-114880000D01*
X156275000Y-141900000D01*
X158145000Y-141900000D01*
X158145000Y-114880000D01*
G37*
D13*
X142670000Y-116845000D03*
X142670000Y-118345000D03*
X141170000Y-119845000D03*
X142670000Y-117595000D03*
X141170000Y-119095000D03*
X141170000Y-118345000D03*
X141170000Y-116845000D03*
X142670000Y-119845000D03*
X141170000Y-117595000D03*
X142670000Y-119095000D03*
X141170000Y-142080000D03*
X142670000Y-142080000D03*
X142670000Y-139830000D03*
X142670000Y-139080000D03*
X142670000Y-141330000D03*
X142670000Y-140580000D03*
X141170000Y-140580000D03*
X141170000Y-139830000D03*
X141170000Y-141330000D03*
X141170000Y-139080000D03*
D14*
X172400001Y-109745001D03*
D15*
X172400001Y-112285001D03*
X172400001Y-114825001D03*
X172400001Y-117365001D03*
X172400001Y-119905001D03*
X172400001Y-122445001D03*
X172400001Y-124985001D03*
X172400001Y-127525001D03*
X172400001Y-130065001D03*
X172400001Y-132605001D03*
X172400001Y-135145001D03*
X172400001Y-137685001D03*
X172400001Y-140225001D03*
X172400001Y-142765001D03*
X172400001Y-145305001D03*
X187640001Y-145305001D03*
X187640001Y-142765001D03*
X187640001Y-140225001D03*
X187640001Y-137685001D03*
X187640001Y-135145001D03*
X187640001Y-132605001D03*
X187640001Y-130065001D03*
X187640001Y-127525001D03*
X187640001Y-124985001D03*
X187640001Y-122445001D03*
X187640001Y-119905001D03*
X187640001Y-117365001D03*
X187640001Y-114825001D03*
X187640001Y-112285001D03*
X187640001Y-109745001D03*
D14*
X121400001Y-59745001D03*
D15*
X121400001Y-62285001D03*
X121400001Y-64825001D03*
X121400001Y-67365001D03*
X121400001Y-69905001D03*
X121400001Y-72445001D03*
X121400001Y-74985001D03*
X121400001Y-77525001D03*
X121400001Y-80065001D03*
X121400001Y-82605001D03*
X121400001Y-85145001D03*
X121400001Y-87685001D03*
X121400001Y-90225001D03*
X121400001Y-92765001D03*
X121400001Y-95305001D03*
X136640001Y-95305001D03*
X136640001Y-92765001D03*
X136640001Y-90225001D03*
X136640001Y-87685001D03*
X136640001Y-85145001D03*
X136640001Y-82605001D03*
X136640001Y-80065001D03*
X136640001Y-77525001D03*
X136640001Y-74985001D03*
X136640001Y-72445001D03*
X136640001Y-69905001D03*
X136640001Y-67365001D03*
X136640001Y-64825001D03*
X136640001Y-62285001D03*
X136640001Y-59745001D03*
D13*
X142670000Y-69095000D03*
X141170000Y-66845000D03*
X142670000Y-67595000D03*
X142670000Y-66845000D03*
X141170000Y-69095000D03*
X141170000Y-69845000D03*
X141170000Y-67595000D03*
X141170000Y-68345000D03*
X142670000Y-68345000D03*
X142670000Y-69845000D03*
X130680000Y-104410000D03*
X129930000Y-104410000D03*
X127680000Y-104410000D03*
X129930000Y-102910000D03*
X128430000Y-102910000D03*
X129180000Y-104410000D03*
X128430000Y-104410000D03*
X129180000Y-102910000D03*
X130680000Y-102910000D03*
X127680000Y-102910000D03*
X115670000Y-90580000D03*
X117170000Y-89080000D03*
X115670000Y-91330000D03*
X115670000Y-92080000D03*
X117170000Y-90580000D03*
X117170000Y-91330000D03*
X117170000Y-89830000D03*
X117170000Y-92080000D03*
X115670000Y-89830000D03*
X115670000Y-89080000D03*
X103680000Y-102910000D03*
X105180000Y-102910000D03*
X103680000Y-104410000D03*
X102180000Y-102910000D03*
X105180000Y-104410000D03*
X102930000Y-104410000D03*
X102930000Y-102910000D03*
X104430000Y-102910000D03*
X102180000Y-104410000D03*
X104430000Y-104410000D03*
X117170000Y-67595000D03*
X115670000Y-66845000D03*
X115670000Y-69095000D03*
X117170000Y-69845000D03*
X117170000Y-69095000D03*
X117170000Y-66845000D03*
X115670000Y-69845000D03*
X115670000Y-67595000D03*
X115670000Y-68345000D03*
X117170000Y-68345000D03*
D14*
X95900001Y-109745001D03*
D15*
X95900001Y-112285001D03*
X95900001Y-114825001D03*
X95900001Y-117365001D03*
X95900001Y-119905001D03*
X95900001Y-122445001D03*
X95900001Y-124985001D03*
X95900001Y-127525001D03*
X95900001Y-130065001D03*
X95900001Y-132605001D03*
X95900001Y-135145001D03*
X95900001Y-137685001D03*
X95900001Y-140225001D03*
X95900001Y-142765001D03*
X95900001Y-145305001D03*
X111140001Y-145305001D03*
X111140001Y-142765001D03*
X111140001Y-140225001D03*
X111140001Y-137685001D03*
X111140001Y-135145001D03*
X111140001Y-132605001D03*
X111140001Y-130065001D03*
X111140001Y-127525001D03*
X111140001Y-124985001D03*
X111140001Y-122445001D03*
X111140001Y-119905001D03*
X111140001Y-117365001D03*
X111140001Y-114825001D03*
X111140001Y-112285001D03*
X111140001Y-109745001D03*
D13*
X166670000Y-67595000D03*
X168170000Y-66845000D03*
X166670000Y-66845000D03*
X168170000Y-68345000D03*
X166670000Y-68345000D03*
X166670000Y-69845000D03*
X168170000Y-69095000D03*
X168170000Y-69845000D03*
X168170000Y-67595000D03*
X166670000Y-69095000D03*
X166670000Y-91330000D03*
X166670000Y-89080000D03*
X168170000Y-89080000D03*
X168170000Y-91330000D03*
X166670000Y-89830000D03*
X166670000Y-92080000D03*
X168170000Y-92080000D03*
X168170000Y-89830000D03*
X166670000Y-90580000D03*
X168170000Y-90580000D03*
X180180000Y-102910000D03*
X181680000Y-104410000D03*
X179430000Y-102910000D03*
X180930000Y-104410000D03*
X179430000Y-104410000D03*
X180930000Y-102910000D03*
X180180000Y-104410000D03*
X181680000Y-102910000D03*
X178680000Y-102910000D03*
X178680000Y-104410000D03*
X142670000Y-89830000D03*
X141170000Y-92080000D03*
X141170000Y-90580000D03*
X141170000Y-89830000D03*
X142670000Y-89080000D03*
X141170000Y-91330000D03*
X141170000Y-89080000D03*
X142670000Y-91330000D03*
X142670000Y-92080000D03*
X142670000Y-90580000D03*
X155430000Y-104410000D03*
X153180000Y-102910000D03*
X155430000Y-102910000D03*
X153930000Y-104410000D03*
X156180000Y-102910000D03*
X153180000Y-104410000D03*
X156180000Y-104410000D03*
X153930000Y-102910000D03*
X154680000Y-102910000D03*
X154680000Y-104410000D03*
D14*
X146900001Y-59745001D03*
D15*
X146900001Y-62285001D03*
X146900001Y-64825001D03*
X146900001Y-67365001D03*
X146900001Y-69905001D03*
X146900001Y-72445001D03*
X146900001Y-74985001D03*
X146900001Y-77525001D03*
X146900001Y-80065001D03*
X146900001Y-82605001D03*
X146900001Y-85145001D03*
X146900001Y-87685001D03*
X146900001Y-90225001D03*
X146900001Y-92765001D03*
X146900001Y-95305001D03*
X162140001Y-95305001D03*
X162140001Y-92765001D03*
X162140001Y-90225001D03*
X162140001Y-87685001D03*
X162140001Y-85145001D03*
X162140001Y-82605001D03*
X162140001Y-80065001D03*
X162140001Y-77525001D03*
X162140001Y-74985001D03*
X162140001Y-72445001D03*
X162140001Y-69905001D03*
X162140001Y-67365001D03*
X162140001Y-64825001D03*
X162140001Y-62285001D03*
X162140001Y-59745001D03*
D13*
X117170000Y-142080000D03*
X117170000Y-139080000D03*
X115670000Y-142080000D03*
X115670000Y-141330000D03*
X117170000Y-141330000D03*
X117170000Y-139830000D03*
X115670000Y-140580000D03*
X117170000Y-140580000D03*
X115670000Y-139080000D03*
X115670000Y-139830000D03*
X166670000Y-141330000D03*
X166670000Y-140580000D03*
X168170000Y-139830000D03*
X168170000Y-142080000D03*
X166670000Y-142080000D03*
X168170000Y-141330000D03*
X168170000Y-139080000D03*
X168170000Y-140580000D03*
X166670000Y-139080000D03*
X166670000Y-139830000D03*
D14*
X172400001Y-59745001D03*
D15*
X172400001Y-62285001D03*
X172400001Y-64825001D03*
X172400001Y-67365001D03*
X172400001Y-69905001D03*
X172400001Y-72445001D03*
X172400001Y-74985001D03*
X172400001Y-77525001D03*
X172400001Y-80065001D03*
X172400001Y-82605001D03*
X172400001Y-85145001D03*
X172400001Y-87685001D03*
X172400001Y-90225001D03*
X172400001Y-92765001D03*
X172400001Y-95305001D03*
X187640001Y-95305001D03*
X187640001Y-92765001D03*
X187640001Y-90225001D03*
X187640001Y-87685001D03*
X187640001Y-85145001D03*
X187640001Y-82605001D03*
X187640001Y-80065001D03*
X187640001Y-77525001D03*
X187640001Y-74985001D03*
X187640001Y-72445001D03*
X187640001Y-69905001D03*
X187640001Y-67365001D03*
X187640001Y-64825001D03*
X187640001Y-62285001D03*
X187640001Y-59745001D03*
D14*
X146900001Y-109745001D03*
D15*
X146900001Y-112285001D03*
X146900001Y-114825001D03*
X146900001Y-117365001D03*
X146900001Y-119905001D03*
X146900001Y-122445001D03*
X146900001Y-124985001D03*
X146900001Y-127525001D03*
X146900001Y-130065001D03*
X146900001Y-132605001D03*
X146900001Y-135145001D03*
X146900001Y-137685001D03*
X146900001Y-140225001D03*
X146900001Y-142765001D03*
X146900001Y-145305001D03*
X162140001Y-145305001D03*
X162140001Y-142765001D03*
X162140001Y-140225001D03*
X162140001Y-137685001D03*
X162140001Y-135145001D03*
X162140001Y-132605001D03*
X162140001Y-130065001D03*
X162140001Y-127525001D03*
X162140001Y-124985001D03*
X162140001Y-122445001D03*
X162140001Y-119905001D03*
X162140001Y-117365001D03*
X162140001Y-114825001D03*
X162140001Y-112285001D03*
X162140001Y-109745001D03*
D13*
X166670000Y-117595000D03*
X166670000Y-119845000D03*
X166670000Y-119095000D03*
X168170000Y-118345000D03*
X168170000Y-116845000D03*
X168170000Y-117595000D03*
X166670000Y-118345000D03*
X166670000Y-116845000D03*
X168170000Y-119845000D03*
X168170000Y-119095000D03*
X117170000Y-119095000D03*
X117170000Y-119845000D03*
X117170000Y-116845000D03*
X117170000Y-118345000D03*
X115670000Y-117595000D03*
X115670000Y-116845000D03*
X117170000Y-117595000D03*
X115670000Y-118345000D03*
X115670000Y-119095000D03*
X115670000Y-119845000D03*
D14*
X121400001Y-109745001D03*
D15*
X121400001Y-112285001D03*
X121400001Y-114825001D03*
X121400001Y-117365001D03*
X121400001Y-119905001D03*
X121400001Y-122445001D03*
X121400001Y-124985001D03*
X121400001Y-127525001D03*
X121400001Y-130065001D03*
X121400001Y-132605001D03*
X121400001Y-135145001D03*
X121400001Y-137685001D03*
X121400001Y-140225001D03*
X121400001Y-142765001D03*
X121400001Y-145305001D03*
X136640001Y-145305001D03*
X136640001Y-142765001D03*
X136640001Y-140225001D03*
X136640001Y-137685001D03*
X136640001Y-135145001D03*
X136640001Y-132605001D03*
X136640001Y-130065001D03*
X136640001Y-127525001D03*
X136640001Y-124985001D03*
X136640001Y-122445001D03*
X136640001Y-119905001D03*
X136640001Y-117365001D03*
X136640001Y-114825001D03*
X136640001Y-112285001D03*
X136640001Y-109745001D03*
D14*
X95900001Y-59745001D03*
D15*
X95900001Y-62285001D03*
X95900001Y-64825001D03*
X95900001Y-67365001D03*
X95900001Y-69905001D03*
X95900001Y-72445001D03*
X95900001Y-74985001D03*
X95900001Y-77525001D03*
X95900001Y-80065001D03*
X95900001Y-82605001D03*
X95900001Y-85145001D03*
X95900001Y-87685001D03*
X95900001Y-90225001D03*
X95900001Y-92765001D03*
X95900001Y-95305001D03*
X111140001Y-95305001D03*
X111140001Y-92765001D03*
X111140001Y-90225001D03*
X111140001Y-87685001D03*
X111140001Y-85145001D03*
X111140001Y-82605001D03*
X111140001Y-80065001D03*
X111140001Y-77525001D03*
X111140001Y-74985001D03*
X111140001Y-72445001D03*
X111140001Y-69905001D03*
X111140001Y-67365001D03*
X111140001Y-64825001D03*
X111140001Y-62285001D03*
X111140001Y-59745001D03*
M02*
