M48
; DRILL file {KiCad 6.0.0-d3dd2cf0fa~116~ubuntu20.04.1} date Mon 17 Jan 2022 05:50:43 PM CET
; FORMAT={-:-/ absolute / metric / decimal}
; #@! TF.CreationDate,2022-01-17T17:50:43+01:00
; #@! TF.GenerationSoftware,Kicad,Pcbnew,6.0.0-d3dd2cf0fa~116~ubuntu20.04.1
; #@! TF.FileFunction,NonPlated,1,2,NPTH
FMAT,2
METRIC
; #@! TA.AperFunction,NonPlated,NPTH,ComponentDrill
T1C0.500
%
G90
G05
T1
X102.18Y-102.91
X102.18Y-104.41
X102.93Y-102.91
X102.93Y-104.41
X103.68Y-102.91
X103.68Y-104.41
X104.43Y-102.91
X104.43Y-104.41
X105.18Y-102.91
X105.18Y-104.41
X115.67Y-66.845
X115.67Y-67.595
X115.67Y-68.345
X115.67Y-69.095
X115.67Y-69.845
X115.67Y-89.08
X115.67Y-89.83
X115.67Y-90.58
X115.67Y-91.33
X115.67Y-92.08
X115.67Y-116.845
X115.67Y-117.595
X115.67Y-118.345
X115.67Y-119.095
X115.67Y-119.845
X115.67Y-139.08
X115.67Y-139.83
X115.67Y-140.58
X115.67Y-141.33
X115.67Y-142.08
X117.17Y-66.845
X117.17Y-67.595
X117.17Y-68.345
X117.17Y-69.095
X117.17Y-69.845
X117.17Y-89.08
X117.17Y-89.83
X117.17Y-90.58
X117.17Y-91.33
X117.17Y-92.08
X117.17Y-116.845
X117.17Y-117.595
X117.17Y-118.345
X117.17Y-119.095
X117.17Y-119.845
X117.17Y-139.08
X117.17Y-139.83
X117.17Y-140.58
X117.17Y-141.33
X117.17Y-142.08
X127.68Y-102.91
X127.68Y-104.41
X128.43Y-102.91
X128.43Y-104.41
X129.18Y-102.91
X129.18Y-104.41
X129.93Y-102.91
X129.93Y-104.41
X130.68Y-102.91
X130.68Y-104.41
X141.17Y-66.845
X141.17Y-67.595
X141.17Y-68.345
X141.17Y-69.095
X141.17Y-69.845
X141.17Y-89.08
X141.17Y-89.83
X141.17Y-90.58
X141.17Y-91.33
X141.17Y-92.08
X141.17Y-116.845
X141.17Y-117.595
X141.17Y-118.345
X141.17Y-119.095
X141.17Y-119.845
X141.17Y-139.08
X141.17Y-139.83
X141.17Y-140.58
X141.17Y-141.33
X141.17Y-142.08
X142.67Y-66.845
X142.67Y-67.595
X142.67Y-68.345
X142.67Y-69.095
X142.67Y-69.845
X142.67Y-89.08
X142.67Y-89.83
X142.67Y-90.58
X142.67Y-91.33
X142.67Y-92.08
X142.67Y-116.845
X142.67Y-117.595
X142.67Y-118.345
X142.67Y-119.095
X142.67Y-119.845
X142.67Y-139.08
X142.67Y-139.83
X142.67Y-140.58
X142.67Y-141.33
X142.67Y-142.08
X153.18Y-102.91
X153.18Y-104.41
X153.93Y-102.91
X153.93Y-104.41
X154.68Y-102.91
X154.68Y-104.41
X155.43Y-102.91
X155.43Y-104.41
X156.18Y-102.91
X156.18Y-104.41
X166.67Y-66.845
X166.67Y-67.595
X166.67Y-68.345
X166.67Y-69.095
X166.67Y-69.845
X166.67Y-89.08
X166.67Y-89.83
X166.67Y-90.58
X166.67Y-91.33
X166.67Y-92.08
X166.67Y-116.845
X166.67Y-117.595
X166.67Y-118.345
X166.67Y-119.095
X166.67Y-119.845
X166.67Y-139.08
X166.67Y-139.83
X166.67Y-140.58
X166.67Y-141.33
X166.67Y-142.08
X168.17Y-66.845
X168.17Y-67.595
X168.17Y-68.345
X168.17Y-69.095
X168.17Y-69.845
X168.17Y-89.08
X168.17Y-89.83
X168.17Y-90.58
X168.17Y-91.33
X168.17Y-92.08
X168.17Y-116.845
X168.17Y-117.595
X168.17Y-118.345
X168.17Y-119.095
X168.17Y-119.845
X168.17Y-139.08
X168.17Y-139.83
X168.17Y-140.58
X168.17Y-141.33
X168.17Y-142.08
X178.68Y-102.91
X178.68Y-104.41
X179.43Y-102.91
X179.43Y-104.41
X180.18Y-102.91
X180.18Y-104.41
X180.93Y-102.91
X180.93Y-104.41
X181.68Y-102.91
X181.68Y-104.41
T0
M30
