G04 #@! TF.GenerationSoftware,KiCad,Pcbnew,6.0.0-d3dd2cf0fa~116~ubuntu20.04.1*
G04 #@! TF.CreationDate,2022-01-17T17:50:43+01:00*
G04 #@! TF.ProjectId,8xArduino_GPIB_Cuttout,38784172-6475-4696-9e6f-5f475049425f,rev?*
G04 #@! TF.SameCoordinates,Original*
G04 #@! TF.FileFunction,Legend,Top*
G04 #@! TF.FilePolarity,Positive*
%FSLAX46Y46*%
G04 Gerber Fmt 4.6, Leading zero omitted, Abs format (unit mm)*
G04 Created by KiCad (PCBNEW 6.0.0-d3dd2cf0fa~116~ubuntu20.04.1) date 2022-01-17 17:50:43*
%MOMM*%
%LPD*%
G01*
G04 APERTURE LIST*
G04 Aperture macros list*
%AMRoundRect*
0 Rectangle with rounded corners*
0 $1 Rounding radius*
0 $2 $3 $4 $5 $6 $7 $8 $9 X,Y pos of 4 corners*
0 Add a 4 corners polygon primitive as box body*
4,1,4,$2,$3,$4,$5,$6,$7,$8,$9,$2,$3,0*
0 Add four circle primitives for the rounded corners*
1,1,$1+$1,$2,$3*
1,1,$1+$1,$4,$5*
1,1,$1+$1,$6,$7*
1,1,$1+$1,$8,$9*
0 Add four rect primitives between the rounded corners*
20,1,$1+$1,$2,$3,$4,$5,0*
20,1,$1+$1,$4,$5,$6,$7,0*
20,1,$1+$1,$6,$7,$8,$9,0*
20,1,$1+$1,$8,$9,$2,$3,0*%
G04 Aperture macros list end*
%ADD10C,0.400000*%
%ADD11C,0.100000*%
%ADD12C,0.120000*%
%ADD13C,0.200000*%
%ADD14C,0.300000*%
%ADD15C,0.602000*%
%ADD16RoundRect,0.251000X-1.600000X0.600000X-1.600000X-0.600000X1.600000X-0.600000X1.600000X0.600000X0*%
%ADD17RoundRect,0.476000X-0.625000X-0.425000X0.625000X-0.425000X0.625000X0.425000X-0.625000X0.425000X0*%
%ADD18O,2.202000X1.802000*%
G04 APERTURE END LIST*
D10*
X145620001Y-108525001D02*
X148145000Y-108525001D01*
X148145000Y-108525001D02*
X148145000Y-110980000D01*
X148145000Y-110980000D02*
X145620001Y-110980000D01*
X145620001Y-110980000D02*
X145620001Y-108525001D01*
X145620001Y-58525001D02*
X148145000Y-58525001D01*
X148145000Y-58525001D02*
X148145000Y-60980000D01*
X148145000Y-60980000D02*
X145620001Y-60980000D01*
X145620001Y-60980000D02*
X145620001Y-58525001D01*
X120120001Y-58525001D02*
X122645000Y-58525001D01*
X122645000Y-58525001D02*
X122645000Y-60980000D01*
X122645000Y-60980000D02*
X120120001Y-60980000D01*
X120120001Y-60980000D02*
X120120001Y-58525001D01*
X94620001Y-58525001D02*
X97145000Y-58525001D01*
X97145000Y-58525001D02*
X97145000Y-60980000D01*
X97145000Y-60980000D02*
X94620001Y-60980000D01*
X94620001Y-60980000D02*
X94620001Y-58525001D01*
X171120001Y-58525001D02*
X173645000Y-58525001D01*
X173645000Y-58525001D02*
X173645000Y-60980000D01*
X173645000Y-60980000D02*
X171120001Y-60980000D01*
X171120001Y-60980000D02*
X171120001Y-58525001D01*
X171120001Y-108525001D02*
X173645000Y-108525001D01*
X173645000Y-108525001D02*
X173645000Y-110980000D01*
X173645000Y-110980000D02*
X171120001Y-110980000D01*
X171120001Y-110980000D02*
X171120001Y-108525001D01*
X120120001Y-108525001D02*
X122645000Y-108525001D01*
X122645000Y-108525001D02*
X122645000Y-110980000D01*
X122645000Y-110980000D02*
X120120001Y-110980000D01*
X120120001Y-110980000D02*
X120120001Y-108525001D01*
X94620001Y-108525001D02*
X97145000Y-108525001D01*
X97145000Y-108525001D02*
X97145000Y-110980000D01*
X97145000Y-110980000D02*
X94620001Y-110980000D01*
X94620001Y-110980000D02*
X94620001Y-108525001D01*
X99571190Y-111814761D02*
X99571190Y-109814761D01*
X100714047Y-111814761D01*
X100714047Y-109814761D01*
X101571190Y-111243333D02*
X102523571Y-111243333D01*
X101380714Y-111814761D02*
X102047380Y-109814761D01*
X102714047Y-111814761D01*
X103380714Y-111814761D02*
X103380714Y-109814761D01*
X104523571Y-111814761D01*
X104523571Y-109814761D01*
X105856904Y-109814761D02*
X106237857Y-109814761D01*
X106428333Y-109910000D01*
X106618809Y-110100476D01*
X106714047Y-110481428D01*
X106714047Y-111148095D01*
X106618809Y-111529047D01*
X106428333Y-111719523D01*
X106237857Y-111814761D01*
X105856904Y-111814761D01*
X105666428Y-111719523D01*
X105475952Y-111529047D01*
X105380714Y-111148095D01*
X105380714Y-110481428D01*
X105475952Y-110100476D01*
X105666428Y-109910000D01*
X105856904Y-109814761D01*
X176071190Y-61814761D02*
X176071190Y-59814761D01*
X177214047Y-61814761D01*
X177214047Y-59814761D01*
X178071190Y-61243333D02*
X179023571Y-61243333D01*
X177880714Y-61814761D02*
X178547380Y-59814761D01*
X179214047Y-61814761D01*
X179880714Y-61814761D02*
X179880714Y-59814761D01*
X181023571Y-61814761D01*
X181023571Y-59814761D01*
X182356904Y-59814761D02*
X182737857Y-59814761D01*
X182928333Y-59910000D01*
X183118809Y-60100476D01*
X183214047Y-60481428D01*
X183214047Y-61148095D01*
X183118809Y-61529047D01*
X182928333Y-61719523D01*
X182737857Y-61814761D01*
X182356904Y-61814761D01*
X182166428Y-61719523D01*
X181975952Y-61529047D01*
X181880714Y-61148095D01*
X181880714Y-60481428D01*
X181975952Y-60100476D01*
X182166428Y-59910000D01*
X182356904Y-59814761D01*
X125071190Y-111814761D02*
X125071190Y-109814761D01*
X126214047Y-111814761D01*
X126214047Y-109814761D01*
X127071190Y-111243333D02*
X128023571Y-111243333D01*
X126880714Y-111814761D02*
X127547380Y-109814761D01*
X128214047Y-111814761D01*
X128880714Y-111814761D02*
X128880714Y-109814761D01*
X130023571Y-111814761D01*
X130023571Y-109814761D01*
X131356904Y-109814761D02*
X131737857Y-109814761D01*
X131928333Y-109910000D01*
X132118809Y-110100476D01*
X132214047Y-110481428D01*
X132214047Y-111148095D01*
X132118809Y-111529047D01*
X131928333Y-111719523D01*
X131737857Y-111814761D01*
X131356904Y-111814761D01*
X131166428Y-111719523D01*
X130975952Y-111529047D01*
X130880714Y-111148095D01*
X130880714Y-110481428D01*
X130975952Y-110100476D01*
X131166428Y-109910000D01*
X131356904Y-109814761D01*
X99571190Y-61814761D02*
X99571190Y-59814761D01*
X100714047Y-61814761D01*
X100714047Y-59814761D01*
X101571190Y-61243333D02*
X102523571Y-61243333D01*
X101380714Y-61814761D02*
X102047380Y-59814761D01*
X102714047Y-61814761D01*
X103380714Y-61814761D02*
X103380714Y-59814761D01*
X104523571Y-61814761D01*
X104523571Y-59814761D01*
X105856904Y-59814761D02*
X106237857Y-59814761D01*
X106428333Y-59910000D01*
X106618809Y-60100476D01*
X106714047Y-60481428D01*
X106714047Y-61148095D01*
X106618809Y-61529047D01*
X106428333Y-61719523D01*
X106237857Y-61814761D01*
X105856904Y-61814761D01*
X105666428Y-61719523D01*
X105475952Y-61529047D01*
X105380714Y-61148095D01*
X105380714Y-60481428D01*
X105475952Y-60100476D01*
X105666428Y-59910000D01*
X105856904Y-59814761D01*
X150571190Y-111814761D02*
X150571190Y-109814761D01*
X151714047Y-111814761D01*
X151714047Y-109814761D01*
X152571190Y-111243333D02*
X153523571Y-111243333D01*
X152380714Y-111814761D02*
X153047380Y-109814761D01*
X153714047Y-111814761D01*
X154380714Y-111814761D02*
X154380714Y-109814761D01*
X155523571Y-111814761D01*
X155523571Y-109814761D01*
X156856904Y-109814761D02*
X157237857Y-109814761D01*
X157428333Y-109910000D01*
X157618809Y-110100476D01*
X157714047Y-110481428D01*
X157714047Y-111148095D01*
X157618809Y-111529047D01*
X157428333Y-111719523D01*
X157237857Y-111814761D01*
X156856904Y-111814761D01*
X156666428Y-111719523D01*
X156475952Y-111529047D01*
X156380714Y-111148095D01*
X156380714Y-110481428D01*
X156475952Y-110100476D01*
X156666428Y-109910000D01*
X156856904Y-109814761D01*
X125071190Y-61814761D02*
X125071190Y-59814761D01*
X126214047Y-61814761D01*
X126214047Y-59814761D01*
X127071190Y-61243333D02*
X128023571Y-61243333D01*
X126880714Y-61814761D02*
X127547380Y-59814761D01*
X128214047Y-61814761D01*
X128880714Y-61814761D02*
X128880714Y-59814761D01*
X130023571Y-61814761D01*
X130023571Y-59814761D01*
X131356904Y-59814761D02*
X131737857Y-59814761D01*
X131928333Y-59910000D01*
X132118809Y-60100476D01*
X132214047Y-60481428D01*
X132214047Y-61148095D01*
X132118809Y-61529047D01*
X131928333Y-61719523D01*
X131737857Y-61814761D01*
X131356904Y-61814761D01*
X131166428Y-61719523D01*
X130975952Y-61529047D01*
X130880714Y-61148095D01*
X130880714Y-60481428D01*
X130975952Y-60100476D01*
X131166428Y-59910000D01*
X131356904Y-59814761D01*
X176071190Y-111814761D02*
X176071190Y-109814761D01*
X177214047Y-111814761D01*
X177214047Y-109814761D01*
X178071190Y-111243333D02*
X179023571Y-111243333D01*
X177880714Y-111814761D02*
X178547380Y-109814761D01*
X179214047Y-111814761D01*
X179880714Y-111814761D02*
X179880714Y-109814761D01*
X181023571Y-111814761D01*
X181023571Y-109814761D01*
X182356904Y-109814761D02*
X182737857Y-109814761D01*
X182928333Y-109910000D01*
X183118809Y-110100476D01*
X183214047Y-110481428D01*
X183214047Y-111148095D01*
X183118809Y-111529047D01*
X182928333Y-111719523D01*
X182737857Y-111814761D01*
X182356904Y-111814761D01*
X182166428Y-111719523D01*
X181975952Y-111529047D01*
X181880714Y-111148095D01*
X181880714Y-110481428D01*
X181975952Y-110100476D01*
X182166428Y-109910000D01*
X182356904Y-109814761D01*
X150571190Y-61814761D02*
X150571190Y-59814761D01*
X151714047Y-61814761D01*
X151714047Y-59814761D01*
X152571190Y-61243333D02*
X153523571Y-61243333D01*
X152380714Y-61814761D02*
X153047380Y-59814761D01*
X153714047Y-61814761D01*
X154380714Y-61814761D02*
X154380714Y-59814761D01*
X155523571Y-61814761D01*
X155523571Y-59814761D01*
X156856904Y-59814761D02*
X157237857Y-59814761D01*
X157428333Y-59910000D01*
X157618809Y-60100476D01*
X157714047Y-60481428D01*
X157714047Y-61148095D01*
X157618809Y-61529047D01*
X157428333Y-61719523D01*
X157237857Y-61814761D01*
X156856904Y-61814761D01*
X156666428Y-61719523D01*
X156475952Y-61529047D01*
X156380714Y-61148095D01*
X156380714Y-60481428D01*
X156475952Y-60100476D01*
X156666428Y-59910000D01*
X156856904Y-59814761D01*
D11*
X142920000Y-121095000D02*
G75*
G03*
X140920000Y-121095000I-1000000J0D01*
G01*
X140920000Y-115595000D02*
G75*
G03*
X142920000Y-115595000I1000000J0D01*
G01*
X142920000Y-143330000D02*
G75*
G03*
X140920000Y-143330000I-1000000J0D01*
G01*
X140920000Y-137830000D02*
G75*
G03*
X142920000Y-137830000I1000000J0D01*
G01*
D12*
X173670001Y-111015001D02*
X171000001Y-111015001D01*
D13*
X173670001Y-146575001D02*
X170990001Y-146575001D01*
X186300001Y-108475001D02*
X186300001Y-146575001D01*
X173800001Y-111015001D02*
X173800001Y-146575001D01*
X186370001Y-146575001D02*
X189000001Y-146575001D01*
X171000001Y-110905001D02*
X170990001Y-146575001D01*
X189000001Y-108475001D02*
X189000001Y-146575001D01*
X186370001Y-108475001D02*
X189000001Y-108475001D01*
D12*
X176210001Y-143335001D02*
X183820001Y-143335001D01*
X183820001Y-143335001D02*
X183820001Y-149145001D01*
X183820001Y-149145001D02*
X176210001Y-149145001D01*
X176210001Y-149145001D02*
X176210001Y-143335001D01*
G36*
X176210001Y-143335001D02*
G01*
X183820001Y-143335001D01*
X183820001Y-149145001D01*
X176210001Y-149145001D01*
X176210001Y-143335001D01*
G37*
D14*
X171050001Y-108585001D02*
X173780001Y-108585001D01*
X173780001Y-108585001D02*
X173780001Y-110905001D01*
X173780001Y-110905001D02*
X171050001Y-110905001D01*
X171050001Y-110905001D02*
X171050001Y-108585001D01*
D13*
X122800001Y-61015001D02*
X122800001Y-96575001D01*
D12*
X122670001Y-61015001D02*
X120000001Y-61015001D01*
D13*
X135300001Y-58475001D02*
X135300001Y-96575001D01*
X120000001Y-60905001D02*
X119990001Y-96575001D01*
X138000001Y-58475001D02*
X138000001Y-96575001D01*
X135370001Y-58475001D02*
X138000001Y-58475001D01*
X122670001Y-96575001D02*
X119990001Y-96575001D01*
X135370001Y-96575001D02*
X138000001Y-96575001D01*
D14*
X120050001Y-58585001D02*
X122780001Y-58585001D01*
X122780001Y-58585001D02*
X122780001Y-60905001D01*
X122780001Y-60905001D02*
X120050001Y-60905001D01*
X120050001Y-60905001D02*
X120050001Y-58585001D01*
D12*
X125210001Y-93335001D02*
X132820001Y-93335001D01*
X132820001Y-93335001D02*
X132820001Y-99145001D01*
X132820001Y-99145001D02*
X125210001Y-99145001D01*
X125210001Y-99145001D02*
X125210001Y-93335001D01*
G36*
X125210001Y-93335001D02*
G01*
X132820001Y-93335001D01*
X132820001Y-99145001D01*
X125210001Y-99145001D01*
X125210001Y-93335001D01*
G37*
D11*
X140920000Y-65595000D02*
G75*
G03*
X142920000Y-65595000I1000000J0D01*
G01*
X142920000Y-71095000D02*
G75*
G03*
X140920000Y-71095000I-1000000J0D01*
G01*
X126430000Y-104660000D02*
G75*
G03*
X126430000Y-102660000I0J1000000D01*
G01*
X131930000Y-102660000D02*
G75*
G03*
X131930000Y-104660000I0J-1000000D01*
G01*
X115420000Y-87830000D02*
G75*
G03*
X117420000Y-87830000I1000000J0D01*
G01*
X117420000Y-93330000D02*
G75*
G03*
X115420000Y-93330000I-1000000J0D01*
G01*
X106430000Y-102660000D02*
G75*
G03*
X106430000Y-104660000I0J-1000000D01*
G01*
X100930000Y-104660000D02*
G75*
G03*
X100930000Y-102660000I0J1000000D01*
G01*
X117420000Y-71095000D02*
G75*
G03*
X115420000Y-71095000I-1000000J0D01*
G01*
X115420000Y-65595000D02*
G75*
G03*
X117420000Y-65595000I1000000J0D01*
G01*
D13*
X97170001Y-146575001D02*
X94490001Y-146575001D01*
D12*
X97170001Y-111015001D02*
X94500001Y-111015001D01*
D13*
X94500001Y-110905001D02*
X94490001Y-146575001D01*
X109800001Y-108475001D02*
X109800001Y-146575001D01*
X112500001Y-108475001D02*
X112500001Y-146575001D01*
X97300001Y-111015001D02*
X97300001Y-146575001D01*
X109870001Y-146575001D02*
X112500001Y-146575001D01*
X109870001Y-108475001D02*
X112500001Y-108475001D01*
D12*
X99710001Y-143335001D02*
X107320001Y-143335001D01*
X107320001Y-143335001D02*
X107320001Y-149145001D01*
X107320001Y-149145001D02*
X99710001Y-149145001D01*
X99710001Y-149145001D02*
X99710001Y-143335001D01*
G36*
X99710001Y-143335001D02*
G01*
X107320001Y-143335001D01*
X107320001Y-149145001D01*
X99710001Y-149145001D01*
X99710001Y-143335001D01*
G37*
D14*
X94550001Y-108585001D02*
X97280001Y-108585001D01*
X97280001Y-108585001D02*
X97280001Y-110905001D01*
X97280001Y-110905001D02*
X94550001Y-110905001D01*
X94550001Y-110905001D02*
X94550001Y-108585001D01*
D11*
X166420000Y-65595000D02*
G75*
G03*
X168420000Y-65595000I1000000J0D01*
G01*
X168420000Y-71095000D02*
G75*
G03*
X166420000Y-71095000I-1000000J0D01*
G01*
X168420000Y-93330000D02*
G75*
G03*
X166420000Y-93330000I-1000000J0D01*
G01*
X166420000Y-87830000D02*
G75*
G03*
X168420000Y-87830000I1000000J0D01*
G01*
X182930000Y-102660000D02*
G75*
G03*
X182930000Y-104660000I0J-1000000D01*
G01*
X177430000Y-104660000D02*
G75*
G03*
X177430000Y-102660000I0J1000000D01*
G01*
X140920000Y-87830000D02*
G75*
G03*
X142920000Y-87830000I1000000J0D01*
G01*
X142920000Y-93330000D02*
G75*
G03*
X140920000Y-93330000I-1000000J0D01*
G01*
X157430000Y-102660000D02*
G75*
G03*
X157430000Y-104660000I0J-1000000D01*
G01*
X151930000Y-104660000D02*
G75*
G03*
X151930000Y-102660000I0J1000000D01*
G01*
D13*
X148300001Y-61015001D02*
X148300001Y-96575001D01*
X160870001Y-96575001D02*
X163500001Y-96575001D01*
X160870001Y-58475001D02*
X163500001Y-58475001D01*
D12*
X148170001Y-61015001D02*
X145500001Y-61015001D01*
D13*
X163500001Y-58475001D02*
X163500001Y-96575001D01*
X148170001Y-96575001D02*
X145490001Y-96575001D01*
X145500001Y-60905001D02*
X145490001Y-96575001D01*
X160800001Y-58475001D02*
X160800001Y-96575001D01*
D14*
X145550001Y-58585001D02*
X148280001Y-58585001D01*
X148280001Y-58585001D02*
X148280001Y-60905001D01*
X148280001Y-60905001D02*
X145550001Y-60905001D01*
X145550001Y-60905001D02*
X145550001Y-58585001D01*
D12*
X150710001Y-93335001D02*
X158320001Y-93335001D01*
X158320001Y-93335001D02*
X158320001Y-99145001D01*
X158320001Y-99145001D02*
X150710001Y-99145001D01*
X150710001Y-99145001D02*
X150710001Y-93335001D01*
G36*
X150710001Y-93335001D02*
G01*
X158320001Y-93335001D01*
X158320001Y-99145001D01*
X150710001Y-99145001D01*
X150710001Y-93335001D01*
G37*
D11*
X115420000Y-137830000D02*
G75*
G03*
X117420000Y-137830000I1000000J0D01*
G01*
X117420000Y-143330000D02*
G75*
G03*
X115420000Y-143330000I-1000000J0D01*
G01*
X168420000Y-143330000D02*
G75*
G03*
X166420000Y-143330000I-1000000J0D01*
G01*
X166420000Y-137830000D02*
G75*
G03*
X168420000Y-137830000I1000000J0D01*
G01*
D13*
X189000001Y-58475001D02*
X189000001Y-96575001D01*
X186370001Y-96575001D02*
X189000001Y-96575001D01*
X186370001Y-58475001D02*
X189000001Y-58475001D01*
X186300001Y-58475001D02*
X186300001Y-96575001D01*
X173670001Y-96575001D02*
X170990001Y-96575001D01*
X171000001Y-60905001D02*
X170990001Y-96575001D01*
D12*
X173670001Y-61015001D02*
X171000001Y-61015001D01*
D13*
X173800001Y-61015001D02*
X173800001Y-96575001D01*
D12*
X176210001Y-93335001D02*
X183820001Y-93335001D01*
X183820001Y-93335001D02*
X183820001Y-99145001D01*
X183820001Y-99145001D02*
X176210001Y-99145001D01*
X176210001Y-99145001D02*
X176210001Y-93335001D01*
G36*
X176210001Y-93335001D02*
G01*
X183820001Y-93335001D01*
X183820001Y-99145001D01*
X176210001Y-99145001D01*
X176210001Y-93335001D01*
G37*
D14*
X171050001Y-58585001D02*
X173780001Y-58585001D01*
X173780001Y-58585001D02*
X173780001Y-60905001D01*
X173780001Y-60905001D02*
X171050001Y-60905001D01*
X171050001Y-60905001D02*
X171050001Y-58585001D01*
D13*
X160870001Y-146575001D02*
X163500001Y-146575001D01*
X148300001Y-111015001D02*
X148300001Y-146575001D01*
X160870001Y-108475001D02*
X163500001Y-108475001D01*
D12*
X148170001Y-111015001D02*
X145500001Y-111015001D01*
D13*
X163500001Y-108475001D02*
X163500001Y-146575001D01*
X148170001Y-146575001D02*
X145490001Y-146575001D01*
X145500001Y-110905001D02*
X145490001Y-146575001D01*
X160800001Y-108475001D02*
X160800001Y-146575001D01*
D14*
X145550001Y-108585001D02*
X148280001Y-108585001D01*
X148280001Y-108585001D02*
X148280001Y-110905001D01*
X148280001Y-110905001D02*
X145550001Y-110905001D01*
X145550001Y-110905001D02*
X145550001Y-108585001D01*
D12*
X150710001Y-143335001D02*
X158320001Y-143335001D01*
X158320001Y-143335001D02*
X158320001Y-149145001D01*
X158320001Y-149145001D02*
X150710001Y-149145001D01*
X150710001Y-149145001D02*
X150710001Y-143335001D01*
G36*
X150710001Y-143335001D02*
G01*
X158320001Y-143335001D01*
X158320001Y-149145001D01*
X150710001Y-149145001D01*
X150710001Y-143335001D01*
G37*
D11*
X166420000Y-115595000D02*
G75*
G03*
X168420000Y-115595000I1000000J0D01*
G01*
X168420000Y-121095000D02*
G75*
G03*
X166420000Y-121095000I-1000000J0D01*
G01*
X115420000Y-115595000D02*
G75*
G03*
X117420000Y-115595000I1000000J0D01*
G01*
X117420000Y-121095000D02*
G75*
G03*
X115420000Y-121095000I-1000000J0D01*
G01*
D13*
X122670001Y-146575001D02*
X119990001Y-146575001D01*
X135300001Y-108475001D02*
X135300001Y-146575001D01*
X135370001Y-108475001D02*
X138000001Y-108475001D01*
X135370001Y-146575001D02*
X138000001Y-146575001D01*
X120000001Y-110905001D02*
X119990001Y-146575001D01*
X138000001Y-108475001D02*
X138000001Y-146575001D01*
D12*
X122670001Y-111015001D02*
X120000001Y-111015001D01*
D13*
X122800001Y-111015001D02*
X122800001Y-146575001D01*
D14*
X120050001Y-108585001D02*
X122780001Y-108585001D01*
X122780001Y-108585001D02*
X122780001Y-110905001D01*
X122780001Y-110905001D02*
X120050001Y-110905001D01*
X120050001Y-110905001D02*
X120050001Y-108585001D01*
D12*
X125210001Y-143335001D02*
X132820001Y-143335001D01*
X132820001Y-143335001D02*
X132820001Y-149145001D01*
X132820001Y-149145001D02*
X125210001Y-149145001D01*
X125210001Y-149145001D02*
X125210001Y-143335001D01*
G36*
X125210001Y-143335001D02*
G01*
X132820001Y-143335001D01*
X132820001Y-149145001D01*
X125210001Y-149145001D01*
X125210001Y-143335001D01*
G37*
X97170001Y-61015001D02*
X94500001Y-61015001D01*
D13*
X97300001Y-61015001D02*
X97300001Y-96575001D01*
X109800001Y-58475001D02*
X109800001Y-96575001D01*
X109870001Y-58475001D02*
X112500001Y-58475001D01*
X97170001Y-96575001D02*
X94490001Y-96575001D01*
X109870001Y-96575001D02*
X112500001Y-96575001D01*
X112500001Y-58475001D02*
X112500001Y-96575001D01*
X94500001Y-60905001D02*
X94490001Y-96575001D01*
D12*
X99710001Y-93335001D02*
X107320001Y-93335001D01*
X107320001Y-93335001D02*
X107320001Y-99145001D01*
X107320001Y-99145001D02*
X99710001Y-99145001D01*
X99710001Y-99145001D02*
X99710001Y-93335001D01*
G36*
X99710001Y-93335001D02*
G01*
X107320001Y-93335001D01*
X107320001Y-99145001D01*
X99710001Y-99145001D01*
X99710001Y-93335001D01*
G37*
D14*
X94550001Y-58585001D02*
X97280001Y-58585001D01*
X97280001Y-58585001D02*
X97280001Y-60905001D01*
X97280001Y-60905001D02*
X94550001Y-60905001D01*
X94550001Y-60905001D02*
X94550001Y-58585001D01*
%LPC*%
D15*
X142670000Y-116845000D03*
X142670000Y-118345000D03*
X141170000Y-119845000D03*
X142670000Y-117595000D03*
X141170000Y-119095000D03*
X141170000Y-118345000D03*
X141170000Y-116845000D03*
X142670000Y-119845000D03*
X141170000Y-117595000D03*
X142670000Y-119095000D03*
D16*
X157415000Y-91050000D03*
X157415000Y-88750000D03*
X157415000Y-86450000D03*
X157415000Y-84150000D03*
X157415000Y-81850000D03*
X157415000Y-79550000D03*
X157415000Y-77250000D03*
X157415000Y-74950000D03*
X157415000Y-72650000D03*
X157415000Y-70350000D03*
X157415000Y-68050000D03*
X157415000Y-65750000D03*
X151835000Y-91050000D03*
X151835000Y-88750900D03*
X151835000Y-86451810D03*
X151835000Y-84152720D03*
X151835000Y-81853630D03*
X151835000Y-79554540D03*
X151835000Y-77255450D03*
X151835000Y-74956360D03*
X151835000Y-72657270D03*
X151835000Y-70358180D03*
X151835000Y-68059090D03*
X151835000Y-65760000D03*
D15*
X141170000Y-142080000D03*
X142670000Y-142080000D03*
X142670000Y-139830000D03*
X142670000Y-139080000D03*
X142670000Y-141330000D03*
X142670000Y-140580000D03*
X141170000Y-140580000D03*
X141170000Y-139830000D03*
X141170000Y-141330000D03*
X141170000Y-139080000D03*
D17*
X172400001Y-109745001D03*
D18*
X172400001Y-112285001D03*
X172400001Y-114825001D03*
X172400001Y-117365001D03*
X172400001Y-119905001D03*
X172400001Y-122445001D03*
X172400001Y-124985001D03*
X172400001Y-127525001D03*
X172400001Y-130065001D03*
X172400001Y-132605001D03*
X172400001Y-135145001D03*
X172400001Y-137685001D03*
X172400001Y-140225001D03*
X172400001Y-142765001D03*
X172400001Y-145305001D03*
X187640001Y-145305001D03*
X187640001Y-142765001D03*
X187640001Y-140225001D03*
X187640001Y-137685001D03*
X187640001Y-135145001D03*
X187640001Y-132605001D03*
X187640001Y-130065001D03*
X187640001Y-127525001D03*
X187640001Y-124985001D03*
X187640001Y-122445001D03*
X187640001Y-119905001D03*
X187640001Y-117365001D03*
X187640001Y-114825001D03*
X187640001Y-112285001D03*
X187640001Y-109745001D03*
D16*
X131915000Y-141050000D03*
X131915000Y-138750000D03*
X131915000Y-136450000D03*
X131915000Y-134150000D03*
X131915000Y-131850000D03*
X131915000Y-129550000D03*
X131915000Y-127250000D03*
X131915000Y-124950000D03*
X131915000Y-122650000D03*
X131915000Y-120350000D03*
X131915000Y-118050000D03*
X131915000Y-115750000D03*
X126335000Y-141050000D03*
X126335000Y-138750900D03*
X126335000Y-136451810D03*
X126335000Y-134152720D03*
X126335000Y-131853630D03*
X126335000Y-129554540D03*
X126335000Y-127255450D03*
X126335000Y-124956360D03*
X126335000Y-122657270D03*
X126335000Y-120358180D03*
X126335000Y-118059090D03*
X126335000Y-115760000D03*
D17*
X121400001Y-59745001D03*
D18*
X121400001Y-62285001D03*
X121400001Y-64825001D03*
X121400001Y-67365001D03*
X121400001Y-69905001D03*
X121400001Y-72445001D03*
X121400001Y-74985001D03*
X121400001Y-77525001D03*
X121400001Y-80065001D03*
X121400001Y-82605001D03*
X121400001Y-85145001D03*
X121400001Y-87685001D03*
X121400001Y-90225001D03*
X121400001Y-92765001D03*
X121400001Y-95305001D03*
X136640001Y-95305001D03*
X136640001Y-92765001D03*
X136640001Y-90225001D03*
X136640001Y-87685001D03*
X136640001Y-85145001D03*
X136640001Y-82605001D03*
X136640001Y-80065001D03*
X136640001Y-77525001D03*
X136640001Y-74985001D03*
X136640001Y-72445001D03*
X136640001Y-69905001D03*
X136640001Y-67365001D03*
X136640001Y-64825001D03*
X136640001Y-62285001D03*
X136640001Y-59745001D03*
D16*
X106392500Y-91050000D03*
X106392500Y-88750000D03*
X106392500Y-86450000D03*
X106392500Y-84150000D03*
X106392500Y-81850000D03*
X106392500Y-79550000D03*
X106392500Y-77250000D03*
X106392500Y-74950000D03*
X106392500Y-72650000D03*
X106392500Y-70350000D03*
X106392500Y-68050000D03*
X106392500Y-65750000D03*
X100812500Y-91050000D03*
X100812500Y-88750900D03*
X100812500Y-86451810D03*
X100812500Y-84152720D03*
X100812500Y-81853630D03*
X100812500Y-79554540D03*
X100812500Y-77255450D03*
X100812500Y-74956360D03*
X100812500Y-72657270D03*
X100812500Y-70358180D03*
X100812500Y-68059090D03*
X100812500Y-65760000D03*
D15*
X142670000Y-69095000D03*
X141170000Y-66845000D03*
X142670000Y-67595000D03*
X142670000Y-66845000D03*
X141170000Y-69095000D03*
X141170000Y-69845000D03*
X141170000Y-67595000D03*
X141170000Y-68345000D03*
X142670000Y-68345000D03*
X142670000Y-69845000D03*
X130680000Y-104410000D03*
X129930000Y-104410000D03*
X127680000Y-104410000D03*
X129930000Y-102910000D03*
X128430000Y-102910000D03*
X129180000Y-104410000D03*
X128430000Y-104410000D03*
X129180000Y-102910000D03*
X130680000Y-102910000D03*
X127680000Y-102910000D03*
X115670000Y-90580000D03*
X117170000Y-89080000D03*
X115670000Y-91330000D03*
X115670000Y-92080000D03*
X117170000Y-90580000D03*
X117170000Y-91330000D03*
X117170000Y-89830000D03*
X117170000Y-92080000D03*
X115670000Y-89830000D03*
X115670000Y-89080000D03*
X103680000Y-102910000D03*
X105180000Y-102910000D03*
X103680000Y-104410000D03*
X102180000Y-102910000D03*
X105180000Y-104410000D03*
X102930000Y-104410000D03*
X102930000Y-102910000D03*
X104430000Y-102910000D03*
X102180000Y-104410000D03*
X104430000Y-104410000D03*
X117170000Y-67595000D03*
X115670000Y-66845000D03*
X115670000Y-69095000D03*
X117170000Y-69845000D03*
X117170000Y-69095000D03*
X117170000Y-66845000D03*
X115670000Y-69845000D03*
X115670000Y-67595000D03*
X115670000Y-68345000D03*
X117170000Y-68345000D03*
D17*
X95900001Y-109745001D03*
D18*
X95900001Y-112285001D03*
X95900001Y-114825001D03*
X95900001Y-117365001D03*
X95900001Y-119905001D03*
X95900001Y-122445001D03*
X95900001Y-124985001D03*
X95900001Y-127525001D03*
X95900001Y-130065001D03*
X95900001Y-132605001D03*
X95900001Y-135145001D03*
X95900001Y-137685001D03*
X95900001Y-140225001D03*
X95900001Y-142765001D03*
X95900001Y-145305001D03*
X111140001Y-145305001D03*
X111140001Y-142765001D03*
X111140001Y-140225001D03*
X111140001Y-137685001D03*
X111140001Y-135145001D03*
X111140001Y-132605001D03*
X111140001Y-130065001D03*
X111140001Y-127525001D03*
X111140001Y-124985001D03*
X111140001Y-122445001D03*
X111140001Y-119905001D03*
X111140001Y-117365001D03*
X111140001Y-114825001D03*
X111140001Y-112285001D03*
X111140001Y-109745001D03*
D15*
X166670000Y-67595000D03*
X168170000Y-66845000D03*
X166670000Y-66845000D03*
X168170000Y-68345000D03*
X166670000Y-68345000D03*
X166670000Y-69845000D03*
X168170000Y-69095000D03*
X168170000Y-69845000D03*
X168170000Y-67595000D03*
X166670000Y-69095000D03*
X166670000Y-91330000D03*
X166670000Y-89080000D03*
X168170000Y-89080000D03*
X168170000Y-91330000D03*
X166670000Y-89830000D03*
X166670000Y-92080000D03*
X168170000Y-92080000D03*
X168170000Y-89830000D03*
X166670000Y-90580000D03*
X168170000Y-90580000D03*
D16*
X131915000Y-91050000D03*
X131915000Y-88750000D03*
X131915000Y-86450000D03*
X131915000Y-84150000D03*
X131915000Y-81850000D03*
X131915000Y-79550000D03*
X131915000Y-77250000D03*
X131915000Y-74950000D03*
X131915000Y-72650000D03*
X131915000Y-70350000D03*
X131915000Y-68050000D03*
X131915000Y-65750000D03*
X126335000Y-91050000D03*
X126335000Y-88750900D03*
X126335000Y-86451810D03*
X126335000Y-84152720D03*
X126335000Y-81853630D03*
X126335000Y-79554540D03*
X126335000Y-77255450D03*
X126335000Y-74956360D03*
X126335000Y-72657270D03*
X126335000Y-70358180D03*
X126335000Y-68059090D03*
X126335000Y-65760000D03*
D15*
X180180000Y-102910000D03*
X181680000Y-104410000D03*
X179430000Y-102910000D03*
X180930000Y-104410000D03*
X179430000Y-104410000D03*
X180930000Y-102910000D03*
X180180000Y-104410000D03*
X181680000Y-102910000D03*
X178680000Y-102910000D03*
X178680000Y-104410000D03*
D16*
X182915000Y-91050000D03*
X182915000Y-88750000D03*
X182915000Y-86450000D03*
X182915000Y-84150000D03*
X182915000Y-81850000D03*
X182915000Y-79550000D03*
X182915000Y-77250000D03*
X182915000Y-74950000D03*
X182915000Y-72650000D03*
X182915000Y-70350000D03*
X182915000Y-68050000D03*
X182915000Y-65750000D03*
X177335000Y-91050000D03*
X177335000Y-88750900D03*
X177335000Y-86451810D03*
X177335000Y-84152720D03*
X177335000Y-81853630D03*
X177335000Y-79554540D03*
X177335000Y-77255450D03*
X177335000Y-74956360D03*
X177335000Y-72657270D03*
X177335000Y-70358180D03*
X177335000Y-68059090D03*
X177335000Y-65760000D03*
D15*
X142670000Y-89830000D03*
X141170000Y-92080000D03*
X141170000Y-90580000D03*
X141170000Y-89830000D03*
X142670000Y-89080000D03*
X141170000Y-91330000D03*
X141170000Y-89080000D03*
X142670000Y-91330000D03*
X142670000Y-92080000D03*
X142670000Y-90580000D03*
X155430000Y-104410000D03*
X153180000Y-102910000D03*
X155430000Y-102910000D03*
X153930000Y-104410000D03*
X156180000Y-102910000D03*
X153180000Y-104410000D03*
X156180000Y-104410000D03*
X153930000Y-102910000D03*
X154680000Y-102910000D03*
X154680000Y-104410000D03*
D17*
X146900001Y-59745001D03*
D18*
X146900001Y-62285001D03*
X146900001Y-64825001D03*
X146900001Y-67365001D03*
X146900001Y-69905001D03*
X146900001Y-72445001D03*
X146900001Y-74985001D03*
X146900001Y-77525001D03*
X146900001Y-80065001D03*
X146900001Y-82605001D03*
X146900001Y-85145001D03*
X146900001Y-87685001D03*
X146900001Y-90225001D03*
X146900001Y-92765001D03*
X146900001Y-95305001D03*
X162140001Y-95305001D03*
X162140001Y-92765001D03*
X162140001Y-90225001D03*
X162140001Y-87685001D03*
X162140001Y-85145001D03*
X162140001Y-82605001D03*
X162140001Y-80065001D03*
X162140001Y-77525001D03*
X162140001Y-74985001D03*
X162140001Y-72445001D03*
X162140001Y-69905001D03*
X162140001Y-67365001D03*
X162140001Y-64825001D03*
X162140001Y-62285001D03*
X162140001Y-59745001D03*
D15*
X117170000Y-142080000D03*
X117170000Y-139080000D03*
X115670000Y-142080000D03*
X115670000Y-141330000D03*
X117170000Y-141330000D03*
X117170000Y-139830000D03*
X115670000Y-140580000D03*
X117170000Y-140580000D03*
X115670000Y-139080000D03*
X115670000Y-139830000D03*
X166670000Y-141330000D03*
X166670000Y-140580000D03*
X168170000Y-139830000D03*
X168170000Y-142080000D03*
X166670000Y-142080000D03*
X168170000Y-141330000D03*
X168170000Y-139080000D03*
X168170000Y-140580000D03*
X166670000Y-139080000D03*
X166670000Y-139830000D03*
D16*
X182915000Y-141050000D03*
X182915000Y-138750000D03*
X182915000Y-136450000D03*
X182915000Y-134150000D03*
X182915000Y-131850000D03*
X182915000Y-129550000D03*
X182915000Y-127250000D03*
X182915000Y-124950000D03*
X182915000Y-122650000D03*
X182915000Y-120350000D03*
X182915000Y-118050000D03*
X182915000Y-115750000D03*
X177335000Y-141050000D03*
X177335000Y-138750900D03*
X177335000Y-136451810D03*
X177335000Y-134152720D03*
X177335000Y-131853630D03*
X177335000Y-129554540D03*
X177335000Y-127255450D03*
X177335000Y-124956360D03*
X177335000Y-122657270D03*
X177335000Y-120358180D03*
X177335000Y-118059090D03*
X177335000Y-115760000D03*
D17*
X172400001Y-59745001D03*
D18*
X172400001Y-62285001D03*
X172400001Y-64825001D03*
X172400001Y-67365001D03*
X172400001Y-69905001D03*
X172400001Y-72445001D03*
X172400001Y-74985001D03*
X172400001Y-77525001D03*
X172400001Y-80065001D03*
X172400001Y-82605001D03*
X172400001Y-85145001D03*
X172400001Y-87685001D03*
X172400001Y-90225001D03*
X172400001Y-92765001D03*
X172400001Y-95305001D03*
X187640001Y-95305001D03*
X187640001Y-92765001D03*
X187640001Y-90225001D03*
X187640001Y-87685001D03*
X187640001Y-85145001D03*
X187640001Y-82605001D03*
X187640001Y-80065001D03*
X187640001Y-77525001D03*
X187640001Y-74985001D03*
X187640001Y-72445001D03*
X187640001Y-69905001D03*
X187640001Y-67365001D03*
X187640001Y-64825001D03*
X187640001Y-62285001D03*
X187640001Y-59745001D03*
D17*
X146900001Y-109745001D03*
D18*
X146900001Y-112285001D03*
X146900001Y-114825001D03*
X146900001Y-117365001D03*
X146900001Y-119905001D03*
X146900001Y-122445001D03*
X146900001Y-124985001D03*
X146900001Y-127525001D03*
X146900001Y-130065001D03*
X146900001Y-132605001D03*
X146900001Y-135145001D03*
X146900001Y-137685001D03*
X146900001Y-140225001D03*
X146900001Y-142765001D03*
X146900001Y-145305001D03*
X162140001Y-145305001D03*
X162140001Y-142765001D03*
X162140001Y-140225001D03*
X162140001Y-137685001D03*
X162140001Y-135145001D03*
X162140001Y-132605001D03*
X162140001Y-130065001D03*
X162140001Y-127525001D03*
X162140001Y-124985001D03*
X162140001Y-122445001D03*
X162140001Y-119905001D03*
X162140001Y-117365001D03*
X162140001Y-114825001D03*
X162140001Y-112285001D03*
X162140001Y-109745001D03*
D16*
X106415000Y-141050000D03*
X106415000Y-138750000D03*
X106415000Y-136450000D03*
X106415000Y-134150000D03*
X106415000Y-131850000D03*
X106415000Y-129550000D03*
X106415000Y-127250000D03*
X106415000Y-124950000D03*
X106415000Y-122650000D03*
X106415000Y-120350000D03*
X106415000Y-118050000D03*
X106415000Y-115750000D03*
X100835000Y-141050000D03*
X100835000Y-138750900D03*
X100835000Y-136451810D03*
X100835000Y-134152720D03*
X100835000Y-131853630D03*
X100835000Y-129554540D03*
X100835000Y-127255450D03*
X100835000Y-124956360D03*
X100835000Y-122657270D03*
X100835000Y-120358180D03*
X100835000Y-118059090D03*
X100835000Y-115760000D03*
D15*
X166670000Y-117595000D03*
X166670000Y-119845000D03*
X166670000Y-119095000D03*
X168170000Y-118345000D03*
X168170000Y-116845000D03*
X168170000Y-117595000D03*
X166670000Y-118345000D03*
X166670000Y-116845000D03*
X168170000Y-119845000D03*
X168170000Y-119095000D03*
X117170000Y-119095000D03*
X117170000Y-119845000D03*
X117170000Y-116845000D03*
X117170000Y-118345000D03*
X115670000Y-117595000D03*
X115670000Y-116845000D03*
X117170000Y-117595000D03*
X115670000Y-118345000D03*
X115670000Y-119095000D03*
X115670000Y-119845000D03*
D17*
X121400001Y-109745001D03*
D18*
X121400001Y-112285001D03*
X121400001Y-114825001D03*
X121400001Y-117365001D03*
X121400001Y-119905001D03*
X121400001Y-122445001D03*
X121400001Y-124985001D03*
X121400001Y-127525001D03*
X121400001Y-130065001D03*
X121400001Y-132605001D03*
X121400001Y-135145001D03*
X121400001Y-137685001D03*
X121400001Y-140225001D03*
X121400001Y-142765001D03*
X121400001Y-145305001D03*
X136640001Y-145305001D03*
X136640001Y-142765001D03*
X136640001Y-140225001D03*
X136640001Y-137685001D03*
X136640001Y-135145001D03*
X136640001Y-132605001D03*
X136640001Y-130065001D03*
X136640001Y-127525001D03*
X136640001Y-124985001D03*
X136640001Y-122445001D03*
X136640001Y-119905001D03*
X136640001Y-117365001D03*
X136640001Y-114825001D03*
X136640001Y-112285001D03*
X136640001Y-109745001D03*
D17*
X95900001Y-59745001D03*
D18*
X95900001Y-62285001D03*
X95900001Y-64825001D03*
X95900001Y-67365001D03*
X95900001Y-69905001D03*
X95900001Y-72445001D03*
X95900001Y-74985001D03*
X95900001Y-77525001D03*
X95900001Y-80065001D03*
X95900001Y-82605001D03*
X95900001Y-85145001D03*
X95900001Y-87685001D03*
X95900001Y-90225001D03*
X95900001Y-92765001D03*
X95900001Y-95305001D03*
X111140001Y-95305001D03*
X111140001Y-92765001D03*
X111140001Y-90225001D03*
X111140001Y-87685001D03*
X111140001Y-85145001D03*
X111140001Y-82605001D03*
X111140001Y-80065001D03*
X111140001Y-77525001D03*
X111140001Y-74985001D03*
X111140001Y-72445001D03*
X111140001Y-69905001D03*
X111140001Y-67365001D03*
X111140001Y-64825001D03*
X111140001Y-62285001D03*
X111140001Y-59745001D03*
D16*
X157415000Y-141050000D03*
X157415000Y-138750000D03*
X157415000Y-136450000D03*
X157415000Y-134150000D03*
X157415000Y-131850000D03*
X157415000Y-129550000D03*
X157415000Y-127250000D03*
X157415000Y-124950000D03*
X157415000Y-122650000D03*
X157415000Y-120350000D03*
X157415000Y-118050000D03*
X157415000Y-115750000D03*
X151835000Y-141050000D03*
X151835000Y-138750900D03*
X151835000Y-136451810D03*
X151835000Y-134152720D03*
X151835000Y-131853630D03*
X151835000Y-129554540D03*
X151835000Y-127255450D03*
X151835000Y-124956360D03*
X151835000Y-122657270D03*
X151835000Y-120358180D03*
X151835000Y-118059090D03*
X151835000Y-115760000D03*
M02*
