G04 #@! TF.GenerationSoftware,KiCad,Pcbnew,6.0.0-d3dd2cf0fa~116~ubuntu20.04.1*
G04 #@! TF.CreationDate,2022-01-17T17:50:43+01:00*
G04 #@! TF.ProjectId,8xArduino_GPIB_Cuttout,38784172-6475-4696-9e6f-5f475049425f,rev?*
G04 #@! TF.SameCoordinates,Original*
G04 #@! TF.FileFunction,Profile,NP*
%FSLAX46Y46*%
G04 Gerber Fmt 4.6, Leading zero omitted, Abs format (unit mm)*
G04 Created by KiCad (PCBNEW 6.0.0-d3dd2cf0fa~116~ubuntu20.04.1) date 2022-01-17 17:50:43*
%MOMM*%
%LPD*%
G01*
G04 APERTURE LIST*
G04 #@! TA.AperFunction,Profile*
%ADD10C,0.100000*%
G04 #@! TD*
G04 APERTURE END LIST*
D10*
X115420000Y-115590000D02*
X115420000Y-107660000D01*
X140920000Y-65590000D02*
G75*
G03*
X142920000Y-65590000I1000000J0D01*
G01*
X166420000Y-137825000D02*
G75*
G03*
X168420000Y-137825000I1000000J0D01*
G01*
X168420000Y-121100000D02*
X168420000Y-137825000D01*
X115420000Y-115590000D02*
G75*
G03*
X117420000Y-115590000I1000000J0D01*
G01*
X94920000Y-152660000D02*
X112420000Y-152660000D01*
X120420000Y-54660000D02*
G75*
G03*
X117420000Y-57660000I1J-3000001D01*
G01*
X142920000Y-71100000D02*
G75*
G03*
X140920000Y-71100000I-1000000J0D01*
G01*
X137920000Y-104660000D02*
X131935000Y-104660000D01*
X188920000Y-104660000D02*
X182935000Y-104660000D01*
X126425000Y-104660000D02*
X120420000Y-104660000D01*
X140920000Y-137825000D02*
G75*
G03*
X142920000Y-137825000I1000000J0D01*
G01*
X171420000Y-152660000D02*
X188920000Y-152660000D01*
X140920000Y-115590000D02*
G75*
G03*
X142920000Y-115590000I1000000J0D01*
G01*
X91920000Y-107660000D02*
X91920000Y-149660000D01*
X131935000Y-102660000D02*
X137920000Y-102660000D01*
X188920000Y-54660000D02*
X171420000Y-54660000D01*
X112420000Y-104660000D02*
X106435000Y-104660000D01*
X168420000Y-57660000D02*
X168420000Y-65590000D01*
X112420000Y-152660000D02*
G75*
G03*
X115420000Y-149660000I-1J3000001D01*
G01*
X191920000Y-99660000D02*
X191920000Y-57660000D01*
X182935000Y-102660000D02*
G75*
G03*
X182935000Y-104660000I0J-1000000D01*
G01*
X117420000Y-71100000D02*
G75*
G03*
X115420000Y-71100000I-1000000J0D01*
G01*
X171420000Y-104660000D02*
G75*
G03*
X168420000Y-107660000I1J-3000001D01*
G01*
X126425000Y-104660000D02*
G75*
G03*
X126425000Y-102660000I0J1000000D01*
G01*
X115420000Y-57660000D02*
G75*
G03*
X112420000Y-54660000I-3000001J-1D01*
G01*
X117420000Y-93335000D02*
X117420000Y-99660000D01*
X137920000Y-152660000D02*
G75*
G03*
X140920000Y-149660000I-1J3000001D01*
G01*
X140920000Y-107660000D02*
G75*
G03*
X137920000Y-104660000I-3000001J-1D01*
G01*
X100925000Y-104660000D02*
G75*
G03*
X100925000Y-102660000I0J1000000D01*
G01*
X142920000Y-143335000D02*
X142920000Y-149660000D01*
X115420000Y-137825000D02*
G75*
G03*
X117420000Y-137825000I1000000J0D01*
G01*
X140920000Y-87825000D02*
G75*
G03*
X142920000Y-87825000I1000000J0D01*
G01*
X94920000Y-104660000D02*
G75*
G03*
X91920000Y-107660000I1J-3000001D01*
G01*
X94920000Y-102660000D02*
X100925000Y-102660000D01*
X120420000Y-104660000D02*
G75*
G03*
X117420000Y-107660000I1J-3000001D01*
G01*
X166420000Y-57660000D02*
G75*
G03*
X163420000Y-54660000I-3000001J-1D01*
G01*
X112420000Y-102660000D02*
G75*
G03*
X115420000Y-99660000I-1J3000001D01*
G01*
X117420000Y-107660000D02*
X117420000Y-115590000D01*
X142920000Y-149660000D02*
G75*
G03*
X145920000Y-152660000I3000001J1D01*
G01*
X115420000Y-107660000D02*
G75*
G03*
X112420000Y-104660000I-3000001J-1D01*
G01*
X115420000Y-87825000D02*
X115420000Y-71100000D01*
X142920000Y-121100000D02*
G75*
G03*
X140920000Y-121100000I-1000000J0D01*
G01*
X171420000Y-102660000D02*
X177425000Y-102660000D01*
X191920000Y-107660000D02*
G75*
G03*
X188920000Y-104660000I-3000001J-1D01*
G01*
X91920000Y-99660000D02*
G75*
G03*
X94920000Y-102660000I3000001J1D01*
G01*
X140920000Y-65590000D02*
X140920000Y-57660000D01*
X115420000Y-87825000D02*
G75*
G03*
X117420000Y-87825000I1000000J0D01*
G01*
X117420000Y-93335000D02*
G75*
G03*
X115420000Y-93335000I-1000000J0D01*
G01*
X140920000Y-137825000D02*
X140920000Y-121100000D01*
X117420000Y-143335000D02*
G75*
G03*
X115420000Y-143335000I-1000000J0D01*
G01*
X140920000Y-115590000D02*
X140920000Y-107660000D01*
X120420000Y-152660000D02*
X137920000Y-152660000D01*
X137920000Y-54660000D02*
X120420000Y-54660000D01*
X142920000Y-99660000D02*
G75*
G03*
X145920000Y-102660000I3000001J1D01*
G01*
X168420000Y-71100000D02*
G75*
G03*
X166420000Y-71100000I-1000000J0D01*
G01*
X188920000Y-102660000D02*
G75*
G03*
X191920000Y-99660000I-1J3000001D01*
G01*
X177425000Y-104660000D02*
G75*
G03*
X177425000Y-102660000I0J1000000D01*
G01*
X142920000Y-71100000D02*
X142920000Y-87825000D01*
X157435000Y-102660000D02*
X163420000Y-102660000D01*
X166420000Y-137825000D02*
X166420000Y-121100000D01*
X166420000Y-149660000D02*
X166420000Y-143335000D01*
X115420000Y-137825000D02*
X115420000Y-121100000D01*
X168420000Y-107660000D02*
X168420000Y-115590000D01*
X166420000Y-107660000D02*
G75*
G03*
X163420000Y-104660000I-3000001J-1D01*
G01*
X115420000Y-149660000D02*
X115420000Y-143335000D01*
X166420000Y-65590000D02*
G75*
G03*
X168420000Y-65590000I1000000J0D01*
G01*
X151925000Y-104660000D02*
G75*
G03*
X151925000Y-102660000I0J1000000D01*
G01*
X151925000Y-104660000D02*
X145920000Y-104660000D01*
X106435000Y-102660000D02*
G75*
G03*
X106435000Y-104660000I0J-1000000D01*
G01*
X168420000Y-99660000D02*
G75*
G03*
X171420000Y-102660000I3000001J1D01*
G01*
X140920000Y-149660000D02*
X140920000Y-143335000D01*
X91920000Y-149660000D02*
G75*
G03*
X94920000Y-152660000I3000001J1D01*
G01*
X168420000Y-71100000D02*
X168420000Y-87825000D01*
X145920000Y-152660000D02*
X163420000Y-152660000D01*
X168420000Y-121100000D02*
G75*
G03*
X166420000Y-121100000I-1000000J0D01*
G01*
X191920000Y-57660000D02*
G75*
G03*
X188920000Y-54660000I-3000001J-1D01*
G01*
X142920000Y-107660000D02*
X142920000Y-115590000D01*
X112420000Y-54660000D02*
X94920000Y-54660000D01*
X120420000Y-102660000D02*
X126425000Y-102660000D01*
X117420000Y-71100000D02*
X117420000Y-87825000D01*
X168420000Y-143335000D02*
X168420000Y-149660000D01*
X117420000Y-121100000D02*
G75*
G03*
X115420000Y-121100000I-1000000J0D01*
G01*
X140920000Y-99660000D02*
X140920000Y-93335000D01*
X142920000Y-57660000D02*
X142920000Y-65590000D01*
X140920000Y-57660000D02*
G75*
G03*
X137920000Y-54660000I-3000001J-1D01*
G01*
X140920000Y-87825000D02*
X140920000Y-71100000D01*
X168420000Y-93335000D02*
X168420000Y-99660000D01*
X166420000Y-115590000D02*
X166420000Y-107660000D01*
X142920000Y-143335000D02*
G75*
G03*
X140920000Y-143335000I-1000000J0D01*
G01*
X177425000Y-104660000D02*
X171420000Y-104660000D01*
X117420000Y-57660000D02*
X117420000Y-65590000D01*
X115420000Y-65590000D02*
X115420000Y-57660000D01*
X145920000Y-102660000D02*
X151925000Y-102660000D01*
X117420000Y-99660000D02*
G75*
G03*
X120420000Y-102660000I3000001J1D01*
G01*
X168420000Y-143335000D02*
G75*
G03*
X166420000Y-143335000I-1000000J0D01*
G01*
X163420000Y-104660000D02*
X157435000Y-104660000D01*
X117420000Y-121100000D02*
X117420000Y-137825000D01*
X117420000Y-149660000D02*
G75*
G03*
X120420000Y-152660000I3000001J1D01*
G01*
X157435000Y-102660000D02*
G75*
G03*
X157435000Y-104660000I0J-1000000D01*
G01*
X191920000Y-149660000D02*
X191920000Y-107660000D01*
X182935000Y-102660000D02*
X188920000Y-102660000D01*
X163420000Y-102660000D02*
G75*
G03*
X166420000Y-99660000I-1J3000001D01*
G01*
X106435000Y-102660000D02*
X112420000Y-102660000D01*
X163420000Y-152660000D02*
G75*
G03*
X166420000Y-149660000I-1J3000001D01*
G01*
X171420000Y-54660000D02*
G75*
G03*
X168420000Y-57660000I1J-3000001D01*
G01*
X100925000Y-104660000D02*
X94920000Y-104660000D01*
X166420000Y-87825000D02*
X166420000Y-71100000D01*
X115420000Y-65590000D02*
G75*
G03*
X117420000Y-65590000I1000000J0D01*
G01*
X94920000Y-54660000D02*
G75*
G03*
X91920000Y-57660000I1J-3000001D01*
G01*
X168420000Y-93335000D02*
G75*
G03*
X166420000Y-93335000I-1000000J0D01*
G01*
X131935000Y-102660000D02*
G75*
G03*
X131935000Y-104660000I0J-1000000D01*
G01*
X142920000Y-93335000D02*
X142920000Y-99660000D01*
X166420000Y-99660000D02*
X166420000Y-93335000D01*
X142920000Y-121100000D02*
X142920000Y-137825000D01*
X91920000Y-57660000D02*
X91920000Y-99660000D01*
X145920000Y-54660000D02*
G75*
G03*
X142920000Y-57660000I1J-3000001D01*
G01*
X168420000Y-149660000D02*
G75*
G03*
X171420000Y-152660000I3000001J1D01*
G01*
X115420000Y-99660000D02*
X115420000Y-93335000D01*
X117420000Y-143335000D02*
X117420000Y-149660000D01*
X188920000Y-152660000D02*
G75*
G03*
X191920000Y-149660000I-1J3000001D01*
G01*
X166420000Y-115590000D02*
G75*
G03*
X168420000Y-115590000I1000000J0D01*
G01*
X166420000Y-65590000D02*
X166420000Y-57660000D01*
X166420000Y-87825000D02*
G75*
G03*
X168420000Y-87825000I1000000J0D01*
G01*
X145920000Y-104660000D02*
G75*
G03*
X142920000Y-107660000I1J-3000001D01*
G01*
X137920000Y-102660000D02*
G75*
G03*
X140920000Y-99660000I-1J3000001D01*
G01*
X142920000Y-93335000D02*
G75*
G03*
X140920000Y-93335000I-1000000J0D01*
G01*
X163420000Y-54660000D02*
X145920000Y-54660000D01*
X151845000Y-64860000D02*
X151845000Y-91860000D01*
X157345000Y-64860000D02*
X157345000Y-91860000D01*
X155345000Y-91860000D02*
X155345000Y-64860000D01*
X153845000Y-91860000D02*
X153845000Y-64860000D01*
X155345000Y-91860000D02*
G75*
G03*
X157345000Y-91860000I1000000J0D01*
G01*
X157345000Y-64860000D02*
G75*
G03*
X155345000Y-64860000I-1000000J0D01*
G01*
X151845000Y-91860000D02*
G75*
G03*
X153845000Y-91860000I1000000J0D01*
G01*
X153845000Y-64860000D02*
G75*
G03*
X151845000Y-64860000I-1000000J0D01*
G01*
X126345000Y-114860000D02*
X126345000Y-141860000D01*
X128345000Y-141860000D02*
X128345000Y-114860000D01*
X129845000Y-141860000D02*
X129845000Y-114860000D01*
X131845000Y-114860000D02*
X131845000Y-141860000D01*
X131845000Y-114860000D02*
G75*
G03*
X129845000Y-114860000I-1000000J0D01*
G01*
X129845000Y-141860000D02*
G75*
G03*
X131845000Y-141860000I1000000J0D01*
G01*
X128345000Y-114860000D02*
G75*
G03*
X126345000Y-114860000I-1000000J0D01*
G01*
X126345000Y-141860000D02*
G75*
G03*
X128345000Y-141860000I1000000J0D01*
G01*
X102822500Y-91860000D02*
X102822500Y-64860000D01*
X106322500Y-64860000D02*
X106322500Y-91860000D01*
X104322500Y-91860000D02*
X104322500Y-64860000D01*
X100822500Y-64860000D02*
X100822500Y-91860000D01*
X106322500Y-64860000D02*
G75*
G03*
X104322500Y-64860000I-1000000J0D01*
G01*
X100822500Y-91860000D02*
G75*
G03*
X102822500Y-91860000I1000000J0D01*
G01*
X104322500Y-91860000D02*
G75*
G03*
X106322500Y-91860000I1000000J0D01*
G01*
X102822500Y-64860000D02*
G75*
G03*
X100822500Y-64860000I-1000000J0D01*
G01*
X131845000Y-64860000D02*
X131845000Y-91860000D01*
X126345000Y-64860000D02*
X126345000Y-91860000D01*
X128345000Y-91860000D02*
X128345000Y-64860000D01*
X129845000Y-91860000D02*
X129845000Y-64860000D01*
X131845000Y-64860000D02*
G75*
G03*
X129845000Y-64860000I-1000000J0D01*
G01*
X126345000Y-91860000D02*
G75*
G03*
X128345000Y-91860000I1000000J0D01*
G01*
X128345000Y-64860000D02*
G75*
G03*
X126345000Y-64860000I-1000000J0D01*
G01*
X129845000Y-91860000D02*
G75*
G03*
X131845000Y-91860000I1000000J0D01*
G01*
X182845000Y-64860000D02*
X182845000Y-91860000D01*
X179345000Y-91860000D02*
X179345000Y-64860000D01*
X177345000Y-64860000D02*
X177345000Y-91860000D01*
X180845000Y-91860000D02*
X180845000Y-64860000D01*
X179345000Y-64860000D02*
G75*
G03*
X177345000Y-64860000I-1000000J0D01*
G01*
X177345000Y-91860000D02*
G75*
G03*
X179345000Y-91860000I1000000J0D01*
G01*
X180845000Y-91860000D02*
G75*
G03*
X182845000Y-91860000I1000000J0D01*
G01*
X182845000Y-64860000D02*
G75*
G03*
X180845000Y-64860000I-1000000J0D01*
G01*
X179345000Y-141860000D02*
X179345000Y-114860000D01*
X182845000Y-114860000D02*
X182845000Y-141860000D01*
X177345000Y-114860000D02*
X177345000Y-141860000D01*
X180845000Y-141860000D02*
X180845000Y-114860000D01*
X180845000Y-141860000D02*
G75*
G03*
X182845000Y-141860000I1000000J0D01*
G01*
X177345000Y-141860000D02*
G75*
G03*
X179345000Y-141860000I1000000J0D01*
G01*
X182845000Y-114860000D02*
G75*
G03*
X180845000Y-114860000I-1000000J0D01*
G01*
X179345000Y-114860000D02*
G75*
G03*
X177345000Y-114860000I-1000000J0D01*
G01*
X106345000Y-114860000D02*
X106345000Y-141860000D01*
X104345000Y-141860000D02*
X104345000Y-114860000D01*
X100845000Y-114860000D02*
X100845000Y-141860000D01*
X102845000Y-141860000D02*
X102845000Y-114860000D01*
X106345000Y-114860000D02*
G75*
G03*
X104345000Y-114860000I-1000000J0D01*
G01*
X102845000Y-114860000D02*
G75*
G03*
X100845000Y-114860000I-1000000J0D01*
G01*
X104345000Y-141860000D02*
G75*
G03*
X106345000Y-141860000I1000000J0D01*
G01*
X100845000Y-141860000D02*
G75*
G03*
X102845000Y-141860000I1000000J0D01*
G01*
X153845000Y-141860000D02*
X153845000Y-114860000D01*
X151845000Y-114860000D02*
X151845000Y-141860000D01*
X157345000Y-114860000D02*
X157345000Y-141860000D01*
X155345000Y-141860000D02*
X155345000Y-114860000D01*
X153845000Y-114860000D02*
G75*
G03*
X151845000Y-114860000I-1000000J0D01*
G01*
X157345000Y-114860000D02*
G75*
G03*
X155345000Y-114860000I-1000000J0D01*
G01*
X155345000Y-141860000D02*
G75*
G03*
X157345000Y-141860000I1000000J0D01*
G01*
X151845000Y-141860000D02*
G75*
G03*
X153845000Y-141860000I1000000J0D01*
G01*
M02*
